<?xml version="1.0" encoding="UTF-8"?>
<svg width="72px" height="72px" viewBox="0 0 72 72" version="1.1" xmlns="http://www.w3.org/2000/svg" xmlns:xlink="http://www.w3.org/1999/xlink">
    <title>Group@1x</title>
    <defs>
        <rect id="path-1" x="0" y="0" width="72" height="72"></rect>
        <linearGradient x1="50%" y1="0%" x2="50%" y2="100%" id="linearGradient-3">
            <stop stop-color="#00D382" offset="0%"></stop>
            <stop stop-color="#00685A" offset="100%"></stop>
        </linearGradient>
    </defs>
    <g id="Web" stroke="none" stroke-width="1" fill="none" fill-rule="evenodd">
        <g id="1-首页_L" transform="translate(-904.000000, -3016.000000)">
            <g id="Communication" transform="translate(0.000000, 2976.000000)">
                <g id="content" transform="translate(252.000000, 0.000000)">
                    <g id="交流群" transform="translate(608.000000, 40.000000)">
                        <g id="Group" transform="translate(44.000000, 0.000000)">
                            <mask id="mask-2" fill="white">
                                <use xlink:href="#path-1"></use>
                            </mask>
                            <g id="矩形备份-26"></g>
                            <g id="交流" stroke-linejoin="round" mask="url(#mask-2)">
                                <g transform="translate(2.700000, 12.600000)">
                                    <path d="M43.6587969,10.8 C57.3888052,10.8 68.4,20.4513758 68.4,32.2777095 C68.4,44.1040432 57.2528646,53.755419 43.6587969,53.755419 C40.1243394,53.755419 36.7258225,53.0757446 33.5991869,51.9882656 C31.5600768,51.1726564 24.8989837,54.9788328 23.1317549,53.755419 C21.6364075,52.66794 25.170865,46.5508708 23.947399,45.1915221 C20.8207634,41.5212806 18.9175939,37.0354299 18.9175939,32.1417746 C18.7816532,20.4513758 29.9287887,10.8 43.6587969,10.8 Z" id="路径备份-3" stroke="none" fill="#96FFCF" fill-rule="evenodd" opacity="0.50179415" transform="translate(43.658182, 32.400000) scale(-1, 1) translate(-43.658182, -32.400000) "></path>
                                    <path d="M28.3507048,0 C44.083006,0 56.7,11.0588681 56.7,24.6098754 C56.7,38.1608828 43.9272407,49.2197509 28.3507048,49.2197509 C24.3008055,49.2197509 20.4066716,48.4409574 16.8240683,47.1948877 C14.4875879,46.2603355 6.85508546,50.6215792 4.83013581,49.2197509 C3.1167169,47.9736813 7.1666162,40.9645395 5.76472798,39.4069524 C2.18212473,35.2014674 0.00140970551,30.0614301 0.00140970551,24.4541167 C-0.154355666,11.0588681 12.6184037,0 28.3507048,0 Z" id="路径" stroke="#000000" stroke-width="5" fill="none" stroke-linejoin="round"></path>
                                    <g id="编组-27" stroke="none" stroke-width="1" fill="none" fill-rule="evenodd" transform="translate(9.900000, 20.700000)">
                                        <path d="M3.60000003,0 C5.65714286,0 7.2,1.63636365 7.2,3.6 C7.2,5.56363635 5.48571428,7.2 3.60000003,7.2 C1.71428579,7.2 0,5.56363635 0,3.6 C0,1.63636365 1.54285714,0 3.60000003,0 L3.60000003,0 Z" id="路径" fill="url(#linearGradient-3)"></path>
                                        <path d="M18.905909,0 C20.9596752,0 22.5,1.63636365 22.5,3.6 C22.5,5.56363635 20.7885281,7.2 18.905909,7.2 C17.0232898,7.2 15.311818,5.56363635 15.311818,3.6 C15.1406708,1.63636365 16.8521427,0 18.905909,0 Z" id="路径" fill="url(#linearGradient-3)"></path>
                                        <path d="M34.205909,0 C36.2596752,0 37.8,1.63636365 37.8,3.6 C37.8,5.56363635 36.0885281,7.2 34.205909,7.2 C32.3232898,7.2 30.611818,5.56363635 30.611818,3.6 C30.4406708,1.63636365 32.1521427,0 34.205909,0 Z" id="路径" fill="url(#linearGradient-3)"></path>
                                    </g>
                                </g>
                            </g>
                        </g>
                    </g>
                </g>
            </g>
        </g>
    </g>
</svg>