<?xml version="1.0" encoding="UTF-8"?>
<svg width="128px" height="128px" viewBox="0 0 128 128" version="1.1" xmlns="http://www.w3.org/2000/svg" xmlns:xlink="http://www.w3.org/1999/xlink">
    <title>4 代码@1x</title>
    <defs>
        <path d="M21.3654822,0 L21.718787,0.0028732717 C33.355249,0.192266312 42.7309645,9.72054531 42.7309645,21.4459459 L42.7309645,21.4459459 L42.728102,21.8005998 C42.5394195,33.4814851 33.04689,42.8918919 21.3654822,42.8918919 L21.3654822,42.8918919 L21.0121775,42.8890188 C9.37571547,42.6996381 0,33.171971 0,21.4459459 C0,9.60210692 9.56608047,0 21.3654822,0 L21.3654822,0 Z" id="path-1"></path>
        <path d="M33.4416244,0 C51.9107772,0 66.8832487,15.0288588 66.8832487,33.5675676 L66.8832487,33.5675676 L66.8787685,34.1226828 C66.5834496,52.4059656 51.7260856,67.1351351 33.4416244,67.1351351 L33.4416244,67.1351351 L32.8886103,67.1306382 C14.6745194,66.8342194 0,51.9215104 0,33.5675676 L0,33.5675676 L0.00448026568,33.0124708 C0.299799099,14.7297845 15.1571631,0 33.4416244,0 Z" id="path-3"></path>
        <linearGradient x1="50%" y1="0%" x2="50%" y2="100%" id="linearGradient-5">
            <stop stop-color="#00D382" offset="0%"></stop>
            <stop stop-color="#00685A" offset="100%"></stop>
        </linearGradient>
        <rect id="path-6" x="25" y="54.6216216" width="16" height="5"></rect>
    </defs>
    <g id="Web" stroke="none" stroke-width="1" fill="none" fill-rule="evenodd">
        <g id="1-首页_L" transform="translate(-1186.000000, -2600.000000)">
            <g id="Contribution" transform="translate(0.000000, 2512.000000)">
                <g id="Group-9" transform="translate(300.000000, 88.000000)">
                    <g id="4-代码" transform="translate(886.000000, 0.000000)">
                        <g id="编组-35" transform="translate(2.000000, 2.000000)">
                            <g id="编组-2" transform="translate(1.000000, 1.000000)">
                                <g id="编组备份">
                                    <g id="编组" transform="translate(0.000000, 76.621622)">
                                        <mask id="mask-2" fill="white">
                                            <use xlink:href="#path-1"></use>
                                        </mask>
                                        <use id="Clip-2" fill="#96FFCF" opacity="0.50179415" xlink:href="#path-1"></use>
                                    </g>
                                    <g id="编组" transform="translate(55.629442, 0.000000)">
                                        <mask id="mask-4" fill="white">
                                            <use xlink:href="#path-3"></use>
                                        </mask>
                                        <use id="Clip-4" fill="#96FFCF" opacity="0.50179415" xlink:href="#path-3"></use>
                                    </g>
                                    <polygon id="Fill-5" fill="#96FFCF" opacity="0.50179415" points="102.182741 116 122 116 122 96.1081081 102.182741 96.1081081"></polygon>
                                    <g id="编组" transform="translate(14.000000, 14.000000)">
                                        <g fill="#FFFFFF" id="矩形" stroke="#000000" stroke-linejoin="round" stroke-width="5">
                                            <rect x="0" y="0" width="72" height="57" rx="5"></rect>
                                        </g>
                                        <g id="编组-16" transform="translate(20.174615, 8.052110)">
                                            <polygon id="Fill-10" fill="#96FFCF" opacity="0.50179415" points="0 5.64413699 43.7923692 5.64413699 43.7923692 0 0 0"></polygon>
                                            <polygon id="Fill-12" fill="#FFFFFF" points="3.32822256 3.55964384 2.81332 2.07378082 2.57557641 2.07378082 2.07005846 3.54956164 1.46568923 1.64528767 1.45630462 1.58542466 1.14911487 1.58542466 1.92178154 4.048 1.94117641 4.09778082 2.1895559 4.09778082 2.69444821 2.64216438 3.19996615 4.09778082 3.45710462 4.09778082 4.25917641 1.58542466 3.95261231 1.58542466"></polygon>
                                            <polygon id="Fill-13" fill="#FFFFFF" points="7.51832821 3.55964384 7.00342564 2.07378082 6.76568205 2.07378082 6.2601641 3.54956164 5.66643077 1.64528767 5.64641026 1.58542466 5.33922051 1.58542466 6.11188718 4.048 6.13128205 4.09778082 6.38904615 4.09778082 6.88455385 2.64216438 7.40008205 4.09778082 7.64721026 4.09778082 8.44928205 1.58542466 8.14271795 1.58542466"></polygon>
                                            <polygon id="Fill-14" fill="#FFFFFF" points="11.7084338 3.55964384 11.1935313 2.07378082 10.9557877 2.07378082 10.4502697 3.54956164 9.85653641 1.64528767 9.8365159 1.58542466 9.52932615 1.58542466 10.3019928 4.048 10.3220133 4.09778082 10.5791518 4.09778082 11.0746595 2.64216438 11.5901877 4.09778082 11.8373159 4.09778082 12.6393877 1.58542466 12.3328236 1.58542466"></polygon>
                                            <path d="M14.3734769,3.5498137 C14.2940205,3.5498137 14.1951692,3.59959452 14.1951692,3.83904658 C14.1951692,4.07849863 14.2940205,4.12827945 14.3734769,4.12827945 C14.4523077,4.12827945 14.551159,4.07849863 14.551159,3.83904658 C14.551159,3.59959452 14.4523077,3.5498137 14.3734769,3.5498137" id="Fill-15" fill="#FFFFFF"></path>
                                            <path d="M14.3734769,2.33327123 C14.4523077,2.33327123 14.551159,2.28349041 14.551159,2.04403836 C14.551159,1.8045863 14.4523077,1.75480548 14.3734769,1.75480548 C14.2940205,1.75480548 14.1951692,1.8045863 14.1951692,2.04403836 C14.1951692,2.28349041 14.2940205,2.33327123 14.3734769,2.33327123" id="Fill-16" fill="#FFFFFF"></path>
                                        </g>
                                        <g transform="translate(6.097581, 18.568159)" id="Stroke-18" stroke="#C5FBE5" stroke-linejoin="round" stroke-width="2">
                                            <polyline points="0 21.403863 0 0 59.8694667 0 59.8694667 31.5704932 0 31.5704932 0 27.5615616"></polyline>
                                        </g>
                                        <polygon id="Stroke-20" fill="#96FFCF" opacity="0.50179415" points="6.94105641 12.6191534 5.20740513 10.873674 6.94105641 9.12882466 8.32747692 9.12882466 6.6038359 10.873674 8.33748718 12.6090712"></polygon>
                                        <polygon id="Stroke-22" fill="#96FFCF" opacity="0.50179415" points="14.6473272 12.6191534 16.3809785 10.873674 14.6473272 9.12882466 13.2508964 9.12882466 14.9839221 10.873674 13.2508964 12.6090712"></polygon>
                                        <g transform="translate(85.778145, 69.470447)" fill="#FFFFFF" id="Fill-31">
                                            <line x1="1.03418462" y1="0.315068493" x2="0" y2="0.315068493"></line>
                                        </g>
                                    </g>
                                </g>
                                <rect id="矩形" fill="#96FFCF" opacity="0.50179415" x="25" y="38.6216216" width="30" height="5"></rect>
                                <rect id="矩形备份-9" fill="#96FFCF" opacity="0.50179415" x="25" y="46.6216216" width="50" height="5"></rect>
                                <text id="&lt;/&gt;" stroke="#000000" font-family="FZLTXHJW--GB1-0, FZLanTingHeiS-EL-GB" font-size="7" font-weight="normal" letter-spacing="1.8" fill="#000000">
                                    <tspan x="59.721875" y="43">&lt;/&gt;</tspan>
                                </text>
                                <mask id="mask-7" fill="white">
                                    <use xlink:href="#path-6"></use>
                                </mask>
                                <use id="矩形备份-24" fill="url(#linearGradient-5)" xlink:href="#path-6"></use>
                            </g>
                            <g id="编组-4" transform="translate(89.091576, 86.091576) rotate(-45.000000) translate(-89.091576, -86.091576) translate(70.091576, 56.878807)">
                                <rect id="矩形" stroke="#000000" stroke-width="2" x="17" y="37" width="4" height="4"></rect>
                                <path d="M19,1 C23.9705627,1 28.4705627,3.01471863 31.7279221,6.27207794 C34.9852814,9.52943725 37,14.0294373 37,19 C37,23.9705627 34.9852814,28.4705627 31.7279221,31.7279221 C28.4705627,34.9852814 23.9705627,37 19,37 C14.0294373,37 9.52943725,34.9852814 6.27207794,31.7279221 C3.01471863,28.4705627 1,23.9705627 1,19 C1,14.0294373 3.01471863,9.52943725 6.27207794,6.27207794 C9.52943725,3.01471863 14.0294373,1 19,1 Z M19,7 C15.6862915,7 12.6862915,8.34314575 10.5147186,10.5147186 C8.34314575,12.6862915 7,15.6862915 7,19 C7,22.3137085 8.34314575,25.3137085 10.5147186,27.4852814 C12.6862915,29.6568542 15.6862915,31 19,31 C22.3137085,31 25.3137085,29.6568542 27.4852814,27.4852814 C29.6568542,25.3137085 31,22.3137085 31,19 C31,15.6862915 29.6568542,12.6862915 27.4852814,10.5147186 C25.3137085,8.34314575 22.3137085,7 19,7 Z" id="形状结合" stroke="#000000" stroke-width="2" fill="#FFFFFF"></path>
                                <polyline id="路径-3" points="14.9148011 47.0216089 15 41 23 41 23 49.0041504"></polyline>
                                <polyline id="路径-3" stroke="#000000" stroke-width="2" stroke-linecap="round" stroke-linejoin="round" points="15 58.4255371 15 41 23 41 23 49.0041504"></polyline>
                                <circle id="椭圆形" fill="#000000" cx="23" cy="51.5" r="1"></circle>
                            </g>
                        </g>
                    </g>
                </g>
            </g>
        </g>
    </g>
</svg>