<?xml version="1.0" encoding="UTF-8"?>
<svg width="128px" height="128px" viewBox="0 0 128 128" version="1.1" xmlns="http://www.w3.org/2000/svg" xmlns:xlink="http://www.w3.org/1999/xlink">
    <title>1 体验</title>
    <defs>
        <rect id="path-1" x="0" y="0" width="128" height="128"></rect>
        <linearGradient x1="50%" y1="0%" x2="50%" y2="100%" id="linearGradient-3">
            <stop stop-color="#00D382" offset="0%"></stop>
            <stop stop-color="#00685A" offset="100%"></stop>
        </linearGradient>
    </defs>
    <g id="Web" stroke="none" stroke-width="1" fill="none" fill-rule="evenodd">
        <g id="1-首页_L" transform="translate(-316.000000, -2784.000000)">
            <g id="Contribution" transform="translate(0.000000, 2512.000000)">
                <g id="Group-9" transform="translate(300.000000, 88.000000)">
                    <g id="1-体验" transform="translate(16.000000, 184.000000)">
                        <mask id="mask-2" fill="white">
                            <use xlink:href="#path-1"></use>
                        </mask>
                        <g id="矩形"></g>
                        <g id="img_申请流程_04" mask="url(#mask-2)">
                            <g transform="translate(5.000000, 5.000000)">
                                <g id="04报告评审-未点击" stroke="none" fill-rule="evenodd">
                                    <g id="编组-2" transform="translate(59.073150, 58.970670) scale(1, -1) translate(-59.073150, -58.970670) translate(0.567986, 0.000000)">
                                        <ellipse id="椭圆形" fill="#96FFCF" opacity="0.50179415" transform="translate(89.521475, 25.941340) rotate(-360.000000) translate(-89.521475, -25.941340) " cx="89.5214751" cy="25.9413397" rx="25.8966902" ry="25.9413397"></ellipse>
                                        <ellipse id="椭圆形备份-17" fill="#96FFCF" opacity="0.50179415" transform="translate(100.032663, 102.441340) rotate(-360.000000) translate(-100.032663, -102.441340) " cx="100.032663" cy="102.44134" rx="15.4733219" ry="15.5"></ellipse>
                                        <path d="M100.010327,67 L117.010327,83 L108.010327,83 L108.010327,107 L92.010327,107 L92.010327,83 L83.010327,83 L100.010327,67 Z" id="形状结合" stroke="#000000" stroke-width="2" fill="#FFFFFF" stroke-linejoin="round"></path>
                                        <rect id="矩形" fill="#96FFCF" opacity="0.50179415" x="0" y="82.1930242" width="18.9672978" height="19"></rect>
                                    </g>
                                    <g id="编组-20" transform="translate(0.000000, 41.127626)">
                                        <rect id="矩形" fill="#96FFCF" opacity="0.50179415" x="0" y="0" width="84" height="20" rx="5"></rect>
                                        <path d="M2,15 L81.5180723,15 L81.5180723,58.2413793 C81.5180723,61.5550878 78.8317808,64.2413793 75.5180723,64.2413793 L8,64.2413793 C4.6862915,64.2413793 2,61.5550878 2,58.2413793 L2,15 L2,15 Z" id="矩形" stroke="#000000" stroke-width="5" fill="#FFFFFF" stroke-linejoin="round"></path>
                                        <g id="编组-34" transform="translate(23.000000, 29.000000)">
                                            <path d="M15.5,0 C10.9397797,0 7.24299065,3.64568132 7.24299065,8.14285714 L7.25457944,8.57571429 L6.88628254,8.59585395 C3.04916488,8.88701639 0,11.7462046 0,15.2857143 C0,19.0218634 3.39737198,22 7.53271028,22 L7.94670721,21.9900255 L8.07158879,21.9814286 L8.11617107,21.9904449 C8.16218289,21.9967431 8.20919938,22 8.25700935,22 L22.7429907,22 L22.8799698,21.9909513 L22.9269626,21.9814286 L22.6440937,21.9603572 C22.9162681,21.9867232 23.1909468,22 23.4672897,22 C27.602628,22 31,19.0218634 31,15.2857143 L30.9929902,14.9923704 C30.8302679,11.5950617 27.8542767,8.88804114 24.1325205,8.59730178 L23.743972,8.57571429 L23.7465812,8.55524685 C23.7535243,8.41825012 23.7570093,8.28075607 23.7570093,8.14285714 C23.7570093,3.64568132 20.0602203,0 15.5,0 Z" id="形状结合备份" fill="#96FFCF" opacity="0.50179415"></path>
                                            <path d="M26.7,5 C23.5519769,5 21,7.55197693 21,10.7 L21.008,11.003 L20.7537563,11.0170978 C18.1049074,11.2209115 16,13.2223432 16,15.7 C16,18.3153044 18.3452826,20.4 21.2,20.4 L21.4857914,20.3930179 L21.572,20.387 L21.6027762,20.3933114 C21.6345392,20.3977202 21.6669957,20.4 21.7,20.4 L31.7,20.4 L31.7945598,20.3936659 L31.827,20.387 L31.6317292,20.3722501 C31.8196173,20.3907062 32.0092342,20.4 32.2,20.4 C35.0547174,20.4 37.4,18.3153044 37.4,15.7 L37.395161,15.4946593 C37.2828301,13.1165432 35.2284361,11.2216288 32.6592239,11.0181112 L32.391,11.003 L32.3928012,10.9886728 C32.3975942,10.8927751 32.4,10.7965293 32.4,10.7 C32.4,7.55197693 29.8480231,5 26.7,5 Z" id="形状结合" fill="url(#linearGradient-3)"></path>
                                        </g>
                                        <ellipse id="椭圆形" fill="#000000" cx="9.46987952" cy="7.75862069" rx="2.1686747" ry="2.17241379"></ellipse>
                                        <ellipse id="椭圆形" fill="#000000" cx="16.6987952" cy="7.75862069" rx="2.1686747" ry="2.17241379"></ellipse>
                                        <ellipse id="椭圆形" fill="#000000" cx="23.9277108" cy="7.75862069" rx="2.1686747" ry="2.17241379"></ellipse>
                                    </g>
                                </g>
                                <path d="" id="路径" stroke="#979797"></path>
                            </g>
                        </g>
                    </g>
                </g>
            </g>
        </g>
    </g>
</svg>