<?xml version="1.0" encoding="UTF-8"?>
<svg width="72px" height="72px" viewBox="0 0 72 72" version="1.1" xmlns="http://www.w3.org/2000/svg" xmlns:xlink="http://www.w3.org/1999/xlink">
    <title>Others@1x</title>
    <defs>
        <rect id="path-1" x="0" y="0" width="72" height="72"></rect>
        <linearGradient x1="50%" y1="0%" x2="50%" y2="100%" id="linearGradient-3">
            <stop stop-color="#00D382" offset="0%"></stop>
            <stop stop-color="#00685A" offset="100%"></stop>
        </linearGradient>
    </defs>
    <g id="Web" stroke="none" stroke-width="1" fill="none" fill-rule="evenodd">
        <g id="1-首页_L" transform="translate(-1525.000000, -4880.000000)">
            <g id="Powered" transform="translate(0.000000, 4760.000000)">
                <g id="Group-7" transform="translate(253.000000, 88.000000)">
                    <g id="编组-26" transform="translate(1200.000000, 0.000000)">
                        <g id="Others" transform="translate(72.000000, 32.000000)">
                            <mask id="mask-2" fill="white">
                                <use xlink:href="#path-1"></use>
                            </mask>
                            <g id="矩形备份-20"></g>
                            <g id="编组-28" mask="url(#mask-2)">
                                <g transform="translate(0.000000, -0.000000)">
                                    <path d="M57.6982224,11.7 L14.3017776,11.7 C12.8648555,11.7 11.7,12.8648555 11.7,14.3017776 L11.7,57.6982224 C11.7,59.1351445 12.8648555,60.3 14.3017776,60.3 L57.6982224,60.3 C59.1351445,60.3 60.3,59.1351445 60.3,57.6982224 L60.3,14.3017776 C60.3,12.8648555 59.1351445,11.7 57.6982224,11.7 Z" id="矩形备份-21" stroke="none" fill="#96FFCF" fill-rule="evenodd" opacity="0.50179415" transform="translate(36.000000, 36.000000) rotate(46.000000) translate(-36.000000, -36.000000) "></path>
                                    <path d="M29.3720468,3.38484679 L29.3720468,30.2568936 L2.5,30.2568936 L2.5,3.38484679 L29.3720468,3.38484679 Z" id="矩形" stroke="#000000" stroke-width="5" fill="none" fill-rule="nonzero"></path>
                                    <path d="M29.3720468,42.6279532 L29.3720468,69.5 L2.5,69.5 L2.5,42.6279532 L29.3720468,42.6279532 Z" id="矩形备份" stroke="#000000" stroke-width="5" fill="none" fill-rule="nonzero"></path>
                                    <path d="M65.4570863,5.19847397 L43.032454,5.19847397 C42.2899404,5.19847397 41.6880143,5.80040015 41.6880143,6.54291372 L41.6880143,28.967546 C41.6880143,29.7100596 42.2899404,30.3119857 43.032454,30.3119857 L65.4570863,30.3119857 C66.1995999,30.3119857 66.801526,29.7100596 66.801526,28.967546 L66.801526,6.54291372 C66.801526,5.80040015 66.1995999,5.19847397 65.4570863,5.19847397 Z" id="矩形备份-3" stroke="none" fill="url(#linearGradient-3)" fill-rule="evenodd" transform="translate(54.244770, 17.755230) rotate(46.000000) translate(-54.244770, -17.755230) "></path>
                                    <path d="M68.6151532,42.6279532 L68.6151532,69.5 L41.7431064,69.5 L41.7431064,42.6279532 L68.6151532,42.6279532 Z" id="矩形备份-2" stroke="#000000" stroke-width="5" fill="none" fill-rule="nonzero"></path>
                                </g>
                            </g>
                        </g>
                    </g>
                </g>
            </g>
        </g>
    </g>
</svg>