<?xml version="1.0" encoding="UTF-8"?>
<svg width="128px" height="128px" viewBox="0 0 128 128" version="1.1" xmlns="http://www.w3.org/2000/svg" xmlns:xlink="http://www.w3.org/1999/xlink">
    <title>5 成长@1x</title>
    <defs>
        <rect id="path-1" x="0" y="0" width="128" height="128"></rect>
        <path d="M33.16938,0 L33.7179025,0.00444863421 C51.7840645,0.29768251 66.34,15.05016 66.34,33.2068966 L66.34,33.138 L66.34,33.2757931 L66.3355559,33.756029 C66.0455825,51.6595853 51.601578,66.1190604 33.7179025,66.4093443 L33.16938,66.4137931 L32.6208761,66.4093443 C14.5553279,66.1160983 0,51.3630186 0,33.2068966 C0,14.8667586 14.85086,0 33.16938,0 L33.16938,0 Z" id="path-3"></path>
        <linearGradient x1="50%" y1="0%" x2="50%" y2="100%" id="linearGradient-5">
            <stop stop-color="#00D382" offset="0%"></stop>
            <stop stop-color="#00685A" offset="100%"></stop>
        </linearGradient>
    </defs>
    <g id="Web" stroke="none" stroke-width="1" fill="none" fill-rule="evenodd">
        <g id="1-首页_L" transform="translate(-1476.000000, -2784.000000)">
            <g id="Contribution" transform="translate(0.000000, 2512.000000)">
                <g id="Group-9" transform="translate(300.000000, 88.000000)">
                    <g id="5-成长" transform="translate(1176.000000, 184.000000)">
                        <mask id="mask-2" fill="white">
                            <use xlink:href="#path-1"></use>
                        </mask>
                        <g id="矩形备份-23"></g>
                        <g id="编组-37" mask="url(#mask-2)">
                            <g transform="translate(2.000000, 6.000000)">
                                <g id="编组-2" stroke="none" stroke-width="1" fill="none" fill-rule="evenodd">
                                    <g id="编组备份">
                                        <g id="编组" transform="translate(98.924162, 53.809317)" stroke="#B3B3B3">
                                            <path d="M0.54932,0.499034483 C0.41602,0.311586207 0.25482,0.183724138 0.07068,0.121655172" id="Stroke-5"></path>
                                        </g>
                                        <g id="编组" transform="translate(0.038880, 95.689655)" fill="#96FFCF" opacity="0.50179415">
                                            <rect id="矩形" x="0" y="0" width="20.0493286" height="20"></rect>
                                        </g>
                                        <g id="编组" transform="translate(12.084780, 0.000000)">
                                            <mask id="mask-4" fill="white">
                                                <use xlink:href="#path-3"></use>
                                            </mask>
                                            <use id="Clip-10" fill="#96FFCF" opacity="0.50179415" xlink:href="#path-3"></use>
                                        </g>
                                        <g id="编组" transform="translate(0.000000, 14.689655)">
                                            <g transform="translate(43.038880, 0.000000)" stroke-linejoin="round">
                                                <rect id="矩形" stroke="#000000" stroke-width="5" fill="#FFFFFF" x="0" y="0" width="72" height="45" rx="5"></rect>
                                                <rect id="矩形备份-25" stroke="#C5FBE5" stroke-width="2" x="6" y="6" width="60" height="42" rx="2"></rect>
                                            </g>
                                            <path d="M117.813392,50.6584207 L41.4662142,50.6584207 C38.5072891,50.6584207 36.0085102,46.9409529 35.6326399,41.9855016 C35.6326399,41.8917149 35.6469668,41.821375 35.6747778,41.7522073 C35.7017461,41.6818673 35.7582109,41.6584207 35.7995061,41.6584207 L123.466616,41.6584207 C123.521396,41.6584207 123.563534,41.705314 123.591345,41.7522073 C123.619156,41.821375 123.63264,41.8917149 123.63264,41.9855016 C123.272782,46.9409529 120.772318,50.6584207 117.813392,50.6584207" id="Fill-22" stroke="#000000" stroke-width="2" fill="#FFFFFF"></path>
                                            <path d="M84.9962619,31.5119418 C84.9242791,31.5119418 84.8625796,31.491232 84.7905968,31.460348 L80.072298,28.9767538 L75.3531422,31.460348 C75.2091767,31.5427055 75.0352183,31.5221161 74.902393,31.4294639 C74.7678538,31.3376696 74.7070112,31.1729545 74.7275777,31.0090974 L75.6299331,25.7536578 L71.8139896,22.0278376 C71.7008738,21.914596 71.6503145,21.7404442 71.7008738,21.5860238 C71.7522901,21.4324613 71.8859723,21.3192197 72.0505044,21.2883357 L77.3232419,20.5188075 L79.6823913,15.7352079 C79.8263569,15.4375198 80.3079558,15.4375198 80.4510644,15.7352079 L82.8110708,20.5188075 L88.0838083,21.2883357 C88.2474834,21.3089251 88.3811657,21.4221667 88.432582,21.5860238 C88.4831413,21.7404442 88.4420083,21.914596 88.3194662,22.0278376 L84.5035227,25.7536578 L85.406735,31.0090974 C85.4375848,31.1729545 85.365602,31.3376696 85.2319197,31.4294639 C85.1702202,31.4809373 85.0879542,31.5119418 84.9962619,31.5119418" id="Fill-26" fill="url(#linearGradient-5)"></path>
                                            <path d="M106.938923,92.7981194 C106.761926,92.7981194 106.608305,92.7479699 106.434646,92.6710741 L97.5446773,87.9971442 L88.6547082,92.6710741 C88.3007124,92.8750152 87.8732458,92.8248658 87.5426271,92.5941782 C87.215348,92.3701773 87.0650668,91.962295 87.1151605,91.5610993 L88.8049894,81.6549089 L81.6081887,74.6306409 C81.3310033,74.3531473 81.2074388,73.9218619 81.3310033,73.5440693 C81.4579075,73.1629334 81.7885261,72.8854397 82.1926157,72.8085438 L92.1378929,71.3709259 L96.5828775,62.3507093 C96.9402128,61.6151839 98.1257647,61.6151839 98.4797604,62.3507093 L102.924745,71.3709259 L112.873362,72.8085438 C113.277451,72.8620366 113.60473,73.1395303 113.731635,73.5440693 C113.858539,73.9218619 113.758351,74.3531473 113.454449,74.6306409 L106.257649,81.6549089 L107.950817,91.5610993 C108.024288,91.962295 107.84729,92.3701773 107.520011,92.5941782 C107.396446,92.7245668 107.166015,92.7981194 106.938923,92.7981194" id="Fill-30" fill="#96FFCF" opacity="0.50179415"></path>
                                            <g id="编组-33" transform="translate(0.000000, 57.732409)" fill="#FFFFFF" stroke="#000000" stroke-width="2">
                                                <rect id="矩形" x="5" y="7.99148115" width="35" height="21" rx="2"></rect>
                                                <path d="M22.3646164,0.0959132734 L1.68437245,6.19795572 C0.917616582,6.42401757 0.319062377,7.02441175 0.0955152719,7.79232438 C-0.0822779386,8.39721189 -0.00846743771,9.03664623 0.288615404,9.57991023 C0.585489925,10.1228239 1.08235854,10.529343 1.68769779,10.7074592 L19.0392968,15.7953342 C21.6523201,16.5615141 24.4324387,16.5420225 27.034662,15.7394709 L43.3803431,10.6982292 C44.1217821,10.4694003 44.7019099,9.88940602 44.9312306,9.14775473 C45.1181461,8.54464724 45.0543605,7.90476368 44.7661345,7.35711404 C44.4779269,6.80949926 43.9865598,6.39445295 43.3840362,6.20730285 L23.7231925,0.105295503 C23.2813908,-0.0318939669 22.8091843,-0.0350295266 22.3646164,0.0959132734 Z" id="Stroke-39"></path>
                                            </g>
                                        </g>
                                    </g>
                                </g>
                                <rect id="矩形" stroke="none" fill="#96FFCF" fill-rule="evenodd" opacity="0.50179415" x="33.0388799" y="91.6896552" width="4" height="6"></rect>
                                <polyline id="路径-18" stroke="#000000" stroke-width="2" fill="none" stroke-linecap="round" stroke-linejoin="round" points="23.5185758 80.6000718 35.0858387 86.1730439 35.0858387 91.9057975"></polyline>
                            </g>
                        </g>
                    </g>
                </g>
            </g>
        </g>
    </g>
</svg>