<?xml version="1.0" encoding="UTF-8"?>
<svg width="72px" height="72px" viewBox="0 0 72 72" version="1.1" xmlns="http://www.w3.org/2000/svg" xmlns:xlink="http://www.w3.org/1999/xlink">
    <title>Government@1x</title>
    <defs>
        <rect id="path-1" x="0" y="0" width="72" height="72"></rect>
        <linearGradient x1="50%" y1="0%" x2="50%" y2="100%" id="linearGradient-3">
            <stop stop-color="#00D382" offset="0%"></stop>
            <stop stop-color="#00685A" offset="100%"></stop>
        </linearGradient>
        <linearGradient x1="50%" y1="0%" x2="50%" y2="100%" id="linearGradient-4">
            <stop stop-color="#00D382" offset="0%"></stop>
            <stop stop-color="#00685A" offset="100%"></stop>
        </linearGradient>
    </defs>
    <g id="Web" stroke="none" stroke-width="1" fill="none" fill-rule="evenodd">
        <g id="1-首页_L" transform="translate(-565.000000, -4880.000000)">
            <g id="Powered" transform="translate(0.000000, 4760.000000)">
                <g id="Group-7" transform="translate(253.000000, 88.000000)">
                    <g id="编组-26" transform="translate(240.000000, 0.000000)">
                        <g id="Government" transform="translate(72.000000, 32.000000)">
                            <mask id="mask-2" fill="white">
                                <use xlink:href="#path-1"></use>
                            </mask>
                            <g id="矩形备份-15"></g>
                            <g id="编组-23" mask="url(#mask-2)">
                                <g transform="translate(2.700000, 2.700000)">
                                    <path d="M53.26875,5.4 L17.83125,5.4 C16.4332792,5.4 15.3,6.10820412 15.3,6.98181818 L15.3,56.0181818 C15.3,56.8917959 16.4332792,57.6 17.83125,57.6 L53.26875,57.6 C54.6667208,57.6 55.8,56.8917959 55.8,56.0181818 L55.8,6.98181818 C55.8,6.10820412 54.6667208,5.4 53.26875,5.4 Z" id="矩形备份-8" stroke="none" fill="#96FFCF" fill-rule="evenodd" opacity="0.50179415"></path>
                                    <path d="M36,11.5615302 L36,48.7409251 C36,49.6572069 36.6295996,50.4 37.40625,50.4 L57.09375,50.4 C57.8704004,50.4 58.5,49.6572069 58.5,48.7409251 L58.5,24.8562523 C58.5,24.2613076 58.2299809,23.711909 57.7923215,23.4163631 L38.1048215,10.121641 C37.1673313,9.48856561 36,10.2871263 36,11.5615302 Z" id="矩形备份" stroke="none" fill="url(#linearGradient-3)" fill-rule="evenodd"></path>
                                    <path d="M36.1125,0 L12.4875,0 C11.5555195,0 10.8,0.708204123 10.8,1.58181818 L10.8,50.6181818 C10.8,51.4917959 11.5555195,52.2 12.4875,52.2 L36.1125,52.2 C37.0444805,52.2 37.8,51.4917959 37.8,50.6181818 L37.8,1.58181818 C37.8,0.708204123 37.0444805,0 36.1125,0 Z" id="矩形" stroke="#000000" stroke-width="5" fill="none" stroke-linejoin="round" fill-rule="nonzero"></path>
                                    <path d="M30.3,8.1 C30.9627417,8.1 31.5,8.70441559 31.5,9.45 C31.5,10.1334524 31.0485538,10.6982837 30.4628329,10.7876761 L30.3,10.8 L18.3,10.8 C17.6372583,10.8 17.1,10.1955844 17.1,9.45 C17.1,8.76654762 17.5514462,8.20171627 18.1371671,8.11232391 L18.3,8.1 L30.3,8.1 Z" id="直线-25" stroke="none" fill="url(#linearGradient-4)" fill-rule="evenodd"></path>
                                    <path d="M30.3,16.2 C30.9627417,16.2 31.5,16.8044156 31.5,17.55 C31.5,18.2334524 31.0485538,18.7982837 30.4628329,18.8876761 L30.3,18.9 L18.3,18.9 C17.6372583,18.9 17.1,18.2955844 17.1,17.55 C17.1,16.8665476 17.5514462,16.3017163 18.1371671,16.2123239 L18.3,16.2 L30.3,16.2 Z" id="直线-25备份" stroke="none" fill="url(#linearGradient-4)" fill-rule="evenodd"></path>
                                    <path d="M30.3,24.3 C30.9627417,24.3 31.5,24.9044156 31.5,25.65 C31.5,26.3334524 31.0485538,26.8982837 30.4628329,26.9876761 L30.3,27 L18.3,27 C17.6372583,27 17.1,26.3955844 17.1,25.65 C17.1,24.9665476 17.5514462,24.4017163 18.1371671,24.3123239 L18.3,24.3 L30.3,24.3 Z" id="直线-25备份-5" stroke="none" fill="url(#linearGradient-4)" fill-rule="evenodd"></path>
                                    <path d="M30.3,32.4 C30.9627417,32.4 31.5,33.0044156 31.5,33.75 C31.5,34.4334524 31.0485538,34.9982837 30.4628329,35.0876761 L30.3,35.1 L18.3,35.1 C17.6372583,35.1 17.1,34.4955844 17.1,33.75 C17.1,33.0665476 17.5514462,32.5017163 18.1371671,32.4123239 L18.3,32.4 L30.3,32.4 Z" id="直线-25备份-6" stroke="none" fill="url(#linearGradient-4)" fill-rule="evenodd"></path>
                                    <path d="M30.3,40.5 C30.9627417,40.5 31.5,41.1044156 31.5,41.85 C31.5,42.5334524 31.0485538,43.0982837 30.4628329,43.1876761 L30.3,43.2 L18.3,43.2 C17.6372583,43.2 17.1,42.5955844 17.1,41.85 C17.1,41.1665476 17.5514462,40.6017163 18.1371671,40.5123239 L18.3,40.5 L30.3,40.5 Z" id="直线-25备份-2" stroke="none" fill="url(#linearGradient-4)" fill-rule="evenodd"></path>
                                    <path d="M53.7037975,27 C54.3644419,27 54.9,27.6044156 54.9,28.35 C54.9,29.0334524 54.4499824,29.5982837 53.8661151,29.6876761 L53.7037975,29.7 L42.5962025,29.7 C41.9355581,29.7 41.4,29.0955844 41.4,28.35 C41.4,27.6665476 41.8500176,27.1017163 42.4338849,27.0123239 L42.5962025,27 L53.7037975,27 Z" id="直线-25备份-3" stroke="none" fill="#FFFFFF" fill-rule="nonzero"></path>
                                    <path d="M53.7037975,35.1 C54.3644419,35.1 54.9,35.7044156 54.9,36.45 C54.9,37.1334524 54.4499824,37.6982837 53.8661151,37.7876761 L53.7037975,37.8 L42.5962025,37.8 C41.9355581,37.8 41.4,37.1955844 41.4,36.45 C41.4,35.7665476 41.8500176,35.2017163 42.4338849,35.1123239 L42.5962025,35.1 L53.7037975,35.1 Z" id="直线-25备份-4" stroke="none" fill="#FFFFFF" fill-rule="nonzero"></path>
                                    <path d="M61.8947113,39.1320549 C64.9267699,41.8777583 66.6,45.0945965 66.6,48.526784 C66.6,55.6762008 59.3870132,61.5981251 48.86939,64.5590057 L47.8243502,64.8406296 C47.6484466,64.885955 47.4716893,64.9304694 47.2940956,64.9741651 L46.2186337,65.226454 C45.3142806,65.4284062 44.3898772,65.6095095 43.4475759,65.7688094 L42.3083612,65.9494424 C40.9695759,66.1478285 39.5973981,66.3027312 38.197734,66.4115309 L36.9914283,66.4934363 L35.7724864,66.5523939 C34.9558301,66.5839684 34.1313006,66.6 33.3,66.6 C32.4686994,66.6 31.6441699,66.5839684 30.8275136,66.5523939 L29.6085717,66.4934363 L28.402266,66.4115309 C27.0026019,66.3027312 25.6304241,66.1478285 24.2916388,65.9494424 L23.1524241,65.7688094 C22.2101228,65.6095095 21.2857194,65.4284062 20.3813663,65.226454 L19.3059044,64.9741651 C19.1283107,64.9304694 18.9515534,64.885955 18.7756498,64.8406296 L17.73061,64.5590057 C7.21298685,61.5981251 0,55.6762008 0,48.526784 C0,45.0713088 1.69579048,41.8347334 4.76614264,39.077175" id="路径" stroke="#000000" stroke-width="5" fill="none" stroke-linecap="round" stroke-linejoin="round" fill-rule="nonzero"></path>
                                </g>
                            </g>
                        </g>
                    </g>
                </g>
            </g>
        </g>
    </g>
</svg>