<?xml version="1.0" encoding="UTF-8"?>
<svg width="72px" height="72px" viewBox="0 0 72 72" version="1.1" xmlns="http://www.w3.org/2000/svg" xmlns:xlink="http://www.w3.org/1999/xlink">
    <title>User@1x</title>
    <defs>
        <linearGradient x1="50%" y1="0%" x2="50%" y2="100%" id="linearGradient-1">
            <stop stop-color="#00D382" offset="0%"></stop>
            <stop stop-color="#00685A" offset="100%"></stop>
        </linearGradient>
    </defs>
    <g id="Web" stroke="none" stroke-width="1" fill="none" fill-rule="evenodd">
        <g id="1-首页_L" transform="translate(-1200.000000, -2256.000000)">
            <g id="Data" transform="translate(0.000000, 2216.000000)">
                <g id="content" transform="translate(804.000000, 0.000000)">
                    <g id="User" transform="translate(352.000000, 40.000000)">
                        <g transform="translate(44.000000, 0.000000)">
                            <rect id="矩形备份-20" x="0" y="0" width="72" height="72"></rect>
                            <g id="tw-business-man" transform="translate(9.000000, 9.900000)">
                                <path d="M27.45,58.1963131 C42.6102164,58.1963131 54.9,36.585238 54.9,25.65 C54.9,14.714762 42.6102164,9.35698592 27.45,9.35698592 C12.2897836,9.35698592 0,14.714762 0,25.65 C0,36.585238 12.2897836,58.1963131 27.45,58.1963131 Z" id="椭圆形" fill="#96FFCF" opacity="0.50179415"></path>
                                <path d="M27,33.3 C28.5506328,33.3 29.866667,34.437219 30.0915206,35.9714625 L30.8474657,41.1295029 C31.1588834,43.2543995 29.6887683,45.2294225 27.5638717,45.5408403 C27.3771607,45.568204 27.1887055,45.5819403 27,45.5819403 C24.8524044,45.5819403 23.1114343,43.8409701 23.1114343,41.6933746 C23.1114343,41.5046691 23.1251706,41.3162139 23.1525343,41.1295029 L23.9084794,35.9714625 C24.133333,34.437219 25.4493672,33.3 27,33.3 Z" id="矩形" fill="url(#linearGradient-1)"></path>
                                <path d="M27,25.2 C33.9587878,25.2 39.6,19.5587878 39.6,12.6 C39.6,5.64121215 33.9587878,0 27,0 C20.0412122,0 14.4,5.64121215 14.4,12.6 C14.4,19.5587878 20.0412122,25.2 27,25.2 Z M51.3,46.35 C51.3,38.6456277 40.4205194,32.4 27,32.4 C13.5794806,32.4 2.7,38.6456277 2.7,46.35 C2.7,54.0543723 51.3,54.0543723 51.3,46.35 Z" id="Shape" stroke="#000000" stroke-width="5" stroke-linejoin="round"></path>
                            </g>
                        </g>
                    </g>
                </g>
            </g>
        </g>
    </g>
</svg>