<?xml version="1.0" encoding="UTF-8"?>
<svg width="72px" height="72px" viewBox="0 0 72 72" version="1.1" xmlns="http://www.w3.org/2000/svg" xmlns:xlink="http://www.w3.org/1999/xlink">
    <title>Members@2x</title>
    <defs>
        <linearGradient x1="50%" y1="0%" x2="50%" y2="100%" id="linearGradient-1">
            <stop stop-color="#00685A" offset="0%"></stop>
            <stop stop-color="#00D382" offset="100%"></stop>
        </linearGradient>
    </defs>
    <g id="Web" stroke="none" stroke-width="1" fill="none" fill-rule="evenodd">
        <g id="1-首页_L" transform="translate(-944.000000, -2256.000000)">
            <g id="Data" transform="translate(0.000000, 2216.000000)">
                <g id="content" transform="translate(804.000000, 0.000000)">
                    <g id="Members" transform="translate(96.000000, 40.000000)">
                        <g transform="translate(44.000000, 0.000000)">
                            <rect id="矩形备份-20" x="0" y="0" width="72" height="72"></rect>
                            <g id="tw-education" transform="translate(1.800000, 12.600000)">
                                <path d="M33.9609306,45.7090488 L1.64542041,28.6723416 C1.18755918,28.4304184 0.9,27.953564 0.9,27.4347576 C0.9,26.9159512 1.18755918,26.4390968 1.64542041,26.1971736 L33.9609306,9.1604664 C34.3685388,8.9465112 34.8543184,8.9465112 35.2619265,9.1604664 L67.5774367,26.1971736 C68.035298,26.4390968 68.3228571,26.9159512 68.3228571,27.4347576 C68.3228571,27.953564 68.035298,28.4304184 67.5774367,28.6723416 L35.2619265,45.7104472 C35.0581224,45.8167256 34.8347755,45.8712632 34.6114286,45.8712632 C34.3880816,45.8698648 34.1647347,45.8167256 33.9609306,45.7090488 Z" id="Shape备份-2" fill="#96FFCF" opacity="0.50179415"></path>
                                <path d="M34.65,2.63749238 L65.5751828,18.8991427 L34.6513428,35.1614217 L3.72489089,18.899104 L34.65,2.63749238 Z" id="Shape" stroke="#000000" stroke-width="5"></path>
                                <path d="M50.3210939,28.392764 L50.3210939,34.7079384 C50.523502,37.8221752 45.3697714,40.495916 44.7765061,40.7937752 L35.2354041,45.5749048 C35.0399755,45.6727928 34.8264,45.7217368 34.6114286,45.7217368 C34.4243755,45.7217368 34.2373224,45.68398 34.0614367,45.6084664 L22.9248,40.831532 C22.8996735,40.8203448 22.8745469,40.8091576 22.8494204,40.796572 C20.1204,39.4275384 18.8989714,36.7803672 18.8989714,34.7652728 L18.8989714,28.3941624" id="路径" stroke="#000000" stroke-width="5" stroke-linejoin="round"></path>
                                <path d="M35.2479673,15.8449208 C36.5918112,15.8449208 37.6959688,16.8779046 37.8119735,18.1940751 L53.5289143,26.4797528 C53.9784,26.7160824 54.2631673,27.1789528 54.2743347,27.6851736 C54.2803997,27.9552095 54.3521808,31.1623043 54.4248145,34.5944987 L54.4403682,35.332426 C54.5127927,38.7829408 54.5814367,42.2648438 54.5814367,43.0661752 C54.6903184,43.4171736 55.9312898,44.1974808 57.0368571,44.5806424 C57.7655265,44.8323544 58.1535918,45.628044 57.9023265,46.3580088 C57.7027102,46.9383448 57.1610939,47.3019288 56.5817878,47.3019288 L56.5803918,47.3005304 C56.4296327,47.3005304 56.2760816,47.2753592 56.1267184,47.2236184 C55.1090939,46.87262 51.7882041,45.5343512 51.7882041,43.0661752 C51.7882041,41.6733688 51.5662531,31.553148 51.5006449,28.5717592 L36.511317,20.6705344 C36.1380514,20.8816976 35.706992,21.00222 35.2479673,21.00222 C33.8269224,21.00222 32.6738939,19.8471416 32.6738939,18.4235704 C32.6738939,16.9999992 33.8269224,15.8449208 35.2479673,15.8449208 Z" id="形状结合" fill="url(#linearGradient-1)"></path>
                            </g>
                        </g>
                    </g>
                </g>
            </g>
        </g>
    </g>
</svg>