<?xml version="1.0" encoding="UTF-8"?>
<svg width="128px" height="128px" viewBox="0 0 128 128" version="1.1" xmlns="http://www.w3.org/2000/svg" xmlns:xlink="http://www.w3.org/1999/xlink">
    <title>2 签署@1x</title>
    <defs>
        <rect id="path-1" x="0" y="0" width="128" height="128"></rect>
        <linearGradient x1="50%" y1="0%" x2="50%" y2="100%" id="linearGradient-3">
            <stop stop-color="#00D382" offset="0%"></stop>
            <stop stop-color="#00685A" offset="100%"></stop>
        </linearGradient>
    </defs>
    <g id="Web" stroke="none" stroke-width="1" fill="none" fill-rule="evenodd">
        <g id="1-首页_L" transform="translate(-606.000000, -2600.000000)">
            <g id="Contribution" transform="translate(0.000000, 2512.000000)">
                <g id="Group-9" transform="translate(300.000000, 88.000000)">
                    <g id="2-签署" transform="translate(306.000000, 0.000000)">
                        <mask id="mask-2" fill="white">
                            <use xlink:href="#path-1"></use>
                        </mask>
                        <g id="矩形备份-6"></g>
                        <g id="03评测执行-点击" mask="url(#mask-2)">
                            <g transform="translate(2.000000, 5.000000)" id="编组-17">
                                <g id="编组-2备份" fill="#96FFCF" opacity="0.50179415">
                                    <ellipse id="椭圆形" transform="translate(104.880357, 19.500000) rotate(-360.000000) translate(-104.880357, -19.500000) " cx="104.880357" cy="19.5" rx="19.5606207" ry="19.5"></ellipse>
                                    <ellipse id="椭圆形备份-18" transform="translate(12.037305, 94.281556) rotate(-360.000000) translate(-12.037305, -94.281556) " cx="12.0373051" cy="94.2815558" rx="12.0373051" ry="12"></ellipse>
                                    <rect id="矩形" x="95.4864888" y="85.2981179" width="24.0746101" height="24"></rect>
                                </g>
                                <g id="编组-3" transform="translate(20.440978, 17.899218)">
                                    <rect id="矩形" stroke="#000000" stroke-width="5" fill="#FFFFFF" stroke-linejoin="round" x="0" y="0" width="61" height="75.05" rx="5"></rect>
                                    <rect id="矩形" fill="#96FFCF" opacity="0.50179415" x="21.5" y="7.775" width="18" height="16" rx="1"></rect>
                                    <rect id="矩形" fill="#96FFCF" opacity="0.50179415" x="8.85483871" y="51.2" width="43" height="12" rx="1"></rect>
                                    <rect id="矩形" fill="#96FFCF" opacity="0.50179415" x="8.85483871" y="27.7" width="43.2903226" height="5.925" rx="1"></rect>
                                    <rect id="矩形" fill="#96FFCF" opacity="0.50179415" x="8.85483871" y="39.55" width="21.6451613" height="5.925" rx="1"></rect>
                                </g>
                                <g id="编组" transform="translate(100.869430, 77.626488) rotate(-155.000000) translate(-100.869430, -77.626488) translate(95.623916, 34.479905)">
                                    <path d="M5.02581102,0.171353252 L1.8189894e-12,7.47133671 L2.32954194,18.0650512 L5.02581102,18.0650512 L5.02581102,0.171353252 Z M5.46521717,9.09494702e-13 L5.46521717,17.8936979 L8.1612947,17.8936979 L10.4910282,7.29998346 L5.46521717,9.09494702e-13 Z" id="形状结合" fill="url(#linearGradient-3)"></path>
                                    <g transform="translate(0.363872, 0.956521)">
                                        <polygon id="Fill-13" fill="#EDEDED" points="0.526361193 37.678316 9.37701021 37.678316 9.37701021 36.4657895 0.526361193 36.4657895"></polygon>
                                        <path d="M4.89062749,85.3366445 L4.89062749,85.3366445 C3.70257798,85.3366445 2.72352389,84.3906074 2.65825362,83.1914054 L1.2093841,57.8350779 C0.713330021,50.2533229 0.465302984,50.3332697 0.465302984,42.7249991 L0.465302984,38.6478454 L9.31582146,38.6478454 L9.31582146,42.7249991 C9.31582146,50.3332697 9.06792496,50.2401317 8.57187089,57.8350779 L7.12287083,83.1914054 C7.05760055,84.3906074 6.07854646,85.3366445 4.89062749,85.3366445" id="Fill-5" stroke="#000000" stroke-width="2" fill="#FFFFFF"></path>
                                        <polygon id="Fill-9" fill="#96FFCF" opacity="0.50179415" points="0.931036886 36.479114 8.97233452 36.479114 8.97233452 35.0667205 0.931036886 35.0667205"></polygon>
                                        <polygon id="Fill-14" fill="#EDEDED" points="0.827719251 17.4625418 9.67836827 17.4625418 9.67836827 15.315298 0.827719251 15.315298"></polygon>
                                        <path d="M8.91585402,32.8980957 L1.12271397,32.8980957 C0.835524764,32.8980957 0.600551782,32.6582553 0.600551782,32.365117 L0.600551782,15.8427779 C0.600551782,15.5496397 0.835524764,15.3097993 1.12271397,15.3097993 L8.91585402,15.3097993 C9.20304322,15.3097993 9.4380162,15.5496397 9.4380162,15.8427779 L9.4380162,32.3517925 C9.4380162,32.6582553 9.20304322,32.8980957 8.91585402,32.8980957" id="Fill-11" stroke="#000000" stroke-width="2" fill="#FFFFFF"></path>
                                    </g>
                                </g>
                            </g>
                        </g>
                    </g>
                </g>
            </g>
        </g>
    </g>
</svg>