<?xml version="1.0" encoding="UTF-8"?>
<svg width="72px" height="72px" viewBox="0 0 72 72" version="1.1" xmlns="http://www.w3.org/2000/svg" xmlns:xlink="http://www.w3.org/1999/xlink">
    <title>Contributor@1x</title>
    <defs>
        <linearGradient x1="50%" y1="0%" x2="50%" y2="100%" id="linearGradient-1">
            <stop stop-color="#00D382" offset="0%"></stop>
            <stop stop-color="#00685A" offset="100%"></stop>
        </linearGradient>
        <linearGradient x1="50%" y1="0%" x2="50%" y2="100%" id="linearGradient-2">
            <stop stop-color="#00D382" offset="0%"></stop>
            <stop stop-color="#00685A" offset="100%"></stop>
        </linearGradient>
        <linearGradient x1="50%" y1="0%" x2="50%" y2="100%" id="linearGradient-3">
            <stop stop-color="#00D382" offset="0%"></stop>
            <stop stop-color="#00685A" offset="100%"></stop>
        </linearGradient>
        <linearGradient x1="50%" y1="0%" x2="50%" y2="100%" id="linearGradient-4">
            <stop stop-color="#00D382" offset="0%"></stop>
            <stop stop-color="#00685A" offset="100%"></stop>
        </linearGradient>
        <linearGradient x1="50%" y1="0%" x2="50%" y2="100%" id="linearGradient-5">
            <stop stop-color="#00D382" offset="0%"></stop>
            <stop stop-color="#00685A" offset="100%"></stop>
        </linearGradient>
        <linearGradient x1="50%" y1="0%" x2="50%" y2="100%" id="linearGradient-6">
            <stop stop-color="#00D382" offset="0%"></stop>
            <stop stop-color="#00685A" offset="100%"></stop>
        </linearGradient>
    </defs>
    <g id="Web" stroke="none" stroke-width="1" fill="none" fill-rule="evenodd">
        <g id="1-首页_L" transform="translate(-1456.000000, -2256.000000)">
            <g id="Data" transform="translate(0.000000, 2216.000000)">
                <g id="content" transform="translate(804.000000, 0.000000)">
                    <g id="Contributor" transform="translate(608.000000, 40.000000)">
                        <g transform="translate(44.000000, 0.000000)">
                            <rect id="矩形备份-20" x="0" y="0" width="72" height="72"></rect>
                            <g id="编组-21" transform="translate(7.000000, 13.000000)">
                                <path d="M60.3238757,40.9988088 L9.67612431,40.9988088 C7.64924907,40.9988088 6,39.3704349 6,37.3704059 L6,3.62959412 C6,1.62837386 7.64924907,0 9.67612431,0 L60.3202563,0 C62.3471315,0 63.9963806,1.62837386 63.9963806,3.62959412 L64,37.3704059 C64,39.3716261 62.3507509,41 60.3238757,41 L60.3238757,40.9988088 Z" id="Shape备份" fill="#96FFCF" opacity="0.50179415"></path>
                                <g id="tw-dashboard-portal" transform="translate(5.921176, 15.636364)">
                                    <path d="M28.8952941,18.4090909 C28.3342024,18.4090909 27.8788235,17.9110672 27.8788235,17.2974308 L27.8788235,12.9752964 C27.8788235,12.3616601 28.3342024,11.8636364 28.8952941,11.8636364 C29.4563859,11.8636364 29.9117647,12.3616601 29.9117647,12.9752964 L29.9117647,17.2974308 C29.9117647,17.9110672 29.4563859,18.4090909 28.8952941,18.4090909 L28.8952941,18.4090909 Z" id="Path" fill="url(#linearGradient-1)"></path>
                                    <path d="M1.01748808,1.96363636 C0.7509062,1.96363636 0.488394277,1.85788119 0.298124006,1.67404509 C0.107853736,1.490209 0,1.23521054 0,0.975270256 C0,0.909049727 0.00915739269,0.843817564 0.0223847377,0.781550499 C0.0315421304,0.71532997 0.053926868,0.654051271 0.0763116057,0.596726037 C0.103783784,0.535447339 0.135325914,0.478122104 0.170937997,0.425738701 C0.207567568,0.368413466 0.252337043,0.319983527 0.297106518,0.276495419 C0.676629571,-0.0921651395 1.35529412,-0.0921651395 1.73481717,0.276495419 C1.78467409,0.319983527 1.82537361,0.368413466 1.86098569,0.425738701 C1.89761526,0.478122104 1.92915739,0.535447339 1.95561208,0.596726037 C1.98308426,0.654051271 2.00038156,0.71532997 2.01462639,0.781550499 C2.02785374,0.842829198 2.03294118,0.909049727 2.03294118,0.975270256 C2.03294118,1.23422218 1.92406995,1.48922063 1.73481717,1.67404509 C1.54556439,1.85886956 1.28305246,1.96363636 1.0154531,1.96363636 L1.01748808,1.96363636 Z" id="Path" fill="url(#linearGradient-2)"></path>
                                    <path d="M16.6033704,1.96363636 C16.3317011,1.96363636 16.0702067,1.85870258 15.8840064,1.67629433 C15.8341494,1.63314399 15.7934499,1.58018676 15.7578378,1.52821021 C15.7171383,1.47133022 15.6896661,1.41445023 15.6632114,1.35855092 C15.6357393,1.29774817 15.618442,1.23694542 15.6041971,1.17516198 C15.5909698,1.10945578 15.5858824,1.04473027 15.5858824,0.982946832 C15.5858824,0.917240634 15.5899523,0.852515125 15.6041971,0.790731684 C15.6174245,0.725025486 15.6357393,0.664222735 15.6632114,0.607342742 C15.6906836,0.546539991 15.7171383,0.489659998 15.7578378,0.437683453 C15.7944674,0.38080346 15.8351669,0.332749673 15.8840064,0.289599334 C16.1190461,0.0581566044 16.467027,-0.045796486 16.8017806,0.0189290231 C16.8648649,0.031677987 16.9279491,0.0493303986 16.9920509,0.0758090159 C17.0510652,0.102287633 17.1100795,0.132689009 17.1680763,0.167013142 C17.2220032,0.202317965 17.2718601,0.241545547 17.321717,0.288618644 C17.3664865,0.331768984 17.4122734,0.379822771 17.4478855,0.436702763 C17.4845151,0.488679309 17.5160572,0.545559301 17.5425119,0.606362052 C17.5648967,0.663242045 17.5832114,0.724044796 17.5964388,0.789750995 C17.6096661,0.850553746 17.6188235,0.916259944 17.6188235,0.981966143 C17.6188235,1.04276889 17.6096661,1.10847509 17.5964388,1.17418129 C17.5832114,1.23498404 17.5648967,1.29578679 17.5425119,1.35757023 C17.5150397,1.41445023 17.4834976,1.47133022 17.4478855,1.52722952 C17.411256,1.57920607 17.3664865,1.6321633 17.321717,1.67531364 C17.2718601,1.71846398 17.2220032,1.76259501 17.1680763,1.79691914 C17.109062,1.83222397 17.0500477,1.86262534 16.9920509,1.88812327 C16.9289666,1.90969844 16.8658824,1.93127361 16.8017806,1.94009981 C16.7336089,1.95284878 16.6664547,1.96167498 16.6023529,1.96167498 L16.6033704,1.96363636 Z" id="Path" fill="url(#linearGradient-2)"></path>
                                    <path d="M19.9910967,1.96363636 C19.9229591,1.96363636 19.8558385,1.95480993 19.7917688,1.94206064 C19.7236312,1.92931134 19.6605785,1.91165848 19.6015937,1.88517917 C19.538541,1.86360345 19.4795562,1.83320128 19.4256564,1.79789555 C19.3717565,1.76258981 19.3168396,1.71943836 19.2720925,1.6762869 C19.2222605,1.63313545 19.1815814,1.58017685 19.1459871,1.52819896 C19.1093759,1.4713175 19.0778495,1.41443603 19.0514081,1.35853528 C19.0239496,1.29773096 19.006661,1.23692664 18.9924233,1.1751416 C18.9792025,1.10943371 18.9741176,1.04470652 18.9741176,0.982921486 C18.9741176,0.721070614 19.0829344,0.46902689 19.2720925,0.289556068 C19.3168396,0.241501039 19.3717565,0.202272444 19.4256564,0.167947423 C19.4795562,0.133622402 19.538541,0.102239526 19.6015937,0.0767409392 C19.6605785,0.0502616375 19.7236312,0.0335894846 19.7917688,0.0198594763 C19.9229591,-0.00661982542 20.0582173,-0.00661982542 20.1894076,0.0198594763 C20.2524603,0.0326087697 20.3155131,0.0502616375 20.3795827,0.0767409392 C20.4385675,0.103220241 20.5016202,0.133622402 20.5555201,0.167947423 C20.60942,0.202272444 20.6643369,0.242481753 20.709084,0.289556068 C20.899259,0.47294975 21.0070588,0.721070614 21.0070588,0.982921486 C21.0070588,1.23986878 20.8982421,1.49289322 20.709084,1.6762869 C20.5199258,1.85968059 20.2575452,1.96363636 19.9900797,1.96363636 L19.9910967,1.96363636 Z" id="Path" fill="#000000" fill-rule="nonzero"></path>
                                    <path d="M22.701685,1.96363636 C22.6335474,1.96363636 22.5664267,1.95480552 22.5023571,1.94204986 C22.4382874,1.92929419 22.3711668,1.9116325 22.312182,1.89004599 C22.2491293,1.86355346 22.1901445,1.83313611 22.1362446,1.79879394 C22.0823447,1.76445176 22.0274278,1.72029754 21.9826808,1.67712452 C21.7925057,1.4936392 21.6847059,1.24146954 21.6847059,0.98341264 C21.6847059,0.721430924 21.7935226,0.469261257 21.9826808,0.289700755 C22.0274278,0.241621714 22.0823447,0.202373517 22.1362446,0.168031344 C22.1901445,0.133689172 22.2491293,0.102290614 22.312182,0.0767792857 C22.3711668,0.0502867526 22.4382874,0.0336062688 22.5023571,0.0198693998 C22.6335474,-0.00662313327 22.7688056,-0.00662313327 22.8999959,0.0198693998 C22.9630486,0.0326250639 23.0261013,0.0502867526 23.090171,0.0767792857 C23.1542406,0.103271819 23.2122085,0.133689172 23.2661083,0.168031344 C23.3200082,0.203354721 23.3749251,0.242602919 23.4196722,0.289700755 C23.6098473,0.473186077 23.7176471,0.725355744 23.7176471,0.98341264 C23.7176471,1.24146954 23.6098473,1.4936392 23.4196722,1.67712452 C23.3749251,1.72029754 23.3200082,1.76445176 23.2661083,1.79879394 C23.2122085,1.83313611 23.1532237,1.86453467 23.090171,1.89004599 C23.0271183,1.9116325 22.9640656,1.92929419 22.8999959,1.94204986 C22.8318583,1.95480552 22.7688056,1.96363636 22.700668,1.96363636 L22.701685,1.96363636 Z" id="Path" fill="#000000" fill-rule="nonzero"></path>
                                    <path d="M26.0899203,1.96167536 C26.0217827,1.96167536 25.954662,1.95285083 25.8905924,1.94010429 C25.8265227,1.92735776 25.760419,1.90970871 25.7004173,1.88813764 C25.6373646,1.86166406 25.5783798,1.83126847 25.5244799,1.79695087 C25.47058,1.76263327 25.4156631,1.71851064 25.370916,1.67536852 C25.3210841,1.62732388 25.2804049,1.57927923 25.2448106,1.52731258 C25.2081994,1.47044341 25.17769,1.41357425 25.1502316,1.35768558 C25.127858,1.2968944 25.1054845,1.23610323 25.0912468,1.17433154 C25.0780261,1.10863785 25.0729412,1.04392466 25.0729412,0.982152979 C25.0729412,0.916459286 25.0770091,0.851746095 25.0912468,0.789974414 C25.1044675,0.724280721 25.127858,0.663489542 25.1502316,0.606620375 C25.17769,0.545829196 25.2092164,0.488960029 25.2448106,0.436993376 C25.2804049,0.385026723 25.3221011,0.332079568 25.370916,0.288937441 C25.4156631,0.2408928 25.47058,0.201672685 25.5244799,0.167355084 C25.5783798,0.133037483 25.6373646,0.101661391 25.7004173,0.0761683156 C25.7594021,0.0496947378 25.8265227,0.0330261888 25.8905924,0.0192991485 C26.2251785,-0.0463945446 26.5740023,0.0585192637 26.8079075,0.289917944 C26.8536715,0.333060071 26.8984186,0.386007226 26.9340129,0.437973879 C26.9696072,0.489940532 27.0021505,0.546809699 27.0285919,0.607600878 C27.0509655,0.664470045 27.073339,0.725261224 27.0875767,0.790954917 C27.1007975,0.851746095 27.1058824,0.917439788 27.1058824,0.983133482 C27.1058824,1.04392466 27.1018144,1.10961835 27.0875767,1.17531205 C27.074356,1.23610323 27.0509655,1.2968944 27.0285919,1.35866609 C27.0011335,1.41553525 26.9696072,1.47240442 26.9340129,1.52829308 C26.8974016,1.58025974 26.8526546,1.62830438 26.8079075,1.67634902 C26.6177324,1.85970306 26.3563688,1.96363636 26.0889033,1.96363636 L26.0899203,1.96167536 Z" id="Path" fill="#000000" fill-rule="nonzero"></path>
                                    <path d="M29.4776471,1.96363636 C29.2110652,1.96363636 28.9485533,1.85857065 28.758283,1.67593304 C28.712496,1.62781884 28.6677266,1.57970463 28.6321145,1.52766273 C28.5954849,1.47071122 28.5639428,1.41375971 28.5374881,1.35779012 C28.5151033,1.29691092 28.4917011,1.23603172 28.4835612,1.1741706 C28.4703339,1.10838178 28.4611765,1.04357489 28.4611765,0.981713768 C28.4611765,0.915924955 28.4703339,0.851118063 28.4835612,0.78925694 C28.4927186,0.723468126 28.5151033,0.662588925 28.5374881,0.605637414 C28.5649603,0.544758214 28.5965024,0.487806703 28.6321145,0.435764805 C28.668744,0.378813295 28.7135135,0.330699088 28.758283,0.287494494 C28.8030525,0.239380286 28.8579968,0.200103383 28.9119237,0.165736092 C28.9658506,0.131368801 29.0248649,0.0999472779 29.0879491,0.0744172904 C29.1510334,0.048887303 29.2141176,0.0312126962 29.2782194,0.0174657799 C29.612973,-0.043413421 29.9609539,0.0567426837 30.1959936,0.288476416 C30.2407631,0.33168101 30.2865501,0.379795218 30.3221622,0.436746728 C30.3587917,0.488788626 30.3893164,0.545740136 30.4167886,0.606619337 C30.4391733,0.663570848 30.461558,0.724450048 30.4758029,0.790238862 C30.4890302,0.851118063 30.4941176,0.916906877 30.4941176,0.982695691 C30.4941176,1.04357489 30.4900477,1.10936371 30.4758029,1.17515252 C30.4625755,1.23603172 30.4391733,1.29691092 30.4167886,1.35877204 C30.3893164,1.41572356 30.3577742,1.47267507 30.3221622,1.52864465 C30.2855326,1.58068655 30.2407631,1.62880076 30.1959936,1.67691497 C30.1512242,1.72011956 30.0962798,1.76430608 30.0423529,1.79867337 C29.9884261,1.83304066 29.9294118,1.86446218 29.86531,1.88999217 C29.8062957,1.91159447 29.7391415,1.92926907 29.6750397,1.94203407 C29.610938,1.95479906 29.5437838,1.96363636 29.4766296,1.96363636 L29.4776471,1.96363636 Z" id="Path" fill="#000000" fill-rule="nonzero"></path>
                                    <path d="M32.8653744,1.96363636 C32.5991922,1.96363636 32.3370738,1.85869987 32.1470888,1.6762869 C32.1023865,1.62823188 32.0576841,1.58017685 32.0211094,1.52819896 C31.9845348,1.4713175 31.95304,1.41443603 31.9266249,1.35853528 C31.9032578,1.29773096 31.8859864,1.23692664 31.8727789,1.1751416 C31.8595714,1.10943371 31.8494118,1.04470652 31.8494118,0.982921486 C31.8494118,0.917213589 31.8585554,0.852486407 31.8727789,0.79070137 C31.8859864,0.724993473 31.9042737,0.664189151 31.9266249,0.607307688 C31.9540559,0.546503366 31.9855508,0.489621903 32.0211094,0.437644014 C32.0566681,0.385666126 32.1023865,0.332707522 32.1470888,0.289556068 C32.1928071,0.241501039 32.2466531,0.202272444 32.3004992,0.167947423 C32.3543452,0.133622402 32.4183508,0.102239526 32.4772767,0.0767409392 C32.5402663,0.0502616375 32.603256,0.0335894846 32.6672617,0.0198594763 C32.7983208,-0.00661982542 32.9334439,-0.00661982542 33.064503,0.0198594763 C33.1274927,0.0326087697 33.1955622,0.0502616375 33.2544881,0.0767409392 C33.3174777,0.103220241 33.3764036,0.133622402 33.4302496,0.167947423 C33.4840956,0.202272444 33.5389576,0.242481753 33.5846759,0.289556068 C33.7746609,0.47294975 33.8823529,0.724993473 33.8823529,0.982921486 C33.8823529,1.2408495 33.7746609,1.49289322 33.5846759,1.6762869 C33.3946909,1.85968059 33.1325725,1.96363636 32.8653744,1.96363636 L32.8653744,1.96363636 Z" id="Path" fill="#000000" fill-rule="nonzero"></path>
                                    <path d="M36.2541176,1.96363636 C35.9878024,1.96363636 35.7255529,1.85869987 35.5354729,1.6762869 C35.3453929,1.49387394 35.2376471,1.2408495 35.2376471,0.982921486 C35.2376471,0.725974188 35.3464094,0.47294975 35.5354729,0.289556068 C35.58528,0.241501039 35.6350871,0.202272444 35.68896,0.167947423 C35.7479153,0.132641687 35.8068706,0.102239526 35.8658259,0.0767409392 C35.9288471,0.0502616375 35.9918682,0.0335894846 36.0559059,0.0198594763 C36.1870306,-0.00661982542 36.3222212,-0.00661982542 36.4533459,0.0198594763 C36.5204329,0.0326087697 36.5844706,0.0502616375 36.6434259,0.0767409392 C36.7064471,0.103220241 36.7654024,0.133622402 36.8192753,0.167947423 C36.8782306,0.203253158 36.9280376,0.242481753 36.9727624,0.289556068 C37.1628424,0.47294975 37.2705882,0.724993473 37.2705882,0.982921486 C37.2705882,1.2408495 37.1618259,1.49289322 36.9727624,1.6762869 C36.7836988,1.85968059 36.5204329,1.96363636 36.2541176,1.96363636 Z" id="Path" fill="#000000" fill-rule="nonzero"></path>
                                    <path d="M9.01381074,1.96363636 L4.53913043,1.96363636 C3.90383632,1.96363636 3.38823529,1.52378182 3.38823529,0.981818182 C3.38823529,0.439854545 3.90383632,0 4.53913043,0 L9.01381074,0 C9.64910486,0 10.1647059,0.439854545 10.1647059,0.981818182 C10.1647059,1.52378182 9.64910486,1.96363636 9.01381074,1.96363636 Z" id="Path" fill="url(#linearGradient-3)"></path>
                                    <path d="M32.4952941,17.6727273 C31.9342024,17.6727273 31.4788235,17.1605584 31.4788235,16.5294932 L31.4788235,10.3068704 C31.4788235,9.67580521 31.9342024,9.16363636 32.4952941,9.16363636 C33.0563859,9.16363636 33.5117647,9.67580521 33.5117647,10.3068704 L33.5117647,16.5294932 C33.5117647,17.1605584 33.0563859,17.6727273 32.4952941,17.6727273 L32.4952941,17.6727273 Z" id="Path" fill="url(#linearGradient-4)"></path>
                                    <path d="M36.0952941,18 C35.5342024,18 35.0788235,17.4862263 35.0788235,16.8531836 L35.0788235,13.9104528 C35.0788235,13.2774101 35.5342024,12.7636364 36.0952941,12.7636364 C36.6563859,12.7636364 37.1117647,13.2774101 37.1117647,13.9104528 L37.1117647,16.8531836 C37.1117647,17.4862263 36.6563859,18 36.0952941,18 Z" id="Path" fill="url(#linearGradient-5)"></path>
                                    <path d="M39.6952941,18.2454545 C39.1342024,18.2454545 38.6788235,17.7301007 38.6788235,17.095111 L38.6788235,7.61397987 C38.6788235,6.97899025 39.1342024,6.46363636 39.6952941,6.46363636 C40.2563859,6.46363636 40.7117647,6.97899025 40.7117647,7.61397987 L40.7117647,17.095111 C40.7117647,17.7301007 40.2563859,18.2454545 39.6952941,18.2454545 Z" id="Path" fill="url(#linearGradient-6)"></path>
                                    <path d="M43.2952941,18.4090909 C42.7342024,18.4090909 42.2788235,17.9110672 42.2788235,17.2974308 L42.2788235,12.9752964 C42.2788235,12.3616601 42.7342024,11.8636364 43.2952941,11.8636364 C43.8563859,11.8636364 44.3117647,12.3616601 44.3117647,12.9752964 L44.3117647,17.2974308 C44.3117647,17.9110672 43.8563859,18.4090909 43.2952941,18.4090909 L43.2952941,18.4090909 Z" id="Path" fill="url(#linearGradient-1)"></path>
                                    <path d="M1.17676958,18.9818182 C0.88493836,18.9818182 0.593107143,18.8757812 0.364819819,18.6625547 C-0.105875693,18.2234235 -0.123526775,17.4938431 0.325987439,17.0328129 L3.98682179,13.2765691 C4.35984798,12.8927615 4.95174759,12.8086234 5.4224431,13.0714107 L8.11717491,14.5789795 L11.3461461,9.68975395 C11.5497219,9.38201627 11.8897994,9.187231 12.2628256,9.16533206 C12.6346751,9.14573828 12.9982874,9.29672568 13.2371653,9.57795412 L16.7944467,13.7583457 L19.0220132,11.6975406 C19.4950622,11.2595619 20.2399378,11.2814608 20.6859218,11.7436436 C21.1319058,12.2058264 21.1107245,12.9354067 20.6388523,13.3733855 L17.5016667,16.2767233 C17.2663189,16.4945601 16.9474227,16.6052074 16.6238196,16.5890713 C16.2990396,16.5706301 15.9977945,16.4207953 15.7895118,16.1764492 L12.4546341,12.2565397 L9.48925233,16.7469742 C9.15035156,17.2598703 8.46078263,17.4246886 7.91712931,17.1215612 L5.0553006,15.5206337 L2.02990519,18.6245198 C1.79926439,18.8607977 1.48860535,18.9806656 1.17794632,18.9806656 L1.17676958,18.9818182 Z" id="Path" fill="#000000" fill-rule="nonzero"></path>
                                </g>
                                <rect id="矩形备份-7" stroke="#000000" stroke-width="5" stroke-linejoin="round" x="0" y="6.8" width="56" height="39.6" rx="4"></rect>
                            </g>
                        </g>
                    </g>
                </g>
            </g>
        </g>
    </g>
</svg>