<?xml version="1.0" encoding="UTF-8"?>
<svg width="72px" height="72px" viewBox="0 0 72 72" version="1.1" xmlns="http://www.w3.org/2000/svg" xmlns:xlink="http://www.w3.org/1999/xlink">
    <title>ICT@1x</title>
    <defs>
        <rect id="path-1" x="0" y="0" width="72" height="72"></rect>
        <linearGradient x1="50%" y1="0%" x2="50%" y2="100%" id="linearGradient-3">
            <stop stop-color="#00D382" offset="0%"></stop>
            <stop stop-color="#00685A" offset="100%"></stop>
        </linearGradient>
    </defs>
    <g id="Web" stroke="none" stroke-width="1" fill="none" fill-rule="evenodd">
        <g id="1-首页_L" transform="translate(-1045.000000, -4880.000000)">
            <g id="Powered" transform="translate(0.000000, 4760.000000)">
                <g id="Group-7" transform="translate(253.000000, 88.000000)">
                    <g id="编组-26" transform="translate(720.000000, 0.000000)">
                        <g id="ICT" transform="translate(72.000000, 32.000000)">
                            <mask id="mask-2" fill="white">
                                <use xlink:href="#path-1"></use>
                            </mask>
                            <g id="矩形备份-18"></g>
                            <g id="编组" mask="url(#mask-2)">
                                <g transform="translate(1.800000, 0.000000)">
                                    <rect id="矩形" fill="#96FFCF" fill-rule="evenodd" opacity="0.50179415" x="11.7" y="3.6" width="46.8" height="61.2" rx="5"></rect>
                                    <path d="M61.165551,35.2779831 L61.4091498,35.4150334 L69.3715877,40.7090315 C70.2301118,41.2798397 70.4583479,42.4310972 69.8813674,43.2804371 C69.3568396,44.0525643 68.3474145,44.3093648 67.5231957,43.9208179 L67.2821564,43.7847634 L62.991,40.931 L63,62.9118663 L62.9825872,63.5436193 C62.9825872,64.2137836 62.6693388,64.616721 62.0428421,64.7524317 C61.9903046,64.7734712 61.9365088,64.7875995 61.881702,64.7946806 L61.7987646,64.8 L61.6518025,64.8008466 C61.5532259,64.8053635 61.4491728,64.8052086 61.3396432,64.8003818 L47.399,64.8 L51.7016027,69.0981268 C52.3030766,69.6989662 52.3597017,70.6322975 51.8739077,71.29576 L51.6918901,71.5060928 C51.0855885,72.102148 50.1437724,72.1582629 49.4742784,71.6768455 L49.2620335,71.4964676 L41.8983973,64.1405985 C41.2969097,63.5397454 41.2402975,62.6063886 41.7261211,61.9429258 L41.9081492,61.7325939 L49.2717855,54.4938686 C49.9454754,53.8316065 51.0333591,53.8359506 51.7016417,54.5035713 C52.3030961,55.1044299 52.3596908,56.037763 51.8738752,56.70121 L51.6918508,56.911537 L48.244,60.3 L58.508,60.3 L58.501,40.395 L53.3063101,43.7923789 C52.4435346,44.3568785 51.2815512,44.1225602 50.7109475,43.2690144 C50.1922169,42.4930636 50.340805,41.4724789 51.0203241,40.8692139 L51.2399713,40.701416 L59.3312647,35.4074179 C59.8831116,35.0463537 60.5796206,35.0035206 61.165551,35.2779831 Z" id="形状结合" fill="url(#linearGradient-3)" fill-rule="evenodd"></path>
                                    <path d="M37.6682927,12.6 L1.93170732,12.6 C0.864854825,12.6 0,13.4662063 0,14.5347258 L0,69.1652742 C0,70.2337937 0.864854825,71.1 1.93170732,71.1 L37.6682927,71.1 C38.7351452,71.1 39.6,70.2337937 39.6,69.1652742 L39.6,14.5347258 C39.6,13.4662063 38.7351452,12.6 37.6682927,12.6 Z M35.1,16.649521 L35.1,67.049521 L4.5,67.049521 L4.5,16.649521 L35.1,16.649521 Z" id="矩形" fill="#000000" fill-rule="nonzero"></path>
                                    <path d="M34.9595745,53.1 C36.0312419,53.1 36.9,54.1073593 36.9,55.35 C36.9,56.5038806 36.1509178,57.4548911 35.1858691,57.5848626 L34.9595745,57.6 L2.84042553,57.6 C1.7687581,57.6 0.9,56.5926407 0.9,55.35 C0.9,54.1961194 1.64908224,53.2451089 2.61413092,53.1151374 L2.84042553,53.1 L34.9595745,53.1 Z" id="直线-34" fill="#000000" fill-rule="nonzero"></path>
                                    <circle id="椭圆形" fill="#000000" fill-rule="evenodd" cx="19.8" cy="63" r="2.7"></circle>
                                    <path d="M25.0344828,18.9 C26.120008,18.9 27,19.9073593 27,21.15 C27,22.3038806 26.2412314,23.2548911 25.2637036,23.3848626 L25.0344828,23.4 L15.4655172,23.4 C14.379992,23.4 13.5,22.3926407 13.5,21.15 C13.5,19.9961194 14.2587686,19.0451089 15.2362964,18.9151374 L15.4655172,18.9 L25.0344828,18.9 Z" id="直线-35" fill="#000000" fill-rule="nonzero"></path>
                                    <path d="M56.7093738,0.00693830899 C63.7089632,-0.198941873 69.2583432,4.2155378 70.1506605,8.11324368 C70.3891977,9.15519132 69.7397755,10.1936586 68.7001355,10.4327253 C67.7347554,10.6547158 66.7723697,10.1093684 66.4488251,9.1960874 L66.3857908,8.97898068 C65.9010255,6.86149082 61.958783,3.72547396 56.8226876,3.87654286 C54.0723559,3.95743886 51.6256591,5.19446831 49.46509,7.26473164 C48.6652785,8.03111331 47.968176,8.85139841 47.3448503,9.70764819 L47.1520637,9.97679169 L46.5016715,10.9268844 C46.4890325,10.943346 46.4731978,10.9638338 46.4520849,10.9911508 L46.4505871,11.0207148 L46.4372004,11.072522 C46.4329115,11.0807811 46.4272925,11.0889984 46.4198919,11.097393 L46.3504953,11.1516394 L46.2166602,11.220651 L45.6689598,11.4450149 L44.9277979,11.730224 C40.4242614,11.730224 37.162697,14.6643092 37.162697,18.8256046 C37.162697,23.0632685 40.4367992,26.5138374 44.5407007,26.7190715 L44.9277979,26.7287294 L60.059037,26.7287294 C61.1256913,26.7287294 61.9903854,27.5953428 61.9903854,28.6643647 C61.9903854,29.6570278 61.2448073,30.4751654 60.284273,30.5869776 L60.059037,30.6 L44.9277979,30.6 C38.5005656,30.6 33.3,25.3231079 33.3,18.8256046 C33.3,12.8636875 37.7094952,8.49043577 43.6098059,7.92179879 L43.8895253,7.89670871 L44.2243874,7.42594396 C44.9740448,6.39615497 45.816224,5.40515717 46.7957496,4.46657301 C49.5921392,1.78706471 52.8908727,0.119252566 56.7093738,0.00693830899 Z" id="路径" fill="#000000" fill-rule="nonzero" transform="translate(51.750000, 15.300000) scale(-1, 1) translate(-51.750000, -15.300000) "></path>
                                </g>
                            </g>
                        </g>
                    </g>
                </g>
            </g>
        </g>
    </g>
</svg>