<?xml version="1.0" encoding="UTF-8"?>
<svg width="72px" height="72px" viewBox="0 0 72 72" version="1.1" xmlns="http://www.w3.org/2000/svg" xmlns:xlink="http://www.w3.org/1999/xlink">
    <title>Finance@1x</title>
    <defs>
        <rect id="path-1" x="0" y="0" width="72" height="72"></rect>
        <linearGradient x1="50%" y1="0%" x2="50%" y2="100%" id="linearGradient-3">
            <stop stop-color="#00D382" offset="0%"></stop>
            <stop stop-color="#00685A" offset="100%"></stop>
        </linearGradient>
    </defs>
    <g id="Web" stroke="none" stroke-width="1" fill="none" fill-rule="evenodd">
        <g id="1-首页_L" transform="translate(-805.000000, -4880.000000)">
            <g id="Powered" transform="translate(0.000000, 4760.000000)">
                <g id="Group-7" transform="translate(253.000000, 88.000000)">
                    <g id="编组-26" transform="translate(480.000000, 0.000000)">
                        <g id="Finance" transform="translate(72.000000, 32.000000)">
                            <g id="编组-12">
                                <mask id="mask-2" fill="white">
                                    <use xlink:href="#path-1"></use>
                                </mask>
                                <g id="矩形备份-16"></g>
                                <path d="M31.95,0 C14.3045022,0 0,14.3045022 0,31.95 C0,49.5954978 14.3045022,63.9 31.95,63.9 C49.5954978,63.9 63.9,49.5954978 63.9,31.95 C63.9,14.3045022 49.5954978,0 31.95,0 Z" id="椭圆形备份-11" fill="#96FFCF" opacity="0.50179415" mask="url(#mask-2)"></path>
                                <path d="M41.3911995,65.7078941 L41.4,65.8950636 C41.4,66.7181325 40.8950241,67.3964931 40.2444595,67.4892024 L40.0919084,67.5 L11.2080916,67.5 C10.5372553,67.5 9.98436254,66.8804301 9.90880049,66.0822331 L9.9,65.8950636 L9.9,7.90493637 C9.9,7.08186748 10.4049759,6.4035069 11.0555405,6.31079758 L11.2080916,6.3 L40.0919084,6.3 C40.7627447,6.3 41.3156375,6.91956994 41.3911995,7.71776688 L41.4,7.90493637 L41.4,22.5408976" id="路径" stroke="#000000" stroke-width="5" stroke-linejoin="round" fill-rule="nonzero" mask="url(#mask-2)"></path>
                                <path d="M41.7570177,16.2 C42.5539548,16.2 43.2,17.2073593 43.2,18.45 C43.2,19.6038806 42.6429508,20.5548911 41.9252999,20.6848626 L41.7570177,20.7 L11.3429823,20.7 C10.5460452,20.7 9.9,19.6926407 9.9,18.45 C9.9,17.2961194 10.4570492,16.3451089 11.1747001,16.2151374 L11.3429823,16.2 L41.7570177,16.2 Z" id="直线" fill="#000000" fill-rule="nonzero" mask="url(#mask-2)"></path>
                                <path d="M23.9488682,34.2 C24.6398492,34.2 25.2,35.2073593 25.2,36.45 C25.2,37.6038806 24.7170128,38.5548911 24.0947766,38.6848626 L23.9488682,38.7 L9.35113179,38.7 C8.66015078,38.7 8.1,37.6926407 8.1,36.45 C8.1,35.2961194 8.58298715,34.3451089 9.20522339,34.2151374 L9.35113179,34.2 L23.9488682,34.2 Z" id="直线备份" fill="#000000" fill-rule="nonzero" mask="url(#mask-2)"></path>
                                <path d="M24.7601142,52.2 C25.5001127,52.2 26.1,53.2073593 26.1,54.45 C26.1,55.6038806 25.5827502,56.5548911 24.9163732,56.6848626 L24.7601142,56.7 L9.43988582,56.7 C8.69988731,56.7 8.1,55.6926407 8.1,54.45 C8.1,53.2961194 8.61724978,52.3451089 9.28362682,52.2151374 L9.43988582,52.2 L24.7601142,52.2 Z" id="直线备份-2" fill="#000000" fill-rule="nonzero" mask="url(#mask-2)"></path>
                                <path d="M45.9,20.5 C52.41696,20.5 58.31696,23.14152 62.58772,27.41228 C66.85848,31.68304 69.5,37.58304 69.5,44.1 C69.5,50.61696 66.85848,56.51696 62.58772,60.78772 C58.31696,65.05848 52.41696,67.7 45.9,67.7 C39.38304,67.7 33.48304,65.05848 29.21228,60.78772 C24.94152,56.51696 22.3,50.61696 22.3,44.1 C22.3,37.58304 24.94152,31.68304 29.21228,27.41228 C33.48304,23.14152 39.38304,20.5 45.9,20.5 Z" id="椭圆形" stroke="#000000" stroke-width="5" fill-rule="nonzero" mask="url(#mask-2)"></path>
                                <path d="M53.2867649,29.3793741 C54.2420839,29.9997655 54.785721,30.8910955 54.5916658,31.4634667 L54.5202068,31.6112166 L49.332,39.6 L52.65,39.6 C53.3955844,39.6 54,40.6073593 54,41.85 C54,42.9890873 53.492123,43.9304729 52.833187,44.0794602 L52.65,44.1 L48.15,44.1 L48.15,45.9 L54.15,45.9 C55.0612698,45.9 55.8,46.9073593 55.8,48.15 C55.8,49.2890873 55.1792615,50.2304729 54.3738952,50.3794602 L54.15,50.4 L48.15,50.4 L48.15,57.45 C48.15,58.2784271 47.1426407,58.95 45.9,58.95 C44.7609127,58.95 43.8195271,58.3856922 43.6705398,57.6535411 L43.65,57.45 L43.65,50.4 L37.65,50.4 C36.7387302,50.4 36,49.3926407 36,48.15 C36,47.0109127 36.6207385,46.0695271 37.4261048,45.9205398 L37.65,45.9 L43.65,45.9 L43.65,44.1 L39.15,44.1 C38.4044156,44.1 37.8,43.0926407 37.8,41.85 C37.8,40.7109127 38.307877,39.7695271 38.966813,39.6205398 L39.15,39.6 L43.098,39.6 L37.9105209,31.6112166 L37.8390619,31.4634667 C37.6450066,30.8910955 38.1886438,29.9997655 39.1439628,29.3793741 C40.1312781,28.738204 41.2041153,28.6164447 41.6212197,29.0780026 L41.6845384,29.160341 L46.215,36.137 L50.7461893,29.160341 C51.1071443,28.604519 52.2445987,28.7025835 53.2867649,29.3793741 Z" id="形状结合" fill="url(#linearGradient-3)" mask="url(#mask-2)"></path>
                            </g>
                            <g id="编组-15" transform="translate(0.900000, 2.700000)"></g>
                        </g>
                    </g>
                </g>
            </g>
        </g>
    </g>
</svg>