<svg id="图层_1" data-name="图层 1" xmlns="http://www.w3.org/2000/svg" viewBox="0 0 800 800"><defs><style>.cls-1,.cls-20{fill:#ffc609;}.cls-1,.cls-12,.cls-13,.cls-14,.cls-16,.cls-2,.cls-3,.cls-4,.cls-6,.cls-7{stroke:#000;stroke-width:1.5px;}.cls-1,.cls-11,.cls-12,.cls-13,.cls-2,.cls-3,.cls-4,.cls-6,.cls-7{stroke-miterlimit:10;}.cls-11,.cls-16,.cls-2{fill:none;}.cls-14,.cls-4,.cls-8{fill:#fff;}.cls-5{opacity:0.8;}.cls-6{fill:#ffaeae;}.cls-7{fill:#7cc996;}.cls-9{fill:#8dd9ea;opacity:0.4;isolation:isolate;}.cls-10{fill:#40adff;}.cls-11{stroke:#36b0c2;}.cls-12{fill:#5576b5;}.cls-13,.cls-17{fill:#ff844d;}.cls-14,.cls-16{stroke-linecap:round;stroke-linejoin:round;}.cls-15{fill:#dbdbdb;}.cls-18{fill:#f2f2f2;}.cls-19{fill:#b8ecff;}</style></defs><rect class="cls-1" x="519.67" y="261.88" width="21.89" height="12.19"/><rect class="cls-1" x="525.77" y="252.03" width="9.85" height="9.85"/><path class="cls-2" d="M530.62,252V179.81a15.68,15.68,0,0,1,15.63-15.64H691.8a15.69,15.69,0,0,1,15.63,15.64V509a15.69,15.69,0,0,1-15.63,15.64H617.85"/><rect class="cls-1" x="617.85" y="513.73" width="12.19" height="21.89"/><rect class="cls-1" x="629.89" y="519.67" width="9.85" height="9.85"/><rect class="cls-1" x="83.5" y="308.94" width="21.89" height="12.19"/><rect class="cls-1" x="89.45" y="320.97" width="9.85" height="9.85"/><rect class="cls-1" x="229.68" y="587.36" width="21.89" height="12.19"/><rect class="cls-1" x="235.62" y="599.4" width="9.85" height="9.85"/><path class="cls-2" d="M94.29,330.82V619.88a14.94,14.94,0,0,0,14.85,14.85H225.77a14.94,14.94,0,0,0,14.85-14.85V609.25"/><rect class="cls-3" x="584.86" y="609.25" width="139.76" height="6.72"/><rect class="cls-4" x="612.69" y="629.89" width="139.76" height="6.72"/><path class="cls-4" d="M751.2,252A44.24,44.24,0,1,1,707,207.79,44.3,44.3,0,0,1,751.2,252Z"/><g class="cls-5"><path class="cls-4" d="M601,587.36H199.19a17.08,17.08,0,0,1-17-17V290.18a17.08,17.08,0,0,1,17-17H601a17.08,17.08,0,0,1,17,17V570.32A17,17,0,0,1,601,587.36Z"/></g><path class="cls-6" d="M575.17,290a4.38,4.38,0,0,1-4.38,4.38,4.38,4.38,0,0,1,0-8.76A4.37,4.37,0,0,1,575.17,290Z"/><circle class="cls-4" cx="584.86" cy="290.02" r="4.38"/><circle class="cls-7" cx="598.15" cy="290.02" r="4.38"/><path d="M466.36,465.74c-1.72.15-3.59.31-5.62.31-53,2.66-86.77-11.88-102.87-29.08-9.38-10-12.66-20.79-10.16-29.7,6.72-23.92,42.52-10,51.43-44.24l85.36,17C480.59,407.89,541.72,459.48,466.36,465.74Z"/><path class="cls-8" d="M296.27,585.33H228.89a11.37,11.37,0,0,1-11.41-11.41v-2.5A11.37,11.37,0,0,1,228.89,560h67.38Z"/><rect class="cls-9" x="218.89" y="567.98" width="77.54" height="1.41"/><rect class="cls-9" x="218.89" y="572.04" width="77.54" height="1.41"/><rect class="cls-9" x="218.89" y="580.17" width="77.54" height="1.41"/><rect class="cls-9" x="218.89" y="563.91" width="77.54" height="1.41"/><rect class="cls-9" x="218.89" y="576.11" width="77.54" height="1.41"/><path class="cls-10" d="M296.27,586.58H223.42a7.17,7.17,0,0,1-7.19-7.19V566a7.18,7.18,0,0,1,7.19-7.2h72.85v2.51H223.42a4.6,4.6,0,0,0-4.69,4.69v13.44a4.6,4.6,0,0,0,4.69,4.69h72.85Z"/><path class="cls-10" d="M537.34,518.58l-26.58,12-21.42-18.14c-.93,18.76-15.94,63.16-15.94,63.16H360.21c11.41-54.4,11.57-65.35,11.57-65.35L359.43,523h0l-36.58-28c1.88-2.34,3.59-4.38,4.69-5.63s1.88-2,1.88-2S357.09,455,377.1,445.57a164.21,164.21,0,0,1,22.82-8.6,117,117,0,0,1,12.2-3l2.34-.47,40,2.66,2.66.94s5,1.25,11.88,3.13c12.19,3.43,25.33,12.19,30.49,16.57C512.48,467.61,537.34,518.58,537.34,518.58Z"/><path class="cls-10" d="M373.19,574.55c-38.46,0-37.52-.16-50.34-5.16-10.94-4.22-17.67-11.42-20.32-23-1.57-7.2-.16-15,2.81-22.67,4.38-11.26,11.88-21.89,17.51-28.77h0c3.91-4.84,6.57-7.81,6.57-7.81l30,35.64c-8.13,8.75-6.72,9.22-6.72,9.22C365.22,557.66,373.19,574.55,373.19,574.55Z"/><polyline class="cls-11" points="335.98 534.99 352.71 532.02 339.26 527.8"/><path class="cls-9" d="M322.85,569.39c-10.94-4.22-17.67-11.42-20.32-23-1.57-7.2-.16-15,2.81-22.67,8.29.78.94,13.75,10.94,23.29C326.29,556.72,326.13,563.45,322.85,569.39Z"/><path class="cls-12" d="M425.87,580c4.38,0,4.85,6.56.47,6.88H260a7,7,0,0,1-7-7h0L227.17,507a8.53,8.53,0,0,1,8.13-11.41H342.86a8.83,8.83,0,0,1,8.13,5.62l27.83,78.64h47.05V580Z"/><path class="cls-13" d="M404.14,558.13l-4.84-2.19,15.32-34.08a2.68,2.68,0,0,1,3.59-1.41h0a2.7,2.7,0,0,1,1.41,3.6Z"/><path class="cls-14" d="M426.19,553.91v1.88l-.63,23.13s-12.35.16-23-.94c-6.57-.62-12.35-1.56-14.23-3.28-4.84-4.38-.15-8.13-.15-8.13-6.73-5.63.46-9.85.46-9.85s-3.28-7.19,2.35-9.53c3-1.25,7.82-1.25,14.23,0,.93.15,2,.47,3.12.62h0a119.19,119.19,0,0,1,11.73,3.6C422,552.19,424,553.13,426.19,553.91Z"/><path class="cls-2" d="M393.83,556.57s-1.26-.47-5.32.15"/><path class="cls-2" d="M392.42,566.57H388"/><path class="cls-8" d="M310.34,535.93c1.88,5.63-.31,11.57-4.84,13.13-4.69,1.57-10-1.72-11.88-7.34s.31-11.57,4.84-13.14S308.47,530.3,310.34,535.93Z"/><path class="cls-10" d="M561.57,584.24h0a22.12,22.12,0,0,0,5.78-30.8l-56.9-83.33a22.12,22.12,0,0,0-30.8-5.78h0a22.12,22.12,0,0,0-5.78,30.8l56.9,83.32A22.11,22.11,0,0,0,561.57,584.24Z"/><path class="cls-8" d="M429.16,586.9a3.47,3.47,0,0,1-3.44-3.44V548a3.47,3.47,0,0,1,3.44-3.44H549.22a21,21,0,0,1,20.95,21v.62a21,21,0,0,1-20.95,20.95l-120.06-.15Z"/><path d="M549.06,545.62a19.71,19.71,0,0,1,19.7,19.7V566a19.71,19.71,0,0,1-19.7,19.69H429a2.3,2.3,0,0,1-2.35-2.34V547.81a2.3,2.3,0,0,1,2.35-2.34l120.06.15m0-2.34H429a4.7,4.7,0,0,0-4.69,4.69v35.49a4.7,4.7,0,0,0,4.69,4.69H549.06a22,22,0,0,0,22.05-22v-.62a22.05,22.05,0,0,0-22.05-22.2Z"/><path class="cls-14" d="M416.81,420.09,447.92,422l-.63,12,22.83,6.41s-16.26,21.73-42.84,18.45c-25.33-3-34.55-19.54-34.55-19.54L410.4,434a8.56,8.56,0,0,0,5.94-7.81Z"/><path class="cls-15" d="M418.21,420.24l30,4.23s-9.69,8.59-31.27,5.78v-.16a13.6,13.6,0,0,0,.94-4.37Z"/><path d="M478.87,395.7a50.83,50.83,0,0,1-25.17,21.42,43.71,43.71,0,0,1-21.89,2.5,45.64,45.64,0,0,1-12-4.06,9.5,9.5,0,0,1-1.1-.63,13.84,13.84,0,0,1-2.5-1.72c-10.94-7.66-18-20.95-18.45-35.8A53.8,53.8,0,0,1,400.39,359c4.69-14.07,15-24.85,27.52-29.7a37.8,37.8,0,0,1,20.48-2.19c18.29,2.82,30,13.6,34.86,27.67.15.31.15.78.31,1.1.31,1.09.63,2.34.94,3.44h0a.57.57,0,0,0,.15.46c0,.32.16.47.16.79.16.62.16,1.25.31,1.87h0a20.76,20.76,0,0,1,.32,3.13,50,50,0,0,1-.78,14.38c-.32,1.88-.79,3.75-1.26,5.47A41,41,0,0,1,478.87,395.7Z"/><path class="cls-14" d="M459.8,416.34h0c-.32.47-.78.93-1.1,1.4h0A25.46,25.46,0,0,1,436,427.91c-13.75-.79-21.57-7.51-25.63-16.58a43.43,43.43,0,0,1-1.88-4.84c-6.72-22.36,3.59-53.94,3.59-53.94l59.25,9.38C471.21,362.09,473.24,397.42,459.8,416.34Z"/><path d="M406.33,386.79c-8.13-9.69.63-28,.63-28l5.16-6.26,2-2.65s.47,14.38-2.19,24.54C409.61,383.51,406.33,386.79,406.33,386.79Z"/><path d="M468.4,396.8c10.47-7,10.31-28.14,10.31-28.14l-5.47-5.79-3.91-3.13a209.15,209.15,0,0,0-2.65,24.86C466.68,392.42,468.4,396.8,468.4,396.8Z"/><path d="M412.43,348s-1.56,16.41,31.27,23.14L441,362.71s7.5,16.89,38.3,16l-7.82-30.33L425.4,341Z"/><path d="M446,332.39s-7.19-14.39-2-14.7S448.07,330,448.07,330s0-7.66,3.6-7.82-1.1,9.38-1.1,9.38Z"/><path class="cls-14" d="M405.55,377.25s-7.5-.78-9.54,4.07,0,14.07,9.54,14.38Z"/><path class="cls-14" d="M399.14,384.6s5.16.63,6.57,3.75"/><path class="cls-14" d="M470.9,388.51s7.34,1.09,8.28,6.41-3.44,13.76-12.82,11.57Z"/><path class="cls-14" d="M475.43,397.26s-5.16-.62-7.19,2"/><polygon class="cls-15" points="437.75 405.55 433.53 404.77 438.07 386.48 429.47 403.99 437.75 405.55"/><polyline class="cls-16" points="438.07 386.48 433.53 404.77 437.75 405.55"/><path class="cls-14" d="M427.75,413.68s3.28,3,7,3.13"/><circle class="cls-14" cx="419.93" cy="384.44" r="13.29"/><circle class="cls-14" cx="455.89" cy="391.17" r="13.29"/><line class="cls-2" x1="432.91" y1="386.79" x2="442.91" y2="388.67"/><path class="cls-4" d="M278.61,181.53v110a17.15,17.15,0,0,1-17.2,17.2H64.74a17.15,17.15,0,0,1-17.19-17.2v-110a18.15,18.15,0,0,1,18.13-18.14H260.47A18.25,18.25,0,0,1,278.61,181.53Z"/><rect class="cls-1" x="278.61" y="262.19" width="12.19" height="21.89"/><rect class="cls-1" x="290.65" y="268.29" width="9.85" height="9.85"/><line class="cls-16" x1="470.74" y1="490.59" x2="488.41" y2="516.86"/><line class="cls-16" x1="390.23" y1="488.72" x2="371.94" y2="510.14"/><path class="cls-17" d="M171.05,255.63H157.92v-4.38q-.24-11.49,10.32-19.23c7.34-5.16,10.78-10.16,10.47-15-.78-6.41-4.53-10-11.41-10.47-8.44-.16-13.6,5-15.79,15.16l-14.7-3.28c3.29-17.2,14.23-25.48,32.68-24.86q23.2,1.17,25.32,21.58c.63,8.59-4.22,16.1-14.22,22.66-3.75,2.51-6.26,4.85-7.66,7a12.63,12.63,0,0,0-2,7.35A28.28,28.28,0,0,1,171.05,255.63ZM172.61,280H156.36v-16.1h16.25Z"/><polyline class="cls-2" points="277.2 343.49 267.51 353.65 277.2 363.03"/><polyline class="cls-2" points="304.25 343.49 313.94 353.65 304.25 363.03"/><line class="cls-2" x1="298.93" y1="339.26" x2="282.52" y2="366.15"/><rect class="cls-4" x="65.68" y="472.77" width="57.53" height="103.18"/><rect class="cls-18" x="71.47" y="549.06" width="45.49" height="19.85"/><rect class="cls-18" x="71.62" y="525.46" width="45.49" height="19.85"/><rect class="cls-15" x="71.62" y="501.85" width="45.49" height="19.85"/><rect class="cls-15" x="71.47" y="478.09" width="45.49" height="19.85"/><rect class="cls-1" x="83.5" y="575.95" width="21.89" height="12.19"/><rect class="cls-1" x="89.45" y="587.99" width="9.85" height="9.85"/><rect class="cls-1" x="83.5" y="460.42" width="21.89" height="12.19"/><rect class="cls-1" x="89.45" y="450.73" width="9.85" height="9.85"/><path class="cls-2" d="M469,393.67a13.17,13.17,0,0,1-15.48,10.47,10.52,10.52,0,0,1-8.44-12.35,8.47,8.47,0,0,1,9.85-6.72,6.91,6.91,0,0,1,5.47,8,5.53,5.53,0,0,1-6.25,4.38,4.26,4.26,0,0,1-3.44-5,3.53,3.53,0,0,1,4.06-2.82"/><path class="cls-2" d="M432.91,386.79a13.18,13.18,0,0,1-15.48,10.47A10.52,10.52,0,0,1,409,384.91a8.47,8.47,0,0,1,9.85-6.72,6.92,6.92,0,0,1,5.47,8,5.53,5.53,0,0,1-6.25,4.38,4.26,4.26,0,0,1-3.44-5,3.52,3.52,0,0,1,4.06-2.81"/><path class="cls-19" d="M713.21,229.68a20.39,20.39,0,1,0-28.76,28.92,20.82,20.82,0,0,0,26.1,2.34l19.55,19.54,5.31-5.31-19.54-19.54A20.4,20.4,0,0,0,713.21,229.68Z"/><rect class="cls-20" x="716.07" y="259.51" width="13.13" height="17.67" transform="translate(21.9 589.58) rotate(-45)"/><path class="cls-10" d="M709.93,233a16.14,16.14,0,1,1-22.83,0A16,16,0,0,1,709.93,233Z"/></svg>