<svg id="图层_1" data-name="图层 1" xmlns="http://www.w3.org/2000/svg" xmlns:xlink="http://www.w3.org/1999/xlink" viewBox="0 0 800 800"><defs><style>.cls-1,.cls-2{fill:none;}.cls-11,.cls-2,.cls-3,.cls-4,.cls-7,.cls-9{stroke:#000;}.cls-2,.cls-3,.cls-4,.cls-9{stroke-miterlimit:10;}.cls-2,.cls-3,.cls-4,.cls-7{stroke-width:1.5px;}.cls-3{fill:#ddd;}.cls-12,.cls-4,.cls-7{fill:#fff;}.cls-5{fill:#5576b5;}.cls-6{fill:#40adff;}.cls-7{stroke-linecap:round;stroke-linejoin:round;}.cls-8{clip-path:url(#clip-path);}.cls-9{stroke-width:0.5px;}.cls-10{fill:#ff844d;}.cls-11,.cls-15{fill:#ffc609;}.cls-11{stroke-miterlimit:10;stroke-width:1.5px;}.cls-13{fill:#25207c;}.cls-14{fill:#186ccc;}.cls-16{fill:#f0f4fb;}</style><clipPath id="clip-path"><path class="cls-1" d="M242.79,261.41v124.5H557.21V203.69H242.79v25.17"/></clipPath></defs><line class="cls-2" x1="45.81" y1="596.31" x2="754.19" y2="596.31"/><rect class="cls-3" x="89.1" y="559.06" width="621.81" height="36.24"/><rect class="cls-4" x="247.48" y="497.65" width="327.85" height="61.41"/><polygon class="cls-5" points="444.13 443.29 355.87 443.29 358.56 407.05 441.44 407.05 444.13 443.29"/><path class="cls-6" d="M261.91,407.38H538.42A11.31,11.31,0,0,0,549.83,396V223.49a11.32,11.32,0,0,0-11.41-11.41H261.91a11.32,11.32,0,0,0-11.41,11.41V396C250.17,402.35,255.54,407.38,261.91,407.38Z"/><path class="cls-4" d="M268.63,280.2V385.91H531.37v-152H268.63v24.84"/><path class="cls-7" d="M480.7,470.13H319.3a13.82,13.82,0,0,1-13.76-13.76h0a13.81,13.81,0,0,1,13.76-13.75H480.7a13.81,13.81,0,0,1,13.76,13.75h0A13.82,13.82,0,0,1,480.7,470.13Z"/><rect class="cls-7" x="282.05" y="470.13" width="235.9" height="27.18"/><g class="cls-8"><path class="cls-9" d="M333.72,392.62a1.58,1.58,0,0,1-1.67-1.68V346.31a1.25,1.25,0,0,1,.33-1l13.09-13.08V318.46L332.05,305a1.21,1.21,0,0,1-.34-1v-29.2a1.68,1.68,0,0,1,3.36,0v28.86l13.42,13.43a1.21,1.21,0,0,1,.34,1v15.1a1.23,1.23,0,0,1-.34,1L335.4,347.32v44A1.53,1.53,0,0,1,333.72,392.62Z"/><path class="cls-9" d="M363.59,398.66a1.59,1.59,0,0,1-1.68-1.68V344.63a1.24,1.24,0,0,1,.34-1l5.7-5.7V320.13a1.68,1.68,0,0,1,3.36,0v18.46a1.23,1.23,0,0,1-.34,1l-5.7,5.7V397C364.93,398,364.26,398.66,363.59,398.66Z"/><path class="cls-9" d="M394.8,398.66a1.59,1.59,0,0,1-1.68-1.68V308.73L379.36,295a1.25,1.25,0,0,1-.33-1V272.48a1.68,1.68,0,0,1,3.35,0v20.81l13.76,13.76a1.21,1.21,0,0,1,.34,1V397A1.59,1.59,0,0,1,394.8,398.66Z"/><path class="cls-9" d="M426,398a1.59,1.59,0,0,1-1.68-1.68V357.38L413.92,347a1.25,1.25,0,0,1-.33-1v-30.2a1.26,1.26,0,0,1,.33-1L424,304.7V285.91a1.68,1.68,0,0,1,3.36,0v19.46a1.24,1.24,0,0,1-.34,1l-10.07,10.06V345.3l10.41,10.4a1.26,1.26,0,0,1,.33,1v39.6A1.58,1.58,0,0,1,426,398Z"/><path class="cls-9" d="M448.15,399a1.58,1.58,0,0,1-1.67-1.67V367.45a1.25,1.25,0,0,1,.33-1l10.07-10.06V340.6l-9.73-9.73a1.21,1.21,0,0,1-.34-1V303a1.68,1.68,0,0,1,3.36,0V329.2l9.73,9.73a1.23,1.23,0,0,1,.33,1v17.12a1.23,1.23,0,0,1-.33,1l-10.07,10.07v29.2A1.58,1.58,0,0,1,448.15,399Z"/><path class="cls-9" d="M467.62,393.29a1.59,1.59,0,0,1-1.68-1.68V331.88l-6.38-6.38a1.23,1.23,0,0,1-.33-1v-7.72a1.25,1.25,0,0,1,.33-1l5.71-5.7V289.6a1.68,1.68,0,1,1,3.35,0v21.14a1.26,1.26,0,0,1-.33,1l-5.71,5.7v6.38L469,330.2a1.23,1.23,0,0,1,.34,1v60.4C469,392.62,468.29,393.29,467.62,393.29Z"/><path class="cls-10" d="M340.44,272.15a7.05,7.05,0,1,1-7.05-7A7.09,7.09,0,0,1,340.44,272.15Z"/><path class="cls-10" d="M376.68,316.44a7.05,7.05,0,1,1-7.05-7A6.88,6.88,0,0,1,376.68,316.44Z"/><path class="cls-10" d="M387.75,270.14a7,7,0,1,1-7.05-7.05A6.88,6.88,0,0,1,387.75,270.14Z"/><path class="cls-10" d="M432.38,284.23a7,7,0,1,1-7-7.05A6.88,6.88,0,0,1,432.38,284.23Z"/><path class="cls-10" d="M455.87,301a7,7,0,1,1-7-7.05A7.08,7.08,0,0,1,455.87,301Z"/><path class="cls-10" d="M473.66,285.91a7.05,7.05,0,1,1-7.05-7.05A7.09,7.09,0,0,1,473.66,285.91Z"/></g><rect class="cls-11" x="479.61" y="360.93" width="141.6" height="203.35" transform="translate(-45.72 864.57) rotate(-74.04)"/><path class="cls-12" d="M626.34,530.87l26.17-91.61a12.94,12.94,0,0,1-9.06-16.11L496.14,381.21A12.93,12.93,0,0,1,480,390.27l-26.17,91.61A12.93,12.93,0,0,1,462.92,498l147.31,41.94A12.93,12.93,0,0,1,626.34,530.87Z"/><rect class="cls-5" x="551.45" y="373.78" width="4.7" height="153.01" transform="matrix(0.28, -0.96, 0.96, 0.28, -31.43, 858.9)"/><rect class="cls-5" x="548.65" y="384.29" width="4.7" height="153.01" transform="translate(-43.56 863.83) rotate(-74.04)"/><rect class="cls-5" x="545.36" y="394.92" width="4.7" height="153.01" transform="matrix(0.28, -0.96, 0.96, 0.28, -56.16, 868.37)"/><path class="cls-13" d="M552.18,431.88l-1.34-.34,1-4-4.69-1.35-1,4-1.34-.33,2.68-9.07,1.34.34-1,3.69,4.7,1.34,1-3.69,1.34.34Z"/><path class="cls-13" d="M565.27,428.52h-1.35a2.24,2.24,0,0,0-1.67-2.35c-1.68-.33-3,.68-3.7,2.69-.67,2.35,0,3.69,1.68,4.36,1.34.34,2.35,0,3.36-1.68l1.34.67c-1,2-2.68,2.35-4.7,2-2.68-1-3.69-2.69-3-5.71,1-3,2.69-4,5.71-3.35C563.92,425.5,564.93,426.51,565.27,428.52Z"/><path class="cls-13" d="M566.61,435.91l2.68-9.06,1.35.33L568,436.24Z"/><path class="cls-13" d="M578.69,429.53l1,10.07-1.34-.34-.33-2.68-4-1-1.68,2-1.34-.33,6-8.06Zm-1.34,1h0l-.68.67s-.67,1-2.34,3l3.35,1a32,32,0,0,1-.33-4v-.67Z"/><rect class="cls-5" x="580.49" y="498.73" width="2.01" height="38.92" transform="translate(-76.63 934.76) rotate(-74.04)"/><rect class="cls-5" x="492.98" y="473.76" width="2.01" height="38.92" transform="translate(-116.07 832.53) rotate(-74.04)"/><polygon class="cls-14" points="552.51 516.78 550.16 512.08 545.47 510.74 555.2 499.66 562.25 505.7 552.51 516.78"/><polygon class="cls-14" points="559.23 519.13 563.92 516.78 568.62 518.79 567.95 504.03 558.55 504.36 559.23 519.13"/><polygon class="cls-15" points="575.33 500 579.02 498.66 576 495.97 578.69 492.95 575 491.61 576.68 487.92 572.65 487.92 573.32 483.89 569.29 485.23 568.62 481.21 565.27 483.89 563.25 480.54 560.9 483.89 557.88 481.54 556.88 485.57 553.19 484.23 553.86 488.25 549.83 488.59 551.51 491.94 547.82 493.62 550.84 496.31 548.15 498.99 551.84 500.67 550.16 504.03 554.19 504.36 553.52 508.39 557.55 507.05 558.22 510.74 561.58 508.39 563.59 511.74 565.94 508.39 568.96 510.74 569.97 506.71 573.65 507.72 572.99 504.03 577.01 503.69 575.33 500"/><circle class="cls-12" cx="563.59" cy="495.97" r="9.73"/><path class="cls-6" d="M467.28,556h-54a4.45,4.45,0,0,1-4.36-4.36V517.11a4.44,4.44,0,0,1,4.36-4.36h54a4.44,4.44,0,0,1,4.36,4.36v34.57C472,554,470,556,467.28,556Z"/><path class="cls-16" d="M450.84,532.88l-15.44-8.72c-1-.67-2,0-2,1.34v17.79a1.48,1.48,0,0,0,2,1.34l15.44-8.73C451.84,534.9,451.84,533.56,450.84,532.88Z"/><path class="cls-15" d="M235.07,508.72l3-2.35-1.34-6.71-4-1.34a47.14,47.14,0,0,0-5-10.07l1.34-3.69-4.7-5-4,1a44.64,44.64,0,0,0-9.39-6l-.67-4-6.72-2-3,2.68a40.85,40.85,0,0,0-11.07-.67l-2.35-3-6.71,1.34-1.34,4a47.14,47.14,0,0,0-10.07,5l-3.69-1.34-5,4.7,1,4a45.11,45.11,0,0,0-6,9.4l-4,.67-2,6.71,2.69,3a40.91,40.91,0,0,0-.68,11.08l-3,2.34,1.35,6.72,4,1.34a46.4,46.4,0,0,0,5,10.06l-1.35,3.7,4.7,5,4-1a44.64,44.64,0,0,0,9.39,6l.68,4,6.71,2,3-2.68a40.85,40.85,0,0,0,11.07.67l2.35,3,6.71-1.34,1.34-4a46.91,46.91,0,0,0,10.07-5l3.69,1.34,5-4.7-1-4a45.11,45.11,0,0,0,6-9.4l4-.67,2-6.71-2.68-3A31.19,31.19,0,0,0,235.07,508.72Zm-41.28,25.51a22.15,22.15,0,1,1,22.15-22.15A22.34,22.34,0,0,1,193.79,534.23Zm9.4-22.15a9.39,9.39,0,0,1-9.4,9.4,9.4,9.4,0,1,1,9.4-9.4Z"/><path class="cls-15" d="M276.68,433.56l2.35-1.68-1-5-3-1a53.9,53.9,0,0,0-3.69-7.72l1-2.68-3.69-4-3,.67c-2-2-4.7-3.36-7.05-4.7l-.34-3-5-1.68-2.35,2a23.71,23.71,0,0,0-8.39-.34L240.77,402l-5,1-1,3a54.87,54.87,0,0,0-7.71,3.69l-2.69-1-4,3.69.68,3c-2,2-3.36,4.69-4.7,7l-3,.34-1.68,5,2,2.35a23.48,23.48,0,0,0-.33,8.39l-2.35,1.68,1,5,3,1a54.46,54.46,0,0,0,3.7,7.72l-1,2.68,3.69,4,3-.67c2,2,4.7,3.35,7,4.7l.33,3,5,1.67,2.35-2a23.7,23.7,0,0,0,8.39.34l1.67,2.34,5-1,1-3a55,55,0,0,0,7.72-3.69l2.69,1,4-3.69-.67-3c2-2,3.36-4.7,4.7-7l3-.33,1.68-5-2-2.34A66.58,66.58,0,0,0,276.68,433.56ZM244.8,453a16.78,16.78,0,1,1,16.78-16.78C261.91,445.64,254.2,453,244.8,453Z"/></svg>