<svg id="图层_1" data-name="图层 1" xmlns="http://www.w3.org/2000/svg" xmlns:xlink="http://www.w3.org/1999/xlink" viewBox="0 0 800 800"><defs><style>.cls-1,.cls-15,.cls-2{fill:none;}.cls-14,.cls-15,.cls-16,.cls-17,.cls-19,.cls-2,.cls-3,.cls-6{stroke:#000;}.cls-16,.cls-19,.cls-2,.cls-3,.cls-6{stroke-miterlimit:10;}.cls-14,.cls-15,.cls-17,.cls-19,.cls-2,.cls-3,.cls-6{stroke-width:1.5px;}.cls-3{fill:#ddd;}.cls-4{fill:#ff844d;}.cls-14,.cls-17,.cls-5,.cls-6{fill:#fff;}.cls-7{clip-path:url(#clip-path);}.cls-8{fill:#40adff;}.cls-9{fill:#5576b5;}.cls-10{fill:#25207c;}.cls-11{fill:#186ccc;}.cls-12,.cls-19{fill:#ffc609;}.cls-13{clip-path:url(#clip-path-2);}.cls-14{stroke-miterlimit:10;}.cls-15,.cls-17{stroke-linecap:round;stroke-linejoin:round;}.cls-18{fill:#dbdbdb;}.cls-20{fill:#72a2e8;}</style><clipPath id="clip-path"><path class="cls-1" d="M342.81,553.1H130a20.15,20.15,0,0,1-20.29-20.28V386.54A20.16,20.16,0,0,1,130,366.25H342.81a20.16,20.16,0,0,1,20.29,20.29V532.82A20.37,20.37,0,0,1,342.81,553.1Z"/></clipPath><clipPath id="clip-path-2"><path class="cls-1" d="M525.34,428.09H275a23.84,23.84,0,0,1-23.94-23.93V232.27A23.84,23.84,0,0,1,275,208.33H525.34a23.84,23.84,0,0,1,23.94,23.94V404.16C549,417.45,538.31,428.09,525.34,428.09Z"/></clipPath></defs><line class="cls-2" x1="48.91" y1="592.33" x2="751.09" y2="592.33"/><rect class="cls-3" x="92.13" y="555.43" width="616.06" height="35.91"/><circle class="cls-4" cx="620.43" cy="333.34" r="24.6"/><polygon class="cls-5" points="632.73 333.34 611.78 321.04 611.78 345.31 632.73 333.34"/><path class="cls-6" d="M348.13,555.43H135.36a20.16,20.16,0,0,1-20.29-20.28V388.86a20.16,20.16,0,0,1,20.29-20.28H348.13a20.16,20.16,0,0,1,20.29,20.28V535.15A20.37,20.37,0,0,1,348.13,555.43Z"/><g class="cls-7"><rect class="cls-8" x="170.16" y="395.4" width="140.3" height="201.47" transform="translate(-301.21 599.4) rotate(-74.95)"/><path class="cls-5" d="M315.22,564.74l24.6-91.43a12.81,12.81,0,0,1-9-16L184.23,418.12a12.82,12.82,0,0,1-16,9l-24.6,91.42a12.81,12.81,0,0,1,9,16l146.62,39.23A13,13,0,0,1,315.22,564.74Z"/><rect class="cls-9" x="241.97" y="409.39" width="4.65" height="151.6" transform="translate(-287.68 595.16) rotate(-74.95)"/><rect class="cls-9" x="239.25" y="419.64" width="4.65" height="151.6" transform="translate(-299.6 600.12) rotate(-74.95)"/><rect class="cls-9" x="236.31" y="430.34" width="4.65" height="151.6" transform="translate(-312.11 605.2) rotate(-74.95)"/><path class="cls-10" d="M240.08,467.33l-1.33-.34,1-4-4.65-1.33-1,4-1.33-.33,2.33-9,1.33.34-1,3.65,4.65,1.33,1-3.65,1.33.33Z"/><path class="cls-10" d="M253.05,464h-1.33c0-1.33-.67-2-2-2.33-1.66-.33-3,.67-3.65,2.66-.67,2.33,0,3.66,1.66,4.33,1.33.33,2.33-.34,3-1.67l1.33.67a3.54,3.54,0,0,1-4.65,2c-2.66-1-3.66-2.66-3-5.65,1-3,2.66-4,5.32-3.66C252.05,461,253.05,462,253.05,464Z"/><path class="cls-10" d="M254.71,471.31l2.33-9,1.33.33-2.33,9Z"/><path class="cls-10" d="M264.35,470.32l-2.32-.67L261,473l-1.33-.34,2.33-9,3.65,1c2,.66,2.66,1.66,2.33,3.65C268,470.32,266.68,471,264.35,470.32Zm1-4.66-2-.66-1,3.32,2,.67c1.33.33,2.33,0,2.66-1.33C267.35,467,266.68,466,265.35,465.66Z"/><rect class="cls-9" x="272.1" y="532.49" width="2" height="38.57" transform="translate(-330.65 672.26) rotate(-74.95)"/><rect class="cls-9" x="184.81" y="509.45" width="2" height="38.57" transform="translate(-373.04 570.91) rotate(-74.95)"/><polygon class="cls-11" points="224.13 547.45 222.13 542.79 217.14 541.47 226.45 530.16 233.77 536.15 224.13 547.45"/><polygon class="cls-11" points="231.11 549.45 235.43 547.12 240.08 548.78 239.42 534.15 230.11 534.82 231.11 549.45"/><polygon class="cls-12" points="246.4 530.16 250.06 528.83 247.06 526.17 250.06 523.18 246.07 521.85 248.06 518.19 244.07 518.19 244.41 514.2 240.75 515.53 239.75 511.88 236.43 514.2 234.1 510.88 232.1 514.53 229.11 512.21 228.11 516.2 224.46 514.87 225.12 518.86 221.13 519.19 223.13 522.85 219.47 524.18 222.46 526.84 219.47 529.83 223.46 531.16 221.8 534.82 225.79 534.82 225.12 538.81 229.11 537.48 230.11 541.13 233.1 538.81 235.43 542.13 237.42 538.47 240.75 540.8 241.41 536.81 245.07 538.14 244.41 534.15 248.39 533.82 246.4 530.16"/><circle class="cls-5" cx="234.76" cy="526.5" r="9.64"/></g><path class="cls-6" d="M527,430.42H273a24.4,24.4,0,0,1-24.27-24.27V231.94A24.4,24.4,0,0,1,273,207.67H527a24.4,24.4,0,0,1,24.27,24.27V406.48C551.27,419.45,540.3,430.42,527,430.42Z"/><g class="cls-13"><path class="cls-8" d="M344.15,506.56c-6.65-1-33.92-3.66-40.9-10.64a22.63,22.63,0,0,1-6.31-19.29v-.33c1.66-9.64,11-95.08,21.61-107.72S396,329.35,421.94,336.33c25.94,11.31,53.87,22.61,63.51,31.59,8.64,8,28.59,68.15,38.23,106.39,1.66,7,3,15.29-2,20.28-5.66,6-58.52,20.28-58.52,20.28l-32.58,8C430.25,523.18,355.12,508.22,344.15,506.56Z"/><path class="cls-6" d="M423.61,321.37,420,345.64v1a17.78,17.78,0,0,1-18.62,14.63h-.67A17.47,17.47,0,0,1,385,342.32V341l.66-6.32,1.67-19.95Z"/><circle class="cls-14" cx="436.24" cy="303.75" r="12.97"/><path class="cls-15" d="M428.93,299.1a22.47,22.47,0,0,0,13.29,5.32"/><path class="cls-6" d="M398,342h0a35.1,35.1,0,0,0,38.57-32.58l2-29.92a28.83,28.83,0,0,0-28.93-30.92h0c-17.62-1.66-36.24,10.64-37.9,28.26l-1.66,32.25A31,31,0,0,0,398,342Z"/><path class="cls-15" d="M395.68,322.37a22.41,22.41,0,0,0,13.3,5.32"/><path class="cls-16" d="M370.08,289.79c-.33-4,1.66-7.65,3-11.31s2.33-8,0-11.3a55.63,55.63,0,0,0,25.6,9.31,12.63,12.63,0,0,0,7-.67,6.48,6.48,0,0,0,4.66-5c8.64,1,9.64,2.66,18.28,1.66,7.32-1,16.29-1,20-8.31,5.32-11-18.29-28.93-26.6-32.92C402,222,374.4,217,376.39,239.59c.34,2.32-3.65,3.32-6,4.65-4,2.66-13.63,4-16.29,8-5,8,4.65,40.23,4.65,40.23Z"/><path class="cls-16" d="M432.25,260.53c0,.33-.33,1-.33,1.33a38.54,38.54,0,0,0,1.33,12.3c.33,1.66,1,3.66,1.33,5.32.66,4.32.66,8.31,4,12,0,0,6-21.28,3.65-36.57-.33-1.66-1-6.32-3.65-5.32-2,.66-3.33,4-4.32,5.65A19.58,19.58,0,0,0,432.25,260.53Z"/><path class="cls-6" d="M353.79,298.43a13,13,0,1,0,14.29-11.64A12.64,12.64,0,0,0,353.79,298.43Z"/><path class="cls-17" d="M370.74,304.08s1-9.31-8.31-9"/><polygon class="cls-18" points="403.32 314.06 407.98 314.39 407.31 293.78 412.3 314.39 403.32 314.06"/><polyline class="cls-15" points="407.31 293.78 407.98 314.39 403.32 314.06"/></g><polyline class="cls-2" points="333.17 226.29 290.29 226.29 290.29 269.17"/><polyline class="cls-2" points="475.47 411.8 518.36 411.8 518.36 368.91"/><polyline class="cls-2" points="518.36 269.17 518.36 226.29 475.47 226.29"/><polyline class="cls-2" points="290.29 368.91 290.29 411.8 333.17 411.8"/><line class="cls-2" x1="496.42" y1="319.04" x2="297.6" y2="319.04"/><path class="cls-19" d="M521,312.39a18.52,18.52,0,1,1-23.94-10.63A18.16,18.16,0,0,1,521,312.39Z"/><path class="cls-19" d="M521,312.39a18.52,18.52,0,1,1-23.94-10.63A18.16,18.16,0,0,1,521,312.39Z"/><path class="cls-19" d="M313.56,312.39a18.52,18.52,0,1,1-23.94-10.63A18.42,18.42,0,0,1,313.56,312.39Z"/><path class="cls-19" d="M313.56,312.39a18.52,18.52,0,1,1-23.94-10.63A18.42,18.42,0,0,1,313.56,312.39Z"/><path class="cls-6" d="M411.3,555.43H617.43a11.07,11.07,0,0,0,11-11h0a11.06,11.06,0,0,0-11-11H411.3a11.07,11.07,0,0,0-11,11h0C400,550.44,405,555.43,411.3,555.43Z"/><path class="cls-6" d="M683.93,428.09,644.7,533.82a16.21,16.21,0,0,1-15.63,10.64H468.16a9.31,9.31,0,0,1-8.65-13L501.07,425.1a13.06,13.06,0,0,1,11.64-7H678.27A6.87,6.87,0,0,1,683.93,428.09Z"/><path class="cls-20" d="M594.83,492.93l-3,1-4.32-21.28h0a60.79,60.79,0,0,0-3.32,7.32c-2,4-3.66,8-5.32,12l-3,.33c-2-3.66-4-7.65-6.32-12-2.33-4.65-3.66-7.31-4.32-8h0c0,.34-.67,3-2,8.31s-2.32,10.64-3.65,16.3l-4-.34c1.66-6.65,3.32-13,5-19.28,1.33-6,2.33-9.31,2.33-10l4-.34c.33.34,1.33,2.66,3.66,7,2,4.33,4.65,9,7.31,14.3h0q3-6.48,6-13c2-4.32,3-6.64,3.32-7l3,.34c0,.33.67,3,1.67,8.31Q592.83,484.44,594.83,492.93Z"/></svg>