<svg id="图层_1" data-name="图层 1" xmlns="http://www.w3.org/2000/svg" viewBox="0 0 800 800"><defs><style>.cls-1{fill:#f2f2f2;}.cls-2{fill:#ffc609;}.cls-2,.cls-3,.cls-5,.cls-8,.cls-9{stroke:#000;stroke-width:1.5px;}.cls-2,.cls-8,.cls-9{stroke-miterlimit:10;}.cls-3,.cls-8{fill:none;}.cls-3,.cls-5{stroke-linecap:round;stroke-linejoin:round;}.cls-4{fill:#5576b5;}.cls-5{fill:#fff;}.cls-6{fill:#40adff;}.cls-7{fill:#ffaeae;}.cls-9{fill:#ddd;}</style></defs><circle class="cls-1" cx="626.41" cy="226.75" r="122.92"/><path class="cls-2" d="M72.93,199.55V521.33H394.7ZM134,359.2l101,101H134Z"/><line class="cls-3" x1="93.41" y1="520.98" x2="93.41" y2="494.84"/><line class="cls-3" x1="164.05" y1="520.98" x2="164.05" y2="494.84"/><line class="cls-3" x1="235.05" y1="520.98" x2="235.05" y2="494.84"/><line class="cls-3" x1="117.08" y1="520.98" x2="117.08" y2="507.91"/><line class="cls-3" x1="140.74" y1="520.98" x2="140.74" y2="507.91"/><line class="cls-3" x1="187.72" y1="520.98" x2="187.72" y2="507.91"/><line class="cls-3" x1="211.38" y1="520.98" x2="211.38" y2="507.91"/><polygon class="cls-4" points="512.32 629.76 390.46 629.76 394 579.61 508.79 579.61 512.32 629.76"/><path class="cls-5" d="M259.77,579.61H643a32,32,0,0,0,32.14-32.14V319.64A32,32,0,0,0,643,287.5H259.77a32,32,0,0,0-32.14,32.14V547.47A32,32,0,0,0,259.77,579.61Z"/><rect class="cls-6" x="270.02" y="328.47" width="362.75" height="210.16"/><rect class="cls-5" x="326.18" y="629.76" width="250.43" height="22.61"/><path class="cls-5" d="M550.11,497H352.67a6.7,6.7,0,0,1-6.71-6.71V386.75a6.71,6.71,0,0,1,6.71-6.71H550.11a6.71,6.71,0,0,1,6.72,6.71v103.5A6.5,6.5,0,0,1,550.11,497Z"/><polygon class="cls-7" points="474.17 438.32 430.73 413.25 430.73 463.4 474.17 438.32"/><line class="cls-8" x1="50.67" y1="696.17" x2="708" y2="696.17"/><rect class="cls-8" x="83.17" y="674.27" width="591.98" height="21.9"/><rect class="cls-9" x="158.76" y="652.37" width="441.52" height="21.9"/></svg>