<svg xmlns="http://www.w3.org/2000/svg" xmlns:xlink="http://www.w3.org/1999/xlink" viewBox="0 0 800 800"><defs><style>.cls-1,.cls-12,.cls-16,.cls-26,.cls-5,.cls-6{fill:none;}.cls-2{isolation:isolate;}.cls-3{clip-path:url(#clip-path);}.cls-4{mix-blend-mode:overlay;}.cls-5,.cls-6,.cls-7{stroke:#334272;}.cls-10,.cls-11,.cls-12,.cls-16,.cls-25,.cls-31,.cls-5,.cls-6,.cls-7,.cls-9{stroke-miterlimit:10;}.cls-10,.cls-11,.cls-12,.cls-16,.cls-20,.cls-25,.cls-26,.cls-31,.cls-5,.cls-6,.cls-7,.cls-9{stroke-width:1.5px;}.cls-16,.cls-20,.cls-26,.cls-6{stroke-linecap:round;}.cls-18,.cls-20,.cls-7,.cls-9{fill:#fff;}.cls-8{opacity:0.85;}.cls-10,.cls-11,.cls-12,.cls-20,.cls-25,.cls-26,.cls-31,.cls-9{stroke:#000;}.cls-10{fill:#ffaeae;}.cls-11{fill:#7cc996;}.cls-13{fill:#dfdfdf;}.cls-14{fill:#ff4f4f;}.cls-15{fill:#f2f2f2;}.cls-16{stroke:#181818;}.cls-17{fill:#dba305;}.cls-19{fill:#ffc607;}.cls-20,.cls-26{stroke-linejoin:round;}.cls-21{fill:#dbdbdb;}.cls-22{fill:#40adff;}.cls-23{fill:#1b1b43;}.cls-24{fill:#c5c5ff;}.cls-25,.cls-33{fill:#72a2e8;}.cls-27{fill:#6ba417;}.cls-28{fill:#4f5354;}.cls-29{opacity:0.2;}.cls-30{fill:#f7d14d;}.cls-31{fill:#ffc609;}.cls-32{fill:#ff844d;}</style><clipPath id="clip-path"><path class="cls-1" d="M-817,623l44.91-439.88,239.76-1.56q23.14,69.47,38.47,125.11T-474,383.22q20.18-97.08,54.53-201.67l238.27,1.56L-136.34,623H-302.91l-41.92-286.82s-9.71,26.89-27.64,76.18q-15.67,41.08-44.81,120.26H-531.56C-576.38,420.08-607,336.91-607,336.91L-649.67,623Z"/></clipPath></defs><g class="cls-2"><g id="图层_1" data-name="图层 1"><g class="cls-3"><g class="cls-4"><path class="cls-5" d="M41.36,338.58A15.68,15.68,0,1,1,25.68,322.9,15.69,15.69,0,0,1,41.36,338.58Z"/><path class="cls-5" d="M181.47,375.65A15.68,15.68,0,1,1,165.79,360,15.68,15.68,0,0,1,181.47,375.65Z"/><path class="cls-5" d="M172.75,375.65a7,7,0,1,1-7-7A7,7,0,0,1,172.75,375.65Z"/><path class="cls-5" d="M98.71,530.57a22,22,0,1,1-22-22A22,22,0,0,1,98.71,530.57Z"/><path class="cls-5" d="M67.27,409.6A41.59,41.59,0,1,1,25.68,368,41.59,41.59,0,0,1,67.27,409.6Z"/><path class="cls-6" d="M49,409.6a23.36,23.36,0,1,1-23.36-23.36A23.36,23.36,0,0,1,49,409.6Z"/><line class="cls-5" x1="20.42" y1="409.6" x2="30.94" y2="409.6"/><line class="cls-5" x1="25.68" y1="404.34" x2="25.68" y2="414.86"/><line class="cls-5" x1="22.14" y1="338.58" x2="29.23" y2="338.58"/><line class="cls-5" x1="25.68" y1="335.04" x2="25.68" y2="342.13"/><line class="cls-5" x1="162.24" y1="375.65" x2="169.34" y2="375.65"/><line class="cls-5" x1="165.79" y1="372.1" x2="165.79" y2="379.19"/><polyline class="cls-5" points="-135.5 314.46 -121.29 314.46 -91.35 284.53 -75.71 284.53 -8.38 217.19 70.85 217.19 147.33 293.67 193.07 293.67 230.71 331.31 266.51 331.31"/><polyline class="cls-5" points="192.82 665.98 192.82 579.51 209.53 562.8 209.53 291.07 196.62 278.16 196.62 177.9"/><circle class="cls-5" cx="192.82" cy="670.46" r="4.48"/><path class="cls-5" d="M254.12,488a4.48,4.48,0,1,0-4.48,4.47A4.47,4.47,0,0,0,254.12,488Z"/><path class="cls-5" d="M230.71,198.35a4.21,4.21,0,1,1,4.21-4.21A4.22,4.22,0,0,1,230.71,198.35Z"/><path class="cls-7" d="M230.71,215.79a4.21,4.21,0,1,1,4.21-4.21A4.21,4.21,0,0,1,230.71,215.79Z"/><path class="cls-5" d="M230.71,233.23a4.21,4.21,0,1,1,4.21-4.2A4.21,4.21,0,0,1,230.71,233.23Z"/><path class="cls-7" d="M230.71,250.68a4.21,4.21,0,1,1,4.21-4.21A4.22,4.22,0,0,1,230.71,250.68Z"/><path class="cls-5" d="M230.71,268.12a4.21,4.21,0,1,1,4.21-4.21A4.21,4.21,0,0,1,230.71,268.12Z"/><path class="cls-7" d="M230.71,285.56a4.21,4.21,0,1,1,4.21-4.21A4.21,4.21,0,0,1,230.71,285.56Z"/><polyline class="cls-5" points="-41.18 474.84 -41.18 363.53 -2.09 324.44 -2.09 258.88 18.44 238.34 18.44 217.19"/><line class="cls-5" x1="142.43" y1="270.88" x2="139.79" y2="273.52"/><line class="cls-5" x1="141.18" y1="261.99" x2="134.72" y2="268.46"/><line class="cls-5" x1="138.98" y1="254.06" x2="129.65" y2="263.39"/><line class="cls-5" x1="129.25" y1="253.66" x2="124.58" y2="258.32"/><line class="cls-5" x1="125.98" y1="246.79" x2="119.52" y2="253.25"/><line class="cls-5" x1="117.94" y1="244.7" x2="114.45" y2="248.18"/><line class="cls-5" x1="115.84" y1="236.65" x2="109.38" y2="243.12"/><line class="cls-5" x1="107.8" y1="234.56" x2="104.31" y2="238.05"/><line class="cls-5" x1="108.57" y1="223.65" x2="99.24" y2="232.98"/><line class="cls-5" x1="96.82" y1="225.27" x2="94.18" y2="227.91"/><path class="cls-7" d="M21,217.19a2.58,2.58,0,1,1-2.58-2.57A2.57,2.57,0,0,1,21,217.19Z"/><circle class="cls-7" cx="52.22" cy="217.19" r="2.58"/><path class="cls-7" d="M62.87,217.19a2.58,2.58,0,1,1-2.58-2.57A2.57,2.57,0,0,1,62.87,217.19Z"/><path class="cls-5" d="M61.07,530.57a15.69,15.69,0,1,0,15.68-15.68A15.69,15.69,0,0,0,61.07,530.57Z"/><path class="cls-5" d="M68.24,530.57a8.52,8.52,0,1,0,8.51-8.51A8.51,8.51,0,0,0,68.24,530.57Z"/><line class="cls-5" x1="79.56" y1="530.57" x2="73.95" y2="530.57"/><line class="cls-5" x1="76.75" y1="527.77" x2="76.75" y2="533.38"/><polyline class="cls-6" points="70.85 177.9 70.85 275.52 121.09 325.75 121.09 409.75 169.39 458.05 209.53 458.05"/><polyline class="cls-5" points="165.79 359.97 165.79 213.7 180.82 198.67 180.82 177.9"/><line class="cls-5" x1="25.68" y1="368.01" x2="25.68" y2="354.27"/><polyline class="cls-5" points="36.77 327.49 52.22 312.05 52.22 177.9"/><polyline class="cls-5" points="230.71 331.31 230.71 429.04 249.64 447.98 249.64 483.49"/><polyline class="cls-5" points="95.5 519.13 105.05 509.57 105.05 359.97 60.3 315.21 60.3 177.9"/><path class="cls-5" d="M11.41,545.89a3.63,3.63,0,1,1-3.63-3.63A3.63,3.63,0,0,1,11.41,545.89Z"/><polyline class="cls-5" points="7.78 542.26 7.78 528.05 37.72 498.12 37.72 482.48 105.05 415.14"/></g></g><g class="cls-8"><rect class="cls-9" x="147.17" y="173.14" width="309.87" height="228.4" rx="7.08"/></g><path class="cls-10" d="M414.72,186.87a4.61,4.61,0,1,1-4.6-4.61A4.61,4.61,0,0,1,414.72,186.87Z"/><circle class="cls-9" cx="425.05" cy="186.87" r="4.61"/><circle class="cls-11" cx="439.34" cy="186.87" r="4.61"/><path class="cls-12" d="M126.21,215.69H81c-14.34,0-26,12.72-26,28.41v147c0,15.69,11.63,28.41,26,28.41l29.52.21"/><path class="cls-13" d="M380.69,143.54a3.89,3.89,0,0,0,0,.59H507.2c-.33-10.43-9.41-18.79-20.54-18.79a21.49,21.49,0,0,0-9.84,2.36,22.45,22.45,0,0,0-10.93-20c-10.78-6.25-24.88-2-31.48,9.47A25.13,25.13,0,0,0,431.09,128a45.7,45.7,0,0,0-18.85-3.84c-17.42,0-31.55,8.68-31.55,19.37Z"/><path class="cls-14" d="M633.56,665s0,0,0-.08S633.53,664.8,633.56,665Z"/><circle class="cls-9" cx="625.3" cy="218.96" r="45.42" transform="translate(-36.55 248.82) rotate(-21.88)"/><circle class="cls-15" cx="625.58" cy="218.68" r="36.83"/><polyline class="cls-16" points="624.73 192.19 625.58 218.69 649.04 218.69"/><path class="cls-17" d="M479.27,657.33l-5,4.66-9.73,4.92a40.42,40.42,0,0,0-17.91,18l-1.73,3.47c-1.95,1.74,3.58,4.92,6.19,4.89l61.35-.67a3.12,3.12,0,0,0,3.09-3.23V658.65Z"/><path class="cls-18" d="M495.61,673.79a6.11,6.11,0,1,1,7.13,4.89A6.12,6.12,0,0,1,495.61,673.79Zm1.38-.26a4.71,4.71,0,1,0,3.76-5.49A4.71,4.71,0,0,0,497,673.53Z"/><path class="cls-18" d="M479.85,668.69a.69.69,0,0,0,.34-.17.7.7,0,0,0,.05-1l-5.48-6a.7.7,0,1,0-1,.94l5.48,6A.68.68,0,0,0,479.85,668.69Z"/><path class="cls-18" d="M475.33,672.93a.69.69,0,0,0,.34-.17.7.7,0,0,0,.05-1l-5.48-6a.7.7,0,0,0-1,.94l5.48,6A.68.68,0,0,0,475.33,672.93Z"/><path class="cls-18" d="M471.07,677.1a.72.72,0,0,0,.35-.17.71.71,0,0,0,0-1l-5.48-6a.7.7,0,0,0-1,0,.69.69,0,0,0,0,1l5.47,6A.68.68,0,0,0,471.07,677.1Z"/><path class="cls-18" d="M479.17,661.15c-2.09-1.08-1.39-10.18-1.28-10.76a3.51,3.51,0,0,1,4.1-2.8,3.51,3.51,0,0,1,2.8,4.1h0c-.22,1.17-3.43,8.76-4.84,9.45a.75.75,0,0,1-.24.08A.84.84,0,0,1,479.17,661.15Zm.12-1.25h0Zm0-9.25c-.33,1.74-.27,7.36.34,8.91a40,40,0,0,0,3.8-8.13h0a2.11,2.11,0,0,0-1.68-2.46,2,2,0,0,0-.78,0A2.09,2.09,0,0,0,479.27,650.65Z"/><path class="cls-18" d="M469.72,658.88a3.51,3.51,0,1,1,3.58-6h0c1.18.7,6.25,4.83,6.77,6.94a1.39,1.39,0,0,1-.13,1.08.87.87,0,0,1-.62.33C477.1,661.61,470.29,659.22,469.72,658.88Zm9,1.32h0Zm-9-5.42a2.14,2.14,0,0,0-.22,1.6,2.09,2.09,0,0,0,1,1.29,35.24,35.24,0,0,0,8.22,2.23c-.57-1.36-4.56-5-6.07-5.85h0a2.1,2.1,0,0,0-1.46-.26A2.15,2.15,0,0,0,469.69,654.78Zm3.23-1.34h0Z"/><rect x="444.37" y="688.26" width="71.37" height="5.76" rx="0.65" transform="translate(958.23 1383.58) rotate(-179.84)"/><path class="cls-18" d="M515.58,688.27a.71.71,0,0,0-.14-1.4l-61.06.36a.71.71,0,0,0,0,1.41l61.06-.36Z"/><path class="cls-19" d="M485.47,658.45l-5,4.66L470.71,668a40.47,40.47,0,0,0-17.91,18l-1.73,3.47c-1.95,1.74,3.58,4.92,6.19,4.89l61.35-.67a3.13,3.13,0,0,0,3.09-3.23V659.77Z"/><path class="cls-18" d="M501.8,674.91a6.12,6.12,0,1,1,7.14,4.89A6.12,6.12,0,0,1,501.8,674.91Zm1.39-.26a4.71,4.71,0,1,0,3.76-5.49A4.7,4.7,0,0,0,503.19,674.65Z"/><path class="cls-18" d="M486.05,669.81a.69.69,0,0,0,.34-.17.7.7,0,0,0,.05-1l-5.48-6a.7.7,0,1,0-1,.94l5.48,6A.69.69,0,0,0,486.05,669.81Z"/><path class="cls-18" d="M481.52,674.05a.68.68,0,0,0,.35-.17.69.69,0,0,0,0-1l-5.47-6a.7.7,0,0,0-1,.94l5.48,6A.67.67,0,0,0,481.52,674.05Z"/><path class="cls-18" d="M477.27,678.22a.69.69,0,0,0,.34-.17.7.7,0,0,0,.05-1l-5.48-6a.7.7,0,0,0-1,.94l5.48,6A.7.7,0,0,0,477.27,678.22Z"/><path class="cls-18" d="M485.37,662.27c-2.1-1.07-1.4-10.18-1.29-10.76a3.54,3.54,0,0,1,1.47-2.25,3.48,3.48,0,0,1,2.64-.55,3.52,3.52,0,0,1,2.8,4.1h0c-.22,1.18-3.43,8.76-4.84,9.45a.75.75,0,0,1-.24.08A.84.84,0,0,1,485.37,662.27Zm.12-1.25h0Zm0-9.25c-.33,1.74-.27,7.36.34,8.91a40.53,40.53,0,0,0,3.8-8.13h0a2.11,2.11,0,0,0-1.68-2.46,2,2,0,0,0-.78,0A2.09,2.09,0,0,0,485.47,651.77Z"/><path class="cls-18" d="M475.92,660a3.51,3.51,0,1,1,3.57-6h0c1.19.7,6.25,4.83,6.77,6.94a1.35,1.35,0,0,1-.12,1.08.91.91,0,0,1-.62.34C483.3,662.73,476.49,660.34,475.92,660Zm9,1.32h0Zm-9-5.41a2.1,2.1,0,0,0-.22,1.59,2.07,2.07,0,0,0,1,1.29,35.11,35.11,0,0,0,8.22,2.23c-.57-1.36-4.56-5-6.07-5.85h0a2.11,2.11,0,0,0-1.46-.26A2.09,2.09,0,0,0,475.89,655.91Zm3.23-1.35h0Z"/><rect x="450.57" y="689.38" width="71.37" height="5.76" rx="0.65" transform="matrix(-1, 0, 0, -1, 970.63, 1385.84)"/><path class="cls-18" d="M521.78,689.39a.71.71,0,0,0,.57-.7.7.7,0,0,0-.71-.69l-61.06.35a.72.72,0,0,0-.7.71.71.71,0,0,0,.71.7l61.06-.36Z"/><path class="cls-13" d="M744.93,384.57c-.47-8.26-7.61-14.67-16.45-14.67a17.32,17.32,0,0,0-7.89,1.9l-.54.27v-.6a18.09,18.09,0,0,0-8.77-16.11,17.46,17.46,0,0,0-13.35-1.69A19.62,19.62,0,0,0,686,363a20.28,20.28,0,0,0-2.68,8.76l0,.52-.48-.22a37.07,37.07,0,0,0-15.28-3.11c-14,0-25.49,7-25.49,15.51v.12H744.93"/><path class="cls-20" d="M477,479.14l4.73-9.28a9.39,9.39,0,0,1,5.87-4.78l13.94-3.86,35.84-22.89,4-14,21.31,16.48-.19,4a21.07,21.07,0,0,1-12.71,18.33l-34.8,15-16.54.37c-5.33,1.84-7.16,6.44-10.47,4.78-1.24-.61,3.58-8.55,3.58-8.55l-8,8.83L477,479.14Z"/><path class="cls-20" d="M539.28,502.23l-26.07-2.3c-17-1.5-31.74,12.21-32.57,30.23l-5.89,128.42,36,1.12,28.56-157.47Z"/><path class="cls-20" d="M480.26,661.92h44.11l31.44-96.74,4.4-13.54,62.86-.27a17.48,17.48,0,0,0,10.75-4.51,25.58,25.58,0,0,0,8.54-23.15l-5.51-39.33-93.38,12.13a41.94,41.94,0,0,0-35.65,33L480.26,661.92"/><polygon class="cls-21" points="546.1 551.09 554.65 564.63 559.05 551.09 546.1 551.09 546.1 551.09"/><path class="cls-22" d="M558.8,477.25q.68,2.73,1.41,5.47l3.31,13.51,43.56-1.81,31.36-1.3a13.48,13.48,0,0,0,12.64-16.21l-14.63-70.37a26.72,26.72,0,0,0-23.64-22.42L577,380.44l-11.58,3.31c-11.31,6.06-11.32,17.06-11.86,24.26-2.37,31.51.55,50.6,5.21,69.24"/><polygon class="cls-23" points="478.6 490.99 519.59 490.99 519.59 482.9 478.6 482.9 478.6 490.99 478.6 490.99"/><polygon class="cls-9" points="407.66 490.99 490 490.99 452.14 418.58 369.8 418.58 407.66 490.99 407.66 490.99"/><path class="cls-24" d="M509.9,481.93c.73-.36,1.19-.61,1.19-.61l-.26-.52s-.49.24-1.19.61l.26.52Z"/><path class="cls-20" d="M499,484.65c.85,1.68,7.36-1.29,10.39-2.78-2.35,1.3-6.39,3.86-4.6,5.26,1.45,1.12,4.65-1.26,15.12-5.6-1.58.75-10.95,5.2-8.59,6.89,2.57,1.83,13.6-2.2,13.6-2.2l9.56,5.13h11l39.68.26a28.82,28.82,0,0,0,7.35-.93,33,33,0,0,0,12.9-6.68,32.52,32.52,0,0,0,6.12-6.87,36.41,36.41,0,0,0,3.28-6.13l10.46-24.79-27.55-12.72-14.38,29.19L536,473l-13.24-3.31c-2.84-.71-6.87.49-9.37,2-6.11,3.74-15.13,11.36-14.34,13"/><polyline class="cls-9" points="621.24 562.67 621.24 686.92 621.24 686.92"/><path class="cls-19" d="M587.23,568.18H656.7a8.54,8.54,0,0,0,8.55-8.54h0a8.55,8.55,0,0,0-8.55-8.55H587.23a8.55,8.55,0,0,0-8.55,8.55h0a8.54,8.54,0,0,0,8.55,8.54Z"/><path class="cls-13" d="M592.74,695h58.45v-1.41a12.85,12.85,0,0,0-12.85-12.85H605.59a12.85,12.85,0,0,0-12.85,12.85V695Z"/><polyline class="cls-9" points="415.99 694.54 415.99 694.54 539.13 499.35"/><polyline class="cls-9" points="414.77 499.35 537.91 694.54 537.91 694.54"/><polygon class="cls-25" points="369.06 507.26 584.84 507.26 584.84 490.99 369.06 490.99 369.06 507.26 369.06 507.26"/><path d="M589.94,318.22c9.65-9.51,27.85-5.52,27.57,10.47,19.85,5.24,21,27,13,38.19l-6.89.55-1.52-8.13-4,8.27-19.3,1.24-8.82-50.59Z"/><path class="cls-19" d="M606.21,329.52a8.62,8.62,0,0,0-.72-5.82,13,13,0,0,0-3.77-4.64,13.28,13.28,0,0,0-5.4-2.53,9.74,9.74,0,0,0-5.83.45,32.41,32.41,0,0,1,5,2,27.12,27.12,0,0,1,4.21,2.68,24.23,24.23,0,0,1,3.61,3.41,20.31,20.31,0,0,1,2.91,4.44Z"/><path class="cls-9" d="M570.31,377.28l4.52,15.51a1.89,1.89,0,0,0,.11.36.4.4,0,0,0,0,.13,11.64,11.64,0,0,0,13.38,7.84l.3-.06.26-.05a11.39,11.39,0,0,0,8.49-13.77l-.18-.81-.92-4-2.95-12.81Z"/><path class="cls-9" d="M567.63,355.5a8.26,8.26,0,0,1-7,9.32c-4.42.58-9.34-2.62-9.92-7.18a8.24,8.24,0,0,1,7-9.32C562.12,347.74,567.05,350.93,567.63,355.5Z"/><path class="cls-21" d="M575.81,391.85s14.36-6.7,14.3-19.68c0-6-18.61,5.12-18.61,5.12Z"/><path class="cls-9" d="M579.51,382.35h0c-11.35.71-21.27-8-22.17-17.52l-1.79-20c-1.13-12,7.13-22.68,18.68-24.2h0c11.82-1.55,28,6.68,29.56,18.89l-2.07,15.73C602.82,369.3,593,380.57,579.51,382.35Z"/><path class="cls-26" d="M566.77,349.33l-1.89,8.17a1.12,1.12,0,0,0,.56,1.52l2,.87"/><path class="cls-26" d="M577,363a11.09,11.09,0,0,1-8.06,5.78"/><path d="M596.42,348.47c-8-.26-14.27-4.36-16.91-16,0,0-18.75,16.17-27.94,7.53-7.7-7.23,5.36-23.87,27-25.86a30.65,30.65,0,0,1,21.89,6.68c10.47,8.4,11.47,27.91,1.68,34.67l-5.69-7Z"/><path class="cls-9" d="M610.22,353.57c.57,4.52-3.38,8.69-7.76,9.26a8.07,8.07,0,0,1-9-7.14c-.58-4.52,4.24-8.73,8.62-9.3S609.64,349.05,610.22,353.57Z"/><path class="cls-9" d="M599,357.78s.51-6.38,6.6-5.79"/><polygon class="cls-22" points="599.48 418.38 633.92 435.85 623.12 463.16 587.01 445.4 599.48 418.38 599.48 418.38"/><polyline class="cls-26" points="598.47 418.58 587.14 445.08 623.12 463.16"/><path class="cls-22" d="M541,413.1c2.78-9.65,10.71-19.5,18.79-25.46l3.25-2.39-2.76,57-23.34-15.09L541,413.1Z"/><path class="cls-26" d="M553.45,443.73c-.79-11.1,0-24.74,2.39-40.53"/><path class="cls-22" d="M323,373H258s10.77-47.44,11.18-55.66a38.78,38.78,0,0,0,0-4.59,19.25,19.25,0,0,0-.76-4.59c-2.34-7.37-13.39-31.8-11-47.2s17.45-39.83,52-39.83c27.55,0,40.72,16.39,43.39,20.42,4.71,7.12,8.37,22.23,8.37,28.35s-.67,14.58,3.68,20.89,7.64,11.3,6.83,13.58-4.26,3.79-7.5,4.12a3,3,0,0,0-.12.6,9.68,9.68,0,0,0-.05,2.23c.08,1.41.35,2.87.52,4.06a5.14,5.14,0,0,1,.06,2.27c-.5,1.13-3.35,2.14-5.1,2.56,3.19.25,4.56,1.38,3.69,3.26a3.9,3.9,0,0,1-1.22,1.42c-1.84,1.48-4.79,2.46-5,4.61-.11,1.29.6,3.42,1.1,5.65.57,2.54.88,5.2-.59,6.9-2.76,3.18-10,5.35-17.48,3.6-7.05-1.64-9.63-2.56-11.3-3.41l-.34-.19a45.14,45.14,0,0,0-2.85,9.79C322.87,367.63,323,373,323,373Z"/><path class="cls-18" d="M351.55,272.5a41.22,41.22,0,1,1-41.22-41.22A41.22,41.22,0,0,1,351.55,272.5Z"/><path class="cls-19" d="M240.05,332.05a15.2,15.2,0,0,0,0-6.3l6.11-6.16-2.4-4.16-8.39,2.22a15.13,15.13,0,0,0-5.46-3.15l-2.28-8.38h-4.79l-2.28,8.38a15,15,0,0,0-2.89,1.29,15.15,15.15,0,0,0-2.57,1.86l-8.38-2.22-2.41,4.16,6.12,6.16a14.76,14.76,0,0,0,0,6.3l-6.12,6.17,2.41,4.15,8.38-2.22a15.15,15.15,0,0,0,2.57,1.86,15,15,0,0,0,2.89,1.29l2.28,8.38h4.79l2.28-8.38a15.13,15.13,0,0,0,5.46-3.15l8.39,2.22,2.4-4.15Zm-9.79,5.57a10.05,10.05,0,1,1,5.05-8.72A10,10,0,0,1,230.26,337.62Z"/><path class="cls-22" d="M335.7,278.59a38.41,38.41,0,0,0,10.49-3.25,34.62,34.62,0,0,0,0-5.67,38.63,38.63,0,0,0-10.49-3.25,29.59,29.59,0,0,0-1.27-3.9,27.84,27.84,0,0,0-1.86-3.65,39.11,39.11,0,0,0,5.12-9.72,35.4,35.4,0,0,0-4-4,39.22,39.22,0,0,0-9.71,5.12,27.84,27.84,0,0,0-3.65-1.86,26.86,26.86,0,0,0-3.9-1.26,38.31,38.31,0,0,0-3.25-10.49,34.62,34.62,0,0,0-5.67,0,39,39,0,0,0-3.25,10.49,29.59,29.59,0,0,0-3.9,1.27,28.6,28.6,0,0,0-3.66,1.86,38.59,38.59,0,0,0-9.72-5.12,36.06,36.06,0,0,0-4,4,38.78,38.78,0,0,0,5.12,9.72,26.66,26.66,0,0,0-1.86,3.65,28.18,28.18,0,0,0-1.27,3.9,38.41,38.41,0,0,0-10.49,3.25,33.55,33.55,0,0,0,0,5.67A38.63,38.63,0,0,0,285,278.59a28.18,28.18,0,0,0,1.27,3.9,27.84,27.84,0,0,0,1.86,3.65,39.11,39.11,0,0,0-5.12,9.72,35.31,35.31,0,0,0,4,4,38.78,38.78,0,0,0,9.72-5.12,27.84,27.84,0,0,0,3.65,1.86,26.86,26.86,0,0,0,3.9,1.26,38.48,38.48,0,0,0,3.25,10.5,35.65,35.65,0,0,0,5.66,0,38.2,38.2,0,0,0,3.26-10.49,28.18,28.18,0,0,0,3.9-1.27,27.84,27.84,0,0,0,3.65-1.86,38.76,38.76,0,0,0,9.72,5.12,35.31,35.31,0,0,0,4-4,39.11,39.11,0,0,0-5.12-9.72,27.84,27.84,0,0,0,1.86-3.65A26.47,26.47,0,0,0,335.7,278.59Zm-18.89,9.54A16.91,16.91,0,1,1,326,279,16.9,16.9,0,0,1,316.81,288.13Z"/><path class="cls-12" d="M225.24,353.58a24.66,24.66,0,0,1-17.32-42.23l0-.05,1.17-1,78.1-67.8.06.08a37.85,37.85,0,1,1,41.64,63l0,.05-1.89,1-92.35,45.25,0-.06A24.33,24.33,0,0,1,225.24,353.58Z"/><path class="cls-27" d="M390.53,223.56a4,4,0,1,1-4-4A4,4,0,0,1,390.53,223.56Z"/><path class="cls-13" d="M207.71,297.36a1.9,1.9,0,0,1-1.71-1.07,66,66,0,0,1-3-7.22,1.9,1.9,0,1,1,3.59-1.24,58.57,58.57,0,0,0,2.81,6.8,1.9,1.9,0,0,1-1.71,2.73Zm-5.79-19.31a1.91,1.91,0,0,1-1.88-1.66,67.5,67.5,0,0,1-.54-7.79,1.9,1.9,0,0,1,3.8,0,64.18,64.18,0,0,0,.51,7.34,1.9,1.9,0,0,1-1.64,2.13Zm.62-20.15a1.47,1.47,0,0,1-.36,0,1.91,1.91,0,0,1-1.51-2.22,66.64,66.64,0,0,1,1.94-7.57,1.9,1.9,0,0,1,3.62,1.16,61.58,61.58,0,0,0-1.83,7.13A1.89,1.89,0,0,1,202.54,257.9Zm7-18.92a1.9,1.9,0,0,1-1.66-2.83,66.93,66.93,0,0,1,4.25-6.57,1.9,1.9,0,0,1,3.06,2.25,60.92,60.92,0,0,0-4,6.18A1.89,1.89,0,0,1,209.49,239Zm12.59-15.75a1.9,1.9,0,0,1-1.28-3.31,67.87,67.87,0,0,1,6.09-4.89,1.9,1.9,0,0,1,2.2,3.1,61.6,61.6,0,0,0-5.74,4.61A1.88,1.88,0,0,1,222.08,223.23Zm16.9-11a1.9,1.9,0,0,1-.77-3.64,63.92,63.92,0,0,1,7.34-2.71,1.9,1.9,0,0,1,1.09,3.63,62.24,62.24,0,0,0-6.9,2.56A1.85,1.85,0,0,1,239,212.25Zm45.19-2.13a2.08,2.08,0,0,1-.6-.09c-1.76-.59-3.57-1.1-5.39-1.52a1.9,1.9,0,0,1,.85-3.7c1.94.45,3.87,1,5.74,1.62a1.89,1.89,0,0,1-.6,3.69Zm-25.68-2.92a1.9,1.9,0,0,1-.17-3.79,67.93,67.93,0,0,1,7.81-.25A1.9,1.9,0,0,1,266,207a62.48,62.48,0,0,0-7.36.23Z"/><polygon class="cls-13" points="278.41 211.62 299.38 215.42 283.12 201.64 278.41 211.62"/><rect class="cls-28" x="384.19" y="240.12" width="4.59" height="35.87"/><path class="cls-28" d="M386.7,241.55a18,18,0,1,1,18-18A18,18,0,0,1,386.7,241.55Zm0-33.12a15.13,15.13,0,1,0,15.13,15.13A15.14,15.14,0,0,0,386.7,208.43Z"/><g class="cls-29"><path class="cls-28" d="M369.27,224.13a18,18,0,0,1,30.43-13,18,18,0,1,0-25.42,25.41A17.92,17.92,0,0,1,369.27,224.13Z"/></g><path class="cls-30" d="M389.36,276h-5.74a1.14,1.14,0,0,1-1.14-1.14v-26a1.14,1.14,0,0,1,1.15-1.15h5.73a1.14,1.14,0,0,1,1.15,1.15v26A1.14,1.14,0,0,1,389.36,276Z"/><rect class="cls-22" x="198.43" y="586.69" width="137.04" height="54.17" rx="6.37"/><circle class="cls-18" cx="226.03" cy="614.09" r="15.81"/><path class="cls-18" d="M318.42,606.53H257.13a1.52,1.52,0,0,1-1.51-1.52h0a1.52,1.52,0,0,1,1.51-1.52h61.29a1.52,1.52,0,0,1,1.51,1.52h0A1.52,1.52,0,0,1,318.42,606.53Z"/><path class="cls-18" d="M318.42,616.81H257.13a1.52,1.52,0,0,1-1.51-1.52h0a1.52,1.52,0,0,1,1.51-1.52h61.29a1.52,1.52,0,0,1,1.51,1.52h0A1.52,1.52,0,0,1,318.42,616.81Z"/><path class="cls-18" d="M303.18,627.09H257.13a1.52,1.52,0,0,1-1.51-1.52h0a1.52,1.52,0,0,1,1.51-1.52h46.05a1.52,1.52,0,0,1,1.51,1.52h0A1.52,1.52,0,0,1,303.18,627.09Z"/><rect class="cls-22" x="198.43" y="640.83" width="137.04" height="54.17" rx="6.37"/><path class="cls-18" d="M241.84,668.23A15.82,15.82,0,1,1,226,652.42,15.81,15.81,0,0,1,241.84,668.23Z"/><path class="cls-18" d="M318.42,660.67H257.13a1.52,1.52,0,0,1-1.51-1.51h0a1.52,1.52,0,0,1,1.51-1.52h61.29a1.52,1.52,0,0,1,1.51,1.52h0A1.52,1.52,0,0,1,318.42,660.67Z"/><path class="cls-18" d="M318.42,671H257.13a1.52,1.52,0,0,1-1.51-1.51h0a1.52,1.52,0,0,1,1.51-1.52h61.29a1.52,1.52,0,0,1,1.51,1.52h0A1.52,1.52,0,0,1,318.42,671Z"/><path class="cls-18" d="M303.18,681.23H257.13a1.52,1.52,0,0,1-1.51-1.52h0a1.52,1.52,0,0,1,1.51-1.51h46.05a1.52,1.52,0,0,1,1.51,1.51h0A1.52,1.52,0,0,1,303.18,681.23Z"/><rect class="cls-31" x="129.38" y="209.07" width="22.38" height="12.45" transform="translate(355.86 74.72) rotate(90)"/><rect class="cls-31" x="124.33" y="210.28" width="10.02" height="10.02" transform="translate(344.63 85.95) rotate(90)"/><rect class="cls-31" x="85.67" y="412.56" width="22.38" height="12.45" transform="translate(515.65 321.92) rotate(90)"/><rect class="cls-31" x="80.62" y="413.77" width="10.02" height="10.02" transform="translate(504.41 333.15) rotate(90)"/><path class="cls-12" d="M256.77,504.42H309.6a17.63,17.63,0,0,0,17.62-17.63V403.4"/><path class="cls-13" d="M232.08,519.52h47.4a11.22,11.22,0,1,0,0-22.43h-.27A22.94,22.94,0,0,0,236,490.49a14.78,14.78,0,1,0-3.9,29Z"/><path class="cls-18" d="M248,497.68h14.26a.65.65,0,0,1,.55,1l-7.14,11.87a.64.64,0,0,1-1.1,0l-7.12-11.88A.65.65,0,0,1,248,497.68Z"/><rect class="cls-18" x="253.41" y="493.36" width="3.37" height="12.22" rx="0.67"/><rect class="cls-31" x="316.03" y="401.54" width="22.38" height="12.45"/><rect class="cls-31" x="322.21" y="413.99" width="10.02" height="10.02"/><path class="cls-22" d="M103.06,380.41h0a2.81,2.81,0,0,1-2.81-2.8V365.4a2.8,2.8,0,0,1,2.79-2.81h0Z"/><path class="cls-22" d="M185.5,379.63h0a2.3,2.3,0,0,0,2.29-2.3l0-9.92a2.29,2.29,0,0,0-2.29-2.29h0Z"/><path class="cls-22" d="M103.09,400.63h0a2.8,2.8,0,0,1-2.81-2.79V385.63a2.79,2.79,0,0,1,2.79-2.81h0Z"/><path class="cls-9" d="M110.76,344.69a7.73,7.73,0,0,0-7.73,7.75l.18,132.38a7.65,7.65,0,0,0,7.66,7.64l67.14-.1a7.64,7.64,0,0,0,7.64-7.66l-.18-132.28a7.74,7.74,0,0,0-7.74-7.73Z"/><path class="cls-32" d="M144.3,448.2a29.63,29.63,0,0,1,0-59.25"/><circle class="cls-26" cx="144.38" cy="418.58" r="29.62"/><ellipse class="cls-26" cx="144.38" cy="418.58" rx="20.41" ry="29.62"/><ellipse class="cls-26" cx="144.38" cy="418.58" rx="8.49" ry="29.62"/><line class="cls-26" x1="114.76" y1="418.58" x2="174" y2="418.58"/><line class="cls-26" x1="119.47" y1="402.54" x2="169.13" y2="402.54"/><line class="cls-26" x1="119.47" y1="434.61" x2="169.13" y2="434.61"/><rect class="cls-22" x="423.54" y="286.49" width="70.62" height="62.42" rx="0.87"/><path class="cls-18" d="M434.54,296.71a.5.5,0,0,1-.37-.16l-4.9-4.89a.53.53,0,0,1,.75-.75l4.9,4.89a.54.54,0,0,1,0,.75A.52.52,0,0,1,434.54,296.71Z"/><path class="cls-18" d="M429.65,296.71a.54.54,0,0,1-.38-.91l4.9-4.89a.53.53,0,0,1,.75,0,.54.54,0,0,1,0,.75l-4.9,4.89A.5.5,0,0,1,429.65,296.71Z"/><path class="cls-18" d="M435.32,318.55l15.21-7.83V313l-12.82,6.42v.07l12.82,6.42v2.26l-15.21-7.83Z"/><path class="cls-18" d="M452.65,329.46l9.14-23.76H464l-9.17,23.76Z"/><path class="cls-18" d="M481.29,320.35l-15.21,7.8v-2.26L479,319.47v-.07L466.08,313v-2.26l15.21,7.8Z"/><path class="cls-33" d="M430.49,467.67q-14.73-16.8-16.67-19.27h-.1l7.19,19.27h-3.37L409,445.73h5.66L430.23,464h.11l-3.2-18.3h5.55l14.24,21.94h-3.27L430.82,448.4h-.11l3.05,19.27Z"/><line class="cls-9" x1="44.59" y1="695" x2="755.41" y2="695"/></g></g></svg>