<svg id="图层_1" data-name="图层 1" xmlns="http://www.w3.org/2000/svg" xmlns:xlink="http://www.w3.org/1999/xlink" viewBox="0 0 800 800"><defs><style>.cls-1,.cls-10,.cls-2{fill:none;}.cls-10,.cls-11,.cls-13,.cls-2,.cls-3,.cls-4,.cls-6{stroke:#000;stroke-width:1.5px;}.cls-11,.cls-2,.cls-3,.cls-4,.cls-6{stroke-miterlimit:10;}.cls-3{fill:#ffc609;}.cls-13,.cls-4,.cls-5{fill:#fff;}.cls-6,.cls-9{fill:#40adff;}.cls-7{fill:#b8ecff;}.cls-8{fill:#5576b5;}.cls-10,.cls-13{stroke-linecap:round;stroke-linejoin:round;}.cls-12{clip-path:url(#clip-path);}.cls-14{fill:#dbdbdb;}.cls-15{fill:#ff844d;}</style><clipPath id="clip-path"><path class="cls-1" d="M524.79,345.67H257.85a9.06,9.06,0,0,1-9.11-9.12V144.63a9.06,9.06,0,0,1,9.11-9.12H524.79a9.06,9.06,0,0,1,9.12,9.12V336.38A9.32,9.32,0,0,1,524.79,345.67Z"/></clipPath></defs><path class="cls-2" d="M555.47,227h20.15a26.25,26.25,0,0,1,26.29,26.29V512.88a26.26,26.26,0,0,1-26.29,26.29l-22.08.17"/><path class="cls-2" d="M612.6,500.08h53.46a9.43,9.43,0,0,1,9.47,9.47v6.83"/><rect class="cls-3" x="601.74" y="488.86" width="12.62" height="22.61"/><rect class="cls-3" x="614.36" y="495" width="10.17" height="10.17"/><rect class="cls-3" x="530.58" y="527.95" width="12.62" height="22.61"/><rect class="cls-3" x="543.2" y="534.26" width="10.17" height="10.17"/><rect class="cls-3" x="531.8" y="215.79" width="12.62" height="22.61"/><rect class="cls-3" x="544.25" y="221.92" width="10.17" height="10.17"/><path class="cls-2" d="M226.13,222.45H202.29A26.26,26.26,0,0,0,176,248.74V428.39a26.26,26.26,0,0,0,26.29,26.29l29.8.18"/><path class="cls-2" d="M157.25,340.23H137.09a26.26,26.26,0,0,0-26.29,26.29V518"/><rect class="cls-3" x="163.38" y="328.66" width="12.62" height="22.61"/><rect class="cls-3" x="153.22" y="334.97" width="10.17" height="10.17"/><rect class="cls-3" x="242.08" y="443.47" width="12.62" height="22.61"/><rect class="cls-3" x="232.09" y="449.6" width="10.17" height="10.17"/><rect class="cls-3" x="99.58" y="503.41" width="22.61" height="12.62"/><rect class="cls-3" x="105.72" y="493.24" width="10.17" height="10.17"/><rect class="cls-3" x="236.3" y="211.06" width="12.62" height="22.61"/><rect class="cls-3" x="226.13" y="217.37" width="10.17" height="10.17"/><path class="cls-4" d="M524.79,346.89H257.85a9,9,0,0,1-9.11-9.11V145.86a9.05,9.05,0,0,1,9.11-9.12H524.79a9.05,9.05,0,0,1,9.12,9.12V337.78A9.17,9.17,0,0,1,524.79,346.89Z"/><path class="cls-5" d="M402.1,329.37a10.87,10.87,0,1,1-10.86-10.87A10.92,10.92,0,0,1,402.1,329.37Z"/><path class="cls-6" d="M517.78,664.49H267.67a12.94,12.94,0,0,1-13-13V423.31a12.94,12.94,0,0,1,13-13H517.78a12.94,12.94,0,0,1,13,13V651.52A13.05,13.05,0,0,1,517.78,664.49Z"/><path class="cls-7" d="M471.34,440.31H281.87a4,4,0,0,1-4-4h0a4,4,0,0,1,4-4H471.34a4,4,0,0,1,4,4h0A4.08,4.08,0,0,1,471.34,440.31Z"/><path class="cls-7" d="M471.34,462.05H281.87a4,4,0,0,1-4-4h0a4,4,0,0,1,4-4H471.34a4,4,0,0,1,4,4h0A4.08,4.08,0,0,1,471.34,462.05Z"/><path class="cls-7" d="M471.34,483.78H281.87a4,4,0,0,1-4-4h0a4,4,0,0,1,4-4H471.34a4,4,0,0,1,4,4h0A4.08,4.08,0,0,1,471.34,483.78Z"/><path class="cls-7" d="M471.34,505.51H281.87a4,4,0,0,1-4-4h0a4,4,0,0,1,4-4H471.34a4,4,0,0,1,4,4h0A4.08,4.08,0,0,1,471.34,505.51Z"/><path class="cls-7" d="M471.34,527.25H281.87a4,4,0,0,1-4-4h0a4,4,0,0,1,4-4H471.34a4,4,0,0,1,4,4h0A4.08,4.08,0,0,1,471.34,527.25Z"/><path class="cls-7" d="M471.34,548.81H281.87a4,4,0,0,1-4-4h0a4,4,0,0,1,4-4H471.34a4,4,0,0,1,4,4h0A4,4,0,0,1,471.34,548.81Z"/><path class="cls-7" d="M503.76,432.07h0a3.89,3.89,0,0,0-3.85,3.86v.35a3.89,3.89,0,0,0,3.85,3.86h0a3.9,3.9,0,0,0,3.86-3.86v-.35A3.9,3.9,0,0,0,503.76,432.07Z"/><path class="cls-7" d="M503.76,453.81h0a3.88,3.88,0,0,0-3.85,3.85V458a3.88,3.88,0,0,0,3.85,3.85h0a3.89,3.89,0,0,0,3.86-3.85v-.36A3.89,3.89,0,0,0,503.76,453.81Z"/><path class="cls-7" d="M503.76,475.54h0a3.89,3.89,0,0,0-3.85,3.86v.35a3.88,3.88,0,0,0,3.85,3.85h0a3.89,3.89,0,0,0,3.86-3.85v-.35A3.9,3.9,0,0,0,503.76,475.54Z"/><path class="cls-7" d="M503.76,497.28h0a3.88,3.88,0,0,0-3.85,3.85v.35a3.89,3.89,0,0,0,3.85,3.86h0a3.89,3.89,0,0,0,3.86-3.86v-.35A3.89,3.89,0,0,0,503.76,497.28Z"/><path class="cls-7" d="M503.76,519h0a3.89,3.89,0,0,0-3.85,3.86v.35a3.88,3.88,0,0,0,3.85,3.85h0a3.89,3.89,0,0,0,3.86-3.85v-.35A3.89,3.89,0,0,0,503.76,519Z"/><path class="cls-7" d="M503.76,540.74h0a3.89,3.89,0,0,0-3.85,3.86V545a3.89,3.89,0,0,0,3.85,3.86h0a3.9,3.9,0,0,0,3.86-3.86v-.35A3.9,3.9,0,0,0,503.76,540.74Z"/><path class="cls-4" d="M494.47,649.24H290.81a13.13,13.13,0,0,1-13.15-13.15V584a13.13,13.13,0,0,1,13.15-13.15H494.47A13.13,13.13,0,0,1,507.62,584v52.05A13.13,13.13,0,0,1,494.47,649.24Z"/><path class="cls-8" d="M138,520.94H83.81a5.91,5.91,0,0,1,6-6H132a6,6,0,0,1,6,6Z"/><path class="cls-9" d="M631.88,550.91h0a2.77,2.77,0,0,1-2.8-2.81V535.84a2.77,2.77,0,0,1,2.8-2.81h0Z"/><path class="cls-9" d="M715.14,550.21h0a2.32,2.32,0,0,0,2.28-2.28v-10a2.32,2.32,0,0,0-2.28-2.28h0Z"/><path class="cls-9" d="M632.06,571.42h0a2.77,2.77,0,0,1-2.8-2.81V556.34a2.76,2.76,0,0,1,2.8-2.8h0Z"/><path class="cls-2" d="M639.77,515a7.86,7.86,0,0,0-7.89,7.89l.18,133.55a7.77,7.77,0,0,0,7.71,7.71L707.6,664a7.78,7.78,0,0,0,7.71-7.71l-.17-133.56a7.86,7.86,0,0,0-7.89-7.89H639.77Z"/><line class="cls-10" x1="47.35" y1="559.67" x2="126.93" y2="559.67"/><line class="cls-10" x1="82.06" y1="586.31" x2="161.45" y2="586.31"/><line class="cls-10" x1="87.14" y1="595.78" x2="166.54" y2="595.78"/><path class="cls-2" d="M154.62,526.2v133a5.27,5.27,0,0,1-5.26,5.26H72.24a4.79,4.79,0,0,1-3.68-1.58A5.46,5.46,0,0,1,67,659.23v-133a5.28,5.28,0,0,1,5.26-5.26h77.12a4.93,4.93,0,0,1,2.81.87A5.18,5.18,0,0,1,154.62,526.2Z"/><rect class="cls-11" x="564.76" y="160.4" width="156.69" height="7.54"/><rect class="cls-4" x="595.95" y="183.71" width="156.69" height="7.54"/><g class="cls-12"><path class="cls-13" d="M425.41,216s7-.7,8.94,3.86,0,13.15-8.94,13.5Z"/><path class="cls-13" d="M431.55,223s-4.73.7-6.14,3.5"/><path class="cls-9" d="M460.12,299.92c-10.34-11.57-53.81-26.47-53.81-26.47l-30,.53-.18.88v-1.41s-43.46,14.9-53.81,26.47-51.17,65-51.17,65l38,32.6,11.57-17.18,1.05,55.56H460.64l1.06-55.56,11.56,17.18,38-32.6S470.46,311.66,460.12,299.92Z"/><line class="cls-10" x1="461.87" y1="377.39" x2="461.87" y2="347.77"/><path class="cls-5" d="M390.71,293.08a16.34,16.34,0,0,1-16.12-16.3V261.89a1.49,1.49,0,0,1,1.22-1.41l30.32-.17a1.2,1.2,0,0,1,1.23,1.23v15.07a16.34,16.34,0,0,1-16.12,16.3l-.53.17Z"/><path d="M406.31,261.71h0m0,0v15.07a14.85,14.85,0,0,1-14.72,14.9h-.7a15,15,0,0,1-14.73-15.07v-14.9h30.15m0-2.63h0l-30.32.18a2.69,2.69,0,0,0-2.63,2.63v14.89a17.7,17.7,0,0,0,17.35,17.71h.7A17.78,17.78,0,0,0,408.76,277V261.89a2.49,2.49,0,0,0-2.45-2.81Zm0,5.26Z"/><path class="cls-14" d="M405.78,264.51s-17.35,7.72-30,8.24v-9.46Z"/><path class="cls-13" d="M390.89,170.92h0a35.42,35.42,0,0,0-35.41,35.4v8.42s-8.06-.88-10.34,4.38,0,15.25,10.34,15.6v-2.81a35.42,35.42,0,0,0,35.41,35.41h0a35.42,35.42,0,0,0,35.4-35.41V206.32A35.41,35.41,0,0,0,390.89,170.92Z"/><path class="cls-13" d="M389.48,250.84s-4.2-.52-6.48-3.15"/><path class="cls-13" d="M348.47,222.62s5.43.71,7,4"/><polygon class="cls-14" points="394.04 240.68 398.07 240.68 397.02 223.15 401.75 240.68 394.04 240.68"/><polyline class="cls-10" points="397.02 223.15 398.07 240.68 394.04 240.68"/><line class="cls-10" x1="322.88" y1="377.39" x2="342.16" y2="347.77"/><path d="M357.41,203.87s-7.19-13.5-3.33-20.68,2.1-8.77,7.36-17.18c5.26-8.59,10.34-1.23,21.73-4.91S399.47,141,413.32,145c13.85,4.21,5.61,18.93,5.61,18.93s2.8-6.14,11.22-1.93-1,14-1,14,5.43,7.36,4.73,12.8c-.7,5.61-7,17.35-7,17.35Z"/><path d="M362.14,204.05a16.48,16.48,0,0,0,0-4.21c-.35-2.1-.52-6,2.1-8.76,3.86-3.86,7-2.11,10.52-6s18.58-6,27-3.86,12.1,5.61,15.95,6.31,3.51,6.49,4.21,7.71.35,12.1,2.28,13.15c1.93.87,4.91-10.69,2.45-18.93s-23.13-21.91-48.37-13.67-21.91,17.17-20.69,20.5,1.41,9.64,3,10.17C361.44,207,362,205.62,362.14,204.05Z"/><path class="cls-9" d="M355.31,201.24a9.73,9.73,0,0,1,5.6-7.18c4.91-2.46,14.9-4.91,31.38-4.56,25.76.7,32.95,3.5,36.1,7,4.56,4.73,3,27.17-5.6,29.44-5.44,1.58-31.9-3-49.43,0C358.29,228.76,353.2,212.28,355.31,201.24Z"/><path class="cls-15" d="M361.79,199.31a8.32,8.32,0,0,1,4.56-6c4-2.1,12.27-4,25.76-3.68,21.21.53,27,3,29.8,5.79,3.68,3.85,2.45,22.43-4.56,24.36-4.56,1.23-26.29-2.45-40.66,0C364.42,221.92,360,208.43,361.79,199.31Z"/><path d="M356.36,198.26s-5.61,3.16-4.21,7.36,2.81,3.51,2.81,3.51S354.78,201.42,356.36,198.26Z"/><path d="M429.27,198.26s5.61,3.16,4.21,7.36-2.81,3.51-2.81,3.51S430.85,201.42,429.27,198.26Z"/></g><path class="cls-15" d="M673.6,619.44a30,30,0,0,1,0-59.94"/><circle class="cls-10" cx="673.6" cy="589.47" r="29.97"/><ellipse class="cls-10" cx="673.6" cy="589.47" rx="20.68" ry="29.97"/><ellipse class="cls-10" cx="673.6" cy="589.47" rx="8.59" ry="29.97"/><line class="cls-10" x1="643.8" y1="589.47" x2="703.57" y2="589.47"/><line class="cls-10" x1="648.54" y1="573.34" x2="698.66" y2="573.34"/><line class="cls-10" x1="648.54" y1="605.77" x2="698.66" y2="605.77"/><circle class="cls-4" cx="109.4" cy="217.37" r="59.07"/><path d="M382,626.8a1.35,1.35,0,0,1-.7-.17l-10.7-6.14a1.43,1.43,0,0,1-.7-1V607a1,1,0,0,1,.7-1.06l10.7-6.13a1.52,1.52,0,0,1,1.22,0l10.69,6.13a1.48,1.48,0,0,1,.71,1.06v12.44a1,1,0,0,1-.71,1l-10.69,6.14A.64.64,0,0,1,382,626.8Zm-9.47-8.06,9.47,5.43,9.46-5.43V607.87L382,602.44l-9.47,5.43Z"/><path d="M360,626.8a1.35,1.35,0,0,1-.7-.17l-10.69-6.14a1.42,1.42,0,0,1-.71-1V607a1,1,0,0,1,.71-1.06l10.69-6.13a1.52,1.52,0,0,1,1.22,0l10.7,6.13A1.47,1.47,0,0,1,372,607v12.44a1,1,0,0,1-.7,1l-10.7,6.14C360.56,626.8,360.21,626.8,360,626.8Zm-9.47-8.06,9.47,5.43,9.46-5.43V607.87L360,602.44l-9.47,5.43Z"/><path d="M360,639.07a1.2,1.2,0,0,1-1.23-1.23V625.58a1.23,1.23,0,1,1,2.45,0v12.09A1.35,1.35,0,0,1,360,639.07Z"/><path d="M338.83,626.8a1.08,1.08,0,0,1-1.05-.7,1.25,1.25,0,0,1,.52-1.75l10.52-6.14a1.3,1.3,0,0,1,1.23,2.28l-10.52,6.14A1.06,1.06,0,0,1,338.83,626.8Z"/><path d="M392.64,608.22a1.08,1.08,0,0,1-1.05-.7,1.25,1.25,0,0,1,.52-1.75l10.52-6.14a1.3,1.3,0,0,1,1.23,2.28l-10.52,6.14A1.36,1.36,0,0,1,392.64,608.22Z"/><path d="M370.73,608.4a1.28,1.28,0,0,1-.7-.18l-10.69-6.13a1.45,1.45,0,0,1-.7-1.05V588.59a1,1,0,0,1,.7-1.05L370,581.41a1.47,1.47,0,0,1,1.23,0L382,587.54a1.45,1.45,0,0,1,.7,1.05V601a1,1,0,0,1-.7,1.05l-10.69,6.13A1.83,1.83,0,0,1,370.73,608.4Zm-9.47-8.24,9.47,5.43,9.46-5.43V589.29l-9.46-5.43-9.47,5.43Z"/><path d="M435.93,617.51a1.36,1.36,0,0,1-.7-.17l-10.69-6.14a1.43,1.43,0,0,1-.7-1.05V597.71a1,1,0,0,1,.7-1.05l10.69-6.14a1.55,1.55,0,0,1,1.23,0l10.69,6.14a1.43,1.43,0,0,1,.7,1.05v12.44a1,1,0,0,1-.7,1.05l-10.69,6.14A.67.67,0,0,1,435.93,617.51Zm-9.46-8.06,9.46,5.43,9.47-5.43V598.58l-9.47-5.43-9.46,5.43Z"/></svg>