<svg id="图层_1" data-name="图层 1" xmlns="http://www.w3.org/2000/svg" xmlns:xlink="http://www.w3.org/1999/xlink" viewBox="0 0 800 800"><defs><style>.cls-1,.cls-10,.cls-12,.cls-2{fill:none;}.cls-10,.cls-16,.cls-17,.cls-19,.cls-2,.cls-20,.cls-21,.cls-23,.cls-3,.cls-4,.cls-5,.cls-7{stroke:#000;}.cls-12,.cls-17,.cls-19,.cls-2,.cls-20,.cls-21,.cls-23,.cls-3,.cls-4{stroke-miterlimit:10;}.cls-10,.cls-19,.cls-2,.cls-20,.cls-21,.cls-23,.cls-3,.cls-4,.cls-7{stroke-width:1.5px;}.cls-22,.cls-3{fill:#ffc609;}.cls-11,.cls-16,.cls-20,.cls-23,.cls-4,.cls-5,.cls-7{fill:#fff;}.cls-10,.cls-5,.cls-7{stroke-linecap:round;stroke-linejoin:round;}.cls-5{stroke-width:1.5px;}.cls-6{fill:#c1c1c1;}.cls-8{fill:#5576b5;}.cls-9{fill:#f2f2f2;}.cls-12{stroke:#fff;}.cls-13{fill:#b8ecff;}.cls-14{clip-path:url(#clip-path);}.cls-15,.cls-19{fill:#40adff;}.cls-16{stroke-miterlimit:10;stroke-width:1.5px;}.cls-18{fill:#dbdbdb;}.cls-20{opacity:0.8;isolation:isolate;}.cls-21{fill:#ff844d;}.cls-23{fill-rule:evenodd;}.cls-24{fill:#ffc607;}</style><clipPath id="clip-path"><rect class="cls-1" x="315.69" y="151.99" width="246.5" height="181.65" rx="7.88"/></clipPath></defs><path class="cls-2" d="M581.88,244.86h32.27c12.58,0,22.73,11.06,22.73,24.85V515.14c0,13.64-10.15,24.85-22.73,24.85L426,540.14"/><rect class="cls-3" x="562.19" y="235.16" width="10.91" height="19.54"/><rect class="cls-3" x="573.09" y="240.47" width="8.79" height="8.79"/><path class="cls-2" d="M299.18,240.47H259.79c-12.58,0-22.73,11.06-22.73,24.84V435.15c0,13.63,10.15,24.85,22.73,24.85l25.75.15"/><rect class="cls-3" x="304.78" y="231.07" width="10.91" height="19.54"/><rect class="cls-3" x="296.15" y="236.53" width="8.79" height="8.79"/><path class="cls-4" d="M549.61,334.85H328.42a12.8,12.8,0,0,1-12.73-12.72V165.78a12.81,12.81,0,0,1,12.73-12.73H549.61a12.81,12.81,0,0,1,12.73,12.73V322.13A12.9,12.9,0,0,1,549.61,334.85Z"/><rect class="cls-3" x="227.36" y="426.82" width="19.54" height="10.91"/><rect class="cls-3" x="232.82" y="417.88" width="8.79" height="8.79"/><rect class="cls-3" x="444.01" y="530.29" width="10.91" height="19.54"/><rect class="cls-3" x="454.92" y="535.6" width="8.79" height="8.79"/><ellipse class="cls-5" cx="107.83" cy="452.63" rx="12.88" ry="9.85" transform="translate(-345.21 558.76) rotate(-89.78)"/><ellipse class="cls-5" cx="191.97" cy="452.89" rx="12.88" ry="9.85" transform="translate(-261.63 643.15) rotate(-89.78)"/><rect class="cls-6" x="147.57" y="473.85" width="6.97" height="25.91" transform="translate(-336.31 636.02) rotate(-89.78)"/><path class="cls-7" d="M178.58,483.63,121,483.48a15.68,15.68,0,0,1-15.76-15.91l.15-29.24a15.69,15.69,0,0,1,15.91-15.76l57.57.16a15.68,15.68,0,0,1,15.76,15.9l-.15,29.24A15.78,15.78,0,0,1,178.58,483.63Z"/><path class="cls-8" d="M175.7,471.81l-51.81-.15a8.17,8.17,0,0,1-8.18-8.33l.15-20.91a8.18,8.18,0,0,1,8.33-8.18l51.82.15a8.18,8.18,0,0,1,8.18,8.33L184,463.63A8.27,8.27,0,0,1,175.7,471.81Z"/><rect class="cls-6" x="144.54" y="410.97" width="13.64" height="4.39" transform="translate(-262.38 562.97) rotate(-89.78)"/><path class="cls-7" d="M158.43,417.88H143.89A4.07,4.07,0,0,0,139.8,422v.45l22.72.15v-.45A4.31,4.31,0,0,0,158.43,417.88Z"/><circle class="cls-3" cx="151.31" cy="404.09" r="7.12"/><path class="cls-7" d="M187.37,578.32l-76.06-.3a13.68,13.68,0,0,1-13.78-13.94l.15-60a13.67,13.67,0,0,1,13.94-13.78l76,.3a13.68,13.68,0,0,1,13.79,13.94l-.15,60A13.69,13.69,0,0,1,187.37,578.32Z"/><path class="cls-8" d="M182.67,541.2l-66.51-.3a11.38,11.38,0,0,1-11.36-11.52l.15-20.75a11.38,11.38,0,0,1,11.51-11.37l66.51.31a11.38,11.38,0,0,1,11.37,11.51l-.15,20.76A11.48,11.48,0,0,1,182.67,541.2Z"/><path class="cls-9" d="M189.64,572.41l-80.6-.3a4.4,4.4,0,0,1-4.39-4.4V558a4.4,4.4,0,0,1,4.39-4.4l80.6.31a4.4,4.4,0,0,1,4.39,4.39V568A4.4,4.4,0,0,1,189.64,572.41Z"/><path class="cls-7" d="M202.06,498.78h-.6v18h.6a4.43,4.43,0,0,0,4.4-4.55v-9.09A4.3,4.3,0,0,0,202.06,498.78Z"/><path class="cls-7" d="M206.61,511.66s39.69-.76,39.54-51.82h-8.48s2.27,38.64-31.06,43.79Z"/><line class="cls-10" x1="213.43" y1="501.96" x2="215.4" y2="510.14"/><line class="cls-10" x1="221.15" y1="498.33" x2="225.7" y2="505.45"/><line class="cls-10" x1="227.21" y1="492.87" x2="233.88" y2="498.63"/><line class="cls-10" x1="232.06" y1="485.75" x2="239.79" y2="489.84"/><line class="cls-10" x1="235.24" y1="477.72" x2="243.88" y2="479.24"/><line class="cls-10" x1="237.06" y1="468.93" x2="245.7" y2="468.93"/><path class="cls-3" d="M239.64,476.05h1.51a6.08,6.08,0,0,0,6.06-6.06V459.84H233.42V470A6.1,6.1,0,0,0,239.64,476.05Z"/><path class="cls-8" d="M242.36,465.9v-3.18a9.66,9.66,0,0,0,6.52-9.09,9.51,9.51,0,0,0-6.52-9.09v-3.18a12.64,12.64,0,0,1,9.7,12.27A12.91,12.91,0,0,1,242.36,465.9Z"/><path class="cls-8" d="M238.58,465.9v-3.18a9.6,9.6,0,0,1,0-18.18v-3.18A12.72,12.72,0,0,0,229,453.78,12.22,12.22,0,0,0,238.58,465.9Z"/><circle class="cls-7" cx="240.24" cy="459.24" r="6.82"/><circle class="cls-8" cx="240.24" cy="459.24" r="3.64"/><path class="cls-7" d="M97.07,498.78h.61v18h-.61a4.53,4.53,0,0,1-4.54-4.39v-9.09A4.77,4.77,0,0,1,97.07,498.78Z"/><path class="cls-7" d="M92.68,511.81s-39.7-.46-40-51.51h8.49s-2,38.63,31.36,43.63Z"/><line class="cls-10" x1="85.71" y1="502.26" x2="83.89" y2="510.29"/><line class="cls-10" x1="78.13" y1="498.48" x2="73.59" y2="505.75"/><line class="cls-10" x1="71.92" y1="493.17" x2="65.41" y2="498.93"/><line class="cls-10" x1="67.07" y1="486.05" x2="59.35" y2="490.3"/><line class="cls-10" x1="63.74" y1="478.02" x2="55.11" y2="479.69"/><line class="cls-10" x1="61.92" y1="469.39" x2="53.29" y2="469.39"/><path class="cls-3" d="M59.35,476.51H57.83a6.08,6.08,0,0,1-6.06-6.06V460.3H65.56v10.15A6.12,6.12,0,0,1,59.35,476.51Z"/><path class="cls-8" d="M56.62,466.21V463a9.61,9.61,0,0,1,0-18.19v-3.18a12.74,12.74,0,0,0-9.54,12.43A12.19,12.19,0,0,0,56.62,466.21Z"/><path class="cls-8" d="M60.41,466.21V463a9.66,9.66,0,0,0,6.51-9.09,9.52,9.52,0,0,0-6.51-9.1v-3.18a12.62,12.62,0,0,1,0,24.55Z"/><circle class="cls-7" cx="58.59" cy="459.69" r="6.82"/><circle class="cls-8" cx="58.59" cy="459.69" r="3.64"/><path class="cls-11" d="M108.28,550a2.39,2.39,0,0,1-2.42-2.43v-.3a2.39,2.39,0,0,1,2.42-2.42l82.42.3a2.6,2.6,0,0,1,2.42,2.42v.31a2.39,2.39,0,0,1-2.42,2.42Z"/><path d="M108.28,545.9h0l82.27.3a1.19,1.19,0,0,1,1.21,1.21v.31a1.2,1.2,0,0,1-1.21,1.21h0l-82.27-.31a1.19,1.19,0,0,1-1.21-1.21v-.3a1.19,1.19,0,0,1,1.21-1.21m0-2.28a3.43,3.43,0,0,0-3.48,3.49v.3a3.43,3.43,0,0,0,3.48,3.49l82.27.3a3.43,3.43,0,0,0,3.48-3.48v-.31a3.62,3.62,0,0,0-3.48-3.63l-82.27-.16Z"/><rect class="cls-5" x="86.06" y="601.11" width="68.33" height="22.42" transform="translate(-492.54 730.24) rotate(-89.78)"/><path class="cls-3" d="M134.34,647.25a14.39,14.39,0,0,0-28.78,0"/><path class="cls-8" d="M129.8,610.44H110.56a4.72,4.72,0,0,1-4.7-4.7v-1.21a4.72,4.72,0,0,1,4.7-4.7H129.8a4.72,4.72,0,0,1,4.69,4.7v1.21A4.72,4.72,0,0,1,129.8,610.44Z"/><rect class="cls-5" x="142.57" y="601.41" width="68.33" height="22.42" transform="translate(-436.55 787.05) rotate(-89.78)"/><path class="cls-3" d="M191,647.4a14.39,14.39,0,1,0-28.78,0"/><path class="cls-8" d="M186.31,610.59H167.07a4.72,4.72,0,0,1-4.7-4.7v-1.21a4.72,4.72,0,0,1,4.7-4.7h19.24a4.72,4.72,0,0,1,4.69,4.7v1.21A4.72,4.72,0,0,1,186.31,610.59Z"/><line class="cls-12" x1="155.7" y1="464.69" x2="144.04" y2="464.69"/><circle class="cls-13" cx="130.4" cy="451.97" r="3.33"/><circle class="cls-13" cx="168.43" cy="451.97" r="3.33"/><g class="cls-14"><path class="cls-15" d="M395.53,391.36c-5-.75-26.21-2.72-31.81-8.18a16.8,16.8,0,0,1-4.85-14.84V368c1.36-7.42,8.33-73.63,16.66-83.48,8.19-9.69,60-30.3,80-25,20,8.78,41.81,17.57,49.08,24.54,6.67,6.21,22.12,52.57,29.55,82.27,1.36,5.3,2.12,12-1.67,15.75-4.54,4.55-45.3,15.76-45.3,15.76L462,404.24C462,404.09,404.17,392.58,395.53,391.36Z"/><path class="cls-4" d="M457,248l-2.72,18.79a.53.53,0,0,1-.16.45v.15a13.55,13.55,0,0,1-14.24,11.22h-.6A13.37,13.37,0,0,1,427.2,264l.15-.91.45-4.85,1.37-15.3Z"/><circle class="cls-16" cx="466.63" cy="233.93" r="10.15" transform="translate(60.97 562.43) rotate(-65.63)"/><path class="cls-10" d="M461.13,230.77A18.37,18.37,0,0,0,471.44,235"/><path class="cls-4" d="M437.35,264.1h0A27,27,0,0,0,467,239l1.52-23.18a22.2,22.2,0,0,0-22.42-23.94h0c-13.64-1.36-28,8.34-29.4,22l-1.21,25A24.3,24.3,0,0,0,437.35,264.1Z"/><path class="cls-10" d="M435.53,248.65a18.37,18.37,0,0,0,10.3,4.24"/><path class="cls-17" d="M415.68,223.5c-.15-3,1.37-5.91,2.43-8.64,1.06-2.88,1.66-6.21,0-8.78a38.93,38.93,0,0,0,20,7.12,13.11,13.11,0,0,0,5.45-.46A5.37,5.37,0,0,0,447,208.8c6.67.91,13.34,1.67,20,.76,5.61-.76,14.4-2.12,17.27-7.88,4.25-8.33-6.66-17.12-13-20-15.6-7.12-36.51-8.33-50.45,2.88a50.54,50.54,0,0,1-4.54,3.49c-3,2-10.61,3-12.58,6.21-3.78,6.06,3.64,31.06,3.64,31.06Z"/><path class="cls-17" d="M463.56,200.77a2.62,2.62,0,0,0-.15,1.06,27.79,27.79,0,0,0,1.06,9.4,40.31,40.31,0,0,1,1.06,4.09c.45,3.33.45,6.51,3,9.24,0,0,4.69-16.51,2.88-28.18-.16-1.36-.61-4.85-2.73-4.09-1.52.45-2.58,3-3.18,4.39A20.27,20.27,0,0,0,463.56,200.77Z"/><path class="cls-4" d="M402.8,230.17a10.12,10.12,0,1,0,11.06-9.09A10.37,10.37,0,0,0,402.8,230.17Z"/><path class="cls-7" d="M416.14,234.56s.75-7.27-6.37-6.82"/><line class="cls-10" x1="493.1" y1="321.37" x2="493.1" y2="363.64"/><line class="cls-10" x1="393.41" y1="321.37" x2="393.41" y2="363.64"/><polygon class="cls-18" points="441.29 242.44 444.92 242.59 444.47 226.53 448.26 242.59 441.29 242.44"/><polyline class="cls-10" points="444.47 226.53 444.92 242.59 441.29 242.44"/></g><path class="cls-19" d="M429.32,628.16H179.49a14.61,14.61,0,0,1-14.7-14.69V452.27a14.62,14.62,0,0,1,14.7-14.7H429.32A14.61,14.61,0,0,1,444,452.27v161.2A14.61,14.61,0,0,1,429.32,628.16Z"/><rect class="cls-20" x="179.04" y="451.66" width="250.74" height="162.26"/><path class="cls-4" d="M451.44,647.4H157.37a9.67,9.67,0,0,1-9.7-9.69h0a9.68,9.68,0,0,1,9.7-9.7H451.44a9.66,9.66,0,0,1,9.69,9.7h0A9.66,9.66,0,0,1,451.44,647.4Z"/><line class="cls-2" x1="248.57" y1="477.57" x2="226.15" y2="588.02"/><line class="cls-2" x1="360.23" y1="477.57" x2="226.15" y2="588.02"/><line class="cls-2" x1="360.23" y1="477.57" x2="382.81" y2="588.02"/><line class="cls-2" x1="248.57" y1="477.57" x2="382.81" y2="588.02"/><line class="cls-2" x1="360.23" y1="477.72" x2="304.48" y2="588.02"/><line class="cls-2" x1="304.48" y1="588.02" x2="248.57" y2="477.72"/><rect class="cls-21" x="240.09" y="469.39" width="16.82" height="16.82"/><rect class="cls-21" x="217.67" y="579.53" width="16.82" height="16.82"/><rect class="cls-21" x="296" y="579.53" width="16.82" height="16.82"/><rect class="cls-21" x="374.32" y="579.53" width="16.82" height="16.82"/><rect class="cls-21" x="351.9" y="469.39" width="16.82" height="16.82"/><path class="cls-22" d="M659.3,501.51s-15,1.82-36.66,4.24c-15,1.82-20.31,2.42-38.94,4.54L555.82,515c-13.48,2.88-24.09,14.24-24.84,28a21.71,21.71,0,0,0,.3,5.45l20.15,98.18,105.45.6Z"/><path class="cls-22" d="M621.73,505.29l-14.85,1.52-19.09,2.58-18.63,3.33s9.54,15.6,40.9,10.75C631.73,520.29,621.73,505.29,621.73,505.29Z"/><path class="cls-22" d="M621.12,505.6,711,464.09l8.79,8.63c7.27,7.12,8.94,20.3,3.79,28.94-2.28,3.79-5.16,6.36-9.85,9.54l-63.94,38.18Z"/><path class="cls-22" d="M478.71,643.92a21.31,21.31,0,0,1-10.3-32l44.08-67.57c11.67-19.84,41.36-33.48,54.54-28.18l-3.48,13.94C572,537,576,542.26,569.91,551.35l-62.26,84.54c-5.31,8-19.85,11.36-28.94,8Z"/><line class="cls-1" x1="540.07" y1="591.95" x2="555.07" y2="573.32"/><line class="cls-10" x1="537.19" y1="579.23" x2="548.25" y2="626.04"/><path class="cls-7" d="M596.88,621.8v1.82l.76,23s12.27.15,22.72-.91c6.52-.61,12.27-1.67,14.24-3.18,4.85-4.4.16-8,.16-8,6.66-5.46-.46-9.7-.46-9.7s3.33-7.12-2.27-9.54c-2.88-1.22-7.73-1.22-14.09,0a24.4,24.4,0,0,0-3.18.75h0c-3.49.91-7.43,2.12-11.67,3.64A37.13,37.13,0,0,0,596.88,621.8Z"/><path class="cls-2" d="M629,624.38s1.36-.46,5.3.15"/><path class="cls-2" d="M630.36,634.38h4.4"/><path class="cls-22" d="M485.22,647a20.3,20.3,0,0,1-20.3-20.3V626a20.3,20.3,0,0,1,20.3-20.3H601.58a3.36,3.36,0,0,1,3.33,3.33v34.4a3.36,3.36,0,0,1-3.33,3.33H485.22Z"/><path d="M601.58,607a2.12,2.12,0,0,1,2.12,2.28v34.39a2.2,2.2,0,0,1-2.12,2.27H485.22a19.11,19.11,0,0,1-19.09-19.09v-.61a19.11,19.11,0,0,1,19.09-19.09H601.58m0-2.42H485.22A21.34,21.34,0,0,0,463.86,626v.61A21.34,21.34,0,0,0,485.22,648H601.58a4.43,4.43,0,0,0,4.39-4.54v-34.4a4.4,4.4,0,0,0-4.39-4.39Z"/><path class="cls-4" d="M610.67,481.51l.6,21.51v.61a15.56,15.56,0,0,1-13.78,15.45h-.76a15.27,15.27,0,0,1-16.52-13.94l-.15-1.06-.45-5.45-1.52-17.58Z"/><path d="M572.49,410c-.61,1.21-24.7,3.94-29.85,17.88-6.36,17.72,10,40.14,30.76,51.51Z"/><path d="M559.61,413.94s4.24-20.15,21.51-21.52c8-.6,12.58,5,23,3.49,10.15-1.36,18.33,2.12,18,10.76-.3,9.39-8.94,11.81-24.09,14.09Z"/><path class="cls-4" d="M611,454.39A11,11,0,0,0,622.33,465c5.91-.3,11.67-5.75,11.21-11.81a11,11,0,0,0-11.36-10.61C616.42,442.88,610.67,448.33,611,454.39Z"/><path class="cls-18" d="M610.06,502.11S589,499.54,583.7,483c-2.42-7.57,25.76-1.21,25.76-1.21Z"/><path class="cls-4" d="M602,492.57h0c15-1.82,25.91-15.61,24.85-28.48l-2.58-26.67c-1.51-16.06-14.85-28-30.45-27.12h0c-15.91.91-35.15,15.61-34.24,32l6.51,20.15C568.25,481.21,583.85,493.63,602,492.57Z"/><path d="M572.49,462.72l2.27-7.72c2-7.43-2.58-12.73-4.24-15.31a12.11,12.11,0,0,1,2.57-14.39c7.43-7,22.12-11.51,37.43-7.27a17.42,17.42,0,0,1,10.3,7.88,16.21,16.21,0,0,1,2.12,5.45l-.46-3.94c-2-15.15-15.75-24.54-30.75-22.42-5.3.76-11.36.91-17.88,2.88-16.51,5-27.72,22.27-20.75,38l6.51,10.45Z"/><path class="cls-4" d="M550.07,463.93c.3,6.06,6.51,10.61,12.42,10.31a10.76,10.76,0,0,0,10-11.52c-.3-6.06-7.73-10.45-13.64-10.15C553.1,452.87,549.76,457.87,550.07,463.93Z"/><path class="cls-4" d="M565.82,466.81s-2.27-8.33-10.15-6.06"/><path class="cls-10" d="M607.64,449.09l4.54,10.3a1.59,1.59,0,0,1-.3,2.12l-2.43,1.67"/><path class="cls-10" d="M597.49,469.69s4.39,6.06,12,5.61"/><path d="M573.25,425.3s7.57-7.73,17.27-3.33,37,8.48,36.36-6.37c-.76-14.84-38-6.81-38-6.81l-19.39,7.27Z"/><path class="cls-23" d="M694,397.27s7.58-44.39,11.21-61c1.52-7.27,7.88-7.88,7.28,1.36-.31,5.15-3.19,18.48-3.19,18.48,10-2.72,17.43,7.73,16.67,13.34-.45,2.88-5.76,12.42-7.12,14.24-1.36,2-5.61,15.15-5.61,15.15Z"/><path class="cls-23" d="M720.35,359.85c4.55.76,8,1.82,7.43,7.73s-6.21,7.57-6.82,5.6,1.36-10.3,1.36-10.3S715.05,361.22,720.35,359.85Z"/><path class="cls-23" d="M716,358c5.61-3.48,7.42,1.06,6.82,7.73s-4.7,8.64-7.27,6.82S717,361.67,717,361.67,710.05,359.4,716,358Z"/><path class="cls-23" d="M717.78,362.12c-.61,6.67-4.55,8.19-7.12,6.37s1.51-10.91,1.51-10.91-2.42-1.06-2.57-2.27c-.15-3,5.91-5.46,7.88-.61C718.23,356.22,718.08,358.79,717.78,362.12Z"/><path class="cls-23" d="M697.33,387.43c-7.73-8.79-9.09-24.85-4.55-26.21s18.18-8,20-4.4c2,3.64-11.82,11.36-11.82,11.36"/><path class="cls-22" d="M699.6,508.78l7.73.3a19.12,19.12,0,0,0,19.84-18.33l2.73-103.48a2.2,2.2,0,0,0-2.12-2.27l-41.66-1.67a2.2,2.2,0,0,0-2.28,2.13l-2.72,103.47A19.14,19.14,0,0,0,699.6,508.78Z"/><circle class="cls-24" cx="710.05" cy="334.85" r="8.79"/><path class="cls-19" d="M752.78,332.13l-3.94-1.06a5.73,5.73,0,0,1-2.28-9.85l3-2.73a34.08,34.08,0,0,0-3.93-7.27l-3.94,1.06a5.84,5.84,0,0,1-7-7.42l1.21-3.79a41.29,41.29,0,0,0-7-4.39l-2.88,2.72a5.77,5.77,0,0,1-9.7-3l-.9-3.94a37.68,37.68,0,0,0-4.1-.3h-4.09l-1.06,3.94a5.84,5.84,0,0,1-10,2.27l-2.72-3a33.45,33.45,0,0,0-7.27,3.94l1.06,3.94a5.85,5.85,0,0,1-7.43,7L676.12,309a41,41,0,0,0-4.4,7l2.73,2.87a5.77,5.77,0,0,1-3,9.7l-3.94.91a37.5,37.5,0,0,0-.3,4.09v4.09l3.94,1.06a5.84,5.84,0,0,1,2.27,10l-3,2.73a41.74,41.74,0,0,0,3.94,7.27l3.94-.91a5.85,5.85,0,0,1,7,7.42L684,368.94a42,42,0,0,0,7,4.4l2.88-2.73a5.77,5.77,0,0,1,9.7,3l.91,3.94a37.32,37.32,0,0,0,4.09.3h4.09l1.06-3.94a5.84,5.84,0,0,1,10-2.27l2.73,3a42.11,42.11,0,0,0,7.27-3.94l-.91-3.94a5.85,5.85,0,0,1,7.42-7l3.79,1.21a40.9,40.9,0,0,0,4.39-7l-2.72-2.87a5.76,5.76,0,0,1,3-9.7l3.93-.76a35,35,0,0,0,.31-4.09A41.45,41.45,0,0,0,752.78,332.13ZM709.3,356.67a21.9,21.9,0,1,1,22.57-21.21A22,22,0,0,1,709.3,356.67Z"/><path class="cls-11" d="M80.56,287.89a17.75,17.75,0,0,1,9.24,2.57,18.22,18.22,0,0,1,18.18-17,19.92,19.92,0,0,1,6.67,1.21,21.2,21.2,0,0,1,41.51,6.06v.91h0a21.21,21.21,0,0,1,0,42.42A9.36,9.36,0,0,1,154,324H82.53c-.61,0-1.37.15-2,.15a18.11,18.11,0,1,1,0-36.21Z"/><line class="cls-2" x1="51.92" y1="647.4" x2="747.93" y2="647.4"/></svg>