<svg id="图层_1" data-name="图层 1" xmlns="http://www.w3.org/2000/svg" viewBox="0 0 800 800"><defs><style>.cls-1{fill:none;}.cls-1,.cls-10,.cls-3,.cls-4,.cls-5,.cls-6,.cls-8,.cls-9{stroke:#000;stroke-miterlimit:10;stroke-width:1.5px;}.cls-2{fill:#40adff;}.cls-3{fill:#b8ecff;}.cls-4{fill:#fff;}.cls-5{fill:#7cc996;}.cls-6{fill:#ddd;}.cls-7{fill:#ffaeae;}.cls-8{fill:#ffc609;}.cls-10{fill:#f2f2f2;}</style></defs><line class="cls-1" x1="47.18" y1="711.38" x2="752.82" y2="711.38"/><path class="cls-2" d="M188.54,330.68V664.51H470.87V330.68ZM418.2,613h-177V382.57h177Z"/><rect class="cls-3" x="470.87" y="389.16" width="17.82" height="32.14"/><rect class="cls-3" x="488.3" y="398.06" width="14.33" height="14.33"/><path class="cls-1" d="M502.63,405h48a15.13,15.13,0,0,1,15.11,15.11V560.33a15.12,15.12,0,0,0,15.1,15.11h37.57"/><circle class="cls-4" cx="677.3" cy="642.83" r="44.93"/><polygon class="cls-5" points="642.05 481.33 602.16 614.17 737.32 582.41 642.05 481.33"/><rect class="cls-1" x="82.43" y="688.14" width="635.53" height="23.62"/><rect class="cls-6" x="162.98" y="664.51" width="473.65" height="23.62"/><path class="cls-4" d="M424.79,245.86s46.08-13.17,65.83-13.55l8.52,80.55-31.37,21.69s-14.71,12.78-54.22,35.24c-39.89,22.47-172.34,184-172.34,184V448L420.53,274.91Z"/><circle class="cls-7" cx="504.57" cy="153.69" r="65.45"/><circle class="cls-4" cx="504.57" cy="153.69" r="40.28"/><path class="cls-8" d="M454.61,324.48h0c-7.36-2.32-12-10.07-9.69-17.43l24-80.17,27.11,7.75L472,314.8C470.1,322.16,462,326.42,454.61,324.48Z"/><line class="cls-1" x1="486.75" y1="216.43" x2="482.49" y2="230.37"/><path class="cls-4" d="M501.08,296.59s9.3-5,15.1,3.88-2.32,15.1-2.32,15.1-42.6,29.82-49.57,19S501.08,296.59,501.08,296.59Z"/><path class="cls-4" d="M500.69,277.23s12-2.32,15.49,9.68-8.13,16.27-8.13,16.27-59.25,18.59-63.51,4.26C440.28,292.72,500.69,277.23,500.69,277.23Z"/><path class="cls-4" d="M492.56,255.16s11.23-5,17.43,5.8-4.26,17.82-4.26,17.82-53.45,31.76-60.81,18.59S492.56,255.16,492.56,255.16Z"/><path class="cls-4" d="M491,232.31s10.85-6.2,17.82,4.26-3.1,17.81-3.1,17.81-50.74,36-59.26,23.24C438.34,265.22,491,232.31,491,232.31Z"/><path class="cls-4" d="M241.21,448s80.17-73.58,119.67-132.45,44.54-67.39,80.56-73.58c36-5.81,77.84,15.49,54.61,21.3-22.85,5.81-42.61-.78-53.06,10.07-10.07,11.23-2.33,27.5-10.07,48.8"/><rect class="cls-9" x="62.29" y="215.65" width="204.49" height="10.07"/><rect class="cls-10" x="103.34" y="245.86" width="204.49" height="10.07"/></svg>