<svg id="图层_1" data-name="图层 1" xmlns="http://www.w3.org/2000/svg" xmlns:xlink="http://www.w3.org/1999/xlink" viewBox="0 0 800 800"><defs><style>.cls-1,.cls-18,.cls-3,.cls-8{fill:none;}.cls-2,.cls-9{fill:#f2f2f2;}.cls-13,.cls-15,.cls-21,.cls-22,.cls-3,.cls-4,.cls-5,.cls-6,.cls-8,.cls-9{stroke:#000;}.cls-18,.cls-22,.cls-3,.cls-4,.cls-5,.cls-6,.cls-9{stroke-miterlimit:10;}.cls-15,.cls-21,.cls-3,.cls-4,.cls-5,.cls-6,.cls-8,.cls-9{stroke-width:1.5px;}.cls-4{fill:#ffc609;}.cls-13,.cls-15,.cls-17,.cls-21,.cls-5{fill:#fff;}.cls-7{fill:#ff844d;}.cls-13,.cls-15,.cls-8{stroke-linecap:round;stroke-linejoin:round;}.cls-10{fill:#40adff;}.cls-11{clip-path:url(#clip-path);}.cls-12{clip-path:url(#clip-path-2);}.cls-13{stroke-width:1.5px;}.cls-14{fill:#c1c1c1;}.cls-16{fill:#5576b5;}.cls-18{stroke:#fff;}.cls-19{fill:#b8ecff;}.cls-20{clip-path:url(#clip-path-3);}.cls-21{stroke-miterlimit:10;}.cls-23{fill:#dbdbdb;}</style><clipPath id="clip-path"><rect class="cls-1" x="107.81" y="438.48" width="263.68" height="170.63"/></clipPath><clipPath id="clip-path-2"><path class="cls-1" d="M497.5,378.57c-10.51,0-19.11,6.21-19.11,14l.47,239.94a11.84,11.84,0,0,0,5.58,9.72,22.67,22.67,0,0,0,13.38,4.14l165.86-.16c10.51,0,19-6.21,18.8-13.86L682,392.59c0-7.81-8.61-14-19.12-14Z"/></clipPath><clipPath id="clip-path-3"><path class="cls-1" d="M521.4,344.16H278.76a8.24,8.24,0,0,1-8.29-8.29V161.26a8.24,8.24,0,0,1,8.29-8.29H521.4a8.24,8.24,0,0,1,8.29,8.29V335.71A8.48,8.48,0,0,1,521.4,344.16Z"/></clipPath></defs><circle class="cls-2" cx="642.81" cy="244.58" r="53.69"/><line class="cls-3" x1="34.04" y1="647.03" x2="765.96" y2="647.03"/><path class="cls-3" d="M550.24,249.2h33.94a23.87,23.87,0,0,1,23.89,23.9v236A23.86,23.86,0,0,1,584.18,533l-20.08.16"/><rect class="cls-4" x="529.53" y="238.85" width="11.47" height="20.55"/><rect class="cls-4" x="541" y="244.58" width="9.24" height="9.24"/><path class="cls-3" d="M253,244.9H211.52a23.87,23.87,0,0,0-23.89,23.9V432.1A23.86,23.86,0,0,0,211.52,456l27.09.16"/><rect class="cls-4" x="259" y="234.55" width="11.47" height="20.55"/><rect class="cls-4" x="249.76" y="240.28" width="9.24" height="9.24"/><path class="cls-5" d="M516.3,345.27H283.7a13.47,13.47,0,0,1-13.39-13.38V167.63a13.47,13.47,0,0,1,13.39-13.38H516.3a13.47,13.47,0,0,1,13.39,13.38V332.05A13.33,13.33,0,0,1,516.3,345.27Z"/><path class="cls-5" d="M547.85,378.57a13.94,13.94,0,0,0-14,14l.32,239.94A13.86,13.86,0,0,0,548,646.39l121.72-.16a13.87,13.87,0,0,0,13.86-13.86l-.32-239.78a13.94,13.94,0,0,0-14-14Z"/><rect class="cls-6" x="65.43" y="195.35" width="142.43" height="6.85"/><rect class="cls-5" x="93.79" y="216.38" width="142.43" height="6.85"/><path class="cls-7" d="M473.92,432.58a35.05,35.05,0,1,0,0-70.1"/><circle class="cls-8" cx="473.77" cy="397.53" r="35.05"/><ellipse class="cls-8" cx="473.77" cy="397.53" rx="24.06" ry="35.05"/><ellipse class="cls-8" cx="473.77" cy="397.53" rx="10.04" ry="35.05"/><line class="cls-8" x1="508.82" y1="397.53" x2="438.87" y2="397.53"/><line class="cls-8" x1="503.24" y1="378.57" x2="444.61" y2="378.57"/><line class="cls-8" x1="503.24" y1="416.49" x2="444.61" y2="416.49"/><path class="cls-5" d="M371,625.68H108.28a15.37,15.37,0,0,1-15.45-15.46V440.71a15.37,15.37,0,0,1,15.45-15.46H371a15.37,15.37,0,0,1,15.46,15.46V610.22A15.57,15.57,0,0,1,371,625.68Z"/><rect class="cls-9" x="107.81" y="440.07" width="263.68" height="170.63"/><path class="cls-10" d="M394.26,645.91H85a10.16,10.16,0,0,1-10.19-10.19h0A10.16,10.16,0,0,1,85,625.52H394.26a10.17,10.17,0,0,1,10.2,10.2h0A10.37,10.37,0,0,1,394.26,645.91Z"/><g class="cls-11"><polyline class="cls-3" points="140.31 489.78 140.31 529.13 159.59 548.41 159.59 570.71 159.59 570.71 141.1 589.19 141.1 622.49"/><polyline class="cls-3" points="190.17 552.55 190.17 578.52 181.73 587.12 181.73 625.04"/><polyline class="cls-3" points="205.15 487.23 205.15 515.59 224.43 534.87 224.43 625.04"/><polyline class="cls-3" points="267.6 628.07 267.6 603.37 252.47 588.24 252.47 588.24 252.47 545.22 266.81 531.04 266.81 505.23"/><polyline class="cls-3" points="298.83 530.25 298.83 566.09 312.53 579.95 312.53 604.97 312.53 604.97 298.03 619.62 298.03 630.94"/><path class="cls-4" d="M149.87,486.75a9.56,9.56,0,1,1-9.56-9.56A9.59,9.59,0,0,1,149.87,486.75Z"/><path class="cls-4" d="M199.73,547.13a9.56,9.56,0,1,1-9.56-9.56A9.59,9.59,0,0,1,199.73,547.13Z"/><path class="cls-4" d="M214.87,483.88a9.56,9.56,0,1,1-9.56-9.56A9.59,9.59,0,0,1,214.87,483.88Z"/><path class="cls-4" d="M276.05,503a9.56,9.56,0,1,1-9.56-9.56A9.59,9.59,0,0,1,276.05,503Z"/><path class="cls-4" d="M308.07,526.1a9.56,9.56,0,1,1-9.56-9.56A9.49,9.49,0,0,1,308.07,526.1Z"/><polyline class="cls-3" points="338.98 510.81 338.98 540.6 330.69 548.88 330.69 557.65 338.98 567.21 338.98 630.94"/><path class="cls-4" d="M348.54,505.55A9.56,9.56,0,1,1,339,496,9.59,9.59,0,0,1,348.54,505.55Z"/></g><rect class="cls-4" x="177.43" y="413.62" width="20.55" height="11.47"/><rect class="cls-4" x="183" y="404.54" width="9.24" height="9.24"/><rect class="cls-4" x="597.72" y="367.1" width="20.55" height="11.47"/><rect class="cls-4" x="603.45" y="357.86" width="9.24" height="9.24"/><g class="cls-12"><ellipse class="cls-13" cx="547.71" cy="440.83" rx="13.54" ry="10.36" transform="translate(104.82 986.88) rotate(-89.78)"/><ellipse class="cls-13" cx="636.03" cy="441.1" rx="13.54" ry="10.36" transform="translate(192.55 1075.47) rotate(-89.78)"/><rect class="cls-14" x="589.44" y="462.92" width="7.33" height="27.24" transform="translate(114.34 1067.86) rotate(-89.78)"/><path class="cls-15" d="M622.09,473.21l-60.54-.16A16.49,16.49,0,0,1,545,456.32l.16-30.75A16.49,16.49,0,0,1,561.87,409l60.54.16A16.49,16.49,0,0,1,639,425.89l-.16,30.75A16.7,16.7,0,0,1,622.09,473.21Z"/><path class="cls-16" d="M619.07,460.78l-54.49-.16a8.6,8.6,0,0,1-8.6-8.76l.15-22a8.61,8.61,0,0,1,8.77-8.6l54.48.16a8.6,8.6,0,0,1,8.61,8.76l-.16,22A8.7,8.7,0,0,1,619.07,460.78Z"/><rect class="cls-14" x="586.26" y="396.81" width="14.34" height="4.62" transform="translate(192.08 991.04) rotate(-89.78)"/><path class="cls-15" d="M600.9,404.06H585.61a4.28,4.28,0,0,0-4.3,4.3v.48l23.9.16v-.48A4.33,4.33,0,0,0,600.9,404.06Z"/><circle class="cls-4" cx="593.42" cy="389.56" r="7.49"/><path class="cls-15" d="M631.33,572.78l-80-.31a14.39,14.39,0,0,1-14.49-14.66l.16-63.09a14.38,14.38,0,0,1,14.65-14.5l80,.32a14.38,14.38,0,0,1,14.5,14.65l-.16,63.1A14.58,14.58,0,0,1,631.33,572.78Z"/><path class="cls-16" d="M626.4,533.59l-69.95-.32a12,12,0,0,1-12-12.11l.16-21.82a12,12,0,0,1,12.11-11.95l69.94.32a12,12,0,0,1,11.95,12.1l-.16,21.83A12,12,0,0,1,626.4,533.59Z"/><path class="cls-2" d="M633.72,566.57,549,566.25a4.63,4.63,0,0,1-4.63-4.62v-10.2a4.64,4.64,0,0,1,4.63-4.62l84.75.32a4.62,4.62,0,0,1,4.62,4.62V562A4.62,4.62,0,0,1,633.72,566.57Z"/><path class="cls-15" d="M646.79,489h-.64v19h.64a4.66,4.66,0,0,0,4.62-4.78V493.6A4.52,4.52,0,0,0,646.79,489Z"/><path class="cls-15" d="M651.57,502.68s41.74-.79,41.58-54.49h-8.92s2.39,40.63-32.66,46.05Z"/><line class="cls-8" x1="658.74" y1="492.49" x2="660.81" y2="500.93"/><line class="cls-8" x1="666.7" y1="488.5" x2="671.64" y2="495.99"/><line class="cls-8" x1="673.24" y1="482.93" x2="680.09" y2="488.98"/><line class="cls-8" x1="678.33" y1="475.44" x2="686.46" y2="479.74"/><line class="cls-8" x1="681.68" y1="466.99" x2="690.76" y2="468.59"/><line class="cls-8" x1="683.59" y1="457.75" x2="692.67" y2="457.75"/><path class="cls-4" d="M686.3,465.24h1.59a6.4,6.4,0,0,0,6.38-6.37V448.19h-14.5v10.68A6.53,6.53,0,0,0,686.3,465.24Z"/><path class="cls-16" d="M689.17,454.41v-3.35A10.16,10.16,0,0,0,696,441.5a10,10,0,0,0-6.85-9.56V428.6a13.3,13.3,0,0,1,10.19,12.9A13.67,13.67,0,0,1,689.17,454.41Z"/><path class="cls-16" d="M685,454.41v-3.35a10.09,10.09,0,0,1,0-19.12V428.6a13.38,13.38,0,0,0-10,13.06A13.16,13.16,0,0,0,685,454.41Z"/><circle class="cls-15" cx="686.94" cy="447.56" r="7.17"/><circle class="cls-16" cx="686.94" cy="447.56" r="3.82"/><path class="cls-15" d="M536.38,489.14H537v19h-.64a4.76,4.76,0,0,1-4.78-4.62v-9.56A4.9,4.9,0,0,1,536.38,489.14Z"/><path class="cls-15" d="M531.76,502.84s-41.74-.48-42.06-54.17h8.92s-2.07,40.63,33,45.89Z"/><line class="cls-8" x1="524.43" y1="492.8" x2="522.52" y2="501.25"/><line class="cls-8" x1="516.46" y1="488.82" x2="511.68" y2="496.31"/><line class="cls-8" x1="509.93" y1="483.25" x2="503.08" y2="489.3"/><line class="cls-8" x1="504.83" y1="475.76" x2="496.71" y2="480.22"/><line class="cls-8" x1="501.33" y1="467.31" x2="492.25" y2="469.07"/><line class="cls-8" x1="499.42" y1="458.23" x2="490.33" y2="458.23"/><path class="cls-4" d="M496.71,465.72h-1.6a6.39,6.39,0,0,1-6.37-6.37V448.67h14.5v10.68A6.43,6.43,0,0,1,496.71,465.72Z"/><path class="cls-16" d="M493.84,454.89v-3.35a10.1,10.1,0,0,1,0-19.12v-3.34a13.38,13.38,0,0,0-10,13.06A13,13,0,0,0,493.84,454.89Z"/><path class="cls-16" d="M497.82,454.89v-3.35a10.14,10.14,0,0,0,6.85-9.56,10,10,0,0,0-6.85-9.56v-3.34a13.26,13.26,0,0,1,0,25.81Z"/><circle class="cls-15" cx="495.91" cy="448.04" r="7.17"/><circle class="cls-16" cx="495.91" cy="448.04" r="3.82"/><path class="cls-17" d="M548.17,542.83a2.51,2.51,0,0,1-2.55-2.55V540a2.52,2.52,0,0,1,2.55-2.55l86.67.32a2.76,2.76,0,0,1,2.55,2.55v.32a2.52,2.52,0,0,1-2.55,2.55Z"/><path d="M548.17,538.69h0l86.51.32a1.25,1.25,0,0,1,1.27,1.27v.32a1.25,1.25,0,0,1-1.27,1.28h0l-86.51-.32a1.26,1.26,0,0,1-1.28-1.28V540c-.16-.63.48-1.27,1.28-1.27m0-2.39A3.61,3.61,0,0,0,544.5,540v.32a3.62,3.62,0,0,0,3.67,3.67l86.51.32a3.61,3.61,0,0,0,3.66-3.67v-.32a3.6,3.6,0,0,0-3.66-3.66l-86.51-.32Z"/><rect class="cls-13" x="524.76" y="596.75" width="71.85" height="23.58" transform="translate(-49.96 1166.94) rotate(-89.78)"/><path class="cls-4" d="M575.57,645.27a15.14,15.14,0,0,0-30.27,0"/><path class="cls-16" d="M570.79,606.56H550.56a5,5,0,0,1-4.94-4.94v-1.27a5,5,0,0,1,4.94-4.94h20.23a5,5,0,0,1,4.94,4.94v1.27A5,5,0,0,1,570.79,606.56Z"/><rect class="cls-13" x="584.19" y="597.07" width="71.85" height="23.58" transform="translate(8.93 1226.68) rotate(-89.78)"/><path class="cls-4" d="M635,645.43a15.14,15.14,0,0,0-30.27,0"/><path class="cls-16" d="M630.22,606.72H610a5,5,0,0,1-4.93-4.94v-1.27a5,5,0,0,1,4.93-4.94h20.24a5,5,0,0,1,4.94,4.94v1.27A5,5,0,0,1,630.22,606.72Z"/><line class="cls-18" x1="598.04" y1="453.29" x2="585.61" y2="453.29"/><circle class="cls-19" cx="571.43" cy="439.91" r="3.51"/><circle class="cls-19" cx="611.42" cy="439.91" r="3.51"/></g><g class="cls-20"><path class="cls-10" d="M354.27,404.7c-5.25-.8-27.56-2.87-33.45-8.6a17.7,17.7,0,0,1-5.1-15.62v-.32c1.43-7.8,8.76-77.43,17.52-87.78,8.61-10.2,63.1-31.87,84.13-26.29,21,9.24,44,18.48,51.62,25.81,7,6.53,23.26,55.29,31.06,86.51C501.49,384,502.28,391,498.3,395c-4.78,4.78-47.64,16.57-47.64,16.57l-26.44,6.69S363.36,406.13,354.27,404.7Z"/><path class="cls-5" d="M419,254l-2.87,19.76a.59.59,0,0,1-.16.48v.16a14.26,14.26,0,0,1-15,11.79h-.64a14.07,14.07,0,0,1-12.75-15.46l.16-.95.48-5.1,1.43-16.09Z"/><circle class="cls-21" cx="428.84" cy="239.96" r="10.67"/><path class="cls-8" d="M423.26,235.82a19.36,19.36,0,0,0,10.83,4.46"/><path class="cls-5" d="M398.25,270.87h0a28.34,28.34,0,0,0,31.22-26.45l1.6-24.37a23.36,23.36,0,0,0-23.58-25.18h0c-14.34-1.43-29.48,8.77-30.91,23.11l-1.27,26.28A25.45,25.45,0,0,0,398.25,270.87Z"/><path class="cls-8" d="M396.34,254.78a19.36,19.36,0,0,0,10.83,4.46"/><path class="cls-22" d="M375.46,228.17c-.15-3.18,1.44-6.21,2.55-9.08,1.12-3,1.76-6.53,0-9.24a41,41,0,0,0,21,7.49,13.78,13.78,0,0,0,5.74-.48,5.66,5.66,0,0,0,3.66-4.14c7,.95,14,1.75,21,.79,5.9-.79,15.14-2.23,18.17-8.28,4.46-8.76-7-18-13.7-21-16.41-7.49-38.4-8.76-53.06,3a53.9,53.9,0,0,1-4.78,3.66c-3.18,2.07-11.15,3.19-13.22,6.53-4,6.38,3.82,32.66,3.82,32.66Z"/><path class="cls-22" d="M426,204.43a2.72,2.72,0,0,0-.16,1.12,29.38,29.38,0,0,0,1.12,9.88c.31,1.43.95,2.86,1.11,4.3.48,3.5.48,6.85,3.19,9.72,0,0,4.94-17.37,3-29.64-.16-1.43-.63-5.1-2.86-4.3-1.6.48-2.71,3.19-3.35,4.62A9.87,9.87,0,0,0,426,204.43Z"/><path class="cls-5" d="M362.08,235.34a10.65,10.65,0,1,0,11.63-9.56A10.61,10.61,0,0,0,362.08,235.34Z"/><path class="cls-15" d="M376.1,240s.8-7.65-6.69-7.17"/><line class="cls-8" x1="456.88" y1="331.25" x2="456.88" y2="375.54"/><line class="cls-8" x1="352.04" y1="331.25" x2="352.04" y2="375.54"/><polygon class="cls-23" points="402.39 248.09 406.21 248.25 405.74 231.36 409.88 248.41 402.39 248.09"/><polyline class="cls-8" points="405.74 231.36 406.21 248.25 402.39 248.09"/></g></svg>