<svg id="图层_1" data-name="图层 1" xmlns="http://www.w3.org/2000/svg" xmlns:xlink="http://www.w3.org/1999/xlink" viewBox="0 0 800 800"><defs><style>.cls-1,.cls-6{fill:none;}.cls-2{fill:#f8f9fa;}.cls-3{clip-path:url(#clip-path);}.cls-4{fill:#40adff;}.cls-5,.cls-7{fill:#fff;}.cls-5,.cls-6{stroke:#000;stroke-miterlimit:10;stroke-width:1.5px;}.cls-8{fill:#ffc607;}</style><clipPath id="clip-path"><circle class="cls-1" cx="400" cy="400" r="338.96"/></clipPath></defs><circle class="cls-2" cx="400" cy="400" r="338.96"/><g class="cls-3"><rect class="cls-4" x="244.64" y="197.19" width="386.42" height="386.42"/><path class="cls-5" d="M293.23,388.14V267.8H748v335H293.23V433.9"/><line class="cls-6" x1="293.23" y1="335.03" x2="744.61" y2="335.03"/><line class="cls-6" x1="323.17" y1="303.96" x2="365.54" y2="303.96"/><line class="cls-6" x1="388.14" y1="303.96" x2="430.51" y2="303.96"/><line class="cls-6" x1="452.54" y1="303.96" x2="494.91" y2="303.96"/><path class="cls-4" d="M674,514.68H552.53a10.13,10.13,0,0,1-10.17-10.17v-78a10.13,10.13,0,0,1,10.17-10.17H674a10.13,10.13,0,0,1,10.17,10.17v78A10.13,10.13,0,0,1,674,514.68Z"/><path class="cls-7" d="M636.71,462.71l-34.46-19.78a3.09,3.09,0,0,0-4.52,2.83v40.11c0,2.26,2.82,4,4.52,2.83l34.46-19.78C638.4,466.66,638.4,463.84,636.71,462.71Z"/><path class="cls-8" d="M461.58,510.73l3.95-2.83L463.84,500l-4.52-1.69c-1.7-4.52-3.39-8.47-6.22-11.87l1.7-4.51-5.65-6.22-5.09,1.13a48.49,48.49,0,0,0-11.29-7.34L432.2,465l-7.91-2.83-3.39,3.39c-4.52-.56-9-1.13-13.56-.56l-2.82-4-7.91,1.7-1.7,4.52c-4.52,1.69-8.47,3.39-11.86,6.21l-4.52-1.69-6.21,5.65,1.13,5.08a48.38,48.38,0,0,0-7.35,11.3l-4.52.56-2.82,7.91,3.39,3.39c-.57,4.52-1.13,9-.57,13.56L357.63,522l1.69,7.9,4.52,1.7c1.7,4.52,3.39,8.47,6.22,11.86l-1.7,4.52,5.65,6.22,5.08-1.13a48.55,48.55,0,0,0,11.3,7.34L391,565l7.91,2.83,3.39-3.39c4.52.56,9,1.13,13.56.56l2.82,4,7.91-1.7,1.69-4.52c4.52-1.69,8.48-3.39,11.87-6.21l4.52,1.69,6.21-5.65-1.13-5.08a48.59,48.59,0,0,0,7.35-11.3l4.52-.57,2.82-7.9L461,524.29C461.58,519.77,462.14,515.25,461.58,510.73ZM411.3,541.24a26.56,26.56,0,1,1,26.55-26.56A26.17,26.17,0,0,1,411.3,541.24Zm11.3-26.56a11.3,11.3,0,1,1-11.3-11.3A11.33,11.33,0,0,1,422.6,514.68Z"/><path class="cls-8" d="M505.64,402.26l2.83-2.26-1.13-5.65L504,393.22a40.68,40.68,0,0,0-4.52-8.47l1.13-3.39-4-4.52-3.39.56a23.69,23.69,0,0,0-7.9-5.08l-.57-3.39-5.65-1.7-2.82,2.26a55.36,55.36,0,0,0-9.61-.56l-2.26-2.83-5.65,1.13-1.13,3.39a40.68,40.68,0,0,0-8.47,4.52L445.76,374l-4.52,4,.57,3.39a23.66,23.66,0,0,0-5.09,7.91l-3.39.56-1.69,5.65,2.26,2.82a54.45,54.45,0,0,0-.57,9.61l-2.83,2.26,1.13,5.65L435,417a40.68,40.68,0,0,0,4.52,8.47l-1.13,3.39,4,4.52,3.39-.56a23.79,23.79,0,0,0,7.91,5.08l.56,3.39,5.65,1.69,2.83-2.25a55.24,55.24,0,0,0,9.6.56l2.26,2.83,5.65-1.13,1.13-3.39a40.68,40.68,0,0,0,8.47-4.52l3.39,1.13,4.52-4-.56-3.39a23.63,23.63,0,0,0,5.08-7.91l3.39-.56,1.7-5.65-2.26-2.83C505.64,408.47,506.21,405.65,505.64,402.26Zm-35.59,22a19.21,19.21,0,1,1,19.21-19.2A19,19,0,0,1,470.05,424.29Z"/><path class="cls-5" d="M167.24,400A19,19,0,0,0,148,419.21V601.68l13,51.41c1.13,3.39,4.52,5.65,7.91,4.52a6.13,6.13,0,0,0,4.52-4.52l13-51.41V419.21A19.41,19.41,0,0,0,167.24,400Z"/></g></svg>