<svg id="图层_1" data-name="图层 1" xmlns="http://www.w3.org/2000/svg" viewBox="0 0 800 800"><defs><style>.cls-1,.cls-13,.cls-27,.cls-28,.cls-3{fill:#fff;}.cls-1,.cls-10,.cls-12,.cls-13,.cls-15,.cls-16,.cls-19,.cls-2,.cls-20,.cls-26,.cls-27,.cls-28,.cls-3,.cls-6,.cls-8,.cls-9{stroke:#000;}.cls-1,.cls-10,.cls-12,.cls-15,.cls-16,.cls-17,.cls-2,.cls-20,.cls-3,.cls-6,.cls-8,.cls-9{stroke-miterlimit:10;}.cls-1,.cls-10,.cls-12,.cls-13,.cls-15,.cls-16,.cls-17,.cls-19,.cls-2,.cls-20,.cls-24,.cls-26,.cls-3,.cls-6,.cls-7,.cls-8,.cls-9{stroke-width:1.5px;}.cls-1{opacity:0.8;}.cls-1,.cls-25{isolation:isolate;}.cls-14,.cls-2,.cls-26,.cls-6{fill:#40adff;}.cls-4{fill:#ff844d;}.cls-5{fill:#f2f2f2;}.cls-10,.cls-6{fill-rule:evenodd;}.cls-17,.cls-19,.cls-24,.cls-7,.cls-8{fill:none;}.cls-24,.cls-7{stroke:#fff;}.cls-7{stroke-miterlimit:22.93;}.cls-10,.cls-11,.cls-9{fill:#b8ecff;}.cls-12{fill:#ffc609;}.cls-13,.cls-19,.cls-24,.cls-26,.cls-27,.cls-28{stroke-linecap:round;stroke-linejoin:round;}.cls-15{fill:#ffaeae;}.cls-16{fill:#7cc996;}.cls-17{stroke:#333;}.cls-18,.cls-25{fill:#ffc607;}.cls-20{fill:#66ad7e;}.cls-21{fill:#c7c7c7;}.cls-22{fill:#dbdbdb;}.cls-23{fill:#5576b5;}.cls-25{opacity:0.4;}.cls-27{stroke-width:1.5px;}.cls-28{stroke-width:1.5px;}.cls-29{fill:#72a2e8;}</style></defs><path class="cls-1" d="M575.38,175.09V442.64c0,8-7.11,14.35-15.8,14.35H168.53c-8.69,0-15.79-6.38-15.79-14.35V175.09c0-8,7.1-14.35,15.79-14.35H559.58C568.27,160.59,575.38,167.11,575.38,175.09Z"/><path class="cls-2" d="M686.4,649.33H549.72c-12.61,0-22.9-9.14-22.75-20.3l.14-291.47c0-11.16,10.29-20.29,22.9-20.29H686.69c12.61,0,22.75,9.13,22.75,20.29L709.3,629C709.15,640.34,699,649.33,686.4,649.33Z"/><path class="cls-3" d="M679.15,631.93H557c-11.31,0-20.44-8.4-20.44-18.69l.15-268.72c0-10.29,9.13-18.7,20.43-18.7H679.3c11.3,0,20.43,8.41,20.43,18.7l-.14,268.72C699.59,623.53,690.46,631.93,679.15,631.93Z"/><rect class="cls-3" x="550.74" y="464.38" width="134.79" height="28.84"/><rect class="cls-4" x="558.85" y="467.43" width="26.09" height="22.9"/><rect class="cls-4" x="589.72" y="467.43" width="26.09" height="22.9"/><rect class="cls-4" x="620.6" y="467.43" width="26.09" height="22.9"/><rect class="cls-5" x="651.47" y="467.43" width="26.09" height="22.9"/><rect class="cls-4" x="611.61" y="394.96" width="17.83" height="24.35"/><polygon class="cls-4" points="620.6 377.71 636.39 399.45 604.65 399.45 620.6 377.71"/><path class="cls-6" d="M521.46,567.15a25.08,25.08,0,1,0-25.08-25.08A25.18,25.18,0,0,0,521.46,567.15Z"/><line class="cls-7" x1="465.95" y1="610.77" x2="469.86" y2="649.33"/><line class="cls-8" x1="576.97" y1="610.77" x2="573.06" y2="649.33"/><rect class="cls-9" x="469.14" y="602.94" width="104.79" height="46.67"/><line class="cls-8" x1="499.43" y1="530.19" x2="465.8" y2="603.38"/><line class="cls-8" x1="544.36" y1="531.78" x2="577.26" y2="603.52"/><rect class="cls-2" x="465.08" y="602.94" width="113.05" height="8.7"/><path class="cls-10" d="M485.22,591.93V602.8h72.62V567H485.22v15.22"/><rect class="cls-2" x="481.89" y="567.15" width="79.14" height="8.7"/><line class="cls-8" x1="521.46" y1="516.71" x2="521.46" y2="649.33"/><path class="cls-8" d="M499,531.2a25,25,0,0,1,45.22.58"/><path class="cls-11" d="M530.59,503.81a2,2,0,0,1,.87-.29,7.69,7.69,0,0,1,6.23.29,7.24,7.24,0,0,1,2.61,2.9,6.14,6.14,0,0,1,.87,3.76A7.53,7.53,0,0,1,538,516a18,18,0,0,1-6.09,2.9,4.15,4.15,0,0,1-1.45.29v-4.06a.56.56,0,0,0,.44-.14,14.64,14.64,0,0,0,4.78-2.18,3.22,3.22,0,0,0,1.6-2.61,3.87,3.87,0,0,0-.44-1.74,3.44,3.44,0,0,0-1.16-1.3,3.38,3.38,0,0,0-2.9,0,15.06,15.06,0,0,0-2.17,1v-4.34Zm-11.31,12.61c.87-3.19,3.48-6.82,6.53-9.57a20,20,0,0,1,4.78-3.19V508a19,19,0,0,0-2.17,1.59,24,24,0,0,0-4.64,5.66,22.57,22.57,0,0,0,6.81-.58v4.06a21.12,21.12,0,0,1-10-.15C519.57,518.59,519,517.58,519.28,516.42Z"/><path class="cls-11" d="M521.6,514.39a39.26,39.26,0,0,1,8.55,8A49.52,49.52,0,0,1,538,536.85l-2.32-.43-1.45,1.74a40.83,40.83,0,0,0-7.1-13.19,32.65,32.65,0,0,0-7.83-7.25Z"/><path class="cls-11" d="M519.14,515.55a18.9,18.9,0,0,0-4.64-5.66,20,20,0,0,0-2.17-1.59V504a23.27,23.27,0,0,1,4.78,3.19c3,2.75,5.65,6.38,6.52,9.57a2,2,0,0,1-1.3,2.46,21.12,21.12,0,0,1-10,.15v-4.06A27.38,27.38,0,0,0,519.14,515.55Zm-6.67-7.4a7.56,7.56,0,0,0-2.17-1,3.38,3.38,0,0,0-2.9,0,3.52,3.52,0,0,0-1.16,1.3,5,5,0,0,0-.43,1.74,4.28,4.28,0,0,0,1.59,2.61,13.4,13.4,0,0,0,4.78,2.18.56.56,0,0,1,.44.14v4.06c-.44-.14-.87-.14-1.45-.29a15.82,15.82,0,0,1-6.09-2.9,7.35,7.35,0,0,1-3.19-5.51,7.51,7.51,0,0,1,.87-3.76,7.38,7.38,0,0,1,2.61-2.9,7.69,7.69,0,0,1,6.23-.29,2.13,2.13,0,0,0,.87.29v4.34Z"/><path class="cls-11" d="M521.46,514.39a39.26,39.26,0,0,0-8.55,8,49.52,49.52,0,0,0-7.83,14.49l2.32-.43,1.45,1.74A40.83,40.83,0,0,1,516,525a32.84,32.84,0,0,1,7.83-7.25Z"/><path class="cls-8" d="M578.13,220.45h25.94a14.07,14.07,0,0,1,14.06,14.06v67.25"/><rect class="cls-12" x="575.38" y="210.31" width="11.3" height="20.29"/><rect class="cls-12" x="586.68" y="215.96" width="9.13" height="9.13"/><rect class="cls-12" x="607.99" y="305.97" width="20.29" height="11.31"/><rect class="cls-12" x="613.64" y="296.83" width="9.13" height="9.13"/><path class="cls-13" d="M493.2,649.33H258a19,19,0,0,1-19-19V535.11a19,19,0,0,1,19-19H493.2a19,19,0,0,1,19,19v95.23A19,19,0,0,1,493.2,649.33Z"/><path class="cls-3" d="M334.05,318.14H197.38a15.21,15.21,0,0,1-15.22-15.22V213.78a15.21,15.21,0,0,1,15.22-15.21H334.05a15.21,15.21,0,0,1,15.22,15.21v89.14A15.21,15.21,0,0,1,334.05,318.14Z"/><polygon class="cls-14" points="287.24 258.43 248.1 235.67 248.1 281.04 287.24 258.43"/><line class="cls-8" x1="195.49" y1="299.01" x2="336.08" y2="299.01"/><circle class="cls-3" cx="302.31" cy="299.01" r="4.64"/><path class="cls-15" d="M451.16,536.27a7,7,0,1,1-7-6.95A6.86,6.86,0,0,1,451.16,536.27Z"/><circle class="cls-3" cx="466.96" cy="536.27" r="6.96"/><circle class="cls-16" cx="488.7" cy="536.27" r="6.96"/><line class="cls-17" x1="387.97" y1="582.51" x2="420.44" y2="582.51"/><line class="cls-17" x1="372.9" y1="592.65" x2="477.98" y2="592.65"/><line class="cls-17" x1="372.9" y1="569.61" x2="460.58" y2="569.61"/><line class="cls-17" x1="372.03" y1="604.1" x2="392.32" y2="604.1"/><line class="cls-17" x1="398.41" y1="604.1" x2="442.9" y2="604.1"/><line class="cls-17" x1="372.03" y1="582.51" x2="381.16" y2="582.51"/><line class="cls-17" x1="397.97" y1="558.88" x2="420.44" y2="558.88"/><line class="cls-17" x1="384.06" y1="554.39" x2="380.29" y2="563.23"/><polyline class="cls-17" points="376.67 555.7 373.19 558.88 376.67 562.22"/><polyline class="cls-17" points="388.4 555.7 391.74 558.88 388.4 562.22"/><polygon class="cls-18" points="334.78 582.8 318.83 566.71 340.72 561.06 334.78 582.8"/><circle class="cls-14" cx="330.86" cy="590.05" r="10.87"/><rect class="cls-3" x="411.74" y="202.77" width="100.59" height="74.93"/><rect class="cls-14" x="422.9" y="209.15" width="78.12" height="7.83"/><rect class="cls-14" x="422.9" y="223.79" width="36.81" height="44.93"/><rect class="cls-14" x="464.35" y="223.79" width="36.81" height="13.48"/><rect class="cls-14" x="464.35" y="243.5" width="36.81" height="25.36"/><circle class="cls-4" cx="411.74" cy="225.81" r="8.84"/><circle class="cls-4" cx="509.43" cy="204.22" r="8.84"/><polygon class="cls-13" points="113.31 617.29 168.68 617.29 163.9 649.33 118.09 649.33 113.31 617.29"/><path class="cls-16" d="M96.64,495.55S72,588.31,121,579.46C165.05,571.35,120.7,504.1,96.64,495.55Z"/><path class="cls-19" d="M109.69,532.5s21.16,73.49,21.45,77"/><path class="cls-20" d="M185.49,495.55s24.64,92.76-24.35,83.91C117.08,571.35,161.43,504.1,185.49,495.55Z"/><path class="cls-19" d="M172.45,532.5S151.29,606,151,609.47"/><path class="cls-20" d="M140.56,459.89s-35.66,57.69-.58,61.74C171.29,525.26,155.05,470.62,140.56,459.89Z"/><path class="cls-19" d="M141.72,487.57s-.73,119.58-1.16,122"/><polygon class="cls-13" points="113.31 601.78 168.68 601.78 174.04 617.29 107.95 617.29 113.31 601.78"/><line class="cls-19" x1="104.62" y1="639.32" x2="151" y2="639.32"/><path class="cls-14" d="M429,327.85c-11.74-14.78-37.11-13.19-37.11-13.19l-23.77.44-.14.72v-1.16s-30,3.19-44.35,13C310.14,337,292,400.18,292,400.18l32.61,45.07L323.76,406l.87,76.1H435.08l-1-75.81,5.51,14.35,24.93-11.88C464.64,408.73,441,342.92,429,327.85Z"/><path class="cls-21" d="M349.27,270.17c2.76,10.72-2.61,21.45-12,23.91S318,289.73,315.07,279s2.61-21.45,12-23.92S346.52,259.44,349.27,270.17Z"/><path class="cls-3" d="M349,336.11c8,1.89,23-12,28.41-21.88.43-.73-3.19-5.66-3.91-14.93-.44-5.36,0-11.31-.15-16.81,0-1.16-34.06,8.4-34.06,8.4s3.33,11.45,3.33,20.87a9.58,9.58,0,0,1-.29,2.18v.43C341.73,318.72,341.15,334.37,349,336.11Z"/><path class="cls-22" d="M372.46,282.63c-1.74,9.57-7.54,31.6-25.51,32a26.69,26.69,0,0,1-3.48-.14v-.44a10.77,10.77,0,0,0,.29-2.17v-.15a63.85,63.85,0,0,0-1-10.58c-1-5.65-2.32-10.29-2.32-10.29h0l.15-.14C343.18,290.17,365.5,283.93,372.46,282.63Z"/><path class="cls-3" d="M373.19,239.15c5.07,11.59,2.75,47.1-4.93,55.8C357.1,307.56,337,311,325.79,297.27c-10.87-13.34-7.1-59.57,1.6-67.69C340.28,217.7,365.65,222.05,373.19,239.15Z"/><path class="cls-3" d="M382.61,270a9.78,9.78,0,1,1-11.31-8A9.64,9.64,0,0,1,382.61,270Z"/><path class="cls-13" d="M370,275.09s-1.16-6.95,5.65-7.1"/><path class="cls-19" d="M341.59,287.27s-1.88,2.46-7.83,3.19"/><polygon class="cls-22" points="337.39 280.17 333.91 280.6 333.18 265.24 330.72 280.89 337.39 280.17"/><polyline class="cls-19" points="333.18 265.24 333.91 280.6 337.39 280.17"/><path d="M347.53,279.3a12.37,12.37,0,0,1-11.45-12.9h0a12.2,12.2,0,1,1,24.35,1.45A12,12,0,0,1,350.58,279,10.89,10.89,0,0,1,347.53,279.3Zm-9.71-12.76A10.53,10.53,0,1,0,349,256.69a16.32,16.32,0,0,0-2.61.14A10.5,10.5,0,0,0,337.82,266.54Z"/><path d="M321.88,281c-4.93.29-9.42-4.79-9.86-11.45a13.69,13.69,0,0,1,2-8.7,8.1,8.1,0,0,1,6.23-4.06A8.22,8.22,0,0,1,327,260a14.45,14.45,0,0,1,3.19,8.26c.43,6.38-2.75,11.74-7.39,12.61A1.78,1.78,0,0,1,321.88,281Zm-6.52-19.28a13.32,13.32,0,0,0-1.74,7.68c.43,5.8,4.05,10.29,8.11,10s7.1-5.22,6.67-11a12.44,12.44,0,0,0-2.75-7.4,6.41,6.41,0,0,0-5.37-2.6.91.91,0,0,0-.58.14C318,258.72,316.52,259.87,315.36,261.76Z"/><path d="M336.66,267.7l1-1.3c-1.89-1.45-6.38-3.19-9.13.14l1.3,1C332.17,264.66,336.52,267.7,336.66,267.7Z"/><path d="M385.94,268.86l1.45-.87c-.43-.58,1-8.12-2.61-8.4s-25.07,3.33-25.94,3.47l.29,1.6c6.23-1,22.9-3.63,25.51-3.48C387,261.32,385.07,267.27,385.94,268.86Z"/><path d="M367.39,254.08c2.17,2.9,7.1,9.85,8.7,10-1.6-11.16-4.21-20.87-8.56-26.09a22.42,22.42,0,0,0-6.37-5.36C361.74,235.53,365.07,251,367.39,254.08Z"/><path d="M372.32,247.12s4.92-12-.73-18.12c-3.19-3.48-12.75-2-12.75-2a17.21,17.21,0,0,0-11.6-6.23c-8.11-1-17.1,4.49-17.1,4.49s-8-3.62-14.64,1.16c-9.27,6.67-6.52,21.6,3.91,25.37,7.25,2.75,16.24-4.49,16.24-4.49.87,0,10.87,4.78,17.1-4.35,0,0,6.23,4.49,11,.43C363.48,243.64,366.66,248.57,372.32,247.12Z"/><path class="cls-21" d="M376.66,258.72s-.43-17.83-6.52-27.11c-6.81-10.29-25.94-17.54-40-6.23,0,0,20.15-4.93,33.05,7.68,5.94,5.8,7.68,26.67,7.68,26.67Z"/><ellipse class="cls-21" cx="375.22" cy="268.14" rx="14.35" ry="16.38" transform="translate(-21.1 32.3) rotate(-4.8)"/><path class="cls-23" d="M365.07,268.43c.72,8.11,7,14.2,14.2,13.62s12.32-7.68,11.74-15.8-6.95-14.2-14.2-13.62S364.34,260.31,365.07,268.43Z"/><line class="cls-19" x1="403.04" y1="352.93" x2="419.28" y2="396.12"/><polygon class="cls-3" points="213.61 533.23 207.38 544.97 235.06 561.2 242.16 547.58 213.61 533.23"/><path class="cls-18" d="M239.7,561.78l-38.41-22.17s-38-13.77-47.11,4.34l75.23,43.49Z"/><line class="cls-24" x1="230.86" y1="578.89" x2="163.03" y2="540.19"/><line class="cls-24" x1="190.85" y1="534.53" x2="199.55" y2="545.4"/><line class="cls-24" x1="181.72" y1="533.37" x2="185.64" y2="544.97"/><path class="cls-24" d="M237.23,563.38s-15.5-11.45-23.62,5.65"/><polygon class="cls-3" points="249.84 612.08 248.39 625.41 280.86 629.47 282.31 613.96 249.84 612.08"/><path class="cls-18" d="M284.77,623.24l-44.35-.15s-39.71,7.1-38.55,27.25l87,.14Z"/><line class="cls-24" x1="285.64" y1="642.51" x2="207.52" y2="642.66"/><line class="cls-24" x1="228.83" y1="623.96" x2="241.73" y2="629.03"/><line class="cls-24" x1="220.28" y1="627.44" x2="229.55" y2="635.56"/><path class="cls-24" d="M283.47,625.85s-19.13-2.18-17.68,16.66"/><path class="cls-3" d="M381.59,445H257.52a6.65,6.65,0,0,1-6.66-6.67h0a6.64,6.64,0,0,1,6.66-6.66H381.59a6.65,6.65,0,0,1,6.67,6.66h0A6.65,6.65,0,0,1,381.59,445Z"/><path class="cls-3" d="M217.23,368.14,241,431.92a10,10,0,0,0,9.42,6.52h97a5.75,5.75,0,0,0,5.36-7.83l-25.07-64.06a7.78,7.78,0,0,0-7-4.2H221A4,4,0,0,0,217.23,368.14Z"/><path class="cls-25" d="M291.59,396.55c2.32,4.06,1.3,9.28-2.47,11.31s-8.69.58-11-3.63c-2.32-4.05-1.31-9.27,2.46-11.3C284.34,390.75,289.27,392.35,291.59,396.55Z"/><path class="cls-13" d="M345.79,377.57c-.14,1.73-6.08,9.27-6.08,9.27s-2.47,3.19-4.21.87c-2.17-2.9,8.26-16.67,8.26-16.67a49.83,49.83,0,0,0-8.55,5.8c-3.91,3.62-4.64,2.17-4.49.87a4.35,4.35,0,0,1,.87-2.61,29,29,0,0,1,11.16-9.56c1.88-.73,3.77-.15,5.65.58,6.81,2.89,6.81,4.2,16.67,12.75,6.38,5.51,37.68,5.65,37.68,5.65L397.39,406s-25.51-9-32.61-8.11c-7.1.72-12.32-7-12.32-7Z"/><path class="cls-13" d="M347.24,375.83s-7.53,9.71-7.82,13.48c0,0-.87,8,4.78,1.88,5.07-5.51,6.67-8.84,6.67-8.84"/><path class="cls-13" d="M351.74,381.48c-2,1.59-8.7,9-8.7,12.32,0,0,.29,4.2,3.77,1,0,0,6.67-6.08,8.26-8"/><path class="cls-26" d="M465.66,419h0a19.55,19.55,0,0,1-24.21,13.33l-69.86-20.14a5.43,5.43,0,0,1-3.62-6.53l8-27.39a5.43,5.43,0,0,1,6.52-3.62l69.86,20.14A19.68,19.68,0,0,1,465.66,419Z"/><path class="cls-3" d="M438.26,500.18c-1.88,9.28-11.59,30.59-47.25,25.08-9.42-1.45-21.74-4.93-35.07-9.13-29-9.42-62-23.05-75.08-28.56l-5.8-2.46-1.88,4.06C261.44,494.82,258,515.69,258,515.69l-1.3,9.57-8.27,18-38.26-14.49,41.45-77.11s10.58-27.25,47.83-14.5S380,459.6,380,459.6h54.93C435.08,459.75,440.58,488.59,438.26,500.18Z"/><path class="cls-3" d="M355.94,516.13l-52,1.16-19.57,101.6-40.44-4.21,12.76-89.28,1.3-9.56s3.48-20.87,15.22-26.53a14.88,14.88,0,0,1,5.65-1.45,10.61,10.61,0,0,0,2-.14C294.05,493.08,327,506.71,355.94,516.13Z"/><rect class="cls-27" x="256.69" y="585.65" width="17.1" height="47.39" transform="translate(-373.42 793.12) rotate(-82.53)"/><rect class="cls-28" x="220.15" y="512.6" width="17.1" height="47.4" transform="translate(-354.3 541.73) rotate(-67.44)"/><line class="cls-19" x1="46.93" y1="649.33" x2="753.07" y2="649.33"/><path class="cls-29" d="M386.52,270.75l-1,.58-3.05-7.4h0a20.76,20.76,0,0,0-.72,2.9c-.44,1.6-.73,3.19-1.16,4.78l-1.16.29c-.87-1.15-2-2.6-3.19-4s-1.88-2.32-2.17-2.61h0c0,.14,0,1.16-.15,3.19s-.14,4.05-.14,6.23l-1.6.14c.15-2.46.29-4.92.44-7.39s.14-3.62.14-3.77l1.45-.43a24,24,0,0,1,1.74,2.32c1,1.45,2.32,2.9,3.62,4.64h0c.44-1.6.87-3.34,1.31-5.22s.72-2.61.72-2.76h1.16c0,.15.44,1,1.16,2.9S385.65,268.72,386.52,270.75Z"/></svg>