<svg id="图层_1" data-name="图层 1" xmlns="http://www.w3.org/2000/svg" xmlns:xlink="http://www.w3.org/1999/xlink" viewBox="0 0 800 800"><defs><style>.cls-1,.cls-7{fill:none;}.cls-2{fill:#f8f9fa;}.cls-3{clip-path:url(#clip-path);}.cls-4{fill:#fff;}.cls-4,.cls-5,.cls-7{stroke:#000;stroke-miterlimit:10;stroke-width:1.5px;}.cls-5{fill:#40adff;}.cls-6{fill:#ffcb00;}.cls-8{fill:#ffc607;}</style><clipPath id="clip-path"><circle class="cls-1" cx="400" cy="400" r="338.96"/></clipPath></defs><circle class="cls-2" cx="400" cy="400" r="338.96"/><g class="cls-3"><path class="cls-4" d="M167.24,348V334.47a24.12,24.12,0,0,1,24.3-24.3H608.46a24.12,24.12,0,0,1,24.3,24.3V603.38a24.12,24.12,0,0,1-24.3,24.29H191.54a24.12,24.12,0,0,1-24.3-24.29V410.73"/><rect class="cls-4" x="190.97" y="333.34" width="418.62" height="270.61"/><path class="cls-5" d="M645.75,659.87H154.82A15.79,15.79,0,0,1,139,644.05h0a15.78,15.78,0,0,1,15.82-15.81H645.75a15.79,15.79,0,0,1,15.82,15.81h0A15.8,15.8,0,0,1,645.75,659.87Z"/><path class="cls-5" d="M500.56,353.68c.56,15.81-46.33,44.06-105.08,46.32s-107.34-22.6-107.91-38.42l-3.39-94.34c18.08-29.38,68.93-7.91,106.21-9,38.42-1.13,87-27.12,106.78,1.69Z"/><path class="cls-5" d="M394.91,316.39a4.78,4.78,0,0,1-4,0L253.68,255.94c-1.7-.56-2.83-2.82-2.83-4.52a5.76,5.76,0,0,1,2.83-4.52l137.84-48.58a3.57,3.57,0,0,1,3.39,0L536.15,248a4.92,4.92,0,0,1,3.39,4.52,4.47,4.47,0,0,1-2.82,4.52Z"/><path class="cls-6" d="M540.67,401.13c-2.26,1.13-5.08,0-6.22-2.82L494.91,304,388.7,262.16c-2.26-1.13-3.95-4-2.82-6.22s3.95-3.95,6.21-2.82l108.47,42.37a4.61,4.61,0,0,1,2.82,2.82l40.68,96A5.77,5.77,0,0,1,540.67,401.13Z"/><path class="cls-6" d="M565,404.52c2.83,6.78,0,15.25-7.34,18.08l-13,5.65c-6.77,2.82-15.25,0-18.07-7.35l-7.91-17.51c-2.83-6.78-5.09-28.25,1.69-31.07l13-5.65c6.78-2.83,20.9,13,23.72,19.77Z"/><path class="cls-7" d="M467.23,604.51V487.57A28.34,28.34,0,0,0,439,459.32h0a28.33,28.33,0,0,0-28.25,28.25h0v22a28.33,28.33,0,0,1-28.24,28.25h0a28.34,28.34,0,0,1-28.25-28.25V397.18"/><path class="cls-8" d="M285.88,543.5l2.83-2.26-1.13-5.65-3.39-1.13a40.51,40.51,0,0,0-4.52-8.48l1.13-3.39-4-4.52-3.39.57a23.48,23.48,0,0,0-7.91-5.08l-.56-3.4-5.65-1.69-2.83,2.26a54.29,54.29,0,0,0-9.6-.57l-2.26-2.82L239,508.47l-1.13,3.39a40.21,40.21,0,0,0-8.47,4.52L226,515.25l-4.52,4,.56,3.39A23.73,23.73,0,0,0,217,530.5l-3.39.57-1.7,5.65,2.26,2.82a55.36,55.36,0,0,0-.56,9.61l-2.83,2.25,1.13,5.65,3.39,1.13a40.51,40.51,0,0,0,4.52,8.48l-1.13,3.39,4,4.52L226,574a23.66,23.66,0,0,0,7.91,5.09l.56,3.39,5.65,1.69,2.82-2.26a54.4,54.4,0,0,0,9.61.57l2.26,2.82,5.65-1.13,1.13-3.39a40.21,40.21,0,0,0,8.47-4.52l3.39,1.13,4.52-3.95-.56-3.39a23.89,23.89,0,0,0,5.08-7.91l3.39-.57,1.69-5.65-2.25-2.82A52.18,52.18,0,0,0,285.88,543.5Zm-35.59,22a19.21,19.21,0,1,1,19.21-19.21C268.93,557.05,260.46,565.53,250.29,565.53Z"/><line class="cls-7" x1="41.26" y1="338.99" x2="139" y2="338.99"/><line class="cls-7" x1="70.07" y1="372.88" x2="167.24" y2="372.88"/></g></svg>