<svg id="图层_1" data-name="图层 1" xmlns="http://www.w3.org/2000/svg" xmlns:xlink="http://www.w3.org/1999/xlink" viewBox="0 0 800 800"><defs><style>.cls-1,.cls-6{fill:none;}.cls-2{fill:#f8f9fa;}.cls-3{clip-path:url(#clip-path);}.cls-4,.cls-5{fill:#fff;}.cls-5,.cls-6,.cls-7{stroke:#000;stroke-miterlimit:10;stroke-width:1.5px;}.cls-7,.cls-9{fill:#40adff;}.cls-8{fill:#ffc607;}</style><clipPath id="clip-path"><circle class="cls-1" cx="400" cy="400" r="338.96"/></clipPath></defs><circle class="cls-2" cx="400" cy="400" r="338.96"/><g class="cls-3"><path class="cls-4" d="M426.55,218.65c0-26.55,37.85-48.58,64.4-48.58h113V468.36H478.53c-4.52,0-9,2.26-12.43,5.65-10.17,11.86-24.29,18.64-39.55,18.64S397.18,485.87,387,474a16.2,16.2,0,0,0-12.43-5.65H249.16V170.07h113c26.55,0,64.4,21.47,64.4,48.58"/><path class="cls-5" d="M426.55,218.65c0-26.55,37.85-48.58,64.4-48.58h113V468.36H478.53c-4.52,0-9,2.26-12.43,5.65-10.17,11.86-24.29,18.64-39.55,18.64S397.18,485.87,387,474a16.2,16.2,0,0,0-12.43-5.65H249.16V240.12m0-41.8V170.07h113c26.55,0,64.4,21.47,64.4,48.58"/><line class="cls-6" x1="280.23" y1="228.82" x2="358.19" y2="228.82"/><line class="cls-6" x1="294.35" y1="259.33" x2="391.53" y2="259.33"/><line class="cls-6" x1="426.55" y1="217.52" x2="426.55" y2="353.11"/><polyline class="cls-6" points="309.61 383.05 290.97 402.82 309.61 420.9"/><polyline class="cls-6" points="362.15 383.05 381.36 402.82 362.15 420.9"/><line class="cls-6" x1="351.98" y1="375.14" x2="320.34" y2="427.12"/><path class="cls-7" d="M109.62,553.66h0a54.49,54.49,0,0,1-54.8-54.8V421.47a18.81,18.81,0,0,1,18.64-18.65h72.32a18.81,18.81,0,0,1,18.64,18.65v77.39C164.42,528.81,139.56,553.66,109.62,553.66Z"/><polyline class="cls-6" points="249.16 214.7 109.62 214.7 109.62 448.58"/><line class="cls-6" x1="54.82" y1="448.58" x2="164.42" y2="448.58"/><rect class="cls-7" x="370.06" y="552.53" width="354.78" height="75.14"/><line class="cls-6" x1="690.38" y1="589.82" x2="690.38" y2="627.67"/><line class="cls-6" x1="657.05" y1="607.33" x2="657.05" y2="627.67"/><line class="cls-6" x1="624.28" y1="601.68" x2="624.28" y2="627.67"/><line class="cls-6" x1="590.95" y1="583.61" x2="590.95" y2="627.67"/><circle class="cls-8" cx="337.86" cy="553.66" r="57.06"/><rect class="cls-9" x="459.32" y="214.7" width="107.9" height="138.41"/><rect class="cls-9" x="459.32" y="375.14" width="107.9" height="51.97"/></g></svg>