<svg id="图层_1" data-name="图层 1" xmlns="http://www.w3.org/2000/svg" viewBox="0 0 800 800"><defs><style>.cls-1,.cls-5{fill:#ffc607;}.cls-1,.cls-3,.cls-4,.cls-6,.cls-7,.cls-8{stroke:#000;stroke-width:1.5px;}.cls-1,.cls-3,.cls-4,.cls-8{stroke-miterlimit:10;}.cls-2{fill:#f2f2f2;}.cls-3,.cls-6{fill:none;}.cls-4{fill:#40adff;}.cls-6,.cls-7{stroke-linecap:round;stroke-linejoin:round;}.cls-7{fill:#fff;}.cls-8{fill:#b8ecff;}</style></defs><path class="cls-1" d="M691.11,587.12H538V501.63a11.88,11.88,0,0,1,12-12h129.2a11.88,11.88,0,0,1,12,12v85.49Z"/><path class="cls-2" d="M677.75,585.44H551.33V513.33a11.9,11.9,0,0,1,12-12H665.78a11.88,11.88,0,0,1,12,12v72.11Z"/><path class="cls-1" d="M693.06,594.91H535.74a13.07,13.07,0,0,1-13.08-13.09H706.15A13.08,13.08,0,0,1,693.06,594.91Z"/><path class="cls-1" d="M262.31,587.12H109.16V501.63a11.88,11.88,0,0,1,12-12h129.2a11.88,11.88,0,0,1,12,12v85.49Z"/><path class="cls-2" d="M248.94,585.44H122.53V513.33a11.89,11.89,0,0,1,12-12H237a11.88,11.88,0,0,1,12,12v72.11Z"/><path class="cls-1" d="M264.26,594.91H106.94a13.08,13.08,0,0,1-13.09-13.09h183.5A13.08,13.08,0,0,1,264.26,594.91Z"/><path class="cls-3" d="M175.43,420.05l-.27-84.93c0-8.91,7.23-15.87,16.42-15.87H308.53"/><path class="cls-3" d="M622.9,420.05l.27-84.93c0-8.91-7.24-15.87-16.42-15.87H489.8"/><path class="cls-4" d="M450.82,163.32v61.82a5.29,5.29,0,0,1-5.29,5.29H424.64a5.28,5.28,0,0,0-5.29,5.29V251h57.36a12.48,12.48,0,0,1,12.53,12.53v88.55a12.24,12.24,0,0,1-12.53,12.25H313.82a12.42,12.42,0,0,1-12.53-12.25V263.56A12.48,12.48,0,0,1,313.82,251h57.36V235.72a5.28,5.28,0,0,0-5.29-5.29H345a5.28,5.28,0,0,1-5.29-5.29V163.32"/><path class="cls-5" d="M426.31,300.87l6.41-3.06-1.39-7.8-7-.55a25.25,25.25,0,0,0-3.62-6.69l3.62-6.12-5.56-5.57-6.13,3.62a26.35,26.35,0,0,0-12-4.73L399,263h-7.8l-1.67,7.24a28.87,28.87,0,0,0-7,2.22L377,267.74l-6.41,4.46,2.51,7a23.22,23.22,0,0,0-4.45,5.84l-7.24-.83-2.79,7.24,6.13,4.18a30.65,30.65,0,0,0-.56,5.29v2.22l-6.4,3.62,1.94,7.52H367a50,50,0,0,0,3.9,6.41l-3.06,6.4,6.13,5,5.84-4.18a31.16,31.16,0,0,0,7,3.07l1.12,7,7.79.56,2.23-6.69a36.28,36.28,0,0,0,7.52-1.67l5,5,6.68-3.89-1.94-6.69a51.5,51.5,0,0,0,5.29-5.56l7,1.39,3.34-7L425.48,309C425.76,305.89,426.31,303.38,426.31,300.87Zm-11.69-.27a19.49,19.49,0,1,1-19.49-19.5A19.37,19.37,0,0,1,414.62,300.6Z"/><line class="cls-6" x1="399.03" y1="363.8" x2="399.03" y2="447.61"/><circle class="cls-7" cx="127.26" cy="616.35" r="20.05"/><circle class="cls-7" cx="309.09" cy="616.63" r="20.05"/><circle class="cls-7" cx="491.19" cy="615.8" r="20.05"/><circle class="cls-7" cx="672.74" cy="616.07" r="20.05"/><line class="cls-6" x1="69.07" y1="596.3" x2="730.93" y2="595.19"/><rect class="cls-8" x="360.04" y="414.76" width="80.19" height="96.9"/></svg>