<svg id="图层_1" data-name="图层 1" xmlns="http://www.w3.org/2000/svg" xmlns:xlink="http://www.w3.org/1999/xlink" viewBox="0 0 800 800"><defs><style>.cls-1,.cls-17,.cls-2,.cls-21{fill:none;}.cls-10,.cls-12,.cls-14,.cls-2,.cls-20,.cls-21,.cls-23,.cls-27,.cls-3,.cls-7,.cls-8,.cls-9{stroke:#000;stroke-width:1.5px;}.cls-12,.cls-2,.cls-20,.cls-27{stroke-linecap:round;}.cls-12,.cls-2,.cls-20{stroke-linejoin:round;}.cls-18,.cls-3{fill:#b8ecff;}.cls-10,.cls-14,.cls-17,.cls-21,.cls-23,.cls-27,.cls-3,.cls-7,.cls-8,.cls-9{stroke-miterlimit:10;}.cls-4{opacity:0.65;}.cls-12,.cls-23,.cls-26,.cls-27,.cls-5{fill:#fff;}.cls-20,.cls-6,.cls-8{fill:#40adff;}.cls-24,.cls-7{fill:#dbdbdb;}.cls-9{fill:#fafafa;}.cls-10{fill:#ffc607;}.cls-11{clip-path:url(#clip-path);}.cls-13{fill:#c1c1c1;}.cls-14{fill:#ffc609;}.cls-15{fill:#f2f2f2;}.cls-16{fill:#5576b5;}.cls-17{stroke:#fff;}.cls-19{fill:#ff844d;}.cls-22{clip-path:url(#clip-path-2);}.cls-25{fill:#090909;}.cls-26{opacity:0.19;}</style><clipPath id="clip-path"><rect class="cls-1" x="489.26" y="221.22" width="217.82" height="197.79" transform="translate(-66.41 183.69) rotate(-16.55)"/></clipPath><clipPath id="clip-path-2"><rect class="cls-1" x="87.98" y="256.9" width="260.72" height="367.67"/></clipPath></defs><line class="cls-2" x1="19.05" y1="633.39" x2="780.95" y2="633.39"/><polygon class="cls-3" points="277.96 633.39 84.25 633.39 69.25 501.82 262.96 501.82 277.96 633.39"/><g class="cls-4"><polygon class="cls-5" points="267.4 624.56 92.79 624.56 79.81 510.65 254.42 510.65 267.4 624.56"/></g><rect class="cls-6" x="188.63" y="624.56" width="138.91" height="8.83"/><rect class="cls-6" x="257.62" y="624.56" width="69.91" height="8.83"/><rect class="cls-7" x="392.33" y="556.57" width="284.1" height="76.81"/><rect class="cls-8" x="437.76" y="479.09" width="154.3" height="154.3"/><rect class="cls-3" x="437.75" y="479.09" width="38.58" height="38.58"/><polygon class="cls-9" points="476.33 440.51 476.33 479.09 437.75 479.09 437.75 517.67 399.19 517.67 399.19 440.51 476.33 440.51"/><polygon class="cls-10" points="694.88 577.2 662.44 577.2 646.22 605.29 662.44 633.39 694.88 633.39 711.1 605.29 694.88 577.2"/><polygon class="cls-3" points="549.87 445.98 715.23 396.7 694.57 280.58 529.21 329.85 549.87 445.98"/><g class="cls-4"><polygon class="cls-5" points="556.63 435.76 705.7 391.35 687.81 290.8 538.74 335.21 556.63 435.76"/></g><rect class="cls-6" x="498.94" y="433.94" width="128.92" height="9.08" transform="translate(-101.75 179.13) rotate(-16.59)"/><rect class="cls-6" x="500.27" y="443.08" width="64.89" height="9.08" transform="translate(-105.63 170.75) rotate(-16.59)"/><g class="cls-11"><ellipse class="cls-12" cx="554.62" cy="295.12" rx="9.28" ry="12.05" transform="translate(-54.31 140.52) rotate(-13.77)"/><ellipse class="cls-12" cx="631.38" cy="276.3" rx="9.28" ry="12.05" transform="translate(-47.63 158.25) rotate(-13.77)"/><rect class="cls-13" x="589.56" y="313.19" width="24.35" height="6.52" transform="translate(-58.04 152.35) rotate(-13.77)"/><rect class="cls-12" x="550.98" y="257.03" width="84.04" height="57.36" rx="9.55" transform="translate(-50.97 149.38) rotate(-13.77)"/><rect class="cls-6" x="560.84" y="268.14" width="64.32" height="35.14" rx="4.97" transform="translate(-50.97 149.38) rotate(-13.77)"/><rect class="cls-13" x="583.18" y="242.82" width="4.17" height="12.84" transform="translate(-42.51 146.49) rotate(-13.77)"/><path class="cls-12" d="M578.59,253.31H595a2.47,2.47,0,0,1,2.47,2.47v1.87a0,0,0,0,1,0,0H576.12a0,0,0,0,1,0,0v-1.87A2.47,2.47,0,0,1,578.59,253.31Z" transform="translate(-43.95 147.04) rotate(-13.77)"/><circle class="cls-14" cx="583.18" cy="240.74" r="6.67"/><rect class="cls-12" x="562.4" y="318.71" width="97.6" height="82.5" rx="8.36" transform="translate(-68.12 155.85) rotate(-13.77)"/><rect class="cls-6" x="565.73" y="325.65" width="84.04" height="40.98" rx="6.88" transform="translate(-64.93 154.63) rotate(-13.77)"/><rect class="cls-15" x="575.59" y="377.43" width="84.04" height="17.38" rx="2.64" transform="translate(-74.17 158.13) rotate(-13.77)"/><path class="cls-12" d="M653.62,319.11h2a2.69,2.69,0,0,1,2.69,2.69v11.56a2.69,2.69,0,0,1-2.69,2.69h-2a0,0,0,0,1,0,0V319.11A0,0,0,0,1,653.62,319.11Z" transform="translate(-61.05 174.33) rotate(-14.47)"/><path class="cls-12" d="M657.33,323.37s36.3-8.81,48.31,37.7l-7.75,2s-7.15-35.71-38.69-32.45Z"/><line class="cls-12" x1="665.9" y1="330.51" x2="665.76" y2="322.73"/><line class="cls-12" x1="673.72" y1="332.13" x2="676.23" y2="324.53"/><line class="cls-12" x1="680.59" y1="335.58" x2="685.21" y2="328.79"/><line class="cls-12" x1="686.67" y1="340.88" x2="692.76" y2="335.26"/><line class="cls-12" x1="691.53" y1="347.44" x2="698.99" y2="344"/><line class="cls-12" x1="695.28" y1="354.93" x2="703.09" y2="352.91"/><path class="cls-14" d="M695.66,347.41h5.56a3.67,3.67,0,0,1,3.67,3.67v11.59a0,0,0,0,1,0,0H692a0,0,0,0,1,0,0V351.08A3.67,3.67,0,0,1,695.66,347.41Z" transform="translate(-66.57 185.81) rotate(-14.47)"/><path class="cls-16" d="M700.81,356.54l.75,2.91a9,9,0,0,1,4.29,16.6l.75,2.91a11.93,11.93,0,0,0-5.79-22.42Z"/><path class="cls-16" d="M697.28,357.45l.75,2.92A9,9,0,0,0,702.31,377l.76,2.92a11.94,11.94,0,0,1-5.79-22.43Z"/><circle class="cls-12" cx="700.48" cy="363.01" r="6.46"/><circle class="cls-16" cx="700.48" cy="363.01" r="3.46"/><path class="cls-12" d="M553.26,339.66h2a2.69,2.69,0,0,1,2.69,2.69v11.56a2.69,2.69,0,0,1-2.69,2.69h-2a0,0,0,0,1,0,0V339.66A0,0,0,0,1,553.26,339.66Z" transform="translate(1179.68 549.29) rotate(165.8)"/><path class="cls-12" d="M554.25,352.34s-36.34,8.64-48.12-37.93l7.75-2s7,35.74,38.53,32.63Z"/><line class="cls-12" x1="545.72" y1="345.15" x2="545.82" y2="352.94"/><line class="cls-12" x1="537.91" y1="343.5" x2="535.36" y2="351.09"/><line class="cls-12" x1="531.05" y1="340.01" x2="526.4" y2="346.79"/><line class="cls-12" x1="525" y1="334.69" x2="518.88" y2="340.28"/><line class="cls-12" x1="520.17" y1="328.11" x2="512.69" y2="331.52"/><line class="cls-12" x1="516.45" y1="320.6" x2="508.63" y2="322.58"/><path class="cls-14" d="M510.51,312.84h5.56a3.67,3.67,0,0,1,3.67,3.67V328.1a0,0,0,0,1,0,0H506.84a0,0,0,0,1,0,0V316.51A3.67,3.67,0,0,1,510.51,312.84Z" transform="translate(1089.52 505.2) rotate(165.8)"/><path class="cls-16" d="M510.93,319l-.74-2.91A9,9,0,0,1,506,299.43l-.73-2.92A11.93,11.93,0,0,0,510.93,319Z"/><path class="cls-16" d="M514.47,318.07l-.74-2.92a9,9,0,0,0-4.21-16.61l-.74-2.92a11.93,11.93,0,0,1,5.69,22.45Z"/><circle class="cls-12" cx="511.29" cy="312.49" r="6.46"/><circle class="cls-16" cx="511.29" cy="312.49" r="3.46"/><path class="cls-5" d="M576.21,383.37a1.51,1.51,0,0,1-1.46-1.15l-.27-1.11a1.49,1.49,0,0,1,1.1-1.82l76-18.63a1.47,1.47,0,0,1,1.82,1.1l.28,1.11a1.52,1.52,0,0,1-1.11,1.83l-76,18.63A1.42,1.42,0,0,1,576.21,383.37Z"/><path d="M652,361.36a.75.75,0,0,1,.73.58l.28,1.11a.76.76,0,0,1-.56.92l-76,18.63-.18,0a.75.75,0,0,1-.73-.58l-.27-1.11a.75.75,0,0,1,.55-.92l76-18.63.18,0m0-1.5h0a2,2,0,0,0-.54.07l-76,18.63a2.21,2.21,0,0,0-1.39,1,2.28,2.28,0,0,0-.26,1.71l.27,1.11a2.26,2.26,0,0,0,2.19,1.72,2.42,2.42,0,0,0,.54-.06l76-18.63a2.29,2.29,0,0,0,1.39-1,2.24,2.24,0,0,0,.26-1.71l-.27-1.12a2.26,2.26,0,0,0-2.19-1.72Z"/><rect class="cls-12" x="591.59" y="405.86" width="21.06" height="64.18" transform="translate(-86.95 155.93) rotate(-13.77)"/><path class="cls-14" d="M623,466.38a13.54,13.54,0,0,0-26.3,6.44"/><rect class="cls-16" x="586.91" y="426.11" width="27.08" height="10.03" rx="2.85" transform="translate(-85.37 155.34) rotate(-13.77)"/><rect class="cls-12" x="643.22" y="393.2" width="21.06" height="64.18" transform="translate(-82.45 167.86) rotate(-13.77)"/><path class="cls-14" d="M674.65,453.73a13.54,13.54,0,0,0-26.3,6.44"/><rect class="cls-16" x="638.54" y="413.46" width="27.08" height="10.03" rx="2.85" transform="translate(-80.88 167.26) rotate(-13.77)"/><line class="cls-17" x1="601.01" y1="295.03" x2="590.29" y2="297.7"/><circle class="cls-18" cx="575" cy="289.15" r="3.13"/><circle class="cls-18" cx="609.77" cy="280.49" r="3.13"/></g><ellipse class="cls-19" cx="420.21" cy="229.95" rx="32.48" ry="105.34" transform="translate(10.96 478.89) rotate(-60)"/><circle class="cls-3" cx="422.92" cy="233.07" r="66.47"/><path class="cls-20" d="M454.94,263.76H443.38V225.51c0-1.19.09-4.15.29-8.89v-4.75l-.29-.29a99.23,99.23,0,0,1-2.67,10.67q-.88,3.56-12.45,41.51H417.88q-12.17-37.95-13.05-40.92-1.18-3.26-3.26-11h-.3q.3,2.38.3,14.83v37.06H390.9V202.38h17.79q12.45,40.92,12.75,42.4.88,4.75,1.18,6.82h.3a44.11,44.11,0,0,1,1.19-6.52q.58-2.07,12.45-42.7h18.38Z"/><path class="cls-21" d="M489,240.07c18.48,17.52,27.63,33.53,22.41,42.55s-23,9.1-46.83,2.21c-17.86-5.14-39-14.28-60.63-26.75a298.06,298.06,0,0,1-47-33.18c-22.13-19.47-33.66-37.73-27.95-47.62,5.8-10.05,27.95-9,56.51.85"/><g class="cls-22"><path class="cls-23" d="M294.45,381.39l35.86-64.85L340,301.3a8.26,8.26,0,0,0-1.34-10.47L332,284.61l5.79-12c.81-1.52.77-4.44-1.32-4.56-1.17-.06-2.21,1.19-2.8,2.06l-1.42,2.11-4.51,6.71-4.45,6.62-1.69,2.51-2.15-6.27a3,3,0,0,0-2.81-2.08,1.83,1.83,0,0,0-1.83,2.14l1.38,7.84.34,6a4.34,4.34,0,0,0,.74,2.19l-.07.09-46,57.44"/><path class="cls-23" d="M333.05,283.53l-.08.23-4.89,12.86a2.72,2.72,0,0,0,1.15,3.3l.75.46a.88.88,0,0,0,1.24-.39l5.45-12.08a2.22,2.22,0,0,0-.92-2.78Z"/><path class="cls-23" d="M338.26,303.83a2.92,2.92,0,0,1-3.1-3.85l0,0,3.27-8.64a2.85,2.85,0,0,1,4.08-1.36l.4.23a2.67,2.67,0,0,1,1.17,3.36l-4.29,9.16A3.08,3.08,0,0,1,338.26,303.83Z"/><path class="cls-23" d="M334.62,302.36a2.92,2.92,0,0,1-3.1-3.84l0,0,4-10.18a2.86,2.86,0,0,1,4.08-1.37l.4.23a2.66,2.66,0,0,1,1.16,3.37l-5,10.7A3.08,3.08,0,0,1,334.62,302.36Z"/><path class="cls-23" d="M330.52,300.32c-2.09.41-3.81-2-3.09-4l0,0,4-10.58a2.83,2.83,0,0,1,4.08-1.44l.41.24a2.8,2.8,0,0,1,1.15,3.49l-5,11.13A3.16,3.16,0,0,1,330.52,300.32Z"/><path class="cls-16" d="M135.91,605.47l-5.83,2-33.4,12.22c-2.21.81-2.21-5.28-1.09-7.35l26.24-48.16a2.83,2.83,0,0,1,3.88-1.1l24.44,13Z"/><path class="cls-5" d="M100.75,612.9a.64.64,0,0,1-.25-.85l26.06-48.42a.63.63,0,0,1,.86-.26h0a.64.64,0,0,1,.25.85l-26.06,48.43a.64.64,0,0,1-.86.25Z"/><path class="cls-5" d="M130.48,586a5.4,5.4,0,0,1-.77-.51,5.53,5.53,0,1,1,.77.51Zm4.71-8.54a4.33,4.33,0,1,0,.59.4A5.57,5.57,0,0,0,135.19,577.5Z"/><path class="cls-5" d="M129.77,608.06a.65.65,0,0,1-.29-.34L127,600.83a.64.64,0,0,1,.39-.81.62.62,0,0,1,.8.38l2.47,6.89a.63.63,0,0,1-.38.81A.59.59,0,0,1,129.77,608.06Z"/><path class="cls-5" d="M124.49,609.87a.65.65,0,0,1-.29-.34l-2.47-6.9a.63.63,0,0,1,.38-.81.64.64,0,0,1,.81.39l2.47,6.89a.63.63,0,0,1-.38.81A.67.67,0,0,1,124.49,609.87Z"/><path class="cls-5" d="M119.38,611.49a.61.61,0,0,1-.29-.34l-2.47-6.89a.63.63,0,0,1,1.19-.43l2.47,6.89a.63.63,0,0,1-.38.81A.59.59,0,0,1,119.38,611.49Z"/><rect x="77.19" y="588.16" width="64.28" height="5.19" rx="0.65" transform="translate(682.96 769.33) rotate(117.78)"/><path class="cls-16" d="M157.65,678.3l3,5.41,17.65,30.87c1.17,2-4.83,3.07-7.06,2.31L119.34,699.1a2.83,2.83,0,0,1-1.73-3.64l8.69-26.27Z"/><path class="cls-5" d="M170.87,711.72a.64.64,0,0,1-.8.39L118,694.53a.62.62,0,0,1-.39-.8h0a.64.64,0,0,1,.8-.39l52.1,17.58a.63.63,0,0,1,.4.8Z"/><path class="cls-5" d="M139.41,686.91a5.82,5.82,0,0,1-.38.85,5.51,5.51,0,1,1,.38-.85Zm-9.21-3.2a4.15,4.15,0,0,0-.07,2.56,4.24,4.24,0,1,0,.36-3.22A3.89,3.89,0,0,0,130.2,683.71Z"/><path class="cls-5" d="M161.23,683.92a.64.64,0,0,1-.29.34l-6.38,3.59a.63.63,0,0,1-.86-.24.64.64,0,0,1,.24-.86l6.38-3.59a.64.64,0,0,1,.87.24A.63.63,0,0,1,161.23,683.92Z"/><path class="cls-5" d="M163.9,688.82a.61.61,0,0,1-.29.34l-6.38,3.6a.64.64,0,0,1-.62-1.11l6.38-3.59a.63.63,0,0,1,.86.24A.6.6,0,0,1,163.9,688.82Z"/><path class="cls-5" d="M166.36,693.59a.64.64,0,0,1-.29.34l-6.38,3.59a.63.63,0,0,1-.62-1.1l6.38-3.59a.64.64,0,0,1,.91.76Z"/><rect x="115.46" y="704.38" width="64.28" height="5.19" rx="0.65" transform="translate(227.27 -10.84) rotate(18.13)"/><path class="cls-5" d="M137,607.66c-2.06-1.14-4.18-2.6-4.16-3.72a.78.78,0,0,1,.34-.62c1.14-.83,8.53-.17,9.56.15a3.16,3.16,0,0,1,2.08,4,3.18,3.18,0,0,1-4,2.08A36.19,36.19,0,0,1,137,607.66Zm-2.71-3.39c1,1.13,5.42,3.55,6.94,4a1.9,1.9,0,0,0,2.38-1.25,1.9,1.9,0,0,0-1.25-2.38A36,36,0,0,0,134.28,604.27Z"/><path class="cls-5" d="M132.28,615a3.2,3.2,0,0,1-.61-.43,3.17,3.17,0,0,1-1-2.19c0-.68,1.23-8.87,2.74-9a1.22,1.22,0,0,1,.91.35c1.46,1.31,2.62,7.08,2.67,8.32h0a3.12,3.12,0,0,1-.82,2.28,3.17,3.17,0,0,1-2.19,1A3.1,3.1,0,0,1,132.28,615Zm1.32-10.16a31.68,31.68,0,0,0-1.69,7.48,1.9,1.9,0,0,0,2,1.81,1.9,1.9,0,0,0,1.81-2h0C135.63,610.61,134.44,605.91,133.6,604.88Z"/><path class="cls-12" d="M282.92,542.33l-20.61-53.94c-.2-.36-23.62-15-23.62-15-.29-.23-5-1.84-5.29-2l-41.67-31.25-8.25,8.33a62.1,62.1,0,0,0-16.34,29.57l-20.28,86.76L146,565a3.16,3.16,0,0,0-2.7,2.26l-14.17,49a3.16,3.16,0,0,0,3.57,4L134,620l-11.65,49.86a1.74,1.74,0,0,0,1.2,2.08l43.39,12.86a3.5,3.5,0,0,0,4.33-2.3l23-72.91L255.3,599A38.87,38.87,0,0,0,282.92,542.33ZM210.31,558.5l5.07-16.1,13,14.29Z"/><line class="cls-12" x1="225.79" y1="510.48" x2="192.78" y2="614.17"/><line class="cls-12" x1="215.49" y1="542.17" x2="236.2" y2="565.02"/><line class="cls-12" x1="147.6" y1="561.73" x2="133.62" y2="621.53"/><path class="cls-23" d="M247.85,347.79l-1.78,17.91a2.84,2.84,0,0,1,0,.42.36.36,0,0,1,0,.15A13,13,0,0,1,233,377.58a1.29,1.29,0,0,1-.34,0h-.3a12.7,12.7,0,0,1-12.11-13.34l0-.93.2-4.56L221,344.1Z"/><path class="cls-23" d="M246.34,323.39a9.2,9.2,0,0,0,9.52,8.79c5-.27,9.7-4.77,9.4-9.89a9.19,9.19,0,0,0-9.52-8.79C250.78,313.77,246,318.27,246.34,323.39Z"/><path class="cls-24" d="M245.17,364.8s-17.09-4.41-19.68-18.63c-1.2-6.54,21.42,1.8,21.42,1.8Z"/><path class="cls-23" d="M238.81,355.23h0c12.57-1.55,21.66-13.08,20.7-23.72l-2.13-22.26c-1.2-13.34-12.44-23.38-25.39-22.69h0c-13.27.72-29.31,13-28.51,26.73l5.47,16.8C210.62,345.69,223.64,356,238.81,355.23Z"/><path class="cls-23" d="M195.49,326c.29,5.07,5.47,8.83,10.38,8.56a9,9,0,0,0,8.36-9.65c-.29-5.07-6.43-8.69-11.34-8.43S195.19,320.92,195.49,326Z"/><path class="cls-23" d="M208.63,328.32s-1.86-6.9-8.41-5"/><path class="cls-2" d="M246,316.46l3.73,8.56a1.24,1.24,0,0,1-.3,1.78l-2,1.36"/><path class="cls-2" d="M237.34,334.19a12.35,12.35,0,0,0,10.51,3.39"/><path class="cls-25" d="M214.77,322.31c8.3-11.17,7.34-18.91,7.18-24.66l-.08-3s7.2,4.17,16.65-1.28c0,0,11.71-3.88,14.63,5.8a2.56,2.56,0,0,1,.16-.24c1.52-2.23,12.85-27-3.31-21.67-3.75,1.24-2-6.57-7.37-5.31-7.51,1.76-8.83,7.73-8.83,7.73s-4.85-11.66-18.06-5.46-8.27,14.83-8.27,14.83-13.05,5.81-11.94,15.39a47.78,47.78,0,0,0,3.75,13.08c1.51-1.66,4.6-1.55,7-1.76Z"/><path class="cls-6" d="M256.28,315.48c-1.54-.28-3.16-.88-4.86-1.09a15,15,0,0,0-6.66.64l-1.85,1.33a13.94,13.94,0,0,1-12.77,2,7.87,7.87,0,0,1-1.46-.66,9.47,9.47,0,0,1-4.21-7l-.12-1c-.56-5,2.56-9.44,7-9.94l23.46-2.64c4.41-.5,8.44,3.15,9,8.14l.12,1a10.69,10.69,0,0,1-2,7.16A5.12,5.12,0,0,1,256.28,315.48Z"/><path class="cls-19" d="M258.85,310.34a5.28,5.28,0,0,1-4.72,1.63c-1-.1-2.1-.32-3.16-.47a12.86,12.86,0,0,0-1.74-.19H249c-2.25,0-4.35.94-6.43,1.84h0v0l-1.54.63-.06,0c-4.28,1.5-12.06,1.22-12.15-5.09a6.64,6.64,0,0,1,5.77-6.47L246,301l1.88-.22,5.41-.61a4.11,4.11,0,0,1,.78,0,6.85,6.85,0,0,1,1.69.26C259.71,301.58,262.26,306.62,258.85,310.34Z"/><path class="cls-6" d="M223.91,312.44l-16.28,4.88a2.2,2.2,0,0,1-2.83-2.08v-.1a2.22,2.22,0,0,1,1.59-2.15l16.28-4.77a2.19,2.19,0,0,1,2.62,1.2h0A2.2,2.2,0,0,1,223.91,312.44Z"/><polygon class="cls-26" points="233.41 314.04 231.73 313.41 237.63 301.92 239.61 301.69 233.41 314.04"/><polygon class="cls-26" points="240.99 313.8 240.93 313.83 240.4 313.98 245.95 300.99 247.83 300.77 242.54 313.15 242.53 313.15 242.53 313.17 240.99 313.8"/><path class="cls-26" d="M255.71,300.39,251,311.5a12.86,12.86,0,0,0-1.74-.19L254,300.13A6.85,6.85,0,0,1,255.71,300.39Z"/><path class="cls-6" d="M270,347.56l-16,19c-.77-.23-1.55-.44-2.35-.61l-16.15-3.42c-7-1.48-13.89-3.66-21.07-3.74-6.6-.08-14.64.68-20.82,3A33.31,33.31,0,0,0,174.87,380L164.82,404a4.34,4.34,0,0,0,2.68,5.82L177,412.9l-14.61,74.93,103.68,12.11c3.21.71,1.42-13.57.53-16.73L271.43,427l33.62-50.82a2.59,2.59,0,0,0-.37-3.48l-32.19-25.3A1.75,1.75,0,0,0,270,347.56Z"/><path class="cls-12" d="M215.37,517.42c-1.35-5.06-8-18.84-8-18.84a34.86,34.86,0,0,0-4.59-6h0L200,483.2l-9.09-36.63,10-26.2-31.14-9.82L162,429.69a34,34,0,0,0-.45,24.2l13.21,36.81,2.81,9.16L178.91,520c.05,3.77,3.86,6.75,5.33,4.28-.7,2.83-.46,6.2,3.1,6.7,1.93.51,2.93-.67,3.54-2.23-.58,2.61-.65,5.27,2.27,5.91,3.07,1.15,4.5-1.13,5.27-3.65-.19,1.83.2,3.59,2.38,4.07,6.35.85,6-7.26,6.33-12.13,0-2.31,0-4.43.08-6.4a19.17,19.17,0,0,0,5.51,3.91,2.41,2.41,0,0,0,2.11.06,1.82,1.82,0,0,0,.78-1.42A4.89,4.89,0,0,0,215.37,517.42Z"/><path class="cls-2" d="M199.42,419.7l3.07,1.06a4,4,0,0,0,4.86-2l9.44-19"/><line class="cls-12" x1="273.96" y1="411.95" x2="270.11" y2="449.03"/><line class="cls-27" x1="199.32" y1="524.74" x2="198.42" y2="530.98"/><line class="cls-27" x1="192.78" y1="522.49" x2="190.88" y2="528.72"/><line class="cls-27" x1="187.1" y1="516.63" x2="184.24" y2="524.25"/></g><polyline class="cls-21" points="544.24 577.86 535.75 536.25 535.75 536.25 514.68 577.86 493.62 536.25 493.63 536.25 485.14 577.86"/><rect class="cls-8" x="529.03" y="529.84" width="12.84" height="12.84"/><rect class="cls-8" x="487.04" y="529.84" width="12.84" height="12.84"/><rect class="cls-8" x="508.27" y="571.77" width="12.84" height="12.84"/><rect class="cls-8" x="537.82" y="571.77" width="12.84" height="12.84"/><rect class="cls-8" x="479.16" y="571.77" width="12.84" height="12.84"/></svg>