<svg id="图层_1" data-name="图层 1" xmlns="http://www.w3.org/2000/svg" viewBox="0 0 800 800"><defs><style>.cls-1{opacity:0.8;}.cls-2,.cls-3,.cls-8{fill:#fff;}.cls-10,.cls-11,.cls-12,.cls-13,.cls-14,.cls-2,.cls-8,.cls-9{stroke:#000;}.cls-10,.cls-11,.cls-12,.cls-2,.cls-5{stroke-linecap:round;stroke-linejoin:round;}.cls-10,.cls-12,.cls-13,.cls-14,.cls-2,.cls-5,.cls-8,.cls-9{stroke-width:1.5px;}.cls-10,.cls-11,.cls-4,.cls-9{fill:#40adff;}.cls-12,.cls-14,.cls-5{fill:none;}.cls-5{stroke:#181818;}.cls-6{fill:#ff844d;}.cls-7{fill:#f2f2f2;}.cls-13,.cls-14,.cls-8,.cls-9{stroke-miterlimit:10;}.cls-11{stroke-width:1.5px;}.cls-13,.cls-16{fill:#ffc609;}.cls-15{fill:#dbdbdb;}.cls-17{fill:#efebf4;}</style></defs><g class="cls-1"><path class="cls-2" d="M674.6,605.26c.2-4.7.4-9.4.4-14.09,0-152-123.15-274.91-274.9-274.91S125.2,439.42,125.2,591.17c0,4.69.2,9.39.41,14.09Z"/></g><g class="cls-1"><path class="cls-3" d="M589.23,605.26a198.28,198.28,0,0,0,2.85-33.09c0-106-86-192-192-192s-192,86-192,192A195.33,195.33,0,0,0,211,605.26Z"/></g><path class="cls-4" d="M212.2,605.26H109.88a16.48,16.48,0,0,1-16.54-16.55h0a16.47,16.47,0,0,1,16.54-16.54H212.41v33.09Z"/><path class="cls-3" d="M109.88,599.54a10.83,10.83,0,0,1,0-21.65H212.2v21.85l-102.32-.2Z"/><line class="cls-5" x1="113.97" y1="584.83" x2="212.2" y2="584.83"/><line class="cls-5" x1="113.97" y1="592.39" x2="212.2" y2="592.39"/><path class="cls-6" d="M194.84,571.76H132.35a10,10,0,0,1-10-10h0a10,10,0,0,1,10-10h62.49Z"/><path class="cls-3" d="M132.35,568.29a6.74,6.74,0,1,1,0-13.48h62.49v13.28H132.35Z"/><line class="cls-5" x1="134.8" y1="559.3" x2="194.84" y2="559.3"/><line class="cls-5" x1="134.8" y1="564" x2="194.84" y2="564"/><circle class="cls-7" cx="564.31" cy="316.06" r="63.31"/><path class="cls-8" d="M323.1,183.92H283.69a1,1,0,0,1-1-1V145.11a1,1,0,0,1,1-1H323.1a1,1,0,0,1,1,1V182.9A1,1,0,0,1,323.1,183.92Z"/><path class="cls-8" d="M323.1,183.92H283.69a1,1,0,0,1-1-1V145.11a1,1,0,0,1,1-1H323.1a1,1,0,0,1,1,1V182.9A1,1,0,0,1,323.1,183.92Z"/><path class="cls-8" d="M339.65,199.85H300.23a1,1,0,0,1-1-1V161a1,1,0,0,1,1-1h39.42a1,1,0,0,1,1,1v37.79A1,1,0,0,1,339.65,199.85Z"/><path class="cls-9" d="M323.1,183.92H300.23a1,1,0,0,1-1-1V161a1,1,0,0,1,1-1H323.1a1,1,0,0,1,1,1V182.9A1,1,0,0,1,323.1,183.92Z"/><rect class="cls-10" x="610.06" y="196.38" width="27.37" height="63.72"/><rect class="cls-11" x="634.74" y="228.94" width="48" height="14.5" transform="translate(124.58 688.29) rotate(-59.97)"/><rect class="cls-10" x="676.43" y="197.19" width="14.5" height="62.9"/><path class="cls-12" d="M605.56,260.91H578.2a.87.87,0,0,1-.82-.81V196.38a.88.88,0,0,1,.82-.82h27.36a.88.88,0,0,1,.82.82V260.1C606.18,260.51,606,260.91,605.56,260.91Z"/><path class="cls-12" d="M623.74,236.41c-4.29,0-7.76-5.31-7.76-12s3.47-12.05,7.76-12.05,7.76,5.31,7.76,12.05S628,236.41,623.74,236.41Z"/><path class="cls-12" d="M591.88,232.73a.75.75,0,0,1-.61-.2l-7.76-7.76a.75.75,0,0,1-.21-.62.73.73,0,0,1,.21-.61l7.76-7.76a.73.73,0,0,1,.61-.21h0a.73.73,0,0,1,.61.21l7.76,7.76a.9.9,0,0,1,0,1l-7.76,7.76C592.29,232.73,592.08,232.73,591.88,232.73Z"/><path class="cls-13" d="M622.31,585.45a7.36,7.36,0,1,1,14.71,0Z"/><path class="cls-14" d="M646,425.53a11.9,11.9,0,0,1,8.78-3.68,12.51,12.51,0,0,1,12.46,12.46,12.74,12.74,0,0,1-1.83,6.54c-.21.2-.41.41-.62.41"/><line class="cls-14" x1="667.45" y1="455.76" x2="722.59" y2="509.06"/><line class="cls-14" x1="655.19" y1="585.45" x2="719.12" y2="538.06"/><path class="cls-14" d="M629.66,495.58a19.56,19.56,0,0,1-29.41-16.74,17.68,17.68,0,0,1,.82-5.72"/><path class="cls-10" d="M635.79,501.1l-42.07-33.91a6.8,6.8,0,0,1,.2-10.82l41.87-32.07a6.78,6.78,0,0,1,8.58.21l22.87,18.58a6.93,6.93,0,0,1,1.84,8.38l-22.67,47.59A7.09,7.09,0,0,1,635.79,501.1Z"/><path class="cls-10" d="M646.21,585.45h35.53a10,10,0,0,1,10,10h0a10,10,0,0,1-10,10h-70a10,10,0,0,1-10-10h0a10,10,0,0,1,10-10h34.52Z"/><path class="cls-14" d="M720.55,538.68a14.91,14.91,0,1,1,14.91-14.91A15,15,0,0,1,720.55,538.68Z"/><path class="cls-14" d="M718.1,533.77a8.17,8.17,0,1,1,8.17-8.16A8.18,8.18,0,0,1,718.1,533.77Z"/><rect class="cls-12" x="185.45" y="267.86" width="24.92" height="58"/><rect class="cls-12" x="170.74" y="267.86" width="14.71" height="58"/><rect class="cls-12" x="234.67" y="267.86" width="24.92" height="58"/><path class="cls-10" d="M235.28,327.5H210.37a.88.88,0,0,1-.82-.82V280.73a.88.88,0,0,1,.82-.82h24.91a.88.88,0,0,1,.82.82v45.95A.88.88,0,0,1,235.28,327.5Z"/><line class="cls-12" x1="193.01" y1="290.53" x2="202.61" y2="290.53"/><line class="cls-12" x1="242.02" y1="313" x2="251.83" y2="313"/><path class="cls-12" d="M273.88,339.14H155.22a6.54,6.54,0,0,1,0-13.07H273.88a6.58,6.58,0,0,1,6.54,6.53A6.87,6.87,0,0,1,273.88,339.14Z"/><path class="cls-12" d="M717.49,273.78H563.9a6.59,6.59,0,0,1-6.54-6.53,6.45,6.45,0,0,1,6.54-6.54H717.49a6.58,6.58,0,0,1,6.53,6.54A6.45,6.45,0,0,1,717.49,273.78Z"/><g class="cls-1"><rect class="cls-3" x="170.74" y="605.26" width="458.31" height="50.65"/></g><path class="cls-2" d="M269.19,425.94S289.81,516,304.52,530.51s23.69,11.84,27,6.74c3.27-5.31,5.51-24.31,1.22-32.27-4.28-7.76-39.62-75.37-42.27-82.11S269.19,423.08,269.19,425.94Z"/><path class="cls-2" d="M271.64,429.21s-8.38-4.29-14.91-15.53a133.64,133.64,0,0,1-11-22.26c-2.66-6.53-10-14.91-9.19-17.36.82-2.65,2.86-2.86,5.1-.41a63.25,63.25,0,0,1,8.79,12.05c2,3.88,3.67,5.11,4.08,4.09.21-1-2.86-5.31-5.72-11.23s-7.55-11.24-8.17-14.1c-.81-3.67,1.64-5.31,4.09-4.08s6.94,9.19,9.19,13.68,5.51,10.21,7.15,10.21-2-6.74-5.31-13.88-7.36-13.48-7.36-16.75,2.46-4.9,5.11-2,8.37,14.7,9.4,17.36,5.31,9.8,6.33,10c1.22.21-1-7.14-3.88-15.52s-5.31-14.7-2.25-16.34c1.84-.81,3.68.21,6.13,6.13s7.35,18.38,8.57,22.47,3.48,13.27,5.31,13.07,7.56-10.22,12.87-12.26c5.92-2.24,9.8.41,8.78,2.66-.61,1.43-5.92,3.67-7.76,7.76a40.09,40.09,0,0,0-4.08,16.34c-.41,8-2.86,22.26-4.7,23.28C286.55,427.57,271.64,429.21,271.64,429.21Z"/><path class="cls-4" d="M498.54,393.26c-16.54-20.83-67.6-23.9-67.6-23.9l-33.49.62-.21,1v-1.64s-42.27,4.5-62.49,18.39c-19,13.07-44.53,102.11-44.53,102.11l46,63.52L335,498l1.23,107.23H491.8l-1.43-106.82,7.77,20.22,62.29,19.61C560.63,538.06,515.29,414.3,498.54,393.26Z"/><path class="cls-3" d="M413.17,387.75c-10.41,0-16.95-4.91-18.79-14.1-1.22-6.94,0-30.43,0-31.45a1.4,1.4,0,0,1,1.43-1.43l38-2.86a1.37,1.37,0,0,1,1.43,1.23l1.43,10.41c.2,1,.61,5.11,1,9.6.61,6.13,1.43,13.89,1.64,15.12a4.51,4.51,0,0,1-1.43,3.88c-3.68,4.69-14.71,9.6-24.72,9.6Z"/><path d="M433.8,339.55,435.23,350c.41,2.45,2,22.67,2.45,24.92.82,4.29-12.66,11.23-24.71,11.23-8,0-15.32-3.27-17.16-12.66-1.22-6.94,0-31,0-31l38-2.86m0-3.07h0l-38,2.86A3.27,3.27,0,0,0,393,342.2c0,1-1.22,24.71,0,31.86,1.84,9.6,9.19,15.32,20.22,15.32,10.62,0,22.06-5.11,25.94-9.8a5.94,5.94,0,0,0,1.64-5.11c-.21-1.23-1-9.19-1.64-15.11-.41-5.31-.82-8.58-1-9.6l-1.43-10.42a2.92,2.92,0,0,0-2.86-2.86Z"/><path class="cls-15" d="M395.81,346.08l-.61,15.12s29,1.83,39.83-13.08l-.82-6.94Z"/><polygon class="cls-6" points="416.64 384.68 403.57 395.51 415.42 410.82 430.13 395.71 416.64 384.68"/><path class="cls-6" d="M432.37,470.67c-.2-2.45-1.22-7.56-2.65-14.1l-30,23.9a131.69,131.69,0,0,0,5.52,14.09l27.16-21.44Z"/><path class="cls-6" d="M415.62,398.16s-2.86,12.66-6.12,27.78l10.82-8.58C417.67,406.33,415.62,398.16,415.62,398.16Z"/><path class="cls-6" d="M423.39,429.21l-17.57,13.88c-1.84,8.58-3.68,16.55-5.11,22.27l26.35-20.84C425.84,439.62,424.61,434.31,423.39,429.21Z"/><path class="cls-6" d="M427.67,491.09,410.11,505c3.68,7.35,6.74,12.86,6.74,12.86S423,504,427.67,491.09Z"/><path class="cls-6" d="M420.32,417.36l-10.82,8.58c-1.23,5.72-2.45,11.64-3.88,17.36l17.56-13.89C422.36,425.12,421.34,421,420.32,417.36Z"/><path class="cls-6" d="M427.06,444.52l-26.35,20.84q-1.21,5.82-1.83,8c-.41,1.63,0,4.09.81,7.15l30-23.9C428.9,453.1,428.08,448.81,427.06,444.52Z"/><path class="cls-6" d="M432.37,472.91l-27.16,21.45c1.63,3.47,3.27,7.15,4.9,10.41l17.56-13.88C429.92,484.15,432,477.41,432.37,472.91Z"/><path class="cls-2" d="M394.38,362s14.3,16.34,21.86,18.18c7.35,2,23.28-17.77,23.28-17.77l14.5,9.19L445,410l-28.38-24.1-29.41,23.48L378,372.22Z"/><path class="cls-2" d="M371.51,285.22s-10,.41-11.85,7.15S362.32,311,375,309.52Z"/><path class="cls-2" d="M364.36,296s6.94,0,9.4,3.68"/><path class="cls-2" d="M458.11,286.85s10,0,12.05,6.74-2.05,18.79-14.71,17.77Z"/><path class="cls-2" d="M465.87,297.47s-6.95.21-9.19,3.88"/><path class="cls-2" d="M448.71,328.31h0a18.48,18.48,0,0,1-1.23,2.05h0C441.77,340,433,346.9,419.3,347.92c-18.38,1.43-29.82-5.92-37-16.95a43.57,43.57,0,0,1-3.26-6.13C366,296.66,373.55,253,373.55,253l80.06,1.43C453.82,254.58,463,301,448.71,328.31Z"/><path d="M368.24,251.32s-11,13.68,1,20.83c16.95,10,25.12-11.24,25.12-11.24s.21,11.85,13.48,8.58,9.6-10,9.6-10,.82,12.25,11.64,12.05a20.6,20.6,0,0,0,16.14-8.17s7.15,17.15,20.22,9.8,8.17-23.08,5.51-26.55c-1.63-2.25-5.1-9-3.88-11.44,3.68-8.17-13.48-24.71-29-20S423,224,409.91,218s-30.44,2.86-29.82,8.17c.61,5.11-9,2.45-13.48,8C362.32,239.88,368.24,251.32,368.24,251.32Z"/><polygon class="cls-15" points="417.46 318.1 411.74 317.9 414.4 292.98 406.43 317.69 417.46 318.1"/><polyline class="cls-12" points="414.4 292.98 411.74 317.9 417.46 318.1"/><path class="cls-2" d="M407.66,332s5.51,2,10.21.41"/><circle class="cls-2" cx="390.09" cy="293.59" r="17.56"/><circle class="cls-2" cx="438.91" cy="295.84" r="17.56"/><line class="cls-14" x1="407.66" y1="294.41" x2="421.14" y2="295.02"/><path class="cls-4" d="M312.69,578.3h0A30,30,0,0,1,277,555.22L249.78,430.84a4.16,4.16,0,0,1,3.27-5.11l50.24-11A4.15,4.15,0,0,1,308.4,418l27.16,124.38A29.89,29.89,0,0,1,312.69,578.3Z"/><line class="cls-12" x1="334.95" y1="538.06" x2="321.88" y2="478.02"/><polygon class="cls-16" points="391.73 446.77 403.78 551.75 475.26 539.49 461.37 437.17 391.73 446.77"/><polygon class="cls-17" points="459.54 439.01 394.18 448 402.35 452.49 468.93 443.3 459.54 439.01"/><polygon class="cls-16" points="402.35 452.49 414.6 557.47 486.09 545.21 472.2 442.89 402.35 452.49"/><polygon class="cls-16" points="391.73 446.77 402.35 452.49 414.6 557.47 403.78 551.75 391.73 446.77"/><path class="cls-2" d="M455.45,519.89l-3.06,15.52a29,29,0,0,1-14.3,2.86,131.29,131.29,0,0,1-23.08-4.7c-2.65-1.23-11.64-5.31-12.66-6.54-1.84-1.83-3.47-6.94-.61-6.94s10,3.88,9.19,3.06c-.62-1-10.42-4.49-11.24-5.31a12.43,12.43,0,0,1-2-4.49c0-.61-.61-3.27,2.45-2.25s10.21,3.68,10.21,3.68,4.7,1.43,2.25.41c-2.45-1.23-14.09-4.7-15.11-5.52-1.84-1.22-4.29-8.78-1.23-8.57s16.75,5.72,16.54,5.1c-.4-.61-8.37-3.06-11.64-4.49s-5.51-2-5.72-4.7c-.2-2.86.21-5.92,6.34-3.67,4.28,1.63,12.05,4.29,20.22,6.53a33.79,33.79,0,0,1-4.91-10.21c-1.22-5.51,0-10,3.07-6.74,1.43,1.43,5.1,7.56,8.78,11.23,4.9,5.11,8.78,9.19,11.44,11.64h0C447.28,510.7,455.45,519.89,455.45,519.89Z"/><path class="cls-10" d="M562.67,558.28h0a27.55,27.55,0,0,1-34.1,18.79L448.91,554a8.41,8.41,0,0,1-5.71-10.21l10.62-37A8.41,8.41,0,0,1,464,501.1l79.65,23.08A27.66,27.66,0,0,1,562.67,558.28Z"/><path class="cls-2" d="M390.09,605.26H253.66V534.39a18.22,18.22,0,0,1,18.18-18.18H371.92a18.21,18.21,0,0,1,18.17,18.18v70.87Z"/><circle class="cls-16" cx="321.88" cy="560.73" r="14.09"/><path class="cls-2" d="M244.27,599.33h9.39v5.93h-9.39a2.71,2.71,0,0,1-2.66-2.66V602A2.58,2.58,0,0,1,244.27,599.33Z"/><line class="cls-12" x1="44.32" y1="605.26" x2="755.68" y2="605.26"/></svg>