<svg id="图层_1" data-name="图层 1" xmlns="http://www.w3.org/2000/svg" viewBox="0 0 800 800"><defs><style>.cls-1,.cls-11,.cls-14,.cls-9{fill:none;}.cls-1,.cls-9{stroke:#000;}.cls-1,.cls-14,.cls-9{stroke-width:1.5px;}.cls-2,.cls-4{fill:#fff;}.cls-2{fill-opacity:0.8;}.cls-10,.cls-12,.cls-13,.cls-15,.cls-16,.cls-17,.cls-2,.cls-3,.cls-4,.cls-5,.cls-6,.cls-7,.cls-8{fill-rule:evenodd;}.cls-3{fill:#ffc609;}.cls-5{fill:#5576b5;}.cls-6{fill:#f2f2f2;}.cls-7{fill:#ff844d;}.cls-8{fill:#b8ecff;}.cls-9{stroke-linecap:round;stroke-linejoin:round;}.cls-10{fill:#40adff;}.cls-12{fill:#dbdbdb;}.cls-13{fill:#07005f;}.cls-14{stroke:#5576b5;}.cls-16{fill:#ffaeae;}.cls-17{fill:#7cc996;}</style></defs><g id="其他页面切图"><g id="编组备份-2"><path id="Stroke-1" class="cls-1" d="M146.11,204H102.4a17.85,17.85,0,0,0-17.8,17.8v51"/><g id="编组"><path id="Fill-3" class="cls-2" d="M631,436H172.09a19.93,19.93,0,0,1-20-20V153.56a19.92,19.92,0,0,1,20-20H631a19.92,19.92,0,0,1,20,20V416.05a19.8,19.8,0,0,1-20,20"/><path id="Stroke-5" class="cls-1" d="M631,436H172.09a19.93,19.93,0,0,1-20-20V153.56a19.92,19.92,0,0,1,20-20H631a19.92,19.92,0,0,1,20,20V416.05A19.8,19.8,0,0,1,631,436Z"/></g><polygon id="Fill-7" class="cls-3" points="137.61 217 152.25 217 152.25 190.69 137.61 190.69 137.61 217"/><polygon id="Stroke-9" class="cls-1" points="137.61 217 152.25 217 152.25 190.69 137.61 190.69 137.61 217"/><polygon id="Fill-10" class="cls-3" points="125.74 209.88 137.61 209.88 137.61 198.01 125.74 198.01 125.74 209.88"/><polygon id="Stroke-11" class="cls-1" points="125.74 209.88 137.61 209.88 137.61 198.01 125.74 198.01 125.74 209.88"/><polygon id="Fill-12" class="cls-3" points="651.12 329.75 665.75 329.75 665.75 303.45 651.12 303.45 651.12 329.75"/><polygon id="Stroke-13" class="cls-1" points="651.12 329.75 665.75 329.75 665.75 303.45 651.12 303.45 651.12 329.75"/><polygon id="Fill-14" class="cls-3" points="665.75 322.44 677.62 322.44 677.62 310.57 665.75 310.57 665.75 322.44"/><polygon id="Stroke-15" class="cls-1" points="665.75 322.44 677.62 322.44 677.62 310.57 665.75 310.57 665.75 322.44"/><path id="Stroke-16" class="cls-1" d="M677.82,316.5H688.7a16.8,16.8,0,0,1,16.81,16.81V489.78a16.79,16.79,0,0,1-16.81,16.81H101.21A16.79,16.79,0,0,1,84.4,489.78V337.86"/><polygon id="Fill-17" class="cls-3" points="71.34 416.2 97.65 416.2 97.65 401.56 71.34 401.56 71.34 416.2"/><polygon id="Stroke-18" class="cls-1" points="71.34 416.2 97.65 416.2 97.65 401.56 71.34 401.56 71.34 416.2"/><polygon id="Fill-19" class="cls-3" points="78.66 428.06 90.33 428.06 90.33 416.2 78.66 416.2 78.66 428.06"/><polygon id="Stroke-20" class="cls-1" points="78.66 428.06 90.33 428.06 90.33 416.2 78.66 416.2 78.66 428.06"/><polygon id="Fill-21" class="cls-3" points="71.34 283.07 97.65 283.07 97.65 268.43 71.34 268.43 71.34 283.07"/><polygon id="Stroke-22" class="cls-1" points="71.34 283.07 97.65 283.07 97.65 268.43 71.34 268.43 71.34 283.07"/><polygon id="Fill-23" class="cls-3" points="78.66 268.43 90.33 268.43 90.33 256.56 78.66 256.56 78.66 268.43"/><polygon id="Stroke-24" class="cls-1" points="78.66 268.43 90.33 268.43 90.33 256.56 78.66 256.56 78.66 268.43"/><path id="Fill-25" class="cls-4" d="M748.44,506.59a51.93,51.93,0,0,1-1,9.5l-7.72,2.17a29.2,29.2,0,0,1-4.54,8.91l3,7.51a43.15,43.15,0,0,1-9.69,8.31l-6.92-4a38.06,38.06,0,0,1-9.5,3.17l-3.16,7.32c-1.19,0-2.18.2-3.37.2a51.82,51.82,0,0,1-9.49-1L693.84,541a31.64,31.64,0,0,1-8.9-4.55l-7.51,3a42.89,42.89,0,0,1-8.31-9.69l4-6.93a38.23,38.23,0,0,1-3.16-9.49l-7.32-3.17c0-1.18-.2-2.17-.2-3.36a51.82,51.82,0,0,1,1-9.49l7.72-2.18a29,29,0,0,1,4.55-8.9l-3-7.52a43.41,43.41,0,0,1,9.69-8.31l6.92,4a38.45,38.45,0,0,1,9.5-3.16l3.16-7.32c1.19,0,2.18-.2,3.37-.2a51.82,51.82,0,0,1,9.49,1l2.18,7.71a32.75,32.75,0,0,1,9.1,4.55l7.32-3a43.1,43.1,0,0,1,8.3,9.69l-4,6.92a38.31,38.31,0,0,1,3.16,9.5l7.32,3.16a17.92,17.92,0,0,1,.2,3.36"/><path id="Stroke-26" class="cls-1" d="M748.44,506.59a51.93,51.93,0,0,1-1,9.5l-7.72,2.17a29.2,29.2,0,0,1-4.54,8.91l3,7.51a43.15,43.15,0,0,1-9.69,8.31l-6.92-4a38.06,38.06,0,0,1-9.5,3.17l-3.16,7.32c-1.19,0-2.18.2-3.37.2a51.82,51.82,0,0,1-9.49-1L693.84,541a31.64,31.64,0,0,1-8.9-4.55l-7.51,3a42.89,42.89,0,0,1-8.31-9.69l4-6.93a38.23,38.23,0,0,1-3.16-9.49l-7.32-3.17c0-1.18-.2-2.17-.2-3.36a51.82,51.82,0,0,1,1-9.49l7.72-2.18a29,29,0,0,1,4.55-8.9l-3-7.52a43.41,43.41,0,0,1,9.69-8.31l6.92,4a38.45,38.45,0,0,1,9.5-3.16l3.16-7.32c1.19,0,2.18-.2,3.37-.2a51.82,51.82,0,0,1,9.49,1l2.18,7.71a32.75,32.75,0,0,1,9.1,4.55l7.32-3a43.1,43.1,0,0,1,8.3,9.69l-4,6.92a38.31,38.31,0,0,1,3.16,9.5l7.32,3.16A17.92,17.92,0,0,1,748.44,506.59Z"/><path id="Fill-27" class="cls-5" d="M722.13,506.59A16.62,16.62,0,1,1,705.51,490a16.59,16.59,0,0,1,16.62,16.61"/><polygon id="Fill-28" class="cls-3" points="441.24 257.36 441.24 203.95 466.56 203.95 472.3 209.69 514.04 209.69 514.04 257.36 441.24 257.36"/><polygon id="Stroke-29" class="cls-1" points="441.24 257.36 441.24 203.95 466.56 203.95 472.3 209.69 514.04 209.69 514.04 257.36 441.24 257.36"/><polygon id="Fill-30" class="cls-4" points="51.56 401.56 117.63 401.56 117.63 283.07 51.56 283.07 51.56 401.56"/><polygon id="Stroke-31" class="cls-1" points="51.56 401.56 117.63 401.56 117.63 283.07 51.56 283.07 51.56 401.56"/><polygon id="Fill-32" class="cls-6" points="58.29 393.65 110.71 393.65 110.71 370.9 58.29 370.9 58.29 393.65"/><polygon id="Fill-33" class="cls-7" points="58.29 366.55 110.71 366.55 110.71 343.6 58.29 343.6 58.29 366.55"/><polygon id="Fill-34" class="cls-7" points="58.29 339.45 110.71 339.45 110.71 316.5 58.29 316.5 58.29 339.45"/><polygon id="Fill-35" class="cls-6" points="58.29 312.15 110.71 312.15 110.71 289.4 58.29 289.4 58.29 312.15"/><path id="Fill-36" class="cls-4" d="M488.91,245.09a48,48,0,0,0-27.29,8.51,35.59,35.59,0,0,0-20.77-11.47,42.17,42.17,0,0,0,.59-7.13,48.07,48.07,0,0,0-96.13,0,41.92,41.92,0,0,0,1.38,11.28,51.54,51.54,0,0,0-11.08-1.39A47.74,47.74,0,0,0,287.55,293H537.18a48,48,0,0,0-48.27-47.87"/><path id="Stroke-37" class="cls-1" d="M488.91,245.09a48,48,0,0,0-27.29,8.51,35.59,35.59,0,0,0-20.77-11.47,42.17,42.17,0,0,0,.59-7.13,48.07,48.07,0,0,0-96.13,0,41.92,41.92,0,0,0,1.38,11.28,51.54,51.54,0,0,0-11.08-1.39A47.74,47.74,0,0,0,287.55,293H537.18A48,48,0,0,0,488.91,245.09Z"/><polyline id="Fill-38" class="cls-7" points="393.77 250.83 393.77 275.75 384.87 275.75 400.1 295.93 415.13 275.75 407.42 275.75 407.42 250.83"/><line id="Stroke-39" class="cls-1" x1="383.88" y1="250.83" x2="416.12" y2="250.83"/><path id="Fill-40" class="cls-5" d="M311.88,557.83H389a8.11,8.11,0,0,0,0-16.22H311.88a8,8,0,0,0-8.11,8.11,7.9,7.9,0,0,0,8.11,8.11"/><path id="Fill-41" class="cls-8" d="M258.67,557.83h91a9.44,9.44,0,0,0,8.9-12.07L315,395.82a9.32,9.32,0,0,0-8.9-6.72h-91a9.43,9.43,0,0,0-8.9,12.06L249.76,551.1a9.32,9.32,0,0,0,8.91,6.73"/><path id="Fill-42" class="cls-5" d="M258.67,557.83H355a8.11,8.11,0,0,0,0-16.22H258.67a8,8,0,0,0-8.11,8.11,8.14,8.14,0,0,0,8.11,8.11"/><path id="Fill-43" class="cls-4" d="M231.17,470.59l-1-.79A14.2,14.2,0,0,1,227,450l47.87-65.87A14.2,14.2,0,0,1,294.67,381l1,.79a14.2,14.2,0,0,1,3.16,19.78L251,467.43a13.88,13.88,0,0,1-19.78,3.16"/><path id="Stroke-44" class="cls-9" d="M231.17,470.59l-1-.79A14.2,14.2,0,0,1,227,450l47.87-65.87A14.2,14.2,0,0,1,294.67,381l1,.79a14.2,14.2,0,0,1,3.16,19.78L251,467.43A13.88,13.88,0,0,1,231.17,470.59Z"/><path id="Fill-45" class="cls-4" d="M424.23,472.77l1-.79a14.2,14.2,0,0,0,3.17-19.78l-47.87-65.87a14.2,14.2,0,0,0-19.78-3.17l-1,.79a14.2,14.2,0,0,0-3.17,19.78l47.87,65.87a14.23,14.23,0,0,0,19.78,3.17"/><path id="Stroke-46" class="cls-9" d="M424.23,472.77l1-.79a14.2,14.2,0,0,0,3.17-19.78l-47.87-65.87a14.2,14.2,0,0,0-19.78-3.17l-1,.79a14.2,14.2,0,0,0-3.17,19.78l47.87,65.87A14.23,14.23,0,0,0,424.23,472.77Z"/><path id="Fill-47" class="cls-10" d="M375.77,378.41c-7.32-8.3-38.57-19-38.57-19l-21.37.39v-.39s-31.05,10.68-38.57,19c-7.32,8.31-36.59,46.49-36.59,46.49l27.1,23.34,8.3-12.26.79,39.76h99.3L377,436l8.3,12.26,27.1-23.34c-.19,0-29.27-38-36.59-46.49"/><g id="编组-2" data-name="编组"><line id="Fill-48" class="cls-11" x1="276.61" y1="435.04" x2="290.45" y2="413.67"/><line id="Stroke-49" class="cls-9" x1="276.61" y1="435.04" x2="290.45" y2="413.67"/></g><path id="Fill-50" class="cls-4" d="M372,455.16c1-2.77-4-4.55-6.73-5.53-5.53-2-17.4-2-24.52-1.78-4.75.19-9.3,0-14.05-.2l-86.84-4.75a14.74,14.74,0,0,0,.2,29.47l85.06-5.14a43.78,43.78,0,0,1,18.2,2.77c7.32,2.77,16.81,5.93,18.79,5.54,4-1,2.37-5.74,2.37-5.74,3.56-2.37,1.78-6.33,1.78-6.33a4.45,4.45,0,0,0,1.78-6.33s2.58,1.39,4-2"/><path id="Stroke-51" class="cls-9" d="M372,455.16c1-2.77-4-4.55-6.73-5.53-5.53-2-17.4-2-24.52-1.78-4.75.19-9.3,0-14.05-.2l-86.84-4.75a14.74,14.74,0,0,0,.2,29.47l85.06-5.14a43.78,43.78,0,0,1,18.2,2.77c7.32,2.77,16.81,5.93,18.79,5.54,4-1,2.37-5.74,2.37-5.74,3.56-2.37,1.78-6.33,1.78-6.33a4.45,4.45,0,0,0,1.78-6.33S370.63,458.53,372,455.16Z"/><g id="编组-3" data-name="编组"><line id="Fill-52" class="cls-11" x1="368.13" y1="457.14" x2="363.58" y2="455.36"/><line id="Stroke-53" class="cls-9" x1="368.13" y1="457.14" x2="363.58" y2="455.36"/></g><g id="编组-4" data-name="编组"><line id="Fill-54" class="cls-11" x1="366.53" y1="463.54" x2="361.19" y2="461.56"/><line id="Stroke-55" class="cls-9" x1="366.53" y1="463.54" x2="361.19" y2="461.56"/></g><g id="编组-5" data-name="编组"><line id="Fill-56" class="cls-11" x1="364.52" y1="469.91" x2="358.79" y2="467.93"/><line id="Stroke-57" class="cls-9" x1="364.52" y1="469.91" x2="358.79" y2="467.93"/></g><path id="Fill-58" class="cls-4" d="M438.87,363.18s11.67-4.55,14-6.33,5.54,1.78,1.78,4c-3.36,2.37-12.66,3.36-15.82,2.37"/><path id="Stroke-59" class="cls-9" d="M438.87,363.18s11.67-4.55,14-6.33,5.54,1.78,1.78,4C451.33,363.18,442,364.17,438.87,363.18Z"/><path id="Fill-60" class="cls-4" d="M449.55,366.74s17.61-7.91,19-13.25-4.55-1-7.32,1.39c-2.77,2.17-14.44,10.08-14.44,10.08Z"/><path id="Stroke-61" class="cls-9" d="M449.55,366.74s17.61-7.91,19-13.25-4.55-1-7.32,1.39c-2.77,2.17-14.44,10.08-14.44,10.08Z"/><path id="Fill-62" class="cls-4" d="M470.91,355.07c-4.55.2-21.36,8.51-35.8,8.31-11.87-.2-15,13.25-15.63,16.62-.19.59-.19,1.38-.39,2l-17.41,76.35A14.86,14.86,0,1,0,431,463.47l7.32-75.17a21.24,21.24,0,0,1,8.5-14.83c4.55-3.36,10.29-5.93,15.63-8.11,9.69-4.15,13-10.48,8.5-10.29"/><path id="Stroke-63" class="cls-9" d="M470.91,355.07c-4.55.2-21.36,8.51-35.8,8.31-11.87-.2-15,13.25-15.63,16.62-.19.59-.19,1.38-.39,2l-17.41,76.35A14.86,14.86,0,1,0,431,463.47l7.32-75.17a21.24,21.24,0,0,1,8.5-14.83c4.55-3.36,10.29-5.93,15.63-8.11C472.1,361.21,475.46,354.88,470.91,355.07Z"/><path id="Fill-64" class="cls-4" d="M340,341.82l-2.58,18v.59a13.31,13.31,0,0,1-13.84,10.88h-.79a12.88,12.88,0,0,1-11.67-14v-1l.39-4.55,1.39-14.84Z"/><path id="Stroke-65" class="cls-1" d="M340,341.82l-2.58,18v.59a13.31,13.31,0,0,1-13.84,10.88h-.79a12.88,12.88,0,0,1-11.67-14v-1l.39-4.55,1.39-14.84Z"/><path id="Fill-66" class="cls-4" d="M311.68,351.71l-.4,4.55Z"/><polygon id="Fill-67" class="cls-12" points="336.21 357.64 320.98 349.14 337.39 350.52 336.21 357.64"/><path id="Fill-68" class="cls-4" d="M342.73,328.37a8,8,0,1,0,8.71-7.12,8.1,8.1,0,0,0-8.71,7.12"/><path id="Stroke-69" class="cls-1" d="M342.73,328.37a8,8,0,1,0,8.71-7.12A8.1,8.1,0,0,0,342.73,328.37Z"/><path id="Fill-70" class="cls-4" d="M330.07,352.11h0a21.12,21.12,0,0,0,23.15-19.59l1.19-18A17.26,17.26,0,0,0,337,295.93c-10.49-1-21.76,6.53-22.95,17l-1,19.39a19.11,19.11,0,0,0,17,19.78"/><path id="Stroke-71" class="cls-1" d="M330.07,352.11h0a21.12,21.12,0,0,0,23.15-19.59l1.19-18A17.26,17.26,0,0,0,337,295.93c-10.49-1-21.76,6.53-22.95,17l-1,19.39A19.11,19.11,0,0,0,330.07,352.11Z"/><polygon id="Fill-72" class="cls-13" points="317.61 328.17 312.87 339.05 313.26 332.32 317.61 328.17"/><g id="编组-6" data-name="编组"><polyline id="Fill-73" class="cls-4" points="339.63 325.1 339.83 331.23 337.85 331.04"/><polyline id="Stroke-74" class="cls-9" points="339.63 325.1 339.83 331.23 337.85 331.04"/></g><g id="编组-7" data-name="编组"><path id="Fill-75" class="cls-4" d="M330.67,337.87c0,1,.59,3.95,6.53,4.55,2.37.19,3.75-.79,4.35-1.78"/><path id="Stroke-76" class="cls-9" d="M330.67,337.87c0,1,.59,3.95,6.53,4.55,2.37.19,3.75-.79,4.35-1.78"/></g><polygon id="Fill-77" class="cls-4" points="415.73 646.64 392.19 646.44 392.38 614.6 415.92 614.79 415.73 646.64"/><polygon id="Stroke-78" class="cls-9" points="415.73 646.64 392.19 646.44 392.38 614.6 415.92 614.79 415.73 646.64"/><path id="Fill-79" class="cls-4" d="M338.78,487.8l-1.58,10.09a35.6,35.6,0,0,0,35.21,41.34h10.48v89.61l43.72.59L429,519.65a31.16,31.16,0,0,0-31.06-31.85Z"/><path id="Stroke-80" class="cls-1" d="M338.78,487.8l-1.58,10.09a35.6,35.6,0,0,0,35.21,41.34h10.48v89.61l43.72.59L429,519.65a31.16,31.16,0,0,0-31.06-31.85Z"/><path id="Fill-81" class="cls-5" d="M392,641.89c5.54,1.39,18.2,5.35,24.13-3.16l39.76,21.56-70.22-.39,3.16-15.83a2.58,2.58,0,0,1,3.17-2.18"/><polygon id="Fill-82" class="cls-5" points="455.88 666.42 385.66 666.03 385.66 659.89 455.88 660.29 455.88 666.42"/><path id="Fill-83" class="cls-4" d="M415.73,648.22a.42.42,0,0,0,.39-.39,24.1,24.1,0,0,1,5.14-5.34,1.15,1.15,0,1,0-1.18-2c-.2,0-3,2-5.74,5.93a1.21,1.21,0,0,0,.2,1.59.94.94,0,0,0,1.19.19"/><path id="Fill-84" class="cls-4" d="M421.07,651a.42.42,0,0,0,.39-.39,24,24,0,0,1,5.15-5.34,1.16,1.16,0,0,0-1.19-2c-.2,0-3,2-5.74,5.93a1.21,1.21,0,0,0,.2,1.59c.59.39,1,.39,1.19.19"/><path id="Fill-85" class="cls-4" d="M426.61,654a.43.43,0,0,0,.39-.39,24,24,0,0,1,5.14-5.35,1.23,1.23,0,0,0,.4-1.58,1.24,1.24,0,0,0-1.58-.39c-.2,0-3,2-5.74,5.93a1.18,1.18,0,0,0,.2,1.58,1.3,1.3,0,0,0,1.19.2"/><polygon id="Fill-86" class="cls-4" points="354.21 646.64 330.47 646.44 330.67 614.6 354.21 614.79 354.21 646.64"/><polygon id="Stroke-87" class="cls-9" points="354.21 646.64 330.47 646.44 330.67 614.6 354.21 614.79 354.21 646.64"/><path id="Fill-88" class="cls-5" d="M330.67,640.71c5.54,1.38,18,6.33,23.93-2.18l39.76,21.56-70-.59,3.36-16.81a2.3,2.3,0,0,1,3-2"/><polygon id="Fill-89" class="cls-5" points="394.36 666.03 324.34 665.63 324.34 659.5 394.56 659.89 394.36 666.03"/><path id="Fill-90" class="cls-4" d="M354.41,647.83a.43.43,0,0,0,.39-.4,24.1,24.1,0,0,1,5.14-5.34,1.23,1.23,0,0,0,.4-1.58,1.25,1.25,0,0,0-1.58-.4c-.2,0-3,2-5.74,5.94a1.2,1.2,0,0,0,.2,1.58.93.93,0,0,0,1.19.2"/><path id="Fill-91" class="cls-4" d="M359.75,650.6a.43.43,0,0,0,.39-.4,24.1,24.1,0,0,1,5.14-5.34,1.23,1.23,0,0,0,.4-1.58,1.25,1.25,0,0,0-1.58-.4c-.2,0-3,2-5.74,5.94a1.2,1.2,0,0,0,.2,1.58.93.93,0,0,0,1.19.2"/><path id="Fill-92" class="cls-4" d="M365.09,653.57a.43.43,0,0,0,.39-.4,24,24,0,0,1,5.15-5.34,1.16,1.16,0,0,0-1.19-2c-.2,0-3,2-5.74,5.94a1.2,1.2,0,0,0,.2,1.58,1.33,1.33,0,0,0,1.19.2"/><path id="Fill-93" class="cls-4" d="M277.06,487.8l-1.58,10.09a35.6,35.6,0,0,0,35.21,41.34h10.48v89.61l43.72.59,2.37-109.78a31.16,31.16,0,0,0-31.05-31.85Z"/><path id="Stroke-94" class="cls-1" d="M277.06,487.8l-1.58,10.09a35.6,35.6,0,0,0,35.21,41.34h10.48v89.61l43.72.59,2.37-109.78a31.16,31.16,0,0,0-31.05-31.85Z"/><line id="Stroke-95" class="cls-1" x1="321.17" y1="612.03" x2="365.28" y2="612.03"/><path id="Stroke-96" class="cls-1" d="M367.66,540.62l.2-22.75c0-17-13.85-31.06-30.66-31.06h-7.72"/><polyline id="Stroke-97" class="cls-14" points="464.78 665.04 526.89 480.48 577.73 666.03"/><polygon id="Fill-98" class="cls-5" points="176.38 486.42 617.69 486.42 617.69 473.76 176.38 473.76 176.38 486.42"/><polyline id="Stroke-99" class="cls-14" points="210.4 665.04 272.51 480.48 324.34 665.63"/><g id="编组-8" data-name="编组"><line id="Stroke-101" class="cls-1" x1="82.69" y1="666.03" x2="717.46" y2="666.03"/></g><path id="Fill-102" class="cls-15" d="M348.08,314.13c-4.95.19-18-5.15-28.69,0l-2.17,14.24-7.52-9.3.4-8.5V307.4a4,4,0,0,1,.19-1.38v-.79a9.8,9.8,0,0,1,.4-2.38c2.37-15.62,23.74-23.73,37.39-14,0,0,10.88-2.18,13.64,9.69,2.77,12.07-7.51,15.43-13.64,15.63"/><path id="Fill-103" class="cls-4" d="M303.37,325.8a8,8,0,1,0,8.7-7.12,8,8,0,0,0-8.7,7.12"/><path id="Stroke-104" class="cls-1" d="M303.37,325.8a8,8,0,1,0,8.7-7.12A8,8,0,0,0,303.37,325.8Z"/><g id="编组-9" data-name="编组"><path id="Fill-105" class="cls-4" d="M313.67,329.24s.6-5.74-4.94-5.34"/><path id="Stroke-106" class="cls-9" d="M313.67,329.24s.6-5.74-4.94-5.34"/></g><polygon id="Fill-107" class="cls-6" points="380.12 629.43 430.36 629.43 430.36 612.42 380.12 612.42 380.12 629.43"/><polygon id="Stroke-108" class="cls-1" points="380.12 629.43 430.36 629.43 430.36 612.42 380.12 612.42 380.12 629.43"/><polygon id="Fill-109" class="cls-6" points="318.4 629.43 368.65 629.43 368.65 612.42 318.4 612.42 318.4 629.43"/><polygon id="Stroke-110" class="cls-1" points="318.4 629.43 368.65 629.43 368.65 612.42 318.4 612.42 318.4 629.43"/><path id="Fill-111" class="cls-4" d="M348.87,467.63c-4.36,0-4.95,6.52-.4,6.92H516.61a7.1,7.1,0,0,0,7.12-7.12h0l26.11-73.78a8.63,8.63,0,0,0-8.11-11.48H432.93a8.59,8.59,0,0,0-8.11,5.74l-28.08,79.52H348.87Z"/><path id="Stroke-112" class="cls-1" d="M348.87,467.63c-4.36,0-4.95,6.52-.4,6.92H516.61a7.1,7.1,0,0,0,7.12-7.12h0l26.11-73.78a8.63,8.63,0,0,0-8.11-11.48H432.93a8.59,8.59,0,0,0-8.11,5.74l-28.08,79.52H348.87Z"/><path id="Fill-113" class="cls-10" d="M465.57,422.92c-2,5.74.2,11.67,4.95,13.25s10.09-1.78,12.06-7.31c2-5.74-.19-11.67-4.94-13.26-4.55-1.58-10.09,1.59-12.07,7.32"/><path id="Fill-114" class="cls-16" d="M186.47,151.53a4.95,4.95,0,1,1-4.95-4.95,5,5,0,0,1,4.95,4.95"/><path id="Stroke-115" class="cls-1" d="M186.47,151.53a4.95,4.95,0,1,1-4.95-4.95A5,5,0,0,1,186.47,151.53Z"/><path id="Fill-116" class="cls-4" d="M202.49,151.53a4.95,4.95,0,1,1-5-4.95,4.9,4.9,0,0,1,5,4.95"/><path id="Stroke-117" class="cls-1" d="M202.49,151.53a4.95,4.95,0,1,1-5-4.95A4.9,4.9,0,0,1,202.49,151.53Z"/><path id="Fill-118" class="cls-17" d="M217.92,151.53a4.95,4.95,0,1,1-4.95-4.95,5,5,0,0,1,4.95,4.95"/><path id="Stroke-119" class="cls-1" d="M217.92,151.53a4.95,4.95,0,1,1-4.95-4.95A5,5,0,0,1,217.92,151.53Z"/></g></g></svg>