<svg id="图层_1" data-name="图层 1" xmlns="http://www.w3.org/2000/svg" xmlns:xlink="http://www.w3.org/1999/xlink" viewBox="0 0 800 800"><defs><style>.cls-1,.cls-7{fill:none;}.cls-2{clip-path:url(#clip-path);}.cls-12,.cls-14,.cls-17,.cls-3{fill:#fff;}.cls-14,.cls-16,.cls-17,.cls-3,.cls-6,.cls-7{stroke:#000;stroke-width:1.5px;}.cls-3{stroke-linecap:square;}.cls-14,.cls-16,.cls-3,.cls-6,.cls-7{stroke-miterlimit:10;}.cls-4{fill:#f2f2f2;}.cls-5{fill:#e0e0e2;}.cls-6,.cls-8{fill:#40adff;}.cls-9{fill:#407093;}.cls-10{fill:#b8ecff;}.cls-11,.cls-16{fill:#ffc607;}.cls-13{clip-path:url(#clip-path-2);}.cls-15{clip-path:url(#clip-path-3);}.cls-17{stroke-linecap:round;stroke-linejoin:round;}</style><clipPath id="clip-path"><rect class="cls-1" x="85.5" y="159.7" width="629.01" height="480.6"/></clipPath><clipPath id="clip-path-2"><rect class="cls-1" x="402.92" y="251.87" width="59.59" height="124.19"/></clipPath><clipPath id="clip-path-3"><rect class="cls-1" x="341.39" y="240.73" width="57.64" height="135.32"/></clipPath></defs><g class="cls-2"><polyline class="cls-3" points="692.51 538.39 692.51 594.08 634.03 594.08"/><polyline class="cls-3" points="634.03 199.52 692.51 199.52 692.51 255.49"/><polyline class="cls-3" points="98.31 255.49 98.31 199.52 156.5 199.52"/><polyline class="cls-3" points="98.31 538.39 98.31 594.08 156.5 594.08"/><rect class="cls-3" x="156.5" y="255.49" width="477.81" height="282.9"/><circle class="cls-4" cx="578.83" cy="467.1" r="29.51" transform="translate(56.96 997.07) rotate(-84.34)"/><circle class="cls-4" cx="189.54" cy="255.84" r="14.76" transform="translate(-83.74 419.25) rotate(-84.34)"/><path class="cls-5" d="M504.56,307.28a13.47,13.47,0,0,1,8.35,25.62,14.3,14.3,0,0,1-8.35,0Z"/><path class="cls-5" d="M544.93,322.87h0l-5.85.56a3,3,0,0,0-2.78,2.23,35.76,35.76,0,0,1-3.9,9.46,3,3,0,0,0,.28,3.62l3.62,4.46-4.18,4.17-4.45-3.62a3.43,3.43,0,0,0-3.62-.27,23.51,23.51,0,0,1-9.47,3.89,2.72,2.72,0,0,0-2.23,2.79L511.8,356h-7.24V338.74A19.26,19.26,0,0,0,527.67,324a19.67,19.67,0,0,0-14.76-23.38,21,21,0,0,0-8.35,0v-17h7.24l.55,5.85a3,3,0,0,0,2.23,2.78,36,36,0,0,1,9.47,3.9,3,3,0,0,0,3.62-.28l4.45-3.62,4.18,4.18-3.62,4.45a3.41,3.41,0,0,0-.28,3.62,23.67,23.67,0,0,1,3.9,9.47,2.71,2.71,0,0,0,2.78,2.23l5.85.55Z"/><path class="cls-5" d="M288.48,416.43a13.47,13.47,0,0,0-8.35,25.62,14.3,14.3,0,0,0,8.35,0Z"/><path class="cls-5" d="M248.39,432.3h0l5.84.56a3,3,0,0,1,2.79,2.22,35.36,35.36,0,0,0,3.9,9.47,3,3,0,0,1-.28,3.62L257,452.63l4.17,4.17,4.46-3.62a3.45,3.45,0,0,1,3.62-.28,23.47,23.47,0,0,0,9.47,3.9,2.71,2.71,0,0,1,2.22,2.79l.56,5.84h7.24V448.17a19.26,19.26,0,0,1-23.11-14.76A19.68,19.68,0,0,1,280.41,410a21.33,21.33,0,0,1,8.35,0V393h-7.24l-.56,5.85a3,3,0,0,1-2.22,2.78,35.83,35.83,0,0,0-9.47,3.9,3,3,0,0,1-3.62-.28l-4.46-3.62L257,405.85l3.62,4.45a3.45,3.45,0,0,1,.28,3.62,23.67,23.67,0,0,0-3.9,9.47,2.72,2.72,0,0,1-2.79,2.23l-5.84.55Z"/><path class="cls-6" d="M286.53,215.11V183.65a14.26,14.26,0,0,1,14.2-14.2H490.08a14.26,14.26,0,0,1,14.2,14.2V483a14.27,14.27,0,0,1-14.2,14.2H300.73a14.27,14.27,0,0,1-14.2-14.2V238.78"/><path class="cls-7" d="M313,343.48a8.07,8.07,0,0,0-8.08,8.07v39.26a8.08,8.08,0,0,0,8.08,8.08h88.54V343.48Zm33.41,37.86h-10a10.3,10.3,0,1,1,0-20.6h10A10.27,10.27,0,0,1,356.7,371C356.42,376.61,352,381.34,346.4,381.34Z"/><path class="cls-8" d="M485.62,351.27v39.26a8.08,8.08,0,0,1-8.07,8.08h-76.3V343.48h76.3A7.84,7.84,0,0,1,485.62,351.27Z"/><path class="cls-7" d="M359.49,398.61V414.2a15.88,15.88,0,0,1-31.75,0V398.61Z"/><path class="cls-9" d="M446.92,430.07a15.86,15.86,0,0,1-15.87-15.87V398.61h31.74V414.2A16,16,0,0,1,446.92,430.07Z"/><path class="cls-7" d="M401.53,277.21v17.54H360.88a5.13,5.13,0,0,0-4.73,3.06L337.49,343.2H317.72L341.67,287a16.14,16.14,0,0,1,14.75-9.75Z"/><path class="cls-8" d="M472.81,343.48H401.53V277.21h32.58A16.16,16.16,0,0,1,448.87,287Z"/><path class="cls-10" d="M453,343.48H401.53V295h28.4a5.16,5.16,0,0,1,4.74,3.06Z"/><path class="cls-7" d="M356.42,371a10.27,10.27,0,0,1-10.3,10.3h-10a10.3,10.3,0,1,1,0-20.6h10A10.27,10.27,0,0,1,356.42,371Z"/><path class="cls-11" d="M454.44,381.34h-10a10.27,10.27,0,0,1-10.3-10.3,10.1,10.1,0,0,1,10.3-10.3h10a10.28,10.28,0,0,1,10.3,10.3C464.46,376.61,460,381.34,454.44,381.34Z"/><path class="cls-7" d="M401.53,294.75V343.2H337.77l18.65-45.39a4.88,4.88,0,0,1,4.74-3.06Z"/><polyline class="cls-7" points="401.53 445.67 401.53 232.1 401.53 220.96"/><circle class="cls-6" cx="401.53" cy="220.96" r="11.42"/><circle class="cls-6" cx="401.53" cy="445.67" r="11.42"/><path class="cls-12" d="M476.15,483.53H314.38a12.78,12.78,0,0,1-12.81-12.81V195.9a12.78,12.78,0,0,1,12.81-12.81H476.15A12.77,12.77,0,0,1,489,195.9V470.73A12.77,12.77,0,0,1,476.15,483.53Z"/><polyline class="cls-7" points="400.98 415.04 400.98 219.57 400.98 208.99"/><circle class="cls-6" cx="400.97" cy="208.99" r="10.3"/><circle class="cls-6" cx="400.97" cy="415.04" r="10.3"/><g class="cls-13"><line class="cls-7" x1="365.61" y1="342.36" x2="365.61" y2="300.6"/><path class="cls-14" d="M402.92,328.72c-.55,1.39,0,.56,0,1.95a16.43,16.43,0,0,0,.56,3.9,16.16,16.16,0,0,0,8.63,10.86,18,18,0,0,0,7.8,1.94,16.37,16.37,0,0,0,16.43-14.75h0v3.62a6.29,6.29,0,0,0,5.57,6.12c6.4.28,12.53-2.78,14.47-11.41a31.47,31.47,0,0,0,0-12.53,66.4,66.4,0,0,0-22.55-39.26c-16.71-14.21-39-15.32-56.52-3.07-13.37,9.19-21.44,22.28-25.62,37.87a34.14,34.14,0,0,0-.56,17.54c1.95,7.52,7.24,11.42,14.76,10.86"/><path class="cls-7" d="M393.74,345.7a9.1,9.1,0,0,0,17.82,0"/><path class="cls-14" d="M402.37,334.84h1.11"/><path class="cls-14" d="M408.49,323.15a6,6,0,0,1-5,5.85h-1.11a6,6,0,0,1-5.29-5.85,3.63,3.63,0,0,1,.27-1.67,5.79,5.79,0,0,1,5.57-3.9C406,317.3,408.49,319.81,408.49,323.15Z"/><circle class="cls-14" cx="420.74" cy="305.05" r="6.4"/><path class="cls-14" d="M396.52,317.86a17.31,17.31,0,0,0-10.58-3.62,16.71,16.71,0,1,0,0,33.41,14.81,14.81,0,0,0,7.8-1.95,16.56,16.56,0,0,0,8.35-10.86,16.27,16.27,0,0,0,.56-3.89,8.79,8.79,0,0,0-.56-3.9"/></g><g class="cls-15"><path class="cls-14" d="M398.75,301.15h0c-.28.56-.56,1.39-.84,2C398.19,302.54,398.47,301.71,398.75,301.15Z"/><path class="cls-14" d="M397.91,302.27h0a10.31,10.31,0,0,1,1.39,3.34C398.75,304.49,398.47,303.38,397.91,302.27Z"/><path class="cls-16" d="M387.05,269.69c-13.08,4.17-24.5,15.59-32.3,31.46.84-1.95,1.4-3.06,1.4-3.06,0-.28-3.35-36.2,6.12-45.11a4.7,4.7,0,0,1,2.79-.84A32.33,32.33,0,0,1,387.05,269.69Z"/><path class="cls-14" d="M442.74,302.27c-8.07-16.43-19.49-28.13-32.86-32.58a34.21,34.21,0,0,1,22.28-17.82,2.82,2.82,0,0,1,2.78.83c7.8,7.52,6.69,34.25,5.85,45.11C441.63,299.48,442.18,300.87,442.74,302.27Z"/><path class="cls-6" d="M443.86,324.54c-6.13,17-27.29,21.16-45.39,21.16s-39.26-4.17-45.39-21.16A26.66,26.66,0,0,1,352,311.73a30.66,30.66,0,0,1,1.95-8.35c.28-.56.83-1.95.83-1.95v-.28c8.08-15.87,19.49-27,32.3-31.46A38.87,38.87,0,0,1,398.47,268a31.56,31.56,0,0,1,11.41,2c13.37,4.45,24.79,16.15,32.86,32.57,0,0,.84,2.23,1.11,3.35h0a24.09,24.09,0,0,1,1.12,5.84A27.59,27.59,0,0,1,443.86,324.54Z"/><path class="cls-7" d="M407.1,326.21c0,2-1.67,4.46-3.62,4.46a3.35,3.35,0,0,1-3.34-2.51c3.34-1.67,5.29-7.24,2.78-9.74-1.39-1.4-3.62-1.12-5.57-1.12"/><path class="cls-7" d="M399.86,317.3c-2.23,0-4.18-.28-5.57,1.12-2.5,2.5-.55,8.07,2.79,9.74a4.46,4.46,0,0,1-3.34,2.51c-6.13,1.11-8.91-6.41-8.91-8.36"/><line class="cls-7" x1="345.01" y1="310.62" x2="372.02" y2="310.62"/><line class="cls-7" x1="345.01" y1="319.25" x2="372.02" y2="319.25"/><path class="cls-7" d="M384.27,303.94a5,5,0,1,0-5-5C379,301.71,381.48,303.94,384.27,303.94Z"/></g><path class="cls-8" d="M434.94,464.32a2.2,2.2,0,0,1-2.22,2.23H371.18a2.2,2.2,0,0,1-2.23-2.23V440.37a2.2,2.2,0,0,1,2.23-2.22h61.54a2.19,2.19,0,0,1,2.22,2.22Z"/><path class="cls-17" d="M473.37,498.57c0-5.29-2.78-9.19-8.07-9.19a9.63,9.63,0,0,0-9.75,9.47v-2.79a9.75,9.75,0,0,0-19.49,0V495a9.75,9.75,0,0,0-19.49,0V456a9.75,9.75,0,0,0-19.49,0v69l-11.7-18.65a10.1,10.1,0,0,0-13.64-3.07,9.34,9.34,0,0,0-3.34,13.09l15,23.67c2.79,5.57,1.67,25.89,25.34,51,6.41,6.69,5.57,17,5.57,17l43.72.28s.55-12.53,5.84-18.66c5.57-6.4,9.75-20,9.75-39.82C474.21,515.83,473.37,498.57,473.37,498.57Z"/><path class="cls-17" d="M417.12,489.94c0,5,.28,26.73.28,40.09"/><path class="cls-17" d="M436.34,491.89v39.26"/><path class="cls-17" d="M455.55,535.88V494.67"/><polygon class="cls-16" points="481.17 661.74 466.69 597.7 405.99 597.7 391.23 661.74 481.17 661.74"/></g></svg>