<svg id="图层_1" data-name="图层 1" xmlns="http://www.w3.org/2000/svg" viewBox="0 0 800 800"><defs><style>.cls-1,.cls-15,.cls-2,.cls-5,.cls-8{fill:#fff;}.cls-1,.cls-10,.cls-12,.cls-13,.cls-14,.cls-15,.cls-16,.cls-17,.cls-5,.cls-6,.cls-7,.cls-8{stroke:#000;}.cls-1,.cls-12,.cls-13,.cls-14,.cls-15,.cls-17,.cls-5,.cls-7{stroke-miterlimit:10;}.cls-1,.cls-10,.cls-12,.cls-15,.cls-16,.cls-17,.cls-5,.cls-6,.cls-7,.cls-8{stroke-width:1.5px;}.cls-1,.cls-6{opacity:0.8;}.cls-1,.cls-3,.cls-6{isolation:isolate;}.cls-3{fill:#b8ecff;opacity:0.4;}.cls-12,.cls-16,.cls-4{fill:#40adff;}.cls-6{fill:#f2f2f2;}.cls-10,.cls-16,.cls-6,.cls-8{stroke-linecap:round;stroke-linejoin:round;}.cls-10,.cls-13,.cls-14,.cls-7{fill:none;}.cls-9{fill:#dbdbdb;}.cls-11{fill:#ff844d;}.cls-14{stroke-dasharray:2.96 2.96;}.cls-15{fill-rule:evenodd;}.cls-17{fill:#ffc609;}</style></defs><path class="cls-1" d="M618.09,231.27V521.84c0,8.61-7.74,15.7-17.2,15.7H172.44c-9.46,0-17.2-7.09-17.2-15.7V231.27c0-8.6,7.74-15.7,17.2-15.7H600.89C610.35,215.57,618.09,222.67,618.09,231.27Z"/><path class="cls-2" d="M229.66,641H143.84a8.27,8.27,0,0,1-8.39-8.39V619.28a8.26,8.26,0,0,1,8.39-8.39h85.82Z"/><rect class="cls-3" x="136.96" y="620.14" width="92.7" height="1.72"/><rect class="cls-3" x="136.96" y="625.08" width="92.7" height="1.72"/><rect class="cls-3" x="136.96" y="634.76" width="92.7" height="1.72"/><rect class="cls-3" x="136.96" y="615.19" width="92.7" height="1.72"/><rect class="cls-3" x="136.96" y="629.81" width="92.7" height="1.72"/><path class="cls-4" d="M229.66,642.29H142.55a8.63,8.63,0,0,1-8.61-8.6V617.55a8.63,8.63,0,0,1,8.61-8.6h87.11v3H142.55a5.69,5.69,0,0,0-5.59,5.59v16.14a5.69,5.69,0,0,0,5.59,5.59h87.11Z"/><path class="cls-5" d="M686.49,407.85H511.41a16.79,16.79,0,0,1-16.77-16.78V270.84a16.79,16.79,0,0,1,16.77-16.77H686.49a16.79,16.79,0,0,1,16.77,16.77V391.07A16.79,16.79,0,0,1,686.49,407.85Z"/><path class="cls-6" d="M651.21,642.29H572.07a20.42,20.42,0,0,1-20.44-20.43V568.52a20.43,20.43,0,0,1,20.44-20.44h79.36a20.43,20.43,0,0,1,20.43,20.44v53.34A20.6,20.6,0,0,1,651.21,642.29Z"/><polyline class="cls-7" points="590.13 580.78 575.08 596.69 590.13 611.53"/><polyline class="cls-7" points="633.15 580.78 648.2 596.69 633.15 611.53"/><line class="cls-7" x1="624.55" y1="574.11" x2="598.74" y2="616.48"/><path class="cls-8" d="M439.36,370.21s9-.86,11.61,5,0,17-11.61,17.42Z"/><path class="cls-8" d="M447.32,379s-6.24.86-8,4.52"/><path class="cls-4" d="M470.76,453c-13.55-15.92-51.83-19.36-51.83-19.36l-31.83.65v-.65S351.18,435,334.19,453c-14.42,15.48-48.83,87.32-48.83,87.32L329,596.48l-1.07-49L329,642.5H477.21l1.08-95.06.43,26,47.53-42.15C526.25,531.09,486.68,471.73,470.76,453Z"/><path class="cls-2" d="M402.37,454.52a17.81,17.81,0,0,1-17.43-17.63V421a1.82,1.82,0,0,1,1.51-1.72l32.26-.22a1.47,1.47,0,0,1,1.51,1.51v16.13a17.83,17.83,0,0,1-17.42,17.64h-.43Z"/><path d="M418.93,421h0m0,0V437.1A16,16,0,0,1,403.23,453h-.86a15.89,15.89,0,0,1-15.7-16.13V421h32.26m0-3.23h0l-32.26.22a3.3,3.3,0,0,0-3.23,3.23V437.1a19.33,19.33,0,0,0,18.93,19.36h.86a19.43,19.43,0,0,0,18.92-19.14V421.19a3.22,3.22,0,0,0-3.22-3.45Zm0,6.46Z"/><path class="cls-9" d="M418.5,424s-18.5,8.17-31.83,8.82V422.69Z"/><path class="cls-8" d="M402.58,324.18h0a37.55,37.55,0,0,0-37.64,37.64v9s-8.6-.86-11,4.73,0,16.13,11,16.56v-3a37.55,37.55,0,0,0,37.64,37.64h0a37.55,37.55,0,0,0,37.64-37.64V361.82A37.41,37.41,0,0,0,402.58,324.18Z"/><path class="cls-8" d="M409,409.36s4.3-.65,6.89-3.23"/><path class="cls-8" d="M357.41,379.24s5.81.86,7.53,4.31"/><polygon class="cls-9" points="400.21 398.39 404.52 398.39 403.44 379.68 408.6 398.39 400.21 398.39"/><polyline class="cls-10" points="403.44 379.68 404.52 398.39 400.21 398.39"/><line class="cls-10" x1="327.95" y1="591.53" x2="348.6" y2="541.42"/><path class="cls-8" d="M533.78,427.21s15.49-8.61,18.5-11.83c3-3,8.17,1.29,3.44,5.38S538.08,427.85,533.78,427.21Z"/><path class="cls-8" d="M554,420.33s17.2-4.52,20.86-6.67,7.53,3.22,1.94,6C571.2,422.26,558.09,422.05,554,420.33Z"/><path class="cls-8" d="M569.91,426.78s26-8.18,28.83-15.49c2.79-7.1-6.24-1.93-10.54.65-4.31,2.79-21.94,11.83-21.94,11.83Z"/><path class="cls-8" d="M602,414.09c-6.45-.65-31.4,8.6-51.62,5.81-16.77-2.16-23.44,16.13-24.73,20.64-.22.86-.65,1.72-.86,2.58l-37,104.32a20.88,20.88,0,0,0,14.2,26h0c11.18,3.23,18.71-3.87,21.94-15.05l26.67-103.67A30,30,0,0,1,565,435.38c6.88-4.09,15.48-6.67,23.44-8.82C602.82,422.69,608.41,414.73,602,414.09Z"/><path class="cls-4" d="M497.22,601l9.46,1.94a23.52,23.52,0,0,0,27.75-18.5l23.65-125.61a2.84,2.84,0,0,0-2.15-3.22L505.6,445.49a2.85,2.85,0,0,0-3.22,2.15L478.72,573.25A23.4,23.4,0,0,0,497.22,601Z"/><path d="M377.85,314.29s-20.44-38.93,22.36-43.23c43.24-4.3,21.08,43.23,21.08,43.23s27.32,4.3,20.44,54.42c0,0-40.87,4.73-61.09-25.81l-15.48,28C364.94,370.86,341.71,339.45,377.85,314.29Z"/><line class="cls-10" x1="478.72" y1="573.25" x2="478.29" y2="512.59"/><line class="cls-10" x1="28.77" y1="642.29" x2="771.23" y2="642.29"/><polygon class="cls-11" points="554 328.06 521.52 328.06 521.52 295.58 554 295.58 554 328.06"/><polygon class="cls-5" points="537.87 354.73 516.14 354.73 516.14 333 537.87 333 537.87 354.73"/><line class="cls-10" x1="592.07" y1="292.57" x2="678.96" y2="292.57"/><line class="cls-10" x1="592.07" y1="320.53" x2="678.96" y2="320.53"/><line class="cls-10" x1="592.07" y1="348.27" x2="678.96" y2="348.27"/><polygon class="cls-7" points="548.62 324.18 516.14 324.18 516.14 291.71 548.62 291.71 548.62 324.18"/><path class="cls-5" d="M331,481H222.56a16.8,16.8,0,0,1-16.78-16.78v-71a16.8,16.8,0,0,1,16.78-16.77H331a16.8,16.8,0,0,1,16.78,16.77v71A17,17,0,0,1,331,481Z"/><line class="cls-10" x1="336.98" y1="214.28" x2="365.59" y2="197.5"/><line class="cls-10" x1="322.79" y1="285.68" x2="351.18" y2="311.06"/><line class="cls-10" x1="235.03" y1="157.5" x2="264.93" y2="208.26"/><line class="cls-10" x1="255.03" y1="282.67" x2="204.71" y2="338.59"/><line class="cls-10" x1="244.28" y1="265.9" x2="215.03" y2="265.9"/><line class="cls-10" x1="319.13" y1="170.62" x2="308.16" y2="188.68"/><path class="cls-12" d="M268.8,288.48a35.69,35.69,0,0,0-11.61-24.09,41.4,41.4,0,1,1,57.21-.21,37.37,37.37,0,0,0-11.83,24.73"/><path class="cls-7" d="M297,311.71a11.86,11.86,0,0,1-22.8-.43"/><path d="M295.69,301H275.47a1.51,1.51,0,1,1,0-3h20.22a1.47,1.47,0,0,1,1.5,1.51A1.61,1.61,0,0,1,295.69,301Z"/><path class="cls-7" d="M301.71,311.06h-32a3.31,3.31,0,0,1-3.23-3.22V291.49a3.31,3.31,0,0,1,3.23-3.22h32a3.3,3.3,0,0,1,3.22,3.22v16.35A3,3,0,0,1,301.71,311.06Z"/><path class="cls-13" d="M234.6,401a31.48,31.48,0,0,0,.22,3.22"/><path class="cls-14" d="M235.25,410.43c1.93,18.28,9,52.91,37,12.91,0,0,6.67-21.08,31.4,32.26,15.92,26,24.52-10.54,27.1-26"/><path class="cls-13" d="M331.39,426.56c.21-1.93.43-3.22.43-3.22"/><circle class="cls-4" cx="234.6" cy="401.83" r="3.44"/><circle class="cls-4" cx="331.82" cy="424.2" r="3.44"/><path class="cls-15" d="M293.54,492s-11-48.61-15.71-66.89c-2.15-8-9.24-8.18-7.95,1.93.64,5.59,4.51,20.22,4.51,20.22-11.18-2.37-18.92,9.46-17.63,15.7.64,3,7.09,13.34,8.6,15.27,1.72,1.94,7.1,16.35,7.1,16.35Z"/><path class="cls-15" d="M262.35,452.16c-5,1.07-8.82,2.36-7.74,9,1.07,6.45,7.31,8,7.74,5.81.64-2.15-1.94-11.4-1.94-11.4S268.37,453.45,262.35,452.16Z"/><path class="cls-15" d="M267.08,449.79c-6.45-3.44-8.17,1.51-7.1,8.82s5.81,9.25,8.39,7.1c2.8-2.15-2.15-12-2.15-12S273.75,451.08,267.08,449.79Z"/><path class="cls-15" d="M265.36,454.31c1.07,7.31,5.38,8.82,8.17,6.67s-2.15-12.05-2.15-12.05,2.8-1.29,2.58-2.58c0-3.23-6.67-5.59-8.82-.21C264.5,448.07,264.71,450.87,265.36,454.31Z"/><path class="cls-15" d="M289.23,481.19c8-10.11,8.61-28,3.66-29-5.16-1.29-20.43-7.75-22.37-3.66s13.77,11.83,13.77,11.83"/><path class="cls-16" d="M297,619.92l9.46-1.29a23.42,23.42,0,0,0,20-26.67L310.09,490.23a2.67,2.67,0,0,0-3-2.37L256.32,495a2.67,2.67,0,0,0-2.36,3L270.3,599.7A23.54,23.54,0,0,0,297,619.92Z"/><circle class="cls-17" cx="274.18" cy="420.97" r="15.49"/></svg>