<svg id="图层_1" data-name="图层 1" xmlns="http://www.w3.org/2000/svg" xmlns:xlink="http://www.w3.org/1999/xlink" viewBox="0 0 800 800"><defs><style>.cls-1{fill:none;}.cls-2{fill:#f8f9fa;stroke:#e3eafd;}.cls-2,.cls-4,.cls-5{stroke-miterlimit:10;stroke-width:1.5px;}.cls-3{clip-path:url(#clip-path);}.cls-4,.cls-6{fill:#40adff;}.cls-4,.cls-5{stroke:#000;}.cls-5{fill:#fff;}.cls-7{fill:#ffc607;}</style><clipPath id="clip-path"><circle class="cls-1" cx="385.65" cy="429.9" r="305.58"/></clipPath></defs><circle class="cls-2" cx="385.65" cy="429.9" r="310.76"/><circle class="cls-2" cx="385.65" cy="429.9" r="310.76"/><g class="cls-3"><path class="cls-4" d="M426.05,579.58c-.52,23.31-6.21,36.77-11.39,44.54H547.77c-5.18-7.77-10.88-21.23-11.4-44.54Z"/><path class="cls-5" d="M709.37,577.51H256.69A15.26,15.26,0,0,1,241.15,562V297.82a15.26,15.26,0,0,1,15.54-15.54H709.37a15.26,15.26,0,0,1,15.53,15.54V562A15.58,15.58,0,0,1,709.37,577.51Z"/><path class="cls-5" d="M609.4,649H359.76V637.59a13.92,13.92,0,0,1,14-14h222.2a13.92,13.92,0,0,1,14,14V649Z"/><path class="cls-4" d="M709.37,531.93H256.69a15.26,15.26,0,0,1-15.54-15.54V252.24a15.26,15.26,0,0,1,15.54-15.54H709.37a15.26,15.26,0,0,1,15.53,15.54V516.39A15.93,15.93,0,0,1,709.37,531.93Z"/><path class="cls-5" d="M266.53,307.14v-30a15.15,15.15,0,0,1,15.53-15H684a15,15,0,0,1,15,15V491a15,15,0,0,1-15,15H281.55c-8.29,0-15.54-6.73-15.54-15V361.53"/><path class="cls-6" d="M465.42,558.86h34.7a5.7,5.7,0,0,0,0-11.39h-34.7a5.75,5.75,0,0,0-5.7,5.69C460.24,556.27,462.31,558.86,465.42,558.86Z"/><polygon class="cls-7" points="413.1 333.04 468.52 477.55 485.1 426.27 535.86 477.03 557.09 455.79 506.33 405.03 557.61 388.46 413.1 333.04"/><path class="cls-4" d="M436.41,313.36V280.73"/><path class="cls-4" d="M409.84,321.16l-16.37-28.23"/><path class="cls-4" d="M389,340.17l-28.46-16"/><path class="cls-4" d="M382.41,368.59l-32.62-.46"/></g></svg>