<svg id="图层_1" data-name="图层 1" xmlns="http://www.w3.org/2000/svg" viewBox="0 0 800 800"><defs><style>.cls-1,.cls-11,.cls-14,.cls-3{fill:#fff;}.cls-1,.cls-10,.cls-14,.cls-16,.cls-17,.cls-18,.cls-3,.cls-4,.cls-5,.cls-6,.cls-7{stroke:#000;}.cls-1,.cls-14,.cls-6{stroke-linecap:round;stroke-linejoin:round;}.cls-1,.cls-10,.cls-16,.cls-17,.cls-18,.cls-3,.cls-4,.cls-5,.cls-6,.cls-7{stroke-width:1.5px;}.cls-17,.cls-2{fill:#f2f2f2;}.cls-10,.cls-16,.cls-17,.cls-18,.cls-3,.cls-4,.cls-5,.cls-7{stroke-miterlimit:10;}.cls-4{fill:#ffaeae;}.cls-5{fill:#7cc996;}.cls-18,.cls-6{fill:none;}.cls-7{fill:#66ad7e;}.cls-8{fill:#c1c1c1;}.cls-9{fill:#5576b5;}.cls-10,.cls-15{fill:#ffc609;}.cls-12{fill:#40adff;}.cls-13{fill:#dbdbdb;}.cls-14{stroke-width:1.5px;}.cls-16{fill:#2d2d2d;}</style></defs><rect class="cls-1" x="113.84" y="95.24" width="244.96" height="148.61"/><circle class="cls-2" cx="137.83" cy="615.85" r="88.91"/><path class="cls-3" d="M648.22,588.14H217.07a44.65,44.65,0,0,1-44.64-44.64V192.7a44.66,44.66,0,0,1,44.64-44.64H648.22a44.66,44.66,0,0,1,44.64,44.64V543.31A44.7,44.7,0,0,1,648.22,588.14Z"/><path class="cls-2" d="M645.61,573.82H218.19a32.39,32.39,0,0,1-32.37-32.37V245.71a32.39,32.39,0,0,1,32.37-32.36H645.61A32.39,32.39,0,0,1,678,245.71V541.45A32.28,32.28,0,0,1,645.61,573.82Z"/><circle class="cls-4" cx="195.31" cy="183.59" r="8.74"/><circle class="cls-3" cx="226.93" cy="183.59" r="8.74"/><circle class="cls-5" cx="258.36" cy="183.59" r="8.74"/><path class="cls-6" d="M218.19,573.82V495.14a12,12,0,0,1,11.9-11.91H635.75a12,12,0,0,1,11.91,11.91v78.68"/><polygon class="cls-1" points="330.71 418.32 248.5 418.32 256.13 483.24 323.09 483.24 330.71 418.32"/><path class="cls-5" d="M289.61,338.16s-30.69,32.17,0,76.63C320.3,370.33,289.61,338.16,289.61,338.16Z"/><path class="cls-7" d="M341,370.52s-36.27.74-44.27,44.27C340,406.79,341,370.52,341,370.52Z"/><path class="cls-7" d="M238.27,370.52s36.27.74,44.27,44.27C239,406.79,238.27,370.52,238.27,370.52Z"/><line class="cls-6" x1="246.64" y1="441.2" x2="312.49" y2="441.2"/><line class="cls-6" x1="275.29" y1="463.33" x2="341.13" y2="463.33"/><line class="cls-6" x1="279.57" y1="471.33" x2="345.41" y2="471.33"/><path d="M509.27,434.32H637.06a4.32,4.32,0,0,0,4.27-4.28v-1.12a4.32,4.32,0,0,0-4.27-4.27H509.27a4.32,4.32,0,0,0-4.27,4.27V430A4.21,4.21,0,0,0,509.27,434.32Z"/><ellipse class="cls-1" cx="536.62" cy="313.79" rx="8.74" ry="11.35"/><ellipse class="cls-1" cx="611.2" cy="313.79" rx="8.74" ry="11.35"/><rect class="cls-8" x="563.59" y="340.76" width="23.06" height="6.14"/><path class="cls-1" d="M599.67,340.76H548.15A13.74,13.74,0,0,1,534.38,327V300.58a13.74,13.74,0,0,1,13.77-13.76h51.52a13.73,13.73,0,0,1,13.76,13.76V327A13.5,13.5,0,0,1,599.67,340.76Z"/><path class="cls-9" d="M598.93,330.34H549.08a5.39,5.39,0,0,1-5.4-5.39V302.63a5.39,5.39,0,0,1,5.4-5.39h49.85a5.39,5.39,0,0,1,5.39,5.39V325A5.39,5.39,0,0,1,598.93,330.34Z"/><circle class="cls-10" cx="559.31" cy="313.79" r="4.09"/><circle class="cls-10" cx="588.51" cy="313.79" r="4.09"/><rect class="cls-8" x="573.07" y="272.5" width="3.91" height="12.09"/><path class="cls-1" d="M581.44,282.54H568.61a3.54,3.54,0,0,0-3.54,3.54v.55h20.09v-.55A3.7,3.7,0,0,0,581.44,282.54Z"/><circle class="cls-10" cx="575.12" cy="270.27" r="6.32"/><path class="cls-1" d="M609.16,424.83H538.85A10.8,10.8,0,0,1,528.06,414V357.87a10.8,10.8,0,0,1,10.79-10.79h70.31a10.79,10.79,0,0,1,10.78,10.79V414A10.79,10.79,0,0,1,609.16,424.83Z"/><path class="cls-9" d="M607.85,391.72H540A5.79,5.79,0,0,1,534.2,386V358.8A5.79,5.79,0,0,1,540,353h67.89a5.79,5.79,0,0,1,5.77,5.76V386A5.67,5.67,0,0,1,607.85,391.72Z"/><path class="cls-2" d="M607.85,419.44H540a5.8,5.8,0,0,1-5.76-5.77v-4.84a5.79,5.79,0,0,1,5.76-5.76h67.89a5.79,5.79,0,0,1,5.77,5.76v5A5.64,5.64,0,0,1,607.85,419.44Z"/><path class="cls-1" d="M620.5,370h-.56V354h.56a3.81,3.81,0,0,1,3.91,3.9v8.19A3.81,3.81,0,0,1,620.5,370Z"/><path class="cls-1" d="M624.41,358.62s35.15.55,35.15,45.75h-7.62s1.86-34.22-27.72-38.69l.19-7.06Z"/><line class="cls-6" x1="630.55" y1="366.99" x2="632.22" y2="359.92"/><line class="cls-6" x1="637.43" y1="370.33" x2="641.52" y2="364.01"/><line class="cls-6" x1="642.82" y1="375.17" x2="648.59" y2="369.96"/><line class="cls-6" x1="647.1" y1="381.49" x2="653.98" y2="377.77"/><line class="cls-6" x1="650.08" y1="388.56" x2="657.7" y2="387.26"/><line class="cls-6" x1="651.75" y1="396.37" x2="659.38" y2="396.37"/><path class="cls-10" d="M653.8,390.05h1.48a5.4,5.4,0,0,1,5.4,5.39v9.12H648.59v-9.12A5,5,0,0,1,653.8,390.05Z"/><path class="cls-9" d="M656.4,399.16V402a8.43,8.43,0,0,1,0,16v2.79a11.38,11.38,0,0,0,8.56-11A10.8,10.8,0,0,0,656.4,399.16Z"/><path class="cls-9" d="M652.87,399.16V402a8.43,8.43,0,0,0,0,16v2.79a11.38,11.38,0,0,1-8.56-11A10.8,10.8,0,0,1,652.87,399.16Z"/><circle class="cls-1" cx="654.54" cy="404.93" r="6.14"/><circle class="cls-9" cx="654.54" cy="404.93" r="3.35"/><path class="cls-1" d="M527.32,370h.55V354h-.55a3.81,3.81,0,0,0-3.91,3.9v8.19A3.93,3.93,0,0,0,527.32,370Z"/><path class="cls-1" d="M523.41,358.62s-35.15.55-35.15,45.75h7.62S494,370.15,523.6,365.68l-.19-7.06Z"/><line class="cls-6" x1="517.27" y1="366.99" x2="515.6" y2="359.92"/><line class="cls-6" x1="510.58" y1="370.33" x2="506.48" y2="364.01"/><line class="cls-6" x1="505" y1="375.17" x2="499.23" y2="369.96"/><line class="cls-6" x1="500.72" y1="381.49" x2="493.84" y2="377.77"/><line class="cls-6" x1="497.93" y1="388.56" x2="490.3" y2="387.26"/><line class="cls-6" x1="496.25" y1="396.37" x2="488.63" y2="396.37"/><path class="cls-10" d="M494,390.05h-1.49a5.4,5.4,0,0,0-5.39,5.39v9.12h12.09v-9.12A5,5,0,0,0,494,390.05Z"/><path class="cls-9" d="M491.6,399.16V402a8.44,8.44,0,0,0,0,16v2.79a11.38,11.38,0,0,1-8.55-11A10.62,10.62,0,0,1,491.6,399.16Z"/><path class="cls-9" d="M495,399.16V402a8.43,8.43,0,0,1,0,16v2.79a11.38,11.38,0,0,0,8.56-11A10.63,10.63,0,0,0,495,399.16Z"/><circle class="cls-1" cx="493.46" cy="404.93" r="6.14"/><circle class="cls-9" cx="493.46" cy="404.93" r="3.35"/><path class="cls-11" d="M537.36,400.28a2.47,2.47,0,0,1-2.42-2.42v-.37a2.47,2.47,0,0,1,2.42-2.42h73.1a2.47,2.47,0,0,1,2.42,2.42v.37a2.47,2.47,0,0,1-2.42,2.42Z"/><path d="M610.46,396.37a1.2,1.2,0,0,1,1.11,1.12v.37a1.2,1.2,0,0,1-1.11,1.12h-73.1a1.2,1.2,0,0,1-1.12-1.12v-.37a1.2,1.2,0,0,1,1.12-1.12h73.1m0-2.79h-73.1a3.82,3.82,0,0,0-3.91,3.91v.37a3.82,3.82,0,0,0,3.91,3.91h73.1a3.81,3.81,0,0,0,3.9-3.91v-.37a3.93,3.93,0,0,0-3.9-3.91Z"/><path class="cls-12" d="M421.48,573.82l1.86-197.91a3,3,0,0,0-4.09-3c-13.39,4.65-55.05,19.9-65.28,32.36-9.68,11.72-5.77,47.43-3.54,84.26C353.59,537.73,353,574,353,574h68.44v-.18Z"/><path class="cls-12" d="M271.75,570.47l-5.2-3.72a24.44,24.44,0,0,1-5.4-34.23l91.51-126.1a24.45,24.45,0,0,1,34.23-5.4l5.2,3.72a24.44,24.44,0,0,1,5.4,34.23L306,565.07A24.44,24.44,0,0,1,271.75,570.47Z"/><path class="cls-12" d="M524.34,573.82h56.92c-.75-2.79-1.49-6.14-2.24-9.3L545.73,418.88a27.31,27.31,0,0,0-10.42-16c-13.2-11.9-50.4-25.48-63-29.94a3.05,3.05,0,0,0-4.09,3L470,573.82h54.31Z"/><path class="cls-11" d="M445.48,399.72a21.43,21.43,0,0,1-21-21.39V370a1.59,1.59,0,0,1,1.3-1.49l40.36-.18a1.39,1.39,0,0,1,.93.37,1.41,1.41,0,0,1,.37.93v8.74a21.55,21.55,0,0,1-21,21.39h-.93Z"/><path d="M466.12,369.78h0m0,0v8.74a19.89,19.89,0,0,1-19.71,19.9h-1.12a20.05,20.05,0,0,1-19.72-20.09V370l40.55-.18m0-2.79h0l-40.36.18A2.86,2.86,0,0,0,423,370v8.37a22.91,22.91,0,0,0,22.51,22.88h1.11a23.13,23.13,0,0,0,22.51-22.69v-8.74a3,3,0,0,0-3-2.79Zm0,5.58Z"/><path class="cls-13" d="M465.75,375.54s-18.23,11-37.76,11.53a20.29,20.29,0,0,1-2-10.78C426,376.47,443.06,386.14,465.75,375.54Z"/><path class="cls-1" d="M451.24,380.19h-11a41.6,41.6,0,0,1-41.67-41.66v-45a41.6,41.6,0,0,1,41.67-41.67h11a41.6,41.6,0,0,1,41.67,41.67v45A41.6,41.6,0,0,1,451.24,380.19Z"/><path class="cls-1" d="M398.61,310.07s-9.3-.93-11.91,5.21,0,17.67,11.91,18Z"/><path class="cls-1" d="M390.42,319.37s6.33.93,8.19,4.65"/><path class="cls-1" d="M492.91,310.07s9.3-.93,11.9,5.21,0,17.67-11.9,18Z"/><path class="cls-1" d="M501.09,319.37s-6.32.93-8.18,4.65"/><path d="M419.06,251.85s-21.94-4.46-27.71,19.53,15.07,30.88,27.71,31.44S471,285.7,492.91,316c0,0,6.32-10.79,2.41-35.71C490.3,248.69,446.78,232.32,419.06,251.85Z"/><polygon class="cls-13" points="449.75 344.85 444.55 344.85 445.85 321.42 439.34 344.85 449.75 344.85"/><polyline class="cls-6" points="445.85 321.42 444.55 344.85 449.75 344.85"/><path class="cls-6" d="M263.2,562.84,260,557.26A24.59,24.59,0,0,1,269,523.78l130.2-75.33a3,3,0,0,1,3.91.93l24.92,43a3,3,0,0,1-.93,3.9l-130.2,75.33A24.53,24.53,0,0,1,263.2,562.84Z"/><rect class="cls-14" x="415.02" y="445.11" width="5.58" height="48.92" transform="translate(-179.06 272.57) rotate(-30.07)"/><path class="cls-1" d="M410.88,452.54s36.64-28.27,52.27-10.6c15.81,17.67,5,31.25-3.17,35.34s-15.62-1.86-15.62-1.86-9.11,3.54-14.69,9.67Z"/><line class="cls-6" x1="533.27" y1="437.11" x2="533.27" y2="573.82"/><line class="cls-6" x1="204.05" y1="573.82" x2="662.54" y2="573.82"/><path class="cls-1" d="M547.78,573.82H390.61V492.16a20.8,20.8,0,0,1,20.83-20.83H526.76a20.8,20.8,0,0,1,20.83,20.83v81.66Z"/><circle class="cls-15" cx="469.1" cy="522.48" r="16.37"/><path class="cls-1" d="M379.63,567.12h11V574h-11a2.93,2.93,0,0,1-3-3v-.75A3,3,0,0,1,379.63,567.12Z"/><rect class="cls-16" x="539.03" y="648.22" width="176.89" height="8.56"/><rect class="cls-17" x="574.19" y="674.44" width="176.89" height="8.56"/><rect class="cls-10" x="568.79" y="132.63" width="27.71" height="15.44"/><rect class="cls-10" x="576.42" y="120.35" width="12.46" height="12.46"/><rect class="cls-10" x="156.99" y="378.7" width="15.44" height="27.71"/><rect class="cls-10" x="144.72" y="386.14" width="12.46" height="12.46"/><rect class="cls-10" x="236.04" y="587.95" width="27.71" height="15.44"/><rect class="cls-10" x="243.67" y="603.39" width="12.46" height="12.46"/><path class="cls-18" d="M582.56,120.35v-11a14.12,14.12,0,0,1,14.13-14.14H736.94a14.12,14.12,0,0,1,14.13,14.14V537a14.12,14.12,0,0,1-14.13,14.13H692.86"/><rect class="cls-10" x="692.86" y="537.36" width="15.44" height="27.71"/><rect class="cls-10" x="708.29" y="544.99" width="12.46" height="12.46"/><path class="cls-18" d="M144.72,392.1h-21a9.92,9.92,0,0,0-9.86,9.85V638.17A9.92,9.92,0,0,0,123.7,648H240a9.93,9.93,0,0,0,9.86-9.86V615.85"/><path class="cls-1" d="M453.85,357.87s5.58-.74,8.55-4.09"/></svg>