<svg id="图层_1" data-name="图层 1" xmlns="http://www.w3.org/2000/svg" viewBox="0 0 800 800"><defs><style>.cls-1{fill:#ddd;}.cls-2,.cls-9{fill:#fff;}.cls-11,.cls-13,.cls-2,.cls-4,.cls-5{stroke:#000;stroke-width:1.5px;}.cls-11,.cls-2{stroke-linecap:round;stroke-linejoin:round;}.cls-3{fill:#f2f2f2;}.cls-4,.cls-6{fill:#ffc609;}.cls-13,.cls-4,.cls-5{stroke-miterlimit:10;}.cls-11,.cls-5{fill:none;}.cls-7{fill:#dbdbdb;}.cls-8{fill:#b8ecff;}.cls-10{fill:#40adff;}.cls-12{fill:#5576b5;}.cls-13{fill:#7cc996;}</style></defs><path class="cls-1" d="M131.21,200c-70.05,0-66.38,32.58-66.38,32.58,0,36.24,66.38,31.76,66.38,31.76H203.7V200Z"/><path class="cls-2" d="M64.83,630.86h336V264.32H129.17c-10.18,0-64.75,1.63-64.75-31.76l.41,398.3Z"/><path class="cls-3" d="M88.45,296.09s14.66,6.11,29.32,6.11H370.68V417.86H117.77s-21.58-.81-29.32-5.3Z"/><rect class="cls-4" x="235.06" y="245.59" width="32.99" height="18.33"/><rect class="cls-4" x="244.02" y="230.93" width="14.66" height="14.66"/><path class="cls-5" d="M251.35,230.93V183.69A14.61,14.61,0,0,1,266,169h342.1a14.61,14.61,0,0,1,14.66,14.67V480.58"/><path class="cls-6" d="M736.8,629.63c0-88.78-72.08-160.86-160.86-160.86S415.07,540.85,415.07,629.63Z"/><path class="cls-7" d="M384.52,356s-24.43,15.88-47.64,16.69V357.18C336.88,356.77,357.65,368.58,384.52,356Z"/><circle class="cls-8" cx="622.77" cy="285.5" r="61.5"/><path class="cls-9" d="M589,285.5l15.88-15.88a3.17,3.17,0,0,0-4.48-4.48L582,283.46a3,3,0,0,0-.81,2.45,5.87,5.87,0,0,0,.81,2.44l18.33,18.33a3.17,3.17,0,0,0,4.48-4.48Z"/><path class="cls-9" d="M657,285.5,641.1,269.62a3.17,3.17,0,0,1,4.48-4.48l18.32,18.32a3,3,0,0,1,.82,2.45,5.75,5.75,0,0,1-.82,2.44l-18.32,18.33a3.17,3.17,0,0,1-4.48-4.48Z"/><path class="cls-9" d="M630.51,305.86h0a3,3,0,0,1-4.07-2l-12.63-34.21a3,3,0,0,1,2-4.07h0a3,3,0,0,1,4.07,2l12.62,34.21A3.79,3.79,0,0,1,630.51,305.86Z"/><path class="cls-2" d="M415.07,279.39s11-1.22,14.25,6.11,0,21.18-14.25,21.59Z"/><path class="cls-2" d="M424.84,290.8s-7.73.81-9.77,5.7"/><path class="cls-2" d="M139.76,623.52h0c-14.66-10.58-17.92-31.35-7.33-46.42L237.5,432.52c10.59-14.66,31.36-17.92,46.43-7.33h0c14.66,10.59,17.92,31.36,7.33,46.43L186.19,616.19A33.64,33.64,0,0,1,139.76,623.52Z"/><path class="cls-2" d="M580.42,623.52h0c14.66-10.58,17.91-31.35,7.33-46.42L482.67,432.52c-10.59-14.66-31.36-17.92-46.42-7.33h0c-14.67,10.59-17.92,31.36-7.33,46.43L534,616.19A33.64,33.64,0,0,0,580.42,623.52Z"/><path class="cls-10" d="M470.86,413.79c-16.7-18.74-85.93-42.36-85.93-42.36l-47.65.82V371s-69.64,23.63-85.93,42.36c-16.7,18.73-81.86,103.85-81.86,103.85l60.68,52.13,18.33-27.69,1.63,88.78H472.49l1.63-88.78,18.33,27.69,60.68-52.13C552.31,517.23,487.15,432.11,470.86,413.79Z"/><line class="cls-11" x1="473.31" y1="537.19" x2="473.31" y2="489.94"/><path class="cls-9" d="M359.68,403.61c-14.66,0-26.47-12.22-26.47-26.88V353.1a3.45,3.45,0,0,1,2.85-3.25l48.46-.41a2.77,2.77,0,0,1,2.85,2.85v24c0,14.66-11.81,26.88-26.47,26.88h-1.22v.41Z"/><line class="cls-2" x1="384.52" y1="352.7" x2="384.52" y2="352.7"/><path class="cls-2" d="M384.52,352.7v24a24.25,24.25,0,0,1-23.62,24h-1.22c-13,0-23.62-11-23.62-24V353.1l48.46-.4"/><path class="cls-2" d="M384.52,346.59h0l-48.46.41a6.26,6.26,0,0,0-6.11,6.11v23.62c0,16.29,13.44,29.73,29.73,30.13h1.63c16.29-.4,29.32-13.84,29.73-30.13v-24c-.41-3.67-2.85-6.11-6.52-6.11Z"/><polygon class="cls-2" points="384.52 358.81 384.52 358.81 384.52 358.81 384.52 358.81"/><path class="cls-7" d="M378.35,356.18s-27.69,12.22-47.65,13V354.14Z"/><path class="cls-2" d="M360.09,207.72h0a56.48,56.48,0,0,0-56.61,56.6v13.44s-13-1.22-16.29,6.93c-3.67,8.14,0,24.43,16.29,24.84v-4.48a56.49,56.49,0,0,0,56.61,56.61h0a56.49,56.49,0,0,0,56.61-56.61V264.32A56.48,56.48,0,0,0,360.09,207.72Z"/><path class="cls-2" d="M358.05,335.19s-6.51-.82-10.18-4.89"/><path class="cls-2" d="M292.48,290.39s9,1.22,11.41,6.51"/><polygon class="cls-7" points="364.98 318.9 371.49 318.9 369.86 290.8 377.6 318.9 364.98 318.9"/><polyline class="cls-11" points="369.86 290.8 371.49 318.9 364.98 318.9"/><path d="M433,243.55c-2-1.22-3.26-3.66-2-5.7h0c6.93-17.92-19.14-14.25-24-21.18s36.66-10.18,24-21.58c-8.55-7.74-37.47-2.85-55.39,1.22-8.55,2-17.51,3.26-26.06,4.48-74.53,8.15-56.61,78.6-56.61,78.6l11.41-2,3.25,6.92a4,4,0,0,0,7.33-.41,47.38,47.38,0,0,1,5.71-11c8.55-13,23.21-20.77,38.69-21.59s44,0,72.08,15.48C466.79,287.13,460.68,257,433,243.55Z"/><line class="cls-11" x1="251.35" y1="537.19" x2="282.3" y2="489.94"/><path class="cls-9" d="M447.24,493.61c-2.44,0-8.14-.81-9.77-6.92-2-8.15,6.52-8.15,6.52-8.15V472s-15.89,0-12.22,15.06c3.66,13.85,19.55,12.22,19.55,12.22S449.28,498.09,447.24,493.61Z"/><path class="cls-9" d="M443.58,472v6.1a34.14,34.14,0,0,0,34.21,34.21h0A34.15,34.15,0,0,0,512,478.13V472Z"/><path class="cls-2" d="M443.17,487.09c0-7.33-9.37-6.51-29.32-6.11-13,.41-37.88,9.78-53,15.89a284,284,0,0,1-29.32,10.59l-185.3,59.05a33.11,33.11,0,0,0-19.14,42.76h0a33.11,33.11,0,0,0,42.76,19.14l173.9-78.19a98.2,98.2,0,0,1,40.32-8.55c17.1,0,39.5-.82,43.57-3.26,7.33-4.89.41-13.85.41-13.85,5.7-7.74-1.22-14.66-1.22-14.66,6.92-8.55-1.63-14.66-1.63-14.66S443.17,495.65,443.17,487.09Z"/><line class="cls-11" x1="425.66" y1="494.83" x2="415.07" y2="494.83"/><line class="cls-11" x1="427.29" y1="509.49" x2="415.07" y2="509.49"/><line class="cls-11" x1="428.51" y1="524.15" x2="415.07" y2="524.56"/><path class="cls-2" d="M612.18,379.58S638.25,369.4,644,365.32c5.29-4.07,12.62,3.67,4.07,9S619.1,381.61,612.18,379.58Z"/><path class="cls-2" d="M635.8,387.32s39.51-17.92,42.36-29.73-10.19-2-16.7,2.85-32.17,22.39-32.17,22.39Z"/><path class="cls-2" d="M683.45,361.25c-10.18.41-47.65,19.14-80.23,18.74-26.47-.41-33.8,29.73-35,37.06-.41,1.62-.41,2.85-.82,4.48L528.29,592.17c-3.26,17.92,9,35,26.88,38.28h0c17.91,3.26,35-9,38.28-26.88l16.29-168.2c1.63-13,8.14-25.25,18.73-33,10.18-7.73,22.81-13.44,35-18.32C686.3,374.69,693.63,360.84,683.45,361.25Z"/><path class="cls-2" d="M630.51,630H442.36V521.3a14.43,14.43,0,0,1,14.25-14.25h160a14.44,14.44,0,0,1,14.26,14.25V630Z"/><circle class="cls-12" cx="536.43" cy="568.54" r="19.55"/><path class="cls-2" d="M429.73,621.9h12.63V630H429.73a3.85,3.85,0,0,1-4.07-4.07h0A4.08,4.08,0,0,1,429.73,621.9Z"/><line class="cls-11" x1="34.69" y1="630.86" x2="765.31" y2="630.86"/><circle class="cls-13" cx="143.02" cy="417.45" r="26.06"/><path class="cls-9" d="M128.77,417.45l6.92-6.92a1.81,1.81,0,0,0,0-2,1.85,1.85,0,0,0-2,0l-7.73,7.74a1.27,1.27,0,0,0-.41.82c0,.4,0,.81.41.81l7.73,7.74a1.85,1.85,0,0,0,2,0,1.81,1.81,0,0,0,0-2Z"/><path class="cls-9" d="M157.68,417.45l-6.92-6.92a1.81,1.81,0,0,1,0-2c.41-.81,1.22-.4,2,0l7.74,7.74a1.27,1.27,0,0,1,.41.82c0,.4,0,.81-.41.81l-7.74,7.74a1.83,1.83,0,0,1-2,0,1.81,1.81,0,0,1,0-2Z"/><path class="cls-9" d="M146.28,426h0c-.82.41-1.63,0-1.63-.81l-5.3-14.25c-.4-.82,0-1.63.82-1.63h0c.81-.41,1.63,0,1.63.81l5.29,14.26C147.5,424.78,147.09,425.6,146.28,426Z"/></svg>