<svg id="图层_1" data-name="图层 1" xmlns="http://www.w3.org/2000/svg" xmlns:xlink="http://www.w3.org/1999/xlink" viewBox="0 0 800 800"><defs><style>.cls-1,.cls-10,.cls-12,.cls-14,.cls-8{fill:none;}.cls-13,.cls-2,.cls-3,.cls-6{fill:#fff;}.cls-12,.cls-13,.cls-14,.cls-15,.cls-17,.cls-18,.cls-19,.cls-2,.cls-5,.cls-6{stroke:#000;}.cls-12,.cls-15,.cls-17,.cls-18,.cls-19,.cls-2,.cls-5,.cls-8{stroke-miterlimit:10;}.cls-10,.cls-12,.cls-13,.cls-14,.cls-15,.cls-18,.cls-19,.cls-2,.cls-5,.cls-8{stroke-width:1.5px;}.cls-4{fill:#ffc607;}.cls-5{fill:#b8ecff;}.cls-6{stroke-miterlimit:10;stroke-width:1.5px;}.cls-7{fill:#f2f2f2;}.cls-10,.cls-8{stroke:#181818;}.cls-10,.cls-13,.cls-14,.cls-8{stroke-linecap:round;}.cls-15,.cls-9{fill:#40adff;}.cls-10,.cls-13,.cls-14{stroke-linejoin:round;}.cls-11{fill:#ff844d;}.cls-16{clip-path:url(#clip-path);}.cls-17{stroke-width:0.5px;}.cls-18{fill:#ffaeae;}.cls-19{fill:#7cc996;}</style><clipPath id="clip-path"><path class="cls-1" d="M726.89,411.17h-274a8.88,8.88,0,0,1-8.94-8.94V204.88a8.89,8.89,0,0,1,8.94-8.94h274a8.88,8.88,0,0,1,8.93,8.94V402.23A9,9,0,0,1,726.89,411.17Z"/></clipPath></defs><path class="cls-2" d="M736.51,412.21H447.88a15.33,15.33,0,0,1-15.3-15.3V192.33a15.33,15.33,0,0,1,15.3-15.3H736.51a15.33,15.33,0,0,1,15.3,15.3V396.91A15.22,15.22,0,0,1,736.51,412.21Z"/><path d="M168.35,411.35c-13.23,2.92-52.77,25.95-68.07,95.75-2.93,13.75,55.52,36.1,117.58,11.52A10.37,10.37,0,0,0,223.19,504L181.93,426.3C181.93,426.47,173.34,410.31,168.35,411.35Z"/><path class="cls-3" d="M89.62,640.16,101.31,542a31.45,31.45,0,0,1,23.38-17.19L141,522.23l22-3.44h5.85l25.27,2.92,13.06,1.55a12.32,12.32,0,0,1,9.63,6.7L239,640.16Z"/><path d="M223,440.74c-3.09-20.8-23.72-35.07-46.07-31.8s-38,22.86-34.9,43.66,23.72,35.07,46.07,31.81"/><path class="cls-2" d="M163.2,486.3c-.18.51-4.47,26.47-7.22,39.54A14.48,14.48,0,0,0,167.67,543h0a14.54,14.54,0,0,0,16.5-11.18l7.05-38.16Z"/><line class="cls-1" x1="239.01" y1="581.36" x2="199.98" y2="581.19"/><path class="cls-4" d="M70.19,639.13c-4.81-8.77-14.95-9.63-2.23-29.57L101.31,542a31.44,31.44,0,0,1,23.38-17.19L141,522.23c1.55,13.75,8.25,84.06,8.25,84.06l30.26,2.24s-.35,16.5,0,31.11"/><path class="cls-4" d="M194,521.88,207,523.43a12.33,12.33,0,0,1,9.63,6.71L254.31,609s98.33,1.55,100.56-.17c-.34,2.58-1.37,32.49-1.37,31.12,0-1.55-132.89.68-132.89.68"/><path class="cls-5" d="M465.41,163.45v89.91l23,15.3-36.28-.51H360.72a5.8,5.8,0,0,1-5.85-5.85V164.83a7.26,7.26,0,0,1,7.22-7.22h97.48A5.8,5.8,0,0,1,465.41,163.45Z"/><circle class="cls-6" cx="226.76" cy="254.86" r="57.25" transform="translate(-78.65 102.87) rotate(-21.88)"/><circle class="cls-7" cx="226.11" cy="254.74" r="46.42"/><polyline class="cls-8" points="225.08 221.22 226.11 254.74 255.68 254.74"/><path class="cls-9" d="M562.2,642.39H441.34A19.52,19.52,0,0,1,421.92,623h0a19.52,19.52,0,0,1,19.42-19.43H562.2Z"/><path class="cls-3" d="M441.34,635.86a12.9,12.9,0,0,1,0-25.79H562.2v25.79Z"/><line class="cls-10" x1="446.16" y1="618.32" x2="562.02" y2="618.32"/><line class="cls-10" x1="446.16" y1="627.26" x2="562.02" y2="627.26"/><path class="cls-11" d="M541.57,602.85H467.82A11.89,11.89,0,0,1,456,591h0a11.89,11.89,0,0,1,11.86-11.86h73.75Z"/><path class="cls-3" d="M467.82,598.9a7.91,7.91,0,1,1,0-15.82h73.75v15.65l-73.75.17Z"/><line class="cls-10" x1="470.91" y1="588.24" x2="541.57" y2="588.24"/><line class="cls-10" x1="470.91" y1="593.74" x2="541.57" y2="593.74"/><path class="cls-2" d="M191.9,514h0a34.46,34.46,0,0,1-36.27-32.67L154.26,455a34.45,34.45,0,0,1,32.66-36.27h0a34.45,34.45,0,0,1,36.27,32.66l1.38,26.3A34.36,34.36,0,0,1,191.9,514Z"/><path class="cls-2" d="M168.7,482.52A14.69,14.69,0,1,1,152,470.14,14.73,14.73,0,0,1,168.7,482.52Z"/><line class="cls-10" x1="148.58" y1="486.3" x2="158.04" y2="483.72"/><path class="cls-12" d="M205.66,497.47l-1.55.52c-4.47,1.2-7.22-2.06-8.6-4.82"/><path d="M151.68,466.36c1.2.51,78.56-16.16,78.56-16.16s-6-45.39-50-41.43C154.26,411.17,151.68,466.36,151.68,466.36Z"/><line class="cls-12" x1="48.19" y1="640.5" x2="751.81" y2="640.5"/><polyline class="cls-13" points="205.14 477.36 207.38 485.95 204.11 485.1"/><path class="cls-14" d="M62.8,624.51h0a15.7,15.7,0,0,1,15.64-15.64l99.2.17a1.72,1.72,0,0,1,1.71,1.72v27.68a1.72,1.72,0,0,1-1.71,1.72L78.44,640A15.45,15.45,0,0,1,62.8,624.51Z"/><path class="cls-13" d="M179.35,614.37s28.54-3.44,31.46,9.63-7,16.67-12.72,16.33a9.64,9.64,0,0,1-7.9-5.33,31.52,31.52,0,0,0-11,.52Z"/><path class="cls-4" d="M223,624.51h0a15.7,15.7,0,0,1,15.64-15.64l99.2.17a1.72,1.72,0,0,1,1.71,1.72v27.68a1.72,1.72,0,0,1-1.71,1.72l-99.2-.17A15.45,15.45,0,0,1,223,624.51Z"/><path class="cls-4" d="M339.57,614.37S368.11,610.93,371,624s-7,16.67-12.72,16.33A9.67,9.67,0,0,1,350.4,635a31.46,31.46,0,0,0-11,.52Z"/><path class="cls-15" d="M480.88,557.47l-9.11,33.35a6.08,6.08,0,0,1-5.84,4.47H223a6.11,6.11,0,0,1-5.84-7.74l8.59-31.8Z"/><path class="cls-2" d="M511.83,443.49l-30.95,114-255.11-1.72L257.06,440.4a6.08,6.08,0,0,1,5.84-4.47H506A6,6,0,0,1,511.83,443.49Z"/><path class="cls-2" d="M410.92,637.75a2.09,2.09,0,0,1-.18,1H326.68a6.23,6.23,0,0,1-6-7.73l22.87-94.21a4.38,4.38,0,0,1,4.12-3.27l5.85.18,28.19.85a4.17,4.17,0,0,1,4,5.16L364,628.47l41.95,1C410.23,629.67,410.92,634.31,410.92,637.75Z"/><g class="cls-16"><path class="cls-9" d="M696.8,427.51H518.88l17.36-60.69a37.43,37.43,0,0,1,27.68-26.13c5.5-1.2,9.79-2.06,9.79-2.06l18.74-2.06h6.19l6,.86,34.72,5.32A33.16,33.16,0,0,1,664.14,361Z"/><path class="cls-2" d="M604.49,303.9c.17.52,4.47,26.48,7,39.37a14.4,14.4,0,0,1-11.69,17h0a14.27,14.27,0,0,1-16.33-11.18l-7-38Z"/><path class="cls-2" d="M612.05,290a11.82,11.82,0,1,0,13.41-10A11.92,11.92,0,0,0,612.05,290Z"/><line class="cls-12" x1="629.24" y1="291.53" x2="621.68" y2="289.29"/><path d="M542.6,269.52s0,24.58,31.63,33.7c19.08,5.5,25.44,9.79,24.07,3.43-1.21-6.36-8.43-34.38-8.43-34.38s-8.42-7.39-11.86-6.87c-3.26.51-35.41,4.12-35.41,4.12Z"/><path class="cls-2" d="M570.1,296.17a12,12,0,1,1-12.89-11,12.07,12.07,0,0,1,12.89,11Z"/><path class="cls-2" d="M594.34,341.72h0a32,32,0,0,1-34.72-29.22l-4-46.76,64-5.5,4,46.76a32.14,32.14,0,0,1-29.23,34.72Z"/><path d="M526.44,247a13.46,13.46,0,0,0,10.31,1.89s-10-3.95-5.5-19.25c0,0,7.74,12.38,33.87,5.33,12.89-3.44,46.76-13.58,54.32,3.09,0,0,27.16,10.49,8.08,42.81a11.31,11.31,0,0,0-6.36-1.21h0s-11.17-6.19-14.61-18.39c0,0-13.75,16.16-43.49,15.64-29.4-.51-37.65-18.22-36.62-29.91Z"/><path class="cls-2" d="M584.89,320.92a9.52,9.52,0,0,1,3.78-3.61,16,16,0,0,1,6-2.23,21,21,0,0,1,3.26-.17,4.83,4.83,0,0,1,1.55.17c.52.17,1,.17,1.55.34l1.54.52a3.44,3.44,0,0,1,1.38.68c.17,0,.17.18.34.18"/><path d="M563.23,276.91c29.57.52,43.49-15.64,43.49-15.64,3.44,12.2,14.61,18.39,14.61,18.39a11.27,11.27,0,0,1,6.36,1.21c19.09-32.32-8.08-42.81-8.08-42.81s-.34,8.77-12.72,13.93c-21.66,9.28-48.48.51-48.48.51,3.79,6,12,10.83,12,10.83C541.22,269,526.61,247,526.61,247c-1.2,11.69,7,29.4,36.62,29.91Z"/><path class="cls-17" d="M593.48,308a2.57,2.57,0,0,1,.69-.52,1.1,1.1,0,0,0-1.37-1.72c-1,.86-1.55.52-1.55.52-2.24-1-3.27-10-3.09-16a1,1,0,0,0-2.07,0c0,2.58.17,16,4.3,18.05A3,3,0,0,0,593.48,308Z"/></g><polyline class="cls-12" points="392.35 199.21 380.83 211.42 392.35 222.93"/><polyline class="cls-12" points="425.19 199.21 436.88 211.42 425.19 222.93"/><line class="cls-12" x1="418.65" y1="194.22" x2="398.88" y2="226.54"/><path class="cls-18" d="M708.32,191.13a4.82,4.82,0,0,1-9.63,0,4.7,4.7,0,0,1,4.82-4.81A4.92,4.92,0,0,1,708.32,191.13Z"/><circle class="cls-2" cx="718.81" cy="191.13" r="4.81"/><circle class="cls-19" cx="733.59" cy="191.13" r="4.81"/></svg>