<svg id="图层_1" data-name="图层 1" xmlns="http://www.w3.org/2000/svg" viewBox="0 0 800 800"><defs><style>.cls-1{fill:#f2f2f2;}.cls-2,.cls-6{fill:none;}.cls-10,.cls-2,.cls-3,.cls-6{stroke:#000;stroke-width:1.5px;}.cls-10,.cls-2{stroke-miterlimit:10;}.cls-3,.cls-7{fill:#fff;}.cls-3,.cls-6{stroke-linecap:round;stroke-linejoin:round;}.cls-10,.cls-4{fill:#ffc609;}.cls-5{fill:#dbdbdb;}.cls-8{fill:#40adff;}.cls-9{fill:#5576b5;}</style></defs><ellipse class="cls-1" cx="485.29" cy="356.56" rx="113.96" ry="109"/><path class="cls-2" d="M109.09,602.16V545.54a11.94,11.94,0,0,1,12-12H409.91"/><path class="cls-2" d="M273.3,443.62V221.72a11,11,0,0,1,11-11H626.5a11,11,0,0,1,11,11V533.86"/><path class="cls-3" d="M661.89,324.71s-2.13,23,3.18,29.72c0,0,43.89,8.14,24.77,62.64L528.47,414.6s-27.61-45.3,13.09-62.29c0,0,8.49-30.08,8.14-60.87l92.72-13.8Z"/><path class="cls-4" d="M687.37,516.17a304.79,304.79,0,0,1,19.82,86h47.42a518.58,518.58,0,0,0-10.26-80.33C730.19,453.53,704.71,427,704.71,427s-14.51-17.69-45.3-29.37l-114-.71s-29.72,13.45-38.22,27.25l17,178H687.37v-86Z"/><path class="cls-4" d="M424.42,585.18h0a28.56,28.56,0,0,1-6.37-39.29l88.83-122.45a28.56,28.56,0,0,1,39.28-6.37h0a28.56,28.56,0,0,1,6.37,39.29L463.7,578.81A28,28,0,0,1,424.42,585.18Z"/><path class="cls-3" d="M581.55,366.82l41.05.35V383.1l37.16,14.51s-26.54,21.59-61.22,19.46c-33.27-2.12-52.73-20.17-52.73-20.17l28.66-11.32A11.59,11.59,0,0,0,581.55,375Z"/><path class="cls-5" d="M582.26,367.17l39.64,3.19s-12,11.68-40.35,9.55h0a16,16,0,0,0,1.06-5.66Z"/><line class="cls-6" x1="515.02" y1="506.61" x2="511.83" y2="476.18"/><path class="cls-3" d="M555.72,305.24s-9.56-1.06-12,5.31c-2.83,6,0,18.05,12,18.4Z"/><path class="cls-3" d="M547.58,314.44s6.37.71,8.14,4.6"/><path class="cls-3" d="M602.43,244.37h0a47.8,47.8,0,0,1,47.78,47.78v11.32s11-1.06,13.8,6c3.18,7.08,0,20.52-13.8,20.88v-3.9a47.81,47.81,0,0,1-47.78,47.78h0a47.8,47.8,0,0,1-47.78-47.78V292.15A47.81,47.81,0,0,1,602.43,244.37Z"/><path class="cls-3" d="M604.2,352.31s5.66-.71,8.85-4.25"/><path class="cls-3" d="M659.41,314.09s-7.43,1.06-9.56,5.31"/><polygon class="cls-5" points="598.18 338.51 592.88 338.51 594.29 314.8 587.57 338.51 598.18 338.51"/><polyline class="cls-6" points="594.29 314.8 592.88 338.51 598.18 338.51"/><path class="cls-3" d="M611.28,239.77s-12.74-15.22-31.14-9.2c-19.82,6.37-13.81,25.83-13.81,25.83s-24.06-4.95-24.77,14.87c-.71,20.17,15.93,28.66,32.56,29.72s55.21-15.92,76.09,2.48c0,0,11.68.35,13.8,6C664.36,310.55,678.87,236.58,611.28,239.77Z"/><path class="cls-3" d="M622.6,370l-.35,13.09c-4.6,30.44,9.91,46,30.79,48.13,30.43,3.18,34.68-29,34.68-29"/><path class="cls-4" d="M446.71,590.84h0a28,28,0,0,1-33.26-21.59L398.58,454.59l38.58-8.14L468.3,557.93C471.49,572.79,461.58,587.65,446.71,590.84Z"/><polygon class="cls-7" points="392.92 357.26 371.33 346.29 361.07 346.29 356.47 363.99 367.09 378.5 365.32 395.49 384.07 407.87 409.91 414.24 402.83 377.08 392.92 357.26"/><path class="cls-3" d="M437.16,446.45l-15.22-57.33s-4.6-19.11-11.68-26.9c-6-7.08-15.92-23-19.46-33.27a2.91,2.91,0,0,0-5-1.06c-2.12,2.48-3.54,6-1.41,11.68,4.95,12,3.54,36.1,11,47.42"/><path class="cls-3" d="M353.64,383.1s-3.89,4.6,6.37,8.85,20.17,3.18,21.23,2.83c1.77-1.06,2.83-3.19-6.37-7.08C365.32,383.45,353.64,383.1,353.64,383.1Z"/><path class="cls-3" d="M352.22,368.59,359,373.9c11,2.47,24.77,11,23,14.51-1.41,2.47-12.39,1.06-24.06-2.83s-5.67-17-5.67-17"/><path class="cls-3" d="M388.32,354.79s-30.43-18.41-33.27-8.5c-2.47,9.56,20.88,29.38,24.07,27.61,3.54-1.42-.35-13.1-13.09-23.71"/><path class="cls-3" d="M358.24,356.2s-8.85,2.83-5.66,12.74,26.89,17.7,28.31,13.45-21.59-16.63-21.59-16.63"/><path class="cls-3" d="M362.13,392.65s12.39,10.62,22.3,15.22c9.55,4.6,14.51,47.07,14.51,47.07"/><path class="cls-6" d="M670.73,476.18s7.44,12.38,15.93,38.22"/><path class="cls-3" d="M285.69,305.24s9.55-1.06,12,5.31c2.83,6,0,18.05-12,18.4Z"/><path class="cls-3" d="M293.83,314.44s-6.37.71-8.14,4.6"/><path class="cls-3" d="M52.47,596.15h0a28.56,28.56,0,0,1-6.37-39.29l88.83-122.45A28.57,28.57,0,0,1,174.21,428h0a28.56,28.56,0,0,1,6.37,39.29L91.75,589.78A27.92,27.92,0,0,1,52.47,596.15Z"/><path class="cls-3" d="M425.48,596.15h0a28.56,28.56,0,0,0,6.37-39.29L343,434.41A28.57,28.57,0,0,0,303.74,428h0a28.56,28.56,0,0,0-6.37,39.29L386.2,589.78A28,28,0,0,0,425.48,596.15Z"/><path class="cls-8" d="M332.76,418.84c-14.16-15.57-72.91-35.74-72.91-35.74l-40.34.71v-.71s-58.75,20.17-72.9,35.74-69,87.77-69,87.77l51.31,43.88,15.57-23.35,1.42,75H333.82l1.41-75,15.58,23.35,51.31-43.88C401.77,506.61,346.56,434.41,332.76,418.84Z"/><line class="cls-6" x1="334.88" y1="523.24" x2="334.88" y2="483.25"/><path class="cls-7" d="M238.62,410.35c-12.39,0-22.65-10.62-22.65-23V367.17a3,3,0,0,1,2.48-2.83L259.5,364a2.43,2.43,0,0,1,2.48,2.48V387c0,12.39-10.26,22.65-22.65,23h-.71v.35Z"/><line class="cls-3" x1="259.85" y1="366.82" x2="259.85" y2="366.82"/><path class="cls-3" d="M259.85,366.82v20.53A20.08,20.08,0,0,1,240,407.52h-.71a20.09,20.09,0,0,1-19.82-20.17V367.17l40.34-.35"/><path class="cls-3" d="M259.85,361.51h0l-41.05.36a5.44,5.44,0,0,0-5.31,5.3v20.18c0,13.8,11.33,25.48,25.13,25.48H240a25.77,25.77,0,0,0,25.12-25.48V366.82a5.44,5.44,0,0,0-5.31-5.31Z"/><path class="cls-5" d="M254.56,369.83s-23.36,10.26-40.35,11.32V368.41Z"/><path class="cls-3" d="M239,244.37h0a47.8,47.8,0,0,0-47.77,47.78v11.32s-11-1.06-13.8,6c-3.19,7.08,0,20.52,13.8,20.88v-3.9A47.8,47.8,0,0,0,239,374.25h0a47.8,47.8,0,0,0,47.78-47.78V292.15A47.8,47.8,0,0,0,239,244.37Z"/><path class="cls-3" d="M237.21,352.31s-5.67-.71-8.85-4.25"/><path class="cls-3" d="M182,314.09s7.43,1.06,9.55,5.31"/><polygon class="cls-5" points="243.22 338.51 248.53 338.51 247.12 314.8 253.84 338.51 243.22 338.51"/><polyline class="cls-6" points="247.12 314.8 248.53 338.51 243.22 338.51"/><line class="cls-6" x1="146.96" y1="523.24" x2="173.15" y2="483.25"/><path class="cls-7" d="M312.59,486.08c-1.77,0-7.08-.35-8.5-5.66-1.77-7.08,5.67-7.08,5.67-7.08V468s-13.45,0-10.27,12.75c2.83,12,16.64,10.61,16.64,10.61S314.36,490,312.59,486.08Z"/><path class="cls-7" d="M309.76,468v5.3a28.92,28.92,0,0,0,29,29h0a28.92,28.92,0,0,0,29-29V468Z"/><path class="cls-3" d="M309.05,480.78c0-6.37-7.79-5.67-24.78-5-11.32.36-31.85,8.14-44.59,13.45-8.14,3.18-16.63,6.37-24.77,9.2L58.13,548.37a27.8,27.8,0,0,0-15.92,36.1h0A27.81,27.81,0,0,0,78.3,600.4l147.23-66.18a80.4,80.4,0,0,1,34-7.44c14.51,0,33.62-.7,36.81-2.83,6.37-4.24.35-11.68.35-11.68,5-6.72-1.06-12.38-1.06-12.38,5.66-7.08-1.42-12.39-1.42-12.39S309.05,488.21,309.05,480.78Z"/><line class="cls-6" x1="294.54" y1="487.15" x2="285.34" y2="487.15"/><line class="cls-6" x1="295.95" y1="499.53" x2="285.34" y2="499.53"/><line class="cls-6" x1="296.66" y1="511.92" x2="285.34" y2="512.27"/><path d="M182,304.89s-11.68-44.6,25.12-60.52,74.32-15.57,93.08,0c11.32,9.55,2.48,15.92-6,19.46a3.37,3.37,0,0,0-.35,6c3.18,1.77,5.66,4.95,6,10.26,1.06,14.51-20.53,16.28-39.64,15.57-19.11-.35-38.93-8.14-54.5,3.54S182,304.89,182,304.89Z"/><path class="cls-3" d="M483.87,602.16H643.13v-91.3a12.68,12.68,0,0,0-12.74-12.74H496.26a12.68,12.68,0,0,0-12.74,12.74l.35,91.3Z"/><circle class="cls-9" cx="563.5" cy="550.49" r="16.63"/><path class="cls-3" d="M653.75,595.44H643.13v6.72h10.62a3.54,3.54,0,0,0,3.54-3.54h0A3.27,3.27,0,0,0,653.75,595.44Z"/><line class="cls-6" x1="34.42" y1="602.16" x2="765.58" y2="602.16"/><path class="cls-6" d="M408.49,546.25l-148.28,8.14h-3.89c-9.21-.71-50.61-2.83-54.86,18.05-5,23.35,11.33,30.08,20.53,29.37a15.48,15.48,0,0,0,8.49-3.54,30.9,30.9,0,0,1,18.05-7.78,42.32,42.32,0,0,1,9.56,0l149.7,11.67a23.1,23.1,0,0,0,7.07-.35,28.11,28.11,0,0,0,23-27.6,27.81,27.81,0,0,0-26.9-28Z"/><path class="cls-3" d="M414.86,602.16H255.61V511.92a13.81,13.81,0,0,1,13.8-13.8H401.06a13.81,13.81,0,0,1,13.8,13.8v90.24Z"/><circle class="cls-9" cx="335.24" cy="550.49" r="16.63"/><path class="cls-3" d="M245,595.44h10.62v6.72H245a3.54,3.54,0,0,1-3.54-3.54h0A3.27,3.27,0,0,1,245,595.44Z"/><rect class="cls-10" x="348.33" y="197.65" width="15.57" height="27.96"/><rect class="cls-10" x="364.26" y="205.79" width="12.39" height="12.39"/></svg>