<svg id="图层_1" data-name="图层 1" xmlns="http://www.w3.org/2000/svg" viewBox="0 0 800 800"><defs><style>.cls-1,.cls-9{fill:none;}.cls-1,.cls-11,.cls-2,.cls-3,.cls-6,.cls-7,.cls-8,.cls-9{stroke:#000;}.cls-1,.cls-11,.cls-2,.cls-3,.cls-6,.cls-7,.cls-8{stroke-miterlimit:10;}.cls-1,.cls-11,.cls-2,.cls-3,.cls-8,.cls-9{stroke-width:1.5px;}.cls-2{fill:#ddd;}.cls-12,.cls-3{fill:#ffc609;}.cls-11,.cls-4{fill:#40adff;}.cls-5{fill:#ff844d;}.cls-6{fill:#b8ecff;}.cls-6,.cls-7{stroke-width:2px;}.cls-13,.cls-7,.cls-8{fill:#fff;}.cls-9{stroke-linecap:round;stroke-linejoin:round;}.cls-10{fill:#ffc607;}</style></defs><line class="cls-1" x1="47.31" y1="608.24" x2="752.69" y2="608.24"/><rect class="cls-2" x="90.4" y="571.17" width="618.87" height="36.07"/><rect class="cls-3" x="538.27" y="450.6" width="102.53" height="120.57"/><rect class="cls-4" x="507.21" y="419.54" width="66.8" height="66.8"/><rect class="cls-5" x="540.61" y="452.94" width="33.4" height="33.4"/><rect class="cls-4" x="236.35" y="278.93" width="27.72" height="27.72"/><rect class="cls-6" x="432.4" y="344.06" width="14.36" height="25.72"/><rect class="cls-6" x="447.09" y="351.07" width="11.36" height="11.36"/><circle class="cls-7" cx="195.27" cy="535.76" r="36.07"/><path class="cls-4" d="M208.29,306.65V574.84H507.21V306.65ZM451.43,533.76H264.07V348.4H451.43Z"/><path class="cls-7" d="M261.73,484c34.07-39.75,89.17-99.2,109.88-110.88,21-11.69,33.4-20.38,39.08-24.72,3-2.34,4.67-3.67,4.67-3.67l25.39-17.37L438.41,307l-4.68-44.42c-16,.66-53.1,11-53.1,11L377,297l-10.68,10L323.18,348.4l-46.09,44.09"/><path class="cls-7" d="M442.08,314s7.35-4,12,3-2,12.35-2,12.35S417.7,353.41,412,344.73,442.08,314,442.08,314Z"/><path class="cls-7" d="M446.09,303s9.68-2,12.69,7.68-6.68,13-6.68,13-47.76,15-51.1,3.34C397.66,315.67,446.09,303,446.09,303Z"/><path class="cls-7" d="M435.4,280.94s9-4,14,4.67-3.34,14-3.34,14-43.08,25.71-48.76,15S435.4,280.94,435.4,280.94Z"/><path class="cls-8" d="M411.36,226.5V216.14a24.52,24.52,0,0,1,24.38-24.38H551.63A24.52,24.52,0,0,1,576,216.14V376.79a24.52,24.52,0,0,1-24.38,24.38H435.74a24.52,24.52,0,0,1-24.38-24.38V242.53"/><line class="cls-9" x1="444.75" y1="336.04" x2="543.28" y2="336.04"/><line class="cls-9" x1="444.75" y1="358.09" x2="543.28" y2="358.09"/><path class="cls-10" d="M476.48,281.94a9.72,9.72,0,0,0,5,4,11.48,11.48,0,0,0,6.68-.34,17.67,17.67,0,0,0,4.34-2.34,2.58,2.58,0,0,1,3.34.34c2.67,2,8.35,3.67,12,1.33a21.18,21.18,0,0,0,3-2.67c.34-.33.34-.67.67-.67.34.34,0,.34,0,.67v30.06a2.24,2.24,0,0,1-1.33,2.34c-1,.33-1.67,0-2.68-.67-4.34-4-9-8-13.36-12-.66-.34-.66-.34-1,0-4.34,4-8.68,8-12.69,11.69l-.67.66a1.61,1.61,0,0,1-2.33.34,1.83,1.83,0,0,1-1.34-2V282.6C476.48,282.61,476.15,282.27,476.48,281.94Z"/><path class="cls-11" d="M528.58,247.87a30.94,30.94,0,0,0-3.34-3.34c-1-1-2-1.67-2-3a7.48,7.48,0,0,1,.33-2.68c.34-2,1-4,.67-5.67a5.45,5.45,0,0,0-3.67-4.35,13.13,13.13,0,0,0-5-.66,5,5,0,0,1-5-3.34c-.67-1.67-1.34-3.68-2.67-5a5.22,5.22,0,0,0-6-1.67,26.73,26.73,0,0,0-5.35,2.67,4,4,0,0,1-4.67,0c-1.34-.67-3-1.67-4.34-2.34-3-1.67-6-.67-8,2.34-1,1.67-1.67,3.34-2.34,4.67a4.24,4.24,0,0,1-3,2.34c-2,.34-3.68.34-5.68.67-3.68,1-5,3-4.68,6.68q.51,2.5,1,5a3.75,3.75,0,0,1-1,3.67c-1,1-2.34,2-3.34,3-3,3-3.34,6-.33,9a18,18,0,0,0,3.67,3.34c1.34,1,1.34,2.33,1,4s-.66,3.34-1,5.35a5.43,5.43,0,0,0,3.34,6,15.11,15.11,0,0,0,5.35,1c2,0,4,.67,4.67,3a15.79,15.79,0,0,0,1.67,3.34c1.67,3.34,4,5.34,8.35,3.34a37,37,0,0,0,3.68-2c1.33-.66,2.33-1.33,4-.66s3.34,1.67,4.68,2.33a7.85,7.85,0,0,0,5.34,1h.34c1.67-.67,3-2.34,4-5.35.33-.33.33-1,.67-1.67.66-1.67,2.33-3.34,4-3,1.67,0,3-.34,4.68-.34,3-.33,4.34-2,4.68-4.67a12.7,12.7,0,0,0-.34-5c-.67-2.34-.67-4.68,1.67-6.35a15.56,15.56,0,0,0,3.34-3.34C530.59,252.88,530.59,250.54,528.58,247.87Zm-34.73,18a14.37,14.37,0,1,1,14.36-14.37A14.26,14.26,0,0,1,493.85,265.91Z"/><path class="cls-7" d="M387.31,335c4-11,2.67-20.37,3.67-28.05a19.85,19.85,0,0,1,4.34-11c8.35-9,24.05-3.34,42.42-8.34,18.37-4.68-15-22.05-44.09-17-23.37,4-30.39,9-49.42,36.41-4.35,6.34-9.36,13.69-15.37,22.71-4,6-8.68,12.35-13.69,18.7-16,20.37-37.74,43.75-53.77,59.78"/><rect class="cls-4" x="215.98" y="320.01" width="48.09" height="211.41"/><circle class="cls-12" cx="355.58" cy="437.24" r="24.71"/><polygon class="cls-13" points="368.27 437.24 347.23 425.22 347.23 449.26 368.27 437.24"/></svg>