<svg id="图层_1" data-name="图层 1" xmlns="http://www.w3.org/2000/svg" xmlns:xlink="http://www.w3.org/1999/xlink" viewBox="0 0 800 800"><defs><style>.cls-1{fill:none;}.cls-2{fill:#f8f9fa;stroke:#e3eafd;}.cls-2,.cls-4,.cls-5{stroke-miterlimit:10;stroke-width:1.5px;}.cls-3{clip-path:url(#clip-path);}.cls-4,.cls-8{fill:#40adff;}.cls-4,.cls-5{stroke:#000;}.cls-5{fill:#fff;}.cls-6{fill:#638aff;}.cls-7{fill:#ffc607;}</style><clipPath id="clip-path"><circle class="cls-1" cx="364.36" cy="429.9" r="305.58"/></clipPath></defs><circle class="cls-2" cx="364.36" cy="429.9" r="310.76"/><g class="cls-3"><path class="cls-4" d="M593.29,529.86V668.67c0,8.28-6.73,15-15.54,15H313.08c-8.28,0-15.53-6.74-15.53-15V215.47c0-8.29,6.73-15,15.53-15H577.75c8.29,0,15.54,6.73,15.54,15V419.54"/><path class="cls-5" d="M593.29,491.53V623.09H298.06V261.56H593.29V427.31"/><path class="cls-6" d="M426.51,655.2h47.13c4.15,0,7.26-2.59,7.26-5.7s-3.11-5.7-7.26-5.7H426.51c-4.14,0-7.25,2.59-7.25,5.7S422.37,655.2,426.51,655.2Z"/><path class="cls-7" d="M500.06,495.67H349.34a38.93,38.93,0,0,1,35.74-38.84,40.48,40.48,0,0,1,76.65,0C482.45,456.83,500.06,474.44,500.06,495.67Z"/><path class="cls-5" d="M460.18,474.44a17.24,17.24,0,0,0-11.91,4.66,16.57,16.57,0,0,0,0,23.83l59.56,59.56a30.28,30.28,0,0,1,8.8,17.09l4.15,21.24A41.93,41.93,0,0,0,531.14,621l48.16,48.16a80.68,80.68,0,0,0,25.9,17.1l26.42,9.84c5.18,2.07,10.87.52,15-3.11l75.1-75.1a13.65,13.65,0,0,0,3.11-15L714.49,577a72.32,72.32,0,0,0-16.58-24.86L636.28,490.5a14.69,14.69,0,0,0-20.72,0,8.47,8.47,0,0,1-12.43,0,16.25,16.25,0,0,0-22.79,0l-8.81,8.8a8.46,8.46,0,0,1-12.43,0l-3.1-3.11a15,15,0,0,0-21.76,0l-14,14c-1.55,1.55-6.22,4.66-12.95.51-1-1-3.11-2.07-4.66-3.62-3.11-2.59-7.25-5.7-12.43-10.36-8.81-7.77-17.61-15.54-18.65-16.57A13.74,13.74,0,0,0,460.18,474.44Z"/><rect class="cls-8" x="463.29" y="385.35" width="29.52" height="53.87"/><polygon class="cls-8" points="506.27 387.94 449.3 387.94 477.79 350.65 477.79 350.65 506.27 387.94"/></g></svg>