<svg id="图层_1" data-name="图层 1" xmlns="http://www.w3.org/2000/svg" viewBox="0 0 800 800"><defs><style>.cls-1,.cls-15,.cls-2{fill:#fff;}.cls-15,.cls-17,.cls-2,.cls-4{stroke:#000;}.cls-2{stroke-linecap:square;}.cls-16,.cls-17,.cls-2,.cls-3,.cls-4{stroke-miterlimit:10;}.cls-15,.cls-16,.cls-17,.cls-2,.cls-3,.cls-4{stroke-width:1.5px;}.cls-3{fill:#f4f5f9;stroke:#1a2e35;}.cls-14,.cls-4{fill:#40adff;}.cls-5{fill:#ffcb00;}.cls-6{fill:#b8ecff;}.cls-13,.cls-16,.cls-7{fill:#f2f2f2;}.cls-8{fill:#638aff;}.cls-9{fill:#00b3fd;}.cls-10,.cls-17{fill:#ffc607;}.cls-11{fill:#e0e0e2;}.cls-12{fill:#8cefff;}.cls-13,.cls-16{stroke:#301c41;}.cls-13{stroke-miterlimit:10;stroke-width:1.5px;}.cls-15{stroke-linecap:round;stroke-linejoin:round;}</style></defs><path class="cls-1" d="M447.61,525.44H208.71V181.56H474.07v321.6C473.79,515.42,462.09,525.44,447.61,525.44Z"/><path class="cls-2" d="M192.28,223.88V170.42H457.64V492c0,12.25-11.7,22.27-26.18,22.27H192.56V356.14"/><rect class="cls-3" x="192.56" y="170.42" width="264.8" height="23.11"/><path class="cls-4" d="M234.33,565.26H141.05v-66h87.43L247.13,519v32.85C247.13,559.13,241.29,565.26,234.33,565.26Z"/><polygon class="cls-5" points="247.13 519.03 228.2 519.59 228.2 499.26 247.13 519.03"/><rect class="cls-1" x="166.66" y="516.25" width="59.59" height="2.78"/><rect class="cls-1" x="157.2" y="530.17" width="69.05" height="2.78"/><rect class="cls-1" x="157.2" y="543.82" width="69.05" height="2.78"/><path d="M315.35,358.09c.28,0,.56-.27.84-.55,0-.84.28-2,.28-3.07,0-.27-.28-.83-.56-.83s-.84.28-.84.56a9.76,9.76,0,0,1-.27,2.78c-.28.56,0,1.11.55,1.11Z"/><path d="M314.52,348.91a55.82,55.82,0,0,0-1.39-5.57c0-.28,0-.84.55-.84.28,0,.84,0,.84.56a56.5,56.5,0,0,1,1.39,5.57c0,.28-.28.83-.56.83h0C314.8,349.46,314.52,349.18,314.52,348.91Zm-3.62-10.59c-.84-1.67-1.95-3.34-2.79-4.73a.68.68,0,0,1,.28-1.11c.56-.28.84-.28,1.12.28a49.88,49.88,0,0,1,3.06,5,.53.53,0,0,1-.28.83H312C311.45,338.6,311.18,338.6,310.9,338.32Zm-6.41-9.18A51.33,51.33,0,0,0,300.6,325a.85.85,0,0,1,0-1.12.86.86,0,0,1,1.11,0,57.16,57.16,0,0,1,3.9,4.18.85.85,0,0,1,0,1.12,1,1,0,0,1-.56.27A1,1,0,0,0,304.49,329.14Zm-8.07-7.8c-1.39-1.11-3.06-2.23-4.73-3.34-.28-.28-.56-.56-.28-1.12s.55-.55,1.11-.27c1.67,1.11,3.06,2.22,4.73,3.34a.84.84,0,0,1,0,1.11c-.27.28-.27.28-.55.28ZM287,315.21l-5-2.5c-.28-.28-.56-.56-.28-.84s.56-.56.84-.28l5,2.51c.28.28.56.56.28,1.11,0,.28-.28.28-.56.28A.27.27,0,0,0,287,315.21Zm-10.3-5a41.87,41.87,0,0,0-5.29-1.95c-.28,0-.56-.55-.56-.83s.56-.56.84-.56c1.95.56,3.62,1.39,5.29,1.95.28.28.55.56.28.83.27.56,0,.56-.56.56Zm-10.86-3.62a32.4,32.4,0,0,0-5.57-1.39c-.28,0-.56-.56-.56-.84s.56-.55.84-.55c1.95.55,3.62.83,5.57,1.39.28,0,.56.56.56.83s-.28.56-.84.56Zm-96.34-2.23c-.28,0-.56-.27-.56-.83,0-.28.28-.56.84-.56,1.67,0,3.34.28,5,.28h.56a.84.84,0,0,1,0,1.67h-.56A42.72,42.72,0,0,0,169.45,304.35Zm10.58-.83c0-.28.28-.84.56-.84a43.13,43.13,0,0,0,5.56-.55c.28,0,.84.27.84.55s-.28.84-.56.84c-2.23.28-3.9.28-5.84.56h0C180.59,304.35,180,304.08,180,303.52Zm74.9.28c-2-.28-3.62-.56-5.57-.84-.28,0-.56-.56-.56-.83s.56-.56.84-.56c2,.28,3.9.56,5.57.83.28,0,.56.56.56.84-.28.56-.56.56-.84.56Zm-91.33-.28a33.35,33.35,0,0,1-5.57-1.39c-.28,0-.56-.56-.56-.84s.56-.56.84-.56a36.92,36.92,0,0,0,5.29,1.4c.28,0,.56.55.56.83.28.28,0,.56-.56.56Zm27.84-.84c0-.28.28-.83.56-.83l1.67-.28a19.64,19.64,0,0,1,3.9-.28c.28,0,.84.28.84.56s-.28.83-.56.83c-1.39,0-2.79.28-3.9.28l-1.67.28h0C192,303.24,191.44,303,191.44,302.68Zm52.07-.55c-1.95-.28-3.89-.28-5.56-.56-.28,0-.56-.28-.56-.84s.28-.55.83-.55c1.95.28,3.9.28,5.85.55.28,0,.56.28.56.84a1.45,1.45,0,0,1-1.12.56Zm-40.65-.56c0-.28.28-.84.56-.84a42.44,42.44,0,0,1,5.85-.27c.27,0,.83.27.83.55s-.28.84-.56.84c-1.95,0-3.89.28-5.57.28h0C203.14,302.13,202.86,301.85,202.86,301.57Zm11.42-.84c0-.27.28-.83.55-.83a40.93,40.93,0,0,0,5.85-.28.84.84,0,1,1,0,1.67,35.31,35.31,0,0,0-5.57.28h0C214.56,301.29,214.28,301,214.28,300.73Zm17.82.56a35.31,35.31,0,0,1-5.57-.28.84.84,0,1,1,0-1.67,40.93,40.93,0,0,1,5.85.28.58.58,0,0,1,.55.84.74.74,0,0,1-.83.83Zm-79.36-1.67a49.88,49.88,0,0,1-5-3.06c-.28-.28-.28-.56,0-1.12.28-.28.56-.28,1.11,0a27.52,27.52,0,0,0,4.74,3.07c.27.28.55.55.27.83,0,.28-.27.28-.55.28C152.74,299.9,152.74,299.9,152.74,299.62Zm-9.47-7c-1.39-1.39-2.5-2.79-3.89-4.46a.78.78,0,0,1,1.11-1.11c1.11,1.39,2.51,3.06,3.62,4.18a.84.84,0,0,1,0,1.11c-.28.28-.28.28-.56.28C143.55,292.94,143.55,292.94,143.27,292.66ZM136,283.75a46.38,46.38,0,0,1-2.78-5,.54.54,0,0,1,.28-.84.53.53,0,0,1,.83.28c.84,1.67,1.95,3.34,2.79,5,.28.28,0,.84-.28,1.12h-.28A.6.6,0,0,0,136,283.75Z"/><path d="M131.3,274h0c.56-.28.84-.55.56-.83-.28-.84-.84-1.67-1.12-2.51-.28-.28-.55-.55-.83-.28s-.56.56-.28.84a28.66,28.66,0,0,1,1.11,2.78C130.74,273.72,131,274,131.3,274Z"/><path class="cls-6" d="M95.94,216.64,99,284.86l22.55-23.67s-25.61-46.5-25.89-45.66l1.11-.84c-.83-.27,27.29,44.83,27.29,44.83l31.47-8.07-58.2-35.64Z"/><rect class="cls-7" x="250.2" y="378.14" width="149.52" height="108.04"/><path class="cls-8" d="M386.63,396.8a4.4,4.4,0,0,0-4.45,4.45,4.6,4.6,0,0,0,1.39,3.34c-5.29,4.46-10.58,9.19-15.87,13.65l-1.11,1.11a4.93,4.93,0,0,0-2.79-1.11,4.48,4.48,0,0,0-2.22,8.35c-1.12,2.79-2.23,5.57-3.62,8.35a19.54,19.54,0,0,0-1.4,3.62h-1.11a4.46,4.46,0,0,0-3.9,2.23c-5-3.34-10.3-6.4-15.31-9.74-3.9-2.51-7.52-4.74-11.42-7.24a3.53,3.53,0,0,0,.28-1.67,4.46,4.46,0,1,0-8.91,0V423c-7.24,3.06-14.48,5.85-21.72,8.91-.84.28-1.39.56-2.23.84a4.56,4.56,0,0,0-4.17-2.79,4.4,4.4,0,0,0-4.46,4.46,4.64,4.64,0,0,0,1.39,3.34c-1.11,1.11-2.23,2.5-3.34,3.62-5,5.85-10.3,11.69-15.31,17.54a4.47,4.47,0,0,0-2.51-.83,4.46,4.46,0,1,0,4.46,4.45,3.37,3.37,0,0,0-.84-2.5c4.46-5,8.63-10,13.09-14.76,1.95-2.23,3.9-4.18,5.57-6.41a3.49,3.49,0,0,0,1.67.28,4.4,4.4,0,0,0,4.45-4.45v-.28h.28c7.8-3.34,15.87-6.41,23.67-9.75a4.45,4.45,0,0,0,3.9,2.23,4.64,4.64,0,0,0,3.34-1.39c3.34,2.23,7,4.45,10.3,6.68,5.57,3.62,11.14,7,16.71,10.58v.56a4.46,4.46,0,0,0,8.91,0,4.88,4.88,0,0,0-2-3.9c1.67-3.9,3.34-8.07,5-12h.84A4.4,4.4,0,0,0,367.7,423a5.27,5.27,0,0,0-.56-2.23c.84-.83,1.95-1.67,2.79-2.5,3.9-3.34,8.07-7,12-10.3.84-.84,1.67-1.4,2.51-2.23a3.49,3.49,0,0,0,1.67.28,4.4,4.4,0,0,0,4.45-4.46C391.37,399,389.14,396.8,386.63,396.8Z"/><path class="cls-9" d="M320.64,219.71a70.52,70.52,0,0,0-53.18,24.22l53.18,46.22,53.19-46.22A70.54,70.54,0,0,0,320.64,219.71Z"/><path class="cls-10" d="M395.54,279.85l-69.88,10v70.45a70.34,70.34,0,0,0,70.44-70.45C396.1,286.53,395.82,283.19,395.54,279.85Z"/><path class="cls-11" d="M267.46,244.21C242.4,274,246,318.55,275.81,343.61a53.8,53.8,0,0,0,8.08,5.85L321.2,289.6Z"/><path class="cls-6" d="M321.2,360.32a70.62,70.62,0,0,1-38.15-11.14l38.15-59.31Z"/><path class="cls-12" d="M399.16,276a70.86,70.86,0,0,0-16.42-36.2L329.55,286Z"/><polygon class="cls-4" points="621.92 389.28 606.05 414.9 515.28 357.54 531.15 331.92 621.92 389.28"/><path class="cls-4" d="M653.11,426.31l-.28.28c-5,8.08-13.92,11.7-20.05,7.8l-69.61-42.88,18.38-30.91,69.89,44C657.28,408.49,658.12,418.24,653.11,426.31Z"/><circle class="cls-13" cx="455.47" cy="300.45" r="78.24" transform="translate(101.19 715.44) rotate(-82.92)"/><path class="cls-4" d="M503,223.6a90.94,90.94,0,1,0,29,125.31A91.1,91.1,0,0,0,503,223.6Zm13.65,115.84a72.93,72.93,0,1,1-23.11-100.52A72.77,72.77,0,0,1,516.67,339.44Z"/><path class="cls-14" d="M564.28,390.67l17.54-29.23a2.55,2.55,0,0,0-.55-3.07l-.28-.28a2.28,2.28,0,0,0-3.34.56l-17.26,29.52a2.24,2.24,0,0,0,.83,3.06h0A2,2,0,0,0,564.28,390.67Z"/><path class="cls-15" d="M647,478.1c-21.16,6.69-40.37,9.75-59.31,13.37-1.95-8.63-1.95-17.82-3.34-26.45s-5.29-14.76-9.19-22.56c-2.5-5.29-4.73-11.14-8.07-16.15-2.51-3.9-5.57-7.52-8.08-11.41-4.17-6.41-7.79-13.65-13.36-18.94-3.34-3.06-6.41-6.12-9.75-8.91a5.77,5.77,0,0,1-2-5.85c.56-2.22,2-4.17,6.68-4.17,9.19-.28,15.32,7.51,19.5,13.64.83,1.39,3.89,4.18,7.24,7.52,1.39-10.3,5.84-42.33,5.84-42.6A31.44,31.44,0,0,1,579,341.94c4.18-5.29,10-3.06,12.53,2.51,2.23,4.73,1.67,11.41,1.95,16.7l1.39.84c.56-3.34,1.39-12.53,3.34-15,4.46-5.29,10-3.06,12.25,2.79,1.67,4.45,1.67,10.3,2,15a20.94,20.94,0,0,0,.28,4.18c.84-1.67.84-3.9,1.67-5.85,4.46-10,16.15-6.12,20.33,1.67a207.67,207.67,0,0,1,11.41,27c6.13,18.94-2.78,36.76-3.34,55.69C642.25,450.26,648.09,477.83,647,478.1Z"/><polygon class="cls-16" points="582.38 519.31 577.93 480.61 654.22 452.49 667.31 499.54 582.66 524.88 582.38 519.31"/><path class="cls-17" d="M704.34,629.58,670.09,475.32s-78.24,44.83-94.39,49l-4.46,105.25"/></svg>