<svg id="图层_1" data-name="图层 1" xmlns="http://www.w3.org/2000/svg" xmlns:xlink="http://www.w3.org/1999/xlink" viewBox="0 0 800 800"><defs><style>.cls-1,.cls-12,.cls-14,.cls-22,.cls-25,.cls-3{fill:none;}.cls-2{fill:#40adff;}.cls-14,.cls-15,.cls-16,.cls-17,.cls-19,.cls-20,.cls-21,.cls-22,.cls-23,.cls-3,.cls-5,.cls-7,.cls-9{stroke:#000;}.cls-21,.cls-22,.cls-25,.cls-3,.cls-5,.cls-7{stroke-linecap:round;stroke-linejoin:round;}.cls-14,.cls-15,.cls-16,.cls-17,.cls-23,.cls-25,.cls-3,.cls-7,.cls-9{stroke-width:1.5px;}.cls-4{clip-path:url(#clip-path);}.cls-11,.cls-17,.cls-19,.cls-20,.cls-21,.cls-5,.cls-7{fill:#fff;}.cls-5{stroke-width:1.5px;}.cls-6{fill:#c1c1c1;}.cls-8{fill:#5576b5;}.cls-9{fill:#ffc609;}.cls-12,.cls-14,.cls-15,.cls-16,.cls-17,.cls-23,.cls-9{stroke-miterlimit:10;}.cls-10,.cls-16{fill:#f2f2f2;}.cls-12,.cls-25{stroke:#fff;}.cls-13,.cls-23{fill:#b8ecff;}.cls-15{fill:#7cc996;}.cls-18{fill:#dbdbdb;}.cls-19{stroke-miterlimit:10;stroke-width:1.5px;}.cls-20{stroke-miterlimit:10;stroke-width:1.5px;}.cls-24{fill:#ffc607;}.cls-26{fill:#ff844d;}</style><clipPath id="clip-path"><path class="cls-1" d="M283.54,512.49h-202A16.21,16.21,0,0,1,65.4,496.37V152.83a16.21,16.21,0,0,1,16.11-16.12h202a16.21,16.21,0,0,1,16.11,16.12V496.37A16.06,16.06,0,0,1,283.54,512.49Z"/></clipPath></defs><rect class="cls-1" x="47.07" y="47.07" width="705.86" height="705.86"/><path class="cls-2" d="M312.46,513.37H107.35a16.21,16.21,0,0,1-16.12-16.11V149.08A16.21,16.21,0,0,1,107.35,133H312.46a16.21,16.21,0,0,1,16.12,16.12V497.26A15.93,15.93,0,0,1,312.46,513.37Z"/><path class="cls-3" d="M285.08,513.37H80a16.21,16.21,0,0,1-16.12-16.11V149.08A16.21,16.21,0,0,1,80,133H285.08a16.21,16.21,0,0,1,16.12,16.12V497.26A16.06,16.06,0,0,1,285.08,513.37Z"/><g class="cls-4"><ellipse class="cls-5" cx="165.01" cy="313.05" rx="12.81" ry="16.78" transform="matrix(0.9, -0.43, 0.43, 0.9, -118.81, 101.68)"/><ellipse class="cls-5" cx="264" cy="266.2" rx="12.81" ry="16.78" transform="translate(-88.95 139.77) rotate(-25.53)"/><rect class="cls-6" x="218.29" y="324.5" width="33.78" height="9.05" transform="translate(-118.84 133.49) rotate(-25.53)"/><path class="cls-7" d="M265.21,308.7l-69.55,33.12a19.78,19.78,0,0,1-26.27-9.27l-17.22-36.21a19.78,19.78,0,0,1,9.27-26.27L231,237a19.78,19.78,0,0,1,26.27,9.27l17.22,36.21A19.46,19.46,0,0,1,265.21,308.7Z"/><path class="cls-8" d="M252,297.89,195.88,324.6A13.2,13.2,0,0,1,178,318.2l-9.27-19.65a13.2,13.2,0,0,1,6.4-17.89L231.21,254a13.2,13.2,0,0,1,17.88,6.4L258.37,280A13.58,13.58,0,0,1,252,297.89Z"/><rect class="cls-6" x="190.92" y="233.53" width="5.74" height="17.88" transform="translate(-85.58 107.19) rotate(-25.53)"/><path class="cls-7" d="M203.17,243.57l-15.9,7.51A6,6,0,0,0,184.4,259h0l26.72-12.81h0A6.38,6.38,0,0,0,203.17,243.57Z"/><circle class="cls-9" cx="187.49" cy="231.21" r="9.27"/><path class="cls-7" d="M328.8,415.12l-90.08,43.06a17.76,17.76,0,0,1-23.63-8.39l-34-71.32a17.74,17.74,0,0,1,8.39-23.62l90.08-43.05a17.74,17.74,0,0,1,23.63,8.39l34,71.31A17.74,17.74,0,0,1,328.8,415.12Z"/><path class="cls-8" d="M303.18,373.39l-81,38.64a13.56,13.56,0,0,1-17.89-6.18l-13-27.16a13.54,13.54,0,0,1,6.18-17.88l81-38.64a13.55,13.55,0,0,1,17.88,6.18l13,27.16A13.22,13.22,0,0,1,303.18,373.39Z"/><path class="cls-10" d="M327.69,407,233,452.22a5.57,5.57,0,0,1-7.51-2.65L220,438.09a5.56,5.56,0,0,1,2.65-7.51l94.72-45.26a5.55,5.55,0,0,1,7.5,2.65l5.52,11.48A5.44,5.44,0,0,1,327.69,407Z"/><path class="cls-7" d="M310,334.76h0l-10.16-21.2h0a6.69,6.69,0,0,1,8.83,3.09l4.42,9.28A6.55,6.55,0,0,1,310,334.76Z"/><path class="cls-7" d="M308.7,316.65s47-21.63,75.73,38.42l-9.93,4.86s-19.21-46.59-61.16-33.78Z"/><line class="cls-3" x1="322.17" y1="324.16" x2="319.96" y2="313.56"/><line class="cls-3" x1="333.21" y1="324.38" x2="334.76" y2="313.34"/><line class="cls-3" x1="343.59" y1="327.25" x2="348" y2="316.65"/><line class="cls-3" x1="353.3" y1="332.77" x2="359.93" y2="323.5"/><line class="cls-3" x1="361.69" y1="340.5" x2="370.75" y2="333.65"/><line class="cls-3" x1="368.76" y1="349.55" x2="378.69" y2="344.69"/><path class="cls-9" d="M368.54,339.39h0a8.94,8.94,0,0,1,11.92,4.2l5.3,11-16.12,7.73-5.3-11A8.76,8.76,0,0,1,368.54,339.39Z"/><path class="cls-8" d="M376.71,350.21l1.76,3.76a12.49,12.49,0,0,1,10.16,21.41l1.77,3.75a16.5,16.5,0,0,0,4.41-19.87A16.74,16.74,0,0,0,376.71,350.21Z"/><path class="cls-8" d="M372.07,352.42l1.77,3.75a12.83,12.83,0,0,0-2.65,14.35,12.45,12.45,0,0,0,12.8,7.07l1.77,3.75a16.59,16.59,0,0,1-18.33-9A17,17,0,0,1,372.07,352.42Z"/><circle class="cls-7" cx="377.81" cy="359.26" r="9.05"/><circle class="cls-8" cx="377.81" cy="359.26" r="4.86"/><path class="cls-7" d="M187.93,393.05h0l-10.15-21.2h0a6.61,6.61,0,0,0-3.09,8.83L179.1,390A6.75,6.75,0,0,0,187.93,393.05Z"/><path class="cls-7" d="M174.91,380.68s-46.37,23-17.67,83l9.94-4.86S142.89,414.46,179.32,390Z"/><line class="cls-3" x1="172.04" y1="395.92" x2="165.41" y2="387.53"/><line class="cls-3" x1="165.19" y1="404.53" x2="155.7" y2="398.79"/><line class="cls-3" x1="161" y1="414.46" x2="149.96" y2="411.37"/><line class="cls-3" x1="159.23" y1="425.5" x2="147.75" y2="424.84"/><line class="cls-3" x1="159.89" y1="436.76" x2="149.08" y2="439.63"/><line class="cls-3" x1="162.76" y1="448.02" x2="152.61" y2="452.88"/><path class="cls-9" d="M154.82,441.4h0a8.93,8.93,0,0,0-4.2,11.92l5.3,11L172,456.63l-5.3-11A8.94,8.94,0,0,0,154.82,441.4Z"/><path class="cls-8" d="M158.13,454.64l1.76,3.76a12.86,12.86,0,0,0-2.65,14.35,12.45,12.45,0,0,0,12.81,7.06l1.77,3.76a16.61,16.61,0,0,1-18.33-9.06A17.21,17.21,0,0,1,158.13,454.64Z"/><path class="cls-8" d="M162.76,452.44l1.77,3.75a12.49,12.49,0,0,1,10.16,21.42l1.76,3.75a16.51,16.51,0,0,0,4.42-19.87A16,16,0,0,0,162.76,452.44Z"/><circle class="cls-7" cx="164.31" cy="461.27" r="9.05"/><circle class="cls-8" cx="164.31" cy="461.27" r="4.86"/><path class="cls-11" d="M218.18,427.05a3.47,3.47,0,0,1-3.09-2,3.57,3.57,0,0,1,1.55-4.64l96.48-46.14a3.19,3.19,0,0,1,1.55-.44,3.46,3.46,0,0,1,3.09,2,3.57,3.57,0,0,1-1.55,4.64L219.73,426.6A4,4,0,0,1,218.18,427.05Z"/><path d="M314.67,375.6a2.23,2.23,0,0,1,1.76,1.11,1.86,1.86,0,0,1-.88,2.43l-96.48,46.14c-.23.22-.45.22-.89.22a2.24,2.24,0,0,1-1.76-1.1,1.85,1.85,0,0,1,.88-2.43l96.48-46.15c.22-.22.44-.22.89-.22m0-3.31a6.52,6.52,0,0,0-2.21.44L216,418.88a5,5,0,0,0-2.42,6.84,5.13,5.13,0,0,0,4.63,2.87,6.57,6.57,0,0,0,2.21-.44L316.87,382a4.85,4.85,0,0,0,2.65-2.87,5,5,0,0,0-.22-4,5.14,5.14,0,0,0-4.63-2.87Z"/><path class="cls-12" d="M225.47,300.76a9.08,9.08,0,0,1-4.64,5.29,9.29,9.29,0,0,1-7.28.23"/><rect class="cls-5" x="255.39" y="449.24" width="29.15" height="88.98" transform="translate(-186.43 164.56) rotate(-25.53)"/><path class="cls-9" d="M305.17,526a18.71,18.71,0,1,0-33.78,16.12"/><path class="cls-8" d="M278.24,485.78l-21.42,10.15a7,7,0,0,1-9.27-3.31h0a6.94,6.94,0,0,1,3.31-9.27l21.41-10.16a7,7,0,0,1,9.28,3.31h0A7,7,0,0,1,278.24,485.78Z"/><rect class="cls-5" x="321.85" y="417.45" width="29.15" height="88.98" transform="translate(-166.24 190.1) rotate(-25.53)"/><path class="cls-9" d="M371.63,494.39a18.71,18.71,0,1,0-33.78,16.11"/><path class="cls-8" d="M344.69,454l-21.41,10.16a7,7,0,0,1-9.28-3.31h0a7,7,0,0,1,3.32-9.28l21.41-10.15a7,7,0,0,1,9.27,3.31h0A6.94,6.94,0,0,1,344.69,454Z"/><rect class="cls-13" x="188.27" y="288.72" width="6.84" height="18.11" transform="translate(-109.62 111.69) rotate(-25.53)"/><rect class="cls-13" x="228.45" y="269.52" width="6.84" height="18.11" transform="translate(-97.42 127.13) rotate(-25.53)"/></g><path class="cls-14" d="M194.78,108.67V86.15a29.34,29.34,0,0,1,29.36-29.36H514.48a29.34,29.34,0,0,1,29.36,29.36V312.46H655.78a29.35,29.35,0,0,1,29.37,29.36v372a29.35,29.35,0,0,1-29.37,29.36H223.92a29.34,29.34,0,0,1-29.36-29.36V543.62"/><path class="cls-15" d="M430.8,581.38H353.52s-8.16-20.76-3.09-30.91S367,541.63,367,541.63s-5.3-14.57,5.3-20.75c9.5-5.52,17.89.66,19.87,2.21,2-1.55,10.38-8,19.87-2.21,10.6,6.4,5.3,20.75,5.3,20.75s11.48-1.1,16.56,8.84C439,560.62,430.8,581.38,430.8,581.38Z"/><polygon class="cls-7" points="434.33 579.39 349.99 579.39 357.94 645.85 426.61 645.85 434.33 579.39"/><line class="cls-3" x1="342.04" y1="594.18" x2="417.77" y2="594.18"/><path class="cls-16" d="M526.62,539.43s-12.58-97.37,62-108,146.16,47.47,147.71,166S633.48,745.2,586.45,741.67C549.14,738.8,465,730.41,461.05,634.59l51-52.55Z"/><path class="cls-7" d="M653.13,597.71h0a13.09,13.09,0,0,0,11.48-14.35l-3.75-33.78a13.11,13.11,0,0,0-14.35-11.48h0A13.11,13.11,0,0,0,635,552.45l3.75,33.78A13.22,13.22,0,0,0,653.13,597.71Z"/><path class="cls-17" d="M614.27,472.09s-7.5,20.75-22.74,20.31-15-13-15-13l-.44-4.41-2.65-26.28,19.43-18.32Z"/><path class="cls-18" d="M598.38,437c-1.33,8.61-5.3,26.94-22.08,23.63l-1.55-16.12,10.6-9.94,9.27-4.63Z"/><ellipse class="cls-19" cx="596.35" cy="418.97" rx="10.16" ry="8.61" transform="translate(-64.67 725.93) rotate(-60)"/><ellipse class="cls-20" cx="573.52" cy="429.04" rx="22.52" ry="28.92" transform="translate(-129.51 292.12) rotate(-25.78)"/><path d="M590.65,412.69l2,3.54a2.38,2.38,0,0,1-1.11,3.31h0a2.35,2.35,0,0,1-2.87-.66L582,409.6l-29.59,13.47s-15.67,7.73-23.62-13.47c0,0,7.29-.22,15.9-7.06,7.72-6.18,23.62-19.21,38.19-12.81a22,22,0,0,1,6.4,4.42c8.62,8.61,10.16,14.79,10.16,14.79h-1.54c-2.87.44-4,.66-5.75,2.43Z"/><polyline class="cls-21" points="564.38 429.48 567.25 439.19 570.12 436.32"/><line class="cls-22" x1="602.79" y1="414.68" x2="594.84" y2="421.31"/><path class="cls-21" d="M571,443.38a7.67,7.67,0,0,0,4-2"/><polygon class="cls-17" points="440.96 673.45 433.67 687.13 474.74 710.54 483.13 694.86 440.96 673.45"/><polygon class="cls-17" points="389.73 621.34 375.82 632.16 402.98 665.05 417.99 654.01 389.73 621.34"/><path class="cls-13" d="M548.48,568.35l-61.16-18.1a31.25,31.25,0,0,0-29.58,6.62l-60.94,55,31.35,34.89,64-50.78Z"/><line class="cls-3" x1="497.26" y1="584.91" x2="423.96" y2="633.48"/><path class="cls-23" d="M625.76,585.13,522,561.51c-13-2.65-26.94,6.18-33.34,17.88l-45,80.81L492.18,686l28.48-58.95L604.12,641a33,33,0,0,0,37.09-23.4l5.3-18.55Z"/><path class="cls-3" d="M627.08,601.69s-.44,23.18-20.75,19.65-87-14.35-87-14.35l-36.43,69.55"/><path class="cls-2" d="M672.56,563.93l-32.67,1.55,4.63,29.14-126.07-35.1,16.78-62.26a40.07,40.07,0,0,1,24.29-26.94l14.13-6,.44,3.75s2.43,10.38,15.68,10.82c13.46.44,20.75-17.66,20.75-17.66l13,2.65a52.29,52.29,0,0,1,41.73,44.6Z"/><line class="cls-3" x1="555.32" y1="513.37" x2="559.96" y2="570.56"/><line class="cls-3" x1="631.72" y1="529.27" x2="635.69" y2="564.6"/><polygon class="cls-7" points="440.51 656.66 497.26 688.02 488.2 705.9 431.68 673 440.51 656.66"/><polygon class="cls-7" points="431.68 648.5 417.11 659.98 383.55 618.69 398.34 606.99 431.68 648.5"/><path class="cls-24" d="M477.83,710.54l-44.16-25.61S390,669.25,379.58,690l86.55,49.9Z"/><line class="cls-25" x1="467.67" y1="730.41" x2="389.51" y2="685.81"/><line class="cls-25" x1="421.53" y1="679.41" x2="431.68" y2="691.77"/><line class="cls-25" x1="411.15" y1="677.86" x2="415.57" y2="691.33"/><path class="cls-25" d="M475,712.52s-17.89-13.24-27.16,6.41"/><path class="cls-7" d="M536.34,533.47c.22-2.87,4-2.21,12.14-1.55,5.52.66,15.45,4.86,21.42,7.73,4,1.76,7.94,3.53,11.92,5.08l75.07,28.48c6.84,3.09,9.93,10.82,6.62,17.22h0a14.22,14.22,0,0,1-18.33,6.18l-69.77-35.55a42,42,0,0,0-16.33-4.63c-7.07-.44-16.34-1.55-17.89-2.65-2.87-2.21.22-5.52.22-5.52a4.24,4.24,0,0,1,.89-5.74c-2.65-3.54,1.1-5.74,1.1-5.74S536.12,537,536.34,533.47Z"/><polygon class="cls-7" points="552.01 569.45 530.15 508.52 457.29 481.36 482.69 549.8 552.01 569.45"/><path class="cls-3" d="M661.52,635.25s-49.45,24.29-113-2.21"/><path class="cls-24" d="M407.62,666.38l-29.81-36.21s-35.32-27.16-54.53-8.61l64.69,64Z"/><line class="cls-25" x1="329.9" y1="619.35" x2="393.49" y2="677.64"/><line class="cls-25" x1="361.69" y1="618.25" x2="370.52" y2="633.26"/><line class="cls-25" x1="354.85" y1="616.04" x2="356.17" y2="629.07"/><path class="cls-25" d="M403.64,666.82s-9.49-17.22-25.83-3.53"/><rect class="cls-9" x="175.79" y="112.2" width="37.53" height="20.97"/><rect class="cls-9" x="186.17" y="95.2" width="16.78" height="16.78"/><rect class="cls-9" x="175.79" y="514.04" width="37.53" height="20.97"/><rect class="cls-9" x="186.17" y="535.01" width="16.78" height="16.78"/><circle class="cls-7" cx="194.78" cy="657.11" r="43.94"/><circle class="cls-7" cx="545.61" cy="311.35" r="43.94"/><rect class="cls-26" x="535.45" y="307.16" width="20.09" height="27.38"/><polygon class="cls-26" points="545.61 287.95 527.73 312.46 563.27 312.46 545.61 287.95"/><rect class="cls-26" x="184.62" y="633.7" width="20.09" height="27.38"/><polygon class="cls-26" points="194.56 680.29 176.67 656 212.44 656 194.56 680.29"/><circle class="cls-7" cx="545.61" cy="141.35" r="43.94"/><rect class="cls-26" x="535.45" y="137.15" width="20.09" height="27.38"/><polygon class="cls-26" points="545.61 117.94 527.73 142.45 563.27 142.45 545.61 117.94"/></svg>