<svg id="图层_1" data-name="图层 1" xmlns="http://www.w3.org/2000/svg" viewBox="0 0 800 800"><defs><style>.cls-1{fill:#fff;}.cls-2{fill:#f2f2f2;}.cls-3{fill:#f8f9fa;}.cls-4,.cls-7{fill:none;stroke:#301c41;}.cls-4,.cls-8{stroke-miterlimit:10;}.cls-4,.cls-7,.cls-8{stroke-width:1.5px;}.cls-5{fill:#ffc607;}.cls-6{fill:#7ff0c7;}.cls-7{stroke-linecap:round;stroke-linejoin:round;}.cls-8{fill:#40adff;stroke:#000;}.cls-9{fill:#b8ecff;}</style></defs><path class="cls-1" d="M298.92,164H187.82s7.8-16.15,20.89-9.47c9.47-17.27,39.82-12.81,45.94-1.67C263.84,131.73,300.87,136.74,298.92,164Z"/><path class="cls-2" d="M754.18,285.15c-.55-5.29-4.73-10-10.58-12.25a11.87,11.87,0,0,0,1.67-6.13c0-8.35-8.91-14.76-20-14.76a23,23,0,0,0-14.75,5c-3.07-5.29-10-9.19-18.38-9.19C681,247.84,672,254.52,672,262.6a16.3,16.3,0,0,0,.56,3.62h-2c-11.14,0-20,6.68-20,14.75a11.14,11.14,0,0,0,.84,4.18Z"/><path class="cls-2" d="M256.32,221.11c-.28-2.79-2.5-5-5.57-6.41a6.58,6.58,0,0,0,.84-3.34c0-4.18-4.73-7.8-10.3-7.8a13.7,13.7,0,0,0-7.8,2.51c-1.67-2.78-5.29-4.73-9.47-4.73-5.57,0-10.3,3.34-10.3,7.79a4.7,4.7,0,0,0,.28,2h-.84c-5.57,0-10.3,3.34-10.3,7.8a6.59,6.59,0,0,0,.56,2.23Z"/><path class="cls-3" d="M727.45,660.21c-2-44.27-46.22-79.35-100.24-79.35a113.24,113.24,0,0,0-40.65,7.24c-6.41-21.16-29.8-37-57.36-37h0a7.63,7.63,0,0,0-.28-2.5,15.84,15.84,0,0,0,.28-3.62c0-16.43-16.15-29.52-35.92-29.52a47.56,47.56,0,0,0-12.81,2c-2-11.41-11.69-20.6-24.78-23.67l-17.54-38.14h-28.4l-17.27,37.31a28.08,28.08,0,0,0-7-.56c-17,0-30.63,11.42-30.63,25.34,0,1.39.28,2.51.28,3.62a1,1,0,0,1-.28.84A58.79,58.79,0,0,0,339,519.6c-25.34,0-45.66,17-45.66,37.59a26.94,26.94,0,0,0-4.74-.28c-11.69,0-22,5.85-26.73,14.2a115.46,115.46,0,0,0-55.13-13.64c-55.41,0-100.24,37-100.24,82.7v4.73c-5.29-6.68-14.2-11.14-24.5-11.14-16.15,0-30.91,13.09-30.91,26.45"/><path class="cls-4" d="M721.88,660.21c-2-44.27-46.22-79.35-100.24-79.35A113.24,113.24,0,0,0,581,588.1c-6.4-21.16-29.79-37-57.64-37"/><path class="cls-4" d="M477.41,516c-.84.28-2,.56-2.79.84-1.95-11.42-11.69-20.61-24.78-23.67L432.3,455H403.9l-17.27,37.31a28,28,0,0,0-7-.56c-17,0-30.63,11.42-30.63,25.34,0,1.4.28,2.51.28,3.62a1,1,0,0,1-.28.84A59.18,59.18,0,0,0,333.17,519c-25.34,0-45.66,17-45.66,37.59a26.88,26.88,0,0,0-4.74-.28c-11.69,0-22,5.85-26.73,14.21-1.39-.84-2.78-1.4-4.17-2.23"/><path class="cls-4" d="M161.09,563.87c-35.08,12.81-59.86,42-59.86,75.74v4.73C95.94,637.66,87,633.2,76.72,633.2c-16.14,0-30.9,13.09-30.9,26.46"/><path class="cls-2" d="M297.25,399.87a9.16,9.16,0,0,0-9.19-8.63,9.48,9.48,0,0,0-8.63,5.84,8.88,8.88,0,0,0-6.68-3.06,9.21,9.21,0,0,0-4.45,17.26,9,9,0,0,0-2.23,5.85,9.27,9.27,0,0,0,9.19,9.19,9.42,9.42,0,0,0,4.73-1.39h0v1.39a6.69,6.69,0,0,0,13.37,0,3.51,3.51,0,0,0-.28-1.67,14,14,0,0,0,3.62.56,13,13,0,0,0,12.81-12.81A13.43,13.43,0,0,0,297.25,399.87Z"/><path class="cls-2" d="M594.08,450.27a7,7,0,0,0-7-6.41,6.71,6.71,0,0,0-6.41,4.46,7,7,0,0,0-5-2.23,7,7,0,0,0-3.34,13.09,6.28,6.28,0,0,0-1.67,4.45,6.89,6.89,0,0,0,7,7,5.64,5.64,0,0,0,3.62-1.11h0v1.11a5,5,0,0,0,10,0,1.66,1.66,0,0,0-.28-1.11,8.57,8.57,0,0,0,2.79.28,9.87,9.87,0,0,0,9.74-9.75A10.21,10.21,0,0,0,594.08,450.27Z"/><polygon class="cls-5" points="332.06 394.3 356.01 383.16 404.73 443.58 395.27 465.58 332.06 394.3"/><polygon class="cls-1" points="364.36 374.53 356.01 383.16 407.24 443.86 416.15 436.34 364.36 374.53"/><path class="cls-5" d="M461.26,254.24s-49,47.06-64.88,72.95c-16.15-19.21-30.63-35.92-30.63-35.92S400,251.18,461.26,254.24Z"/><path class="cls-5" d="M551.75,360.89s-54.57,40.93-82.42,52.34C485.48,432.45,500,449.15,500,449.15S544.79,421.86,551.75,360.89Z"/><path class="cls-6" d="M406.13,394s4.17,4.73,12,13.92c34.25-26.17,56.24-71.84,56.24-71.84h0s-48.72,14.2-80.19,43.72c7.8,9.19,12,14.2,12,14.2Z"/><path class="cls-7" d="M465.43,254.24s-58.75-3.34-99.68,32.86c14.76,17.26,33.41,39.26,33.41,39.26"/><path class="cls-7" d="M634.17,240.6h0c-.83,2-1.39,3.9-2.23,5.85l-45.1-53.19a41.12,41.12,0,0,1,6.12-1.11A202.09,202.09,0,0,1,645,189.36h0A204.31,204.31,0,0,1,634.17,240.6Z"/><path class="cls-8" d="M558.44,201.34a77.15,77.15,0,0,1,8.63-2.79l56.52,66.55c-56.8,114.16-203.26,176.26-203.26,176.26L390.25,406h0l-30.07-35.36S429.24,261.2,532.54,212.2"/><path class="cls-7" d="M631.94,246.44c-2.5,6.41-5.29,12.53-8.35,18.66l-56.52-66.55c6.4-2,13.08-3.62,19.77-5Z"/><path class="cls-7" d="M552,356.15s-6.12,58.48-48.45,93c-11.14-13.08-24.22-28.68-30.35-35.64"/><path class="cls-9" d="M407.24,391.51s4.18,4.74,12,13.93c35.37-27,58.2-73.51,58.2-73.51h0s-49.84,15-82.14,45.38c7.79,9.19,12,13.93,12,14.2Z"/><polyline class="cls-7" points="416.99 437.46 408.35 444.98 381.62 413.51 381.34 413.23 354.61 381.77 363.52 374.25"/><polyline class="cls-7" points="405.57 441.91 393.04 466.14 362.13 429.94 362.13 429.66 331.22 393.46 357.4 384.83"/><circle class="cls-7" cx="564.56" cy="257.86" r="20.6"/><path class="cls-7" d="M466.55,253.68s1.11,28.41,29.79,62.1S552.87,355,552.87,355"/><line class="cls-7" x1="634.17" y1="240.6" x2="634.17" y2="240.6"/></svg>