<svg id="图层_1" data-name="图层 1" xmlns="http://www.w3.org/2000/svg" xmlns:xlink="http://www.w3.org/1999/xlink" viewBox="0 0 800 800"><defs><style>.cls-1,.cls-16,.cls-17,.cls-20,.cls-26,.cls-7{fill:none;}.cls-2{fill:#f2f2f2;}.cls-3{opacity:0.8;}.cls-15,.cls-21,.cls-4,.cls-5{fill:#fff;}.cls-15,.cls-16,.cls-17,.cls-21,.cls-23,.cls-4,.cls-6,.cls-7,.cls-8,.cls-9{stroke:#000;}.cls-20,.cls-23,.cls-26,.cls-4,.cls-6,.cls-7,.cls-8,.cls-9{stroke-miterlimit:10;}.cls-15,.cls-16,.cls-17,.cls-20,.cls-21,.cls-26,.cls-4,.cls-6,.cls-7,.cls-8,.cls-9{stroke-width:1.5px;}.cls-19,.cls-6{fill:#ffc609;}.cls-8{fill:#ffaeae;}.cls-9{fill:#7cc996;}.cls-10{fill:#40adff;}.cls-11{fill:#ffc607;}.cls-12{clip-path:url(#clip-path);}.cls-13{fill:#f75244;}.cls-14{fill:#2f2552;}.cls-15,.cls-16{stroke-linecap:round;}.cls-15,.cls-16,.cls-17{stroke-linejoin:round;}.cls-18{fill:#2356a7;}.cls-20{stroke:#292524;}.cls-21{stroke-miterlimit:10;}.cls-22{fill:#dbdbdb;}.cls-23{stroke-width:0.5px;}.cls-24{fill:#b8ecff;opacity:0.4;isolation:isolate;}.cls-25{fill:#ff844d;}.cls-26{stroke:#333;}.cls-27{fill:#333;}</style><clipPath id="clip-path"><polygon class="cls-1" points="656 561.2 656 561.2 130.76 561.2 130.76 561.2 130.76 226.78 656 226.78 656 226.78 656 561.2"/></clipPath></defs><circle class="cls-2" cx="654.17" cy="569.55" r="74.54"/><g class="cls-3"><path class="cls-4" d="M655.6,578.1a14.74,14.74,0,0,1-14.67,14.67H178L163.34,578.1V231.88A14.61,14.61,0,0,1,178,217.21H640.93a14.61,14.61,0,0,1,14.67,14.67Z"/></g><path class="cls-5" d="M654.17,562.42H164.77V247.76h489.4Z"/><rect class="cls-6" x="508.14" y="204.38" width="23.22" height="12.83"/><rect class="cls-6" x="514.46" y="193.99" width="10.39" height="10.39"/><path class="cls-7" d="M519.75,194V168.33a11.83,11.83,0,0,1,11.82-11.81H705.29a16,16,0,0,1,16.09,16.09V500.3a11.82,11.82,0,0,1-11.81,11.82H672.7"/><rect class="cls-6" x="655.6" y="500.51" width="12.83" height="23.22"/><rect class="cls-6" x="668.63" y="507.02" width="10.39" height="10.39"/><line class="cls-7" x1="96.95" y1="523.72" x2="96.95" y2="283.81"/><line class="cls-7" x1="232.39" y1="562.42" x2="577.19" y2="562.42"/><rect class="cls-6" x="85.34" y="485.64" width="23.22" height="12.83"/><rect class="cls-6" x="91.65" y="475.25" width="10.39" height="10.39"/><rect class="cls-6" x="85.34" y="279.74" width="23.22" height="12.83"/><rect class="cls-6" x="91.65" y="292.57" width="10.39" height="10.39"/><rect class="cls-6" x="246.64" y="581.16" width="12.83" height="23.22"/><rect class="cls-6" x="259.47" y="587.67" width="10.39" height="10.39"/><rect class="cls-6" x="221.79" y="205.4" width="12.83" height="23.22"/><rect class="cls-6" x="234.63" y="211.92" width="10.39" height="10.39"/><path class="cls-8" d="M189,232.49a4.49,4.49,0,1,1-4.49-4.48A4.53,4.53,0,0,1,189,232.49Z"/><circle class="cls-4" cx="199.19" cy="232.49" r="4.48"/><circle class="cls-9" cx="213.24" cy="232.49" r="4.48"/><rect class="cls-4" x="691.03" y="242.87" width="60.9" height="109.37"/><rect class="cls-10" x="697.35" y="323.93" width="48.27" height="21.18"/><rect class="cls-10" x="697.35" y="298.88" width="48.27" height="21.18"/><rect class="cls-10" x="697.35" y="273.83" width="48.27" height="21.18"/><rect class="cls-2" x="697.35" y="248.78" width="48.27" height="21.18"/><path class="cls-4" d="M203.67,279.74H67a18.17,18.17,0,0,1-18.13-18.13V174A18.17,18.17,0,0,1,67,155.91H203.67A18.16,18.16,0,0,1,221.79,174v87.57A18.16,18.16,0,0,1,203.67,279.74Z"/><path class="cls-4" d="M228.52,640.63H66.2A18.17,18.17,0,0,1,48.07,622.5V516.6A18.17,18.17,0,0,1,66.2,498.47H228.52a18.16,18.16,0,0,1,18.12,18.13V622.5A18.29,18.29,0,0,1,228.52,640.63Z"/><polygon class="cls-11" points="172.92 569.55 126.28 542.66 126.28 596.43 172.92 569.55"/><line class="cls-7" x1="63.75" y1="617.82" x2="230.76" y2="617.82"/><circle class="cls-4" cx="190.63" cy="617.82" r="5.5"/><g class="cls-12"><path class="cls-13" d="M567.82,317.21c.2,0,.41-.2.61-.41s0-.61-.2-.81l-35.44-20.37c-.21-.2-.61,0-.82.21s0,.61.21.81l35.64,20.57Z"/><path d="M343,574,449.9,586.66c3.66,32.38.61,57.43-1.43,69.24a8.89,8.89,0,0,1-6.31-1.22L314.05,580.75Z"/><path class="cls-14" d="M443.58,343.69s2.45.81,6.32,1.63a27.57,27.57,0,0,0,0,4.68Z"/><path d="M385.34,526c43,25.26,63.74-4.88,63.74-4.88,4.48-6.72-8.55-23.42-.4-23,23,1,61.91-26.47,61.91-34.62.2-10,6.72-18.74,8.55-28.51,2-10.59-2-21.59-8.55-30.14A50.16,50.16,0,0,0,500.2,394.4c-4.07-2.65-8.55-4.48-12.42-7.33a68.65,68.65,0,0,1-19.35-21.8c-5.09-8.75-8.15-18.73-14.05-27.08-10.18-14.26-28.92-21.79-46-18.74s-32.18,16.7-36.86,33.6c-3.06,11-1.84,22.61-1.63,34,.41,19.34-2.24,39.3-11.41,56.21C358.05,443.48,342.36,500.71,385.34,526Z"/><path class="cls-10" d="M364.77,427.8l21.79-2.44,55.8.2,31.57,8.35c0,19.55-24,152.75-24,152.75L343,574S357,467.31,364.77,427.8Z"/><path class="cls-4" d="M540.53,286.66s-2.45-5.5-4.89-10.79c-2.65-5.3-12.22-17.11-8.76-20,4.48-3.87,13,11.4,13,11.4s.61-31.36,4.27-32.38c4.69-1.22,3.47,19.35,3.47,19.35s4.27-22.61,7.94-22.4c4.07.2-.41,21.38-.41,21.38s5.7-24.24,10.59-22.2c4.48,1.83-2.65,21.39-2.65,21.39s6.93-17.52,10.8-16.91c7.13,1-10.59,52.34-10.59,52.34Z"/><path class="cls-10" d="M432,422.5l95.51-10.59,2-128.71h42s11.41,148.88,1.23,157c-21.59,17.11-109,40.12-109,40.12l-32-56Z"/><polygon class="cls-5" points="307.33 401.93 299.19 389.71 293.89 386.86 286.36 394.81 287.78 405.4 281.88 413.75 288.19 425.76 289.82 436.15 302.04 437.98 306.72 414.97 307.33 401.93"/><path class="cls-15" d="M304.69,461.4,313.44,427s3.06-11.21,1.63-17.32c-1.22-5.29-1.63-16.49-.4-23a1.84,1.84,0,0,0-2.45-2,6.52,6.52,0,0,0-4.07,5.71c-1,7.74-8.76,19.95-8.15,27.9"/><path class="cls-16" d="M281.06,411.51s3.26,9.16,7.13,14.46c3.66,5.09-6.11,28.92-6.11,28.92"/><path class="cls-15" d="M279.23,404s-3.46,1.22.61,6.31,9.57,7.54,10.39,7.54c1.22,0,2.44-1-1.23-5.7S279.23,404,279.23,404Z"/><path class="cls-17" d="M305.7,399.08s-1.22-1.63-2.24-3.26"/><circle class="cls-18" cx="227.43" cy="341.68" r="16.09" transform="translate(-3.38 2.28) rotate(-0.57)"/><polygon class="cls-18" points="311 353.06 329.74 362.22 324.85 379.33 304.07 377.5 311 353.06"/><path class="cls-18" d="M309.78,380.75s-.21.61-.41,1.43l-20-1.63c-.2-2.85-.41-4.69-.41-4.69Z"/><polygon class="cls-19" points="325.05 355.3 324.03 359.37 318.54 378.72 317.52 382.79 309.37 382.18 289.62 380.35 283.71 379.94 294.71 340.22 325.05 355.3"/><polygon class="cls-10" points="294.71 340.22 283.71 379.94 203.26 404.99 239.11 277.29 294.71 340.22"/><polygon class="cls-19" points="214.87 401.32 209.57 402.95 243.38 282.18 247.05 286.25 214.87 401.32"/><path class="cls-10" d="M309.37,382.18c-.81,2.85-2.85,10-4.48,15.89-.61,2-1.22,4.07-1.63,5.7-2.24,7.74-5.7,13.85-11.41,12.22-4.48-1.22-3.25-6.32-2-15.48a38.39,38.39,0,0,0,.2-4.89c0-2.24,0-4.48-.2-6.92-.21-3.06-.41-6.11-.61-8.56Z"/><path class="cls-15" d="M282.89,396l2,4.68c4.89,4.48,10,12.83,7.74,14.26-1.43.81-6.72-3.06-11.81-8.56s2-10.38,2-10.38"/><path class="cls-4" d="M289.82,390.94a6,6,0,0,0-6.93,5.09c-1.22,6.11,9,17.11,11,15.27s-6.31-15.07-6.31-15.07"/><path class="cls-10" d="M364.77,427.8c-18.13,2.85-63.95,69-63.95,69l17.51-59.47L280,429.43S239.72,533.5,271.9,556.92s92.87-63.13,92.87-63.13v-66Z"/><path class="cls-20" d="M361.3,458.35s-24.44,32-9.16,49.29"/><circle class="cls-21" cx="383.5" cy="378.72" r="12.63"/><path class="cls-16" d="M389.82,373.83A21.65,21.65,0,0,1,377,379.12"/><path class="cls-10" d="M427.9,422.1l14.67,3.46s-28.31,25.66-42,21.38-13.85-21.58-13.85-21.58l10.8-1Z"/><path class="cls-4" d="M430.55,422.71l10.18-31.37s16.3,8.35,19.76-5.49c2.85-12.43-10.59-15.28-17.92-10.19,0,0,17.92-42-19.35-50.71s-44.81,43-46.85,55.4c-3.25,22,11,34.82,22.41,37.47l-2.85,13.44s-2.45,11.2,8.55,13.65C424.44,449.39,430.55,422.71,430.55,422.71Z"/><path class="cls-14" d="M444.6,385.84h0c-.61-.2-1-.61-.81-1.22a8,8,0,0,1,4.68-5.5,7.9,7.9,0,0,1,7.33.61A.78.78,0,0,1,456,381a.77.77,0,0,1-1.22.2,5.86,5.86,0,0,0-5.5-.41,7,7,0,0,0-3.67,4.28A1.33,1.33,0,0,1,444.6,385.84Z"/><path class="cls-22" d="M415.48,419.25s-5.5,5.9-15.28.2Z"/><path class="cls-4" d="M398.78,417.82s24,7.33,37.47-28.51"/><path class="cls-7" d="M412.63,389.31c.4,2.65,0,6.11-4.28,7.94-5.91,2.44-10-2.24-11.4-4.07"/><path class="cls-23" d="M399.8,384.62h.61a.92.92,0,0,0-.21-1.83c-1,.2-1.22-.2-1.42-.41-1-1.83,2-8.55,4.68-12.83.21-.4.21-1-.2-1.22s-1-.2-1.22.2c-1.22,1.84-6.72,11.41-4.69,14.67C397.56,384,398.37,384.62,399.8,384.62Z"/><path d="M451.53,352.65S449.29,328,422.4,322.3s-41.95,22.61-41.95,22.61c18.12,7.53,41.75,2,41.75,2-.61,15.47,11,21.58,11,21.58a234.7,234.7,0,0,0-2.85,54s24.84-17.52,32.17-32.39C470.26,375.46,451.53,352.65,451.53,352.65Z"/></g><path class="cls-5" d="M454.79,560h-76a7.3,7.3,0,0,1-7.33-7.34V540.83a7.3,7.3,0,0,1,7.33-7.33h76Z"/><rect class="cls-24" x="372.71" y="541.65" width="82.08" height="1.43"/><rect class="cls-24" x="372.71" y="545.92" width="82.08" height="1.43"/><rect class="cls-24" x="372.71" y="554.48" width="82.08" height="1.43"/><rect class="cls-24" x="372.71" y="537.37" width="82.08" height="1.43"/><rect class="cls-24" x="372.71" y="550.2" width="82.08" height="1.43"/><path class="cls-19" d="M454.79,561.2H377.6a7.65,7.65,0,0,1-7.54-7.54V539.41a7.65,7.65,0,0,1,7.54-7.54h77.19v2.65H377.6a5,5,0,0,0-4.89,4.89v14.25a5,5,0,0,0,4.89,4.89h77.19Z"/><path class="cls-15" d="M558.86,562.42h-120V492.77a8.61,8.61,0,0,1,8.55-8.56H550.3a8.61,8.61,0,0,1,8.56,8.56v69.65Z"/><circle class="cls-25" cx="498.98" cy="523.11" r="12.42"/><path class="cls-15" d="M430.55,557.13h8.35v5.09h-8.35a2.26,2.26,0,0,1-2.24-2.24v-.61A2.26,2.26,0,0,1,430.55,557.13Z"/><line class="cls-26" x1="93.28" y1="233.1" x2="128.92" y2="233.1"/><line class="cls-26" x1="76.79" y1="244.1" x2="192.06" y2="244.1"/><line class="cls-26" x1="76.79" y1="218.84" x2="172.92" y2="218.84"/><line class="cls-26" x1="75.77" y1="256.72" x2="98.17" y2="256.72"/><line class="cls-26" x1="104.69" y1="256.72" x2="153.57" y2="256.72"/><line class="cls-26" x1="75.77" y1="233.1" x2="85.75" y2="233.1"/><line class="cls-26" x1="104.28" y1="207.03" x2="128.92" y2="207.03"/><line class="cls-26" x1="89.01" y1="202.14" x2="84.73" y2="211.92"/><polyline class="cls-26" points="80.86 203.57 76.99 207.03 80.86 210.69"/><polyline class="cls-26" points="93.69 203.57 97.36 207.03 93.69 210.69"/><path class="cls-27" d="M87.58,193.18H85.34v-6.92c0-2-.81-3.06-2.65-3.06-1.83.2-2.85,1.22-3,3.26v6.72H77.4v-11.4h2.24v2a4.63,4.63,0,0,1,3.87-2.24c2.85,0,4.07,1.43,4.07,4.69Z"/><path class="cls-27" d="M99,189.51l2.44.41c-.81,2.24-2.65,3.46-5.7,3.46-3.87-.2-5.91-2-5.91-5.9.2-4.08,2-6.11,5.7-6.11,3.87,0,5.71,2,5.91,6.11v.61H92.27c.2,2.24,1.22,3.46,3.66,3.66C97.56,191.55,98.58,190.94,99,189.51Zm-6.72-3h6.92C99,184.22,98,183,95.93,183,93.69,183.2,92.47,184.22,92.27,186.46Z"/><path class="cls-27" d="M120.17,181.57,116.09,193h-2.64c-1.43-5.3-2-7.95-2-8.15a2.62,2.62,0,0,1-.2-1.22h0v1.22c0,.2-.82,3-2.24,8.15h-2.45l-3.87-11.41h2.45c1.63,5.5,2.44,8.55,2.64,8.76a8.79,8.79,0,0,0,.21,1,1.87,1.87,0,0,0,.2-1c0-.21.82-3.06,2.24-8.76h2.24c1.43,5.5,2,8.35,2.24,8.55a.91.91,0,0,1,.21.62.62.62,0,0,1,.2.4c.2-.4.2-.81.41-1,.2-.4,1-3.25,2.64-8.55Z"/><path class="cls-27" d="M131,184.42l-2.24.41c-.41-1.22-1.22-1.63-2.65-1.63s-2.24.61-2.24,1.63c-.2.81.82,1.22,2.65,1.63a6,6,0,0,0,1.83.41c2.24.61,3.47,1.63,3.26,3.25,0,2.25-1.63,3.26-4.89,3.26-3.25.21-5.09-1-5.49-3.46l2.24-.41a2.89,2.89,0,0,0,3,2.24c1.63,0,2.65-.61,2.65-1.83.2-.81-.61-1.42-2.24-1.63a1.57,1.57,0,0,1-.82-.2,2.12,2.12,0,0,0-1-.21c-2.45-.61-3.67-1.62-3.67-3,.2-2.24,1.63-3.26,4.48-3.46S130.35,182.18,131,184.42Z"/><circle class="cls-10" cx="181.67" cy="191.96" r="13.24"/></svg>