<svg id="图层_1" data-name="图层 1" xmlns="http://www.w3.org/2000/svg" xmlns:xlink="http://www.w3.org/1999/xlink" viewBox="0 0 800 800"><defs><style>.cls-1,.cls-2,.cls-6{fill:none;}.cls-12,.cls-15,.cls-2,.cls-3,.cls-5,.cls-6,.cls-9{stroke:#000;stroke-width:1.5px;}.cls-12,.cls-15,.cls-2,.cls-3,.cls-9{stroke-miterlimit:10;}.cls-11,.cls-15,.cls-3,.cls-5{fill:#fff;}.cls-4{clip-path:url(#clip-path);}.cls-5,.cls-6{stroke-linecap:round;stroke-linejoin:round;}.cls-16,.cls-7{fill:#40adff;}.cls-18,.cls-8{fill:#dbdbdb;}.cls-13,.cls-9{fill:#ffc609;}.cls-10{fill:#b8ecff;}.cls-12{fill:#ff844d;}.cls-14{clip-path:url(#clip-path-2);}.cls-15,.cls-16,.cls-17,.cls-18,.cls-19{fill-rule:evenodd;}.cls-19{fill:#100843;}</style><clipPath id="clip-path"><circle class="cls-1" cx="654.99" cy="248.68" r="95.03"/></clipPath><clipPath id="clip-path-2"><path class="cls-1" d="M305.71,491.12c0,52.53-42.79,95-95.62,95s-95.62-42.5-95.62-95c0-6.35-67-119.23-66-126.61,7.23-54.15,107.87-24.64,154.35-24.64C255.69,339.72,305.71,438.59,305.71,491.12Z"/></clipPath></defs><path class="cls-2" d="M633.3,430.77h20.07a22.1,22.1,0,0,0,22.13-22.14v-188"/><path class="cls-2" d="M438.81,261.37V241.3A22.11,22.11,0,0,1,461,219.16h188"/><circle class="cls-3" cx="655.14" cy="248.68" r="96.36"/><g class="cls-4"><path class="cls-5" d="M641.42,493.48c-2.95.3-3.1-3.84-3.25-7.53-.29-5.16,2.51-15.05,4.43-21.1,1.18-4,2.36-7.82,3.24-12L663,378.53a13.08,13.08,0,0,1,16.09-8.85h0a13.07,13.07,0,0,1,8.85,16.08L663,456.29a39.6,39.6,0,0,0-2.06,16.09c.44,6.79,1,15.49,0,17.12-1.78,3.1-5.46.73-5.46.73a4.37,4.37,0,0,1-5.76,0,3.81,3.81,0,0,1-5.75-.14S644.81,493.33,641.42,493.48Z"/><line class="cls-6" x1="643.78" y1="490.23" x2="643.34" y2="485.95"/><line class="cls-6" x1="649.53" y1="490.38" x2="649.09" y2="485.51"/><line class="cls-6" x1="655.29" y1="490.38" x2="654.99" y2="485.07"/><path class="cls-7" d="M661,358.17a183.67,183.67,0,0,1-6.34,50.91l25.82,9.44a298.16,298.16,0,0,0,10.62-45.89c6.06-40.14-2.5-59.62-2.5-59.62s-4.43-12.69-18.74-25.23l-62.13-23.17s-18.89,1.33-26.26,7.09L555,372.33l89,32.76Z"/><path class="cls-7" d="M504.48,343.85l-1.18-1.77a15.22,15.22,0,0,1,4.13-21.1l74.81-50a15.22,15.22,0,0,1,21.11,4.13l1.18,1.77a15.21,15.21,0,0,1-4.14,21.1l-74.81,50A15.17,15.17,0,0,1,504.48,343.85Z"/><line class="cls-6" x1="569.11" y1="318.32" x2="573.54" y2="301.06"/><path class="cls-6" d="M660.16,332.93s1.62,8.41.88,24.06"/><path class="cls-5" d="M634,255.76l22.28,8.41-3.25,8.71,17.27,15.34S651.6,294.71,633,286.6c-17.71-7.82-24.65-21.55-24.65-21.55l18-.29a6.55,6.55,0,0,0,6-4.28Z"/><path d="M682.88,288.66a28.66,28.66,0,0,1-8.56,10.63c-4.57,3.39-10.92,4.87-16.08,2.51-6.35-2.95-9.3-10.92-8.41-17.86a39.39,39.39,0,0,1,5.46-14.31c.88-1.62,1.92-3.25,3-4.87a47.3,47.3,0,0,0-7.38-2.95,123.08,123.08,0,0,0-22.58-4.58c-1.47,6.5-2.95,13.28-6.49,18.89a22.38,22.38,0,0,1-9,8.41,16.45,16.45,0,0,1-12.1,1.33c-5.46-1.62-9.44-6.34-11.36-11.51a25.32,25.32,0,0,1-1.18-11.51c.14-1.77.44-3.39.73-5.16a51.28,51.28,0,0,1,8.56-19.19c6.2-8.55,15.2-15.34,19-25.23,6.64-17.12,14.61-32.46,32.46-36.59,18-4,38.07,5,46.93,21.24a30.44,30.44,0,0,1,4,12.69c.59,10.48-5.75,19.78-8.7,29.81s-2.51,20.81-3.69,31.14A54.26,54.26,0,0,1,682.88,288.66Z"/><path class="cls-8" d="M644.66,277.6c3.25-.45,6.2-2.36,8.71-4.72a22.35,22.35,0,0,0,1.77-1.92l.74-2.81-28.63-9.74-1.33,3.25a25.44,25.44,0,0,0,4.28,9C633.6,275.38,639.2,278.48,644.66,277.6Z"/><path class="cls-5" d="M679.05,240.71a43.33,43.33,0,0,1-14.76-30.84A50.7,50.7,0,0,1,625.48,223l-3.69,9.3c-6.2,15.34.59,32.31,15.05,38.21S668,268.6,674,253.25Z"/><path class="cls-5" d="M639.2,254.73s5.76,3.54,9.45,2.5"/><polygon class="cls-8" points="648.06 248.97 645.11 247.79 650.71 235.1 642.45 246.76 648.06 248.97"/><polyline class="cls-6" points="650.71 235.1 645.11 247.79 648.06 248.97"/></g><path class="cls-2" d="M208.62,605.48v20.07a22.09,22.09,0,0,0,22.13,22.13h188a22.1,22.1,0,0,0,22.13-22.13l.15-65.08"/><rect class="cls-9" x="431.44" y="546.9" width="19.04" height="10.62"/><rect class="cls-9" x="436.6" y="557.37" width="8.56" height="8.56"/><rect class="cls-9" x="199.03" y="587.33" width="19.04" height="10.62"/><rect class="cls-9" x="204.34" y="597.81" width="8.56" height="8.56"/><rect class="cls-9" x="431.44" y="267.42" width="19.04" height="10.62"/><rect class="cls-9" x="436.6" y="259" width="8.56" height="8.56"/><rect class="cls-9" x="616.77" y="419.11" width="10.62" height="19.04"/><rect class="cls-9" x="627.25" y="424.42" width="8.56" height="8.56"/><path class="cls-7" d="M247.72,320.83h0a3.33,3.33,0,0,1-3.39-3.39V305a57.3,57.3,0,0,1-10.48-4.28l-8.7,8.86a3.57,3.57,0,0,1-2.51,1,2.92,2.92,0,0,1-2.36-1L202.86,292.5a3.49,3.49,0,0,1,0-4.87l8.86-8.85a64.26,64.26,0,0,1-4.43-10.33H194.9a3.47,3.47,0,0,1-2.51-1,3.5,3.5,0,0,1-1-2.37l-.14-24.49a2.92,2.92,0,0,1,1-2.36,3.55,3.55,0,0,1,2.51-1h12.39a54.27,54.27,0,0,1,4.28-10.48L202.57,218a3.56,3.56,0,0,1-1-2.51,2.94,2.94,0,0,1,1-2.36l17.12-17.41a3.51,3.51,0,0,1,2.5-1h0a3.35,3.35,0,0,1,2.36,1l8.86,8.71A63.88,63.88,0,0,1,243.74,200v-12.4a2.93,2.93,0,0,1,1-2.36,3.48,3.48,0,0,1,2.51-1l24.49-.15a4,4,0,0,1,2.51,1,3.48,3.48,0,0,1,1,2.36v12.39a54.44,54.44,0,0,1,10.47,4.28l8.71-8.85a3.13,3.13,0,0,1,2.36-1,3.44,3.44,0,0,1,2.51,1l17.41,17.12a3.46,3.46,0,0,1,0,4.86l-8.71,8.86a63,63,0,0,1,4.43,10.33h12.4a3.33,3.33,0,0,1,3.39,3.39l.15,24.35a4.21,4.21,0,0,1-1,2.51,3.49,3.49,0,0,1-2.37,1H312.5a53.9,53.9,0,0,1-4.28,10.48l8.86,8.7a3.49,3.49,0,0,1,1,2.36,4.16,4.16,0,0,1-1,2.51L300,309.18a3.49,3.49,0,0,1-4.87,0l-8.85-8.71a64.26,64.26,0,0,1-10.33,4.43v12.39a3.54,3.54,0,0,1-3.4,3.54Zm11.66-104.62a36.23,36.23,0,0,0,.29,72.45c20.07-.14,36.45-16.52,36.31-36.44a36.32,36.32,0,0,0-36.31-36Z"/><path class="cls-7" d="M615.74,546H266.17V325.11H615.74Z"/><path class="cls-10" d="M615.74,478.72a21.1,21.1,0,0,1-21.1,21.11H287.42l-21.11-21.11V300.17a21.11,21.11,0,0,1,21.11-21.1H594.64a21.1,21.1,0,0,1,21.1,21.1Z"/><polygon class="cls-11" points="595.52 484.33 595.52 484.33 286.38 484.33 286.38 484.33 286.38 294.57 595.52 294.57 595.52 294.57 595.52 484.33"/><path class="cls-3" d="M595.53,414.83v69.5H286.38V294.57H408.27"/><rect class="cls-10" x="540.04" y="289.11" width="63.3" height="31.28"/><circle class="cls-12" cx="449.14" cy="396.09" r="51.06"/><ellipse class="cls-12" cx="449.14" cy="396.09" rx="35.27" ry="51.06"/><ellipse class="cls-12" cx="449.14" cy="396.09" rx="14.61" ry="51.06"/><line class="cls-2" x1="398.09" y1="396.09" x2="500.2" y2="396.09"/><line class="cls-2" x1="406.2" y1="368.35" x2="491.79" y2="368.35"/><line class="cls-2" x1="406.2" y1="423.68" x2="491.79" y2="423.68"/><path class="cls-3" d="M711.8,578.48H527.06a13.54,13.54,0,0,1-13.58-13.58V477.4a13.54,13.54,0,0,1,13.58-13.58H711.8a13.54,13.54,0,0,1,13.58,13.58v87.5A13.64,13.64,0,0,1,711.8,578.48Z"/><path class="cls-13" d="M657.06,513.7c-6.49,9.74,4,20.21,13.72,13.72a3.93,3.93,0,0,0,1.33-1.33c6.49-9.74-4-20.21-13.72-13.72Z"/><path class="cls-13" d="M616.18,513.7c-6.49,9.74,4,20.21,13.73,13.72a3.93,3.93,0,0,0,1.33-1.33c6.49-9.74-4-20.21-13.73-13.72A3.84,3.84,0,0,0,616.18,513.7Z"/><path class="cls-13" d="M575.31,513.55c-6.49,9.74,4,20.21,13.72,13.72a3.68,3.68,0,0,0,1.33-1.33c6.49-9.74-4-20.21-13.72-13.72A2.9,2.9,0,0,0,575.31,513.55Z"/><circle class="cls-3" cx="210.09" cy="490.97" r="96.36"/><g class="cls-14"><path class="cls-15" d="M98.39,406.42s-16.67-28.63-23.46-39.25c-3-4.72-7.53-3.4-4.72,2.8,1.47,3.4,6.93,11.95,6.93,11.95-7.52.74-10,9.89-8,13.58,1,1.77,7.09,7.08,8.56,8s7.82,9,7.82,9Z"/><path class="cls-15" d="M70.5,387.53c-3,1.62-5,3.25-3.1,7.23s6.2,3.54,6,2.07S69.91,390,69.91,390,74.63,387.09,70.5,387.53Z"/><path class="cls-15" d="M73,385c-4.72-.88-4.87,2.66-2.66,7.09s5.46,4.72,6.79,2.8-3.84-7.23-3.84-7.23S77.58,384.58,73,385Z"/><path class="cls-15" d="M72.86,388.27c2.21,4.43,5.31,4.57,6.49,2.51,1.33-1.92-3.83-7.23-3.83-7.23s1.47-1.33,1.18-2.22c-.74-2.06-5.46-2.21-5.61,1.63A13.22,13.22,0,0,0,72.86,388.27Z"/><path class="cls-15" d="M93.52,400.52c3.1-8-.15-19.48-3.54-19.19s-14.61-.88-14.91,2.22c-.44,2.95,11.07,4.72,11.07,4.72"/><path class="cls-16" d="M187.81,456.74s-44.56-3.1-46.63-3.4-3.54-.88-8-5.75-36.44-48.4-36.44-48.4c-1-1.77-19,9.59-16.38,16.38,1.32,3.24,35.26,54.89,35.26,54.89s6.64,11.66,17.42,16.23,35.85,16.82,35.85,16.82Z"/><path class="cls-16" d="M186.93,457.33c-38.52,6.64-39.25,50.91-33.5,89,1.18,18.89-.89,47.66,1.18,55.78a12.71,12.71,0,0,0,1.62,2.95L201,606.51h50.17a12.51,12.51,0,0,0,1.62-3c2.07-8-2.21-49.58-1-68.32l3.54-63.3-40.43-14.46-27.89-.15Z"/><path class="cls-15" d="M172.61,412.62a.94.94,0,0,0-.59.14h0a8.42,8.42,0,0,0-6.79,8.27,8.56,8.56,0,0,0,8.42,8.7,8.69,8.69,0,0,0,8.85-8.41,8.41,8.41,0,0,0-3.25-6.79c.15,2.51-.14,5.61-3.39,5.91l.15-4.87C176,413.5,174.09,412.62,172.61,412.62Z"/><path class="cls-15" d="M231.34,412.62a.91.91,0,0,1,.59.14h0a8.41,8.41,0,0,1,6.79,8.27,8.55,8.55,0,0,1-8.41,8.7,8.69,8.69,0,0,1-8.85-8.41,8.43,8.43,0,0,1,3.24-6.79c-.15,2.51.15,5.61,3.4,5.91l-.15-4.87A3.31,3.31,0,0,1,231.34,412.62Z"/><polygon class="cls-17" points="168.04 392.11 170.84 417.63 176.6 393.58 168.04 392.11"/><path class="cls-15" d="M201,428.41h0a14,14,0,0,1,14,13.87v18.29a14,14,0,0,1-14,13.88h0a14,14,0,0,1-14-13.88V442.28A13.88,13.88,0,0,1,201,428.41Z"/><path class="cls-18" d="M213.64,441.1v19.47a13,13,0,0,1-.89,4.87L188,453.49V443.16c4.57-.88,15.64-2.21,16.23-2.8C204.78,440.06,209.36,440.51,213.64,441.1Z"/><path class="cls-15" d="M170.84,398.75V425.9a29.57,29.57,0,0,0,29.51,29.36h0a29.47,29.47,0,0,0,29.52-29.36V399.19a20.27,20.27,0,0,0-.89-6.94A29.58,29.58,0,0,0,200.35,370h0C184.27,370,171,382.81,170.84,398.75Z"/><path class="cls-19" d="M192.68,433.57a1.2,1.2,0,0,0-1.47.44,1,1,0,0,0,.44,1.33,9.58,9.58,0,0,0,9.15,0,1.06,1.06,0,0,0-1.18-1.77C197.7,434.9,194.9,434.6,192.68,433.57Z"/><path class="cls-17" d="M229.87,421.91s-6.5-7.38-3.4-17.26c0,0-11.51-6.2-11.51-15.5,0,0-1.32,3.25-3.69,4-2.21.74-3.39-2.22-2.36-3.54,0,0-8.41,6-15.2,7.37s-8.85-5.6-6.05-8c0,0-11.06,7.67-18.15,5.9-7.08-1.92-11.36-29.37,13-35.42s39.69.3,45,3.69c5.16,3.4,8.55,12.84,4.87,19.19a21.36,21.36,0,0,1,5.45,10.18c1.19,6.05-3.39,21.25-3.39,21.25S229.87,414.24,229.87,421.91Z"/><path class="cls-15" d="M219.83,506.76a22.62,22.62,0,0,1-3.39,4.13c-1.33,1.18-12.69,5.17-12.69,5.17s.88,2.65,3.39,2.65h6.49c2.22,0,3.84,6.94,11.66,10,5.9,2.36,3.54-13.87,2.07-21.84l-7.53-.15Z"/><path class="cls-15" d="M195.49,467.8h18.74a2.65,2.65,0,0,1,2.65,2.66V513.7a2.64,2.64,0,0,1-2.65,2.65H195.49a2.64,2.64,0,0,1-2.66-2.65V470.46A2.65,2.65,0,0,1,195.49,467.8Z"/><path class="cls-15" d="M217.77,481.68a3.2,3.2,0,0,0-1,2.65c-.14,1.92,1.18,3.84,1.77,5.17l1.92,6.34s.89,8.86,1,9.3a20.7,20.7,0,0,1-1.63,2.21l7.53.74c-.3-2.51-.44-4.28-.44-4.28l.88-4.57s-2.51-6.94-3.54-9.15S218.21,481.23,217.77,481.68Z"/><path class="cls-15" d="M233.41,545.86s-5.17-9.44-6.64-11.51a17.79,17.79,0,0,1-3.4-10.47c0-4.87.89-7.38-1.32-8.86a15.56,15.56,0,0,0-5-2.36s-4.28.15-5.16.15-4.73,1.18-5.76,1a2.29,2.29,0,0,1-1.92-1.47c-.15-.59-.15-1,1.18-1.48a34.9,34.9,0,0,1,6.35-1.92c1.33-.14,5.61-.44,6.49-.44a24.25,24.25,0,0,1,3.54.59l-3.39-1.62a25,25,0,0,0-6.94-.44c-1.33.29-5.61,2.5-8.41.88,0,0-.59-.44.15-1.33.74-.73,8.41-4.13,9.3-4.57s2.06-.3,4.13-.15a19.22,19.22,0,0,1,5,.74c.89.59,2.51,1.47,2.51,1.47s-2.8-5.31-3.1-5.6a60.07,60.07,0,0,0-6.49-2.95c-.44-.15-4.28-.74-5.31-1.63a4,4,0,0,1-1.33-2.65c0-.45.15-.89,2.21-.59s4.43.44,6,.59,5.46,1.92,7.38,2.65,3.54,3.69,5.61,7.38,5,11.66,6.35,14.61c1.32,3.1.44,12,5.75,18.89s6.64,8.26,6.64,8.26Z"/><path class="cls-16" d="M255.25,471.79s9.44,3.54,14,20.07,9.44,74.52,10.47,87.35-17.85,23.91-28.18,11.51-24.2-50.91-24.2-50.91a24.34,24.34,0,0,1,12.25-8.7l5,6C244.48,537.16,225.15,468.39,255.25,471.79Z"/><path class="cls-2" d="M161.69,472.67s-9.74,14.47-10.77,41.91"/><path class="cls-2" d="M239.16,529.34l-12.83,9s15.78,39.1,19.33,43.68,27,11.21,28.48-3.25-5.61-12.54-5.61-12.54Z"/><path class="cls-2" d="M239,494.37s-.59,25.67,5,41.17"/><polygon class="cls-8" points="197.85 425.31 194.31 425.31 195.19 410.11 191.06 425.31 197.85 425.31"/><polyline class="cls-6" points="195.19 410.11 194.31 425.31 197.85 425.31"/><path class="cls-5" d="M235.18,420.73s-4.13-.44-5.46,2.36"/><path class="cls-5" d="M170.84,419.4s-1.33-.73-2.65,2.07"/></g></svg>