<svg id="图层_1" data-name="图层 1" xmlns="http://www.w3.org/2000/svg" xmlns:xlink="http://www.w3.org/1999/xlink" viewBox="0 0 800 800"><defs><style>.cls-1{fill:#ececec;}.cls-2{opacity:0.3;}.cls-3{fill:#fff;}.cls-4{fill:#e1e1e1;}.cls-5{fill:#0d8dff;}.cls-6{fill:#f5f5f5;}.cls-7{fill:#33b3ff;}.cls-8{fill:#0065bf;}.cls-12,.cls-13,.cls-14,.cls-23,.cls-24,.cls-25,.cls-26,.cls-27,.cls-9{fill:none;}.cls-9{stroke:#fff;}.cls-12,.cls-13,.cls-14,.cls-17,.cls-23,.cls-25,.cls-26,.cls-27,.cls-9{stroke-miterlimit:10;}.cls-10,.cls-17{fill:#b8ecff;}.cls-11{fill:#002f59;}.cls-12,.cls-24{stroke:#000;}.cls-13{stroke:#1a2e35;}.cls-14{stroke:#e1e1e1;}.cls-15{fill:#f8f9fa;opacity:0.4;}.cls-16{fill:#ffc607;}.cls-17,.cls-23,.cls-25,.cls-26{stroke:#1e2427;}.cls-18{fill:#ff7f0d;}.cls-19{fill:#1e2427;}.cls-20{fill:#f5e9d9;}.cls-21{fill:#f8eedf;}.cls-22{fill:#02172a;}.cls-24{stroke-linecap:round;stroke-linejoin:round;}.cls-25{stroke-width:0.96px;}.cls-26{stroke-width:0.91px;}.cls-27{stroke:#f5e9d9;}.cls-28{fill:#ffc7ae;}.cls-29{opacity:0.68;}.cls-30{fill:url(#未命名的渐变_3);}</style><linearGradient id="未命名的渐变_3" x1="450.54" y1="571.01" x2="445.93" y2="217.45" gradientUnits="userSpaceOnUse"><stop offset="0" stop-color="#fff"/><stop offset="1" stop-color="#fff" stop-opacity="0"/></linearGradient></defs><circle class="cls-1" cx="391.5" cy="144.17" r="22.76" transform="translate(-19.14 217.84) rotate(-30.39)"/><g class="cls-2"><path class="cls-3" d="M383.85,144.91a3.71,3.71,0,1,1,1.52-5A3.71,3.71,0,0,1,383.85,144.91Z"/></g><g class="cls-2"><path class="cls-3" d="M390.8,135.21a2.16,2.16,0,1,1,.89-2.92A2.15,2.15,0,0,1,390.8,135.21Z"/></g><path class="cls-4" d="M376.2,127.32c-.3.27-26.1-8.11-27.25-1.77s17.93,20.2,39.36,29.25,44.89,15.24,46.89,9-20.93-19.58-20.93-19.58l-.25,3.2s14.19,7.91,13.23,13.33-18.5.83-37.92-8.51-35.21-19.95-33.38-23.9,17.89,1.43,17.89,1.43Z"/><g class="cls-2"><path class="cls-3" d="M399.71,125.54c-.1.27-2-.47-5.13-.77a20.95,20.95,0,0,0-20.5,10.46c-1.6,2.72-2.11,4.68-2.38,4.61s-.13-2.14,1.28-5.19a19.65,19.65,0,0,1,3.26-4.88,19.74,19.74,0,0,1,12.65-6.46,19.44,19.44,0,0,1,5.87.23C398.06,124.18,399.81,125.37,399.71,125.54Z"/></g><path class="cls-5" d="M179.34,244.09l.1,18.76s31.14-17.65,22-34.43Z"/><path class="cls-5" d="M182.38,200.75s-22.41-8.22-39.46,7.05l17.48,9.86Z"/><path class="cls-6" d="M160.4,217.66c.71.93,18.94,26.43,18.94,26.43L227,210.32a17.4,17.4,0,0,0,3.23-25.43h0a17.4,17.4,0,0,0-23.9-2.55Z"/><path class="cls-7" d="M183.22,216.2l-29.77,21.41s1.28,3.27,2.1,2.94S178.66,225,185.93,220a2.34,2.34,0,0,0,.38-3.54h0A2.35,2.35,0,0,0,183.22,216.2Z"/><path class="cls-5" d="M229.21,208.44c16-15,13.15-32.29,13.15-32.29-21.52-5.66-36.05,6.19-36.05,6.19C220.64,184.35,228.3,193,229.21,208.44Z"/><polygon class="cls-7" points="146.31 359.62 250.99 604.19 360.46 418.59 406.84 418.59 501.32 604.97 560.58 476.14 599.41 475.06 665.37 673.68 610.4 673.68 578.62 554.3 530.52 673.68 476.04 673.68 380.9 482.53 276 673.68 211.01 673.68 98.22 379.38 146.31 359.62"/><polygon class="cls-7" points="72.61 394.01 175.68 351.07 98.38 311.56 72.61 394.01"/><rect class="cls-8" x="367.18" y="569.96" width="164.22" height="103.73"/><path class="cls-9" d="M408.24,571.14v101.2"/><polyline class="cls-9" points="473.18 673.68 473.18 634.46 531.4 606.15"/><path class="cls-3" d="M420.8,581a2,2,0,1,1-2-2A2,2,0,0,1,420.8,581Z"/><path class="cls-3" d="M420.8,608.57a2,2,0,1,1-2-2A2,2,0,0,1,420.8,608.57Z"/><path class="cls-3" d="M420.8,636.16a2,2,0,1,1-2-2A2,2,0,0,1,420.8,636.16Z"/><path class="cls-3" d="M420.8,663.76a2,2,0,1,1-2-2A2,2,0,0,1,420.8,663.76Z"/><path class="cls-3" d="M401.44,581a2,2,0,1,1-2-2A2,2,0,0,1,401.44,581Z"/><path class="cls-3" d="M401.44,608.57a2,2,0,1,1-2-2A2,2,0,0,1,401.44,608.57Z"/><path class="cls-3" d="M401.44,636.16a2,2,0,1,1-2-2A2,2,0,0,1,401.44,636.16Z"/><path class="cls-3" d="M401.44,663.76a2,2,0,1,1-2-2A2,2,0,0,1,401.44,663.76Z"/><path class="cls-3" d="M481.71,663.25a2,2,0,1,1-2-2A2,2,0,0,1,481.71,663.25Z"/><path class="cls-3" d="M481.71,642.49a2,2,0,1,1-2-2A2,2,0,0,1,481.71,642.49Z"/><path class="cls-3" d="M468.76,663.25a2,2,0,1,1-2-2A2,2,0,0,1,468.76,663.25Z"/><path class="cls-3" d="M468.76,642.49a2,2,0,1,1-2-2A2,2,0,0,1,468.76,642.49Z"/><path class="cls-10" d="M485,504.21l-11.65,37.58L479.27,570H429l-1.32-19.74L411,551.1h-.28a5.33,5.33,0,0,1-5.31-5l-1.29-21.24h-8.63a.63.63,0,0,1-.54-.28.65.65,0,0,1-.08-.6L404,499.28l-.37-5.56a39.87,39.87,0,0,1,39.8-42.48h3.55a39.93,39.93,0,0,1,39.88,39.88A55.08,55.08,0,0,1,485,504.21Z"/><path class="cls-11" d="M412.88,492.42A32.11,32.11,0,1,0,445,460.31,32.11,32.11,0,0,0,412.88,492.42Z"/><path class="cls-12" d="M511.28,555.57a19.21,19.21,0,0,0,13.49-32.89l0,0-.91-.81L463,469l0,.07a29.48,29.48,0,1,0-32.44,49.05l0,0,1.48.75,71.93,35.25,0,0A18.87,18.87,0,0,0,511.28,555.57Z"/><path class="cls-7" d="M433,473.34a21.61,21.61,0,0,1,5.28-2.29l1.08-5.22,8.82-.15,1.27,5.17a21.76,21.76,0,0,1,5.34,2.11L459.2,470l6.34,6.13-2.76,4.55a21.61,21.61,0,0,1,2.29,5.28l5.22,1.08.15,8.82-5.17,1.27a21.76,21.76,0,0,1-2.11,5.34l2.92,4.46L460,513.3l-4.55-2.76a21.61,21.61,0,0,1-5.28,2.29l-1.08,5.22-8.82.15L439,513a22,22,0,0,1-5.35-2.11l-4.45,2.92-6.34-6.12,2.76-4.55a21.61,21.61,0,0,1-2.29-5.28l-5.22-1.08-.16-8.82,5.18-1.27a22.37,22.37,0,0,1,2.1-5.35l-2.92-4.45,6.13-6.34,4.55,2.76Zm4.7,11.74a9.46,9.46,0,1,0,13.38-.23A9.47,9.47,0,0,0,437.65,485.08Z"/><path class="cls-7" d="M505.75,525.48a12.46,12.46,0,0,1,3.05-1.32l.63-3,5.12-.09.73,3a12.73,12.73,0,0,1,3.11,1.22l2.58-1.69,3.68,3.55-1.6,2.64a12.73,12.73,0,0,1,1.33,3.06l3,.63.09,5.11-3,.74a12.27,12.27,0,0,1-1.22,3.1L525,545l-3.55,3.68-2.64-1.61a12.35,12.35,0,0,1-3.06,1.33l-.63,3-5.11.09-.74-3a12.82,12.82,0,0,1-3.1-1.22L503.55,549l-3.68-3.55,1.6-2.64a12.35,12.35,0,0,1-1.33-3.06l-3-.63L497,534l3-.73a12.27,12.27,0,0,1,1.22-3.1l-1.7-2.59,3.55-3.68,2.65,1.6Zm2.72,6.82a5.49,5.49,0,1,0,7.76-.14A5.48,5.48,0,0,0,508.47,532.3Z"/><circle class="cls-13" cx="204.05" cy="203.4" r="9.95"/><path class="cls-12" d="M181.37,201.52l-14.48,11.14"/><path class="cls-12" d="M206.59,224.78,222,213.86"/><path class="cls-14" d="M158.59,233.92s-159.25,168.26,61,132.65c267.25-43.22,359.19,210.54,348.69,0"/><rect class="cls-15" x="246.3" y="227.85" width="225.16" height="142.96" rx="5.95"/><path class="cls-10" d="M250.86,228.48h216a3.93,3.93,0,0,1,3.93,3.93v12.34a0,0,0,0,1,0,0H246.93a0,0,0,0,1,0,0V232.41A3.93,3.93,0,0,1,250.86,228.48Z"/><path class="cls-12" d="M399,227.85h66.52a6,6,0,0,1,5.95,6V364.85a6,6,0,0,1-5.95,5.95H252.25a6,6,0,0,1-5.95-5.95v-131a6,6,0,0,1,5.95-6h21.69"/><path class="cls-16" d="M462.65,236.55a2.65,2.65,0,0,1-.77,1.87,2.61,2.61,0,0,1-1.86.77H447.2a2.64,2.64,0,0,1-2.63-2.64,2.69,2.69,0,0,1,.77-1.87,2.64,2.64,0,0,1,1.86-.77H460A2.63,2.63,0,0,1,462.65,236.55Z"/><path class="cls-7" d="M441.34,236.55a2.61,2.61,0,0,1-.78,1.87,2.57,2.57,0,0,1-1.85.77H425.89a2.64,2.64,0,0,1-1.86-4.51,2.59,2.59,0,0,1,1.86-.77h12.82A2.64,2.64,0,0,1,441.34,236.55Z"/><path class="cls-8" d="M419.67,236.55a2.61,2.61,0,0,1-.78,1.87,2.58,2.58,0,0,1-1.85.77H404.22a2.64,2.64,0,0,1-2.64-2.64,2.69,2.69,0,0,1,.77-1.87,2.63,2.63,0,0,1,1.87-.77H417A2.64,2.64,0,0,1,419.67,236.55Z"/><path class="cls-17" d="M351.34,309.29v-28.1h-5.42a.51.51,0,0,1-.45-.26.49.49,0,0,1,0-.52l13-22.73a.55.55,0,0,1,.91,0l13,22.73a.53.53,0,0,1,0,.52.51.51,0,0,1-.45.26h-5.42v28.1a.51.51,0,0,1-.51.52H351.86A.52.52,0,0,1,351.34,309.29Z"/><path class="cls-17" d="M316,317.65V298.37h-3.59a.51.51,0,0,1-.45-.26.47.47,0,0,1,0-.51l9-15.72a.54.54,0,0,1,.91,0l9,15.72a.49.49,0,0,1,0,.51.51.51,0,0,1-.44.26h-3.59v19.28a.52.52,0,0,1-.52.52h-9.72A.51.51,0,0,1,316,317.65Z"/><path class="cls-17" d="M391,317.65V298.37h-3.59a.54.54,0,0,1-.45-.26.52.52,0,0,1,0-.51l9-15.72a.54.54,0,0,1,.91,0l9,15.72a.52.52,0,0,1-.45.77h-3.59v19.28a.51.51,0,0,1-.51.52h-9.72A.52.52,0,0,1,391,317.65Z"/><path class="cls-18" d="M305.57,336.82h70.32c3.78,5.12,7.59,10.21,11.36,15.33H305.57a7.69,7.69,0,0,1-7.66-7.67h0A7.69,7.69,0,0,1,305.57,336.82Z"/><path class="cls-19" d="M297.39,344.48a8.19,8.19,0,0,1,8.18-8.18H412.18a8.18,8.18,0,1,1,0,16.36H305.57A8.19,8.19,0,0,1,297.39,344.48Zm8.18-7.14a7.15,7.15,0,0,0,0,14.29H412.18a7.15,7.15,0,1,0,0-14.29Z"/><path class="cls-11" d="M588.85,410s-8.53,201.46-7.76,234.6h43.84l22.45-232.92Z"/><polygon class="cls-11" points="690.12 412.37 696.01 520.22 727.39 644.6 680.38 644.6 633.08 519.71 612.98 411.13 690.12 412.37"/><path class="cls-20" d="M620.71,441.61c4.7,35.62,7.65,50,14.79,85.09l1.26-.25c-7.17-35.27-10.15-49.76-14.85-85.51"/><path class="cls-5" d="M723.78,644.73H686.43l-9.87,8.71s-29.23-.83-29.23,20.55h76.45Z"/><path class="cls-19" d="M721.2,671.52h-.14l-71.9-.27a.51.51,0,0,1-.51-.51.5.5,0,0,1,.51-.5h0l72,.27a.51.51,0,1,1,0,1Z"/><path class="cls-5" d="M621.52,644.42H584.17l-9.87,8.71s-29.23-.82-29.23,20.55h76.45Z"/><path class="cls-19" d="M618.94,671.22h-.14L546.9,671a.51.51,0,0,1,0-1h0l72,.27a.51.51,0,0,1,0,1Z"/><path class="cls-5" d="M594.85,362.65l-6,47.35,5.89,24.13,18.24-23,26.16,23,51-21.76-.61-19.82a23.51,23.51,0,0,0,28.2-24l-6.26-73c-.4-10.2-7.89-25.42-17.7-28.18l-33.62-9.94-29.28,5.35L611,268.9a23.5,23.5,0,0,0-16.39,19.35l-5.82,43.52-27.42,7.09-1,23.79Z"/><path class="cls-19" d="M680.38,354.76h.06a.62.62,0,0,0,.55-.68l-5-48.48a.62.62,0,0,0-.67-.55.62.62,0,0,0-.54.68l5,48.48A.62.62,0,0,0,680.38,354.76Z"/><path class="cls-19" d="M687.63,392.59a.6.6,0,0,0,.58-.42.62.62,0,0,0-.4-.77l-60.1-19.08,7-24.95,61.2,10.78a.61.61,0,0,0,.22-1.21l-61.76-10.87a.59.59,0,0,0-.69.44l-7.3,26.05a.61.61,0,0,0,.41.75l60.66,19.26A.62.62,0,0,0,687.63,392.59Z"/><path class="cls-19" d="M603.35,336.86a.61.61,0,0,0,.6-.54L608.49,298a.61.61,0,0,0-1.22-.14l-4.53,38.29a.62.62,0,0,0,.54.68Z"/><path class="cls-19" d="M632.8,286.34a.58.58,0,0,0,.37-.13l10.89-8.33c1.06,0,6.13.45,7.17,6.7a.61.61,0,0,0,.41.48.59.59,0,0,0,.62-.15c.12-.11,11.35-11.4,10.38-25.85a.64.64,0,0,0-.65-.57.62.62,0,0,0-.57.66c.78,11.66-6.75,21.23-9.24,24.05a8.58,8.58,0,0,0-8.35-6.54.62.62,0,0,0-.35.12l-11.05,8.46a.61.61,0,0,0-.11.86A.63.63,0,0,0,632.8,286.34Z"/><path class="cls-19" d="M629.85,286.34h.09a.61.61,0,0,0,.52-.69l-1.3-8.84a.6.6,0,0,0-.24-.4.56.56,0,0,0-.45-.11,10.19,10.19,0,0,0-4.21,1.66c.14-3.32,1-10.47,5.48-13.47a.6.6,0,0,0,.17-.84.61.61,0,0,0-.85-.17c-6.5,4.33-6.07,15.79-6,16.28a.61.61,0,0,0,1.19.18c.46-1.29,2.57-2,3.85-2.32l1.2,8.2A.62.62,0,0,0,629.85,286.34Z"/><path class="cls-3" d="M568.26,341.21l17.45,2.14-4.84,3.77a4.07,4.07,0,0,0,2.5,7.29h.38a4.08,4.08,0,0,0,3.85,5.44,4.41,4.41,0,0,0,1.29-.21,4.06,4.06,0,0,0,3.81,5.53,4,4,0,0,0,2.49-.85l3.67-2.86.49.73c8.5,10.59,19.12,6.3,19.12,6.3l8.33,2.41L633.08,349l-16.86-3.66L602,336a10.54,10.54,0,0,0-5.81-1.75H568.26Z"/><path class="cls-19" d="M588.89,360.24a.56.56,0,0,0,.38-.14l7.16-5.85a.61.61,0,0,0-.78-.94l-7.15,5.85a.62.62,0,0,0-.09.86A.64.64,0,0,0,588.89,360.24Z"/><path class="cls-19" d="M583.75,355a.62.62,0,0,0,.39-.14l7.28-6.06a.61.61,0,0,0-.78-.94l-7.28,6.06a.61.61,0,0,0-.08.86A.63.63,0,0,0,583.75,355Z"/><path class="cls-11" d="M512.88,307.22,549,371.17a5.33,5.33,0,0,0,4.62,2.69H587.7a5.3,5.3,0,0,0,4.61-7.91L556.16,302a5.3,5.3,0,0,0-4.61-2.69H517.49A5.29,5.29,0,0,0,512.88,307.22Z"/><path class="cls-3" d="M528.32,342.33a3.82,3.82,0,0,0,2.79,2,4.65,4.65,0,0,0-1.1,1.81,4.55,4.55,0,0,0,4.79,5.92,4.66,4.66,0,0,0-1,1.7,4.6,4.6,0,0,0,.28,3.48,4.52,4.52,0,0,0,3.87,2.46,5.52,5.52,0,0,0-.52.95,4.24,4.24,0,0,0,.09,3.57c1.15,2.23,4.19,3,6.77,1.65l5.74-2.74a5.7,5.7,0,0,0,2.7-2.9,4.24,4.24,0,0,0-.09-3.57,4.37,4.37,0,0,0-3.71-2.27,4.83,4.83,0,0,0,.65-1.28,4.55,4.55,0,0,0-4.8-5.93,4.42,4.42,0,0,0,1-1.7,4.53,4.53,0,0,0-.27-3.47,4.58,4.58,0,0,0-4.65-2.45,2.75,2.75,0,0,0,.23-.56,3.81,3.81,0,0,0-.23-3,3.87,3.87,0,0,0-5.21-1.67l-5.65,2.7a3.89,3.89,0,0,0-1.69,5.21Z"/><path class="cls-19" d="M538,360.35a.58.58,0,0,0,.26-.06l11-5.31a.61.61,0,1,0-.53-1.1l-11,5.31a.61.61,0,0,0,.27,1.16Z"/><path class="cls-19" d="M534.8,352.71a.63.63,0,0,0,.27-.06l10-4.88a.61.61,0,1,0-.54-1.1l-10,4.88a.62.62,0,0,0-.29.82A.63.63,0,0,0,534.8,352.71Z"/><path class="cls-19" d="M531.11,345a.66.66,0,0,0,.27-.06l9.76-4.77a.61.61,0,0,0,.28-.82.62.62,0,0,0-.82-.28l-9.76,4.77a.61.61,0,0,0,.27,1.16Z"/><path class="cls-11" d="M620.9,373.19V384.1H495.33c-3.4,0-6.15-4.89-6.15-10.91Z"/><path class="cls-11" d="M597.72,373.19H489.18l-19.1-68.86a5.18,5.18,0,0,1,5-6.57h97.78a5.19,5.19,0,0,1,5,3.8Z"/><path class="cls-21" d="M593.54,373.66H494.32a.47.47,0,0,1,0-.94h98.6l-19.7-71a.46.46,0,0,1,.32-.57.47.47,0,0,1,.58.32L594,373.07a.47.47,0,0,1-.08.41A.49.49,0,0,1,593.54,373.66Z"/><path class="cls-3" d="M546.5,389.12a3.86,3.86,0,0,0,3.12-1.49,4.54,4.54,0,0,0,8.55.42,4.54,4.54,0,0,0,8.22.87,5,5,0,0,0,.6.9,4.2,4.2,0,0,0,3.18,1.62c2.5.05,4.6-2.28,4.67-5.17l.31-6.36a5.69,5.69,0,0,0-1.27-3.75,4.27,4.27,0,0,0-3.18-1.62,4.37,4.37,0,0,0-3.77,2.19,4.62,4.62,0,0,0-.82-1.18,4.52,4.52,0,0,0-3.18-1.41,4.57,4.57,0,0,0-4.31,2.81,4.55,4.55,0,0,0-4.21-3.1,4.56,4.56,0,0,0-4.35,2.93,3,3,0,0,0-.39-.47,3.81,3.81,0,0,0-2.7-1.2,3.87,3.87,0,0,0-4,3.79l-.3,6.26a3.89,3.89,0,0,0,3.78,4Z"/><path class="cls-19" d="M566.93,389.21a.6.6,0,0,0,.07-.27l.54-12.18a.61.61,0,0,0-.58-.64.62.62,0,0,0-.64.58l-.54,12.19a.61.61,0,0,0,.58.64A.62.62,0,0,0,566.93,389.21Z"/><path class="cls-19" d="M558.71,388.34a.59.59,0,0,0,.07-.26l.45-11.1a.62.62,0,0,0-.59-.64.61.61,0,0,0-.63.59l-.45,11.1a.61.61,0,0,0,1.15.31Z"/><path class="cls-19" d="M550.16,387.92a.59.59,0,0,0,.07-.26l.44-10.86a.61.61,0,0,0-.59-.63.6.6,0,0,0-.63.58L549,387.61a.61.61,0,0,0,1.15.31Z"/><path class="cls-3" d="M664.75,229.5c-1.33,5.4-4.65,8.8-9.66,8.17l5.62,20.64L632.6,282.67,629.87,257a19.59,19.59,0,0,1-7.68-4.35c-4.15-3.57-11.13-12.38-11.68-20.7l-1.09-16.41c6.84,0,15.67-1.93,22.43-3.68,5.95-1.54,10.31-3,10.31-3a8.88,8.88,0,0,0,.68,2.33c1.84,4.26,6.58,8.51,6.58,8.51v.08s0,0,0,0l.09-.1a10.33,10.33,0,0,1,6-3.28,9.45,9.45,0,0,1,3.66.16C664.53,217.84,666.19,223.72,664.75,229.5Z"/><path class="cls-19" d="M630.84,245.07c-3.41,0-5.12-3.43-5.14-3.47a.49.49,0,0,1,0-.41.52.52,0,0,1,.28-.3l9.42-4.09a.52.52,0,0,1,.68.26,6.23,6.23,0,0,1,.3,4.45,5.24,5.24,0,0,1-3,3A6.24,6.24,0,0,1,630.84,245.07Zm-3.92-3.45a4.59,4.59,0,0,0,6,1.91,4.28,4.28,0,0,0,2.44-2.37,5.05,5.05,0,0,0-.08-3.18Z"/><path class="cls-19" d="M632.88,257.66a5.34,5.34,0,0,0,1.43-.17c3-.84,7.15-5.7,7.32-5.91a.64.64,0,0,0-.08-.91.65.65,0,0,0-.91.08s-4,4.76-6.68,5.5c-2.16.6-6.67-1.1-8.22-1.8a.65.65,0,0,0-.53,1.18C625.42,255.72,629.73,257.66,632.88,257.66Z"/><path class="cls-19" d="M622.81,226.74h0A10.57,10.57,0,0,1,628.63,213a10.57,10.57,0,1,1,4,20.36A10.58,10.58,0,0,1,622.81,226.74Zm6.31-12.57a9.28,9.28,0,1,0,12.08,5.12,9.3,9.3,0,0,0-8.6-5.8A9.33,9.33,0,0,0,629.12,214.17Z"/><path class="cls-19" d="M599.63,233.35h0a10.57,10.57,0,1,1,9.81,6.6A10.57,10.57,0,0,1,599.63,233.35Zm6.31-12.56a9.17,9.17,0,1,0,3.48-.69A9.15,9.15,0,0,0,605.94,220.79Z"/><rect class="cls-19" x="641.17" y="215.85" width="12.64" height="1.29" transform="translate(-21 355.21) rotate(-30.21)"/><rect class="cls-19" x="619.1" y="226.74" width="4.49" height="1.29" transform="translate(-39.33 263.12) rotate(-23.2)"/><path class="cls-19" d="M618.65,240.55l.2,0,8.06-2.66a.64.64,0,0,0,.41-.81.65.65,0,0,0-.82-.42L619.37,239l1-13.46a.65.65,0,0,0-.59-.69.66.66,0,0,0-.7.59L618,239.86a.69.69,0,0,0,.25.56A.62.62,0,0,0,618.65,240.55Z"/><path class="cls-22" d="M599.84,212.89c1.5,1.7,4.41,2.44,8,2.58h.1l1.43,0h.28c6.8-.08,15.48-2,22.15-3.68,1.9-.49,3.62-1,5.1-1.39,3.18-.92,5.21-1.58,5.21-1.58a9.06,9.06,0,0,0,.67,2.32c1.85,4.27,6.59,8.51,6.59,8.51l.12,0a10.29,10.29,0,0,1,6-3.29,9.26,9.26,0,0,1,3.66.16,33.1,33.1,0,0,0,.94-12.41c-1.58-10.42-10.27-10.69-10.27-10.69-1.68-4.41-5.83-6.49-10.84-6.12h0a15.15,15.15,0,0,0-7.14-2.37c-13.08-1.56-11.24,10-11.24,10s-2.83-4.74-9.76-4.11c-3.42.31-2.73,3.34-3.1,5.2l-1.5-.14C597.75,195,592.12,204.06,599.84,212.89Z"/><path class="cls-23" d="M657.71,232.86c1.4-.65,3.32-2.38,2.34-4.06a6.22,6.22,0,0,0-4.75-2.93,5.9,5.9,0,0,0,1.24-.3,8.8,8.8,0,0,0,1.32-.42,2.34,2.34,0,0,0,.94-4.06,3.71,3.71,0,0,0-2.87-1"/><path class="cls-23" d="M574.78,645.65a5,5,0,0,1,1,1.71c.61,1.71-.28,3.39,0,5.11,0-.58,2.22-1.57,2.68-1.85,2.85-1.73,7.11-5,10.55-2.85a8.06,8.06,0,0,1,3.12,7.89c-.31,1.34-2.53-1.83-2.86-2.14a11.49,11.49,0,0,0-6.39-2.87,7.94,7.94,0,0,0-4.88,1c-.82.4-1.65,1.76-2.66,1-.58-.44-.64-1.62-.92-2.26a7.19,7.19,0,0,0-1.45-2.2,4.76,4.76,0,0,0-4.66-1.4c-.54.14-2.34,1-2.63.11-.19-.56.73-1.43,1.09-1.76A5.72,5.72,0,0,1,574.78,645.65Z"/><path class="cls-23" d="M676.78,647.42a5.11,5.11,0,0,1,1,1.71c.61,1.71-.28,3.39,0,5.11,0-.58,2.22-1.57,2.69-1.85,2.85-1.72,7.11-5,10.55-2.84a8.05,8.05,0,0,1,3.11,7.88c-.3,1.35-2.53-1.83-2.85-2.14a11.54,11.54,0,0,0-6.39-2.86,7.91,7.91,0,0,0-4.89,1c-.81.4-1.65,1.76-2.66,1-.57-.44-.63-1.62-.91-2.26A7.38,7.38,0,0,0,675,650a4.78,4.78,0,0,0-4.66-1.39c-.54.13-2.34,1-2.64.1-.19-.56.74-1.43,1.1-1.76A5.73,5.73,0,0,1,676.78,647.42Z"/><line class="cls-24" x1="20.82" y1="673.68" x2="779.18" y2="673.68"/><path class="cls-22" d="M197,396.87c-5.8,7.48-8.31,13.09-12.1,15.46l-.92.58c-12.61,7.89-15.32,26.25-8.83,36.39l1.87,2.95c.28.45.59.9.9,1.33a6,6,0,0,1,1,5.33,29.85,29.85,0,0,0-1.26,10.87,31.75,31.75,0,0,0,26.18,28.92,29.19,29.19,0,0,0,25.34-8c7.61-7.49,16.3-13.76,25.19-19.68a29.32,29.32,0,0,0,13-22.43,31.1,31.1,0,0,0-4.23-18c-.68-1.37-1.34-2.62-1.95-3.73-2.13-3.87-4.83-7.95-4.63-12.32,1.25-27.5-23.09-35.8-41-30.36C215.47,384.22,202.13,390.27,197,396.87Z"/><path class="cls-3" d="M203.77,440.33l-3.06,28.18H196A60.61,60.61,0,0,0,202.08,479a19.62,19.62,0,0,0,32.48-1.13,50.48,50.48,0,0,0,4.92-9.39h-5.92l-1.63-12,4-3.19a28,28,0,0,0,10.51-21.88V413.73c-11.5-26.46-33.72-8.1-33.72-8.1l-4.37,16v.07l0,0a10.47,10.47,0,0,0-6.41-3,9.48,9.48,0,0,0-3.72.4c-5.36,1.71-6.65,7.82-4.8,13.62C195.08,438.07,198.71,441.3,203.77,440.33Z"/><path class="cls-25" d="M196.23,423.63a2,2,0,0,1,1.08-2.17,2.83,2.83,0,0,1,2.52.11,4.87,4.87,0,0,1,1.82,1.84,8,8,0,0,1,1.08,5.23,3,3,0,0,0-3.55-.6,3.85,3.85,0,0,0-2,3.15,5.44,5.44,0,0,0,1.2,3.6,9.18,9.18,0,0,0,3,2.43"/><path class="cls-25" d="M232.25,456.36a9.62,9.62,0,0,1-8.36,2c-3.31-.8-5.9-3.29-8.33-5.68"/><path class="cls-25" d="M229.76,444.44a9.5,9.5,0,0,1-6.14-6.86"/><path class="cls-25" d="M235.1,425.88l3.56,13.5-7.49-.2"/><rect class="cls-11" x="183.75" y="603.8" width="87.5" height="30.49" transform="translate(455 1238.1) rotate(-180)"/><path class="cls-16" d="M155.05,565.41l16.36,19.89H273.86v-25a20,20,0,0,0,30.76-3.41l38.11-58.94L323.2,480.11,297.84,512l-14-24.35a38.14,38.14,0,0,0-33-19.11h-11.3a50.48,50.48,0,0,1-4.92,9.39A19.62,19.62,0,0,1,202.08,479,60.61,60.61,0,0,1,196,468.52h-1.19A38.13,38.13,0,0,0,158.46,495l-10.57,33A39.81,39.81,0,0,0,155.05,565.41Z"/><path class="cls-3" d="M341.43,479c.09.13.19.24.29.36a4,4,0,0,0,1.29,7.52l12,1.83a4,4,0,0,0,4.58-3.37,4,4,0,0,0-.59-2.75,4.32,4.32,0,0,0,2.36-6.75,4.12,4.12,0,0,0-.77-.79,4.34,4.34,0,0,0,1.9-6.61,6,6,0,0,0-.4-.46,4.37,4.37,0,0,0,2.79-3.41,4.31,4.31,0,0,0-.8-3.22,4.27,4.27,0,0,0-2.84-1.73l-13-2a4.34,4.34,0,0,0-4.16,6.87,3.63,3.63,0,0,0,.41.46,4.32,4.32,0,0,0-1.23,7.44,4.31,4.31,0,0,0-1.9,6.59Z"/><path class="cls-3" d="M323.91,481.52l14.41,13.15a28,28,0,0,0,12-6.7l-1.65-30s.21-5.87.55-13.6a8.91,8.91,0,0,0-1.53-5.83,3.15,3.15,0,0,0-5.62,1.16l-4.21,19Z"/><path class="cls-26" d="M348.31,457.62a4.34,4.34,0,0,0-4.16,6.87,3.63,3.63,0,0,0,.41.46,4.32,4.32,0,0,0-1.23,7.44,4.31,4.31,0,0,0-1.9,6.59c.09.13.19.24.29.36a4,4,0,0,0,1.29,7.52l8.19,1.25"/><line class="cls-26" x1="344.56" y1="464.95" x2="361.65" y2="467.56"/><line class="cls-26" x1="343.33" y1="472.39" x2="359.66" y2="474.88"/><line class="cls-26" x1="341.72" y1="479.34" x2="358.16" y2="481.85"/><line class="cls-26" x1="297.84" y1="511.98" x2="289.73" y2="521.57"/><path class="cls-26" d="M266.21,500.78s12,20,9.82,39.75"/><line class="cls-26" x1="186.26" y1="503.3" x2="177.58" y2="538.93"/><path class="cls-10" d="M163.81,542.45,165.29,610H290.14l1.49-67.52a7.26,7.26,0,0,0-7.25-7.4H171.06A7.24,7.24,0,0,0,163.81,542.45Z"/><line class="cls-23" x1="287.45" y1="603.8" x2="170.95" y2="603.8"/><line class="cls-23" x1="290.14" y1="609.97" x2="291.5" y2="545.12"/><line class="cls-23" x1="165.29" y1="609.97" x2="163.81" y2="545.12"/><path class="cls-16" d="M316.21,666.13a18.28,18.28,0,0,1-16.65,6.65l-51.64-6.56-5.86-5.9,5.11-18.52h7.23l44.84-6a18.49,18.49,0,0,1,17.41,7.5l.22.3A18.48,18.48,0,0,1,316.21,666.13Z"/><path class="cls-27" d="M301.72,637.07a17.26,17.26,0,0,1,9.76,9.78,20.28,20.28,0,0,1,.2,13.93,24.72,24.72,0,0,1-8.25,11.35"/><path class="cls-23" d="M250.86,662.26a155.91,155.91,0,0,1,3-17.45"/><path class="cls-27" d="M267.16,645.82a33.2,33.2,0,0,0-1.54,16.59"/><path class="cls-27" d="M272.4,646.68a27.84,27.84,0,0,0-1.88,15.74"/><path class="cls-27" d="M277.68,647.19a26,26,0,0,0-2.86,15.3"/><path class="cls-23" d="M295.84,641.75a21.4,21.4,0,0,0-2.5,26.37"/><path class="cls-11" d="M240.18,632.08l-13.81,34.27-94.23-33.21A25.68,25.68,0,0,1,115,608.9a25.4,25.4,0,0,1,2.27-10.51,25.68,25.68,0,0,1,35.36-12.22Z"/><path class="cls-11" d="M215.57,638.41l13.8,34.27,94.23-33.21a25.68,25.68,0,1,0-20.46-47Z"/><polygon class="cls-28" points="216.03 639.57 227.72 668.58 201.34 671.76 195.4 649.37 216.03 639.57"/><polyline class="cls-27" points="269.8 609.97 215.57 638.41 227.72 668.58"/><line class="cls-27" x1="198" y1="609.97" x2="233.64" y2="628.93"/><path class="cls-16" d="M134.68,671.79a18.28,18.28,0,0,0,16.65,6.65L203,671.88l5.85-5.9-5.11-18.52H196.5l-44.85-6a18.47,18.47,0,0,0-17.41,7.5l-.21.29A18.48,18.48,0,0,0,134.68,671.79Z"/><path class="cls-27" d="M149.17,642.73a17.26,17.26,0,0,0-9.76,9.78,20.33,20.33,0,0,0-.2,13.93,24.79,24.79,0,0,0,8.25,11.35"/><path class="cls-23" d="M200,667.92a151.47,151.47,0,0,0-3-17.45"/><path class="cls-27" d="M183.73,651.47a33.24,33.24,0,0,1,1.54,16.6"/><path class="cls-27" d="M178.5,652.34a27.83,27.83,0,0,1,1.87,15.74"/><path class="cls-27" d="M173.22,652.85a26,26,0,0,1,2.85,15.3"/><path class="cls-23" d="M155.06,647.41a21.42,21.42,0,0,1,2.49,26.37"/><line class="cls-23" x1="227.72" y1="668.58" x2="202.98" y2="671.88"/><path class="cls-22" d="M192.3,406.45c3.24-9.53,17.4-22.51,27.43-21.61l15.83,9.93a15.49,15.49,0,0,1-10.73,11.63c-2.85.8-6.26,1-8,3.38s-.84,6.09-2.49,8.63c-2.29,3.51-8.35,3.22-10.09,7-.77,1.66-.43,3.68-1.22,5.33-1.05,2.2-6.73,4.91-9,4.13s-2.24-4.75-3-6.84a11,11,0,0,1-.19-7.37C191.94,416,190.75,411,192.3,406.45Z"/><path class="cls-22" d="M232.8,401.73s-11.1,24.78-32.55,20.71,11.09-27.79,11.09-27.79,28.8-17.83,39.62,11.1S241.73,415.07,232.8,401.73Z"/><path class="cls-27" d="M198.23,650.5a7,7,0,0,1-1.64,2.17c-1.84,1.63-4.41,1.35-6.43,2.61.74-.3,3.1,2,3.69,2.45,3.6,2.72,9.91,6.42,8.89,11.86-.7,3.73-4.63,7.29-8.36,7.89-1.85.29,1-4.11,1.25-4.67a15.54,15.54,0,0,0,.4-9.49,10.82,10.82,0,0,0-3.71-5.66c-.91-.83-3-1.19-2.6-2.85.26-.94,1.72-1.61,2.39-2.29a10.12,10.12,0,0,0,2-2.93,6.49,6.49,0,0,0-.6-6.58c-.44-.61-2.41-2.45-1.46-3.26.62-.52,2.18.21,2.78.49C198.67,642.05,200,646.93,198.23,650.5Z"/><g class="cls-29"><path class="cls-30" d="M635.13,219.51c-1.57-4.11-5.8-4.53-9.28-4.4L257,221.28c-4.66,18.75,17,77.6,24.09,95,34.49,84.61,51.52,169.09,86,253.71H531.36c35.7-116.45,67.28-224,103-340.44C635.33,226.31,636.31,222.6,635.13,219.51Z"/></g><path class="cls-5" d="M224.7,577.11l-4.54-12.55h-.07l-1.93,12.55H216l1.94-14.3h3.67l4.11,11.93h.07l4.1-11.93h3.74l1.79,14.3h-2.23l-1.8-12.55h-.07q-.44,1.61-4.46,12.55Z"/></svg>