<svg id="图层_1" data-name="图层 1" xmlns="http://www.w3.org/2000/svg" xmlns:xlink="http://www.w3.org/1999/xlink" viewBox="0 0 800 800"><defs><style>.cls-1{fill:none;}.cls-2{fill:#f8f9fa;stroke:#e3eafd;}.cls-2,.cls-4,.cls-5{stroke-miterlimit:10;stroke-width:1.5px;}.cls-3{clip-path:url(#clip-path);}.cls-4,.cls-7{fill:#40adff;}.cls-4,.cls-5{stroke:#000;}.cls-5{fill:#fff;}.cls-6{fill:#ffc607;}</style><clipPath id="clip-path"><circle class="cls-1" cx="429.92" cy="437.63" r="305.58"/></clipPath></defs><circle class="cls-2" cx="429.92" cy="437.63" r="310.76"/><g class="cls-3"><rect class="cls-4" x="123.3" y="460.94" width="73.03" height="190.6"/><path class="cls-5" d="M505.54,556.24l126.38-52.31s27.45,18.13-1.55,43.5L419.56,661.9,196.33,609.07V503.93L305.1,479.07,475,527.75s30.56,6.74,30.56,28.49c0,0-2.07,29.52-30.56,22.27l-94.26-22.27"/></g><circle class="cls-6" cx="429.92" cy="378.07" r="20.72"/><path class="cls-7" d="M530.92,371.34l-9.32-2.59a13.53,13.53,0,0,1-5.18-23.31l7.25-6.22a110.2,110.2,0,0,0-9.32-17.09L505,324.72c-10.35,2.59-19.68-7.25-16.57-17.61l3.11-9.32c-5.18-4.15-10.88-7.25-16.58-10.36l-6.73,6.73c-7.77,7.25-20.72,3.63-23.31-6.73l-2.07-9.32c-3.11-.52-6.21-.52-9.84-1h-9.84l-2.59,9.32a13.81,13.81,0,0,1-23.31,5.7l-6.21-7.25A90,90,0,0,0,374,294.16l2.58,9.33c2.59,10.36-7.25,19.68-17.61,16.57L349.64,317c-4.14,5.18-7.25,10.88-10.36,16.58l6.74,6.73c7.25,7.77,3.62,20.72-7.26,22.79l-9.32,2.07c-.52,3.11-.52,6.22-1,9.84v9.84l9.32,2.59a13.53,13.53,0,0,1,5.18,23.31l-7.25,6.21A89.85,89.85,0,0,0,345,434l9.32-2.08c10.36-2.59,19.68,7.25,16.58,17.61l-3.11,9.33c5.18,4.14,10.88,7.25,16.57,10.36l6.74-6.74c7.77-7.77,20.71-3.62,23.3,7.25l2.08,9.33a60.31,60.31,0,0,0,9.84.51h9.84l2.59-9.32a13.81,13.81,0,0,1,23.31-5.7l6.21,7.25a89.76,89.76,0,0,0,17.09-9.32l-2.59-9.32c-2.59-10.36,7.25-19.68,17.61-16.58l9.33,3.11c4.14-5.18,7.25-10.88,10.35-16.57l-6.73-6.74a14.07,14.07,0,0,1,7.25-23.3l9.33-2.07c.51-3.11.51-6.22,1-9.84C531.44,378.07,530.92,375,530.92,371.34ZM428.37,429.86c-28.49-1-51.28-24.86-50.24-53.35a52.31,52.31,0,0,1,53.35-50.24c28.48,1,51.27,24.86,50.24,53.35S456.86,430.9,428.37,429.86Z"/></svg>