<svg id="图层_1" data-name="图层 1" xmlns="http://www.w3.org/2000/svg" xmlns:xlink="http://www.w3.org/1999/xlink" viewBox="0 0 800 800"><defs><style>.cls-1,.cls-13,.cls-23{fill:none;}.cls-2,.cls-21,.cls-3,.cls-6{fill:#fff;}.cls-2{opacity:0.8;}.cls-10,.cls-11,.cls-12,.cls-13,.cls-21,.cls-23,.cls-25,.cls-26,.cls-27,.cls-3,.cls-7,.cls-8{stroke:#000;stroke-width:1.5px;}.cls-10,.cls-11,.cls-12,.cls-13,.cls-25,.cls-26,.cls-27,.cls-3{stroke-miterlimit:10;}.cls-4{clip-path:url(#clip-path);}.cls-5{fill:#c7c7c7;}.cls-14,.cls-25,.cls-7{fill:#40adff;}.cls-21,.cls-23,.cls-7,.cls-8{stroke-linecap:round;stroke-linejoin:round;}.cls-8{fill:#f4ad00;}.cls-26,.cls-9{fill:#b8ecff;}.cls-10{fill:#ffaeae;}.cls-11{fill:#7cc996;}.cls-12{fill:#5576b5;}.cls-15{fill:#d8a209;}.cls-16{fill:#ffc609;}.cls-17{fill:#edb73e;}.cls-18{fill:#474f54;}.cls-19{fill:#2f373d;}.cls-20{fill:#1e2326;}.cls-22{fill:#dbdbdb;}.cls-24,.cls-27{fill:#ff844d;}</style><clipPath id="clip-path"><rect class="cls-1" x="183.6" y="256.47" width="252.25" height="150.31" rx="14.51"/></clipPath></defs><rect class="cls-2" x="160.85" y="206.59" width="266.8" height="191.12" rx="11.68"/><rect class="cls-3" x="176.72" y="217.99" width="266.8" height="191.12" rx="11.68"/><g class="cls-4"><path class="cls-5" d="M279.63,317.72a10.18,10.18,0,0,1-2.91,1.22,10.11,10.11,0,1,1,7.42-12.23A10.15,10.15,0,0,1,279.63,317.72Z"/><path class="cls-6" d="M277.4,308a3.07,3.07,0,1,1-3.06-3.08A3.06,3.06,0,0,1,277.4,308Z"/><path class="cls-6" d="M279.63,316.45v1.27a10.18,10.18,0,0,1-2.91,1.22,10,10,0,0,1-7.7-1.23v-1.26a5.31,5.31,0,1,1,10.61,0Z"/><rect class="cls-5" x="291.62" y="298.99" width="45.95" height="3.97"/><rect class="cls-5" x="291.61" y="307.96" width="62.78" height="2.29"/><rect class="cls-5" x="291.61" y="312.89" width="62.78" height="2.29"/><path class="cls-5" d="M334,366.66a9.54,9.54,0,0,1-2.91,1.22,10,10,0,0,1-7.7-1.22,10.1,10.1,0,1,1,10.61,0Z"/><path class="cls-6" d="M331.81,356.9a3.07,3.07,0,1,1-3.07-3.08A3.08,3.08,0,0,1,331.81,356.9Z"/><path class="cls-6" d="M334,365.39v1.27a9.54,9.54,0,0,1-2.91,1.22,10,10,0,0,1-7.7-1.22v-1.27a5.31,5.31,0,1,1,10.61,0Z"/><rect class="cls-5" x="346.02" y="347.94" width="45.95" height="3.97"/><rect class="cls-5" x="346.02" y="356.9" width="62.78" height="2.29"/><rect class="cls-5" x="346.01" y="361.84" width="62.78" height="2.29"/><path class="cls-5" d="M226,364.7a9.54,9.54,0,0,1-2.91,1.22,10,10,0,0,1-7.7-1.22,10.1,10.1,0,1,1,10.61,0Z"/><path class="cls-6" d="M223.8,354.94a3.07,3.07,0,1,1-3.06-3.08A3.07,3.07,0,0,1,223.8,354.94Z"/><path class="cls-6" d="M226,363.43v1.27a9.54,9.54,0,0,1-2.91,1.22,10,10,0,0,1-7.7-1.22v-1.27a5.31,5.31,0,1,1,10.61,0Z"/><rect class="cls-5" x="238.02" y="345.98" width="45.95" height="3.97"/><rect class="cls-5" x="238.01" y="354.94" width="62.78" height="2.29"/><rect class="cls-5" x="238.01" y="359.88" width="62.78" height="2.29"/><path class="cls-5" d="M334,409.93a9.54,9.54,0,0,1-2.91,1.22,10,10,0,0,1-7.7-1.22,10.1,10.1,0,1,1,10.61,0Z"/><path class="cls-6" d="M331.81,400.17a3.07,3.07,0,1,1-3.07-3.08A3.08,3.08,0,0,1,331.81,400.17Z"/><path class="cls-6" d="M334,408.66v1.27a9.54,9.54,0,0,1-2.91,1.22,10,10,0,0,1-7.7-1.22v-1.27a5.31,5.31,0,1,1,10.61,0Z"/><rect class="cls-5" x="346.02" y="391.21" width="45.95" height="3.97"/><rect class="cls-5" x="346.02" y="400.17" width="62.78" height="2.29"/><rect class="cls-5" x="346.01" y="405.11" width="62.78" height="2.29"/><path class="cls-5" d="M226,409.93a9.54,9.54,0,0,1-2.91,1.22,10,10,0,0,1-7.7-1.22,10.1,10.1,0,1,1,10.61,0Z"/><path class="cls-6" d="M223.8,400.17a3.07,3.07,0,1,1-3.06-3.08A3.07,3.07,0,0,1,223.8,400.17Z"/><path class="cls-6" d="M226,408.66v1.27a9.54,9.54,0,0,1-2.91,1.22,10,10,0,0,1-7.7-1.22v-1.27a5.31,5.31,0,1,1,10.61,0Z"/><rect class="cls-5" x="238.02" y="391.21" width="45.95" height="3.97"/><rect class="cls-5" x="238.01" y="400.17" width="62.78" height="2.29"/><rect class="cls-5" x="238.01" y="405.11" width="62.78" height="2.29"/></g><polygon class="cls-7" points="470.86 481.61 470.86 550.87 458.71 571.81 458.71 502.55 470.86 481.61"/><polygon class="cls-8" points="598.57 571.81 598.57 640.47 170.5 640.47 170.5 571.81 298.19 571.81 298.19 550.87 310.34 550.87 310.34 502.55 458.71 502.55 458.71 571.81 598.57 571.81"/><polygon class="cls-3" points="598.57 571.81 598.57 643.16 158.35 643.16 158.35 571.81 298.19 571.81 298.19 502.55 458.71 502.55 458.71 571.81 598.57 571.81"/><polygon class="cls-7" points="470.86 481.61 458.71 502.55 298.19 502.55 310.34 481.61 470.86 481.61"/><polygon class="cls-7" points="610.7 550.87 598.57 571.81 458.71 571.81 470.86 550.87 610.7 550.87"/><polygon class="cls-7" points="298.19 550.87 298.19 571.81 158.35 571.81 170.5 550.87 298.19 550.87"/><polygon class="cls-7" points="610.7 550.87 610.7 622.22 598.57 643.16 598.57 571.81 610.7 550.87"/><rect class="cls-9" x="369.16" y="512.49" width="18.58" height="51.98" rx="9.29"/><rect class="cls-9" x="200.4" y="582.02" width="18.58" height="51.98" rx="9.29"/><rect class="cls-9" x="237.56" y="582.02" width="18.58" height="51.98" rx="9.29"/><rect class="cls-9" x="482.19" y="582.02" width="18.58" height="51.98" rx="9.29"/><rect class="cls-9" x="519.35" y="582.02" width="18.58" height="51.98" rx="9.29"/><rect class="cls-9" x="556.51" y="582.02" width="18.58" height="51.98" rx="9.29"/><circle class="cls-10" cx="197.35" cy="236.15" r="4.45"/><circle class="cls-3" cx="213.52" cy="236.15" r="4.45"/><circle class="cls-11" cx="229.69" cy="236.15" r="4.45"/><path d="M397.5,236.73l9-4.65v1.34l-7.59,3.81v0l7.59,3.81v1.33l-9-4.64Z"/><path d="M407.77,243.19l5.42-14.08h1.32l-5.43,14.08Z"/><path d="M424.75,237.79l-9,4.62v-1.33l7.65-3.81v0l-7.65-3.81v-1.34l9,4.63Z"/><path class="cls-3" d="M556.94,536.44a17.4,17.4,0,0,1-2.61,2.47,14.56,14.56,0,0,1-6.83,2.93,12.8,12.8,0,0,1-5.17-.62,28.72,28.72,0,0,1-3-1c-5.07-2-3.49-5.83-8.65-5.59l-2.2-11.3,24.18.61Z"/><path class="cls-12" d="M560,547.85v6.24l-49.33,1s.42-8.56-4.67-12.64c3.88-1.52,9.59-3.63,16.94-6a32.1,32.1,0,0,1,7.8-1.8c5.16-.24,3.58,3.64,8.65,5.59a23.61,23.61,0,0,0,6.17,1.62c4.4.41,8.66-2.14,11.41-5.41C560.33,540.62,560,547.85,560,547.85Z"/><path class="cls-3" d="M560,554.09v6.57h-65.8a64.25,64.25,0,0,1,0-6.92c.17-5.2,5.89-8.83,5.89-8.83s2-.91,5.9-2.42h0c5.09,4.08,4.67,12.64,4.67,12.64Z"/><path class="cls-13" d="M506,542.49a2,2,0,0,0-.27-.22"/><line class="cls-13" x1="560.63" y1="554.07" x2="559.97" y2="554.09"/><line class="cls-13" x1="507.13" y1="555.13" x2="496.35" y2="555.13"/><path class="cls-13" d="M512.3,540.26s4.17,3.67,4.28,6.82"/><path class="cls-13" d="M518.53,537.89s4.43,3.57,4.61,7.73"/><path class="cls-13" d="M524.2,536s5.74,3.16,5.77,8.37"/><path class="cls-3" d="M408,469.34a17.37,17.37,0,0,1-2.61,2.46,14.56,14.56,0,0,1-6.83,2.93,13,13,0,0,1-5.17-.61c-1-.28-2-.62-3-1-5.07-1.95-3.49-5.83-8.65-5.59l-2.2-11.3,24.19.62Z"/><path class="cls-12" d="M411.06,480.74V487l-49.33,1s.43-8.56-4.67-12.64c3.88-1.51,9.59-3.63,16.94-6a31.76,31.76,0,0,1,7.8-1.81c5.16-.24,3.58,3.64,8.65,5.59a23.61,23.61,0,0,0,6.17,1.62c4.4.41,8.66-2.14,11.41-5.4C411.42,473.51,411.06,480.74,411.06,480.74Z"/><path class="cls-3" d="M411.06,487v6.58h-65.8a64.52,64.52,0,0,1,0-6.93c.17-5.2,5.89-8.83,5.89-8.83s2-.91,5.91-2.42h0c5.1,4.08,4.67,12.64,4.67,12.64Z"/><path class="cls-13" d="M357.06,475.38l-.28-.22"/><line class="cls-13" x1="411.72" y1="486.96" x2="411.06" y2="486.98"/><line class="cls-13" x1="358.22" y1="488.02" x2="347.44" y2="488.02"/><path class="cls-13" d="M363.39,473.15s4.17,3.67,4.28,6.83"/><path class="cls-13" d="M369.62,470.78s4.43,3.57,4.62,7.73"/><path class="cls-13" d="M375.29,468.91s5.74,3.15,5.77,8.37"/><path class="cls-3" d="M405.46,376c23.89-7.45,40.82-4.08,65.4-17l-15.78-43.22s-65.77,15.3-77.94,24c-9.22,6.56-16.93,11.6-15.24,26.05C363.32,378,371.1,464,371.1,464l41.37-.11S406.52,384.12,405.46,376Z"/><path class="cls-3" d="M519.09,427.86c-.75-5.2-.93-44.14-.74-54.73s-3-37.44-3-37.44l-62.91-8.8S462,387.68,467.24,409s4.6,31.3,19.65,58.55c9.3,16.83,39.73,70,39.73,70l33.26-15.73S519.63,431.65,519.09,427.86Z"/><path class="cls-14" d="M452.2,224.48c-1-.15-17.38,8.86-20.49,8.45-3.42-.45-33.93-21.29-38.28-25.32s-6-7.22-11.41-3.18-8.7,8-8,10.63,8.78,15.06,12.4,20.49,30,22.5,40.46,23.75,35.44-.53,35.44-1.36S452.2,224.48,452.2,224.48Z"/><path class="cls-14" d="M518.83,340.3c-.73,4.6-9.73,9.9-22.09,10.65a51,51,0,0,1-15.37-1.46c-14.05-3.49-40.61-27.3-38.11-39.13,1.21-5.6,2.11-10,2.61-13.86.17-1.16.29-2.26.38-3.32l.05-.83a34.57,34.57,0,0,0-.07-5.86,36.93,36.93,0,0,0-1.64-7.76,64.08,64.08,0,0,1-2-9.05c-2-13.23-1.26-29.52.69-38,2.46-10.59,36.21-13.15,49.57-4.58,0,0,10.75,2.53,15.51,17.79A137.14,137.14,0,0,1,512,259.77c.42,2.15.81,4.34,1.18,6.61a285.73,285.73,0,0,1,3.44,39.11c0,.83,0,1.62,0,2.4.07,2.28.15,4.37.28,6.33C517.77,329,519.69,334.91,518.83,340.3Z"/><polygon class="cls-15" points="332.68 246.49 326.34 239.85 340.07 226.5 346.4 233.14 332.68 246.49"/><path class="cls-16" d="M341.49,236.85l-4.07-4.26a29.6,29.6,0,0,1-4.35-35h0a29.54,29.54,0,0,1,5.34-6.85l34.64-33.05,45,47.13L383.5,237.76a29.81,29.81,0,0,1-7.39,5.15L376,243A29.6,29.6,0,0,1,341.49,236.85Z"/><path class="cls-17" d="M322.51,242.1h10.91a2,2,0,0,1,2,2v3.06a0,0,0,0,1,0,0h-15a0,0,0,0,1,0,0v-3.06A2,2,0,0,1,322.51,242.1Z" transform="translate(278.57 -161.52) rotate(46.34)"/><polygon class="cls-18" points="320.42 240.44 303.75 233.89 337.57 269.34 331.29 251.83 320.42 240.44"/><polygon class="cls-19" points="337.57 269.34 321.4 284.75 311.07 273.92 287.6 249.31 291.44 245.65 300.4 237.09 303.75 233.9 327.22 258.49 337.57 269.34"/><polygon class="cls-20" points="337.57 269.34 321.4 284.75 311.07 273.92 327.22 258.49 337.57 269.34"/><polygon class="cls-17" points="315.26 252.67 306.3 261.22 291.44 245.65 300.4 237.09 315.26 252.67"/><path class="cls-15" d="M418,204.82c-1.35,1.29-12.5-8.23-24.92-21.24S371.7,159,373.05,157.69s12.5,8.23,24.92,21.24S419.36,203.54,418,204.82Z"/><path class="cls-15" d="M356.91,231.37a8.48,8.48,0,0,1-6.26-2.38,2.57,2.57,0,0,1,3.64-3.64c1.31,1.31,4.29,1.12,8.17-.51,11.11-4.69,23.38-17.83,23.31-23.2,0-2.15-.52-2.89-.71-3-.44-.24-1.8.19-2.63.71a2.58,2.58,0,0,1-2.76-4.35c.45-.29,4.45-2.73,7.84-.89,2.22,1.2,3.37,3.71,3.41,7.46.11,8.63-14.82,23.09-26.46,28A19.69,19.69,0,0,1,356.91,231.37Z"/><path class="cls-21" d="M392.92,230.24,386.68,224s-3.42-7.85-4.9-10.81-3.59-.76-3.59-.76-3.2-6.31-7-.55c0,0-3.74-.9-4,6,0,0-1.65,0-2.12,4.5s9,11.42,12.7,12.81l6.58,7Z"/><path class="cls-14" d="M491.58,244.26c-6-2-23.76,6-31.47,7.19s-22.2,2-22.2,2-18.57-7.66-30.77-14.8S395.55,228,390.65,228.19s-10.38,12.21-11.08,15.87,26.8,25.65,36.59,31.06,17.7,7.92,25.33,6.82,29-1.69,39.8-4,14.12-10.39,14.89-21S491.58,244.26,491.58,244.26Z"/><path class="cls-7" d="M461.64,251.15q-.83.18-1.53.3c-7.72,1.21-22.2,2-22.2,2s-18.57-7.66-30.77-14.8S395.55,228,390.65,228.19s-10.38,12.21-11.08,15.87,26.8,25.65,36.59,31.06,17.7,7.92,25.33,6.82c3.38-.49,9.44-.87,16.08-1.35"/><path class="cls-6" d="M494.25,203.76a0,0,0,0,1,0,0c-.09.25-.93,2.41-1.92,6.1,0,0,0,0,0,0-.46,1.7-1,3.72-1.42,6a0,0,0,0,0,0,0c-.58,2.82-1.13,6.07-1.53,9.67a26.4,26.4,0,0,1-19.1,9.1,5.54,5.54,0,0,1-5.26-8l0-.07a21.79,21.79,0,0,1,3.5-4.74l.85-7.58Z"/><path class="cls-22" d="M494.25,203.76a0,0,0,0,1,0,0c-.09.25-.93,2.41-1.92,6.1,0,0,0,0,0,0a27.26,27.26,0,0,0-.85,3.38h0c-1.56,8.15-12.43,18.21-26.43,13.32a21.79,21.79,0,0,1,3.5-4.74l.85-7.58Z"/><path d="M507,193.52a24.57,24.57,0,0,1-16,21.83c-.46.18-.93.33-1.42.49a12.27,12.27,0,0,1-4.25.57c-3.59-.19-6.62-2.15-9.14-5-7.76-8.79-10.67-26.13-10.67-26.13s-7-4.15-2.49-11.48c0,0-.69-7.9,4.39-11s8.32-2.82,11.27-5,8.21-1.26,14.14,7.43,13.72,4.53,17.89,14S507,193.52,507,193.52Z"/><path d="M490.89,215.34c.43-2.06.87-3.87,1.28-5.43,0,0,0,0,0,0,1-3.68,1.81-5.86,1.89-6.1l0,0-11.72,5c-.49-1.29-.82-2.17-.82-2.22,0-.23,7.26-20.77,7.26-20.77s7.42,7.19,18.16,7.74A23.79,23.79,0,0,1,490.89,215.34Z"/><path class="cls-3" d="M465.68,180.59S456.62,210,465,218.14c6.07,5.85,16.51,3.4,20.86.94S494.17,209,494.17,209s5.91,1.66,7.85-5.54c1.21-4.48-4-6.87-7-1.5l-3-.4a9.07,9.07,0,0,1,1.09-6.07c2.91-4.66-3.69-4.54-3.89-8.13s-2.3-4.42-9.57-4.42c-8.69,0-13.32-4.45-13.32-4.45Z"/><path class="cls-23" d="M469.12,197.47a12,12,0,0,1-3.11,3.87c-1.76,1.44-2.36,1.7,1.08,3.86"/><path class="cls-23" d="M474.79,213.27a2.46,2.46,0,0,1-.6.32c-2.09.75-4.94.62-6-.94"/><path class="cls-3" d="M501.27,206.51c-1,3.52-4,5.74-6.79,5s-4.21-4.25-3.23-7.77,4-5.74,6.79-5S502.25,203,501.27,206.51Z"/><path class="cls-21" d="M494,206.52s1.29-4.62,4.56-2.92"/><ellipse class="cls-24" cx="633.92" cy="249.51" rx="21.06" ry="68.31" transform="matrix(0.5, -0.87, 0.87, 0.5, 100.88, 673.75)"/><circle class="cls-25" cx="635.68" cy="251.54" r="43.1"/><path class="cls-26" d="M656.45,271.44H649V246.63c0-.77.06-2.69.19-5.76v-3.08l-.19-.19a64.84,64.84,0,0,1-1.73,6.92q-.59,2.31-8.08,26.92h-6.73q-7.89-24.62-8.46-26.54c-.51-1.41-1.22-3.78-2.11-7.11h-.2q.2,1.54.2,9.61v24h-6.93v-39.8h11.54q8.07,26.54,8.27,27.49c.38,2.05.64,3.53.77,4.42h.19a29.41,29.41,0,0,1,.77-4.23q.38-1.33,8.07-27.68h11.93Z"/><path class="cls-13" d="M678.55,256.08c12,11.36,17.91,21.74,14.53,27.59s-14.93,5.9-30.37,1.43c-11.58-3.34-25.32-9.26-39.32-17.34a193.29,193.29,0,0,1-30.49-21.52c-14.36-12.63-21.83-24.47-18.13-30.88s18.13-5.84,36.64.55"/><circle class="cls-9" cx="623.08" cy="380.5" r="23.03"/><circle class="cls-27" cx="272.39" cy="467.52" r="15.56"/><path class="cls-6" d="M600.05,481.91s25.39-65.07,56.07-25.92c0,0,8.46,11.11,25.92-15.87s28.33,11.64,28.33,11.64,7.3,13.17,17.52,4.47,21.69,5.23,26.27,25.68Z"/><path class="cls-6" d="M45.84,423.46s12.32-48.76,39.33-56.37c0,0,15.64-9.58,28,17,0,0,5.68,15.21,21.32,4.31,0,0,15.16-8.9,35.06,11.66,0,0,5.22,9.76,24.64,0,0,0,22.75-8.82,34.12,23.41Z"/></svg>