<svg id="图层_1" data-name="图层 1" xmlns="http://www.w3.org/2000/svg" xmlns:xlink="http://www.w3.org/1999/xlink" viewBox="0 0 800 800"><defs><style>.cls-1,.cls-12,.cls-17,.cls-3{fill:none;}.cls-2{fill:#ffc609;}.cls-13,.cls-14,.cls-15,.cls-17,.cls-19,.cls-2,.cls-3,.cls-4,.cls-5,.cls-7,.cls-8{stroke:#000;}.cls-12,.cls-13,.cls-14,.cls-2,.cls-3,.cls-4,.cls-5,.cls-7,.cls-8{stroke-miterlimit:10;}.cls-13,.cls-14,.cls-15,.cls-17,.cls-2,.cls-3,.cls-4,.cls-5,.cls-7,.cls-8{stroke-width:1.5px;}.cls-15,.cls-19,.cls-5,.cls-9{fill:#fff;}.cls-6{opacity:0.8;}.cls-7{fill:#ffaeae;}.cls-8{fill:#7cc996;}.cls-10{fill:#8dd9ea;opacity:0.4;isolation:isolate;}.cls-11{fill:#40adff;}.cls-12{stroke:#36b0c2;}.cls-13{fill:#b8ecff;}.cls-14,.cls-20{fill:#ff844d;}.cls-15,.cls-17,.cls-19{stroke-linecap:round;stroke-linejoin:round;}.cls-16{fill:#dbdbdb;}.cls-18{clip-path:url(#clip-path);}.cls-19{stroke-width:1.5px;}</style><clipPath id="clip-path"><path class="cls-1" d="M416.25,185.72V356c0,14.6-12.14,26.53-27.15,26.53H79.41C55.55,374.29,52.26,371.83,52.26,356V185.72c0-15.42,12.75-28,28.59-28H387.66C403.5,157.75,416.25,170.3,416.25,185.72Z"/></clipPath></defs><rect class="cls-2" x="518.24" y="269.01" width="21.8" height="12.13"/><rect class="cls-2" x="524.41" y="259.14" width="9.67" height="9.67"/><path class="cls-3" d="M529.14,259.14v-72a15.4,15.4,0,0,1,15.43-15.42h145A15.4,15.4,0,0,1,705,187.16V515a15.41,15.41,0,0,1-15.43,15.43H615.92"/><rect class="cls-2" x="615.92" y="519.68" width="12.13" height="21.8"/><rect class="cls-2" x="628.26" y="525.65" width="9.67" height="9.67"/><rect class="cls-2" x="229.52" y="592.89" width="21.8" height="12.13"/><rect class="cls-2" x="235.69" y="605.23" width="9.67" height="9.67"/><path class="cls-3" d="M94.83,337.69v287.9a14.74,14.74,0,0,0,14.8,14.8h116a14.74,14.74,0,0,0,14.8-14.8V615.1"/><rect class="cls-4" x="579.11" y="614.89" width="139.22" height="6.79"/><rect class="cls-5" x="606.67" y="635.46" width="139.22" height="6.79"/><path class="cls-5" d="M748.77,259.14a44,44,0,1,1-44-44,44.05,44.05,0,0,1,44,44Z"/><g class="cls-6"><path class="cls-5" d="M599.27,593.1h-400A17,17,0,0,1,182.23,576V297a17,17,0,0,1,17.06-17.06h400A17,17,0,0,1,616.33,297V576A17.29,17.29,0,0,1,599.27,593.1Z"/></g><path class="cls-7" d="M573.56,297a4.32,4.32,0,1,1-4.32-4.31A4.48,4.48,0,0,1,573.56,297Z"/><circle class="cls-5" cx="583.23" cy="296.97" r="4.32"/><circle class="cls-8" cx="596.59" cy="296.97" r="4.32"/><path d="M465.19,472c-1.85.21-3.7.21-5.55.42-52.85,2.67-86.37-11.93-102.41-29-9.26-9.87-12.55-20.77-10.08-29.61,6.79-23.86,42.36-9.87,51.2-44l85.14,16.86C479.38,414.39,540.25,465.81,465.19,472Z"/><path class="cls-9" d="M296,591h-67a11.41,11.41,0,0,1-11.31-11.31v-2.47A11.41,11.41,0,0,1,228.91,566h67Z"/><rect class="cls-10" x="218.62" y="573.77" width="77.12" height="1.44"/><rect class="cls-10" x="218.62" y="577.88" width="77.12" height="1.44"/><rect class="cls-10" x="218.62" y="585.9" width="77.12" height="1.44"/><rect class="cls-10" x="218.62" y="569.65" width="77.12" height="1.44"/><rect class="cls-10" x="218.62" y="581.99" width="77.12" height="1.44"/><path class="cls-11" d="M296,592.27h-72.6a7.28,7.28,0,0,1-7.19-7.19V571.71a7.28,7.28,0,0,1,7.19-7.2H296V567h-72.6a4.66,4.66,0,0,0-4.73,4.73v13.37a4.66,4.66,0,0,0,4.73,4.73H296Z"/><path class="cls-11" d="M535.93,524.62,509.4,536.55,488,518.45c-.82,18.71-15.83,62.93-15.83,62.93H359.49c11.31-54.09,11.51-65,11.51-65l-12.33,12.55h0l-36.4-27.76a52.5,52.5,0,0,1,4.73-5.56,22.2,22.2,0,0,0,1.85-2.05s27.55-32.29,47.5-41.54A176.93,176.93,0,0,1,399,443.39a83.16,83.16,0,0,1,12.13-2.88l2.27-.62,39.89,2.68,2.67.82s4.94,1.23,11.73,3.09c12.13,3.49,25.08,12.13,30.43,16.45C511.25,473.83,535.93,524.62,535.93,524.62Z"/><path class="cls-11" d="M372.44,580.35c-38.25,0-37.42-.21-50.17-5.14-10.9-4.32-17.69-11.31-20.16-22.83-1.64-7.2-.2-15,2.88-22.62,4.32-11.31,11.93-21.8,17.28-28.79h0c3.9-4.73,6.58-7.61,6.58-7.61l29.82,35.58c-8,8.84-6.79,9-6.79,9C364.63,563.48,372.44,580.35,372.44,580.35Z"/><polyline class="cls-12" points="335.43 541.07 352.09 537.99 338.72 533.67"/><path class="cls-10" d="M322.27,575.21c-10.9-4.32-17.69-11.31-20.16-22.83-1.64-7.2-.2-15,2.88-22.62,8.23.82.83,13.57,10.9,23.24C325.76,562.66,325.56,569.24,322.27,575.21Z"/><path class="cls-13" d="M424.88,585.9c4.32,0,4.73,6.58.41,7H259.55a6.94,6.94,0,0,1-7-7h0l-25.7-72.59a8.4,8.4,0,0,1,8-11.31H342a8.39,8.39,0,0,1,8,5.76l27.76,78.35h0l47.09-.21Z"/><path class="cls-14" d="M403.29,564.1l-4.94-2.26,15.22-33.93a2.63,2.63,0,0,1,3.5-1.44h0a2.64,2.64,0,0,1,1.44,3.5Z"/><path class="cls-15" d="M425.09,559.78v1.85l-.62,23s-12.34,0-22.82-.83c-6.59-.61-12.34-1.64-14.19-3.29-4.94-4.32-.21-8.22-.21-8.22-6.79-5.55.41-9.87.41-9.87s-3.29-7.2,2.26-9.46c2.88-1.24,7.82-1.24,14.19,0l3.09.61h0a94.54,94.54,0,0,1,11.72,3.71Z"/><path class="cls-3" d="M393,562.46s-1.24-.62-5.35.2"/><path class="cls-3" d="M391.57,572.33h-4.32"/><path class="cls-9" d="M309.93,541.89c1.85,5.55-.21,11.52-4.94,13.16s-9.87-1.64-11.92-7.4c-1.85-5.55.2-11.52,4.93-13.16C302.53,533.05,307.87,536.34,309.93,541.89Z"/><path class="cls-11" d="M560,590h0a22.08,22.08,0,0,0,5.76-30.64L509,476.29a22.09,22.09,0,0,0-30.64-5.76h0a22.09,22.09,0,0,0-5.76,30.65l56.76,83.07A22.07,22.07,0,0,0,560,590Z"/><path class="cls-9" d="M428.17,593.1a3.69,3.69,0,0,1-3.7-3.7V553.82a3.69,3.69,0,0,1,3.7-3.7H547.65a21.15,21.15,0,0,1,21.18,21.18v.62a21.15,21.15,0,0,1-21.18,21.18Z"/><path d="M547.65,551.56a19.74,19.74,0,0,1,19.74,19.74v.62a19.74,19.74,0,0,1-19.74,19.74H428.17a2.28,2.28,0,0,1-2.26-2.26V553.82a2.28,2.28,0,0,1,2.26-2.26H547.65m0-3.09H428.17a5.44,5.44,0,0,0-5.34,5.35v35.37a5.44,5.44,0,0,0,5.34,5.35H547.65a22.92,22.92,0,0,0,22.83-22.83v-.62a22.88,22.88,0,0,0-22.83-22.62Z"/><path class="cls-15" d="M415.83,426.53l31.06,1.85-.62,12.13,22.83,6.38s-16.25,21.59-42.57,18.5c-25.09-3.08-34.34-19.53-34.34-19.53l17.68-5.35a8.65,8.65,0,0,0,6-7.81Z"/><path class="cls-16" d="M417.27,426.73l29.82,4.12s-9.66,8.63-31,5.75v-.2a10.06,10.06,0,0,0,.82-4.32Z"/><path d="M477.73,402.26a49.88,49.88,0,0,1-25.09,21.39,41.61,41.61,0,0,1-21.79,2.47A34.25,34.25,0,0,1,418.92,422c-.41-.2-.62-.41-1-.61a17.41,17.41,0,0,1-2.47-1.65c-10.9-7.61-17.89-20.77-18.5-35.57a49.15,49.15,0,0,1,.82-10.9,45.71,45.71,0,0,1,1.85-7.61c4.73-14,15-24.88,27.35-29.61a40.21,40.21,0,0,1,20.36-2.27c18.09,2.88,29.82,13.58,34.75,27.56.21.41.21.62.41,1a22.08,22.08,0,0,1,.83,3.49h0v.41c0,.21.2.62.2.83.21.61.21,1.23.41,1.85h0c.21,1,.21,2.05.41,3.08a57.35,57.35,0,0,1-.61,14.4c-.42,1.85-.83,3.7-1.24,5.34A55.09,55.09,0,0,1,477.73,402.26Z"/><path class="cls-15" d="M458.61,422.83h0c-.41.41-.62,1-1,1.44h0c-5.14,6.58-12.34,10.69-22.62,10.07-13.57-.82-21.39-7.4-25.5-16.45-.62-1.64-1.23-3.08-1.85-4.93-6.79-22.21,3.49-53.68,3.49-53.68l59,9.46S472,403.91,458.61,422.83Z"/><path d="M405.35,393.42c-8-9.67.61-28,.61-28l5.14-6.17,2.06-2.67s.41,14.39-2.06,24.47C408.84,390.13,405.35,393.42,405.35,393.42Z"/><path d="M467.24,403.29c10.49-7,10.29-28.17,10.29-28.17L472,369.36l-3.9-3.09a185,185,0,0,0-2.68,24.89C465.39,399,467.24,403.29,467.24,403.29Z"/><path d="M411.52,354.76s-1.65,16.24,31.25,23l-2.67-8.43s7.4,16.86,38,15.83L470.33,355l-45.86-7.4Z"/><path d="M444.83,339.34s-7.2-14.4-2.06-14.6,4.12,12.13,4.12,12.13,0-7.61,3.49-7.82-1.23,9.46-1.23,9.46Z"/><path class="cls-15" d="M404.73,384s-7.4-.82-9.46,4.11c-2.06,4.73,0,14,9.46,14.4Z"/><path class="cls-15" d="M398.15,391.36s5.14.62,6.58,3.7"/><path class="cls-15" d="M469.71,395.06s7.41,1,8.23,6.38c.82,5.14-3.5,13.57-12.75,11.52Z"/><path class="cls-15" d="M474.24,403.7s-5.14-.62-7.2,2.06"/><polygon class="cls-16" points="436.6 412.13 432.49 411.31 437.01 393.01 428.58 410.49 436.6 412.13"/><polyline class="cls-17" points="437.01 393.01 432.49 411.31 436.6 412.13"/><path class="cls-15" d="M426.73,420.15s3.29,2.88,7,3.09"/><circle class="cls-15" cx="418.92" cy="390.95" r="13.16"/><circle class="cls-15" cx="454.7" cy="397.74" r="13.16"/><line class="cls-3" x1="431.87" y1="393.42" x2="441.75" y2="395.27"/><path class="cls-5" d="M340.16,197.44V358.67c0,14-9.67,25.08-21.59,25.08H72.82c-11.92,0-21.59-11.31-21.59-25.08V197.44c0-14.6,10.08-26.52,22.62-26.52H317.54C329.88,170.92,340.16,182.84,340.16,197.44Z"/><rect class="cls-2" x="340.16" y="269.21" width="12.13" height="21.8"/><rect class="cls-2" x="352.29" y="275.38" width="9.67" height="9.67"/><path class="cls-5" d="M139,551.56a43.8,43.8,0,1,1-43.8-43.8A44,44,0,0,1,139,551.56Z"/><polyline class="cls-3" points="82.28 189.22 73.03 199.09 82.28 208.14"/><polyline class="cls-3" points="108.61 189.22 117.86 199.09 108.61 208.14"/><line class="cls-3" x1="103.26" y1="185.1" x2="87.43" y2="211.02"/><line class="cls-17" x1="469.51" y1="496.86" x2="487.19" y2="522.97"/><line class="cls-17" x1="389.31" y1="495.01" x2="371.21" y2="516.19"/><rect class="cls-2" x="83.72" y="383.75" width="21.8" height="12.13"/><rect class="cls-2" x="89.89" y="396.09" width="9.67" height="9.67"/><g class="cls-18"><path class="cls-15" d="M364.42,167.21s10.49-2.67,12.75-4.11,4.53,2.06,1.24,3.7C374.91,168.45,366.89,168.24,364.42,167.21Z"/><path class="cls-15" d="M373.06,171.33s15.84-4.94,17.48-9.46c1.65-4.32-3.91-1.24-6.37.41-2.68,1.64-13.37,7.2-13.37,7.2Z"/><path class="cls-15" d="M392.39,163.51c-3.91-.41-19.12,5.14-31.46,3.5-10.08-1.44-14.19,9.87-15,12.54-.21.62-.42,1-.62,1.65l-22.62,63.54a12.7,12.7,0,0,0,8.64,15.84h0c6.78,2.05,11.31-2.47,13.36-9.26l16.25-63.13a19.63,19.63,0,0,1,8.63-11.93c4.12-2.47,9.46-4.11,14.19-5.34C393,168.86,396.5,163.92,392.39,163.51Z"/><path class="cls-15" d="M216.16,309.31,218,333,208.55,357l-21.39-21.8-1.44-19.74c.41.21.62.62,1,.82l.21,1.85a18.7,18.7,0,0,0,7.6,4.73,16.46,16.46,0,0,0,13.78-2.46,28.18,28.18,0,0,0,7.2-8.23l-.21-1.44A11.76,11.76,0,0,0,216.16,309.31Z"/><path class="cls-15" d="M215.33,310.55l.21,1.44a28.14,28.14,0,0,1-7.2,8.22A16,16,0,0,1,187,318l-.21-1.85a17.22,17.22,0,0,0,7.2,3.7,18.37,18.37,0,0,0,14.6-2.47A23.67,23.67,0,0,0,215.33,310.55Z"/><path class="cls-16" d="M214.92,305.61l.62,9.25a28.18,28.18,0,0,1-7.2,8.23A16,16,0,0,1,187,320.83l-.62-9.26Z"/><ellipse class="cls-19" cx="159.64" cy="298.46" rx="10.28" ry="11.1" transform="translate(-22.3 13.04) rotate(-4.37)"/><ellipse class="cls-19" cx="233.46" cy="279.13" rx="10.28" ry="11.1" transform="matrix(1, -0.08, 0.08, 1, -20.61, 18.62)"/><path d="M166.39,293.68l-16.66-29.4A26.05,26.05,0,0,1,151,238.57c2.05-3.29,4.32-6.58,6.37-9.46,3.09-4.52,6.38-9.25,10.9-12.54a22.45,22.45,0,0,1,15.63-4.32,23.06,23.06,0,0,1,14.81,7.2c3.29-2.88,7.61-6.58,11.92-6.17,3.5.41,6.38,2.88,9.05,5.34l5.35,4.94a24.18,24.18,0,0,1,7.4,20.36l-5.55,37Z"/><path class="cls-15" d="M222.94,254.82c-6.78-1-17.68-6.38-22.21-11.93-7,13-24.47,22.21-38.25,23.24l3.09,16.45c3.49,20.36,15.42,37.43,34.34,35,.62,0,1.23-.21,1.65-.21h0a31.8,31.8,0,0,0,21-14.39c5.55-8.64,5.55-12.14,3.7-29.62Z"/><path class="cls-15" d="M194.36,304.58a12,12,0,0,0,5.35,2.68,9.62,9.62,0,0,0,9.25-3.91,23,23,0,0,0,1.23-2.26"/><path class="cls-11" d="M360.93,217.6l-32.08,79.58A44.51,44.51,0,0,1,319,312l-57.17,56.34,11.72,125.85-106.11,8L148.91,336.25l26.53-3.49,36.19,37,16.45-42.16,13.37-2.05L299,280.11l27.14-74.85a19.12,19.12,0,0,1,10.9-11.93l23.86,8,1,3.91A25.41,25.41,0,0,1,360.93,217.6Z"/><polygon class="cls-11" points="44.03 337.28 149.94 336.05 154.88 385.81 48.35 367.51 44.03 337.28"/><polygon class="cls-15" points="364.83 188.19 341.19 180.17 336.87 193.13 360.72 201.15 364.83 188.19"/><path class="cls-15" d="M227.88,327.61l-16.45,42.16-36.2-37,4.94-.62a8.27,8.27,0,0,1,7,2.47l1.44,1.64L208.75,357l9.05-23a8.55,8.55,0,0,1,6.58-5.76Z"/><polygon class="cls-16" points="202.58 290.19 199.29 290.8 197.03 274.76 196 291.63 202.58 290.19"/><polyline class="cls-17" points="197.03 274.76 199.29 290.8 202.58 290.19"/><path class="cls-15" d="M228.29,277.64s3.5,1.24,6.17.21"/><path class="cls-15" d="M159,298.21a10,10,0,0,0,5.55-2.68"/><polygon class="cls-15" points="163.72 496.65 163.51 512.49 278.47 503.64 275.59 488.22 163.72 496.65"/><path class="cls-15" d="M237.54,618.19l-8.63-53.68a4.22,4.22,0,0,0-4.32-3.7h0a4.06,4.06,0,0,0-3.7,4.11L218,619.62l-58.82,4.53.21-71.36a112.42,112.42,0,0,1,7.4-40.51h0l108-8.23,1.24,2.47a117.8,117.8,0,0,1,9.66,29.82l14.4,77.32Z"/></g><rect class="cls-20" x="85.78" y="547.65" width="19.12" height="26.32"/><polygon class="cls-20" points="95.24 529.35 112.31 552.59 78.17 552.59 95.24 529.35"/><path class="cls-11" d="M691.39,237.13a27.19,27.19,0,0,1,6.17-2.67l1.24-6.17,10.48-.21,1.44,6.17a34.14,34.14,0,0,1,6.38,2.47l5.35-3.5,7.4,7.2-3.29,5.35a27,27,0,0,1,2.67,6.17l6.17,1.23.21,10.49-6.17,1.44a34,34,0,0,1-2.47,6.37l3.5,5.35-7.2,7.4-5.35-3.29a26.61,26.61,0,0,1-6.17,2.68l-1.23,6.17L700,290l-1.44-6.17a33.37,33.37,0,0,1-6.37-2.47l-5.35,3.5-7.4-7.2,3.29-5.34a26.8,26.8,0,0,1-2.68-6.17l-6.17-1.24-.2-10.48,6.17-1.44a33.46,33.46,0,0,1,2.47-6.38l-3.5-5.35,7.2-7.4,5.34,3.29Zm5.56,14a11.19,11.19,0,1,0,15.83-.21A11.1,11.1,0,0,0,697,251.12Z"/><path class="cls-11" d="M697,251.12a9.54,9.54,0,0,1,2-1.85,10.45,10.45,0,0,1,7.2-1.65,9.9,9.9,0,0,1,4.94,1.85A9.46,9.46,0,0,1,715,254a18.67,18.67,0,0,1,1,3.09,9.78,9.78,0,0,1,0,3.5A11,11,0,0,1,713,267a10.68,10.68,0,0,1-6.38,3.29,9.75,9.75,0,0,1-3.49,0,13.81,13.81,0,0,1-3.09-.82,11,11,0,0,1-4.73-3.91,12.2,12.2,0,0,1-1.85-4.94,12.52,12.52,0,0,1,1.44-7.4,14.07,14.07,0,0,1,2.06-2,22.88,22.88,0,0,0-1.44,2.26,11.89,11.89,0,0,0-1.24,7.2,12.81,12.81,0,0,0,1.85,4.73,10.4,10.4,0,0,0,4.53,3.7,13.87,13.87,0,0,0,3.08.82,9.1,9.1,0,0,0,3.29,0,11.16,11.16,0,0,0,6-3.09,10.12,10.12,0,0,0,2.87-6.16,8.67,8.67,0,0,0,0-3.29,6.9,6.9,0,0,0-1-2.88,11.08,11.08,0,0,0-3.7-4.32,10.32,10.32,0,0,0-4.73-1.85,12.09,12.09,0,0,0-7.2,1.44A5.05,5.05,0,0,0,697,251.12Z"/><path class="cls-11" d="M691.39,237.13a.65.65,0,0,1-.41-.2,4.21,4.21,0,0,0-1-.62c-1-.62-2.26-1.44-4.11-2.47h.21c-1.85,1.85-4.32,4.53-7.2,7.61v-.21c1,1.65,2.26,3.3,3.5,5.35h0a27.23,27.23,0,0,0-2.47,6.17V253h-.21c-1.85.41-3.91,1-6.17,1.44l.21-.21c0,3.29.2,6.79.2,10.49l-.2-.21q2.77.61,6.17,1.24h.2v.2a26.61,26.61,0,0,0,2.68,6.17v.41c-1,1.65-2.06,3.5-3.29,5.35v-.41c2.26,2.26,4.93,4.73,7.4,7.19h-.41c1.64-1,3.49-2.26,5.35-3.49h.41a27.51,27.51,0,0,0,6.17,2.47h.2v.2c.41,1.85,1,3.91,1.44,6.17l-.41-.2c3.29,0,6.79-.21,10.49-.21l-.21.21c.41-1.85.82-4.12,1.24-6.17v-.21h.2a27,27,0,0,0,6.17-2.67h.41c1.85,1,3.5,2.26,5.35,3.29h-.41c2.46-2.47,4.93-4.94,7.19-7.41V277c-1.23-1.85-2.26-3.5-3.49-5.35l-.21-.21v-.2a38.74,38.74,0,0,0,2.47-6.17v-.21H729c2.05-.41,4.11-1,6.17-1.44l-.21.21c0-3.5-.21-7-.21-10.49l.21.21-6.17-1.24h-.21v-.2a20.47,20.47,0,0,0-2.67-6.17v-.41c1-1.85,2.26-3.7,3.29-5.35v.41c-2.67-2.47-5.14-4.93-7.4-7.2h.2c-1.85,1.24-3.49,2.27-5.34,3.5h-.41a19.55,19.55,0,0,0-6.17-2.47h-.21v-.2c-.62-2.26-1-4.32-1.44-6.17l.21.2c-4.12,0-7.41,0-10.49.21l.21-.21a54.79,54.79,0,0,0-1.24,6.17h0a19.12,19.12,0,0,0-4.73,1.85,5.05,5.05,0,0,0-1,.62c.21.41,0,.41,0,.41a.63.63,0,0,0,.41-.2,4.64,4.64,0,0,1,1-.62,18.73,18.73,0,0,1,4.73-1.85h0c.41-1.65.83-3.7,1.24-6.17v-.21h.2c2.88,0,6.38-.2,10.49-.2h.21v.2c.41,1.85,1,3.91,1.43,6.17l-.2-.2a20.14,20.14,0,0,1,6.37,2.47h-.2c1.64-1,3.49-2.27,5.35-3.5l.2-.21.21.21c2.46,2.26,4.93,4.73,7.4,7.2l.2.2-.2.21c-1,1.64-2.06,3.49-3.29,5.34v-.2a21.91,21.91,0,0,1,2.67,6.37l-.2-.2,6.17,1.23h.2v.21c0,3.29.21,6.78.21,10.49v.2h-.21c-2,.41-4.11,1-6.17,1.44l.21-.21a34.14,34.14,0,0,1-2.47,6.38v-.41c1.23,1.64,2.26,3.49,3.5,5.34l.2.21-.2.21c-2.47,2.46-4.73,4.93-7.2,7.4l-.21.2-.2-.2c-1.85-1-3.5-2.26-5.35-3.29h.41a24.47,24.47,0,0,1-6.37,2.67l.2-.2-1.23,6.17v.2h-.21c-3.49,0-7.19.21-10.48.21H700V290c-.62-2.05-1-4.11-1.44-6.17l.21.21a29.3,29.3,0,0,1-6.38-2.47h.41c-1.85,1.23-3.7,2.47-5.34,3.5l-.21.2-.2-.2c-2.68-2.47-5.15-4.94-7.41-7.2l-.2-.21.2-.2c1.24-1.85,2.26-3.7,3.29-5.35v.21a28.42,28.42,0,0,1-2.67-6.38l.2.21c-2-.41-4.31-.83-6.16-1.24h-.21v-.2c0-3.7-.21-7.2-.21-10.49V254h.21c2.06-.61,4.11-1,6.17-1.43l-.21.2a29.41,29.41,0,0,1,2.47-6.37v.2c-1.23-1.85-2.47-3.7-3.49-5.35V241h0c2.87-3.09,5.34-5.55,7.19-7.4h0c1.65,1,3.09,1.85,3.91,2.46a5.05,5.05,0,0,1,1,.62C691.19,237.13,691.39,237.13,691.39,237.13Z"/></svg>