<svg id="图层_1" data-name="图层 1" xmlns="http://www.w3.org/2000/svg" xmlns:xlink="http://www.w3.org/1999/xlink" viewBox="0 0 800 800"><defs><style>.cls-1,.cls-3,.cls-6,.cls-9{fill:none;}.cls-2{fill:#f2f2f2;}.cls-11,.cls-12,.cls-13,.cls-14,.cls-20,.cls-24,.cls-25,.cls-26,.cls-27,.cls-28,.cls-3,.cls-4,.cls-5,.cls-6,.cls-7,.cls-8,.cls-9{stroke:#000;}.cls-12,.cls-14,.cls-20,.cls-24,.cls-27,.cls-28,.cls-3,.cls-5,.cls-6,.cls-7,.cls-8{stroke-miterlimit:10;}.cls-11,.cls-13,.cls-20,.cls-25,.cls-27,.cls-3,.cls-4,.cls-5,.cls-7,.cls-8,.cls-9{stroke-width:1.5px;}.cls-11,.cls-13,.cls-14,.cls-22,.cls-26,.cls-4,.cls-8{fill:#fff;}.cls-13,.cls-25,.cls-26,.cls-4,.cls-9{stroke-linecap:round;stroke-linejoin:round;}.cls-4{opacity:0.8;}.cls-29,.cls-4{isolation:isolate;}.cls-15,.cls-29,.cls-5{fill:#b8ecff;}.cls-21,.cls-7{fill:#ffc609;}.cls-10,.cls-25{fill:#40adff;}.cls-11{stroke-miterlimit:10;}.cls-16{fill:#dbdbdb;}.cls-17{fill:#5576b5;}.cls-18{clip-path:url(#clip-path);}.cls-19{fill:#111325;}.cls-20{fill:#ff844d;}.cls-23,.cls-27{fill:#fefef7;}.cls-24{stroke-width:0.5px;}.cls-26{stroke-width:1.5px;}.cls-28{stroke-width:0.75px;}.cls-29{opacity:0.4;}</style><clipPath id="clip-path"><rect class="cls-1" x="57.2" y="135.13" width="254.51" height="254.51" rx="18.05"/></clipPath></defs><circle class="cls-2" cx="143.74" cy="539.56" r="74.45"/><path class="cls-3" d="M726.19,237.26h9.64a15.67,15.67,0,0,1,15.79,15.79V445.63a15.66,15.66,0,0,1-15.79,15.79H644.77"/><path class="cls-4" d="M626.31,203.63V506.75c0,9-8,16.41-18,16.41H161.79c-10,0-18-7.39-18-16.41V203.63c0-9,8-16.41,18-16.41H608.47C618.32,187.22,626.31,194.6,626.31,203.63Z"/><line class="cls-3" x1="404.61" y1="619.55" x2="407.9" y2="574.63"/><path d="M363.6,290.18h-8.82a1,1,0,1,1,0-2.06h8.82a1,1,0,0,1,1,1A1.1,1.1,0,0,1,363.6,290.18Z"/><path d="M442.35,290.18h-8.82a1,1,0,0,1,0-2.06h8.82a1,1,0,0,1,1,1A1.1,1.1,0,0,1,442.35,290.18Z"/><path d="M400.1,255.52a1,1,0,0,1-1-1v-9.23a1,1,0,0,1,2.05,0v9.23A1.1,1.1,0,0,1,400.1,255.52Z"/><path d="M371.6,266.59a1.49,1.49,0,0,1-.82-.41l-6.57-6.56a1,1,0,1,1,1.44-1.44l6.56,6.56a1,1,0,0,1,0,1.44C372.21,266.59,371.8,266.59,371.6,266.59Z"/><path d="M425.53,266.59a1.55,1.55,0,0,1-.82-.41,1,1,0,0,1,0-1.44l6.57-6.56a1,1,0,0,1,1.43,0,1,1,0,0,1,0,1.44l-6.56,6.56C426.15,266.59,425.74,266.59,425.53,266.59Z"/><path d="M432.3,318.07a1.63,1.63,0,0,1-.82-.41l-6.15-6.16a1,1,0,1,1,1.43-1.43l6.16,6.15a1,1,0,0,1,0,1.44C432.71,317.86,432.51,318.07,432.3,318.07Z"/><path d="M364.83,318.07a1.56,1.56,0,0,1-.82-.41,1,1,0,0,1,0-1.44l6.15-6.15a1,1,0,0,1,1.44,0,1,1,0,0,1,0,1.43l-6.16,6.16C365.44,317.86,365.24,318.07,364.83,318.07Z"/><path class="cls-5" d="M387.39,327.91a24.61,24.61,0,0,0-8-16.61,28.47,28.47,0,0,1,17.43-49,27.31,27.31,0,0,1,21.33,7.59,28.41,28.41,0,0,1,9,20.72,27.88,27.88,0,0,1-8.61,20.3,26.5,26.5,0,0,0-8,17"/><path class="cls-6" d="M406.87,343.7a8.12,8.12,0,0,1-15.59-.2"/><path d="M405.85,336.53H392.1a1,1,0,0,1,0-2.06h13.75a1,1,0,0,1,0,2.06Z"/><path class="cls-6" d="M409.33,343.29H388.82a2.8,2.8,0,0,1-2.87-2.87v-9.84a2.8,2.8,0,0,1,2.87-2.87h20.51a2.8,2.8,0,0,1,2.87,2.87v9.84A2.8,2.8,0,0,1,409.33,343.29Z"/><rect class="cls-7" x="131.64" y="390.87" width="24.2" height="13.54"/><rect class="cls-7" x="138.2" y="404.41" width="10.87" height="10.87"/><rect class="cls-7" x="519.05" y="175.33" width="13.54" height="24.2"/><rect class="cls-7" x="507.98" y="181.89" width="10.87" height="10.87"/><rect class="cls-7" x="626.31" y="449.32" width="13.54" height="24.2"/><rect class="cls-7" x="639.85" y="456.09" width="10.87" height="10.87"/><rect class="cls-7" x="313.56" y="175.33" width="13.54" height="24.2"/><rect class="cls-7" x="326.89" y="181.89" width="10.87" height="10.87"/><rect class="cls-7" x="708.76" y="225.16" width="13.54" height="24.2"/><rect class="cls-7" x="722.09" y="231.73" width="10.87" height="10.87"/><path class="cls-8" d="M295.51,390.87H73.6a17.94,17.94,0,0,1-18-18V150.92a18,18,0,0,1,18-18H295.51a18,18,0,0,1,18.05,18V372.83A18.21,18.21,0,0,1,295.51,390.87Z"/><line class="cls-9" x1="48.38" y1="654" x2="748.75" y2="654"/><path class="cls-10" d="M334.68,645c-6.36-1-32.61-3.49-39.38-10.05a20.53,20.53,0,0,1-5.94-18.46v-.41c1.64-9.23,10.46-91.47,20.71-103.77,10.25-12.1,74.65-37.74,99.47-31.18,24.81,10.87,51.88,21.95,60.91,30.36,8.2,7.79,27.48,65.42,36.71,102.34,1.64,6.56,2.67,14.76-2.05,19.68C499.57,639,448.91,653,448.91,653l-31.37,7.79C417.33,661,345.34,646.62,334.68,645Z"/><path class="cls-8" d="M411,467l-3.48,23.38v.82a16.87,16.87,0,0,1-17.85,13.95h-.82a16.52,16.52,0,0,1-15-18.25v-1.24l.62-5.94,1.64-19.08Z"/><circle class="cls-11" cx="422.66" cy="449.94" r="12.51"/><path class="cls-9" d="M416.1,445.43a21.35,21.35,0,0,0,12.71,5.12"/><path class="cls-8" d="M386.57,486.86h0a33.73,33.73,0,0,0,36.91-31.38l1.85-28.72A27.64,27.64,0,0,0,397.44,397h0c-16.82-1.64-34.87,10.46-36.51,27.27l-1.44,31.18A30.05,30.05,0,0,0,386.57,486.86Z"/><path class="cls-9" d="M384.31,467.78A21.34,21.34,0,0,0,397,472.91"/><path class="cls-12" d="M359.7,436.4c-.21-3.69,1.64-7.17,3.08-10.87s2.05-7.79,0-10.87c7.17,5.34,15.79,8,24.81,8.82a14.94,14.94,0,0,0,6.77-.61c2.05-.82,4.1-2.67,4.51-4.92,8.41,1,16.61,2.25,25,1,7-1,17.85-2.67,21.33-9.84,5.33-10.46-8.2-21.33-16.2-24.82-19.28-8.82-45.32-10.25-62.76,3.49-1.84,1.43-3.69,3.07-5.53,4.3-3.9,2.46-13.34,3.7-15.59,7.59-4.72,7.59,4.51,38.56,4.51,38.56Z"/><path class="cls-12" d="M419.18,408.1a2.54,2.54,0,0,0-.21,1.23A37.33,37.33,0,0,0,420.41,421c.41,1.64,1,3.28,1.43,5.13.62,4.1.62,8.2,3.69,11.48,0,0,6-20.5,3.49-35.07-.21-1.64-.82-5.94-3.49-5.12-1.84.61-3.28,3.89-4.1,5.33A37.18,37.18,0,0,0,419.18,408.1Z"/><path class="cls-8" d="M343.7,444.81a12.57,12.57,0,1,0,13.74-11.28C350.68,432.71,344.52,437.84,343.7,444.81Z"/><path class="cls-13" d="M360.32,450.14s.82-9-8-8.61"/><line class="cls-9" x1="455.89" y1="558.02" x2="455.89" y2="610.52"/><line class="cls-9" x1="332.01" y1="558.02" x2="332.01" y2="610.52"/><rect class="cls-14" x="313.35" y="575.86" width="152.38" height="87.57"/><rect class="cls-5" x="312.74" y="663.23" width="153.82" height="4.51"/><circle class="cls-15" cx="391.69" cy="618.11" r="12.92"/><rect class="cls-3" x="313.35" y="575.86" width="152.38" height="87.57"/><polygon class="cls-16" points="391.49 459.99 396 459.99 395.39 440.1 400.31 460.19 391.49 459.99"/><polyline class="cls-9" points="395.39 440.1 396 459.99 391.49 459.99"/><polygon class="cls-17" points="630.83 643.13 620.78 643.13 620.78 550.84 630.83 550.84 630.83 643.13"/><polygon class="cls-17" points="637.8 646 627.75 644.57 646 553.51 656.05 554.95 637.8 646"/><polygon class="cls-10" points="625.7 645.8 615.65 647.23 598.01 556.17 608.06 554.74 625.7 645.8"/><polygon class="cls-8" points="653.18 654 599.65 654 599.65 600.47 653.18 600.47 653.18 654"/><line class="cls-9" x1="585.09" y1="614.63" x2="640.26" y2="614.63"/><line class="cls-9" x1="609.09" y1="633.08" x2="664.26" y2="633.08"/><line class="cls-9" x1="612.57" y1="639.85" x2="667.74" y2="639.85"/><g class="cls-18"><path class="cls-10" d="M96,423.07h0A17.33,17.33,0,0,1,81.4,403L94.93,315.2A17.35,17.35,0,0,1,115,300.63h0a17.34,17.34,0,0,1,14.56,20.1l-13.53,87.78A17.63,17.63,0,0,1,96,423.07Z"/><path d="M145.18,253.26A99.18,99.18,0,0,0,153,279.51c4.72,10.67,11.49,14.36,22.77,16,3.28.41,6.76.82,9.84.2a23.58,23.58,0,0,0,8-3.69c7-4.72,13.12-10.66,17-18a32.06,32.06,0,0,0,3.28-8.4c.82-4.31.41-8.62-.2-12.93a26,26,0,0,0-2.46-8.61,21.24,21.24,0,0,0-6.57-7.59c-8.4-7.38-19.27-12.92-30.35-11.89-6.77.61-13.12,3.69-19.89,5.12a16.21,16.21,0,0,1-3.28.21c-2.46,0-4.93-.21-6.16,2.26a9.23,9.23,0,0,0-.82,4.1,94.26,94.26,0,0,0,1,17"/><path d="M168.15,196c3.89,4.1,7.79,8.41,11.69,12.51,1.43,1.64,3.07,3.28,3.89,5.33,1.24,3.08,1,6.57.82,9.85A56.42,56.42,0,0,0,186,240.34c1.23,4.72,3.69,9,6.15,13.12a42.67,42.67,0,0,0,9.64,11.28c4.51,3.29,9.85,4.93,15.38,5.95a72.48,72.48,0,0,0,29.74-.82c6.56-1.64,13.54-5.13,17.23-11.28,3.28-5.54,4.31-17.23-.21-22.35,4.93-1.44,9-5.75,9.44-10.87.61-6.77-5.34-12.51-11.28-15.79-6.16-3.08-13.13-4.72-18.46-9s-8.41-10.87-12.72-16.2c-17.63-22.35-32.6-25.43-52.5-23.59-2.46,8-5.54,15.59-8,23.59-1.23,3.9-2.46,8-2.46,12.1-.61-.41.41,0,.21-.41"/><path class="cls-13" d="M193.37,282.38s-17.63,1-28.71,1.64c-4.92.21-8.61.62-9,.62-1,.2.61-23.18,1.23-32.41.2-2.25.2-3.69.2-3.69L186.61,244l6.76,38.35"/><path class="cls-19" d="M155.43,283.41c-.2-5.13,1-23.18,1.64-31h.21c-.82,7.79-2.05,25.84-1.85,31h0"/><path class="cls-10" d="M274.38,386.77c-.2.62-.2,1.44-.41,2.05l-2.87-6.56a1.13,1.13,0,0,0-1.64-.62L252,389.85h0a1.29,1.29,0,0,0-.62,1.64l10.67,24.4c-13.13,12.93-31,4.93-31,4.93l-6.36-31.59-.41-57Z"/><path class="cls-10" d="M151.74,284l-43.07,16.62c-3.89,1.43-8,5.12-8,5.12s-13.12,71.17,7.59,113.42c0,0,45.94-8.41,85.11-41.23l-10.25-15.79-45.33,9-2.46-52.3L151.74,284"/><polyline class="cls-10" points="193.37 277.05 258.39 291.41 240.34 360.11 224.55 367.49 231.72 428 145.18 435.58 125.49 316.22 143.54 290.79 162.41 278.9 176.76 283.41 193.37 277.05"/><polygon class="cls-13" points="176.76 283.41 168.76 300.43 152.97 288.33 148.66 285.05 156.05 267.41 161.38 271.72 176.76 283.41"/><polyline class="cls-13" points="201.37 278.9 185.58 304.12 183.73 300.02 176.76 283.41 190.91 267.41 201.37 278.9"/><path class="cls-13" d="M171,255.11h0A33.7,33.7,0,0,1,142.1,217l3.28-24.2a33.68,33.68,0,0,1,38.15-28.92h0A33.69,33.69,0,0,1,212.45,202l-3.28,24.2C206.5,244.65,189.48,257.77,171,255.11Z"/><path class="cls-13" d="M144.15,200.76s-6.56-1.64-9,2.46-1.64,12.51,6.77,13.94Z"/><path class="cls-13" d="M137.59,206.7s4.51,1.24,5.33,4.11"/><path class="cls-13" d="M211.22,210s6.76.2,8,4.71-1.64,12.51-10.25,11.69Z"/><path class="cls-13" d="M216.14,217.37s-4.72,0-6.36,2.46"/><polygon class="cls-16" points="177.38 230.5 173.48 229.88 176.76 213.27 169.99 229.47 177.38 230.5"/><polyline class="cls-9" points="176.76 213.27 173.48 229.88 177.38 230.5"/><path d="M170.61,164.05c-.41,0-4.92,22.56,41.43,42.65l1.23-29.12c-.21-.2-23.59-16-42.66-13.53Z"/><path d="M144.15,192.76s50.86,7.18,52.3-30.56c.21,0-43.48-12.3-52.3,30.56Z"/><path class="cls-13" d="M173.07,242.18s4.1.42,6.77-1.23"/><polyline class="cls-20" points="261.26 423.48 240.34 408.51 214.29 421.84 219.63 383.9 222.09 366.47 222.5 363.19 251.62 364.42 251.62 365.03 251.82 366.47 254.69 382.88 261.26 423.48"/><path class="cls-7" d="M288.12,327.91a47.38,47.38,0,1,1-47.37-47.37,34,34,0,0,1,4.51.2,47.44,47.44,0,0,1,42.86,47.17Z"/><path class="cls-21" d="M279.51,327.91a38.76,38.76,0,1,0-38.76,38.76,38.86,38.86,0,0,0,38.76-38.76"/><polygon class="cls-22" points="265.15 333.24 249.16 337.14 243.21 352.73 234.6 338.58 217.99 337.96 228.65 325.25 224.34 309.25 239.52 315.61 253.26 306.38 252.23 322.99 265.15 333.24"/><path class="cls-23" d="M201.78,335.91S195,335.5,190.09,339s-7.38,6.15-7,9.43c.61,3.28,2.46,8.41,2.87,11.9s0,6.15-3.08,7.58C180,369.34,172.25,372,172.25,372l5.33,12.92s14.56-5.75,18-8.21c3.28-2.25,10.25-7,10.87-11.28a8.55,8.55,0,0,0-1.44-6.77c-.41-1-.2-2.66,1.85-3.69s6.36-.82,8.41-2.87,1.64-3.48.82-4.1a2.52,2.52,0,0,0-1.85-.41s-.61,0-.2-1c.2-1,.41-2.25-.62-2.66a7,7,0,0,0-2.05-.82s.62-2.26-.61-3.28A3.29,3.29,0,0,0,209,339a22.38,22.38,0,0,0-3.69-2.46c-1-.21-3.49-.62-3.49-.62Z"/><path class="cls-24" d="M195.42,348.63a40.72,40.72,0,0,1,9.85-3.9c2-.62,4.72-1.23,7-.41a2.34,2.34,0,0,1,1.23,1.23c.21.61-.41,1.43-.82,1.85a.87.87,0,1,0,1.23,1.23,3,3,0,0,0,.82-4.11c-.82-1.43-2.46-1.84-3.89-2-4.31-.41-8.82,1.64-12.92,3.28a26.19,26.19,0,0,0-3.49,1.65c-.82.2,0,1.64,1,1.23Z"/><path class="cls-24" d="M191.73,345.34a54.78,54.78,0,0,1,9.85-4.71c2.25-.82,5.33-1.64,7.59-.82,1,.41,1.84,1.43,1,2.46a.87.87,0,0,0,1.23,1.23A2.85,2.85,0,0,0,212,340c-.82-1.43-2.67-2.05-4.1-2.25a18.57,18.57,0,0,0-7.39,1.23,60.25,60.25,0,0,0-6.36,2.87c-1,.61-2.25,1.23-3.28,1.84-1.23.82-.2,2.26.82,1.64Z"/><path class="cls-24" d="M208.76,338.37c-1.65-2.46-4.93-3.28-7.59-3.28-5.54,0-11.9,2.46-15.59,6.56a9.1,9.1,0,0,0-2.87,5.33c-.41,2.06.41,3.7,1,5.75a37.74,37.74,0,0,1,1.65,8.41c.2,2.25.2,4.3-1.85,5.74-3.28,2.25-7.59,3.28-11.28,4.1a.79.79,0,0,0-.62,1c1.85,4.51,3.7,8.81,5.54,13.33.21.41.62.82,1,.61a72.86,72.86,0,0,0,11.69-4.72c6.15-2.87,13.33-6.76,16.61-12.92a9.15,9.15,0,0,0,1-7c-.41-1.23-2.06-2.87-1.65-4.1.62-1.64,3.29-1.85,4.52-2.05a13.28,13.28,0,0,0,5.33-2.05c1.64-1.23,3.49-3.69,1.43-5.54-1.84-1.64-5.53-.82-7.58-.2a39.78,39.78,0,0,0-11.28,5.12c-1,.62,0,2.26,1,1.44a33.06,33.06,0,0,1,9.44-4.51,14.5,14.5,0,0,1,4.1-.82c.82,0,2.25-.41,3.07.2,1.44,1-.61,2.46-1.43,3.08a12.6,12.6,0,0,1-5.33,1.64c-2,.41-4.93,1.43-5.13,3.89,0,1.24.82,2.26,1.43,3.49a6,6,0,0,1-.41,6.15c-3.07,5.75-9.63,9.44-15.38,12.1a80.53,80.53,0,0,1-12.3,4.93,4.33,4.33,0,0,1,1,.61c-1.84-4.51-3.69-8.82-5.53-13.33a4.64,4.64,0,0,1-.62,1,45.78,45.78,0,0,0,9-2.88,9.85,9.85,0,0,0,4.31-2.87,7.58,7.58,0,0,0,1-5.53,33.3,33.3,0,0,0-1.44-7.59c-.41-1.85-1.64-4.1-1.43-5.95.61-4.92,6.56-8.41,10.66-9.84,3.28-1,10-2.26,12.31,1.23,1,1.23,2.66.41,2-.62Z"/><path class="cls-25" d="M82.42,412.41h0a16.76,16.76,0,0,1,9.85-21.74l83.88-31.58a1.91,1.91,0,0,1,2.46,1.23l10.66,27.89a1.91,1.91,0,0,1-1.23,2.46l-83.88,31.58A16.84,16.84,0,0,1,82.42,412.41Z"/><rect class="cls-26" x="183.55" y="358.89" width="3.28" height="29.74" transform="translate(-120.2 89.63) rotate(-20.71)"/><path class="cls-27" d="M259.21,375.7l-2.46,6.56a6.34,6.34,0,0,0,0,3.9,2,2,0,0,0,.82,1c1,.41,10.66,1.85,10.66,1.85l7.18-15.38s1-2.26.61-3.7-4.51-9.63-4.51-9.63a35.71,35.71,0,0,0-2.66-3.7c-.41-.41-4.93-1-7-1.43a4.88,4.88,0,0,0-2.46,0,21.22,21.22,0,0,0-3.89,1.23c-1.23.61-1.44,2.05.61,2.87,1.64.82,5.74,1.23,5.74,1.23s2.26,0,2.67.62a3.51,3.51,0,0,1,.41,1.64s-.21.61-.62.61-3.89-.82-5.74-.61c-1.84.41-3.48.41-3.69,1.23s-.61,1.64.41,2.25a20.85,20.85,0,0,0,2.46,1s.82.2.62.41-3.69.2-4.52,1-2.05,2.47,0,3.29a12.37,12.37,0,0,0,5.13.41s1.44-.21,1,1c-.62,1.64-.82,2.26-.82,2.26Z"/><path class="cls-28" d="M265,375.7a17.3,17.3,0,0,0-2.05-1.64,11,11,0,0,0-3.08-1.85,10.22,10.22,0,0,0-2.46-.2,9.05,9.05,0,0,1-3.28-.41c-.82-.21-1.23-.82-.62-1.44a4.57,4.57,0,0,1,2.67-1.23,23,23,0,0,1,3.9-.21,6.53,6.53,0,0,1,2.87.41c.2,0,.61.41,1,.62.62.41,1,.82,1.64,1.23.62.62,1.44,1,2.06,1.64s1.64-.41,1-1-1.43-1-2.05-1.64c-.82-.62-1.85-1.44-2.87-2.06a7,7,0,0,0-2.87-.41,15.23,15.23,0,0,0-4.31.21,7.13,7.13,0,0,0-3.49,1.23,2.63,2.63,0,0,0-1,2.87c.82,2.05,4.51,1.85,6.15,1.85h1.44c.61.2,1,.61,1.64.82a27.87,27.87,0,0,1,2.87,2.25c.61.41,1.43-.61.82-1Z"/><path class="cls-28" d="M268.64,366.06a21.42,21.42,0,0,0-3.28-2.87,7.36,7.36,0,0,0-3.69-.62,13.38,13.38,0,0,0-4.92.21,2.86,2.86,0,0,0-2.67,2.66c0,2.46,3.69,2.87,5.54,3.08.82.2,1.23-1.23.41-1.23-1-.21-2-.21-3.08-.41-.61-.21-1.43-.62-1.43-1.23,0-1,1.43-1.23,2.25-1.44a15.56,15.56,0,0,1,4.31,0,6,6,0,0,1,2.66.41,9.58,9.58,0,0,1,3.08,2.67c.41.41,1.44-.41.82-1.23Z"/><path class="cls-25" d="M278.28,390.26C274,404,268,412.2,261.87,416.92l-8.41-26.87a1.41,1.41,0,0,1,.82-1.64h0l19.9-6.15a1.41,1.41,0,0,1,1.64.82Z"/><polygon class="cls-13" points="274.38 382.26 254.49 388.41 253.46 384.93 273.36 378.77 274.38 382.26"/></g><path class="cls-8" d="M690.71,285.87H550.43a18,18,0,0,1-18-18.05V150.31a18,18,0,0,1,18-18.05H690.71a18,18,0,0,1,18,18.05V267.82A18,18,0,0,1,690.71,285.87Z"/><path class="cls-10" d="M668.56,208.14a47.58,47.58,0,1,1-95.16,0,46.39,46.39,0,0,1,3.69-18.46L621,208.14l-2.25-47.37H621A47.3,47.3,0,0,1,668.56,208.14Z"/><path class="cls-15" d="M614.42,153.18a47.3,47.3,0,0,0-35.07,18,46.39,46.39,0,0,0-6.56,11.08l43.89,18.46Z"/><path class="cls-22" d="M251.41,651.54H175.53a7.35,7.35,0,0,1-7.38-7.38v-11.9a7.35,7.35,0,0,1,7.38-7.38h75.88Z"/><rect class="cls-29" x="169.38" y="633.29" width="82.04" height="1.44"/><rect class="cls-29" x="169.38" y="637.59" width="82.04" height="1.44"/><rect class="cls-29" x="169.38" y="646.21" width="82.04" height="1.44"/><rect class="cls-29" x="169.38" y="628.98" width="82.04" height="1.44"/><rect class="cls-29" x="169.38" y="641.9" width="82.04" height="1.44"/><path class="cls-10" d="M251.41,653H174.3a7.71,7.71,0,0,1-7.59-7.59V631.24a7.71,7.71,0,0,1,7.59-7.59h77.11v2.67H174.3a5,5,0,0,0-4.92,4.92v14.15a5,5,0,0,0,4.92,4.92h77.11Z"/></svg>