<svg id="图层_1" data-name="图层 1" xmlns="http://www.w3.org/2000/svg" viewBox="0 0 800 800"><defs><style>.cls-1{fill:#2d2d2d;}.cls-1,.cls-12,.cls-13,.cls-14,.cls-15,.cls-16,.cls-17,.cls-2,.cls-4,.cls-5,.cls-6,.cls-8{stroke:#000;stroke-width:1.5px;}.cls-1,.cls-12,.cls-13,.cls-14,.cls-15,.cls-17,.cls-2,.cls-5{stroke-miterlimit:10;}.cls-2,.cls-3{fill:#f2f2f2;}.cls-11,.cls-4,.cls-5,.cls-6{fill:#fff;}.cls-16,.cls-4,.cls-6,.cls-8{stroke-linecap:round;stroke-linejoin:round;}.cls-4{opacity:0.8;isolation:isolate;}.cls-7{fill:#dbdbdb;}.cls-17,.cls-8{fill:none;}.cls-16,.cls-9{fill:#40adff;}.cls-10{fill:#1a2e35;}.cls-12{fill:#ffc609;}.cls-13{fill:#ff844d;}.cls-14{fill:#ffaeae;}.cls-15{fill:#7cc996;}</style></defs><rect class="cls-1" x="536.56" y="175.26" width="130.64" height="6.33"/><rect class="cls-2" x="562.48" y="156.08" width="130.64" height="6.33"/><circle class="cls-3" cx="217.92" cy="210.37" r="65.73"/><path class="cls-4" d="M613.51,238.54v268c0,8-7.14,14.49-15.92,14.49h-395c-8.78,0-15.92-6.53-15.92-14.49v-268c0-8,7.14-14.49,15.92-14.49h395C606.37,224.05,613.51,230.58,613.51,238.54Z"/><path class="cls-5" d="M492.47,534.92l33.68,38.17,6.53-26.53,26.53,18.57-7.14,29.8c-1.84,7.76-4.49,14.9-12,17.56-17.15,6.12-30-13.07-38.79-24.9-7.34-10-15.31-21.23-22.45-31.44"/><path class="cls-6" d="M478.79,556c-1.43-1.23-5.92-5.11-7.14-6.53L468,545.33s1.84-2.85.61-3.26c0,0,.62,3.47-1.83,4.08-2,.41-7.35-4.69-9.8-7.14a3.89,3.89,0,0,1-1-3.88,2,2,0,0,1,1.63-1.43s-2.45-3.88,0-6.74c0,0-2.45-3.47.41-6.12,0,0-1.22-4.9,2.65-6.53,2.25-.82,18.78,3.47,18.78,3.47s-4.08-9-4.49-11.64c-.41-2.45,2.25-4.9,2.25-4.9s7.35,10.82,9.18,14.5c1.43,2.65,6.54,13.26,7.56,21"/><path class="cls-5" d="M211.19,496.14c-9-.82-28.37-14.9-32.46-26.54-.2-.81,2.05-8.36,4.5-17.55a172,172,0,0,0,3.87-17.76c.21-1.22,3.88,1.64,3.88,1.64l7.35,3.06,24.09,10.2s-5.72,11.64-7.35,21.84a9.71,9.71,0,0,0-.21,2.45C215.27,473.69,211.19,496.14,211.19,496.14Z"/><path class="cls-7" d="M214.25,473.07v.41a27.15,27.15,0,0,1-3.88-.41c-24.7-4.69-22.45-36.53-22.45-36.53l9.59,2,24.09,10.2s-5.72,11.64-7.35,21.85Z"/><path class="cls-5" d="M216.29,465.73h.21a31.65,31.65,0,0,0,32.25-32.05l-.41-27.56a25.86,25.86,0,0,0-28.17-25.72h-.41c-15.92-.2-31.84,12.46-32.25,28.38l1,29.39A28.44,28.44,0,0,0,216.29,465.73Z"/><path class="cls-8" d="M219,438.17a17,17,0,0,0,9.38,4.29"/><polygon class="cls-7" points="230.17 433.88 233.64 433.48 230.78 418.98 236.7 433.07 230.17 433.88"/><polyline class="cls-8" points="230.78 418.98 233.64 433.48 230.17 433.88"/><path d="M203.23,392.86h0a12.83,12.83,0,0,0-5.31,8.16v.41c-.82,4.69-.82,9.39-1.84,14.08-.81,4.7-2.65,9.39-6.32,12.45-1.43,1.23-4.09,2.05-5.11.41a4,4,0,0,1-.41-2.24c-.4-11.23-3.06-21.44-2.65-33.27a10.39,10.39,0,0,1,4.49-8c2.45-1.63,5.72-3.47,8.37-2s6.13,6.74,8.17,9"/><path d="M192.82,386.53c-3.27-4.08,3.47-11.43,8.78-13.88s12.85-.61,18.57.61c3.67.82,7.14,1.84,10.82,1.43a28.81,28.81,0,0,0,6.94-2.65,20.93,20.93,0,0,1,6.94-2.25,6.55,6.55,0,0,1,6.33,3.06c1.22,2.25.2,5.31-2.25,5.92,2.86-2,7.55-.41,8.57,3.06.82,3.47-2.24,7.35-5.92,6.94,1.43-1.43,4.09.41,4.09,2.25s-1.64,3.67-3.27,4.69c-4.49,2.66-10,2.66-14.9,1.43s-9.8-3.06-14.7-4.28-13.26-3.27-18-1c-3.47,1.63-5.31,6.12-7.35,5.51a6.41,6.41,0,0,1-4.08-4.7c-.82-1.84-.61-4.08-.61-6.12"/><path class="cls-5" d="M177.1,423.27a9.58,9.58,0,1,0,10.82-8.17A9.49,9.49,0,0,0,177.1,423.27Z"/><path class="cls-6" d="M189.35,427.76s1-6.94-5.72-6.74"/><path class="cls-6" d="M132,306.92c.61-.2,3.06,19.6,1.63,22.05-1.22,2.65-9.59,8.77-13.27,10.2-3.06,1.23-7.75,4.9-8.77,6.53l-21.64-4.49,4.9-11.84-.61-14.9a17.06,17.06,0,0,1,2-9c1.63-2.86,3.88-5.51,6.33-5.1a4.81,4.81,0,0,1,4.08,3.06s4.08-3.67,5.51.41c0,0,4.9-3.47,7.15,1.22,0,0,5.51-3.26,7.14,4.29l.61,5.31S126.48,308.55,132,306.92Z"/><path class="cls-6" d="M127.09,314.68a21.08,21.08,0,0,1,.41,2.45,41.44,41.44,0,0,1,.61,6.12v.41h-.41a24.28,24.28,0,0,0-3.26.82,22.39,22.39,0,0,0-7.35,4.08"/><path class="cls-8" d="M106.88,303.45c.21,1.43,1.43,6.12,1.43,8v3.06a7.2,7.2,0,0,1-1.22,3.27,4.32,4.32,0,0,1-6.33.2,3.66,3.66,0,0,1-.82-2.85,4.39,4.39,0,0,1,.82-1.23c.2-.2.41-.61.61-.82.61-1.22.21-2.44.21-3.26"/><path class="cls-8" d="M112.19,303.86c.82,2,2.65,7.14,2.25,10.61A8.14,8.14,0,0,1,112.6,319a4.07,4.07,0,0,1-3.67,1.43,3.25,3.25,0,0,1-2.25-1.43"/><path class="cls-8" d="M119.54,304.88c.2,0,.41,1.22,1,3.06.2,1,.61,2,.82,3.47a11.26,11.26,0,0,1,0,4.49,8.14,8.14,0,0,1-2.25,3.88,4.62,4.62,0,0,1-3.47.82,3.19,3.19,0,0,1-2-1.23"/><path class="cls-8" d="M126.89,310a51.87,51.87,0,0,1,.61,8.78c0,1.63-.82,3.67-2.45,4.08a3.44,3.44,0,0,1-3.67-1.63,10.54,10.54,0,0,1-1-2.45"/><path class="cls-6" d="M348.36,509.2S341,520,339.17,523.7c-1.43,2.85-7.35,15.1-7.75,23.06l14.69,16.94s6.53-4.69,8-6.32l3.68-4.09s-1.84-2.85-.62-3.26c0,0-.61,3.47,1.84,4.08,2,.41,7.35-4.69,9.8-7.14a3.89,3.89,0,0,0,1-3.88,2,2,0,0,0-1.63-1.43s2.45-3.88,0-6.74c0,0,2.45-3.47-.41-6.12,0,0,1.22-4.9-2.65-6.53-2.25-.82-18.78,3.47-18.78,3.47s4.08-9,4.49-11.64C351,511.65,348.36,509.2,348.36,509.2Z"/><path class="cls-9" d="M329,575.54s-24.7,37-30.42,41.44c-4.9,3.67-13.67,18.37-23.47,14.49-4.9-2-10.41-20-14.7-37.15,3.88,31.64,8.37,61,8.37,61H151.59l-13.68-85.52-14.08-55.52S66.88,436.13,63.2,422.05c-3.47-14.09,28-89.82,28-89.82l27.14,13.47-11.22,63.69,54.5,54.3L229.76,490,252,496.75a17.86,17.86,0,0,1,10.62,9C273,527,282.22,584.12,282.22,584.12L311,553.5Z"/><path class="cls-9" d="M174.86,470.42s-1.43-9.39,1.63-8c.2,0,43.47,13.68,43.27,16.74-.2,2.65.21,10.61.21,10.61H191.39Z"/><path class="cls-10" d="M278.75,605.14c-.2,0,.61-4.9,1.64-11,1.22-6.13,2.24-10.82,2.45-10.82s-.62,4.9-1.64,11C280,600.24,279,605.14,278.75,605.14Z"/><path class="cls-9" d="M259.77,623.51l5.1,5.51c6.94,7.35,18.17,8.37,24.91,2l65.11-62.66a2,2,0,0,0,0-2.86l-27.35-29.39a2,2,0,0,0-2.86-.21l-65.11,62.67C252.63,604.94,252.83,616.16,259.77,623.51Z"/><path class="cls-9" d="M77.08,433.48l7.15,2.24c9.79,2.86,19.8-1.63,22.24-10L130,342.44a2.23,2.23,0,0,0-1.43-2.45L89.94,328.56a2.12,2.12,0,0,0-2.65,1.22L63.81,413.06C61.57,421.23,67.28,430.62,77.08,433.48Z"/><line class="cls-8" x1="263.24" y1="613.92" x2="257.32" y2="563.91"/><path class="cls-11" d="M709.65,376.32h0l1.22-4.08c2.25-5.51,5.92-2.86,6.33-2.45h0c2.66-3.67,6.13,0,6.13,0,1.63-3.06,4.49.41,4.49.41a4.16,4.16,0,0,1,3.67-1.84c2,0,3.47,2.45,4.29,5.1a13.74,13.74,0,0,1,.41,7.56l-2.05,12.24v21l-23.06-1.23a7.13,7.13,0,0,1,.2-1.83,22,22,0,0,1,.41-3.07c.41-3.67.41-8.36-1-9.38-2.65-1.64-8-9.39-8.57-11.64s4.29-18,4.69-17.76c2.86,1.43,3.06,3.88,3.06,5.51a4.08,4.08,0,0,0-.2,1.43Z"/><path class="cls-11" d="M709.65,376.32a15.08,15.08,0,0,1-.61,1.84,37.34,37.34,0,0,0-1.43,4.9v.2h.2a6.81,6.81,0,0,1,2.45,1.23,17.19,17.19,0,0,1,5.31,4.28Z"/><path class="cls-11" d="M727.82,370.2c-.41,1.22-2,4.69-2.45,6.33a10,10,0,0,0-.41,2.65,7.41,7.41,0,0,0,.41,2.86,3.51,3.51,0,0,0,5.1,1,2.62,2.62,0,0,0,1-2.25,1.54,1.54,0,0,0-.41-1,1.56,1.56,0,0,1-.41-.81,5.31,5.31,0,0,1,.41-2.66Z"/><path class="cls-11" d="M723.33,369.79c-1,1.43-3.27,5.31-3.47,8.16a5,5,0,0,0,.81,3.88,3.1,3.1,0,0,0,2.86,1.64,2.72,2.72,0,0,0,2-.82Z"/><path class="cls-11" d="M717.2,369.59A10.48,10.48,0,0,0,716,372c-.41.81-.82,1.63-1.23,2.65a9.69,9.69,0,0,0-.81,3.67,5.11,5.11,0,0,0,1.22,3.47,4,4,0,0,0,2.86,1.23,3.26,3.26,0,0,0,1.84-.61Z"/><path class="cls-11" d="M710.47,372.44a57.14,57.14,0,0,0-1.84,7.15,3.17,3.17,0,0,0,1.43,3.67,2.76,2.76,0,0,0,3.27-.81,7.11,7.11,0,0,0,1.22-1.84Z"/><path class="cls-5" d="M710.87,410.82,706,472.46l-48,31s6.94,42.25,7.35,43.07l58.78-45.11a30.84,30.84,0,0,0,12.25-23.27l-2-65.52"/><path class="cls-6" d="M710.87,412.66a6.83,6.83,0,0,1,.21-1.84,20.31,20.31,0,0,1,.41-3.06c.41-3.68.61-8-.61-9.19-2.25-2.24-8-9.39-8.58-11.63s4.29-18,4.7-17.76a5.51,5.51,0,0,1,3.06,5.51,4.31,4.31,0,0,1-.21,1.22"/><path class="cls-6" d="M709.65,376.32h0l1.22-4.08c2.25-5.51,5.92-2.86,6.33-2.45h0c2.66-3.67,6.13,0,6.13,0,1.63-3.06,4.49.41,4.49.41a4.16,4.16,0,0,1,3.67-1.84c2,0,3.47,2.45,4.29,5.1a13.74,13.74,0,0,1,.41,7.56l-2.05,12.24v20.21"/><path class="cls-6" d="M709.65,376.32a15.08,15.08,0,0,1-.61,1.84,37.34,37.34,0,0,0-1.43,4.9v.2h.2a6.81,6.81,0,0,1,2.45,1.23,17.19,17.19,0,0,1,5.31,4.28"/><path class="cls-8" d="M727.82,370.2c-.41,1.22-2,4.69-2.45,6.33a10,10,0,0,0-.41,2.65,7.41,7.41,0,0,0,.41,2.86,3.51,3.51,0,0,0,5.1,1,2.62,2.62,0,0,0,1-2.25,1.54,1.54,0,0,0-.41-1,1.56,1.56,0,0,1-.41-.81,5.31,5.31,0,0,1,.41-2.66"/><path class="cls-8" d="M723.33,369.79c-1,1.43-3.27,5.31-3.47,8.16a5,5,0,0,0,.81,3.88,3.1,3.1,0,0,0,2.86,1.64,2.72,2.72,0,0,0,2-.82"/><path class="cls-8" d="M717.2,369.59A10.48,10.48,0,0,0,716,372c-.41.81-.82,1.63-1.23,2.65a9.69,9.69,0,0,0-.81,3.67,5.11,5.11,0,0,0,1.22,3.47,4,4,0,0,0,2.86,1.23,3.26,3.26,0,0,0,1.84-.61"/><path class="cls-8" d="M710.47,372.44a57.14,57.14,0,0,0-1.84,7.15,3.17,3.17,0,0,0,1.43,3.67,2.76,2.76,0,0,0,3.27-.81,7.11,7.11,0,0,0,1.22-1.84"/><path d="M579.83,521.25c-14.08,1.22-26.54-9.19-28.78-15.31s.2-13.68,5.1-17.76c4.08-3.27,9.8-4.9,11.84-9.8,3.47-8.37-8.37-17.76-4.08-25.92,3.06-5.72,11.63-5.51,15.72-10.62,3.67-4.28,2.24-10.81,3.47-16.32,1.83-9.39,11.43-16.13,21-16.33s18.78,4.69,25.31,11.63,11,15.72,14.9,24.49c3.06,7.15,6.12,14.91,4.7,22.46-2,11.43-12.46,19-22.25,24.9-15.92,9.8-28.38,30.21-46.95,28.58Z"/><path class="cls-9" d="M679,640.45c3.47,9.19,4.08,12.25,3.27,14.9H564.93c-1.84-9,2.45-19,3.88-23.67v-.21c1.63-5.71,1.43-14.9-.41-20.61-1.84-6.74-8.78-22.87-11.43-37.15a53.89,53.89,0,0,1-1-7.76v-2.86a177.09,177.09,0,0,1,1.22-20.21c1-9.39,2.65-18.57,4.08-26.12,2-10.21,3.68-17.35,3.68-17.35l29.19-1h.81l20.41,3.06,14.9,2.24h.62l12.24.61a11.07,11.07,0,0,0,2.66-.2l7.55-4.08,2.25-1.23,23.67-12.86.82,3.27,3.06,12,6.74,26.54.81,3.26-28,19.19c-7.35,5.72-6.12,18.58-4.08,27.56,4.08,18.16,7.34,24.49,12,38.37C674.34,627,677,635.76,679,640.45Z"/><path class="cls-9" d="M672.91,634.74c0,.2,0,.2-.21.2.21,0,.21,0,.21-.2Z"/><path class="cls-9" d="M530,548.6s13.88-35.72,19.8-41.44c5.31-5.3,15.11-8,15.11-8l-8,67.16Z"/><path class="cls-5" d="M640.86,438a28.68,28.68,0,0,0-25.72-32.05c-15.31-1.43-28.78,10-31,25.11-2,13.26-3.68,26.74-3.68,31.63.21,14.7,8.78,20.42,12.25,22a26.45,26.45,0,0,0,3.88,1h0v.2l-3.27,16.95c-1.43,11,4.7,20.82,15.72,22.45s19.8-6.94,21.43-18l4.9-32.46Z"/><path class="cls-7" d="M597.79,485.53s9.39,2.24,22.46-3.27c0,0-5.72,12-23.48,7.76Z"/><path class="cls-5" d="M595.14,485.53s26.33,5.51,32.66-15.11"/><path d="M661.07,478.38c.82-2,1.63-4.08,2-5.31,1.63-4.89,1.63-12.85-.61-17.55-2.25-4.29-7.76-8.57-9.39-12.86-2.45-6.53-.61-8.16-2.45-21.64-1-7.75-11.23-18.37-22-16.73a22,22,0,0,0-12.85-6.74,30.72,30.72,0,0,0-31.23,12.86c-3.27,4.9-5.11,11.43-3.27,17.15,3.06,4.69,12.65,1.83,18.57-1.43,6.13,4.08,14.7,2.24,19-3.88a6.33,6.33,0,0,0,4.69,2.45c.21,1.63.41,3.06.61,4.08.62,4.29,6.94,10.41,6.94,14.7.21,8-6.12,8.37-7.75,16.33-1.23,5.92,3.26,9.39,4.08,15.31.2.81-10.62,20.41,3.27,28.57a2.56,2.56,0,0,1,.81.82,14.51,14.51,0,0,1,1.63,18.37c-3.67,5.51-7.55,14.29,1.84,19.19,0,0,2.65-8.58,6.53-10.21,9.6-4.28,19.6-5.1,15.52-26.13C652.7,484.91,658,487.36,661.07,478.38Z"/><path class="cls-6" d="M605.75,462.05s-2.24,2.66-5.1,3.06"/><polygon class="cls-7" points="598.2 455.73 595.14 454.5 601.26 441.03 592.28 453.27 598.2 455.73"/><polyline class="cls-8" points="601.26 441.03 595.14 454.5 598.2 455.73"/><path class="cls-8" d="M565.74,603.3a13.55,13.55,0,0,0-.81-2c-.61-1.83-1.63-4.28-2.65-7.35a127.9,127.9,0,0,1-6.54-25.31,70.69,70.69,0,0,1-.41-14.49c.41-4.49,1.23-8.37,1.84-11.63s1.23-5.92,1.43-7.76a15.62,15.62,0,0,1,.41-2"/><path class="cls-12" d="M385.71,555.74c2.86,0,4.9-.2,5.1-.2l-.4-5.51c-.21,0-12.86.81-19.4-1.84-5.3-2-11-16.74-13.47-29.8-1.63-8.17-.81-10.82,0-11.64.21-.2.61-.61,2-.61h5.11c1.43,4.49,3.87,9,7.35,9h10.2v-5.51h-9.8c-.81-.81-2.24-3.88-3.06-6.94l-.61-2h-9.19a7.62,7.62,0,0,0-6.32,2.66c-2.45,2.85-2.66,8-1,16.32a99,99,0,0,0,5.92,19.6c3.26,8,7.14,12.66,11,14.29C373.87,555.54,381,555.74,385.71,555.74Z"/><path class="cls-12" d="M439.19,555.74c-2.86,0-4.9-.2-5.1-.2l.41-5.51c.2,0,12.86.81,19.39-1.84,5.3-2,11-16.74,13.47-29.8,1.63-8.17.82-10.82,0-11.64-.2-.2-.61-.61-2-.61h-5.1c-1.43,4.49-3.88,9-7.35,9H442.66v-5.51h9.8c.81-.81,2.24-3.88,3.06-6.94l.61-2h9.19a7.64,7.64,0,0,1,6.33,2.66c2.45,2.85,2.65,8,1,16.32a99.7,99.7,0,0,1-5.92,19.6c-3.27,8-7.15,12.66-11,14.29C451.23,555.54,444.09,555.74,439.19,555.74Z"/><polygon class="cls-12" points="383.47 611.47 383.47 620.65 441.64 620.65 441.64 611.47 415.92 599.42 415.92 566.36 408.98 566.36 408.98 599.42 383.47 611.47"/><rect class="cls-13" x="404.69" y="567.17" width="15.51" height="6.74"/><path class="cls-12" d="M376.93,497s2.66,44.9,9.8,57.35,22.25,13.48,25.72,13.48,18.58-1,25.72-13.48S448,497,448,497Z"/><polygon class="cls-11" points="412.45 511.25 416.33 519 424.9 520.23 418.78 526.15 420.21 534.72 412.45 530.64 404.9 534.72 406.33 526.15 400.2 520.23 408.78 519 412.45 511.25"/><path class="cls-8" d="M457.36,526.55s.81,1,2.24,2.66a50.28,50.28,0,0,0,5.72,5.3,6.61,6.61,0,0,0,2,1.23,2.88,2.88,0,0,0,3.67-3.47,2.52,2.52,0,0,0-1.63-1.84"/><polygon class="cls-11" points="465.93 536.35 461.24 534.92 461.03 531.66 466.13 535.54 465.93 536.35"/><polygon class="cls-11" points="468.38 530.84 463.69 529.62 463.48 526.35 468.58 530.23 468.38 530.84"/><path class="cls-6" d="M478.79,556c-1.43-1.23-5.92-5.11-7.14-6.53L468,545.33a5.82,5.82,0,0,0,.61-1.22"/><path class="cls-6" d="M469,542.27l-.2-.2s.61,3.47-1.84,4.08c-2,.41-7.35-4.7-9.8-7.14a3.89,3.89,0,0,1-1-3.88,2,2,0,0,1,1.64-1.43h0"/><path class="cls-6" d="M457.56,533.9s.82,1,2,2.25c.82.81,1.63,1.43,2.45,2.24,1,.82,1.84,1.84,3.06,2.66a4.21,4.21,0,0,0,2.25.61,2,2,0,0,0,1.84-1.43,6,6,0,0,0,.41-1.84,7.43,7.43,0,0,0-.82-2.24"/><path class="cls-6" d="M457.36,526.55s.81,1,2.24,2.66a50.28,50.28,0,0,0,5.72,5.3,6.61,6.61,0,0,0,2,1.23,2.88,2.88,0,0,0,3.67-3.47,2.52,2.52,0,0,0-1.63-1.84"/><path class="cls-6" d="M458.17,520.63s1,1.23,2.86,3.07c1,1,2,2,3.27,3.06a18.87,18.87,0,0,0,2,1.84A4.73,4.73,0,0,0,469,530a2.59,2.59,0,0,0,2.66-1.42,2.94,2.94,0,0,0,.4-2.86,16.06,16.06,0,0,0-1.43-2l-1.42-1.43c-1.84-1.64-3.07-2.86-3.27-2.66"/><path class="cls-6" d="M354.89,556.36c1.43-1.64,2.65-2.86,2.65-2.86s-1.83-2.86-.61-3.27c0,0-.61,3.47,1.84,4.08,2,.41,7.35-4.69,9.79-7.14a3.89,3.89,0,0,0,1-3.88,2.06,2.06,0,0,0-1.43-1.43"/><path class="cls-6" d="M368.16,541.86s-.82,1-2,2.25c-.82.82-1.64,1.43-2.45,2.24A40,40,0,0,1,360.6,549a4.07,4.07,0,0,1-2.24.61,2,2,0,0,1-1.84-1.43,6,6,0,0,1-.41-1.84,7.43,7.43,0,0,1,.82-2.24"/><path class="cls-11" d="M368,538.19s.82,2.86-3.26,5.31c-4.49,2.65-5.92.2-6.33-.21s6.53-6.12,6.53-6.12S368.57,536.15,368,538.19Z"/><path class="cls-11" d="M365.71,532.07s.81,2.85-3.27,5.3c-4.49,2.66-5.92.21-6.33-.2s6.54-6.13,6.54-6.13S366.32,530,365.71,532.07Z"/><path class="cls-6" d="M368.36,534.51s-.81,1-2.24,2.66a51.18,51.18,0,0,1-5.72,5.31,6.79,6.79,0,0,1-2,1.22,2.88,2.88,0,0,1-3.68-3.47,2.55,2.55,0,0,1,1.64-1.84"/><path class="cls-6" d="M367.55,528.6s-1,1.22-2.86,3.06c-1,1-2,2-3.27,3.06a18.87,18.87,0,0,1-2,1.84,4.73,4.73,0,0,1-2.65,1.42,2.59,2.59,0,0,1-2.66-1.42,2.94,2.94,0,0,1-.4-2.86,17.14,17.14,0,0,1,1.42-2l1.43-1.43c1.84-1.63,3.07-2.86,3.27-2.66"/><path class="cls-5" d="M439.6,433.48H311.21a17.33,17.33,0,0,1-17.35-17.35V330.6a17.33,17.33,0,0,1,17.35-17.35H439.6A17.34,17.34,0,0,1,457,330.6v85.53A17.34,17.34,0,0,1,439.6,433.48Z"/><path class="cls-14" d="M407.35,328a4.9,4.9,0,1,1-4.9-4.9A5,5,0,0,1,407.35,328Z"/><circle class="cls-5" cx="418.37" cy="327.95" r="4.9"/><circle class="cls-15" cx="433.48" cy="327.95" r="4.9"/><path class="cls-5" d="M435.11,420.21H315.49a9.14,9.14,0,0,1-9.18-9.19V356.73a9.14,9.14,0,0,1,9.18-9.19H435.11a9.14,9.14,0,0,1,9.18,9.19V411A9.14,9.14,0,0,1,435.11,420.21Z"/><path class="cls-5" d="M488.79,402.25H360.4a17.34,17.34,0,0,1-17.35-17.36V299.37A17.34,17.34,0,0,1,360.4,282H488.79a17.33,17.33,0,0,1,17.35,17.35v85.52A17.47,17.47,0,0,1,488.79,402.25Z"/><path class="cls-14" d="M456.54,296.51a4.9,4.9,0,1,1-4.9-4.9A4.84,4.84,0,0,1,456.54,296.51Z"/><circle class="cls-5" cx="467.56" cy="296.51" r="4.9"/><circle class="cls-15" cx="482.67" cy="296.51" r="4.9"/><path class="cls-16" d="M484.51,389H364.89a9.15,9.15,0,0,1-9.18-9.19V325.5a9.14,9.14,0,0,1,9.18-9.19H484.51a9.14,9.14,0,0,1,9.18,9.19v54.29A9.42,9.42,0,0,1,484.51,389Z"/><polyline class="cls-17" points="402.04 337.33 385.92 354.28 402.04 369.99"/><polyline class="cls-17" points="447.36 337.33 463.28 354.28 447.36 369.99"/><line class="cls-17" x1="438.37" y1="330.4" x2="411.02" y2="375.1"/><polyline class="cls-8" points="751.29 655.35 677.19 655.35 553.7 655.35 48.71 655.35"/></svg>