<svg id="图层_1" data-name="图层 1" xmlns="http://www.w3.org/2000/svg" xmlns:xlink="http://www.w3.org/1999/xlink" viewBox="0 0 800 800"><defs><style>.cls-1,.cls-17,.cls-9{fill:none;}.cls-2,.cls-8{fill:#ffc609;}.cls-3{fill:#5576b5;}.cls-16,.cls-4{fill:#f2f2f2;}.cls-5{clip-path:url(#clip-path);}.cls-10,.cls-11,.cls-6{fill:#fff;}.cls-11,.cls-15,.cls-16,.cls-17,.cls-18,.cls-6,.cls-8,.cls-9{stroke:#000;stroke-width:1.5px;}.cls-6,.cls-9{stroke-linecap:round;stroke-linejoin:round;}.cls-7{fill:#c1c1c1;}.cls-11,.cls-15,.cls-16,.cls-17,.cls-18,.cls-8{stroke-miterlimit:10;}.cls-12{clip-path:url(#clip-path-2);}.cls-13{fill:#40adff;}.cls-14{fill:#dbdbdb;}.cls-18{fill:#ddd;}</style><clipPath id="clip-path"><path class="cls-1" d="M400,331.39a26.31,26.31,0,0,0-26.37,26.37V610.1l54.53-78.05H661.25a26.31,26.31,0,0,0,26.37-26.37V357.77a26.31,26.31,0,0,0-26.37-26.38Z"/></clipPath><clipPath id="clip-path-2"><path class="cls-1" d="M380,115.4a26.33,26.33,0,0,1,26.38,26.38V394.12l-54.54-78.06H118.79a26.31,26.31,0,0,1-26.37-26.37V141.78a26.31,26.31,0,0,1,26.37-26.37Z"/></clipPath></defs><circle class="cls-2" cx="139.46" cy="470.75" r="80.19"/><circle class="cls-3" cx="682.28" cy="331.39" r="58.45"/><path class="cls-4" d="M400,331.39a26.31,26.31,0,0,0-26.37,26.37V610.1l54.53-78.05H661.25a26.31,26.31,0,0,0,26.37-26.37V357.77a26.31,26.31,0,0,0-26.37-26.38Z"/><g class="cls-5"><ellipse class="cls-6" cx="465.58" cy="445.44" rx="17.11" ry="22.1"/><ellipse class="cls-6" cx="610.64" cy="445.44" rx="17.11" ry="22.1"/><rect class="cls-7" x="517.97" y="497.84" width="44.55" height="12.12"/><path class="cls-6" d="M590.32,497.84H486.25a24.8,24.8,0,0,1-24.95-24.95V417.64a24.8,24.8,0,0,1,24.95-24.95H590.32a24.8,24.8,0,0,1,24.95,24.95v55.25A25,25,0,0,1,590.32,497.84Z"/><path class="cls-3" d="M587.47,477.52H489.1a9.59,9.59,0,0,1-9.62-9.62V423a9.58,9.58,0,0,1,9.62-9.62h98.37A9.58,9.58,0,0,1,597.1,423V467.9A9.59,9.59,0,0,1,587.47,477.52Z"/><circle class="cls-8" cx="509.77" cy="445.44" r="7.84"/><circle class="cls-8" cx="566.44" cy="445.44" r="7.84"/><rect class="cls-7" x="536.51" y="365.25" width="7.49" height="23.52"/><path class="cls-6" d="M551.83,384.85H528.66a7.92,7.92,0,0,0-7.84,7.84H560A8.49,8.49,0,0,0,551.83,384.85Z"/><circle class="cls-8" cx="540.07" cy="360.97" r="12.12"/><path class="cls-6" d="M608.14,661.07H468.43a19.78,19.78,0,0,1-19.6-19.6V529.56A19.78,19.78,0,0,1,468.43,510H608.14a19.78,19.78,0,0,1,19.61,19.61V641.47A19.54,19.54,0,0,1,608.14,661.07Z"/><path class="cls-3" d="M604.58,596.92H471.28A10.35,10.35,0,0,1,461,586.58V532.05a10.34,10.34,0,0,1,10.33-10.33h133.3a10.35,10.35,0,0,1,10.34,10.33v54.53A10.35,10.35,0,0,1,604.58,596.92Z"/><path class="cls-4" d="M604.94,650.74H471.64A10.35,10.35,0,0,1,461.3,640.4v-11A10.35,10.35,0,0,1,471.64,619h133.3a10.34,10.34,0,0,1,10.33,10.33v11A10.35,10.35,0,0,1,604.94,650.74Z"/><path class="cls-6" d="M627.75,554.86h0v-31h0a8.67,8.67,0,0,1,8.55,8.56v13.9A8.67,8.67,0,0,1,627.75,554.86Z"/><path class="cls-6" d="M636.3,532.41s68.43,1.07,68.43,89.1H690.12s3.56-66.65-53.82-75.2v-13.9Z"/><line class="cls-9" x1="648.06" y1="548.8" x2="651.63" y2="534.9"/><line class="cls-9" x1="661.25" y1="555.22" x2="669.09" y2="543.1"/><line class="cls-9" x1="671.94" y1="564.84" x2="683.35" y2="554.86"/><line class="cls-9" x1="680.14" y1="576.96" x2="693.68" y2="569.83"/><line class="cls-9" x1="685.84" y1="590.86" x2="700.81" y2="588.01"/><line class="cls-9" x1="689.05" y1="605.83" x2="704.02" y2="605.83"/><path class="cls-8" d="M694.75,593.35h0a11.87,11.87,0,0,1,11.77,11.77v16H683v-16A11.87,11.87,0,0,1,694.75,593.35Z"/><path class="cls-3" d="M698.32,611.17v5.35a17,17,0,0,1,11.4,15.68,16.46,16.46,0,0,1-11.4,15.68v5.35a22.14,22.14,0,0,0,16.75-21.38C714.71,622.22,707.58,613.67,698.32,611.17Z"/><path class="cls-3" d="M691.55,611.17v5.35a17,17,0,0,0-11.41,15.68,16.46,16.46,0,0,0,11.41,15.68v5.35a22.14,22.14,0,0,1-16.76-21.38C674.79,622.22,681.92,613.67,691.55,611.17Z"/><circle class="cls-6" cx="694.75" cy="622.58" r="11.76"/><circle class="cls-3" cx="694.75" cy="622.58" r="6.42"/><path class="cls-10" d="M467.36,613.31a5,5,0,0,1,0-10h141.5a5,5,0,0,1,0,10Z"/><path d="M608.5,605.83a2.5,2.5,0,1,1,0,5H467a2.5,2.5,0,1,1,0-5H608.5m0-5.35H467a7.84,7.84,0,1,0,0,15.68H608.5a7.9,7.9,0,0,0,7.84-7.84,7.69,7.69,0,0,0-7.84-7.84Z"/></g><polyline class="cls-9" points="373.63 610.11 428.16 532.05 656.62 532.05"/><path class="cls-9" d="M446,331.39H664.1A23.88,23.88,0,0,1,688,355.27V459.7"/><path class="cls-11" d="M380,116.83a26.32,26.32,0,0,1,26.38,26.37V395.54l-54.54-78.05H118.79a26.31,26.31,0,0,1-26.37-26.37V143.21a26.31,26.31,0,0,1,26.37-26.38Z"/><g class="cls-12"><path class="cls-6" d="M239.61,194.53s8.2-.71,10.34,4.63,0,15.33-10.34,15.68Z"/><path class="cls-6" d="M246.74,202.73s-5.7.71-7.13,3.92"/><path class="cls-6" d="M40,444h0a24,24,0,0,1-5.34-33.51L111,305.73a24,24,0,0,1,33.5-5.35h0a24,24,0,0,1,5.35,33.51L73.53,438.67A24,24,0,0,1,40,444Z"/><path class="cls-13" d="M279.89,291.83c-12.12-13.55-62.37-30.65-62.37-30.65l-34.58.71v-.71s-50.25,17.1-62.37,30.65S61.41,367,61.41,367l43.84,37.78,13.18-20,1.07,64.51H280.6l1.07-64.51,13.19,20L338.7,367C339.05,367,292,305.37,279.89,291.83Z"/><line class="cls-9" x1="281.67" y1="381.65" x2="281.67" y2="347.07"/><path class="cls-10" d="M199.34,285.06c-10.69,0-19.6-9.27-19.6-20V248a3,3,0,0,1,2.49-2.85l34.93-.36a2.44,2.44,0,0,1,2.5,2.5v17.46a19.85,19.85,0,0,1-19.61,20h-.35Z"/><path d="M217.52,247.63V265.1a17.42,17.42,0,0,1-17.11,17.46h-.71a17.19,17.19,0,0,1-17.11-17.46V248l34.93-.36"/><path class="cls-6" d="M217.52,242.29h0l-34.93.35a5.49,5.49,0,0,0-5.35,5.35V265.1a22.9,22.9,0,0,0,22.46,22.81h.71a22.83,22.83,0,0,0,22.45-22.46V248a5.55,5.55,0,0,0-5.34-5.7Z"/><path class="cls-14" d="M212.81,250.66s-20,8.91-34.57,9.63V249.24Z"/><path class="cls-6" d="M199.7,142.49h0a41,41,0,0,0-41,41v9.62s-9.27-1.07-11.76,5,0,17.47,11.76,17.82v-3.2a41,41,0,0,0,41,41h0a41,41,0,0,0,41-41V183.12C240.68,161,222.15,142.49,199.7,142.49Z"/><path class="cls-6" d="M197.91,235.16s-4.63-.71-7.48-3.56"/><path class="cls-6" d="M150.51,202.37s6.42.71,8.2,4.63"/><polygon class="cls-14" points="203.26 223.4 207.89 223.4 206.82 202.72 212.17 223.4 203.26 223.4"/><polyline class="cls-9" points="206.82 202.72 207.89 223.4 203.26 223.4"/><path d="M252.45,168.51a3.86,3.86,0,0,1-1.79-4.28h0c5-13.18-13.9-10.33-17.46-15.32s26.73-7.13,17.46-15.68c-6.06-5.71-27.08-2.14-40.27,1.07a175.33,175.33,0,0,1-18.89,3.2c-54.18,6.06-41,57-41,57l8.2-1.43,2.49,5c1.07,2.14,4.64,2.14,5.35-.35a28.54,28.54,0,0,1,3.92-8.2,36.72,36.72,0,0,1,27.8-15.68c11-.72,31.72,0,52,11.4C277,200.23,272.4,178.13,252.45,168.51Z"/><line class="cls-9" x1="120.93" y1="381.65" x2="143.38" y2="347.07"/><path class="cls-6" d="M259.93,344.93c0-5.34-6.77-4.63-21-4.27-9.62.35-27.44,7.13-38.13,11.4-7.13,2.85-14.26,5.35-21.39,7.84L45,402.67a24,24,0,0,0-13.9,31h0a24,24,0,0,0,31,13.9l126.17-56.67a69.7,69.7,0,0,1,29.23-6.41c12.47,0,28.87-.72,31.72-2.5,5.34-3.56.35-10,.35-10,4.28-5.7-.71-10.69-.71-10.69,5-6.06-1.07-10.69-1.07-10.69S259.93,351.35,259.93,344.93Z"/><line class="cls-9" x1="247.1" y1="350.64" x2="239.26" y2="350.64"/><line class="cls-9" x1="248.52" y1="361.33" x2="239.26" y2="361.33"/><line class="cls-9" x1="249.24" y1="372.02" x2="239.26" y2="372.02"/></g><rect class="cls-15" x="323.37" y="211.28" width="207.43" height="9.98"/><rect class="cls-16" x="282.03" y="241.93" width="207.43" height="9.98"/><line class="cls-17" x1="75.31" y1="684.24" x2="724.69" y2="684.24"/><rect class="cls-17" x="107.74" y="662.85" width="584.87" height="21.74"/><rect class="cls-18" x="181.88" y="641.11" width="435.89" height="21.74"/></svg>