<svg id="图层_1" data-name="图层 1" xmlns="http://www.w3.org/2000/svg" viewBox="0 0 800 800"><defs><style>.cls-1,.cls-12,.cls-3,.cls-5,.cls-9{fill:#fff;}.cls-1,.cls-11,.cls-12,.cls-13,.cls-14,.cls-15,.cls-16,.cls-17,.cls-18,.cls-19,.cls-20,.cls-21,.cls-3,.cls-4,.cls-9{stroke:#000;}.cls-1,.cls-12,.cls-14,.cls-15,.cls-16,.cls-17,.cls-18,.cls-19,.cls-20,.cls-21,.cls-3,.cls-4{stroke-miterlimit:10;}.cls-1,.cls-11,.cls-12,.cls-13,.cls-14,.cls-15,.cls-16,.cls-21,.cls-3,.cls-4,.cls-9{stroke-width:1.5px;}.cls-1{opacity:0.8;}.cls-1,.cls-6,.cls-8{isolation:isolate;}.cls-2,.cls-8{fill:#ffc607;}.cls-11,.cls-18,.cls-19,.cls-20,.cls-4{fill:none;}.cls-6{fill:#b8ecff;}.cls-6,.cls-8{opacity:0.4;}.cls-13,.cls-16,.cls-7{fill:#40adff;}.cls-11,.cls-13,.cls-9{stroke-linecap:round;stroke-linejoin:round;}.cls-10{fill:#dbdbdb;}.cls-12{fill-rule:evenodd;}.cls-14{fill:#ffaeae;}.cls-15{fill:#7cc996;}.cls-19{stroke-dasharray:3.05 3.05;}.cls-20{stroke-dasharray:3.06 3.06;}.cls-21{fill:#ff844d;}</style></defs><path class="cls-1" d="M637.79,227.93V526.51c0,8.87-7.86,16.13-17.74,16.13H180c-9.88,0-17.74-7.26-17.74-16.13V227.93c0-8.87,7.86-16.13,17.74-16.13h440.1C629.73,211.8,637.79,219.06,637.79,227.93Z"/><path class="cls-2" d="M724.49,561H536.19a20.94,20.94,0,0,1-21-21V417.24a21,21,0,0,1,21-21h188.3a20.94,20.94,0,0,1,21,21V540A21.07,21.07,0,0,1,724.49,561Z"/><path class="cls-3" d="M715.41,586.79H527.11a21,21,0,0,1-21-21V443a20.94,20.94,0,0,1,21-21h188.3a21,21,0,0,1,21,21V565.82A21,21,0,0,1,715.41,586.79Z"/><polygon class="cls-2" points="650.9 504.53 596.87 473.28 596.87 535.58 650.9 504.53"/><line class="cls-4" x1="524.29" y1="560.58" x2="718.03" y2="560.58"/><circle class="cls-3" cx="671.46" cy="560.58" r="6.45"/><path class="cls-5" d="M217.24,648.88h-88.1a8.6,8.6,0,0,1-8.67-8.67V626.5a8.6,8.6,0,0,1,8.67-8.66h88.1Z"/><rect class="cls-6" x="122.09" y="627.51" width="95.16" height="1.61"/><rect class="cls-6" x="122.09" y="632.55" width="95.16" height="1.61"/><rect class="cls-6" x="122.09" y="642.43" width="95.16" height="1.61"/><rect class="cls-6" x="122.09" y="622.47" width="95.16" height="1.61"/><rect class="cls-6" x="122.09" y="637.59" width="95.16" height="1.61"/><path class="cls-7" d="M217.24,650.29H127.73a9,9,0,0,1-8.87-8.87V624.89a9,9,0,0,1,8.87-8.87h89.51v3H127.73a5.86,5.86,0,0,0-5.85,5.84v16.53a5.86,5.86,0,0,0,5.85,5.85h89.51Z"/><path class="cls-5" d="M223.09,614.81H135a8.6,8.6,0,0,1-8.67-8.67V592.43a8.6,8.6,0,0,1,8.67-8.67h88.1Z"/><rect class="cls-8" x="127.73" y="593.44" width="95.16" height="1.61"/><rect class="cls-8" x="127.73" y="598.48" width="95.16" height="1.61"/><rect class="cls-8" x="127.73" y="608.56" width="95.16" height="1.61"/><rect class="cls-8" x="127.73" y="588.4" width="95.16" height="1.61"/><rect class="cls-8" x="127.73" y="603.52" width="95.16" height="1.61"/><path class="cls-2" d="M223.09,616.22H133.58a8.78,8.78,0,0,1-8.67-8.87V590.82a8.73,8.73,0,0,1,8.67-8.67h89.51v3H133.58a5.85,5.85,0,0,0-5.85,5.84v16.53a5.85,5.85,0,0,0,5.85,5.85h89.51Z"/><polyline class="cls-4" points="195.27 497.88 185.39 508.16 195.27 517.84"/><polyline class="cls-4" points="223.09 497.88 232.97 508.16 223.09 517.84"/><line class="cls-4" x1="217.65" y1="493.65" x2="200.71" y2="521.06"/><path class="cls-9" d="M449.9,367.24s12.9-1.21,16.53,7.06,0,24.39-16.53,25Z"/><path class="cls-9" d="M461.19,380.14s-8.87,1.21-11.29,6.45"/><path class="cls-9" d="M375.3,367.24s-12.9-1.21-16.53,7.06,0,24.39,16.53,25Z"/><path class="cls-9" d="M364,380.14s8.87,1.21,11.29,6.45"/><path class="cls-7" d="M483,455.74c-13.91-16.53-53.22-19.95-53.22-19.95l-32.86.6-.21,1v-1.61s-36.89,1.2-54.43,19.95c-14.92,15.93-82.46,67.74-82.46,67.74l32.46,25.81,43.55,3.43L337,650.29H489.21l1.21-97.57.4,26.61,49-43.35C540,536,499.29,474.9,483,455.74Z"/><path class="cls-5" d="M412.6,457.16a18.22,18.22,0,0,1-17.74-18V422.88a1.71,1.71,0,0,1,1.41-1.61l33.26-.2a1.53,1.53,0,0,1,1,.4,1.56,1.56,0,0,1,.41,1V439A18.21,18.21,0,0,1,413.2,457h-.4Z"/><path d="M429.74,422.68h0m0,0v16.53a16.35,16.35,0,0,1-16.13,16.33h-.81A16.39,16.39,0,0,1,396.67,439V422.68h33.07m0-3h0l-33.27.2a3.1,3.1,0,0,0-3,3v16.33a19.63,19.63,0,0,0,19.15,19.56h.81a19.58,19.58,0,0,0,19.15-19.36V422.88a2.87,2.87,0,0,0-2.82-3.22Zm0,6Z"/><path class="cls-10" d="M429.33,425.91s-18.95,8.46-32.66,9.07V424.7Z"/><path class="cls-9" d="M413,323.49h0a38.71,38.71,0,0,0-38.7,38.71v28A38.71,38.71,0,0,0,413,428.93h0a38.72,38.72,0,0,0,38.71-38.71v-28A38.59,38.59,0,0,0,413,323.49Z"/><path class="cls-9" d="M419.46,409s4.43-.6,7.05-3.43"/><polygon class="cls-10" points="419.05 397.88 414.62 397.88 415.83 378.53 410.38 397.88 419.05 397.88"/><polyline class="cls-11" points="415.83 376.51 414.62 397.88 419.05 397.88"/><line class="cls-11" x1="335.79" y1="555.34" x2="334.98" y2="523.28"/><line class="cls-11" x1="487.19" y1="575.1" x2="473.08" y2="496.07"/><line class="cls-11" x1="48.5" y1="650.29" x2="751.5" y2="650.29"/><path class="cls-12" d="M322.89,422.28s7.45-50.61,9.47-70c1-8.47-5.85-11.29-8.47-1-1.41,5.65-3,21-3,21-9.88-6.45-21.57,2.22-22.78,8.67-.61,3.22,1.81,15.32,2.62,17.94s.8,18.35.8,18.35Z"/><path class="cls-12" d="M307.76,372.68c-5.24-.8-9.27-.8-10.68,5.65-1.41,6.65,4,10.28,5.24,8.47,1.41-1.82,2.22-11.7,2.22-11.7S313,375.91,307.76,372.68Z"/><path class="cls-12" d="M313,372.08c-4.84-5.65-8.47-1.41-10.08,5.84-1.62,7.46,2,11.09,5.44,9.88s2.22-12.29,2.22-12.29S319.06,375.71,313,372.08Z"/><path class="cls-12" d="M309.58,375.91c-1.61,7.46,2,10.48,5.44,9.47,3.43-1.21,2.22-12.29,2.22-12.29s3-.21,3.63-1.62c1.21-3.22-4.44-7.86-8.47-3.42C311.19,369.46,310.39,372.28,309.58,375.91Z"/><path class="cls-12" d="M322.89,410.38c11.49-6.65,18.54-23.58,14.11-26.61s-16.74-14.92-20.16-11.69,8.87,16.53,8.87,16.53"/><path class="cls-13" d="M279.34,546.47l9.68,2.21a24.26,24.26,0,0,0,29-18.14l21.57-103.63a2.93,2.93,0,0,0-2-3.42l-51.41-11.9a2.93,2.93,0,0,0-3.42,2L261.19,517.23A24.23,24.23,0,0,0,279.34,546.47Z"/><path class="cls-3" d="M299.7,324.9h-181a17.34,17.34,0,0,1-17.34-17.34V183.17a17.34,17.34,0,0,1,17.34-17.34h181A17.34,17.34,0,0,1,317,183.17V307.56A17.34,17.34,0,0,1,299.7,324.9Z"/><path class="cls-14" d="M259.18,185.39a6.45,6.45,0,1,1-6.45-6.45A6.37,6.37,0,0,1,259.18,185.39Z"/><circle class="cls-3" cx="273.69" cy="185.39" r="6.45"/><circle class="cls-15" cx="293.65" cy="185.39" r="6.45"/><polyline class="cls-4" points="261.6 289.02 247.49 219.66 247.49 219.66 212.41 289.02 177.13 219.66 177.33 219.66 163.01 289.02"/><rect class="cls-16" x="236.19" y="208.98" width="21.37" height="21.37"/><rect class="cls-16" x="166.24" y="208.98" width="21.37" height="21.37"/><rect class="cls-16" x="201.72" y="278.94" width="21.37" height="21.37"/><rect class="cls-16" x="250.91" y="278.94" width="21.37" height="21.37"/><rect class="cls-16" x="153.13" y="278.94" width="21.37" height="21.37"/><path class="cls-7" d="M635,207.57a4.32,4.32,0,0,0,.61,1L625.5,222.49,638,235l13.5-9.28,2.42,16.13h17.74l3.23-17.74,14.92,10.28,12.5-12.5-10.89-14.72,19.15-2.62.81-17.74-17.94-3.63,10.68-13.1-11.49-13.51-18.55,11.29-2.82-18.14H653.52l-3,16.73-15.33-9.27-11.49,13.5,10.69,13.11-18,3.63.81,17.74ZM642,196.28a21.57,21.57,0,1,1,21.57,21.57A21.59,21.59,0,0,1,642,196.28Z"/><path class="cls-7" d="M577.92,267c.2.2.6.2.8.4l2,13.51h14.11l2.42-12.9,10.48,7.66,10.08-10.08-8.26-11.9,14.31-2.62V237l-14.51-2.22,9.27-12.29L609,212l-12.29,8.27-1.42-13.51-14.11-1.21-4,16.94-11.89-8.67L555.14,223.9,563,235.19l-13.91,3.42,1.21,14.12,13.5,1.41-8.26,12.3L566,276.11ZM575.5,257a17.25,17.25,0,1,1,24.39,0A17.38,17.38,0,0,1,575.5,257Z"/><path class="cls-3" d="M464.21,649.89H299.7a9,9,0,0,1-8.87-8.87h0a9,9,0,0,1,8.87-8.87H464.21a9,9,0,0,1,8.87,8.87h0A9,9,0,0,1,464.21,649.89Z"/><path class="cls-3" d="M246.48,548.08l31.45,84.47a13.22,13.22,0,0,0,12.3,8.67H418.65a7.61,7.61,0,0,0,7.06-10.28l-33.07-84.88a10.63,10.63,0,0,0-9.27-5.64h-132A5.3,5.3,0,0,0,246.48,548.08Z"/><path class="cls-8" d="M345.06,585.58c3.23,5.44,1.82,12.3-3.22,15.12s-11.5.81-14.72-4.84c-3.23-5.44-1.82-12.3,3.22-15.12C335.18,578.12,341.84,580.14,345.06,585.58Z"/><path class="cls-17" d="M386.59,344.05c7.46,5.45,12.1,8.88,21.17,9.68,0,0,13.51,2,15.53-6.05,8.46,1,7.45,8.27,15.92,7.06,7.06-1,6.05-20.77,9.68-28,5.44-10.69-7.46-12.91-15.73-16.74-19.75-9.07-22.37-2.62-40.12,11.49-1.81,1.42-6.65-1.61-8.66-.2-3.84,2.42-13.51,3.83-15.93,7.87-4.84,7.66,5.84,27.82,5.84,27.82S388.81,347.28,386.59,344.05Z"/><path d="M375.3,352.93S364,349.7,366,332.36c1-8.06,1.41-11.29,8.67-20.36,9.88-12.3,12.3-1.41,25.6-5.65,13.51-4.43,19.15-24,35.69-19.15s6.65,22.38,6.65,22.38,3.23-7.26,13.31-2.22c9.87,4.84-1.42,16.74-1.42,16.74s5.45,7.45,3.63,15.12c-3.63,15.12-7.05,19.35-7.05,19.35l-5.24-14.72-59.48-2.42Z"/><polyline class="cls-18" points="524.09 430.75 524.09 433.77 521.06 433.77"/><line class="cls-19" x1="515.02" y1="433.77" x2="296.88" y2="433.77"/><polyline class="cls-18" points="293.85 433.77 290.83 433.77 290.83 430.75"/><line class="cls-20" x1="290.83" y1="424.7" x2="290.83" y2="304.34"/><polyline class="cls-18" points="290.83 301.31 290.83 298.29 293.85 298.29"/><line class="cls-19" x1="299.9" y1="298.29" x2="518.04" y2="298.29"/><polyline class="cls-18" points="521.06 298.29 524.09 298.29 524.09 301.31"/><line class="cls-20" x1="524.09" y1="307.56" x2="524.09" y2="427.72"/><circle class="cls-21" cx="332.56" cy="345.26" r="11.49"/><path class="cls-9" d="M493.85,437s11.69-13.92,13.51-17.95,8.26-1.81,5.24,3.83C509.57,428.33,498.28,436,493.85,437Z"/><path class="cls-9" d="M510.78,422.88S525.7,412.4,528.52,409s8.47.4,4,5S515.42,423.08,510.78,422.88Z"/><path class="cls-9" d="M528.52,423.49s22.18-17.34,22.18-25.2-6.85.4-10.08,4.43c-3.23,4.24-16.73,19.36-16.73,19.36Z"/><path class="cls-9" d="M554.73,399.7c-6.45,1.81-27.21,19.55-47.58,24.19-16.93,3.83-16.73,24-16.33,28.83,0,1,.2,2,.2,2.82l1.82,113.71c.81,11.89,11.09,16.73,23,15.93h0c11.9-.81,16.53-6.46,15.73-18.35l-11.7-109.27a31.79,31.79,0,0,1,6.86-23.79c5.24-6.45,12.5-12.1,19.35-16.94C558.76,407.76,561.18,397.88,554.73,399.7Z"/><path class="cls-7" d="M520.46,587.59h0a29.42,29.42,0,0,0,24.19-33.87l-16.33-97.17a2.7,2.7,0,0,0-3-2.22l-52.82,8.87a2.72,2.72,0,0,0-2.22,3l16.33,97.17A29.46,29.46,0,0,0,520.46,587.59Z"/></svg>