<svg id="图层_1" data-name="图层 1" xmlns="http://www.w3.org/2000/svg" xmlns:xlink="http://www.w3.org/1999/xlink" viewBox="0 0 800 800"><defs><style>.cls-1,.cls-20,.cls-22,.cls-7,.cls-8{fill:none;}.cls-19,.cls-2,.cls-9{fill:#fff;}.cls-3{fill:#b8ecff;}.cls-3,.cls-5{opacity:0.4;}.cls-23,.cls-4{fill:#40adff;}.cls-5,.cls-6{fill:#ffc607;}.cls-10,.cls-12,.cls-13,.cls-18,.cls-19,.cls-23,.cls-7,.cls-8,.cls-9{stroke:#000;}.cls-19,.cls-7{stroke-linecap:round;stroke-linejoin:round;}.cls-10,.cls-12,.cls-13,.cls-18,.cls-19,.cls-20,.cls-23,.cls-7,.cls-8,.cls-9{stroke-width:1.5px;}.cls-10,.cls-12,.cls-13,.cls-18,.cls-20,.cls-22,.cls-23,.cls-8,.cls-9{stroke-miterlimit:10;}.cls-10,.cls-21{fill:#ffc609;}.cls-11{fill:#f2f2f2;}.cls-12{fill:#ffaeae;}.cls-13{fill:#7cc996;}.cls-14{fill:#ff713d;}.cls-15{fill:#72a2e8;}.cls-16{clip-path:url(#clip-path);}.cls-17{fill:#dbdbdb;}.cls-20{stroke:#292524;}.cls-22{stroke:#fff;}</style><clipPath id="clip-path"><rect class="cls-1" x="365.52" y="226.59" width="329.9" height="237.51" rx="34.57" transform="translate(1060.94 690.69) rotate(-180)"/></clipPath></defs><path class="cls-2" d="M594.76,623.21h69.09a0,0,0,0,1,0,0v24.31a0,0,0,0,1,0,0H594.76a6.75,6.75,0,0,1-6.75-6.75V630A6.75,6.75,0,0,1,594.76,623.21Z"/><rect class="cls-3" x="589.19" y="630.79" width="74.66" height="1.34"/><rect class="cls-3" x="589.19" y="634.72" width="74.66" height="1.34"/><rect class="cls-3" x="589.19" y="642.57" width="74.66" height="1.34"/><rect class="cls-3" x="589.19" y="626.86" width="74.66" height="1.34"/><rect class="cls-3" x="589.19" y="638.64" width="74.66" height="1.34"/><path class="cls-4" d="M663.85,648.7H593.71a6.89,6.89,0,0,1-6.88-6.88V628.91a6.89,6.89,0,0,1,6.88-6.88h70.14v2.36H593.71a4.52,4.52,0,0,0-4.52,4.52v12.91a4.52,4.52,0,0,0,4.52,4.52h70.14Z"/><path class="cls-2" d="M595.35,570h69.09a0,0,0,0,1,0,0V594.3a0,0,0,0,1,0,0H595.35a6.75,6.75,0,0,1-6.75-6.75V576.73A6.75,6.75,0,0,1,595.35,570Z"/><rect class="cls-3" x="589.78" y="577.57" width="74.66" height="1.34"/><rect class="cls-3" x="589.78" y="581.5" width="74.66" height="1.34"/><rect class="cls-3" x="589.78" y="589.35" width="74.66" height="1.34"/><rect class="cls-3" x="589.78" y="573.64" width="74.66" height="1.34"/><rect class="cls-3" x="589.78" y="585.42" width="74.66" height="1.34"/><path class="cls-4" d="M664.44,595.48H594.3a6.89,6.89,0,0,1-6.88-6.88V575.69a6.89,6.89,0,0,1,6.88-6.88h70.14v2.36H594.3a4.52,4.52,0,0,0-4.52,4.52V588.6a4.52,4.52,0,0,0,4.52,4.52h70.14Z"/><path class="cls-2" d="M603.35,596.54h69.09a0,0,0,0,1,0,0v24.31a0,0,0,0,1,0,0H603.35a6.75,6.75,0,0,1-6.75-6.75V603.28a6.75,6.75,0,0,1,6.75-6.75Z"/><rect class="cls-5" x="597.78" y="604.12" width="74.66" height="1.34"/><rect class="cls-5" x="597.78" y="608.05" width="74.66" height="1.34"/><rect class="cls-5" x="597.78" y="615.9" width="74.66" height="1.34"/><rect class="cls-5" x="597.78" y="600.19" width="74.66" height="1.34"/><rect class="cls-5" x="597.78" y="611.97" width="74.66" height="1.34"/><path class="cls-6" d="M672.44,622H602.3a6.89,6.89,0,0,1-6.88-6.88V602.24a6.89,6.89,0,0,1,6.88-6.88h70.14v2.36H602.3a4.52,4.52,0,0,0-4.52,4.52v12.91a4.52,4.52,0,0,0,4.52,4.52h70.14Z"/><line class="cls-7" x1="43.56" y1="649.89" x2="756.44" y2="649.89"/><path class="cls-8" d="M176.4,184.23V160.88a10.78,10.78,0,0,1,10.77-10.77H522.72a14.67,14.67,0,0,1,14.67,14.67V541.69"/><path class="cls-9" d="M116.61,191H240.94a16.41,16.41,0,0,1,16.41,16.41V287a16.42,16.42,0,0,1-16.42,16.42H116.61A16.41,16.41,0,0,1,100.2,287V207.4A16.41,16.41,0,0,1,116.61,191Z"/><rect class="cls-10" x="165.87" y="179.27" width="21.07" height="11.72"/><rect class="cls-10" x="171.69" y="169.83" width="9.43" height="9.43"/><rect class="cls-10" x="526.86" y="179.45" width="21.07" height="11.72" transform="translate(1074.78 370.62) rotate(180)"/><rect class="cls-10" x="532.67" y="170.02" width="9.43" height="9.43" transform="translate(1074.78 349.47) rotate(180)"/><rect class="cls-2" x="303.72" y="210.67" width="396.08" height="283.73" rx="17.34"/><rect class="cls-9" x="288.21" y="191.17" width="396.08" height="283.73" rx="17.34"/><rect class="cls-11" x="298.42" y="240.96" width="374.48" height="223.14" rx="21.54"/><circle class="cls-12" cx="318.83" cy="218.13" r="6.6"/><circle class="cls-9" cx="342.84" cy="218.13" r="6.6"/><circle class="cls-13" cx="366.85" cy="218.13" r="6.6"/><rect class="cls-14" x="321.22" y="247.2" width="92.03" height="57.43"/><path class="cls-2" d="M361.6,269.12v13.6c0,.72,1.24,1.08,2,.57l8.5-6a1.58,1.58,0,0,0,0-2.75l-8.5-6C362.84,268,361.6,268.4,361.6,269.12Z"/><path class="cls-2" d="M367.23,293.74a17.83,17.83,0,1,1,17.83-17.82A17.84,17.84,0,0,1,367.23,293.74Zm0-33.9a16.08,16.08,0,1,0,16.08,16.08A16.1,16.1,0,0,0,367.23,259.84Z"/><rect class="cls-15" x="321.22" y="336.28" width="92.03" height="57.43"/><path class="cls-2" d="M361.6,358.19v13.6c0,.72,1.24,1.09,2,.58l8.5-6a1.58,1.58,0,0,0,0-2.75l-8.5-6C362.84,357.11,361.6,357.47,361.6,358.19Z"/><path class="cls-2" d="M367.23,382.82A17.83,17.83,0,1,1,385.06,365,17.85,17.85,0,0,1,367.23,382.82Zm0-33.91A16.08,16.08,0,1,0,383.31,365,16.11,16.11,0,0,0,367.23,348.91Z"/><rect class="cls-15" x="321.21" y="422.7" width="92.03" height="41.36"/><path class="cls-2" d="M361.6,444.61v13.6c0,.73,1.24,1.09,2,.58l8.5-6a1.58,1.58,0,0,0,0-2.75l-8.5-6C362.84,443.53,361.6,443.89,361.6,444.61Z"/><path class="cls-2" d="M367.23,433.59a17.82,17.82,0,0,0-12.55,30.47h2.62a16.09,16.09,0,1,1,19.86,0h2.62a17.81,17.81,0,0,0-12.55-30.47Z"/><g class="cls-16"><path class="cls-9" d="M425,352.13l-15.28-39.34-8.72-15a8,8,0,0,1,1.69-10l6.66-5.72-5.1-11.78c-.71-1.49-.56-4.3,1.45-4.33,1.13,0,2.08,1.23,2.61,2.09l1.28,2.08,4.08,6.63,4,6.54,1.53,2.48,2.31-5.94a2.89,2.89,0,0,1,2.78-1.89A1.76,1.76,0,0,1,426,280l-1.63,7.49-.57,5.77a4.15,4.15,0,0,1-.8,2.08l.06.09,20.72,26.61"/><path class="cls-9" d="M408.35,280.93l.06.22,4.2,12.57a2.62,2.62,0,0,1-1.23,3.13l-.74.4a.84.84,0,0,1-1.18-.42L404.69,285a2.15,2.15,0,0,1,1-2.64Z"/><path class="cls-9" d="M402.54,300.25a2.81,2.81,0,0,0,3.13-3.58l0,0-2.81-8.44a2.74,2.74,0,0,0-3.86-1.47l-.4.21a2.56,2.56,0,0,0-1.25,3.19l3.76,9A2.93,2.93,0,0,0,402.54,300.25Z"/><path class="cls-9" d="M406.1,299a2.81,2.81,0,0,0,3.13-3.58v0l-3.42-9.95a2.75,2.75,0,0,0-3.86-1.48l-.4.21a2.55,2.55,0,0,0-1.25,3.19l4.37,10.49A2.9,2.9,0,0,0,406.1,299Z"/><path class="cls-9" d="M410.12,297.18c2,.48,3.75-1.76,3.13-3.71v0l-3.44-10.34a2.72,2.72,0,0,0-3.87-1.54l-.4.21a2.69,2.69,0,0,0-1.24,3.31l4.39,10.9A3,3,0,0,0,410.12,297.18Z"/><path d="M528.19,338.16c6.77,4.79,2,8.17,3.65,20.31s16.93,34.13,38.94,46,41.47,10.45,57.83-1.4,9.87-33.57,2.26-37.53-11.85-9-12.13-12.41,7.89-11,4.24-24.54-21.74-15.79-25.39-22,2.81-16.36,2-27.36-3.1-24-22-32.74-23.13,0-30.47-.27-20.87-.57-26.51,9.58-4,23.14,0,29.35c2,3.12,3.76,4.25,5,4.6l.42-4.34c1.24-13.75,12.83-24.08,26.17-23.37s29.4,12.83,29.4,26.51c0,.34,0,.68,0,1l-3.21,9.84v0a7.48,7.48,0,0,0-1.72,5.27,13,13,0,0,0,.93,4.34,13.31,13.31,0,0,0,1.87,3.81c-.1-.06-.79-.55-2.17.14a5.27,5.27,0,0,1-2.79.54,7.25,7.25,0,0,1-3.14-1l-2-2s-9.88,11.36-16.79,15.32-9.89,6.91-13.35,3.46a44.43,44.43,0,0,1-10.87-22.24c-.43-2.88-.73-6.21-1-9.49-.77,1.27-1.81,2.81-3,4.59a78.37,78.37,0,0,0-6.95,12.6C513.22,324.9,521.41,333.35,528.19,338.16Z"/><path class="cls-9" d="M589.79,308.17c-.3,5.22-5.64,9.09-10.7,8.82a9.27,9.27,0,0,1-8.61-9.95c.3-5.22,6.62-9,11.68-8.68S590.09,302.94,589.79,308.17Z"/><path class="cls-9" d="M576.25,310.57s1.91-7.11,8.66-5.16"/><path class="cls-4" d="M496.09,348.39s12.72-6.43,31.35-4.26L560.85,348l24,4.07c11.64,2.49,20.66,12.24,21.35,24.12A21.63,21.63,0,0,1,606,381L588.91,465.6h-90Z"/><path class="cls-4" d="M527.91,344.18l12.82,1.31,16.44,2.24,16,2.88S564.94,364,538,359.84C519.36,357,527.91,344.18,527.91,344.18Z"/><path class="cls-4" d="M501.93,346.22l-71.31,26.64V383.4c0,8.69,7,17.74,15.42,19.8,3.64.89,7,.7,11.78-.33l61.95-16.18Z"/><line class="cls-4" x1="511.4" y1="388.87" x2="497.47" y2="375.15"/><path class="cls-4" d="M651.12,462.83a18.24,18.24,0,0,0,8.8-27.44L622,377.31c-10-17.09-35.56-28.78-46.92-24.28l3,12c-7.27,5.86-10.62,10.47-5.43,18.23l53.51,72.69c4.7,6.94,17.1,9.78,25,6.91Z"/><line class="cls-4" x1="598.34" y1="418.13" x2="585.43" y2="402.2"/><path class="cls-4" d="M461.56,399.8l-6.06,2.77a16.45,16.45,0,0,1-21.79-8.13L397.83,313a1.88,1.88,0,0,1,.93-2.5l32.55-14.86a1.88,1.88,0,0,1,2.5.93L469.69,378A16.45,16.45,0,0,1,461.56,399.8Z"/><line class="cls-7" x1="600.91" y1="407.24" x2="592.81" y2="441.53"/><path class="cls-9" d="M537.71,323.2l-.57,18.54a2,2,0,0,0,0,.42.46.46,0,0,0,0,.16A13.36,13.36,0,0,0,549,355.62l.34.05c.12,0,.21,0,.31,0a13.06,13.06,0,0,0,14.15-12l.1-.95.41-4.69,1.32-15Z"/><path class="cls-9" d="M537.39,300a9.46,9.46,0,0,1-9.81,9.05c-5.11-.27-10-4.91-9.68-10.19a9.46,9.46,0,0,1,9.81-9.05C532.82,290,537.7,294.67,537.39,300Z"/><path class="cls-17" d="M538.18,340.93s18.05-2.22,22.6-16.41c2.09-6.52-22.14-1-22.14-1Z"/><path class="cls-18" d="M525.59,289.72c.6.16-.33,0,0,0a19.86,19.86,0,0,1,1.27-7.86S535.75,270,537.23,270c0,0,16.31,22.23,33.6,27.67l7.52,1.72,3.21-9.84c0-.34,0-.68,0-1,0-13.68-16.05-25.79-29.4-26.51s-24.93,9.62-26.17,23.37Z"/><path class="cls-9" d="M545.15,332.75c13.36.72,25.1-7,29.31-19.24a30.06,30.06,0,0,0,1.46-6.66l.7-2.17,1.72-5.27v0l-7.52-1.72c-17.29-5.44-33.6-27.67-33.6-27.67-1.48,0-10.37,11.87-10.37,11.87l-1.27,7.86-1.18,12.43-.59,6.16C522.83,319.28,532.2,331.16,545.15,332.75Z"/><path class="cls-7" d="M540.33,295.41l-3.85,8.82a1.29,1.29,0,0,0,.31,1.84l2.07,1.4"/><path class="cls-7" d="M549.6,315.05a12.73,12.73,0,0,1-11.35.76"/><path class="cls-19" d="M560.05,496.27l.82,1.21,10.21,15.1s-7.85,5.73-15.06,10c-4.46,2.64-8.68,4.7-10.64,4.49-5.15-.54-3.88-5.13-3.88-5.13-6.85-.46-4.24-6.48-4.24-6.48s-5.45-3.11-2.94-7.21c1.32-2.14,4.44-4.39,9.12-6.53.74-.35,1.52-.67,2.34-1l0,0a89.42,89.42,0,0,1,9.19-3.09C556.6,497.13,558.29,496.69,560.05,496.27Z"/><path class="cls-8" d="M540.61,512.89s-1.09.27-3.35,2.55"/><path class="cls-8" d="M544.31,519.9l-2.8,2"/><path class="cls-4" d="M574,519.52a2.64,2.64,0,0,1-2.14-1.09l-17.32-24a2.65,2.65,0,0,1,.6-3.69l81.09-58.45a17.05,17.05,0,0,1,10-3.25,17.26,17.26,0,0,1,14,7.14l.29.4a17.21,17.21,0,0,1-3.9,24L575.53,519A2.6,2.6,0,0,1,574,519.52Z"/><path d="M646.27,429.77a16.42,16.42,0,0,1,13.35,6.83l.29.4a16.46,16.46,0,0,1-3.72,23l-81.1,58.46a1.87,1.87,0,0,1-1.1.35,1.9,1.9,0,0,1-1.54-.78l-17.31-24a1.89,1.89,0,0,1,.43-2.64l81.09-58.45a16.36,16.36,0,0,1,9.61-3.11m0-1.5h0a17.79,17.79,0,0,0-10.48,3.39l-81.1,58.46a3.4,3.4,0,0,0-.77,4.73l17.32,24a3.39,3.39,0,0,0,4.73.76l81.09-58.45a18,18,0,0,0,4.07-25.05l-.29-.41a18,18,0,0,0-14.57-7.45Z"/><path class="cls-20" d="M508.67,371.35s-19.24,25.1-7.29,38.82"/></g><polygon class="cls-4" points="170.17 286.27 162.85 278.37 152.09 278.75 164.34 249.88 182.42 257.4 170.17 286.27"/><polygon class="cls-4" points="185.45 286.53 193.04 278.88 203.78 279.62 192.78 250.36 174.46 257.26 185.45 286.53"/><polygon class="cls-21" points="207.85 237.93 208.45 232.72 206.28 227.96 205.05 222.86 201.37 219.13 198.48 214.75 193.74 212.5 189.53 209.38 184.31 208.88 179.29 207.4 174.21 208.71 168.98 209.03 164.66 212.01 159.86 214.1 156.82 218.37 153.01 221.98 151.61 227.03 149.28 231.72 149.7 236.95 149.1 242.16 151.28 246.92 152.5 252.02 156.19 255.75 159.08 260.12 163.81 262.38 168.02 265.5 173.24 266 178.27 267.48 183.34 266.17 188.57 265.85 192.89 262.87 197.7 260.78 200.74 256.51 204.54 252.9 205.94 247.85 208.28 243.16 207.85 237.93"/><circle class="cls-2" cx="178.78" cy="237.44" r="20.32"/><path d="M616,219l13.38-6.89v2l-11.27,5.65v.05l11.27,5.65v2L616,220.53Z"/><path d="M631.22,228.58l8-20.9h2l-8.07,20.9Z"/><path d="M656.42,220.56l-13.37,6.86v-2l11.35-5.65v-.05l-11.35-5.65v-2L656.42,219Z"/><path class="cls-19" d="M318.39,397.76s11.74-8.15,13.95-10.86,6.61.38,3.14,4S322,398,318.39,397.76Z"/><path class="cls-19" d="M334.07,390.61s13.44-4.89,16.26-6.94,6.3,2.05,2,4.65S337.52,391.71,334.07,390.61Z"/><path class="cls-19" d="M347.46,394.65S367.74,386,369.4,380s-5.22-1.13-8.48,1.37-16.62,11.17-16.62,11.17Z"/><path class="cls-19" d="M372.09,381.9c-5.25,0-24.52,9.24-41,8.62C317.5,390,313.56,405.27,312.8,409c-.15.73-.31,1.47-.49,2.2l-21.69,86.56c-1.76,9.16,5.06,14.95,14.22,16.71h0c9.16,1.77,13.85-1.52,15.61-10.69l13.4-85.16a24.63,24.63,0,0,1,10-16.69c5.23-3.75,11.84-6.61,18-8.88C373.49,388.84,377.34,381.88,372.09,381.9Z"/><path class="cls-9" d="M147.19,467.86c.35,6,6.52,10.52,12.37,10.2a10.72,10.72,0,0,0,10-11.5c-.35-6-7.66-10.35-13.51-10S146.84,461.82,147.19,467.86Z"/><path class="cls-9" d="M162.85,470.63s-2.21-8.21-10-5.95"/><path class="cls-21" d="M255.74,505.5s-14.92,1.44-36.46,3.94l-38.63,4.5-27.77,4.7c-13.44,2.88-23.88,14.16-24.67,27.89a24.64,24.64,0,0,0,.26,5.49l19.74,97.87H252.27Z"/><path class="cls-21" d="M218.74,509.5,203.92,511l-19,2.58-18.46,3.33s9.47,15.48,40.67,10.68C228.63,524.3,218.74,509.5,218.74,509.5Z"/><path class="cls-21" d="M224.86,508.79l97.78-10.43,5.46,10.91c4.5,9,2,22-5.7,28.45-3.3,2.8-6.83,4.32-12.36,5.74l-72.42,15.31Z"/><line class="cls-21" x1="247.4" y1="556.71" x2="254.7" y2="535.31"/><path class="cls-21" d="M76.27,646.68A21.1,21.1,0,0,1,66.1,615l43.84-67.16c11.61-19.76,41.11-33.27,54.25-28.07l-3.46,13.84c8.4,6.77,12.28,12.11,6.28,21.08L105.14,638.7c-5.43,8-19.77,11.31-28.87,8Z"/><line class="cls-21" x1="137.31" y1="595" x2="152.23" y2="576.58"/><path class="cls-21" d="M299.41,539.43,307,541a19,19,0,0,0,22.4-14.88l19-101.09a2.19,2.19,0,0,0-1.71-2.58l-40.55-8.17a2.18,2.18,0,0,0-2.57,1.71l-19,101.1A19,19,0,0,0,299.41,539.43Z"/><line class="cls-7" x1="134.33" y1="582.4" x2="145.31" y2="628.9"/><path class="cls-9" d="M207.41,485.24l.66,21.43a4.17,4.17,0,0,1,0,.5.51.51,0,0,1,0,.17,15.48,15.48,0,0,1-13.68,15.39,2.73,2.73,0,0,1-.4,0l-.35,0a15.13,15.13,0,0,1-16.37-13.89l-.11-1.1-.47-5.42L175.17,485Z"/><path class="cls-9" d="M207.77,458.36a11,11,0,0,0,11.34,10.47c5.91-.32,11.56-5.69,11.2-11.79A10.94,10.94,0,0,0,219,446.58C213.06,446.89,207.42,452.26,207.77,458.36Z"/><path class="cls-17" d="M206.87,505.74s-20.88-2.57-26.13-19c-2.42-7.55,25.59-1.17,25.59-1.17Z"/><path class="cls-9" d="M198.8,496.29h0c15-1.85,25.81-15.58,24.67-28.26l-2.54-26.52c-1.43-15.89-14.82-27.85-30.26-27h0c-15.8.85-34.91,15.52-34,31.83l6.52,20C165.22,484.93,180.72,497.26,198.8,496.29Z"/><path class="cls-7" d="M204.38,453.11l4.45,10.2a1.49,1.49,0,0,1-.36,2.13l-2.39,1.61"/><path class="cls-7" d="M193.66,475.81a14.7,14.7,0,0,0,13.13.89"/><path d="M160.09,461.07s1.45,11,4.71,11.68,5.42,1.16,3.86-5.24-7.48-14-2.32-20.38,7.42-3.49,6.67-9.65-9.94-7.2-3.91-12,30.8-2.82,37.65.71,13.18,5.62,13.3,9.39,13,7.28,20.79-6.1c6.56-11.3.95-19.41-3.66-20.33s-13.18.18-13-9.79-9.58-20.13-18.46-20.09-14.24,8.56-14.92,12.35-10.36,4.13-20.72.17-19,10.35-18.06,14.89,1.3,6.69-.28,7.55-14.23,9.1-14.72,18.27,9.68,23.36,11.38,25.72,1.18,3.19,1.18,3.19S153.55,458.6,160.09,461.07Z"/><path class="cls-22" d="M150,452.32s-9-22.51,2.88-41"/><path class="cls-8" d="M155.55,474.14S162,497.72,183.08,498"/><path class="cls-9" d="M187.55,496.85a3.51,3.51,0,1,1-3.63-3.39A3.51,3.51,0,0,1,187.55,496.85Z"/><path class="cls-9" d="M166.91,462c1.87,7.25-1.48,14.38-7.48,15.92s-12.36-3.09-14.23-10.34,1.49-14.38,7.48-15.93S165.05,454.7,166.91,462Z"/><path class="cls-23" d="M223,623.54l-12.54,1a1.61,1.61,0,0,1-1.73-1.48l-3.9-49,15.74-1.26,3.9,49A1.61,1.61,0,0,1,223,623.54Z"/><polygon class="cls-23" points="202.06 549.96 245.52 555.18 286.41 537.69 277.33 613.39 241.74 586.73 198.27 581.52 202.06 549.96"/><path d="M269.23,601.14a.9.9,0,0,1-.23-.08.62.62,0,0,1-.3-.63L276.38,546a.63.63,0,0,1,.62-.54.65.65,0,0,1,.62.72l-7.68,54.46a.63.63,0,0,1-.62.54Z"/><path d="M277,545.67h.05a.37.37,0,0,1,.32.42l-7.67,54.47a.38.38,0,0,1-.38.32h-.05a.34.34,0,0,1-.14,0,.36.36,0,0,1-.18-.38L276.62,546a.39.39,0,0,1,.38-.33m0-.5a.88.88,0,0,0-.87.76l-7.68,54.46a.88.88,0,0,0,.43.89,1,1,0,0,0,.32.11h.12a.87.87,0,0,0,.87-.75l7.68-54.47a.88.88,0,0,0-.75-1Z"/><path d="M291.75,562.56a.62.62,0,0,1-.32-.09.66.66,0,0,1-.29-.38.64.64,0,0,1,.06-.47.65.65,0,0,1,.39-.3l20.08-5.38h.13a.63.63,0,0,1,.61.46.63.63,0,0,1-.45.77l-20.08,5.38Z"/><path d="M311.8,556.18a.38.38,0,0,1,.37.28.38.38,0,0,1-.27.46l-20,5.37-.1,0a.41.41,0,0,1-.19,0,.38.38,0,0,1-.18-.23.4.4,0,0,1,.27-.47l20.05-5.37h.1m0-.5-.23,0-20.05,5.37a.89.89,0,0,0-.62,1.08.9.9,0,0,0,.41.53.83.83,0,0,0,.44.12l.23,0,20-5.38a.86.86,0,0,0,.53-.4.88.88,0,0,0-.76-1.32Z"/><path d="M325.35,584.34l-26.21-4.46a.6.6,0,0,1-.21-.08.63.63,0,0,1,.32-1.17h.1l26.21,4.46a.63.63,0,0,1,.52.73.62.62,0,0,1-.62.52Z"/><path d="M299.25,578.88h.06l26.21,4.46a.37.37,0,0,1,.31.43.38.38,0,0,1-.37.32h-.06l-26.22-4.46a.28.28,0,0,1-.12,0,.4.4,0,0,1-.19-.39.39.39,0,0,1,.38-.32m0-.5h0a.88.88,0,0,0-.44,1.64,1,1,0,0,0,.29.11l26.21,4.46h.15a.87.87,0,0,0,.86-.73.9.9,0,0,0-.14-.66.85.85,0,0,0-.57-.35l-26.22-4.46-.14,0Z"/><path d="M304.4,610.77a.65.65,0,0,1-.31-.08l-.09-.07-15.91-13.48a.63.63,0,0,1,.4-1.11.61.61,0,0,1,.41.15l15.91,13.49a.62.62,0,0,1-.41,1.1Z"/><path d="M288.49,596.28a.38.38,0,0,1,.25.09l15.91,13.49a.37.37,0,0,1,0,.53.36.36,0,0,1-.29.13.34.34,0,0,1-.19,0l0,0L288.25,597a.38.38,0,0,1,0-.54.35.35,0,0,1,.28-.13m0-.5a.88.88,0,0,0-.56,1.55l15.9,13.48.13.09a.86.86,0,0,0,.44.12.87.87,0,0,0,.67-.31.88.88,0,0,0-.1-1.24L289.06,596a.86.86,0,0,0-.57-.21Z"/><path class="cls-19" d="M193.89,601.86l.28,1.66,3.58,20.77s11.14-1.51,20.56-3.74c5.82-1.38,11-3,12.47-4.79,3.86-4.58-.88-7.38-.88-7.38,5.34-5.88-1.66-8.81-1.66-8.81s2-7-3.33-8.35c-2.81-.73-7.22-.11-12.84,1.85-.89.31-1.8.66-2.75,1h0a102.77,102.77,0,0,0-10.14,4.79C197.44,599.81,195.69,600.8,193.89,601.86Z"/><path class="cls-8" d="M223.41,600.14s1.11-.65,4.83-.56"/><path class="cls-8" d="M225.94,609l3.95-.57"/><path class="cls-10" d="M130.54,554.18h.57a19,19,0,0,1,19,19V688.77a2.18,2.18,0,0,1-2.18,2.18H113.71a2.18,2.18,0,0,1-2.18-2.18V573.19a19,19,0,0,1,19-19Z" transform="matrix(-0.14, -0.99, 0.99, -0.14, -467.17, 839.6)"/><rect class="cls-9" x="370.95" y="630.15" width="200.6" height="19.53" rx="9.76" transform="translate(942.49 1279.82) rotate(-180)"/><path class="cls-9" d="M620.43,537.6l-34.6,93a14.55,14.55,0,0,1-13.64,9.48H430.71A8.3,8.3,0,0,1,423,628.75l36.49-93.41a11.5,11.5,0,0,1,10.23-6.23H615.19A5.86,5.86,0,0,1,620.43,537.6Z"/><path class="cls-15" d="M518.72,598.58,516.27,574h-.14l-10.21,24.58H501.7l11.12-28H520l1.93,23.34h.14l14.11-23.34h7.32l-3.82,28h-4.36L538.23,574h-.14q-1.68,3.15-15.15,24.58Z"/></svg>