<svg id="图层_1" data-name="图层 1" xmlns="http://www.w3.org/2000/svg" xmlns:xlink="http://www.w3.org/1999/xlink" viewBox="0 0 800 800"><defs><style>.cls-1,.cls-4{fill:none;}.cls-2{fill:#f8f9fa;stroke:#e3eafd;}.cls-2,.cls-4,.cls-5,.cls-7{stroke-miterlimit:10;stroke-width:1.5px;}.cls-3{clip-path:url(#clip-path);}.cls-4,.cls-5,.cls-7{stroke:#000;}.cls-5{fill:#40adff;}.cls-6,.cls-7{fill:#fff;}.cls-8{fill:#ffc607;}</style><clipPath id="clip-path"><circle class="cls-1" cx="360.18" cy="437.63" r="305.58"/></clipPath></defs><circle class="cls-2" cx="360.18" cy="437.63" r="310.76"/><g class="cls-3"><path class="cls-4" d="M224.48,312.29l37.81,21.24"/><path class="cls-4" d="M283.55,265.29l22.07,37.33"/><path class="cls-4" d="M360.18,247V290.4"/><path class="cls-4" d="M437.66,265l-23.22,36.63"/><path class="cls-4" d="M496.56,313l-38,20.92"/><path class="cls-5" d="M259.18,378.07a149.07,149.07,0,0,1,101-39.37c82.35,0,149.69,67.34,149.69,149.69a152.71,152.71,0,0,1-26.42,85.46v.52C457.56,619.43,446.16,658.79,441,682.1H280.42c-1-5.7-2.59-11.91-4.66-19.17-6.22-22.27-18.65-56.45-40.92-94.26v-.52a148.84,148.84,0,0,1-16.06-125.86"/><rect class="cls-6" x="272.65" y="717.84" width="174.55" height="21.24"/><rect class="cls-7" x="268.51" y="682.1" width="183.35" height="55.94"/><rect class="cls-4" x="324.44" y="503.93" width="71.48" height="178.17"/><path class="cls-8" d="M422.85,509.11a15,15,0,0,0,0-30H297.51a15,15,0,1,0,0,30Z"/></g></svg>