<svg id="图层_1" data-name="图层 1" xmlns="http://www.w3.org/2000/svg" xmlns:xlink="http://www.w3.org/1999/xlink" viewBox="0 0 800 800"><defs><style>.cls-1,.cls-10,.cls-17,.cls-19,.cls-24,.cls-5{fill:none;}.cls-12,.cls-2,.cls-23,.cls-4,.cls-9{fill:#fff;}.cls-12,.cls-15,.cls-17,.cls-2,.cls-20,.cls-21,.cls-23,.cls-24,.cls-4,.cls-5,.cls-6{stroke:#000;}.cls-10,.cls-12,.cls-17,.cls-2,.cls-23,.cls-24{stroke-linecap:round;stroke-linejoin:round;}.cls-10,.cls-15,.cls-17,.cls-2,.cls-20,.cls-21,.cls-4,.cls-5,.cls-6{stroke-width:1.5px;}.cls-3{fill:#ff844d;}.cls-15,.cls-19,.cls-20,.cls-21,.cls-4,.cls-5,.cls-6{stroke-miterlimit:10;}.cls-22,.cls-6,.cls-8{fill:#40adff;}.cls-7{opacity:0.8;}.cls-10{stroke:#181818;}.cls-11{clip-path:url(#clip-path);}.cls-12{stroke-width:1.5px;}.cls-13{fill:#c1c1c1;}.cls-14{fill:#5576b5;}.cls-15{fill:#ffc609;}.cls-16{fill:#f2f2f2;}.cls-18{fill:#b8ecff;}.cls-19{stroke:#fff;}.cls-20{fill:#ffaeae;}.cls-21{fill:#7cc996;}.cls-22{opacity:0.4;isolation:isolate;}.cls-23,.cls-24{stroke-width:2px;}.cls-25{fill:#ffc607;}</style><clipPath id="clip-path"><path class="cls-1" d="M307.89,297c-12.9,0-23.54,4.71-23.54,10.24,0,0-1,186.67,3.69,186.67H308.3l203.87-.2c12.9,0,23.13-4.51,23.13-10.24l-.61-176.44c0-5.73-10.44-10.23-23.54-10.23l-203.26.2Z"/></clipPath></defs><circle class="cls-2" cx="158.67" cy="185.9" r="33.57"/><rect class="cls-3" x="151.1" y="168.09" width="15.35" height="20.88"/><polygon class="cls-3" points="158.67 203.7 145.16 185.08 172.39 185.08 158.67 203.7"/><polygon class="cls-4" points="472.05 619.22 347.8 619.22 366.64 550.24 453.01 550.24 472.05 619.22"/><path class="cls-4" d="M569.89,647.47H255.28V634.16a15,15,0,0,1,15-14.94H554.75a15,15,0,0,1,14.94,14.94l.2,13.31Z"/><path class="cls-5" d="M628,513v25.18A12.09,12.09,0,0,1,616,550.24h-412a12.09,12.09,0,0,1-12.08-12.07V513Z"/><path class="cls-6" d="M628,241V513H191.83V241a12.1,12.1,0,0,1,12.08-12.08H616A12.09,12.09,0,0,1,628,241Z"/><g class="cls-7"><path class="cls-4" d="M608,254.26V489a6.37,6.37,0,0,1-6.34,6.34H218.24a6.38,6.38,0,0,1-6.35-6.34V254.26a7.86,7.86,0,0,1,8-8H600A7.86,7.86,0,0,1,608,254.26Z"/></g><polyline class="cls-5" points="750.63 647.47 513.81 647.47 436.02 647.47 49.37 647.47"/><path class="cls-8" d="M153.55,646H277.6a19.87,19.87,0,0,0,19.85-19.86h0a19.87,19.87,0,0,0-19.85-19.85h-124Z"/><path class="cls-9" d="M277.6,639.28a13.1,13.1,0,0,0,0-26.2h-124v26.41l124.05-.21Z"/><line class="cls-10" x1="272.68" y1="621.47" x2="153.76" y2="621.47"/><line class="cls-10" x1="272.68" y1="630.68" x2="153.76" y2="630.68"/><path class="cls-3" d="M174.64,605.51h75.73a12.1,12.1,0,0,0,12.08-12.08h0a12.11,12.11,0,0,0-12.08-12.08H174.64Z"/><path class="cls-9" d="M250.37,601.41a8,8,0,1,0,0-16H174.64v16.17l75.73-.21Z"/><line class="cls-10" x1="247.3" y1="590.57" x2="174.84" y2="590.57"/><line class="cls-10" x1="247.3" y1="596.3" x2="174.84" y2="596.3"/><g class="cls-11"><ellipse class="cls-12" cx="361.23" cy="365.91" rx="14.94" ry="11.46" transform="translate(-6.04 725.76) rotate(-89.78)"/><ellipse class="cls-12" cx="459.23" cy="366.28" rx="14.94" ry="11.46" transform="translate(91.22 824.13) rotate(-89.78)"/><rect class="cls-13" x="407.41" y="390.48" width="7.98" height="30.09" transform="translate(4.33 815.4) rotate(-89.78)"/><path class="cls-2" d="M443.6,401.84l-67.14-.2A18.52,18.52,0,0,1,358,383l.2-34a18.53,18.53,0,0,1,18.63-18.42l67.14.21a18.52,18.52,0,0,1,18.42,18.62l-.2,34A18.79,18.79,0,0,1,443.6,401.84Z"/><path class="cls-14" d="M440.12,388.13l-60.38-.21a9.6,9.6,0,0,1-9.62-9.62V354.15a9.6,9.6,0,0,1,9.62-9.62l60.38.2a9.61,9.61,0,0,1,9.62,9.62v24.16A9.49,9.49,0,0,1,440.12,388.13Z"/><rect class="cls-13" x="403.93" y="317.41" width="15.97" height="5.12" transform="translate(90.4 730.67) rotate(-89.78)"/><path class="cls-2" d="M420.06,325.29H403.28a4.63,4.63,0,0,0-4.71,4.71v.61H425V330A4.94,4.94,0,0,0,420.06,325.29Z"/><circle class="cls-15" cx="411.67" cy="309.12" r="8.19"/><path class="cls-2" d="M453.83,512.17l-88.42-.41a16.2,16.2,0,0,1-16.17-16.17l.2-69.8a16.2,16.2,0,0,1,16.17-16.17L454,410a16.21,16.21,0,0,1,16.17,16.17L470,496A16.33,16.33,0,0,1,453.83,512.17Z"/><path class="cls-14" d="M448.31,468.78l-77.38-.21a13.28,13.28,0,0,1-13.3-13.3V431.11a13.27,13.27,0,0,1,13.3-13.3l77.38.2a13.28,13.28,0,0,1,13.3,13.31v24.15A13.28,13.28,0,0,1,448.31,468.78Z"/><path class="cls-16" d="M456.49,505.21l-93.74-.41a5.07,5.07,0,0,1-5.12-5.12V488.43a5.07,5.07,0,0,1,5.12-5.12l93.74.41a5.06,5.06,0,0,1,5.12,5.11v11.26A5.07,5.07,0,0,1,456.49,505.21Z"/><path class="cls-2" d="M470.82,419.45h-.61v20.87h.61a5.12,5.12,0,0,0,5.12-5.32V424.36A4.78,4.78,0,0,0,470.82,419.45Z"/><path class="cls-2" d="M476.14,434.39s46.26-.82,46.06-60.39h-9.83s2.67,45-36.23,51Z"/><line class="cls-17" x1="484.13" y1="423.13" x2="486.38" y2="432.55"/><line class="cls-17" x1="492.93" y1="418.83" x2="498.46" y2="427.22"/><line class="cls-17" x1="500.09" y1="412.49" x2="507.87" y2="419.24"/><line class="cls-17" x1="505.82" y1="404.3" x2="514.83" y2="409.01"/><line class="cls-17" x1="509.51" y1="394.88" x2="519.54" y2="396.72"/><line class="cls-17" x1="511.76" y1="384.65" x2="521.59" y2="384.65"/><path class="cls-15" d="M514.63,393h1.84a7.24,7.24,0,0,0,7.16-7.16V374h-16v11.88A6.83,6.83,0,0,0,514.63,393Z"/><path class="cls-14" d="M517.9,381.17v-3.69a11.06,11.06,0,0,0,7.57-10.64,11.53,11.53,0,0,0-7.57-10.64v-3.69a14.75,14.75,0,0,1,0,28.66Z"/><path class="cls-14" d="M513.4,381.17v-3.69a11.26,11.26,0,0,1,0-21.28v-3.69a14.51,14.51,0,0,0-11,14.33C502.55,373.8,506.85,379.53,513.4,381.17Z"/><circle class="cls-2" cx="515.44" cy="373.39" r="7.98"/><circle class="cls-14" cx="515.44" cy="373.39" r="4.3"/><path class="cls-2" d="M348.83,441.35h.61V420.47h-.61a5.37,5.37,0,0,0-5.32,5.12v10.64A5.24,5.24,0,0,0,348.83,441.35Z"/><path class="cls-2" d="M343.71,426.2s-46.26.41-46.46,60h9.82s-2.25-45,36.44-50.76Z"/><line class="cls-17" x1="335.52" y1="437.46" x2="333.27" y2="428.04"/><line class="cls-17" x1="326.72" y1="441.76" x2="321.19" y2="433.36"/><line class="cls-17" x1="319.35" y1="447.9" x2="311.78" y2="441.35"/><line class="cls-17" x1="313.83" y1="456.29" x2="304.82" y2="451.38"/><line class="cls-17" x1="309.94" y1="465.5" x2="299.91" y2="463.66"/><line class="cls-17" x1="307.69" y1="475.74" x2="297.66" y2="475.74"/><path class="cls-15" d="M304.82,467.34H303a7.12,7.12,0,0,0-7.17,7.17v11.87h16V474.51A7,7,0,0,0,304.82,467.34Z"/><path class="cls-14" d="M301.54,479.21v3.69a11.27,11.27,0,0,0,0,21.29v3.68a14.53,14.53,0,0,1-11.05-14.33A15,15,0,0,1,301.54,479.21Z"/><path class="cls-14" d="M306.05,479.42v3.68a11.09,11.09,0,0,1,7.57,10.65,11.54,11.54,0,0,1-7.57,10.64v3.69a14.93,14.93,0,0,0,11.26-14.33A14.7,14.7,0,0,0,306.05,479.42Z"/><circle class="cls-2" cx="304" cy="486.99" r="7.98"/><circle class="cls-14" cx="304" cy="486.99" r="4.3"/><path class="cls-9" d="M361.72,479.21a3.1,3.1,0,0,1-2-.81,2.62,2.62,0,0,1-.82-2v-.41a3.14,3.14,0,0,1,3.07-3.07l95.79.41a3.14,3.14,0,0,1,3.07,3.07v.41a3.14,3.14,0,0,1-3.07,3.07C457.52,479.42,361.72,479.21,361.72,479.21Z"/><path d="M361.72,474.3h0l95.8.41a1.4,1.4,0,0,1,1.43,1.43v.41a1.4,1.4,0,0,1-1.43,1.44h0l-95.8-.41a1.4,1.4,0,0,1-1.43-1.44v-.41a1.4,1.4,0,0,1,1.43-1.43m0-3.07a4.55,4.55,0,0,0-4.5,4.5v.41a5,5,0,0,0,1.23,3.28,4.08,4.08,0,0,0,3.27,1.43l95.8.41a4.55,4.55,0,0,0,4.5-4.5v-.41a5,5,0,0,0-1.23-3.28,4.81,4.81,0,0,0-3.27-1.43l-95.8-.41Z"/><rect class="cls-12" x="335.97" y="538.68" width="79.42" height="26" transform="translate(-177.4 925.28) rotate(-89.78)"/><path class="cls-15" d="M392.22,592.2a16.79,16.79,0,0,0-33.57,0"/><path class="cls-14" d="M386.7,549.42H364.18a5.5,5.5,0,0,1-5.53-5.52v-1.44a5.5,5.5,0,0,1,5.53-5.52H386.7a5.49,5.49,0,0,1,5.52,5.52v1.44A5.49,5.49,0,0,1,386.7,549.42Z"/><rect class="cls-12" x="401.68" y="538.88" width="79.42" height="26" transform="translate(-112.15 991.2) rotate(-89.78)"/><path class="cls-15" d="M457.93,592.41a16.79,16.79,0,1,0-33.57,0"/><path class="cls-14" d="M452.6,549.63H430.09a5.51,5.51,0,0,1-5.53-5.53v-1.43a5.51,5.51,0,0,1,5.53-5.53H452.6a5.5,5.5,0,0,1,5.53,5.53v1.43A5.5,5.5,0,0,1,452.6,549.63Z"/><circle class="cls-18" cx="387.51" cy="365" r="3.89"/><circle class="cls-18" cx="431.73" cy="365" r="3.89"/><path class="cls-19" d="M417.6,377.07a8.18,8.18,0,0,1-5.73,2.46,7.71,7.71,0,0,1-5.93-2.66"/></g><path class="cls-4" d="M727.3,404.91H529a19.22,19.22,0,0,1-19.24-19.24V187.33A19.22,19.22,0,0,1,529,168.09H727.3a19.22,19.22,0,0,1,19.24,19.24V385.67A19.34,19.34,0,0,1,727.3,404.91Z"/><path class="cls-20" d="M704.17,184.67a4.3,4.3,0,1,1-8.6,0,4.2,4.2,0,0,1,4.3-4.3A4.46,4.46,0,0,1,704.17,184.67Z"/><circle class="cls-4" cx="713.79" cy="184.67" r="4.3"/><circle class="cls-21" cx="726.89" cy="184.67" r="4.3"/><path class="cls-8" d="M713,277.19a43.17,43.17,0,0,0-3.48-8.4h0l2.25-7.16-14.12-14.12-7.17,2.25h0a42.83,42.83,0,0,0-8.39-3.48h0l-3.48-6.55H658.52L655,246.28a43.08,43.08,0,0,0-8.39,3.48h0l-7.16-2.25-14.13,14.12,2.26,7.16h0a42,42,0,0,0-3.48,8.4l-6.55,3.48v20.06l6.55,3.48h0a41.88,41.88,0,0,0,3.48,8.39h0l-2.26,7.16,14.13,14.13,7.16-2.26a42.47,42.47,0,0,0,8.39,3.48l3.48,6.55h20.06l3.48-6.55h0a42.23,42.23,0,0,0,8.39-3.48l7.17,2.26,14.12-14.13-2.25-7.16h0a43.08,43.08,0,0,0,3.48-8.39h0l6.55-3.48V280.67Zm-44.62,49.74a36.23,36.23,0,1,1,36.23-36.23,36.17,36.17,0,0,1-36.23,36.23Z"/><path class="cls-8" d="M668.35,259.58a31.12,31.12,0,1,0,31.11,31.12A31.1,31.1,0,0,0,668.35,259.58Zm0,58.13a27,27,0,1,1,27-27h0A27,27,0,0,1,668.35,317.71Z"/><path class="cls-22" d="M713,277.19a43.17,43.17,0,0,0-3.48-8.4h0l2.25-7.16-14.12-14.12-7.17,2.25h0a42.83,42.83,0,0,0-8.39-3.48h0l-3.48-6.55H658.52L655,246.28a43.08,43.08,0,0,0-8.39,3.48h0l-7.16-2.25-14.13,14.12,2.26,7.16h0a42,42,0,0,0-3.48,8.4l-6.55,3.48v20.06l6.55,3.48h0a41.88,41.88,0,0,0,3.48,8.39h0l-2.26,7.16,14.13,14.13,7.16-2.26a42.47,42.47,0,0,0,8.39,3.48l3.48,6.55h20.06l3.48-6.55h0a42.23,42.23,0,0,0,8.39-3.48l7.17,2.26,14.12-14.13-2.25-7.16h0a43.08,43.08,0,0,0,3.48-8.39h0l6.55-3.48V280.67Zm-44.62,49.74a36.23,36.23,0,1,1,36.23-36.23,36.17,36.17,0,0,1-36.23,36.23Z"/><path class="cls-22" d="M668.35,259.58a31.12,31.12,0,1,0,31.11,31.12A31.1,31.1,0,0,0,668.35,259.58Zm0,58.13a27,27,0,1,1,27-27h0A27,27,0,0,1,668.35,317.71Z"/><path class="cls-8" d="M587.29,316.9a17.46,17.46,0,0,0-1.84-4.51l1.23-3.89-7.58-7.57-3.89,1.23a17.25,17.25,0,0,0-4.5-1.84l-1.84-3.48H558.23l-1.85,3.48a17.39,17.39,0,0,0-4.5,1.84L548,300.93l-7.57,7.57,1.23,3.89a17.48,17.48,0,0,0-1.85,4.51l-3.47,1.84v10.64l3.47,1.84a17.48,17.48,0,0,0,1.85,4.51l-1.23,3.89,7.57,7.57,3.89-1.23a17.39,17.39,0,0,0,4.5,1.84l1.85,3.48h10.64l1.84-3.48a17.25,17.25,0,0,0,4.5-1.84l3.89,1.23,7.58-7.57-1.23-3.89a17.46,17.46,0,0,0,1.84-4.51l3.48-1.84V318.74ZM563.55,339a15.15,15.15,0,1,1,15.14-15.14A15.11,15.11,0,0,1,563.55,339Z"/><path class="cls-8" d="M587.29,316.9a17.46,17.46,0,0,0-1.84-4.51l1.23-3.89-7.58-7.57-3.89,1.23a17.25,17.25,0,0,0-4.5-1.84l-1.84-3.48H558.23l-1.85,3.48a17.39,17.39,0,0,0-4.5,1.84L548,300.93l-7.57,7.57,1.23,3.89a17.48,17.48,0,0,0-1.85,4.51l-3.47,1.84v10.64l3.47,1.84a17.48,17.48,0,0,0,1.85,4.51l-1.23,3.89,7.57,7.57,3.89-1.23a17.39,17.39,0,0,0,4.5,1.84l1.85,3.48h10.64l1.84-3.48a17.25,17.25,0,0,0,4.5-1.84l3.89,1.23,7.58-7.57-1.23-3.89a17.46,17.46,0,0,0,1.84-4.51l3.48-1.84V318.74ZM563.55,339a15.15,15.15,0,1,1,15.14-15.14A15.11,15.11,0,0,1,563.55,339Z"/><path class="cls-8" d="M563.55,318.94a4.92,4.92,0,1,0,4.91,4.92h0A4.73,4.73,0,0,0,563.55,318.94Z"/><path class="cls-22" d="M587.29,316.9a17.46,17.46,0,0,0-1.84-4.51l1.23-3.89-7.58-7.57-3.89,1.23a17.25,17.25,0,0,0-4.5-1.84l-1.84-3.48H558.23l-1.85,3.48a17.39,17.39,0,0,0-4.5,1.84L548,300.93l-7.57,7.57,1.23,3.89a17.48,17.48,0,0,0-1.85,4.51l-3.47,1.84v10.64l3.47,1.84a17.48,17.48,0,0,0,1.85,4.51l-1.23,3.89,7.57,7.57,3.89-1.23a17.39,17.39,0,0,0,4.5,1.84l1.85,3.48h10.64l1.84-3.48a17.25,17.25,0,0,0,4.5-1.84l3.89,1.23,7.58-7.57-1.23-3.89a17.46,17.46,0,0,0,1.84-4.51l3.48-1.84V318.74ZM563.55,339a15.15,15.15,0,1,1,15.14-15.14A15.11,15.11,0,0,1,563.55,339Z"/><path class="cls-8" d="M563.55,318.94a4.92,4.92,0,1,0,4.91,4.92h0A4.73,4.73,0,0,0,563.55,318.94Z"/><path class="cls-3" d="M596.91,307.28l-4.09-1.64-.21-1.43c-.41-.41-.82-.62-1-1l-1.43-.2-1.64-4.1,1-1.22v-1.44l-1-1.23,1.64-4.09,1.43-.2c.41-.41.61-.82,1-1l.21-1.43,4.09-1.64,1.23,1h1.43l1.23-1,4.09,1.64.21,1.43c.41.41.82.62,1,1l1.44.2,1.63,4.09-1,1.23v1.44l1,1.22-1.63,4.1-1.44.2c-.41.41-.61.82-1,1l-.21,1.43-4.09,1.64-1.23-1h-1.43Zm3.07-1.85,1,.82,3.07-1.23.21-1.43.2-.2,1.23-1.23.21-.21,1.43-.2,1.23-3.07-.82-1v-2.05l.82-1-1.23-3.07-1.43-.21-.21-.2-1.23-1.23-.2-.21-.21-1.43L601,287l-1,.82h-2.05l-1-.82-3.07,1.23-.2,1.43-.21.21-1.23,1.23-.2.2-1.44.21-1.22,3.07.81,1v2.05l-.81,1,1.22,3.07,1.44.2.2.21,1.23,1.23.21.2.2,1.43,3.07,1.23,1-.82H600Z"/><path class="cls-3" d="M600.6,301.14a4.68,4.68,0,1,1,2.45-6.15h0a4.44,4.44,0,0,1-2.45,6.15Z"/><path class="cls-5" d="M563.75,296.84V223.15A19.22,19.22,0,0,1,583,203.91h66.32a19.22,19.22,0,0,1,19.24,19.24v16.37"/><path class="cls-23" d="M663.84,486.58,614.1,497.64c-2.86-12.08-6.14-23.95-10-35.82-1.23-3.89-3.89-6.76-5.94-10.65a88.15,88.15,0,0,0-8.6-12.89l-20.88-26.2a4.87,4.87,0,0,1,2.67-8c5.11-1,12.28,0,20.26,9.42a71.55,71.55,0,0,1-1.23-15.35c.62-13.1,2.25-28.45,3.28-39.51.82-10.44,4.09-14.12,8-13.92,4.09.41,6.55,2.26,6.55,14.54,0,11.66-.61,26.2-.61,26.2s8.18-9.42,17.6-.41c0,0,8.6-7.37,17.4,0,0,0,11.05-7.17,16.37,2,2.87,4.92,1.43,31.32,0,51.79C657.7,454.86,658.32,471,663.84,486.58Z"/><line class="cls-24" x1="607.56" y1="385.06" x2="606.53" y2="397.95"/><line class="cls-24" x1="625.16" y1="384.65" x2="623.93" y2="399.39"/><line class="cls-24" x1="642.56" y1="384.65" x2="641.74" y2="400.82"/><path class="cls-6" d="M585.86,647.67l.41-192.4a4.54,4.54,0,0,1,4.5-4.51h69.39a4.54,4.54,0,0,1,4.5,4.51V487l-.2,160.68Z"/><path class="cls-4" d="M267.57,525.27H94.6A19.22,19.22,0,0,1,75.36,506V393.25A19.22,19.22,0,0,1,94.6,374h173a19.22,19.22,0,0,1,19.24,19.25V506A19.22,19.22,0,0,1,267.57,525.27Z"/><polygon class="cls-25" points="208.41 449.54 158.67 420.88 158.67 478.19 208.41 449.54"/><line class="cls-5" x1="92.15" y1="501.12" x2="270.02" y2="501.12"/><circle class="cls-4" cx="227.45" cy="501.12" r="5.94"/></svg>