<svg id="图层_1" data-name="图层 1" xmlns="http://www.w3.org/2000/svg" xmlns:xlink="http://www.w3.org/1999/xlink" viewBox="0 0 800 800"><defs><style>.cls-1,.cls-10,.cls-2{fill:none;}.cls-10,.cls-2,.cls-3,.cls-5,.cls-7,.cls-8,.cls-9{stroke:#000;stroke-width:1.5px;}.cls-2,.cls-3,.cls-5,.cls-8,.cls-9{stroke-miterlimit:10;}.cls-3{fill:#ddd;}.cls-4{fill:#f2f2f2;}.cls-5,.cls-6,.cls-7{fill:#fff;}.cls-10,.cls-7{stroke-linecap:round;stroke-linejoin:round;}.cls-8{fill:#7cc996;}.cls-9{fill:#66ad7e;}.cls-11{fill:#40adff;}.cls-12{fill:#ffc609;}.cls-13{clip-path:url(#clip-path);}</style><clipPath id="clip-path"><path class="cls-1" d="M571.09,398.14,435,413.46c-11.1.36-20,5.14-21.35,20l-26.4,134.71,90.84,97.88a8.19,8.19,0,0,0,11.7.47l172.43-158.7a8.19,8.19,0,0,0,.47-11.7Z"/></clipPath></defs><line class="cls-2" x1="49.32" y1="694.64" x2="750.68" y2="694.64"/><rect class="cls-2" x="84.17" y="671.41" width="631.67" height="23.23"/><rect class="cls-3" x="164.4" y="648.17" width="470.85" height="23.23"/><circle class="cls-4" cx="608.01" cy="578.84" r="35.94"/><path class="cls-5" d="M634.88,381.35,515.08,256.11a20.41,20.41,0,0,0-24.32-4L336.47,330.16h0c-4.36,2.54-8,5.45-9.08,10.53L296.9,521.84a13.78,13.78,0,0,0,10.89,15.61L592.4,585.73A13.79,13.79,0,0,0,608,574.84l30.49-181.15A13.21,13.21,0,0,0,634.88,381.35Z"/><polyline class="cls-5" points="296.9 523.29 429.77 440.52 508.55 453.95 608.01 575.93"/><path class="cls-5" d="M327.76,338.88l125.61,129.6a20.41,20.41,0,0,0,24.32,4l161.18-81"/><path class="cls-6" d="M467.89,476.83c-6.54,0-12.71-3.27-18.15-10.17l-96.57-99.47L375,234.32c.73-5.44,5.45-9.07,10.89-9.07h1.82l230.88,39.21a11.08,11.08,0,0,1,9.08,12.7L605.84,410,481.68,472.11a24.32,24.32,0,0,1-13.79,4.72Z"/><path class="cls-2" d="M386.21,227.79h1.45L618.54,267a8.46,8.46,0,0,1,6.9,9.44L603.66,408.21,480.59,469.93a24.4,24.4,0,0,1-12.7,4c-6.17,0-11.62-3.63-16-9.07l-95.47-98.38,21.78-131.78a7.88,7.88,0,0,1,8-6.9"/><polygon class="cls-7" points="301.98 551.25 179.28 551.25 190.53 648.17 290.73 648.17 301.98 551.25"/><path class="cls-8" d="M240.63,431.81s-46.1,47.92,0,114.35C286.37,479.73,240.63,431.81,240.63,431.81Z"/><path class="cls-9" d="M317.23,480.09s-54.09,1.09-66.07,66.07C316.14,534.18,317.23,480.09,317.23,480.09Z"/><path class="cls-9" d="M164,480.09s54.09,1.09,66.07,66.07C165.12,534.18,164,480.09,164,480.09Z"/><line class="cls-10" x1="176.38" y1="585.37" x2="274.76" y2="585.37"/><path class="cls-2" d="M359.7,217.26,197.07,263.37a2.61,2.61,0,0,1-3.27-1.82L163.67,154.82a2.61,2.61,0,0,1,1.81-3.27l162.64-46.1a2.6,2.6,0,0,1,3.27,1.82L361.52,214A2.59,2.59,0,0,1,359.7,217.26Z"/><polyline class="cls-2" points="193.07 257.56 239.54 184.95 282.02 172.97 360.43 210.36"/><polyline class="cls-5" points="164.76 153.73 265.68 191.49 332.11 106.17"/><rect class="cls-11" x="455.73" y="204.37" width="74.78" height="205.47" transform="translate(109.43 743.31) rotate(-80.58)"/><rect class="cls-12" x="473.08" y="268.61" width="19.24" height="205.47" transform="translate(37.35 786.74) rotate(-80.58)"/><g class="cls-13"><rect class="cls-11" x="417.76" y="354.26" width="74.78" height="163.36" transform="translate(-49.42 813.59) rotate(-80.58)"/></g><path class="cls-2" d="M346.27,159.9s175-53,216.37,97.66"/></svg>