<svg id="图层_1" data-name="图层 1" xmlns="http://www.w3.org/2000/svg" viewBox="0 0 800 800"><defs><style>.cls-1,.cls-2{fill:none;}.cls-1,.cls-2,.cls-3,.cls-4,.cls-6,.cls-7{stroke:#000;stroke-width:1.5px;}.cls-1,.cls-3,.cls-4,.cls-7{stroke-miterlimit:10;}.cls-2,.cls-6{stroke-linecap:round;stroke-linejoin:round;}.cls-3,.cls-9{fill:#2d2d2d;}.cls-4,.cls-5{fill:#f2f2f2;}.cls-10,.cls-6{fill:#fff;}.cls-7{fill:#7cc996;}.cls-8{fill:#40adff;}.cls-11{fill:#dbdbdb;}.cls-12{fill:#ffc609;}</style></defs><path class="cls-1" d="M170.17,524.06v47a12.26,12.26,0,0,0,12.47,12.47H429.92"/><line class="cls-2" x1="38.84" y1="632.94" x2="761.16" y2="632.94"/><rect class="cls-3" x="465.25" y="307.11" width="209.05" height="9.97"/><rect class="cls-4" x="506.81" y="338.28" width="209.05" height="9.97"/><path class="cls-5" d="M560,515.33H135.26a53.3,53.3,0,0,1-53.19-53.2V229a53.3,53.3,0,0,1,53.19-53.2H560A53.3,53.3,0,0,1,613.2,229V462.13C613.62,491.64,589.51,515.33,560,515.33Z"/><path class="cls-6" d="M556.27,494.55H142.33a34.42,34.42,0,0,1-34.5-34.5V233.14a34.42,34.42,0,0,1,34.5-34.5H556.27a34.41,34.41,0,0,1,34.49,34.5V460.05A34.41,34.41,0,0,1,556.27,494.55Z"/><rect class="cls-7" x="153.97" y="515.33" width="32.83" height="18.29"/><rect class="cls-7" x="163.11" y="533.61" width="14.55" height="14.55"/><path class="cls-6" d="M422,369.87s34.49-16.62,52.78-16.62c17.87,0,55.27,16.62,55.27,16.62l-53.61,61.92Z"/><path class="cls-8" d="M317.3,562.29l-9.15-83.95L258.28,546.5a32.64,32.64,0,0,0,7.07,45.71h0a32.59,32.59,0,0,0,22.85,6.24C306.49,596.37,319.37,580.58,317.3,562.29Z"/><line class="cls-2" x1="578.29" y1="437.2" x2="578.29" y2="598.86"/><rect class="cls-4" x="228.77" y="598.86" width="515.76" height="34.08"/><path class="cls-8" d="M264.93,592.21h0a32.62,32.62,0,0,1-7.06-45.71l103.9-143a32.63,32.63,0,0,1,45.71-7.06h0a32.64,32.64,0,0,1,7.07,45.71l-103.9,143A32.65,32.65,0,0,1,264.93,592.21Z"/><path class="cls-9" d="M475.22,428.05l31.17-67.32c.42-.83,1.67-1.67,2.5-1.25L530.5,369Z"/><path class="cls-9" d="M475.22,428.05l-31.58-66.49c-.42-.83-1.66-1.66-2.5-1.25L420.36,369Z"/><path class="cls-10" d="M474.39,394.39c-14.54,0-26.18-12.05-26.18-27v-10a3.52,3.52,0,0,1,2.91-3.32l47.79-.42a3.22,3.22,0,0,1,2.08.83,3.17,3.17,0,0,1,.83,2.08V367c0,14.55-12.05,26.6-26.18,26.6h-.83Z"/><path d="M498.91,357.4v10.39a23.86,23.86,0,0,1-23.27,23.69h-.83c-12.89,0-23.28-10.81-23.28-23.69v-10l47.38-.42"/><path class="cls-6" d="M498.91,351.17h0l-47.79.41a6.4,6.4,0,0,0-6.24,6.24v10c0,16.21,13.3,29.92,29.51,29.92h1.66c16.21-.41,29.51-13.71,29.51-29.92V357.4a7.09,7.09,0,0,0-6.65-6.23Z"/><path class="cls-11" d="M492.76,361.18s-21.61,12.89-44.88,13.72a21.93,21.93,0,0,1-2.5-12.89C445.38,362.43,465.75,373.65,492.76,361.18Z"/><path class="cls-6" d="M474.81,369.45h0a55.69,55.69,0,0,1-55.69-55.69V273.45a55.69,55.69,0,0,1,55.69-55.69h0a55.7,55.7,0,0,1,55.69,55.69v40.31A55.69,55.69,0,0,1,474.81,369.45Z"/><path class="cls-6" d="M419.12,286.75S407.9,285.5,405,293s0,20.78,14.13,21.2Z"/><path class="cls-6" d="M409.14,297.55s7.48.84,9.56,5.41"/><path class="cls-6" d="M530.5,286.75s11.22-1.25,14.13,6.23,0,20.78-14.13,21.2Z"/><path class="cls-6" d="M540.06,297.55s-7.48.84-9.56,5.41"/><polygon class="cls-11" points="479.38 327.89 473.15 327.89 474.81 300.05 467.33 327.89 479.38 327.89"/><polyline class="cls-2" points="474.81 300.05 473.15 327.89 479.38 327.89"/><path class="cls-10" d="M284.88,601.77a36,36,0,0,1-35.74-32L230.44,397.3a7.25,7.25,0,0,1,1.66-5c1.24-1.25,2.91-2.49,4.57-2.49l57.77-6.24h.83c3.32,0,6.65,2.5,6.65,6.24l18.7,172.47c2.08,19.53-12.05,37.4-31.59,39.48Z"/><path class="cls-6" d="M484.37,343.27s6.65-.83,10.39-5"/><path d="M540.06,256.41c-2.5-25.35-28.68-59-66.92-46.55-38.23-12.46-64.41,21.2-66.91,46.55s9.56,30.34,9.56,30.34,3.74,5.4,19.12,0c15.79-5.4,7.9-26.18,16.62-35.33s21.2,0,21.2,0,12.47-9.14,21.2,0,1.24,29.93,16.62,35.33c15.79,5.4,19.12,0,19.12,0S542.55,281.76,540.06,256.41Z"/><path class="cls-6" d="M213,349.92s7.07,14.13,17.46,23.27a92.84,92.84,0,0,1,16.2,17.46l39.49-4.16S282,347,274.9,326.23c-5-14.54-8.31-34.49-10-44.88a4.51,4.51,0,0,0-8.73-.83,14.69,14.69,0,0,0-.41,8.72c1.66,14.55,0,28.68-2.08,40.73-2.08,11.64-.83,33.25-.83,33.25"/><path class="cls-6" d="M218,386.49l-3.74-1.24,60.68-172.89a1.84,1.84,0,0,1,2.49-1.25h0a1.85,1.85,0,0,1,1.25,2.49Z"/><path class="cls-2" d="M209.66,331.22s-12.47,6.23,0,29.51,10.8-4.58,10.8-4.58"/><path class="cls-6" d="M214.23,321.24s-13.3,12.06,3.74,32.42,9.14-5.4,9.14-5.4"/><path class="cls-6" d="M223.79,307.53s-16.21,7.48-5.82,32,11.22-2.08,11.22-2.08"/><path class="cls-6" d="M243.32,300.46c-2.08-4.15-4.57-6.65-8.73-7.89-14.13-4.16-12.47,39.06-5.4,44.88,7.48,5.82,10.39-30.34,10.39-30.34"/><line class="cls-2" x1="246.23" y1="306.28" x2="254.96" y2="321.24"/><circle class="cls-6" cx="447.79" cy="302.13" r="19.53"/><circle class="cls-6" cx="501.82" cy="302.13" r="19.53"/><line class="cls-1" x1="467.33" y1="302.13" x2="482.29" y2="302.13"/><path class="cls-3" d="M473.15,172.46H411.22a210.3,210.3,0,0,1,7.48,55.27H526.76a214.33,214.33,0,0,1,7.48-55.27Z"/><path class="cls-3" d="M544.63,178.69H402.08a5.68,5.68,0,0,1-5.82-5.81h0a5.68,5.68,0,0,1,5.82-5.82H544.63a5.68,5.68,0,0,1,5.82,5.82h0A6,6,0,0,1,544.63,178.69Z"/><line class="cls-1" x1="540.47" y1="178.69" x2="540.47" y2="220.67"/><circle class="cls-3" cx="540.47" cy="225.24" r="7.48"/><path class="cls-8" d="M592.84,414.34a35.63,35.63,0,0,0-12.47-19.12c-9.14-7.06-41.56-22.44-49.87-26.18-1.25-.42-2.5-.42-3.33.83l-52.36,57.77-51.95-57.36c-1.25-1.24-2.91-1.66-4.16-.83-9.14,4.16-40.31,18.7-49.45,25.77-.42.41-.84.41-1.25.83-7.48,6.23-11.22,15.79-11.22,25.35L363,597.2H634Z"/><line class="cls-2" x1="569.98" y1="453.4" x2="569.98" y2="598.86"/><path class="cls-5" d="M475.22,428.05,528,369.45c.42-.83,1.67-.83,2.5-.41,6.65,2.08,35.32,12.47,52,27,.41,0,0,.42,0,.42Z"/><path class="cls-5" d="M475.22,428.05l-52.78-58.6c-.41-.83-1.66-.83-2.49-.41-6.65,2.08-35.33,12.47-51.95,27-.42,0,0,.42,0,.42Z"/><path class="cls-6" d="M350.13,599.28H535.9V491.64a13.84,13.84,0,0,0-13.71-13.72H364.26a13.85,13.85,0,0,0-13.72,13.72l-.41,107.64Z"/><circle class="cls-12" cx="442.81" cy="538.6" r="19.53"/><path class="cls-6" d="M548.37,591H535.9v7.89h12.47a4.16,4.16,0,0,0,4.15-4.15h0C552.11,593.05,550.45,591,548.37,591Z"/><path class="cls-6" d="M295.28,379.18H294l-57.76,6.24a9.54,9.54,0,0,0-8.73,10.8l18.7,172.47a38.78,38.78,0,0,0,38.65,34.91,14.35,14.35,0,0,0,4.16-.41,40.15,40.15,0,0,0,26.18-14.13,37.92,37.92,0,0,0,8.31-28.68l-18.7-172.47c0-5-4.16-8.73-9.56-8.73Z"/></svg>