<svg id="图层_1" data-name="图层 1" xmlns="http://www.w3.org/2000/svg" xmlns:xlink="http://www.w3.org/1999/xlink" viewBox="0 0 800 800"><defs><style>.cls-1,.cls-6,.cls-8{fill:none;}.cls-2{fill:#f8f9fa;}.cls-3{clip-path:url(#clip-path);}.cls-4,.cls-7{fill:#40adff;}.cls-4,.cls-5,.cls-6,.cls-8,.cls-9{stroke:#000;stroke-width:1.5px;}.cls-4,.cls-5,.cls-6,.cls-9{stroke-miterlimit:10;}.cls-5{fill:#fff;}.cls-8{stroke-linecap:round;stroke-linejoin:round;}.cls-9{fill:#ffc607;}</style><clipPath id="clip-path"><circle class="cls-1" cx="400" cy="400" r="338.96"/></clipPath></defs><circle class="cls-2" cx="400" cy="400" r="338.96"/><g class="cls-3"><path class="cls-4" d="M366.1,589.26H591.51v34.46H366.1Z"/><path class="cls-4" d="M591.51,589.26H557.05l17.52-277.39H609Z"/><path class="cls-5" d="M161.59,467.79H343.5a30.07,30.07,0,0,1,26,17.52l69.49,104H387l-34.47-52a34,34,0,0,0-26-17.51H240.12a17.51,17.51,0,0,0,0,35h83.05a34.47,34.47,0,0,1,0,68.93h-248v-104Z"/><line class="cls-6" x1="508.47" y1="211.87" x2="560.44" y2="211.87"/><line class="cls-6" x1="512.99" y1="244.64" x2="597.73" y2="244.64"/><circle class="cls-7" cx="361.58" cy="313.56" r="146.88"/><path class="cls-5" d="M196.06,307.91a90.82,90.82,0,0,0-.57,12.43A145.75,145.75,0,0,0,341.25,466.1,142.57,142.57,0,0,0,455.36,409h50.85L474.57,377.4c7.91-18.08,12.43-37.29,12.43-57.06a145.49,145.49,0,0,0-277.95-60.45"/><polyline class="cls-8" points="418.08 378.53 394.35 262.72 394.35 262.72 335.6 378.53 277.41 262.72 277.41 262.72 253.68 378.53"/><rect class="cls-9" x="375.71" y="244.64" width="35.59" height="35.59"/><rect class="cls-9" x="258.76" y="244.64" width="35.59" height="35.59"/><rect class="cls-9" x="318.08" y="361.58" width="35.59" height="35.59"/><rect class="cls-9" x="400" y="361.58" width="35.59" height="35.59"/><rect class="cls-9" x="236.73" y="361.58" width="35.59" height="35.59"/></g></svg>