<svg id="图层_1" data-name="图层 1" xmlns="http://www.w3.org/2000/svg" xmlns:xlink="http://www.w3.org/1999/xlink" viewBox="0 0 24 24"><defs><style>.cls-1{clip-path:url(#clip-path);}</style><clipPath id="clip-path"><path d="M7.86,13.44a.51.51,0,0,0-.15.36.51.51,0,0,0,.15.35l.2.2a.48.48,0,0,0,.36.15h7.16a.48.48,0,0,0,.36-.15l.2-.2a.51.51,0,0,0,.15-.35.51.51,0,0,0-.15-.36L12.35,9.65a.48.48,0,0,0-.7,0Z"/></clipPath></defs><path d="M7.86,13.44a.51.51,0,0,0-.15.36.51.51,0,0,0,.15.35l.2.2a.48.48,0,0,0,.36.15h7.16a.48.48,0,0,0,.36-.15l.2-.2a.51.51,0,0,0,.15-.35.51.51,0,0,0-.15-.36L12.35,9.65a.48.48,0,0,0-.7,0Z"/><g class="cls-1"><rect x="6.71" y="8.5" width="10.58" height="7"/></g></svg>