<svg id="图层_1" data-name="图层 1" xmlns="http://www.w3.org/2000/svg" xmlns:xlink="http://www.w3.org/1999/xlink" viewBox="0 0 24 24"><defs><style>.cls-1{clip-path:url(#clip-path);}</style><clipPath id="clip-path"><path d="M10.56,16.14a.51.51,0,0,1-.36.15.51.51,0,0,1-.35-.15l-.2-.2a.48.48,0,0,1-.15-.36V8.42a.48.48,0,0,1,.15-.36l.2-.2a.51.51,0,0,1,.35-.15.51.51,0,0,1,.36.15l3.79,3.79a.48.48,0,0,1,0,.7Z"/></clipPath></defs><path d="M10.56,16.14a.51.51,0,0,1-.36.15.51.51,0,0,1-.35-.15l-.2-.2a.48.48,0,0,1-.15-.36V8.42a.48.48,0,0,1,.15-.36l.2-.2a.51.51,0,0,1,.35-.15.51.51,0,0,1,.36.15l3.79,3.79a.48.48,0,0,1,0,.7Z"/><g class="cls-1"><rect x="8.5" y="6.71" width="7" height="10.58"/></g></svg>