<svg id="图层_1" data-name="图层 1" xmlns="http://www.w3.org/2000/svg" xmlns:xlink="http://www.w3.org/1999/xlink" viewBox="0 0 24 24"><defs><style>.cls-1{clip-path:url(#clip-path);}</style><clipPath id="clip-path"><path d="M21,19H3v2H21Zm-9.7-2.2a.76.76,0,0,0,.5.2h.4a.76.76,0,0,0,.5-.2l5.1-5.1a.48.48,0,0,0,0-.7l-.7-.7a.48.48,0,0,0-.7,0L13,13.7V3.5a.47.47,0,0,0-.5-.5h-1a.47.47,0,0,0-.5.5V13.7L7.6,10.3c-.2-.3-.6-.3-.7-.1l-.7.7a.48.48,0,0,0,0,.7Z"/></clipPath></defs><path d="M21,19H3v2H21Zm-9.7-2.2a.76.76,0,0,0,.5.2h.4a.76.76,0,0,0,.5-.2l5.1-5.1a.48.48,0,0,0,0-.7l-.7-.7a.48.48,0,0,0-.7,0L13,13.7V3.5a.47.47,0,0,0-.5-.5h-1a.47.47,0,0,0-.5.5V13.7L7.6,10.3c-.2-.3-.6-.3-.7-.1l-.7.7a.48.48,0,0,0,0,.7Z"/><g class="cls-1"><rect x="2" y="2" width="20" height="20"/></g></svg>