<svg id="图层_1" data-name="图层 1" xmlns="http://www.w3.org/2000/svg" xmlns:xlink="http://www.w3.org/1999/xlink" viewBox="0 0 24 24"><defs><style>.cls-1{clip-path:url(#clip-path);}</style><clipPath id="clip-path"><path d="M20.5,10h-5a.5.5,0,0,1-.5-.5V9.21a.48.48,0,0,1,.15-.36l1.78-1.78A6.89,6.89,0,0,0,12,5a7,7,0,1,0,7,7.47.49.49,0,0,1,.5-.47h1a.52.52,0,0,1,.36.16.5.5,0,0,1,.13.37,9,9,0,1,1-2.62-6.89l1.49-1.49A.47.47,0,0,1,20.21,4h.29a.5.5,0,0,1,.5.5v5A.51.51,0,0,1,20.5,10Z"/></clipPath></defs><path d="M20.5,10h-5a.5.5,0,0,1-.5-.5V9.21a.48.48,0,0,1,.15-.36l1.78-1.78A6.89,6.89,0,0,0,12,5a7,7,0,1,0,7,7.47.49.49,0,0,1,.5-.47h1a.52.52,0,0,1,.36.16.5.5,0,0,1,.13.37,9,9,0,1,1-2.62-6.89l1.49-1.49A.47.47,0,0,1,20.21,4h.29a.5.5,0,0,1,.5.5v5A.51.51,0,0,1,20.5,10Z"/><g class="cls-1"><rect x="2" y="2" width="20" height="20"/></g></svg>