<svg id="图层_1" data-name="图层 1" xmlns="http://www.w3.org/2000/svg" xmlns:xlink="http://www.w3.org/1999/xlink" viewBox="0 0 24 24"><defs><style>.cls-1{clip-path:url(#clip-path);}</style><clipPath id="clip-path"><path d="M15.09,13.86a.48.48,0,0,1,0,.7l-.53.53a.48.48,0,0,1-.7,0L12,13.24l-1.86,1.85a.48.48,0,0,1-.7,0l-.53-.53a.48.48,0,0,1,0-.7L10.76,12,8.91,10.14a.48.48,0,0,1,0-.7l.53-.53a.48.48,0,0,1,.7,0L12,10.76l1.86-1.85a.48.48,0,0,1,.7,0l.53.53a.48.48,0,0,1,0,.7L13.24,12ZM12,2a10,10,0,1,0,7.07,2.93A10,10,0,0,0,12,2Z"/></clipPath></defs><path d="M15.09,13.86a.48.48,0,0,1,0,.7l-.53.53a.48.48,0,0,1-.7,0L12,13.24l-1.86,1.85a.48.48,0,0,1-.7,0l-.53-.53a.48.48,0,0,1,0-.7L10.76,12,8.91,10.14a.48.48,0,0,1,0-.7l.53-.53a.48.48,0,0,1,.7,0L12,10.76l1.86-1.85a.48.48,0,0,1,.7,0l.53.53a.48.48,0,0,1,0,.7L13.24,12ZM12,2a10,10,0,1,0,7.07,2.93A10,10,0,0,0,12,2Z"/><g class="cls-1"><rect x="1" y="1" width="22" height="22"/></g></svg>