<svg id="图层_1" data-name="图层 1" xmlns="http://www.w3.org/2000/svg" xmlns:xlink="http://www.w3.org/1999/xlink" viewBox="0 0 24 24"><defs><style>.cls-1{clip-path:url(#clip-path);}</style><clipPath id="clip-path"><path d="M17.85,16.44a.51.51,0,0,1,.15.35.51.51,0,0,1-.15.36l-.7.7a.51.51,0,0,1-.35.15.51.51,0,0,1-.36-.15L12,13.41,7.56,17.85A.51.51,0,0,1,7.2,18a.51.51,0,0,1-.35-.15l-.7-.7A.51.51,0,0,1,6,16.79a.51.51,0,0,1,.15-.35L10.59,12,6.15,7.56A.51.51,0,0,1,6,7.21a.51.51,0,0,1,.15-.36l.7-.7A.51.51,0,0,1,7.2,6a.51.51,0,0,1,.36.15L12,10.59l4.44-4.44A.51.51,0,0,1,16.8,6a.51.51,0,0,1,.35.15l.7.7a.51.51,0,0,1,.15.36.51.51,0,0,1-.15.35L13.41,12Z"/></clipPath></defs><path d="M17.85,16.44a.51.51,0,0,1,.15.35.51.51,0,0,1-.15.36l-.7.7a.51.51,0,0,1-.35.15.51.51,0,0,1-.36-.15L12,13.41,7.56,17.85A.51.51,0,0,1,7.2,18a.51.51,0,0,1-.35-.15l-.7-.7A.51.51,0,0,1,6,16.79a.51.51,0,0,1,.15-.35L10.59,12,6.15,7.56A.51.51,0,0,1,6,7.21a.51.51,0,0,1,.15-.36l.7-.7A.51.51,0,0,1,7.2,6a.51.51,0,0,1,.36.15L12,10.59l4.44-4.44A.51.51,0,0,1,16.8,6a.51.51,0,0,1,.35.15l.7.7a.51.51,0,0,1,.15.36.51.51,0,0,1-.15.35L13.41,12Z"/><g class="cls-1"><rect x="5" y="5" width="14" height="14"/></g></svg>