<svg id="图层_1" data-name="图层 1" xmlns="http://www.w3.org/2000/svg" xmlns:xlink="http://www.w3.org/1999/xlink" viewBox="0 0 24 24"><defs><style>.cls-1{clip-path:url(#clip-path);}</style><clipPath id="clip-path"><path d="M11.28,15.24a.75.75,0,0,0,.53.22h.38a.75.75,0,0,0,.53-.22l5.13-5.14A.51.51,0,0,0,18,9.75a.55.55,0,0,0-.15-.36l-.71-.71a.51.51,0,0,0-.7,0L12,13.13,7.56,8.68a.51.51,0,0,0-.36-.14.5.5,0,0,0-.35.14l-.7.71A.55.55,0,0,0,6,9.75a.51.51,0,0,0,.15.35Z"/></clipPath></defs><path d="M11.28,15.24a.75.75,0,0,0,.53.22h.38a.75.75,0,0,0,.53-.22l5.13-5.14A.51.51,0,0,0,18,9.75a.55.55,0,0,0-.15-.36l-.71-.71a.51.51,0,0,0-.7,0L12,13.13,7.56,8.68a.51.51,0,0,0-.36-.14.5.5,0,0,0-.35.14l-.7.71A.55.55,0,0,0,6,9.75a.51.51,0,0,0,.15.35Z"/><g class="cls-1"><rect x="5" y="7.54" width="14" height="8.93"/></g></svg>