<svg id="图层_1" data-name="图层 1" xmlns="http://www.w3.org/2000/svg" xmlns:xlink="http://www.w3.org/1999/xlink" viewBox="0 0 24 24"><defs><style>.cls-1{clip-path:url(#clip-path);}</style><clipPath id="clip-path"><path d="M8.76,12.72a.75.75,0,0,1-.22-.53v-.38a.75.75,0,0,1,.22-.53L13.9,6.15A.51.51,0,0,1,14.25,6a.55.55,0,0,1,.36.15l.71.71a.51.51,0,0,1,0,.7L10.87,12l4.45,4.44a.51.51,0,0,1,.14.36.5.5,0,0,1-.14.35l-.71.7a.55.55,0,0,1-.36.15.51.51,0,0,1-.35-.15Z"/></clipPath></defs><path d="M8.76,12.72a.75.75,0,0,1-.22-.53v-.38a.75.75,0,0,1,.22-.53L13.9,6.15A.51.51,0,0,1,14.25,6a.55.55,0,0,1,.36.15l.71.71a.51.51,0,0,1,0,.7L10.87,12l4.45,4.44a.51.51,0,0,1,.14.36.5.5,0,0,1-.14.35l-.71.7a.55.55,0,0,1-.36.15.51.51,0,0,1-.35-.15Z"/><g class="cls-1"><rect x="7.54" y="5" width="8.93" height="14"/></g></svg>