<svg id="图层_1" data-name="图层 1" xmlns="http://www.w3.org/2000/svg" xmlns:xlink="http://www.w3.org/1999/xlink" viewBox="0 0 24 24"><defs><style>.cls-1{clip-path:url(#clip-path);}</style><clipPath id="clip-path"><path d="M22,11.5v1a.5.5,0,0,1-.5.5H5.33l4.45,4.44a.51.51,0,0,1,.15.36.51.51,0,0,1-.15.35l-.71.7a.51.51,0,0,1-.35.15.51.51,0,0,1-.36-.15L2.22,12.72A.75.75,0,0,1,2,12.19v-.38a.75.75,0,0,1,.22-.53L8.36,5.15A.51.51,0,0,1,8.72,5a.51.51,0,0,1,.35.15l.71.71a.48.48,0,0,1,0,.7L5.33,11H21.5A.5.5,0,0,1,22,11.5Z"/></clipPath></defs><path d="M22,11.5v1a.5.5,0,0,1-.5.5H5.33l4.45,4.44a.51.51,0,0,1,.15.36.51.51,0,0,1-.15.35l-.71.7a.51.51,0,0,1-.35.15.51.51,0,0,1-.36-.15L2.22,12.72A.75.75,0,0,1,2,12.19v-.38a.75.75,0,0,1,.22-.53L8.36,5.15A.51.51,0,0,1,8.72,5a.51.51,0,0,1,.35.15l.71.71a.48.48,0,0,1,0,.7L5.33,11H21.5A.5.5,0,0,1,22,11.5Z"/><g class="cls-1"><rect x="1" y="4" width="22" height="16"/></g></svg>