<svg id="图层_1" data-name="图层 1" xmlns="http://www.w3.org/2000/svg" xmlns:xlink="http://www.w3.org/1999/xlink" viewBox="0 0 24 24"><defs><style>.cls-1{clip-path:url(#clip-path);}</style><clipPath id="clip-path"><path d="M2,12.5v-1a.5.5,0,0,1,.5-.5H18.67L14.22,6.56a.51.51,0,0,1-.15-.35.51.51,0,0,1,.15-.36l.71-.7A.51.51,0,0,1,15.28,5a.51.51,0,0,1,.36.15l6.14,6.13a.75.75,0,0,1,.22.53v.38a.75.75,0,0,1-.22.53l-6.14,6.13a.51.51,0,0,1-.36.15.51.51,0,0,1-.35-.15l-.71-.71a.48.48,0,0,1,0-.7L18.67,13H2.5A.5.5,0,0,1,2,12.5Z"/></clipPath></defs><path d="M2,12.5v-1a.5.5,0,0,1,.5-.5H18.67L14.22,6.56a.51.51,0,0,1-.15-.35.51.51,0,0,1,.15-.36l.71-.7A.51.51,0,0,1,15.28,5a.51.51,0,0,1,.36.15l6.14,6.13a.75.75,0,0,1,.22.53v.38a.75.75,0,0,1-.22.53l-6.14,6.13a.51.51,0,0,1-.36.15.51.51,0,0,1-.35-.15l-.71-.71a.48.48,0,0,1,0-.7L18.67,13H2.5A.5.5,0,0,1,2,12.5Z"/><g class="cls-1"><rect x="1" y="4" width="22" height="16"/></g></svg>