<svg id="图层_1" data-name="图层 1" xmlns="http://www.w3.org/2000/svg" xmlns:xlink="http://www.w3.org/1999/xlink" viewBox="0 0 24 24"><defs><style>.cls-1{clip-path:url(#clip-path);}</style><clipPath id="clip-path"><path d="M16.28,18H7.72L7,8H5l.87,12.14a2,2,0,0,0,2,1.86h8.28a2,2,0,0,0,2-1.86L19,8H17ZM20,4.5v1a.5.5,0,0,1-.5.5H4.5A.5.5,0,0,1,4,5.5v-1A.5.5,0,0,1,4.5,4H9V3a1,1,0,0,1,1-1h4a1,1,0,0,1,1,1V4h4.5A.5.5,0,0,1,20,4.5Z"/></clipPath></defs><path d="M16.28,18H7.72L7,8H5l.87,12.14a2,2,0,0,0,2,1.86h8.28a2,2,0,0,0,2-1.86L19,8H17ZM20,4.5v1a.5.5,0,0,1-.5.5H4.5A.5.5,0,0,1,4,5.5v-1A.5.5,0,0,1,4.5,4H9V3a1,1,0,0,1,1-1h4a1,1,0,0,1,1,1V4h4.5A.5.5,0,0,1,20,4.5Z"/><g class="cls-1"><rect x="3" y="1" width="18" height="22"/></g></svg>