<svg id="图层_1" data-name="图层 1" xmlns="http://www.w3.org/2000/svg" xmlns:xlink="http://www.w3.org/1999/xlink" viewBox="0 0 24 24"><defs><style>.cls-1{clip-path:url(#clip-path);}</style><clipPath id="clip-path"><path d="M18.82,5.64V18.36A1.82,1.82,0,0,1,17,20.18H7A1.81,1.81,0,0,0,8.82,22H17a3.64,3.64,0,0,0,3.64-3.64V7.45A1.82,1.82,0,0,0,18.82,5.64ZM12.91,12H7.45a.45.45,0,0,0-.45.45v.91a.46.46,0,0,0,.45.46h5.46a.46.46,0,0,0,.45-.46v-.91A.45.45,0,0,0,12.91,12ZM5.18,9.27H9.73a.91.91,0,0,0,.91-.91V3.82h4.54V16.55h-10ZM17,16.55V3.82A1.81,1.81,0,0,0,15.18,2H10A2.72,2.72,0,0,0,8,2.8L4.16,6.65a2.76,2.76,0,0,0-.8,1.93v8a1.82,1.82,0,0,0,1.82,1.81h10A1.81,1.81,0,0,0,17,16.55Z"/></clipPath></defs><path d="M18.82,5.64V18.36A1.82,1.82,0,0,1,17,20.18H7A1.81,1.81,0,0,0,8.82,22H17a3.64,3.64,0,0,0,3.64-3.64V7.45A1.82,1.82,0,0,0,18.82,5.64ZM12.91,12H7.45a.45.45,0,0,0-.45.45v.91a.46.46,0,0,0,.45.46h5.46a.46.46,0,0,0,.45-.46v-.91A.45.45,0,0,0,12.91,12ZM5.18,9.27H9.73a.91.91,0,0,0,.91-.91V3.82h4.54V16.55h-10ZM17,16.55V3.82A1.81,1.81,0,0,0,15.18,2H10A2.72,2.72,0,0,0,8,2.8L4.16,6.65a2.76,2.76,0,0,0-.8,1.93v8a1.82,1.82,0,0,0,1.82,1.81h10A1.81,1.81,0,0,0,17,16.55Z"/><g class="cls-1"><rect x="2.45" y="1.09" width="19.09" height="21.82"/></g></svg>