<svg id="图层_1" data-name="图层 1" xmlns="http://www.w3.org/2000/svg" xmlns:xlink="http://www.w3.org/1999/xlink"
  viewBox="0 0 24 24">
  <defs>
    <style>
      .cls-1 {
        clip-path: url(#clip-path);
      }
    </style>
    <clipPath id="clip-path">
      <path
        d="M7.83,14.29l-.79,2a.5.5,0,0,0,.65.65l2-.79a2,2,0,0,0,.68-.44L17,9.15a.5.5,0,0,0,0-.7L15.55,7a.5.5,0,0,0-.7,0L8.27,13.61A2,2,0,0,0,7.83,14.29ZM20.71,3.71l-.42-.42a1,1,0,0,0-.7-.29h-.3a1,1,0,0,0-.7.29l-1.8,1.8a.5.5,0,0,0,0,.7l1.42,1.42a.5.5,0,0,0,.7,0l1.8-1.8a1,1,0,0,0,.29-.7v-.3A1,1,0,0,0,20.71,3.71ZM21,11.5V19a2,2,0,0,1-2,2H5a2,2,0,0,1-2-2V5A2,2,0,0,1,5,3h7.5a.5.5,0,0,1,.5.5v1a.5.5,0,0,1-.5.5H5V19H19V11.5a.5.5,0,0,1,.5-.5h1A.5.5,0,0,1,21,11.5Z" />
    </clipPath>
  </defs>
  <path
    d="M7.83,14.29l-.79,2a.5.5,0,0,0,.65.65l2-.79a2,2,0,0,0,.68-.44L17,9.15a.5.5,0,0,0,0-.7L15.55,7a.5.5,0,0,0-.7,0L8.27,13.61A2,2,0,0,0,7.83,14.29ZM20.71,3.71l-.42-.42a1,1,0,0,0-.7-.29h-.3a1,1,0,0,0-.7.29l-1.8,1.8a.5.5,0,0,0,0,.7l1.42,1.42a.5.5,0,0,0,.7,0l1.8-1.8a1,1,0,0,0,.29-.7v-.3A1,1,0,0,0,20.71,3.71ZM21,11.5V19a2,2,0,0,1-2,2H5a2,2,0,0,1-2-2V5A2,2,0,0,1,5,3h7.5a.5.5,0,0,1,.5.5v1a.5.5,0,0,1-.5.5H5V19H19V11.5a.5.5,0,0,1,.5-.5h1A.5.5,0,0,1,21,11.5Z" />
  <g class="cls-1">
    <rect x="2" y="2" width="20" height="20" />
  </g>
</svg>