<svg id="图层_1" data-name="图层 1" xmlns="http://www.w3.org/2000/svg" xmlns:xlink="http://www.w3.org/1999/xlink" viewBox="0 0 24 24"><defs><style>.cls-1{clip-path:url(#clip-path);}</style><clipPath id="clip-path"><path d="M15.88,9A2.88,2.88,0,0,0,13,6.12H11A2.88,2.88,0,0,0,8.12,9v.5a.5.5,0,0,0,.5.5h.76a.5.5,0,0,0,.5-.5V9A1.13,1.13,0,0,1,11,7.88h2A1.12,1.12,0,0,1,14.12,9v.56a1.13,1.13,0,0,1-.76,1.07l-.95.31a1.87,1.87,0,0,0-1.29,1.78v.78a.5.5,0,0,0,.5.5h.76a.5.5,0,0,0,.5-.5v-.78A.13.13,0,0,1,13,12.6l.95-.31a2.88,2.88,0,0,0,2-2.73ZM12.5,16h-1a.5.5,0,0,0-.5.5v1a.5.5,0,0,0,.5.5h1a.5.5,0,0,0,.5-.5v-1A.5.5,0,0,0,12.5,16ZM12,20a8,8,0,1,1,5.66-2.34A8,8,0,0,1,12,20ZM12,2a10,10,0,1,0,7.07,2.93A10,10,0,0,0,12,2Z"/></clipPath></defs><path d="M15.88,9A2.88,2.88,0,0,0,13,6.12H11A2.88,2.88,0,0,0,8.12,9v.5a.5.5,0,0,0,.5.5h.76a.5.5,0,0,0,.5-.5V9A1.13,1.13,0,0,1,11,7.88h2A1.12,1.12,0,0,1,14.12,9v.56a1.13,1.13,0,0,1-.76,1.07l-.95.31a1.87,1.87,0,0,0-1.29,1.78v.78a.5.5,0,0,0,.5.5h.76a.5.5,0,0,0,.5-.5v-.78A.13.13,0,0,1,13,12.6l.95-.31a2.88,2.88,0,0,0,2-2.73ZM12.5,16h-1a.5.5,0,0,0-.5.5v1a.5.5,0,0,0,.5.5h1a.5.5,0,0,0,.5-.5v-1A.5.5,0,0,0,12.5,16ZM12,20a8,8,0,1,1,5.66-2.34A8,8,0,0,1,12,20ZM12,2a10,10,0,1,0,7.07,2.93A10,10,0,0,0,12,2Z"/><g class="cls-1"><rect x="1" y="1" width="22" height="22"/></g></svg>