<svg id="图层_1" data-name="图层 1" xmlns="http://www.w3.org/2000/svg" xmlns:xlink="http://www.w3.org/1999/xlink" viewBox="0 0 24 24"><defs><style>.cls-1{clip-rule:evenodd;}.cls-2{fill-rule:evenodd;}.cls-3{clip-path:url(#clip-path);}</style><clipPath id="clip-path"><path class="cls-1" d="M11.17,5.17a6,6,0,1,0,6,6A6,6,0,0,0,11.17,5.17Zm0-2a8,8,0,0,1,6.32,12.91l3.34,3.33-1.42,1.42-3.33-3.34A8,8,0,1,1,11.17,3.17Z"/></clipPath></defs><path class="cls-2" d="M11.17,5.17a6,6,0,1,0,6,6A6,6,0,0,0,11.17,5.17Zm0-2a8,8,0,0,1,6.32,12.91l3.34,3.33-1.42,1.42-3.33-3.34A8,8,0,1,1,11.17,3.17Z"/><g class="cls-3"><rect x="2.17" y="2.17" width="19.66" height="19.66"/></g></svg>