<svg id="图层_1" data-name="图层 1" xmlns="http://www.w3.org/2000/svg" xmlns:xlink="http://www.w3.org/1999/xlink" viewBox="0 0 24 24"><defs><style>.cls-1{clip-path:url(#clip-path);}</style><clipPath id="clip-path"><path d="M12.5,16h-4a.5.5,0,0,0-.5.5v1a.5.5,0,0,0,.5.5h4a.5.5,0,0,0,.5-.5v-1A.5.5,0,0,0,12.5,16ZM8,12.5v1a.5.5,0,0,0,.5.5h7a.5.5,0,0,0,.5-.5v-1a.5.5,0,0,0-.5-.5h-7A.5.5,0,0,0,8,12.5ZM18,20H6V10h5a1,1,0,0,0,1-1V4h6ZM18,2H11.24a3,3,0,0,0-2.12.88L4.88,7.12A3,3,0,0,0,4,9.24V20a2,2,0,0,0,2,2H18a2,2,0,0,0,2-2V4A2,2,0,0,0,18,2Z"/></clipPath></defs><path d="M12.5,16h-4a.5.5,0,0,0-.5.5v1a.5.5,0,0,0,.5.5h4a.5.5,0,0,0,.5-.5v-1A.5.5,0,0,0,12.5,16ZM8,12.5v1a.5.5,0,0,0,.5.5h7a.5.5,0,0,0,.5-.5v-1a.5.5,0,0,0-.5-.5h-7A.5.5,0,0,0,8,12.5ZM18,20H6V10h5a1,1,0,0,0,1-1V4h6ZM18,2H11.24a3,3,0,0,0-2.12.88L4.88,7.12A3,3,0,0,0,4,9.24V20a2,2,0,0,0,2,2H18a2,2,0,0,0,2-2V4A2,2,0,0,0,18,2Z"/><g class="cls-1"><rect x="3" y="1" width="18" height="22"/></g></svg>