<svg id="图层_1" data-name="图层 1" xmlns="http://www.w3.org/2000/svg" xmlns:xlink="http://www.w3.org/1999/xlink" viewBox="0 0 24 24"><defs><style>.cls-1{clip-path:url(#clip-path);}</style><clipPath id="clip-path"><path d="M2.2,10.35A.49.49,0,0,1,2,9.81l.08-.25a.49.49,0,0,1,.44-.34l6.38-.51,2.45-5.89a.51.51,0,0,1,.51-.32h.26a.5.5,0,0,1,.47.32l2.46,5.89,6.38.51a.48.48,0,0,1,.44.34l.08.25a.48.48,0,0,1-.15.54L17,14.49l1.48,6.2a.53.53,0,0,1-.19.53l-.29.16a.48.48,0,0,1-.56,0L12,18.09,6.55,21.41a.48.48,0,0,1-.56,0l-.22-.15a.5.5,0,0,1-.19-.53L7,14.49Z"/></clipPath></defs><path d="M2.2,10.35A.49.49,0,0,1,2,9.81l.08-.25a.49.49,0,0,1,.44-.34l6.38-.51,2.45-5.89a.51.51,0,0,1,.51-.32h.26a.5.5,0,0,1,.47.32l2.46,5.89,6.38.51a.48.48,0,0,1,.44.34l.08.25a.48.48,0,0,1-.15.54L17,14.49l1.48,6.2a.53.53,0,0,1-.19.53l-.29.16a.48.48,0,0,1-.56,0L12,18.09,6.55,21.41a.48.48,0,0,1-.56,0l-.22-.15a.5.5,0,0,1-.19-.53L7,14.49Z"/><g class="cls-1"><rect x="1" y="1.5" width="22" height="21"/></g></svg>