<svg id="图层_1" data-name="图层 1" xmlns="http://www.w3.org/2000/svg" xmlns:xlink="http://www.w3.org/1999/xlink" viewBox="0 0 24 24"><defs><style>.cls-1{clip-path:url(#clip-path);}</style><clipPath id="clip-path"><path d="M11.87,2.5a.51.51,0,0,0-.48.32L9,8.71l-6.37.51a.48.48,0,0,0-.44.35L2,9.82a.49.49,0,0,0,.15.54L7,14.5,5.58,20.72a.5.5,0,0,0,.19.53L6,21.4a.45.45,0,0,0,.3.1.48.48,0,0,0,.26-.07L12,18.1l5.46,3.33a.43.43,0,0,0,.25.07.45.45,0,0,0,.3-.1l.22-.15a.5.5,0,0,0,.19-.53L17,14.5l4.84-4.15A.48.48,0,0,0,22,9.82l-.08-.25a.48.48,0,0,0-.44-.35l-6.37-.51L12.6,2.82a.49.49,0,0,0-.47-.32Zm2,7.87,4.79.38L15,13.88l1.12,4.68L12,16.05,7.88,18.56,9,13.88,5.35,10.75l4.8-.38L12,5.91Z"/></clipPath></defs><path d="M11.87,2.5a.51.51,0,0,0-.48.32L9,8.71l-6.37.51a.48.48,0,0,0-.44.35L2,9.82a.49.49,0,0,0,.15.54L7,14.5,5.58,20.72a.5.5,0,0,0,.19.53L6,21.4a.45.45,0,0,0,.3.1.48.48,0,0,0,.26-.07L12,18.1l5.46,3.33a.43.43,0,0,0,.25.07.45.45,0,0,0,.3-.1l.22-.15a.5.5,0,0,0,.19-.53L17,14.5l4.84-4.15A.48.48,0,0,0,22,9.82l-.08-.25a.48.48,0,0,0-.44-.35l-6.37-.51L12.6,2.82a.49.49,0,0,0-.47-.32Zm2,7.87,4.79.38L15,13.88l1.12,4.68L12,16.05,7.88,18.56,9,13.88,5.35,10.75l4.8-.38L12,5.91Z"/><g class="cls-1"><rect x="1" y="1.5" width="22" height="21"/></g></svg>