<svg id="图层_1" data-name="图层 1" xmlns="http://www.w3.org/2000/svg" xmlns:xlink="http://www.w3.org/1999/xlink" viewBox="0 0 24 24"><defs><style>.cls-1{clip-path:url(#clip-path);}</style><clipPath id="clip-path"><polygon points="14.5 16.8 15.68 15.86 12.96 12.64 17 11.43 16.52 9.98 12.61 11.47 12.77 7.2 11.23 7.2 11.41 11.47 7.48 9.98 7 11.43 11.04 12.64 8.32 15.86 9.5 16.8 12 13.34 14.5 16.8"/></clipPath></defs><polygon points="14.5 16.8 15.68 15.86 12.96 12.64 17 11.43 16.52 9.98 12.61 11.47 12.77 7.2 11.23 7.2 11.41 11.47 7.48 9.98 7 11.43 11.04 12.64 8.32 15.86 9.5 16.8 12 13.34 14.5 16.8"/><g class="cls-1"><rect x="6" y="6.2" width="12" height="11.61"/></g></svg>