<svg id="图层_1" data-name="图层 1" xmlns="http://www.w3.org/2000/svg" xmlns:xlink="http://www.w3.org/1999/xlink" viewBox="0 0 24 24"><defs><style>.cls-1{clip-path:url(#clip-path);}</style><clipPath id="clip-path"><path d="M6,7.4a.51.51,0,0,0,.36.15.51.51,0,0,0,.35-.15l.7-.7a.5.5,0,0,0,0-.7L6,4.58a.51.51,0,0,0-.36-.15.51.51,0,0,0-.35.15l-.7.7a.51.51,0,0,0-.15.36A.51.51,0,0,0,4.59,6Zm12,9.2a.51.51,0,0,0-.35-.15.51.51,0,0,0-.36.15l-.7.7a.51.51,0,0,0-.15.36.51.51,0,0,0,.15.35L18,19.42a.51.51,0,0,0,.35.15.51.51,0,0,0,.36-.15l.7-.7a.51.51,0,0,0,.15-.35.51.51,0,0,0-.15-.36Zm-11.3,0a.51.51,0,0,0-.36-.15A.51.51,0,0,0,6,16.6L4.58,18a.51.51,0,0,0-.15.36.51.51,0,0,0,.15.35l.7.7a.51.51,0,0,0,.35.15A.51.51,0,0,0,6,19.41L7.4,18a.51.51,0,0,0,.15-.36.51.51,0,0,0-.15-.35ZM17.3,7.4a.51.51,0,0,0,.35.15A.51.51,0,0,0,18,7.4L19.42,6a.51.51,0,0,0,.15-.35.51.51,0,0,0-.15-.36l-.7-.7a.51.51,0,0,0-.36-.15.51.51,0,0,0-.35.15L16.6,6a.51.51,0,0,0-.15.35.51.51,0,0,0,.15.36ZM5,12.5v-1a.5.5,0,0,0-.5-.5h-2a.5.5,0,0,0-.5.5v1a.5.5,0,0,0,.5.5h2A.5.5,0,0,0,5,12.5ZM21.5,11h-2a.5.5,0,0,0-.5.5v1a.5.5,0,0,0,.5.5h2a.5.5,0,0,0,.5-.5v-1A.5.5,0,0,0,21.5,11Zm-9,8h-1a.5.5,0,0,0-.5.5v2a.5.5,0,0,0,.5.5h1a.5.5,0,0,0,.5-.5v-2A.5.5,0,0,0,12.5,19Zm-1-14h1a.5.5,0,0,0,.5-.5v-2a.5.5,0,0,0-.5-.5h-1a.5.5,0,0,0-.5.5v2A.5.5,0,0,0,11.5,5ZM12,7a5,5,0,1,0,5,5A5,5,0,0,0,12,7Zm0,2a3,3,0,1,1-3,3A3,3,0,0,1,12,9Z"/></clipPath></defs><path d="M6,7.4a.51.51,0,0,0,.36.15.51.51,0,0,0,.35-.15l.7-.7a.5.5,0,0,0,0-.7L6,4.58a.51.51,0,0,0-.36-.15.51.51,0,0,0-.35.15l-.7.7a.51.51,0,0,0-.15.36A.51.51,0,0,0,4.59,6Zm12,9.2a.51.51,0,0,0-.35-.15.51.51,0,0,0-.36.15l-.7.7a.51.51,0,0,0-.15.36.51.51,0,0,0,.15.35L18,19.42a.51.51,0,0,0,.35.15.51.51,0,0,0,.36-.15l.7-.7a.51.51,0,0,0,.15-.35.51.51,0,0,0-.15-.36Zm-11.3,0a.51.51,0,0,0-.36-.15A.51.51,0,0,0,6,16.6L4.58,18a.51.51,0,0,0-.15.36.51.51,0,0,0,.15.35l.7.7a.51.51,0,0,0,.35.15A.51.51,0,0,0,6,19.41L7.4,18a.51.51,0,0,0,.15-.36.51.51,0,0,0-.15-.35ZM17.3,7.4a.51.51,0,0,0,.35.15A.51.51,0,0,0,18,7.4L19.42,6a.51.51,0,0,0,.15-.35.51.51,0,0,0-.15-.36l-.7-.7a.51.51,0,0,0-.36-.15.51.51,0,0,0-.35.15L16.6,6a.51.51,0,0,0-.15.35.51.51,0,0,0,.15.36ZM5,12.5v-1a.5.5,0,0,0-.5-.5h-2a.5.5,0,0,0-.5.5v1a.5.5,0,0,0,.5.5h2A.5.5,0,0,0,5,12.5ZM21.5,11h-2a.5.5,0,0,0-.5.5v1a.5.5,0,0,0,.5.5h2a.5.5,0,0,0,.5-.5v-1A.5.5,0,0,0,21.5,11Zm-9,8h-1a.5.5,0,0,0-.5.5v2a.5.5,0,0,0,.5.5h1a.5.5,0,0,0,.5-.5v-2A.5.5,0,0,0,12.5,19Zm-1-14h1a.5.5,0,0,0,.5-.5v-2a.5.5,0,0,0-.5-.5h-1a.5.5,0,0,0-.5.5v2A.5.5,0,0,0,11.5,5ZM12,7a5,5,0,1,0,5,5A5,5,0,0,0,12,7Zm0,2a3,3,0,1,1-3,3A3,3,0,0,1,12,9Z"/><g class="cls-1"><rect x="1" y="1" width="22" height="22"/></g></svg>