<svg id="图层_1" data-name="图层 1" xmlns="http://www.w3.org/2000/svg" xmlns:xlink="http://www.w3.org/1999/xlink" viewBox="0 0 24 24"><defs><style>.cls-1{clip-path:url(#clip-path);}</style><clipPath id="clip-path"><path d="M12,8a4,4,0,1,0,4,4A4,4,0,0,0,12,8Zm0,2a2,2,0,1,1-2,2A2,2,0,0,1,12,10Zm0,7a8.81,8.81,0,0,1-7.92-5,8.78,8.78,0,0,1,15.85,0A8.82,8.82,0,0,1,12,17Zm10-5.3h0A10.66,10.66,0,0,0,12,5a10.64,10.64,0,0,0-9.93,6.67A1,1,0,0,0,2,12a.81.81,0,0,0,.06.31A10.63,10.63,0,0,0,12,19a10.64,10.64,0,0,0,9.94-6.67A.92.92,0,0,0,22,12,1.5,1.5,0,0,0,22,11.7Z"/></clipPath></defs><path d="M12,8a4,4,0,1,0,4,4A4,4,0,0,0,12,8Zm0,2a2,2,0,1,1-2,2A2,2,0,0,1,12,10Zm0,7a8.81,8.81,0,0,1-7.92-5,8.78,8.78,0,0,1,15.85,0A8.82,8.82,0,0,1,12,17Zm10-5.3h0A10.66,10.66,0,0,0,12,5a10.64,10.64,0,0,0-9.93,6.67A1,1,0,0,0,2,12a.81.81,0,0,0,.06.31A10.63,10.63,0,0,0,12,19a10.64,10.64,0,0,0,9.94-6.67A.92.92,0,0,0,22,12,1.5,1.5,0,0,0,22,11.7Z"/><g class="cls-1"><rect x="1" y="4" width="22" height="16"/></g></svg>