<svg id="图层_1" data-name="图层 1" xmlns="http://www.w3.org/2000/svg" xmlns:xlink="http://www.w3.org/1999/xlink" viewBox="0 0 24 24"><defs><style>.cls-1{clip-path:url(#clip-path);}</style><clipPath id="clip-path"><path d="M9.39,2H9.25A10.22,10.22,0,1,0,22,14.74a.54.54,0,0,0-.13-.51l-.09-.09a.52.52,0,0,0-.38-.13h-.06a9.87,9.87,0,0,1-1.22.08A10.19,10.19,0,0,1,10,2.66a.55.55,0,0,0-.15-.42l-.09-.09A.51.51,0,0,0,9.39,2ZM8,4.77a12.17,12.17,0,0,0,3.54,7.73A12.1,12.1,0,0,0,19.21,16,8.2,8.2,0,1,1,8,4.77Z"/></clipPath></defs><path d="M9.39,2H9.25A10.22,10.22,0,1,0,22,14.74a.54.54,0,0,0-.13-.51l-.09-.09a.52.52,0,0,0-.38-.13h-.06a9.87,9.87,0,0,1-1.22.08A10.19,10.19,0,0,1,10,2.66a.55.55,0,0,0-.15-.42l-.09-.09A.51.51,0,0,0,9.39,2ZM8,4.77a12.17,12.17,0,0,0,3.54,7.73A12.1,12.1,0,0,0,19.21,16,8.2,8.2,0,1,1,8,4.77Z"/><g class="cls-1"><rect x="1" y="1" width="22" height="22"/></g></svg>