<svg id="图层_1" data-name="图层 1" xmlns="http://www.w3.org/2000/svg" xmlns:xlink="http://www.w3.org/1999/xlink" viewBox="0 0 24 24"><defs><style>.cls-1{fill:none;}.cls-2{clip-path:url(#clip-path);}</style><clipPath id="clip-path"><path class="cls-1" d="M19,11.5v1a.5.5,0,0,1-.5.5H13v5.5a.5.5,0,0,1-.5.5h-1a.5.5,0,0,1-.5-.5V13H5.5a.5.5,0,0,1-.5-.5v-1a.5.5,0,0,1,.5-.5H11V5.5a.5.5,0,0,1,.5-.5h1a.5.5,0,0,1,.5.5V11h5.5A.5.5,0,0,1,19,11.5Z"/></clipPath></defs><g class="cls-2"><rect x="4" y="4" width="16" height="16"/></g></svg>