<svg id="图层_1" data-name="图层 1" xmlns="http://www.w3.org/2000/svg" xmlns:xlink="http://www.w3.org/1999/xlink" viewBox="0 0 24 24"><defs><style>.cls-1{clip-path:url(#clip-path);}</style><clipPath id="clip-path"><path d="M6.62,18l1.22-2.45a1,1,0,0,1,.9-.55h6.52a1,1,0,0,1,.9.55L17.38,18Zm13.27.55L18,14.66A3,3,0,0,0,15.26,13H8.74a3,3,0,0,0-2.69,1.66L4.11,18.55A1,1,0,0,0,5,20H19a1,1,0,0,0,.89-1.45ZM12,6a2,2,0,1,1-2,2A2,2,0,0,1,12,6Zm0,6A4,4,0,1,0,8,8,4,4,0,0,0,12,12Z"/></clipPath></defs><path d="M6.62,18l1.22-2.45a1,1,0,0,1,.9-.55h6.52a1,1,0,0,1,.9.55L17.38,18Zm13.27.55L18,14.66A3,3,0,0,0,15.26,13H8.74a3,3,0,0,0-2.69,1.66L4.11,18.55A1,1,0,0,0,5,20H19a1,1,0,0,0,.89-1.45ZM12,6a2,2,0,1,1-2,2A2,2,0,0,1,12,6Zm0,6A4,4,0,1,0,8,8,4,4,0,0,0,12,12Z"/><g class="cls-1"><rect x="3" y="3" width="18" height="18"/></g></svg>