<svg id="图层_1" data-name="图层 1" xmlns="http://www.w3.org/2000/svg" xmlns:xlink="http://www.w3.org/1999/xlink" viewBox="0 0 24 24"><defs><style>.cls-1{clip-rule:evenodd;}.cls-2{fill-rule:evenodd;}.cls-3{clip-path:url(#clip-path);}</style><clipPath id="clip-path"><path class="cls-1" d="M10,9v2H6V9Zm10,.05-4,2.38v1.14L20,15ZM13,7H5a1,1,0,0,0-1,.88V16a1,1,0,0,0,.88,1H13a1,1,0,0,0,1-.88V8A1,1,0,0,0,13,7Zm1-2a2,2,0,0,1,2,2V9.13l4.33-2.52a2,2,0,0,1,.84-.32.64.64,0,0,1,.27.07l.23.13a.71.71,0,0,1,.33.59v9.84a.7.7,0,0,1-.33.59l-.23.13a.6.6,0,0,1-.29.08,1.49,1.49,0,0,1-.67-.26L16,14.84V17a2,2,0,0,1-2,2H4a2,2,0,0,1-2-2V7A2,2,0,0,1,4,5Z"/></clipPath></defs><path class="cls-2" d="M10,9v2H6V9Zm10,.05-4,2.38v1.14L20,15ZM13,7H5a1,1,0,0,0-1,.88V16a1,1,0,0,0,.88,1H13a1,1,0,0,0,1-.88V8A1,1,0,0,0,13,7Zm1-2a2,2,0,0,1,2,2V9.13l4.33-2.52a2,2,0,0,1,.84-.32.64.64,0,0,1,.27.07l.23.13a.71.71,0,0,1,.33.59v9.84a.7.7,0,0,1-.33.59l-.23.13a.6.6,0,0,1-.29.08,1.49,1.49,0,0,1-.67-.26L16,14.84V17a2,2,0,0,1-2,2H4a2,2,0,0,1-2-2V7A2,2,0,0,1,4,5Z"/><g class="cls-3"><rect x="1" y="4" width="22" height="16"/></g></svg>