<svg id="图层_1" data-name="图层 1" xmlns="http://www.w3.org/2000/svg" xmlns:xlink="http://www.w3.org/1999/xlink" viewBox="0 0 24 24"><defs><style>.cls-1{clip-rule:evenodd;}.cls-2{fill-rule:evenodd;}.cls-3{clip-path:url(#clip-path);}</style><clipPath id="clip-path"><path class="cls-1" d="M11.17,8.78l3.89,2.6a.74.74,0,0,1,0,1.24l-3.89,2.6A.75.75,0,0,1,10,14.6V9.4a.75.75,0,0,1,1.17-.62ZM19,7H5a1,1,0,0,0-1,.88V16a1,1,0,0,0,.88,1H19a1,1,0,0,0,1-.88V8A1,1,0,0,0,19,7Zm1-2a2,2,0,0,1,2,2V17a2,2,0,0,1-2,2H4a2,2,0,0,1-2-2V7A2,2,0,0,1,4,5Z"/></clipPath></defs><path class="cls-2" d="M11.17,8.78l3.89,2.6a.74.74,0,0,1,0,1.24l-3.89,2.6A.75.75,0,0,1,10,14.6V9.4a.75.75,0,0,1,1.17-.62ZM19,7H5a1,1,0,0,0-1,.88V16a1,1,0,0,0,.88,1H19a1,1,0,0,0,1-.88V8A1,1,0,0,0,19,7Zm1-2a2,2,0,0,1,2,2V17a2,2,0,0,1-2,2H4a2,2,0,0,1-2-2V7A2,2,0,0,1,4,5Z"/><g class="cls-3"><rect x="1" y="4" width="22" height="16"/></g></svg>