<svg id="图层_1" data-name="图层 1" xmlns="http://www.w3.org/2000/svg" xmlns:xlink="http://www.w3.org/1999/xlink" viewBox="0 0 24 24"><defs><style>.cls-1{clip-path:url(#clip-path);}</style><clipPath id="clip-path"><path d="M15.82,8.49a.5.5,0,0,0-.7,0l-4.74,4.74-1.5-1.49a.48.48,0,0,0-.7,0l-.53.53a.51.51,0,0,0-.15.35.51.51,0,0,0,.15.36L10,15.35a.48.48,0,0,0,.7,0l5.62-5.62a.51.51,0,0,0,.15-.35A.51.51,0,0,0,16.32,9ZM12,20a8,8,0,1,1,5.66-2.34A8,8,0,0,1,12,20ZM12,2a10,10,0,1,0,7.07,2.93A10,10,0,0,0,12,2Z"/></clipPath></defs><path d="M15.82,8.49a.5.5,0,0,0-.7,0l-4.74,4.74-1.5-1.49a.48.48,0,0,0-.7,0l-.53.53a.51.51,0,0,0-.15.35.51.51,0,0,0,.15.36L10,15.35a.48.48,0,0,0,.7,0l5.62-5.62a.51.51,0,0,0,.15-.35A.51.51,0,0,0,16.32,9ZM12,20a8,8,0,1,1,5.66-2.34A8,8,0,0,1,12,20ZM12,2a10,10,0,1,0,7.07,2.93A10,10,0,0,0,12,2Z"/><g class="cls-1"><rect x="1" y="1" width="22" height="22"/></g></svg>