<svg id="图层_1" data-name="图层 1" xmlns="http://www.w3.org/2000/svg" xmlns:xlink="http://www.w3.org/1999/xlink" viewBox="0 0 24 24"><defs><style>.cls-1{clip-path:url(#clip-path);}</style><clipPath id="clip-path"><path d="M16.35,9.73l-5.62,5.62a.48.48,0,0,1-.7,0L7.65,13a.51.51,0,0,1-.15-.35.51.51,0,0,1,.15-.36l.53-.53a.48.48,0,0,1,.7,0l1.5,1.49,4.74-4.74a.5.5,0,0,1,.7,0l.53.53A.51.51,0,0,1,16.35,9.73ZM12,2a10,10,0,1,0,7.07,2.93A10,10,0,0,0,12,2Z"/></clipPath></defs><path d="M16.35,9.73l-5.62,5.62a.48.48,0,0,1-.7,0L7.65,13a.51.51,0,0,1-.15-.35.51.51,0,0,1,.15-.36l.53-.53a.48.48,0,0,1,.7,0l1.5,1.49,4.74-4.74a.5.5,0,0,1,.7,0l.53.53A.51.51,0,0,1,16.35,9.73ZM12,2a10,10,0,1,0,7.07,2.93A10,10,0,0,0,12,2Z"/><g class="cls-1"><rect x="1" y="1" width="22" height="22"/></g></svg>