<svg id="图层_1" data-name="图层 1" xmlns="http://www.w3.org/2000/svg" xmlns:xlink="http://www.w3.org/1999/xlink" viewBox="0 0 24 24"><defs><style>.cls-1{clip-path:url(#clip-path);}</style><clipPath id="clip-path"><path d="M20.35,7.41,9.75,18a.51.51,0,0,1-.36.15A.51.51,0,0,1,9,18L3.65,12.62a.53.53,0,0,1-.15-.36.51.51,0,0,1,.15-.35l.7-.7a.47.47,0,0,1,.35-.15.48.48,0,0,1,.36.15l4.33,4.33L18.94,6a.51.51,0,0,1,.71,0l.7.71a.51.51,0,0,1,.15.35A.53.53,0,0,1,20.35,7.41Z"/></clipPath></defs><path d="M20.35,7.41,9.75,18a.51.51,0,0,1-.36.15A.51.51,0,0,1,9,18L3.65,12.62a.53.53,0,0,1-.15-.36.51.51,0,0,1,.15-.35l.7-.7a.47.47,0,0,1,.35-.15.48.48,0,0,1,.36.15l4.33,4.33L18.94,6a.51.51,0,0,1,.71,0l.7.71a.51.51,0,0,1,.15.35A.53.53,0,0,1,20.35,7.41Z"/><g class="cls-1"><rect x="2.5" y="4.84" width="19" height="14.31"/></g></svg>