<svg id="图层_1" data-name="图层 1" xmlns="http://www.w3.org/2000/svg" xmlns:xlink="http://www.w3.org/1999/xlink" viewBox="0 0 24 24"><defs><style>.cls-1{clip-rule:evenodd;}.cls-2{fill-rule:evenodd;}.cls-3{clip-path:url(#clip-path);}</style><clipPath id="clip-path"><path class="cls-1" d="M20,12a8,8,0,1,0-8,8A8,8,0,0,0,20,12ZM2,12A10,10,0,1,1,12,22,10,10,0,0,1,2,12Z"/></clipPath></defs><path class="cls-2" d="M20,12a8,8,0,1,0-8,8A8,8,0,0,0,20,12ZM2,12A10,10,0,1,1,12,22,10,10,0,0,1,2,12Z"/><g class="cls-3"><rect x="1" y="1" width="22" height="22"/></g></svg>