<svg id="图层_1" data-name="图层 1" xmlns="http://www.w3.org/2000/svg" xmlns:xlink="http://www.w3.org/1999/xlink" viewBox="0 0 24 24"><defs><style>.cls-1{clip-path:url(#clip-path);}</style><clipPath id="clip-path"><path d="M4,18V11l6.35,4.44a2.89,2.89,0,0,0,3.3,0L20,11v7ZM20,6V8.9l-7.35,5.15a1.14,1.14,0,0,1-1.3,0L4,8.9V6Zm0-2H4A2,2,0,0,0,2,6V18a2,2,0,0,0,2,2H20a2,2,0,0,0,2-2V6A2,2,0,0,0,20,4Z"/></clipPath></defs><path d="M4,18V11l6.35,4.44a2.89,2.89,0,0,0,3.3,0L20,11v7ZM20,6V8.9l-7.35,5.15a1.14,1.14,0,0,1-1.3,0L4,8.9V6Zm0-2H4A2,2,0,0,0,2,6V18a2,2,0,0,0,2,2H20a2,2,0,0,0,2-2V6A2,2,0,0,0,20,4Z"/><g class="cls-1"><rect x="1" y="3" width="22" height="18"/></g></svg>