<svg id="图层_1" data-name="图层 1" xmlns="http://www.w3.org/2000/svg" xmlns:xlink="http://www.w3.org/1999/xlink" viewBox="0 0 24 24"><defs><style>.cls-1{clip-path:url(#clip-path);}</style><clipPath id="clip-path"><path d="M12.86,15a.5.5,0,0,1,.7,0l.11.11a1.35,1.35,0,0,1,0,1.9l-2.85,2.85A4,4,0,0,1,8,21H7.66a4,4,0,0,1-2.83-1.17l-.66-.66A4,4,0,0,1,3,16.35V16a4,4,0,0,1,1.18-2.84L7,10.33a1.35,1.35,0,0,1,1.9,0l.11.11a.5.5,0,0,1,0,.7L5.59,14.58A2,2,0,0,0,5,16v.34a2,2,0,0,0,.59,1.42l.65.65A2,2,0,0,0,7.66,19H8a2,2,0,0,0,1.43-.59ZM21,7.66V8a4,4,0,0,1-1.18,2.84L17,13.67a1.35,1.35,0,0,1-1.9,0l-.1-.11a.5.5,0,0,1,0-.7l3.44-3.44A2,2,0,0,0,19,8V7.66a2,2,0,0,0-.59-1.42l-.65-.65A2,2,0,0,0,16.34,5H16a2,2,0,0,0-1.42.59L11.14,9a.5.5,0,0,1-.7,0l-.11-.11a1.35,1.35,0,0,1,0-1.9l2.83-2.84A4,4,0,0,1,16,3h.34a4,4,0,0,1,2.83,1.17l.66.66A4,4,0,0,1,21,7.66ZM8.65,13.94l5.29-5.29a.51.51,0,0,1,.36-.15.51.51,0,0,1,.35.15l.7.7a.51.51,0,0,1,.15.36.51.51,0,0,1-.15.35l-5.29,5.29a.51.51,0,0,1-.35.15.51.51,0,0,1-.36-.15l-.7-.7a.51.51,0,0,1-.15-.35A.51.51,0,0,1,8.65,13.94Z"/></clipPath></defs><path d="M12.86,15a.5.5,0,0,1,.7,0l.11.11a1.35,1.35,0,0,1,0,1.9l-2.85,2.85A4,4,0,0,1,8,21H7.66a4,4,0,0,1-2.83-1.17l-.66-.66A4,4,0,0,1,3,16.35V16a4,4,0,0,1,1.18-2.84L7,10.33a1.35,1.35,0,0,1,1.9,0l.11.11a.5.5,0,0,1,0,.7L5.59,14.58A2,2,0,0,0,5,16v.34a2,2,0,0,0,.59,1.42l.65.65A2,2,0,0,0,7.66,19H8a2,2,0,0,0,1.43-.59ZM21,7.66V8a4,4,0,0,1-1.18,2.84L17,13.67a1.35,1.35,0,0,1-1.9,0l-.1-.11a.5.5,0,0,1,0-.7l3.44-3.44A2,2,0,0,0,19,8V7.66a2,2,0,0,0-.59-1.42l-.65-.65A2,2,0,0,0,16.34,5H16a2,2,0,0,0-1.42.59L11.14,9a.5.5,0,0,1-.7,0l-.11-.11a1.35,1.35,0,0,1,0-1.9l2.83-2.84A4,4,0,0,1,16,3h.34a4,4,0,0,1,2.83,1.17l.66.66A4,4,0,0,1,21,7.66ZM8.65,13.94l5.29-5.29a.51.51,0,0,1,.36-.15.51.51,0,0,1,.35.15l.7.7a.51.51,0,0,1,.15.36.51.51,0,0,1-.15.35l-5.29,5.29a.51.51,0,0,1-.35.15.51.51,0,0,1-.36-.15l-.7-.7a.51.51,0,0,1-.15-.35A.51.51,0,0,1,8.65,13.94Z"/><g class="cls-1"><rect x="2" y="2" width="20" height="20"/></g></svg>