<svg id="图层_1" data-name="图层 1" xmlns="http://www.w3.org/2000/svg" xmlns:xlink="http://www.w3.org/1999/xlink" viewBox="0 0 24 24"><defs><style>.cls-1{clip-path:url(#clip-path);}</style><clipPath id="clip-path"><path d="M15,19V14a1,1,0,0,0-1-1H10a1,1,0,0,0-1,1v5H6V12.5a.5.5,0,0,0-.5-.5H4.05a.93.93,0,0,1,.24-.46L10.83,5h2.34l6.54,6.54A.93.93,0,0,1,20,12H18.5a.5.5,0,0,0-.5.5V19ZM2,13.5a.5.5,0,0,0,.5.5H4v6a1,1,0,0,0,1,1h5a1,1,0,0,0,1-1V15.25a.25.25,0,0,1,.25-.25h1.5a.25.25,0,0,1,.25.25V20a1,1,0,0,0,1,1h5a1,1,0,0,0,1-1V14h1.5a.5.5,0,0,0,.5-.5V11.41a1,1,0,0,0-.29-.7L14.29,3.29a1,1,0,0,0-.7-.29H10.41a1,1,0,0,0-.7.29L2.29,10.71a1,1,0,0,0-.29.7Z"/></clipPath></defs><path d="M15,19V14a1,1,0,0,0-1-1H10a1,1,0,0,0-1,1v5H6V12.5a.5.5,0,0,0-.5-.5H4.05a.93.93,0,0,1,.24-.46L10.83,5h2.34l6.54,6.54A.93.93,0,0,1,20,12H18.5a.5.5,0,0,0-.5.5V19ZM2,13.5a.5.5,0,0,0,.5.5H4v6a1,1,0,0,0,1,1h5a1,1,0,0,0,1-1V15.25a.25.25,0,0,1,.25-.25h1.5a.25.25,0,0,1,.25.25V20a1,1,0,0,0,1,1h5a1,1,0,0,0,1-1V14h1.5a.5.5,0,0,0,.5-.5V11.41a1,1,0,0,0-.29-.7L14.29,3.29a1,1,0,0,0-.7-.29H10.41a1,1,0,0,0-.7.29L2.29,10.71a1,1,0,0,0-.29.7Z"/><g class="cls-1"><rect x="1" y="2" width="22" height="20"/></g></svg>