<?xml version="1.0" encoding="UTF-8"?>
<svg width="80px" height="80px" viewBox="0 0 80 80" version="1.1" xmlns="http://www.w3.org/2000/svg" xmlns:xlink="http://www.w3.org/1999/xlink">
    <title>插画/dark/未选中/3</title>
    <g id="插画/dark/未选中/3" stroke="none" stroke-width="1" fill="none" fill-rule="evenodd">
        <g id="SIG组" transform="translate(9.666667, 13.666667)" stroke-width="2">
            <g id="编组-15">
                <path d="M58,0 C59.1045695,-2.02906125e-16 60,0.8954305 60,2 L60,37 C60,38.1045695 59.1045695,39 58,39 L53.8107837,39.0007383 C53.9343031,38.5210861 54,38.0182152 54,37.5 C54,34.1862915 51.3137085,31.5 48,31.5 C44.6862915,31.5 42,34.1862915 42,37.5 C42,38.0182152 42.0656969,38.5210861 42.1892163,39.0007383 L35.8107837,39.0007383 C35.9343031,38.5210861 36,38.0182152 36,37.5 C36,34.1862915 33.3137085,31.5 30,31.5 C26.6862915,31.5 24,34.1862915 24,37.5 C24,38.0182152 24.0656969,38.5210861 24.1892163,39.0007383 L17.8107837,39.0007383 C17.9343031,38.5210861 18,38.0182152 18,37.5 C18,34.1862915 15.3137085,31.5 12,31.5 C8.6862915,31.5 6,34.1862915 6,37.5 C6,38.0182152 6.0656969,38.5210861 6.18921631,39.0007383 L2,39 C0.8954305,39 1.3527075e-16,38.1045695 0,37 L0,2 C-1.3527075e-16,0.8954305 0.8954305,2.02906125e-16 2,0 L58,0 Z" id="形状结合" stroke="#FFFFFF"></path>
                <path d="M2,0 L58,0 C59.1045695,-2.02906125e-16 60,0.8954305 60,2 L60,12 L60,12 L0,12 L0,2 C-1.3527075e-16,0.8954305 0.8954305,2.02906125e-16 2,0 Z" id="矩形" stroke="#FFFFFF"></path>
                <path d="M48,43.5 C52.9705627,43.5 57,47.5294373 57,52.5 L57,52.5 L57,52.5 L39,52.5 C39,47.5294373 43.0294373,43.5 48,43.5 Z" id="矩形" stroke="#FFFFFF" stroke-linejoin="round"></path>
                <path d="M12,43.5 C16.9705627,43.5 21,47.5294373 21,52.5 L21,52.5 L21,52.5 L3,52.5 C3,47.5294373 7.02943725,43.5 12,43.5 Z" id="矩形" stroke="#FFFFFF" stroke-linejoin="round"></path>
                <circle id="椭圆形" stroke="#FFFFFF" stroke-linejoin="round" cx="48" cy="37.5" r="6"></circle>
                <circle id="椭圆形" stroke="#FFFFFF" stroke-linejoin="round" cx="12" cy="37.5" r="6"></circle>
                <path d="M30,43.5 C34.9705627,43.5 39,47.5294373 39,52.5 L39,52.5 L39,52.5 L21,52.5 C21,47.5294373 25.0294373,43.5 30,43.5 Z" id="矩形" stroke="#406FE7" stroke-linejoin="round"></path>
                <circle id="椭圆形" stroke="#406FE7" stroke-linejoin="round" cx="30" cy="37.5" r="6"></circle>
            </g>
        </g>
    </g>
</svg>