<?xml version="1.0" encoding="UTF-8"?>
<svg width="80px" height="80px" viewBox="0 0 80 80" version="1.1" xmlns="http://www.w3.org/2000/svg" xmlns:xlink="http://www.w3.org/1999/xlink">
    <title>插画/dark/选中/21</title>
    <g id="插画/dark/选中/21" stroke="none" stroke-width="1" fill="none" fill-rule="evenodd">
        <circle id="椭圆形" fill="#406FE7" opacity="0.400000006" cx="27" cy="40" r="17"></circle>
        <g id="编组-2" transform="translate(10.000000, 13.000000)">
            <g id="编组" transform="translate(51.217665, 8.485281) scale(-1, 1) rotate(-45.000000) translate(-51.217665, -8.485281) translate(47.077633, 0.485281)" stroke="#FFFFFF" stroke-width="2">
                <ellipse id="椭圆形" cx="4.14003226" cy="4" rx="4.14003226" ry="4"></ellipse>
                <line x1="4.14003226" y1="8" x2="4.14003226" y2="16" id="路径-12" stroke-linecap="round" stroke-linejoin="round"></line>
            </g>
            <g id="编组" transform="translate(15.525121, 11.000000)">
                <path d="M27.97996,7.28644351 L15.4906695,0.261168689 C14.8715197,-0.0870562297 14.1087061,-0.0870562297 13.4899925,0.261168689 L1.0004112,7.28644351 C0.381261363,7.63466843 0,8.27827534 0,8.97458351 L0,23.0252748 C0,23.7217247 0.381261363,24.3651899 1.0004112,24.7134148 L13.4899925,31.7388313 C14.1087061,32.0870562 14.8715197,32.0870562 15.4906695,31.7388313 L27.97996,24.7134148 C28.5991099,24.3651899 28.9802258,23.7217247 28.9802258,23.0252748 L28.9802258,8.97458351 C28.9802258,8.27827534 28.5991099,7.63466843 27.97996,7.28644351 Z" id="Stroke-1" stroke="#FFFFFF" stroke-width="2"></path>
                <path d="M25.9955688,12.4766527 C25.3567888,13.2647622 23.7143986,13.5845111 22.4095018,13.1787686 C21.1645133,12.7914431 20.7631856,11.9028897 21.4375907,11.2026156 C22.0875671,10.528267 23.5415078,10.2371354 24.7533431,10.5418673 C26.0192704,10.8600578 26.6086115,11.7202773 25.9955688,12.4766527 M16.9779087,19.4959696 C18.3521655,20.1492094 18.759455,21.65516 17.7714035,22.8808877 C16.7305687,24.1722086 14.6516619,24.5452253 13.2598107,23.6987479 C11.9492429,22.9014299 11.8334977,21.35907 12.886983,20.2615536 C13.8917565,19.2143299 15.6775196,18.8775806 16.9779087,19.4959696 Z M14.6695471,8.00810175 L14.7096799,8.01660194 L14.7096799,8.01660194 C15.0960306,8.1136458 15.3416257,8.29455822 15.434978,8.51598822 L15.4390495,8.51712158 C15.4396311,8.5226467 15.4407944,8.52788849 15.4415214,8.53341361 C15.4566439,8.57336452 15.4679858,8.61416544 15.4730751,8.65652473 C15.5646825,8.89382175 15.8301986,9.09740135 16.2611897,9.21300397 C16.6844742,9.32648153 17.1886058,9.33455671 17.6764517,9.25507992 C18.2641933,9.10221813 18.9285652,9.0774259 19.4979853,9.22051247 C20.5372206,9.4817517 20.8955074,10.2139016 20.2384059,10.8674247 C19.5568758,11.5451733 18.0946468,11.8367299 17.0385441,11.5081975 C16.450948,11.3254434 16.1268322,10.9446348 16.1095286,10.6265859 C16.096151,10.3816387 15.7169253,10.157092 15.2993118,10.0356809 C14.8789355,9.91313645 14.3931254,9.92461171 13.9060065,9.98241301 C13.781973,9.99728835 13.5214008,10.0521146 13.3544717,10.1063741 C12.9066132,10.2517274 12.5183722,10.4157811 12.1952743,10.6774454 C11.7932195,11.0031444 11.6594436,11.5814408 11.6686043,11.796354 C11.6818365,12.0975441 11.9672736,12.3552416 12.4013183,12.5143369 C12.8280926,12.6705987 13.3589794,12.6990744 13.8876851,12.6176142 C14.5337355,12.4486021 15.241003,12.4415186 15.8210379,12.6404231 C16.8832477,13.0046563 17.151672,13.9367023 16.3478533,14.7357204 C15.5110267,15.5681725 13.9003356,15.8806963 12.8301283,15.4222526 C12.2370066,15.1682385 12.0281998,14.7038447 11.9966462,14.2747266 C11.9717813,13.9398191 11.6633696,13.6714964 11.2440112,13.5040426 C10.8223263,13.3355971 10.3292457,13.3415472 9.77785625,13.3875899 C9.70529735,13.3936817 9.37754636,13.4578582 9.17528299,13.509851 C8.89900664,13.580686 8.33147685,13.7359561 7.85468203,14.1929831 C7.47807375,14.5542413 7.31012681,14.895099 7.21386631,15.1003786 C7.15890186,15.2181063 7.09172308,15.4850123 7.08881491,15.5763894 C7.07645518,15.9535146 7.29616758,16.294939 7.72483215,16.5141022 C8.14709874,16.7300071 8.70459533,16.7876668 9.28157668,16.7054982 C9.99931355,16.516369 10.7525301,16.5360611 11.335037,16.812884 C12.4055352,17.3219038 12.5305866,18.5316228 11.5252315,19.5312454 C10.4729094,20.577619 8.6804575,20.9133766 7.61999255,20.2683537 C7.03893976,19.9150291 6.87026578,19.3822087 6.95227623,18.7614113 L6.95154919,18.7578696 C6.95154919,18.7546112 6.94965888,18.6093996 6.92988331,18.5316228 C6.92988331,18.5314811 6.91417918,18.4085117 6.83391363,18.2508331 C6.72616585,18.0394617 6.54760408,17.8639327 6.30549876,17.7279297 C5.89239291,17.4954494 5.346529,17.4355231 4.77667268,17.5185416 C4.06286184,17.7066792 3.3643189,17.6799036 2.90584557,17.4010973 C2.1241289,16.9253699 2.35765512,15.9158304 3.36141073,15.1533632 C3.87935618,14.7598043 4.51042952,14.5013984 5.10544154,14.4005295 L5.10791348,14.3985461 C5.67515245,14.2869103 6.25925882,14.0365796 6.71642347,13.6795715 C7.16529984,13.3287969 7.39926228,12.9471383 7.41961949,12.6167642 L7.4215098,12.6153475 C7.42369093,12.6079807 7.42878023,12.4375518 7.39737197,12.2570644 C7.37730558,11.971883 7.39199185,11.6899599 7.6580896,11.382253 C7.82821767,11.1860402 8.1971193,10.9953526 8.600919,10.9214009 C8.87734076,10.8706831 9.23344643,10.8821583 9.43469194,10.8716748 C9.60903686,10.8626079 9.91337707,10.8280405 10.0205432,10.7967314 C10.4275419,10.6780121 10.6702289,10.5452674 10.9719517,10.3096704 C11.2800725,10.0689733 11.4711395,9.81637593 11.5045834,9.5861624 C11.5117085,9.53742796 11.5284304,9.3120312 11.5233411,9.28497226 C11.4205373,8.74492672 12.1928024,8.15232167 13.2486142,7.96120902 C13.7835725,7.86459017 14.287995,7.88980741 14.6695471,8.00810175 Z" id="形状结合" fill="#406FE7"></path>
            </g>
            <g id="编组" transform="translate(51.217665, 45.485281) scale(-1, -1) rotate(-45.000000) translate(-51.217665, -45.485281) translate(47.077633, 37.485281)" stroke="#FFFFFF" stroke-width="2">
                <ellipse id="椭圆形" cx="4.14003226" cy="4" rx="4.14003226" ry="4"></ellipse>
                <line x1="4.14003226" y1="8" x2="4.14003226" y2="16" id="路径-12" stroke-linecap="round" stroke-linejoin="round"></line>
            </g>
            <g id="编组" transform="translate(8.782335, 8.485281) rotate(-45.000000) translate(-8.782335, -8.485281) translate(4.642302, 0.485281)" stroke="#FFFFFF" stroke-width="2">
                <ellipse id="椭圆形" cx="4.14003226" cy="4" rx="4.14003226" ry="4"></ellipse>
                <line x1="4.14003226" y1="8" x2="4.14003226" y2="16" id="路径-12" stroke-linecap="round" stroke-linejoin="round"></line>
            </g>
            <g id="编组" transform="translate(8.782335, 45.485281) scale(1, -1) rotate(-45.000000) translate(-8.782335, -45.485281) translate(4.642302, 37.485281)" stroke="#FFFFFF" stroke-width="2">
                <ellipse id="椭圆形" cx="4.14003226" cy="4" rx="4.14003226" ry="4"></ellipse>
                <line x1="4.14003226" y1="8" x2="4.14003226" y2="16" id="路径-12" stroke-linecap="round" stroke-linejoin="round"></line>
            </g>
        </g>
    </g>
</svg>