<svg id="图层_1" data-name="图层 1" xmlns="http://www.w3.org/2000/svg" viewBox="0 0 800 800"><defs><style>.cls-1{fill:#5f82d6;}.cls-14,.cls-16,.cls-18,.cls-2,.cls-9{fill:#fff;}.cls-3{fill:#ccc;}.cls-4{fill:#ffcd6e;}.cls-5{fill:#3165eb;}.cls-6{fill:#ff8885;}.cls-7{fill:#ffd26e;}.cls-8{fill:#dbdde2;}.cls-9{stroke:#ccc;}.cls-11,.cls-14,.cls-15,.cls-17,.cls-19,.cls-9{stroke-linecap:round;}.cls-11,.cls-14,.cls-15,.cls-16,.cls-17,.cls-19,.cls-9{stroke-linejoin:round;}.cls-10{fill:#1331a1;}.cls-11,.cls-14,.cls-15,.cls-16,.cls-18{stroke:#000;}.cls-12{fill:#3165f0;}.cls-13{fill:#5789f7;}.cls-15,.cls-19{fill:none;}.cls-17,.cls-19{stroke:#fff;}.cls-18{stroke-miterlimit:10;}</style></defs><path class="cls-1" d="M129,322.57l-.06.07-1.15-.81A11.24,11.24,0,0,0,129,322.57Z"/><rect class="cls-2" x="158.16" y="213.47" width="432.42" height="294.12"/><path class="cls-3" d="M590.08,214V507.09H158.66V214H590.08m1-1H157.66V508.09H591.08V213Z"/><rect class="cls-2" x="158.16" y="213.2" width="432.42" height="31.4"/><path class="cls-3" d="M590.08,213.7v30.4H158.66V213.7H590.08m1-1H157.66v32.4H591.08V212.7Z"/><path class="cls-2" d="M177.2,233.29a4.36,4.36,0,1,1,4.35-4.36A4.36,4.36,0,0,1,177.2,233.29Z"/><path class="cls-3" d="M177.2,225.08a3.86,3.86,0,1,1-3.85,3.85,3.86,3.86,0,0,1,3.85-3.85m0-1a4.86,4.86,0,1,0,4.85,4.85,4.85,4.85,0,0,0-4.85-4.85Z"/><circle class="cls-4" cx="197.34" cy="228.8" r="4.85"/><circle class="cls-5" cx="217.41" cy="228.8" r="4.85"/><path class="cls-6" d="M425.83,555.92A63.86,63.86,0,0,0,362,619.78H489.69A63.91,63.91,0,0,0,425.83,555.92Z"/><rect class="cls-2" x="192.52" y="180.6" width="432.42" height="294.12"/><path class="cls-3" d="M624.43,181.1V474.22H193V181.1H624.43m1-1H192V475.22H625.43V180.1Z"/><rect class="cls-2" x="192.52" y="180.26" width="432.42" height="31.4"/><path class="cls-3" d="M624.43,180.76v30.4H193v-30.4H624.43m1-1H192v32.4H625.43v-32.4Z"/><path class="cls-2" d="M211.55,200.34A4.35,4.35,0,1,1,215.9,196,4.35,4.35,0,0,1,211.55,200.34Z"/><path class="cls-3" d="M211.55,192.14A3.85,3.85,0,1,1,207.7,196a3.86,3.86,0,0,1,3.85-3.85m0-1A4.85,4.85,0,1,0,216.4,196a4.85,4.85,0,0,0-4.85-4.85Z"/><circle class="cls-4" cx="231.69" cy="195.86" r="4.85"/><circle class="cls-5" cx="251.77" cy="195.86" r="4.85"/><polygon class="cls-7" points="84.7 529.17 105.25 508.02 115.22 517.72 115.29 522.3 131.72 538.34 113.47 557.13 84.7 529.17"/><polygon class="cls-7" points="166.89 513.41 137.92 508.02 135.36 521.7 137.92 525.47 133.75 548.1 159.55 552.89 166.89 513.41"/><path class="cls-8" d="M400.17,387.51a87.7,87.7,0,0,0,5.59,23.37H363.32V331.19h37.52l8,7.95a88,88,0,0,0-9,33.62A98.43,98.43,0,0,0,400.17,387.51Z"/><path class="cls-7" d="M471.78,340v70.86h-66a87.7,87.7,0,0,1-5.59-23.37,90,90,0,0,1-.27-14.75,88.32,88.32,0,0,1,9-33.62l.87.88Z"/><path class="cls-8" d="M585.62,347.43v54H574.91a88.5,88.5,0,0,0,2.76-28.63c-.07-1.08-.13-2.23-.27-3.31a89.51,89.51,0,0,0-5.12-22Z"/><path class="cls-7" d="M574.91,401.39H503v-60.7h28.56l6.67,6.67h34a89.69,89.69,0,0,1,5.12,22c.14,1.08.2,2.22.27,3.3A87.11,87.11,0,0,1,574.91,401.39Z"/><rect class="cls-8" x="231.89" y="245.17" width="311.76" height="27.75"/><rect class="cls-8" x="557.87" y="245.17" width="27.75" height="27.75"/><rect class="cls-8" x="117.37" y="520.77" width="27.75" height="27.75" transform="translate(-397.39 380.98) rotate(-60)"/><rect class="cls-2" x="86.01" y="541.93" width="80.64" height="59.49"/><path class="cls-3" d="M166.16,542.43v58.5H86.51v-58.5h79.65m1-1H85.51v60.5h81.65v-60.5Z"/><line class="cls-9" x1="70.42" y1="601.93" x2="178.81" y2="601.93"/><path class="cls-10" d="M99.66,602.8a8.56,8.56,0,1,1-8.56,8.56A8.56,8.56,0,0,1,99.66,602.8Z"/><circle class="cls-10" cx="152.88" cy="611.36" r="8.56"/><polygon class="cls-11" points="271.37 391.69 237.15 385.96 236.27 391.69 269.89 396.8 271.37 391.69"/><path class="cls-12" d="M269.89,396.8s34.49,66.9,21.62,94.38-70.33,92.63-70.33,92.63l-21.49-15.63s59.69-77.4,55.85-105.22-15.36-70.67-15.36-70.67Z"/><path class="cls-13" d="M236.27,391.68s-14.14,16.1-5.25,59.55,35.77,139.51,35.77,139.51h26.88l-28-194.54Z"/><path class="cls-2" d="M284.37,590.74s.88,11.19,9.23,17,19.33,5.19,21.35,12.13H271.57a110,110,0,0,1-.87-13.68c.06-5.52.87-15.36.87-15.36h12.8Z"/><path class="cls-2" d="M215.12,579.36s-3.64,2.29-4.51,11.32a142.68,142.68,0,0,0,0,20.54s7.21,2.63,8.49,8.49H208l-21.22-19.47s4.45-8.22,8.22-14c2.56-3.91,11.05-13.54,11.05-13.54Z"/><path class="cls-14" d="M273.46,331.19s.13-2.29.4-4.85,2.29.34,6.27-.2,3.57-7.41,4.24-10a6.35,6.35,0,0,1,2.69-3.7s-3.57.07-4.31-5a8.79,8.79,0,0,0-.33-2,10.31,10.31,0,0,0-9.16-7.47c-14.76-1.28-11.46,11.85-11,20,.53,8.83-3.84,10.31-3.84,10.31l10.5,18.46C269.08,346.62,279.52,342.71,273.46,331.19Z"/><path class="cls-15" d="M272.11,311.25s4.38,1.69,2.76,5.86a4.74,4.74,0,0,1-3.16,3,4,4,0,0,1-5.19-3.77v-.06a3.09,3.09,0,0,1,3.77-3,2.72,2.72,0,0,1,2.22,3,2.1,2.1,0,0,1-2.89,1.68,1.64,1.64,0,0,1-.47-2.83"/><path class="cls-11" d="M278.91,295.22a5.51,5.51,0,0,0,2.77.14c2.22-.48,6.6-.75,7.88,3.57,1.14,3.84-3.1,5.52-6.2,6.19a4.3,4.3,0,0,0-3.3,3.1,4.76,4.76,0,0,1-4.11,3.71c-4.78.6-4.58-.95-9.23.6s-7.81-2.69-8.08-5.39-.14-9.36,6.87-12.05C270.63,293.06,276.35,294.41,278.91,295.22Z"/><path class="cls-11" d="M260.25,299.06s-1.41-9.09-10.91-8.49-4.24,9.77-13.74,12.8-13.54-4.38-23.91-1.62-7.41,12.94-11.05,19.27-8.69,5.39-9.77,12.53,5,6.53,5.32,12.46,6.6,8.09,12.26,4.25,4.85-5.73,14.82-6.61,4.25-15.29,10-24.38S250,321.36,258.57,307C258.57,307.14,257.16,304.38,260.25,299.06Z"/><path class="cls-16" d="M302.09,362.25,284,372.69l-1.14-2.49-7.07,24.18-41.1-6.87.95-22.16L219,354s23.17-27.48,41.56-27.42c0,0,5.66,17.52,10.65,17s2.22-12.39,2.22-12.39C288.21,340.76,301.89,362.11,302.09,362.25Z"/><path class="cls-15" d="M281.41,344.73a12.81,12.81,0,0,0,.47,6.33c1.14,3.1,4.58,6.88,1,19.07"/><polyline class="cls-15" points="235.73 365.35 246.51 372.62 253.38 344.73"/><path class="cls-14" d="M226.91,359.35S204.75,399,207,437c0,0,0,4.65,1.68,5.39s2.43-5.39,3.91-8.55-.4-8,.94-13.07,8.63-34.63,24-54.23Z"/><path class="cls-14" d="M300.13,363.39s19.81,18.06,51.94-.27c0,0,5.05-4.85,4.45-19.4s3.84-4.71,3.84-4.71,5.45,14.28-.74,25.39S328,382,310.37,382s-23.64-10.91-23.64-10.91Z"/><path class="cls-11" d="M563.79,458.11s-7.34-3.1-20.54-2.83-16.3,8.48-16.3,8.48-1,3,4.78,2.77,18.59-4.85,29.37-1.49Z"/><path class="cls-12" d="M656.08,432.78a690.33,690.33,0,0,1-100.23,20.54L557.73,465s36.24,6.13,77.4-4.78Z"/><path class="cls-17" d="M577.87,590.27s-.87,11.32-9.36,17.18S549,612.7,546.89,619.71h43.92a121.74,121.74,0,0,0,.94-13.88c-.07-5.59-.94-15.56-.94-15.56Z"/><path class="cls-17" d="M697.65,591.15s11.38-.07,17.91,7.88,6.88,19.06,14,20.48l-3.71-43.79A116.63,116.63,0,0,0,712,576c-5.59.54-15.42,2.22-15.42,2.22Z"/><path class="cls-18" d="M651,557.6c-5.86-.07-12.93-1.75-20.34-4.18h0a1.43,1.43,0,0,0-.48-.13c-.06-.07-.2-.07-.27-.13-3-1-6.13-2.16-9.16-3.37-.06-.07-.2-.07-.27-.14a341,341,0,0,1-38.26-18.52h0a1.54,1.54,0,0,1-.47-.27c4.65,13.07,11.12,65.74,11.12,65.74l-24.59.88s-4.11-31.73-6.54-51.87c-2.42-19.8-2.35-36.17,5.73-37.93S638,525.74,638,525.74s2.22,2,5.25,4.85C652.44,539.68,669.08,557.94,651,557.6Z"/><path class="cls-18" d="M649.14,592.16c5.8-10.91,19.81-39,20-58,.34-24-36.71-16.64-36.71-16.64a259,259,0,0,0-7.41,31c-2.7,16.84-2.83,33.41-4.38,48.43-.74,6.87-.07,15.49,6.06,19.94,5.53,4,13.61,3.5,19.94,3.1,19.34-1.35,61.84-24,61.84-24l-1.75-22.1Z"/><path class="cls-12" d="M646.72,620a11.84,11.84,0,0,1-8.76-4.92L527.69,461.14a11.79,11.79,0,1,1,19.2-13.68L657.16,601.39a11.83,11.83,0,0,1-2.76,16.43A11.45,11.45,0,0,1,646.72,620Z"/><path class="cls-12" d="M577.67,372.76c-.07-1.08-.13-2.23-.27-3.31a89.51,89.51,0,0,0-5.12-22,89.15,89.15,0,0,0-152.58-25.2,91.11,91.11,0,0,0-10.91,17,88,88,0,0,0-9,33.61,98.49,98.49,0,0,0,.27,14.76A88.09,88.09,0,0,0,405.69,411a89.25,89.25,0,0,0,19.54,30.11,83.94,83.94,0,0,0,7.21,6.54,88.38,88.38,0,0,0,48,19.67c.53.06,1,.06,1.48.13a89.86,89.86,0,0,0,39.88-6.06c.94-.41,1.95-.81,2.89-1.21.61-.27,1.22-.54,1.75-.81a86.84,86.84,0,0,0,12.8-7.34c.27-.14.48-.34.75-.48,2.15-1.48,4.17-3.1,6.19-4.78a79.36,79.36,0,0,0,6-5.59,83,83,0,0,0,5.59-6.27,89.82,89.82,0,0,0,17.11-33.34A88,88,0,0,0,577.67,372.76Zm-35,49.58h0a69.24,69.24,0,0,1-46.82,25.26A68.7,68.7,0,0,1,458.51,441,69.56,69.56,0,0,1,445,432.31a68.1,68.1,0,0,1-17.52-21.43,69.75,69.75,0,0,1-7.75-38.12A68.81,68.81,0,0,1,431.09,340c1.21-1.82,2.56-3.64,4-5.39a69.45,69.45,0,0,1,116,12.73,68.21,68.21,0,0,1,6.87,23.44c0,.2.07.41.07.61a70.23,70.23,0,0,1-3.5,30A71.9,71.9,0,0,1,542.64,422.34Z"/><path class="cls-11" d="M652.71,437.69c-.53-.53-1-1.14-1.48-1.61a9.26,9.26,0,0,1-1.82-2.43,2.52,2.52,0,0,1-.13-1.21c1.41-8.08-.07-10-1.15-10.37a1.87,1.87,0,0,0-.6-.14c-1-.07-6.87-.74-7.21-3-.27-1.89,2.22-6.13,3.57-8.22a2.38,2.38,0,0,0,.07-2.49c-.88-1.48-2-3.77-.81-3a10.05,10.05,0,0,0,1.21.47,4.89,4.89,0,0,0,4-1.15,24.62,24.62,0,0,1,7-4.24,2.43,2.43,0,0,1,1.82.07c2.42,1.21,8.89,5.12,7.54,10.91-1.68,7.07-.47,22.36-.47,22.36a29.06,29.06,0,0,0,3.37,2.77c1,.67-5.66,2.35-8.62,3.43a5.54,5.54,0,0,1-5.6-1.28A9.92,9.92,0,0,0,652.71,437.69Z"/><path class="cls-18" d="M666.32,395.19a6.48,6.48,0,0,1-3.23-1.69c-2.7-2.83-9.23-8.35-12.8-2-3.91,6.87,4.11,11.72,6.8,13.07a.89.89,0,0,1,.41,1.21c-.41,1-.88,2.63-.07,3.71,1.21,1.62,3.17-.67,5.12,2.9s-4.85,4.24-4.92,6.53,6.2,6.67,6.2,6.67,17-4.45,13.27-16.17C677.1,409.4,678,397.68,666.32,395.19Z"/><path class="cls-19" d="M657.43,409.67s-4.18-1.21-5.25,2.83a4.35,4.35,0,0,0,.67,4,3.65,3.65,0,0,0,5.93,0,.06.06,0,0,1,.06-.06,2.79,2.79,0,0,0-1.14-4.31,2.53,2.53,0,0,0-3.3,1,2,2,0,0,0,1.21,2.89,1.48,1.48,0,0,0,1.89-1.82"/><path class="cls-11" d="M610.88,507.28s-10.57,2.7-16,.94-17.72-.8-19.74,2.7,12,7.74,18.46,6.87c7.07-.94,20.68-3.57,20.68-3.57Z"/><path class="cls-12" d="M664.1,429.27s-31.06-8-35.1,67.5l-19.2,7.08,3.57,11.72,12.13-.34s.13.27-3,10.31L683,536.92C683.09,536.92,702.16,454.6,664.1,429.27Z"/><path class="cls-15" d="M673.73,454.27s5.86,31.93-7.81,47.08-40.29,13.95-40.29,13.95"/><path class="cls-15" d="M628.13,497.31,652,486.2l.2-7.82s0-8.42-.47-14.28"/></svg>