<svg id="图层_1" data-name="图层 1" xmlns="http://www.w3.org/2000/svg" viewBox="0 0 800 800"><defs><style>.cls-1{stroke:#fff;stroke-miterlimit:10;}.cls-2{fill:#ffcc6e;}.cls-3{fill:#dddfe4;}.cls-4{fill:#3165ea;}.cls-5{fill:#fff;}.cls-6,.cls-8{fill:none;}.cls-7{fill:#002f9e;}.cls-8{stroke:#ccc;stroke-linecap:round;stroke-linejoin:round;}.cls-9{fill:#ff8885;}</style></defs><polygon class="cls-1" points="344.85 622.72 241.35 622.72 123.16 315.22 226.66 315.22 344.85 622.72"/><polygon class="cls-2" points="226.66 315.22 123.16 315.22 212.14 546.71 263.67 411.51 226.66 315.22"/><path class="cls-3" d="M343,507.72a129.1,129.1,0,0,0,252.94,0Z"/><circle class="cls-4" cx="570.6" cy="575.71" r="44.87"/><path d="M587.48,534.14a44.87,44.87,0,0,0-57.1,61.48A129.58,129.58,0,0,0,587.48,534.14Z"/><path class="cls-5" d="M332.47,260.35a11.88,11.88,0,0,1,11.78,6.89c.3.7.47,1.47.72,2.26,1.74,5.73,5.81,5,5.81,5a7.17,7.17,0,0,0-2.41,4.73c-.33,3.16,1.42,10.9-3.07,12.23s-7.32-1.67-7.15,1.33l.33,6-10,1.93L321,297.6s4.66-2.5,2.5-12.47C321.52,275.93,315.43,261.51,332.47,260.35Z"/><path d="M331.91,258.61s1.5-7.73,8.48-6.24a7.25,7.25,0,0,1,6.15,7.95,9.89,9.89,0,0,1-2.83,5.83s-.29,5.09-4.47,6.76c0,0-4.42-4.58-6-2.75s-.37,6.07,2.56,8.57-.06,6.65-3.47,7.64c0,0-3.33-3.32-8.81-1.24C323.52,285.13,307.8,259.69,331.91,258.61Z"/><path class="cls-5" d="M370.28,318.66l8.88,5.1s26.49-24.39,33.92-41.79,12.53-17.52,17.51-20.29a23.86,23.86,0,0,0,7.65-6.76s-1.36-10.64,3.65-8.09c0,0,3.8-3.52,4.4,3.51s.93,12-8.93,18.94-11.53,3.93-14.64,10.58-16.4,42.23-30.15,56.87c0,0-6.43,7.66-18.18,2.21l-9.6-4.38Z"/><path class="cls-5" d="M271.72,321.87s-4.29,4.55-9.28,4.66-34.36-18.29-53.21-18.29-21.39,7-21.39,7h16.64a47.86,47.86,0,0,1,15.25,2.43,50.37,50.37,0,0,1,21.32,13.76c13.63,15.07,27.38,10.08,30.26,7.87Z"/><path class="cls-5" d="M204.8,566l66.51-174.48s32.59-14.85,59.3-17,63.29-11,71.5,6.87c7.89,17.17,10.64,45.11-14.41,93.44H360.43s16.18-50.54,14.41-73.6c0,0-50.37,16.18-69,16.63l-80,166.27Z"/><path class="cls-5" d="M375.06,474.84s-6,13.3,1.33,19.29,23.28,7.09,25.49,13.3H359.76s-2.21-16.29,3.55-32.59Z"/><path class="cls-1" d="M219.89,579s-6.67,11.81-6.44,19.79.44,18,5.32,19.29,6,4.65,6,4.65H209.23s-4,.45-7.31-5.1c-2.79-4.65-10.1-13.29-12.39-16a1.23,1.23,0,0,1,0-1.61c3.07-3.56,15.33-17.82,17.26-21.07a49.29,49.29,0,0,0,3.72-8.09Z"/><path class="cls-6" d="M437.92,255.37s3.36-5.45,5-5.07,1.44,1.91.39,4.62c-1.29,3.34-5.54,8.76-8.64,11.2"/><path class="cls-6" d="M441.89,246.83s-1.26,1-.51,4.17"/><path d="M305.87,417.37c-14.11.17-21.93-4.88-21.93-4.88s2.75,4.63,19.82,9.27Z"/><path class="cls-4" d="M370.85,317s-21.73-21.18-46.45-19.62-52.65,22.94-52.65,22.94l-.44,21.84,20.28-7.87-20.28,57.19s29-13.41,59.3-17c0,0,12.31-16.59,18.18-42.9l14.3,7.87Z"/><polygon class="cls-7" points="397.27 202.77 397.27 224.38 415.98 235.19 434.7 224.38 434.7 202.77 415.98 191.97 397.27 202.77"/><rect class="cls-8" x="515" y="177.28" width="161.84" height="161.84"/><line class="cls-8" x1="515" y1="209.33" x2="676.84" y2="209.33"/><line class="cls-8" x1="515" y1="241.53" x2="676.84" y2="241.53"/><line class="cls-8" x1="515" y1="273.73" x2="676.84" y2="273.73"/><line class="cls-8" x1="515" y1="305.92" x2="676.84" y2="305.92"/><line class="cls-8" x1="644.46" y1="177.28" x2="644.46" y2="339.12"/><line class="cls-8" x1="612.08" y1="177.28" x2="612.08" y2="339.12"/><line class="cls-8" x1="579.69" y1="177.28" x2="579.69" y2="339.12"/><line class="cls-8" x1="547.31" y1="177.28" x2="547.31" y2="339.12"/><polygon class="cls-9" points="539.46 360.51 539.46 287.78 494.27 287.78 494.27 360.51 463.14 360.51 516.87 418.71 570.6 360.51 539.46 360.51"/></svg>