<svg id="图层_1" data-name="图层 1" xmlns="http://www.w3.org/2000/svg" xmlns:xlink="http://www.w3.org/1999/xlink" viewBox="0 0 800 800"><defs><style>.cls-1,.cls-19,.cls-6,.cls-9{fill:none;}.cls-2{fill:#e3e5ea;}.cls-18,.cls-19,.cls-2,.cls-20,.cls-21,.cls-5,.cls-9{stroke:#000;}.cls-2,.cls-20,.cls-21,.cls-4,.cls-5,.cls-6,.cls-7,.cls-9{stroke-linecap:round;stroke-linejoin:round;}.cls-3{fill:#6cc4ff;}.cls-4,.cls-6{stroke:#fff;}.cls-11,.cls-18,.cls-21,.cls-5,.cls-7{fill:#fff;}.cls-7{stroke:#ccc;}.cls-8{fill:#3165f0;}.cls-10{fill:#ffce6e;}.cls-12{fill:#ccc;}.cls-13{fill:#dee0e5;}.cls-14{fill:#ffcd6e;}.cls-15{fill:#3165eb;}.cls-16{clip-path:url(#clip-path);}.cls-17{fill:#f79c2f;}.cls-18,.cls-19{stroke-miterlimit:10;}</style><clipPath id="clip-path"><rect class="cls-1" x="73.69" y="167.33" width="352.64" height="234.9"/></clipPath></defs><polygon class="cls-2" points="553.64 237.63 615.19 209.03 561.26 207.84 564.66 217.22 552.57 228.63 553.64 237.63"/><polygon class="cls-2" points="615.19 209.03 552.57 215.34 505.14 242.93 615.19 209.03"/><polygon class="cls-2" points="561.26 207.84 615.19 209.03 560.38 188 561.26 207.84"/><circle class="cls-3" cx="481.59" cy="332.53" r="20.66"/><path class="cls-4" d="M599.5,385s-9.76,8.57-12.91,13.86-12.79,6.36-12.79,6.36l3.59,2.14a7.87,7.87,0,0,1,3.91,8.38c-1.39,6.68-2.59,17.76,3.08,20.79,8.32,4.41,23.12-3.84,20.79,5s-12.41,11.46-12.41,11.46L611,467.94l17.89-10.21s-3-23.18.88-33,15-25.58-5.42-38.49S599.5,385,599.5,385Z"/><path class="cls-5" d="M617.83,371.68a24.86,24.86,0,0,1-10.71-1.38c-7.18-2.58-19.71-5-26.08,5.73-6.55,11.15,8.57,17.51,17.77,20.22a11.45,11.45,0,0,1,7.56,7.44,12,12,0,0,0,2.89,5c3.66,3.47,8.26-2.77,14.74,2.4s-7.62,9.76-8,13.6,12,8.82,12,8.82,43.08-11.21,20.15-38.93a16.76,16.76,0,0,1-2.64-4.6C643.34,384,636.1,369.86,617.83,371.68Z"/><path class="cls-6" d="M613,408s-8.94.31-8.06,8.69a9.31,9.31,0,0,0,4.28,7.18c4.41,2.84,10.27,1.2,11.4-3.59,0-.06,0-.12.07-.12a6,6,0,0,0-5.42-7.56c-2.08-.13-5.23.69-5.61,4s2.65,4.72,4.47,4.72,4.1-2.2,2.34-4.66"/><line class="cls-7" x1="386.39" y1="603.19" x2="726.31" y2="603.19"/><path class="cls-4" d="M404.09,502.65a3.29,3.29,0,0,0-1.76,2c-.44,1.58,1.39,3,3,4,4.41,2.71,9.58,5.86,15.63,6.61,5.1.63,10.71-.69,15.68-1.38a1.85,1.85,0,0,1,1.64.63l9.51,12.66a1.87,1.87,0,0,0,1.89.57l9.2-2.46c1.07-.32,1.45-1.39.75-2.08-3-3-5.85-6-8.81-9-3.28-3.34-7.5-10.08-13.11-11.4C428.47,500.44,412.79,497.61,404.09,502.65Z"/><polygon class="cls-8" points="163.84 518.4 199.74 585.23 304.19 532.51 267.52 462.39 163.84 518.4"/><polyline class="cls-9" points="165.1 518.4 235.27 525.45 268.85 462.39"/><circle class="cls-10" cx="271.24" cy="463.47" r="15.43"/><polygon class="cls-11" points="488.59 643 520.44 625.8 606.81 625.8 578.95 643 488.59 643"/><path class="cls-12" d="M605.05,626.3l-26.24,16.2H490.57l30-16.2h84.48m3.52-1h0Zm0,0H520.32l-33.7,18.2h92.47l29.48-18.2Z"/><line class="cls-7" x1="531.72" y1="628.63" x2="597.17" y2="628.63"/><line class="cls-7" x1="526.99" y1="632.04" x2="590.3" y2="632.04"/><line class="cls-7" x1="517.1" y1="637.77" x2="578.59" y2="637.77"/><line class="cls-7" x1="597.23" y1="628.63" x2="578.59" y2="637.77"/><line class="cls-7" x1="587.03" y1="628.63" x2="568.38" y2="637.77"/><rect class="cls-11" x="486.3" y="644" width="92.29" height="3.54"/><path class="cls-12" d="M578.09,644.5V647H486.8V644.5h91.29m1-1H485.8V648h93.29V643.5Z"/><polygon class="cls-11" points="486.19 643 471.12 580.5 562.57 580.5 578.14 643 486.19 643"/><path class="cls-12" d="M562.18,581l15.32,61.5H486.58L471.76,581h90.42m.78-1H470.49l15.31,63.5h93L563,580Z"/><polygon class="cls-12" points="579.59 643.78 608.07 626.19 608.07 628.37 579.59 647.05 579.59 643.78"/><path class="cls-12" d="M607.57,627.09v1l-27.48,18v-2.06l27.48-17m1-1.79-29.48,18.2V648l29.48-19.34V625.3Z"/><rect class="cls-11" x="95.49" y="167.83" width="242.91" height="233.9"/><path class="cls-12" d="M337.9,168.33V401.24H96V168.33H337.9m1-1H95V402.24H338.9V167.33Z"/><rect class="cls-13" x="94.99" y="151.96" width="243.91" height="30.8"/><circle cx="108.78" cy="167.33" r="3.91"/><circle class="cls-14" cx="125.66" cy="167.33" r="3.91"/><circle class="cls-15" cx="142.92" cy="167.33" r="3.91"/><g class="cls-16"><path class="cls-17" d="M246,221.57a7.78,7.78,0,0,1-6.61,1.58c-5.23-1.2-14.17-1.7-14.74,8.37-.69,11.91-3.91,22.93,2.9,24.7,2.33.63,1.57.82,2.26,3.84.7,3.21,4.79.88,7,1.89,4.15,1.89-2.46,8.82,2.14,14.74s18.46-3.59,18.77,4.79S261.54,297.16,273,297s21.92-7.63,30.11-.57,7.87,19.4,19.46,21,14-10.08,21.86-11.46,23.31,4.72,28.54-8.57-14-15.5-18.4-26.08S342.3,255.65,333,255.84s-20.41,12.09-28.29,8.63-18.52-27.34-25.39-36.73C274.08,220.69,257.63,212.37,246,221.57Z"/><path class="cls-18" d="M274.64,230.26s3.4,6.62,1.58,13.74c-1,3.84,1.76,9.57,6.23,10.83l-5.22.76a6.41,6.41,0,0,0-5.3,4.79c-1.44,5.73-4.41,15.3-7.81,14.48-4.78-1.13-12.15-6.36-14.67-2.2s-8.57,19.9,7.3,25.13c0,0-29.54,10.71-34.83,9.7s-17.7-27.59-17.7-27.59,16.82,4.41,19.52-2.2,10.08-34.52,10.08-34.52,9.39-34,28.1-23.69S274.64,230.26,274.64,230.26Z"/><path class="cls-10" d="M296.5,224.41a13.58,13.58,0,0,1-5.35,7.87c-4.16,2.83-9.77,3.28-14.81,2.65a7.57,7.57,0,0,0-7,3.08c-1.7,2.33-4.09,4.79-6.8,4.79-1.64,0-3-1-4.29-2.27-2.7-2.71-5.22-6.55-9.82-4.41a4.73,4.73,0,0,0-3.09,5.17c.25,3.34,2.14,7.43.5,11.46-2.26,5.55-7.93,9.7-16.81,8.25-.57-.06-1.58,4.54-1.58,4.54l-3.27-5.42a9.38,9.38,0,0,1-.51-1.13c-10.64-29.73,0-47.25,14.24-56.19a23.42,23.42,0,0,1,10.77-3.47c9.07-.5,20.41,1.7,27.15,9.39a11.32,11.32,0,0,0,6.8,3.65,32.54,32.54,0,0,1,8.19,2.27,12.87,12.87,0,0,1,4.22,2.9A7.12,7.12,0,0,1,296.5,224.41Z"/><path class="cls-9" d="M260.47,242.3s7.56,5.41,2.27,12.53a9.38,9.38,0,0,1-7.56,4.16c-5.29.06-9.51-4.79-7.88-9.83,0-.06.07-.12.07-.19,1.89-5.48,6.86-4.91,8.75-3.78s4.16,3.59,2.65,6.87a4.27,4.27,0,0,1-6.43,1.76,3.2,3.2,0,0,1,.51-5.6"/><path class="cls-18" d="M315.53,365.83s20.91-10.33,36.09-7.44,13.1,18-5.29,17.2-25.89,4.28-25.89,4.28Z"/><path class="cls-8" d="M204.34,279.9s-31.49-2.64-37.79-2.26-5.42.12-15.31,5.92c-10.08,5.92-70.05,60.91-70.05,60.91s-8,7.69-2.39,13.23,37.41,13.17,57.76,14.43l6.36-13.42-27-11.22,40.38-23.18s3,49.2-2.21,59.53-13.92,18.33-13.92,18.33,38.49,47.5,94.87,15.25c0,0-12.16-39.06,8.06-63.5A146.47,146.47,0,0,0,260,397.76a8.88,8.88,0,0,0,11.27,3.66l49.89-20.66-5.92-15.63-38.74,11.15s.76-38.11-2.2-50.83-13.3-25.83-17.39-27.66l-32.44,7Z"/><path class="cls-18" d="M142.42,359.65s22.74,5,32.88,16.7-.94,22.17-14.86,10.14-23.63-15-23.63-15Z"/></g><line class="cls-19" x1="140.21" y1="402.24" x2="232.06" y2="402.24"/><path class="cls-11" d="M628.73,452.19l-19.59,13.42-16.32-12.54-33.76,18.4a38.07,38.07,0,0,0-12.54,11l-36.16,49.89L446.55,502l-10,20L493,561.36a22,22,0,0,0,23.18,1.26l46.62-25.39,21.67,66h93.1s-9.76-37.3-10.83-60.42c0,0,28-26.33,14.3-62.36a27.25,27.25,0,0,0-16.63-15.94Z"/><line class="cls-9" x1="557.48" y1="501.77" x2="562.84" y2="537.17"/><path class="cls-4" d="M550.24,516.19s-9-21.54-22.24-29.35-21.67,4.91-7.37,16.44,19,20.53,19,20.53Z"/><path class="cls-18" d="M666.84,542.71S628.16,601.86,612.6,596s-75.21-71.68-75.21-71.68l14.24-12.73L609,552l35-46.42"/><path class="cls-20" d="M352.12,373.2l-13.79-21.55a2.39,2.39,0,0,1,.69-3.27L383.24,320a2.4,2.4,0,0,1,3.28.69l13.79,21.55a2.38,2.38,0,0,1-.69,3.27L355.4,373.89A2.41,2.41,0,0,1,352.12,373.2Z"/><rect class="cls-21" x="347.95" y="331.42" width="44.03" height="30.36" transform="translate(-128.55 254.47) rotate(-32.66)"/><circle class="cls-18" cx="348.35" cy="360.35" r="2.02"/><path class="cls-11" d="M411.75,504.42A30.41,30.41,0,1,1,442.15,474,30.44,30.44,0,0,1,411.75,504.42Z"/><path class="cls-12" d="M411.75,444.11A29.91,29.91,0,1,1,381.84,474a29.94,29.94,0,0,1,29.91-29.91m0-1A30.91,30.91,0,1,0,442.65,474a30.91,30.91,0,0,0-30.9-30.91Z"/></svg>