<svg id="图层_1" data-name="图层 1" xmlns="http://www.w3.org/2000/svg" viewBox="0 0 800 800"><defs><style>.cls-1,.cls-16{fill:#dfe1e6;}.cls-2{fill:#efefef;}.cls-3{fill:#ffce6e;}.cls-4{fill:#d8d8d8;}.cls-5{fill:#3165f0;}.cls-10,.cls-6,.cls-9{stroke:#fff;}.cls-6{stroke-miterlimit:10;}.cls-15,.cls-7{fill:#fff;}.cls-12,.cls-15,.cls-16,.cls-8{stroke:#000;}.cls-10,.cls-12,.cls-15,.cls-16,.cls-8,.cls-9{stroke-linecap:round;stroke-linejoin:round;}.cls-10,.cls-12{fill:none;}.cls-11{fill:#f4f4f4;}.cls-13{fill:#5789f7;}.cls-14{fill:#3165ec;}</style></defs><polygon class="cls-1" points="293.41 258.49 130.88 692.58 623.81 692.58 478.94 258.49 293.41 258.49"/><polygon class="cls-2" points="697.51 395.27 693.3 652.44 657.08 652.44 676.9 395.27 697.51 395.27"/><path class="cls-3" d="M386.18,165.73a92.76,92.76,0,0,0-92.77,92.76H478.94A92.76,92.76,0,0,0,386.18,165.73Z"/><polygon class="cls-2" points="591.3 138.37 386.18 165 386.18 134.05 591.3 107.42 591.3 138.37"/><polygon class="cls-4" points="591.3 138.37 676.9 395.27 697.51 395.27 605.08 115.85 591.3 138.37"/><circle class="cls-3" cx="386.18" cy="149.52" r="15.47"/><circle class="cls-3" cx="591.3" cy="122.9" r="15.47"/><circle class="cls-3" cx="687.21" cy="395.27" r="10.3"/><rect class="cls-3" x="535.58" y="588.91" width="103.71" height="66.23" transform="translate(1209.46 34.59) rotate(90)"/><rect class="cls-5" x="554.32" y="558.73" width="91.6" height="25.59"/><rect class="cls-6" x="554.32" y="643.75" width="138.98" height="48.83"/><polygon class="cls-3" points="386.49 614.25 413.56 692.58 378.93 692.58 378.93 614.25 386.49 614.25"/><polygon class="cls-7" points="410.36 488.95 387.63 432.7 384.55 433.94 408.12 492.27 408.28 492.21 408.28 492.27 479.72 492.27 479.72 488.95 410.36 488.95"/><path class="cls-8" d="M546.9,464.24s.89,24.31-3.11,38.27c-3.63,12.66,24.84,12.6,24.84,12.6l14.12-21.57-17.94-22.15-15.08-22.27Z"/><path class="cls-5" d="M588.1,517s-86.7-28-108.38-10.69S426,629.45,426,629.45l23.41,10.95s47.34-71.27,51.42-90.1c0,0,32.83,8.39,77.88,8.39S588.1,517,588.1,517Z"/><path class="cls-9" d="M566.07,370.52c.25-5.94-.26-22.66-13.57-25.21-16.23-3.11-19.8.9-19.8.9s-1.16,5.4-2.44,10.88-5.16,5.68-5.16,5.68,1.6,1,3.15,1.73a2.62,2.62,0,0,1,1.48,2.37c0,4.22.3,14.73,3.42,16.3,3.91,2,10.85-2.91,14.16-1.7s7.19,12.37,7.19,12.37l15.93-3.4Z"/><path class="cls-7" d="M539.17,332.6a8.51,8.51,0,0,1-5.13.55c-4.77-.94-14.41-1.65-15.17,7.79-.69,8.46,9.38,9.43,15.94,9.17a6.66,6.66,0,0,1,6.25,3.72,5.5,5.5,0,0,0,4.79,3.15c6.11.51,6-4.58,11.2-3.56,4.26.83,3,5.36,1.41,9.1a7,7,0,0,0,4.73,9.54l3.68,1s12.59-15.82,2.42-26.31a10.05,10.05,0,0,1-2-2.79C565.05,339,556.72,324.87,539.17,332.6Z"/><path class="cls-10" d="M549.18,355.28s-7.54,2.76-4.79,9.93a8.1,8.1,0,0,0,5.35,5.21c4.4,1.31,9-1.76,8.85-6.34a.76.76,0,0,1,0-.15c-.3-5-4.58-5.68-6.39-5.2s-4.3,2-3.83,5.13a3.64,3.64,0,0,0,4.92,2.95,2.75,2.75,0,0,0,.86-4.77"/><path class="cls-11" d="M570.25,383.23s-28.34,10.4-39.54,38.14-18.58,54.22-31.82,59.56-45.31,12.22-45.31,12.22v17.56s61.6-2.29,72.67-15.27,22.66-34.87,22.66-34.87l17.18,47.6,55.48,2.54S614.63,428.83,570.25,383.23Z"/><path class="cls-12" d="M548.91,460.57s10.3-19.85,14.38-22.91"/><path class="cls-8" d="M453.58,496.71s-9.33-.23-16.31-2.7-24.74-3.15-26.76,3.82,20.47,11.7,43.07,8.32Z"/><path class="cls-13" d="M621.57,510.71S498,486.91,483,510.71,509.7,651.6,509.7,651.6h32.58s-4.32-68-21.38-105.12c0,0,27.49,12.21,57.78,12.21S628.57,549.72,621.57,510.71Z"/><path class="cls-8" d="M516.83,651.6s8.15,18.83-5.09,25.45-26.22,4.58-26.22,15.53h54.22a2.13,2.13,0,0,0,2.08-2.51l-7.17-38.47Z"/><line class="cls-8" x1="520.9" y1="546.48" x2="516.58" y2="537.31"/><path class="cls-8" d="M430.07,631.46s-5.63,12.54-14.29,12.8c-8.39.24-11.28-17.73-23.54-18.09a.78.78,0,0,0-.78,1l10.06,28.21a11,11,0,0,0,4.52,5.63l17.1,10.71a2.15,2.15,0,0,0,3-.67c3.52-5.56,14-22.68,16.95-33.56Z"/><path class="cls-10" d="M409.88,639.23c.57.71,7.35,9,7.35,9"/><path class="cls-7" d="M419.81,318c-8,0,.58,27.27-6.53,36.21s-24.63,7.92-24.63,38.41H333.82c0-30.49,17.52-29.48,24.63-38.41S357,318,365,318Z"/><path class="cls-8" d="M419.81,318s5-.85,5,13.61h-8.62S415,317.94,419.81,318Z"/><line class="cls-8" x1="367.49" y1="331.63" x2="407.01" y2="331.63"/><line class="cls-8" x1="366.72" y1="342.31" x2="406.25" y2="342.31"/><line class="cls-8" x1="345.09" y1="371.19" x2="384.61" y2="371.19"/><line class="cls-8" x1="364.04" y1="353.32" x2="400.11" y2="353.32"/><line class="cls-8" x1="355.54" y1="362.13" x2="387.91" y2="362.13"/><line class="cls-8" x1="341.81" y1="380.77" x2="381.33" y2="380.77"/><path class="cls-7" d="M185.77,421.32c-1.18-5.36-3.44-20.64,8.25-25.11,14.25-5.46,18.14-2.39,18.14-2.39s1.93,4.71,4,9.48,5.61,4.34,5.61,4.34-1.29,1.14-2.58,2.07a2.45,2.45,0,0,0-1,2.41c.69,3.82,2.11,13.43-.46,15.36-3.24,2.42-10.34-.88-13.15.75s-4.53,12.41-4.53,12.41l-15-.51Z"/><path class="cls-14" d="M184.78,435s22.42,0,34.63,29.53,19.29,42.06,19.29,42.06,19.95-10.5,51.71-13.91l5.38,13s-45.67,22.05-60,20.67S209,496.25,209,496.25s-2.37,7.11-7.09,11.23-3.35,24.59-3.35,24.59-43.11,1.38-49.21,9.06S147,468.49,184.78,435Z"/><path class="cls-9" d="M199.39,381.81s18.64-4.73,19.17,6.3-15.29,13.64-15.29,13.64,1.37,4.73-1.51,7.09-7.61-3.94-10.24,1.58,6,6.56,5.51,12.33-4.59,22.67-28.34,13.39c-16.8-6.56-15.49,2.62-26.78,7.61-14.26,6.3-17.85-4.46-23.88-5.25s-16.28-7.35-11.55-17.59,20.47-2.71,28.08-4.11S144.8,406.74,155,406s9.45-.7,15-7.52S181.34,379.14,199.39,381.81Z"/><path class="cls-15" d="M200.87,409.4s6.2.35,5.78,6.27a6.25,6.25,0,0,1-2.78,5.05c-3,2-7.07.73-8-2.69l0-.11a4,4,0,0,1,3.56-5.29c1.45-.05,3.63.54,4,2.93a2.81,2.81,0,0,1-3,3.29,2.12,2.12,0,0,1-1.71-3.33"/><path class="cls-15" d="M209,496.25s-6.13-12.6-7.79-15"/><path class="cls-15" d="M290.9,493.89s16-8.29,23.92-12.74c6.89-3.87,17.78,5.37,24.28,7.18s3.74,4.17,1.57,4.37-13.78-.79-17.72-3.94c0,0,1.08,9-12.95,8.47a8.19,8.19,0,0,0-4.26,1L295.06,504Z"/><path class="cls-16" d="M199.33,529.32s88.39,1.37,96.46,19.88-49.22,109.45-49.22,109.45l-26-13s34.45-69.1,41.34-76.18c0,0-64.77,7.48-79.14,1S199.33,529.32,199.33,529.32Z"/><path class="cls-7" d="M147.7,540.63s35.29-17.22,92.38-17.22,55.31-.6,61.81,17.22,38,114.67,38,114.67L311.34,665s-34.25-101.38-36.42-107.09-21.06,2-21.06,2-45.08,23-68.51,24.41S147.65,572,147.7,540.63Z"/><line class="cls-15" x1="261.93" y1="569.48" x2="265.93" y2="565.54"/><path class="cls-7" d="M334.08,657.27s4.16,15.1,7.84,18.51,12.33,7.61,22.57,8.53,14.44,5.9,14.44,8.27H323.81s0-19-4.74-30.24Z"/><path class="cls-16" d="M240.91,655.82s-7.07,1.85-7.07,15,.62,12.82.62,12.82,11.39,3,11.39,8.92H227.58a5.19,5.19,0,0,1-3.46-1.33l-15.59-14.1a2.48,2.48,0,0,1,0-3.67c4.53-4.2,10.75-12.74,18.28-24.73Z"/><path class="cls-15" d="M234.46,683.66s-5.68-1.13-7.68-.63"/><rect class="cls-5" x="122.49" y="584.32" width="75.97" height="108.26"/><path class="cls-11" d="M102.49,641.36v51.22h51.22A51.22,51.22,0,0,0,102.49,641.36Z"/><path d="M122.49,645.41v47.17h31.22A51.23,51.23,0,0,0,122.49,645.41Z"/></svg>