<svg id="图层_1" data-name="图层 1" xmlns="http://www.w3.org/2000/svg" viewBox="0 0 800 800"><defs><style>.cls-1,.cls-12,.cls-13{fill:#fff;}.cls-1{stroke:#ccc;}.cls-1,.cls-12,.cls-14,.cls-6,.cls-8{stroke-linecap:round;stroke-linejoin:round;}.cls-2{fill:#ffca6e;}.cls-3{fill:#3165e8;}.cls-17,.cls-4{fill:#ffd26e;}.cls-12,.cls-13,.cls-14,.cls-4,.cls-6,.cls-8{stroke:#000;}.cls-13,.cls-4,.cls-5,.cls-9{stroke-miterlimit:10;}.cls-14,.cls-5{fill:none;}.cls-5{stroke:#002fa4;}.cls-6{fill:#002fa4;}.cls-7{fill:#00bb85;}.cls-11,.cls-8{fill:#3165f0;}.cls-9{stroke:#fff;}.cls-10{fill:#5789f7;}.cls-15{fill:#4166eb;}.cls-16{fill:#dbdde2;}</style></defs><rect class="cls-1" x="243.94" y="294.85" width="287.32" height="201.43"/><rect class="cls-1" x="243.94" y="294.85" width="287.32" height="34.41"/><circle class="cls-1" cx="262.98" cy="312.06" r="4.96"/><circle class="cls-2" cx="284.06" cy="312.06" r="4.96"/><circle class="cls-3" cx="305.21" cy="312.06" r="4.96"/><path class="cls-4" d="M407.15,377.21H390.49v42.16h-9.66V377.21H364v-7.69h43.11v7.69Z"/><rect class="cls-5" x="346.97" y="355.31" width="81.2" height="81.2"/><rect class="cls-6" x="343.63" y="351.57" width="7.82" height="7.82"/><rect class="cls-6" x="384.23" y="351.57" width="7.82" height="7.82"/><rect class="cls-6" x="423.75" y="351.57" width="7.82" height="7.82"/><rect class="cls-6" x="343.63" y="431.68" width="7.82" height="7.82"/><rect class="cls-6" x="384.23" y="431.68" width="7.82" height="7.82"/><rect class="cls-6" x="423.75" y="431.68" width="7.82" height="7.82"/><rect class="cls-6" x="343.63" y="391.62" width="7.82" height="7.82"/><rect class="cls-6" x="423.75" y="391.62" width="7.82" height="7.82"/><circle class="cls-7" cx="582.68" cy="161.72" r="15.64"/><path class="cls-8" d="M303.85,653.72h7.28a33.22,33.22,0,0,1-7.28,0Z"/><rect class="cls-1" x="148.27" y="543.31" width="77.93" height="110.31"/><polyline class="cls-9" points="226.19 591.43 226.19 653.45 148.25 653.45 226.19 591.43"/><path class="cls-10" d="M271.41,509s13,1.7,19.59,22.72,26.11,92.69,26.11,92.69l-18.84,5.71s-31.21-61.27-36-90.65l-69.36-13.94-.48-13.47Z"/><path class="cls-11" d="M174,502.75s-4.83,40.6,30,40.6,51.82-4.08,51.82-4.08l-23.6,84.53,19.66,6.8s45.76-90,32.3-114.39S174,502.75,174,502.75Z"/><path class="cls-12" d="M247.81,629.24s-4.14,6.87-1.15,12.37S271.55,645,275,653.52h-42.5a2.76,2.76,0,0,1-2.66-3.54c1.84-6.39,5.65-19.72,6.67-24.55Z"/><path class="cls-12" d="M313.51,625.57s4.21,19.58,14.76,19.72,16.11,4.62,16.59,8.23H307.05s-.75-22.11-3.54-24.89Z"/><path class="cls-1" d="M307.66,529.81l41.62-99.29-30.94,6.26-.48.07L256,449.36l-1,.21-62.29,12.58-1,.2-30.33,6.12Zm10.4-73.92L298.34,503l-70-29.31Z"/><path class="cls-13" d="M176.41,460.17c-3.13,24.15,7.75,45.64,16.39,39.24,15.23-11.28,39.51-42.57,41.82-42.7,1.29-.07-.47-4.08,3.74-2.32,2.18.89,5.58-2,5.58-2s6.87-1.77,9.38-2.38c-1.49-.47-3.67-1-5.17-1.29a20.51,20.51,0,0,0-3.53-.61,53.13,53.13,0,0,0-7.35.27c-3.4.61-4.69,1.36-7.75,2.92a34.66,34.66,0,0,0-5.24,3.54c-4.21,3.33-20.4,22.24-23.87,24.82"/><path class="cls-13" d="M182.8,433c-4.35,7.76-7.14,18.57-8.09,30.74a88.11,88.11,0,0,0,15.44,2.18"/><path class="cls-13" d="M211.23,424.81c2,.68,1.29,5.58,3.33,6.26,1.5.47,4.35-.14,5.71.61,7.21,4.08,5.37,12.17,6.26,22.24,3.06,7.68,1.83,10.13-.61,14.42-3,5.37-1.7,2.44-6.26,6.25-3.74,3.13-4.83,25.91-4.83,25.91l-41.07,2.25s3.19-29.25,4.28-35c2.79-14.69,4.76-25.57,10.81-39.1"/><path class="cls-13" d="M229,407.61c-.06-2.45.89-5.24.82-7.28-.14-4.22-.68-10.27-7.68-12.72s-14.62-1-16.94,4-1.77,12.65-2.11,16.67-3.33,8.91-3.33,8.91l15,6.46s2.45-5.31,3.47-6,1.36,1.91,4.69,1.63c1-.06,1.7-1.08,2.18-1.83a17.42,17.42,0,0,0,1.7-3.4,4.54,4.54,0,0,1,1.23-1.3l2.72-1.22A4.83,4.83,0,0,1,229,407.61Z"/><path class="cls-13" d="M221.77,465.21s11.9,29.1,13.87,31.42c5.1,6.05,19.79,14.14,29.24,19h0c3.34,1.7,6,3,7.35,3.67a8.81,8.81,0,0,1,1.22.48,66.43,66.43,0,0,0,8.43,2.38c11.43,2.45,15.78-4,15.78-4s1.43-2.45-3.6-3.4c-3.67-.68-11-.14-18.16-1.77-9.38-4.29-26.45-20.34-29.45-23.19-2.72-2.65-14.07-37.07-14.07-37.07Z"/><path class="cls-13" d="M214.9,451c.07.14,1.43,3.95,1.43,3.95l7.14,18.56,16.59-6.93s-10.2-25.5-17.2-34.48c-5.17-6.6-11.09-3.95-17.07-9.79"/><path d="M216.87,427.06c-.41-1.5-1.49-2.66-1.77-4.15a5.8,5.8,0,0,1,2.79-6.33c3.13-2.45,4.22-4.49,3.2-8.23-.34-1.22-.68-1.56-.55-2.85s1.09-1.91,2.72-1.5c.82.21.41,3.06,1.57,1.09s2.18-2.11,2.11-6.6c0-.54-.21-2.72.13-3,2.11,1.5,2.66,4.15,2.93,6.05,1.56-.68,2-2.92,2-3.8a10.41,10.41,0,0,0-.82-4.49c-2.72-5.85-5.58-6.94-8-8s-4.83-2-7.42-2-5.71.81-6.46,2.72c-3.53-.89-5.57,2.17-6.39,3.33a17,17,0,0,0-2.72,5.31c-.88,2.78-1.09,5.78-1.84,8.63a12.69,12.69,0,0,1-3.4,6.39c-1.7,1.57-4.14,1.7-6.05,3.13a9.48,9.48,0,0,0-3.6,7.89c.13,3,1.7,6.26-.14,9-.61.88-1.43,1.63-2,2.51a6.78,6.78,0,0,0,.14,7.08c1.29,2.11,3.8,4.55,6.12,5.23a18.1,18.1,0,0,0,6.59.89c4.36-.21,8,0,12.52-3.88,2.58-2.24.95-3.47,3.4-5.85,1.36-1.29,3.4-2,4.42-3.74a6.87,6.87,0,0,0,.68-4.76C216.87,427.12,216.87,427.06,216.87,427.06Z"/><path class="cls-9" d="M217.21,426.92c-.47-1.77-1.77-3.2-1.77-5.1a7,7,0,0,1,.62-2.86,6.06,6.06,0,0,1,1.9-2c2.31-1.77,4.22-3.87,3.94-7a7.11,7.11,0,0,0-.47-2.11,4.09,4.09,0,0,1-.41-2.52,1.4,1.4,0,0,1,1.63-1c.55.07.48.41.61,1,.21.75.82,1.23,1.5.55a9.59,9.59,0,0,0,.88-1.36,12.18,12.18,0,0,0,.75-1.09,7.17,7.17,0,0,0,1-3.54c.07-.74,0-1.49,0-2.31,0-.47-.2-1.49.14-1.9l-.75.2c1.7,1.29,2.38,3.47,2.65,5.58a.55.55,0,0,0,.82.47c2-.95,2.38-3.53,2.24-5.57a14.05,14.05,0,0,0-3.53-7.76,12.66,12.66,0,0,0-4.63-3.4c-2.65-1.15-5.37-2.44-8.29-2.44-2.38,0-6.19.47-7.28,3.06.2-.07.41-.21.61-.28-3-.68-5.17,1-6.87,3.27a20.67,20.67,0,0,0-2.78,5.1,38.43,38.43,0,0,0-1.5,6.73,21.06,21.06,0,0,1-1.91,6.12,8,8,0,0,1-1.9,2.45,10.8,10.8,0,0,1-2.72,1.5,10.89,10.89,0,0,0-4.69,2.92,9.79,9.79,0,0,0-2.31,5c-.34,2,.13,3.8.4,5.78a7.47,7.47,0,0,1,.07,3.26,7,7,0,0,1-1.7,2.92,7.08,7.08,0,0,0-2,5.1,8.87,8.87,0,0,0,2,5.11,13.74,13.74,0,0,0,4.35,3.74,15,15,0,0,0,5.72,1.42,39.58,39.58,0,0,0,5.64-.13,20.63,20.63,0,0,0,4.9-.95,13.73,13.73,0,0,0,5.64-3.74c1.09-1.3,1-3.07,2-4.36,1.3-1.63,3.47-2.31,4.7-3.94a7,7,0,0,0,1-5.92c-.21-.75-1.3-.41-1.16.34A5.56,5.56,0,0,1,215,432.5c-1.16,1.15-2.72,1.83-3.88,3a9,9,0,0,0-1.77,3.6c-.54,1.77-2.58,3-4.15,3.88-2.92,1.63-6,1.7-9.31,1.84a19.47,19.47,0,0,1-5.85-.68,10.23,10.23,0,0,1-4.76-2.93,9,9,0,0,1-2.65-4.76,6.2,6.2,0,0,1,1.83-5.3,6.87,6.87,0,0,0,1.84-4.9c-.07-1.9-.68-3.67-.75-5.58a9.42,9.42,0,0,1,1.36-5.23,8.54,8.54,0,0,1,4.35-3.4,10.65,10.65,0,0,0,4.29-2.52A12.76,12.76,0,0,0,198,405c1.5-4.42,1.36-9.18,3.68-13.4,1.42-2.58,3.74-5.84,7.07-5a.48.48,0,0,0,.61-.27c.88-2,3.88-2.38,5.78-2.45,2.79-.13,5.37,1,7.82,2.11a12.65,12.65,0,0,1,3.88,2.38,14.9,14.9,0,0,1,3.87,6.26c.55,1.9.82,5.37-1.36,6.46.28.13.55.2.82.34a9.12,9.12,0,0,0-3.2-6.33c-.27-.2-.54,0-.74.21-.55.75-.28,2.31-.21,3.19a9.62,9.62,0,0,1-.54,4.15,14.63,14.63,0,0,1-1.57,2.45c0-.07-.2.27-.2.27s.27.07.41.07-.07-.07-.07-.14-.14-.47-.14-.61a1.71,1.71,0,0,0-.61-1,2.66,2.66,0,0,0-3.26.82c-.89,1.36-.14,2.85.27,4.21a6.06,6.06,0,0,1-.2,4.49,11.26,11.26,0,0,1-3.4,3.54,6.12,6.12,0,0,0-2.45,4.83,5.19,5.19,0,0,0,.47,2.65c.41,1,1.16,2,1.5,3.06C216.67,427.6,217.35,427.4,217.21,426.92Z"/><path class="cls-14" d="M224,405.84a3.24,3.24,0,0,1,2.65,2.79c.34,1.76-.06,3-.74,3.6-1.7,1.63-3.88-.34-3.88-2.92v-.07c0-1.84,1.09-2.38,1.56-2.31a1.79,1.79,0,0,1,1.64,1.49c.34,1.5-.62,2-1.23,1.84a1.49,1.49,0,0,1-.68-2.11"/><circle class="cls-15" cx="136.94" cy="238.32" r="33.93"/><rect class="cls-1" x="442.11" y="244.8" width="175.18" height="122"/><rect class="cls-16" x="478.42" y="265.13" width="102.48" height="78.41"/><rect class="cls-2" x="588.46" y="264.86" width="96.57" height="6.39"/><rect class="cls-2" x="600.43" y="281.66" width="96.57" height="6.39"/><circle class="cls-17" cx="605.44" cy="598.84" r="18.3"/><polygon class="cls-1" points="489.4 592.87 518.49 588.47 518.92 588.47 520.39 587.26 630.53 496.53 613.18 475.04 503.04 565.59 501.48 566.89 501.48 566.89 501.31 567.23 489.4 592.87"/></svg>