<svg id="图层_1" data-name="图层 1" xmlns="http://www.w3.org/2000/svg" viewBox="0 0 800 800"><defs><style>.cls-1,.cls-3{fill:#fff;}.cls-2{fill:#f79c2f;}.cls-10,.cls-3,.cls-6{stroke:#000;}.cls-3,.cls-6,.cls-8{stroke-linecap:round;stroke-linejoin:round;}.cls-4{fill:#f2f2f2;}.cls-5{fill:#ffca6e;}.cls-6,.cls-8{fill:none;}.cls-7{fill:#ffcb6e;}.cls-13,.cls-8{stroke:#fff;}.cls-9{fill:#ccc;}.cls-10,.cls-13{stroke-miterlimit:10;}.cls-11{fill:#3165e8;}.cls-12{fill:#ff8885;}</style></defs><circle class="cls-1" cx="409.45" cy="387.18" r="288.66"/><path class="cls-2" d="M290.41,223.8s3.58,19.81,8.09,26.12,10.82,16.3,2.17,27.61-1.89,13.63-10.26,22.94-18.67,5.32-31.64,4-21.62,8.65-31.26-9,19.41-68.83,19.41-68.83Z"/><path d="M343.66,668.3,316.15,452.77H208.67S205.22,517.13,203,588.9A288.26,288.26,0,0,0,343.66,668.3Z"/><path class="cls-3" d="M353.27,360.22s41.36,29.52,81.71,39.32,64.29,25.75,70.06,32,19.5,28.82,9.75,39.91-10.09-21.51-28.38-31.93-23.69-30.59-106.07-40.79c0,0-30.66,1.1-51.86-19.62Z"/><path class="cls-4" d="M316.15,452.77H208.67c-2.22-17.73-5.77-63.95-5.77-63.95l-59.71-19s2.07-5.76,28.23-43.66,75.17-42.86,75.17-42.86h25.92s60.89-2.28,92.74,68.28l-42.85,32Z"/><path class="cls-1" d="M273.17,293.87a18.31,18.31,0,0,0-.25-6.13c-1.16-5.51-3.11-17.08.67-19,5-2.49,12.81,4.62,16,0,2-2.95,2.2-10.95,2-16.37a8.91,8.91,0,0,1,4.61-8l2.24-1.22s-9.26-3.21-9.26-9.25-5-12.82-5-12.82-15.66-8.18-27,5.7c-8.68,10.58-10.33,42.15-10.63,56.55a31.32,31.32,0,0,0,3,13.93c3.47,7.37,9.48,19.36,15.68,28a2.21,2.21,0,0,0,4-1Z"/><path class="cls-5" d="M271.41,206.08a18.06,18.06,0,0,0,10.55,0c3.18-1,7.88-1.29,13.23,2.22,8.23,5.39-.58,14.54-8.35,17a12.17,12.17,0,0,0-5.85,4.1,6.86,6.86,0,0,1-3.33,2.27c-4.47,1.44-6.38-2.88-12.44,0s4.79,12.95,0,22.67-20.08,4.32-25.82,15.83,5.74,16.63,0,29.37-18.49,3.1-35.38,0-12.75,8-26.46,6.42-17.85-16.71-5.42-29.31,23.91-10.48,35.39-20.9,13.52-30.63,27.54-42.14C247.06,203.83,259.18,202.45,271.41,206.08Z"/><path class="cls-3" d="M322.4,383.61s4-29.49,0-44.45"/><polyline class="cls-6" points="202.9 388.82 211.07 392.04 222.15 341.94"/><path class="cls-3" d="M147.61,392a18.71,18.71,0,0,0,6.48,5.72"/><path class="cls-1" d="M156.45,374.07s-6.72,17.53-8.64,18S134.36,352.13,141,287.4a41.38,41.38,0,0,1,3.33-10.47c2.3-5.21,14.8-25,10.14-25.28s-14.13,13.3-17,7.32,13.8-52.71,3.16-40.27-21.39,64.63-21.39,64.63-46.72,180.1,37.16,149.5c0,0,23.78-9.48,36.09-47.3Z"/><path class="cls-6" d="M276.47,232.32s8.94,2.85,6.09,11.34a9.42,9.42,0,0,1-6,6.35c-5.06,1.75-10.61-1.6-10.63-6.94v-.18c.09-5.84,5.05-6.86,7.19-6.39s5.12,2.16,4.72,5.79a4.26,4.26,0,0,1-5.59,3.69c-1.91-.57-3.59-3.44-1.24-5.52"/><path class="cls-7" d="M680.43,486.86l-107.4.2L472.22,418.54,438.69,459.9l59.56,87.46H649.61A287.68,287.68,0,0,0,680.43,486.86Z"/><path d="M498.31,164.37s-3.55,12.52-2.22,20.89-3.55,13.7-7.54,16.36h11.53s7.54,29,17.73,25.57,14.64-8.28,15.52,6.35,0,20,0,20l29.27-9.75s-8.87-56.75-16.85-70.06S518.26,144.42,498.31,164.37Z"/><path class="cls-3" d="M499.65,155s-23.94-8-23.5,8.42S497.36,181,508.93,178.6c0,0,1.39,5.18,9.8,6.07s8.41-8.14,16.84-6.07-3.11,18.48,5.32,22,14.27,3.6,14.27,3.6,10.28-5.37,0-32-25.36-23.94-25.36-23.94S510.74,137.23,499.65,155Z"/><path class="cls-8" d="M523.62,182.17s-8.13,5.79-2.48,13.47a10,10,0,0,0,8.12,4.49c5.69.12,10.23-5.07,8.51-10.5l-.06-.17c-2-5.89-7.34-5.31-9.36-4.14s-4.48,3.86-2.9,7.4a4.52,4.52,0,0,0,6.86,1.93c1.75-1.21,2.52-4.66-.53-6"/><path class="cls-7" d="M697.51,368.78c-5.11-26.94-13-55.54-24.94-71.49-39.46-52.77-110.9-59.19-110.9-59.19-20.67,8.33-29.21,1.38-29.21,1.38C408.09,253.84,359.54,407.69,359.54,407.69L614.6,487.06,693,441.59a290.2,290.2,0,0,0,5.14-54.41C698.11,381,697.89,374.87,697.51,368.78Z"/><path class="cls-6" d="M520.66,391l17.48-21.77s97.19,53.13,127.78,54"/><path class="cls-6" d="M634.25,414.85s5.07-58-9.56-83.1"/><path d="M534.84,373.3s-38.77-34.56-50.17-49.82a2.71,2.71,0,0,0-4.86,1.81,13,13,0,0,0,2.55,6.46c5.76,8.55,13.74,19.16,13.74,19.16s-26.31,25.78,25,40.39Z"/><path class="cls-9" d="M614.25,590.59V547.36H488.55s3.21,64.57,6.35,115.62A288.67,288.67,0,0,0,614.25,590.59Z"/><path class="cls-4" d="M649.61,547.36H546.43s2.29,46.14,4.9,91.25A290.24,290.24,0,0,0,649.61,547.36Z"/><polygon class="cls-7" points="379.49 265.81 412.82 257.68 435.73 369.19 382.19 376.99 379.49 265.81"/><path d="M406.19,259.3s-6.4-46.72-4.21-63a2.65,2.65,0,0,0-2.24-3c-2.13-.3-5.3,1.1-8.28,9.5-5.09,14.41-2.66,33-5.32,39s-1.33,22.65-1.33,22.65Z"/><polygon class="cls-1" points="394.6 363.32 422.75 362.12 449.01 615.64 319.54 615.64 354.57 410.16 394.6 363.32"/><path class="cls-1" d="M394.6,363.31a18.11,18.11,0,0,1,.23-2.75,21.05,21.05,0,0,0-.65-8.3c-1.46-5.81-9.39.46-14.56-1.36-3.57-1.25-3.93-13-3.82-20.16a8.51,8.51,0,0,0-5-7.91l-5-2.29s10.3-3,11-10.32S387,289.8,387,289.8s32.27-9.34,37.78,13.89c4.36,18.39.34,45.39-1.52,55.84a17.17,17.17,0,0,1-3.95,8.28c-3.73,4.27-10.25,10.53-16.52,10.61C395.29,378.5,394.57,367.86,394.6,363.31Z"/><path class="cls-10" d="M398.15,279.88a8.13,8.13,0,0,1-6.47-.28c-3.87-2-11.15-4-19,1.83-10.75,8,8,22.77,19.31,25a4,4,0,0,1,3,2.78,6,6,0,0,0,5.3,4.15c6.09.89,7.2-5.65,13.52-3.33s1.55,14.41-3.66,19,7.95,13.89,15.73,12S441.25,304,428,289.52C428,289.52,416.57,273.23,398.15,279.88Z"/><path class="cls-9" d="M312.79,659.24a287.51,287.51,0,0,0,84,16.31v-61l-84.59.72S312.39,635,312.79,659.24Z"/><path class="cls-4" d="M384.33,674.74c8.28.71,16.66,1.1,25.12,1.1a289.11,289.11,0,0,0,67.74-8V614.51l-93.77.72S383.64,644,384.33,674.74Z"/><path class="cls-11" d="M394.6,363.32s-58.21-5.08-94.57,23.47-60.74,64.45-60.74,64.45l-3.55-35.91-43,12s-14.19,147.2,24.83,150.31c13.22,1,37.81-23.21,64.54-55.75a635,635,0,0,0-14.88,111.62h72.27C336.83,514.2,394.6,363.32,394.6,363.32Z"/><path class="cls-11" d="M693,441.69c-23.48,11.46-72.72,34.42-81.1,29.72-11.09-6.2-48.78-39.46-86.46-74.49s-102.64-34.8-102.64-34.8-9.08,184.67,0,269.36h79.58l-9.17-164.06s79.23,59.86,110.71,66.07c19.24,3.79,48.93-14,69.1-28.33A286.74,286.74,0,0,0,693,441.69Z"/><path class="cls-6" d="M239.29,451.24s7.09,51,10.64,62.08"/><path class="cls-6" d="M282.1,521.86s15.71-77.27,23.7-97.22"/><line class="cls-3" x1="493.16" y1="467.42" x2="475.61" y2="455.23"/><path class="cls-3" d="M231.08,416.63s-.44-21.48-2.88-32.12A78.09,78.09,0,0,1,226,364.34c0-3.33-8.65-3.1-8.43,8.87s0,23.27-4.88,24.6-27.49-35.69-37.46-43c-8.71-6.39-10.2,1.1-7.1,5.76s31,48,31.6,64.79Z"/><path class="cls-6" d="M401.77,312.32s-8.94,2.84-6.09,11.33a9.42,9.42,0,0,0,6,6.35c5.06,1.75,10.61-1.59,10.63-6.94v-.18c-.09-5.84-5-6.86-7.19-6.39s-5.12,2.16-4.72,5.79A4.26,4.26,0,0,0,406,326c1.91-.57,3.59-3.44,1.24-5.52"/><path class="cls-1" d="M445.33,360.83s13.31-9.85,23.52-3.19,15.34,15.28,11.84,16.52S433.64,372.24,445.33,360.83Z"/><circle class="cls-12" cx="172.07" cy="633.48" r="26.15"/><rect class="cls-13" x="569.94" y="601.17" width="127.69" height="7.66"/><rect class="cls-13" x="601.59" y="620.88" width="127.69" height="7.66"/></svg>