<svg id="图层_1" data-name="图层 1" xmlns="http://www.w3.org/2000/svg" viewBox="0 0 800 800"><defs><style>.cls-1,.cls-19{fill:#eaecf1;}.cls-2{fill:#ffce6e;}.cls-16,.cls-18,.cls-3{fill:#fff;}.cls-4{fill:#dfe1e6;}.cls-14,.cls-16,.cls-18,.cls-19,.cls-5,.cls-8{stroke:#000;}.cls-15,.cls-18,.cls-5{stroke-miterlimit:10;}.cls-6,.cls-8{fill:none;}.cls-15,.cls-6{stroke:#fff;}.cls-14,.cls-16,.cls-19,.cls-6,.cls-8{stroke-linecap:round;stroke-linejoin:round;}.cls-7{fill:#f4f4f4;}.cls-9{fill:#dbdde2;}.cls-10{fill:#b7b7b7;}.cls-11{fill:#002f9c;}.cls-12{fill:#3165ec;}.cls-13{fill:#3165f0;}.cls-14{fill:#002fa0;}.cls-17{fill:#eaeaea;}</style></defs><path class="cls-1" d="M114.38,641.68V295.51c191,0,345.91,154.87,345.91,345.91Z"/><path class="cls-2" d="M114.38,641.68V523.91A117.68,117.68,0,0,1,232.06,641.59Z"/><polygon class="cls-3" points="610.18 641.68 391.73 641.68 447.51 505.8 610.18 505.8 610.18 641.68"/><rect class="cls-4" x="447.51" y="474.76" width="162.67" height="31.03"/><path class="cls-5" d="M516.57,599.74s3,18.52,1.82,28c0,0-8.82,1.82-8.82,14h28.74a1.57,1.57,0,0,0,1.57-1.68c-.49-6.57-2.59-30.8-7.81-42.5Z"/><path class="cls-6" d="M517.22,627s12.17-2.23,15,6.09"/><path class="cls-5" d="M568.57,602s-1.17,16.31,0,25.74c0,0,8.83,1.82,8.83,14H548.7a1.56,1.56,0,0,1-1.57-1.68c.49-6.57.92-26.61,4.7-38.82Z"/><path class="cls-6" d="M569.79,627s-12.17-2.23-15,6.09"/><path class="cls-7" d="M552.57,327.21,527,334.31l-25.55-7.1s-54.16,34.28-51.11,70.38c2.61,31,32,36.43,40.24,37.34a8.81,8.81,0,0,0,3.78-.4c3.95-1.29,15-4.28,32.64-4.28s28.7,3,32.64,4.28a8.83,8.83,0,0,0,3.78.4c8.26-.91,37.64-6.34,40.25-37.34C606.72,361.49,552.57,327.21,552.57,327.21Z"/><path class="cls-4" d="M508.35,270.63s.61,6.69-3.85,11.35S496,286.24,496,292.73s6.29,5.89,5.48,15-2.76,16.43,23.47,14.81,25,5.47,39,4.87a138.67,138.67,0,0,0,44.62-10.14c13.38-5.68-60-28.2-60-28.2Z"/><path class="cls-5" d="M523.36,269.21s-8.31,3-9.53,8.72a8.69,8.69,0,0,1-8.32,7.1l3.16,1.84a2.47,2.47,0,0,1,1.14,2.84c-1,3.55-2.81,11.12,0,13,3.65,2.44,11-2.63,10.75,1.42s.41,11.16-5.07,14.4-14,8.72-14,8.72,6.28,7.1,25.35,7.1c17.37,0,24.47-5.89,25.59-6.94a.16.16,0,0,0,0-.27c-1.58-.88-12.41-7-14.61-8.81-3.65-3-2.84-6.29-2-15.41S542,285,537.15,275.29,523.36,269.21,523.36,269.21Z"/><path class="cls-6" d="M522.79,284.47s-6,2.74-3.3,8.42a6.61,6.61,0,0,0,4.7,3.92c3.67.8,7.27-2,6.83-5.73,0,0,0-.08,0-.12a4.27,4.27,0,0,0-5.54-3.86c-1.46.51-3.39,1.94-2.81,4.44a3,3,0,0,0,4.21,2.1,2.26,2.26,0,0,0,.4-3.95"/><path class="cls-3" d="M524,263.33s-10.75-9.13-19.27,0,5.88,16.22,14.2,13c0,0-1.83,4.66,2.23,7.09s11.36-2.63,12,2.24-7.3,14.8,6.89,23.12,21.7-1.63,37.32,3.24,14.2,18.26,45,16.63,20.08-23.32,31.43-28.19,14.2,4.26,26.78-4.06-.61-20.89-13.59-15.81-20.08,5.07-28.4-.21-10.54-8.52-24.34-8.31c-18.25.27-20.28,14.6-43,14.8S552.16,271,541.82,264.54,524,263.33,524,263.33Z"/><ellipse class="cls-5" cx="494.29" cy="410.67" rx="24.44" ry="9.07" transform="translate(30.42 855.42) rotate(-83.52)"/><ellipse class="cls-5" cx="559.37" cy="410.67" rx="9.07" ry="24.44" transform="translate(-42.8 65.8) rotate(-6.48)"/><path class="cls-8" d="M495.1,386.71s-21.83,6.83-34.81,4.19"/><path class="cls-8" d="M480.77,356.22s-.94,25.3,2.47,33.44"/><path class="cls-8" d="M558.46,386.71s21.83,6.83,34.81,4.19"/><path class="cls-8" d="M572.78,356.22s1,25.3-2.47,33.44"/><polygon class="cls-9" points="557.58 417.87 495.14 417.87 489.65 365.95 563.07 365.95 557.58 417.87"/><rect class="cls-10" x="495.14" y="417.87" width="62.45" height="4.66"/><path class="cls-11" d="M490.59,434.93s37.43-10.41,71.51-.11v39.94H490.59Z"/><path class="cls-12" d="M502.1,601.83,472.15,478S460.73,439.6,491.53,435c27-4.06,31.5,24.72,32.21,32,.23,2.36.52,4.7.81,7.05L540,596.35Z"/><path class="cls-12" d="M541.06,600.7,535,473.45s-4-39.87,27.14-38.63c27.23,1.08,26.28,30.21,25.61,37.48-.21,2.35-.38,4.71-.53,7.07l-7.87,123.08Z"/><path class="cls-13" d="M610.18,641.68V541.25a164.93,164.93,0,0,0-22.24-1.52A163.13,163.13,0,0,0,436.72,641.68Z"/><path class="cls-14" d="M516.41,599.74s3,18.52,1.82,28c0,0-8.83,1.82-8.83,14h28.74a1.56,1.56,0,0,0,1.57-1.68c-.49-6.57-2.58-30.8-7.8-42.5Z"/><path class="cls-8" d="M518.07,627.71s12.17-2.23,15,6.09"/><path class="cls-14" d="M568.41,602s-1.18,16.31,0,25.74c0,0,8.82,1.82,8.82,14H548.53A1.57,1.57,0,0,1,547,640c.49-6.57.93-26.61,4.7-38.82Z"/><path class="cls-8" d="M568.25,627.71s-12.17-2.23-15,6.09"/><path class="cls-14" d="M501.93,601.83l37.9-5.48-6-47.42a162.13,162.13,0,0,0-39.74,20.51Z"/><path class="cls-14" d="M538.34,547.42l2.56,53.28,38.25,1.75,4-62.64A162.61,162.61,0,0,0,538.34,547.42Z"/><circle class="cls-2" cx="635.12" cy="616.74" r="24.95"/><rect class="cls-15" x="281.6" y="342.83" width="71.8" height="59.83" rx="5.15"/><path class="cls-12" d="M242.86,215.26S179,232.5,183.64,304.7l19.88-1.42V369h95.93V301.05H331.9s-9.33-62.27-52.53-81.74Z"/><path class="cls-3" d="M272.05,214.8a5.9,5.9,0,0,1-2.82-4.77c-.08-2.17.27-4.69,2.23-5.14,3.55-.81,10,5.07,14.3,3.55,3.39-1.21,5.05-11.95,5.58-16.27a2.71,2.71,0,0,1,1.82-2.24c1.69-.57,3.45-1.37,3.45-1.37s-3.95-.71-4.56-6.49-1.12-11.46-1.12-11.46-3.14-4.56-20.18-3.45c-14,.92-16.62,18-17.12,24.11-.13,1.51,2,7.29,1.2,8.57l-.71,8.38a5.26,5.26,0,0,1-3.72,4.6c-2.09.64-4.86,1.51-7.54,2.44a35,35,0,0,0,36.51,4.05Z"/><path class="cls-8" d="M273.28,181.25s5.94,3.45,2.55,9.07a6.91,6.91,0,0,1-5.28,3.59c-3.89.44-7.33-2.84-6.49-6.66l0-.13a4.45,4.45,0,0,1,6.15-3.42c1.46.68,3.32,2.36,2.46,4.89a3.12,3.12,0,0,1-4.59,1.75,2.35,2.35,0,0,1,0-4.14"/><path d="M280.64,160.29a6.45,6.45,0,0,0,3.84-.06c4.2-1.37,14.21-3.87,16.59,2.5,2.7,7.19-4.81,12-14.62,12.42a6.14,6.14,0,0,0-5.06,3.12,6,6,0,0,1-4.25,3.32c-4.26.61-8.72-3.45-13-1-2.83,1.61-1.36,7-.06,10.42a3.77,3.77,0,0,1-1.71,4.63l-7.56,4.21s-13.2-21.12-1.41-31.72a8.48,8.48,0,0,0,2-2.82C257,161.88,262.44,154.91,280.64,160.29Z"/><path class="cls-8" d="M203.52,303.28l22.71-1.42s-7.3-29.41,0-52.53"/><path class="cls-16" d="M185.89,304.54S183.4,333.91,206,328c21.16-5.51,83.92-32.1,93.25-33.72s15-9.94,13.18-13.39-19.15,3.25-26.2,7.31-49.4,13-60,13.64Z"/><path class="cls-3" d="M314.26,301.05s-.41,32.05-1.83,41.78h-13V301.05Z"/><path class="cls-9" d="M299.45,369s49.18,85,44.32,116.93-64.2,126.56-64.2,126.56l-25.86-18.86s45.6-83.67,42.57-111S233.94,369,233.94,369Z"/><polygon class="cls-3" points="205.35 368.99 214.17 610.65 246.11 610.65 262.54 368.99 205.35 368.99"/><path class="cls-17" d="M274.54,608.8s-9.77,9.66-1.25,17.37,28.8,2.63,31,15.51H268l-26.1-15.33a1.67,1.67,0,0,1-.33-2.63c3.92-3.92,14.24-14.79,19-25.07Z"/><path class="cls-18" d="M239.62,610.65s1,14.71,14,16.73,25.15,9.33,25.15,14.3H221.47a2.29,2.29,0,0,1-2.29-2.51c.57-5.94,1.9-20.9,1.58-28.52Z"/><path class="cls-2" d="M436.79,271.64a40.44,40.44,0,1,0-63.35,0h0s9,12.56,7.1,20.42l24.59,6.16,24.58-6.16c-1.9-7.86,7.11-20.42,7.11-20.42Z"/><circle class="cls-19" cx="405.12" cy="311.26" r="4.51"/><path class="cls-16" d="M429.69,285.28a70.8,70.8,0,0,1-49.14,0,1.54,1.54,0,0,0-2.08,1.48l.46,17.28a3,3,0,0,0,1.75,2.63c11.13,4.93,24.44,4.58,24.44,4.58s13.3.35,24.43-4.58A2.94,2.94,0,0,0,431.3,304l.46-17.28A1.53,1.53,0,0,0,429.69,285.28Z"/><path class="cls-8" d="M378.63,292.77s9.35,4.52,26.49,4.52,26.48-4.52,26.48-4.52"/><path class="cls-8" d="M378.88,299.61s9.26,4.52,26.24,4.52,26.24-4.52,26.24-4.52"/></svg>