<svg id="图层_1" data-name="图层 1" xmlns="http://www.w3.org/2000/svg" viewBox="0 0 800 800"><defs><style>.cls-1{fill:#5789f7;}.cls-11,.cls-2{fill:none;}.cls-2{stroke:#ccc;}.cls-10,.cls-11,.cls-2,.cls-9{stroke-linecap:round;stroke-linejoin:round;}.cls-3{fill:#dbdde2;}.cls-4{fill:#ffca6e;}.cls-10,.cls-5,.cls-9{fill:#fff;}.cls-6{fill:#3165e8;}.cls-10,.cls-7{stroke:#fff;}.cls-7{stroke-miterlimit:10;}.cls-8{fill:#ff8885;}.cls-11,.cls-9{stroke:#000;}</style></defs><path class="cls-1" d="M583.59,630.35v-.51a128.17,128.17,0,0,0-256.33,0c0,.17,0,.34,0,.51Z"/><rect class="cls-2" x="343.76" y="143.5" width="273.52" height="315.34"/><rect class="cls-3" x="384.06" y="257.01" width="138.56" height="138.56"/><polygon class="cls-4" points="541.62 174.91 541.62 294.92 661.63 294.92 541.62 174.91"/><rect class="cls-5" x="172.74" y="466.18" width="77.81" height="2.34"/><polygon class="cls-5" points="175.08 466.07 144.98 403.82 142.63 403.82 172.74 466.07 175.08 466.07"/><rect class="cls-2" x="165.43" y="468.52" width="161.84" height="161.84"/><line class="cls-2" x1="165.43" y1="500.57" x2="327.26" y2="500.57"/><line class="cls-2" x1="165.43" y1="532.77" x2="327.26" y2="532.77"/><line class="cls-2" x1="165.43" y1="564.96" x2="327.26" y2="564.96"/><line class="cls-2" x1="165.43" y1="597.16" x2="327.26" y2="597.16"/><line class="cls-2" x1="294.88" y1="468.52" x2="294.88" y2="630.35"/><line class="cls-2" x1="262.5" y1="468.52" x2="262.5" y2="630.35"/><line class="cls-2" x1="230.12" y1="468.52" x2="230.12" y2="630.35"/><line class="cls-2" x1="197.74" y1="468.52" x2="197.74" y2="630.35"/><circle class="cls-6" cx="165.43" cy="581.57" r="48.33"/><rect class="cls-7" x="271.88" y="168.33" width="143.27" height="9.31"/><rect class="cls-7" x="221.49" y="195.38" width="143.27" height="9.31"/><circle class="cls-8" cx="197.74" cy="266.18" r="18.77"/><path class="cls-3" d="M623.15,604.34s1.9,3.61,12.76,5.16,22.39,4,24.83,10.2c0,0-7.25,1.17-7.93,8.69a1.41,1.41,0,0,0,1.42,1.51h23.36a5.31,5.31,0,0,0,5-7.1l-9.19-25.67a11.69,11.69,0,0,0-13-7.63l-.28,0c-11,2.16-14.44,2.2-29.17,0Z"/><path class="cls-9" d="M660.74,619.7a25.93,25.93,0,0,1,10.14,0"/><path class="cls-3" d="M381.6,619.62s9.72,9.61,0,15.6-34.55,8.42-35.88,21.28H406s4.71-11.83-7.95-44Z"/><path class="cls-5" d="M442.63,455.2s72.79,135,179.21,151.64l10.64-20.28s-103.09-51.22-143-174.26Z"/><path class="cls-5" d="M328.3,299.39s-8.88,67.67,54.14,159.45L442.63,406Z"/><path class="cls-10" d="M327.68,317.73s-9.76-10-14.86-10.19c-3.64-.16-3.66,5.5-8.63,8.29s-10.24-5.3-13.28-7.69a8.7,8.7,0,0,0-6.18-1.92s4.11-2.92.58-9.32a27.42,27.42,0,0,1-1.36-2.53,14.47,14.47,0,0,1,4-16.14s17.57-16.14,33.09,12.46l7.53,6.43,7.76,19.28L333,323.5Z"/><path d="M279.35,278.05s-14.41,2.22-13.3,11.75,17.07,1.59,17.07,1.59a15.74,15.74,0,0,0,11.53.41c6.42-2.22,2.88-8.43,9.31-10s5.67,10.2,5.67,10.2a22.84,22.84,0,0,1,11.4-1.33S322.36,263,301.52,267C301.52,267,284.55,261.79,279.35,278.05Z"/><path class="cls-11" d="M297.23,290.39s-1.24,6.16,4.67,7.26a6.35,6.35,0,0,0,5.67-1.43c2.67-2.4,2.52-6.75-.62-8.5l-.1-.06a4.08,4.08,0,0,0-6.09,2.14c-.42,1.41-.4,3.7,1.86,4.65a2.86,2.86,0,0,0,4-2.07,2.16,2.16,0,0,0-2.84-2.53"/><path class="cls-5" d="M381.45,425.48s-4.5,11.41-10,15.41-12.93,15.85-10.7,19.89,16-6.24,19.51-12.75c3.89-7.13,10.54-21.28,10.54-21.28Z"/><path class="cls-5" d="M408.28,415.5s-77.7,60.9-71.07,99.71,23.14,79.33,39.41,106.58l25.6-11.14S389.59,585,385.43,562.1s-14.13-52.88-14.13-52.88,40.58-24.65,63.6-46C434.9,463.23,423,435.5,408.28,415.5Z"/><path class="cls-6" d="M328.73,294.74s-9.31,50,59,97.76l-8,32.76,12.3,1.66,11.47-18.12S434,449.7,440.8,481.62c0,0,46.55-29.59,59.52-86.46C500.32,395.16,474.22,300.89,328.73,294.74Z"/><polyline class="cls-11" points="328.89 294.92 356 325.99 339.35 341.15"/><polyline class="cls-11" points="347.76 333.49 367.8 345.22 383.6 389.53"/><path class="cls-11" d="M347.76,299.22s62.72,23.39,69.93,52.32-14.45,57.76-14.45,57.76"/><path class="cls-11" d="M387.76,392.5a143.66,143.66,0,0,0,4.47-28,20.23,20.23,0,0,0-7.68-16.68,90.64,90.64,0,0,0-17.74-11.1"/><path class="cls-5" d="M329.74,320s-19,76.87-60.92,132.13l14.12,4.43s44.46-28.58,67-87.35Z"/><path class="cls-5" d="M270.38,452.59s-4.86,5.9-18.16,6.25c-12,.32-20.92,3.34-23.63,8.09a1.06,1.06,0,0,0,.94,1.57h38.15s5.82.5,8.15-4.49a28.68,28.68,0,0,1,5.49-8Z"/></svg>