<svg id="图层_1" data-name="图层 1" xmlns="http://www.w3.org/2000/svg" xmlns:xlink="http://www.w3.org/1999/xlink" viewBox="0 0 800 800"><defs><style>.cls-1,.cls-14,.cls-15,.cls-19{fill:none;}.cls-2{fill:#ffd26e;}.cls-10,.cls-18,.cls-3{fill:#fff;}.cls-4{fill:#ccc;}.cls-5{fill:#dbdde2;}.cls-6{fill:#ffcd6e;}.cls-7{fill:#3165eb;}.cls-8{clip-path:url(#clip-path);}.cls-10,.cls-11,.cls-12,.cls-14,.cls-18,.cls-19,.cls-9{stroke:#000;}.cls-10,.cls-11,.cls-12,.cls-14,.cls-15,.cls-16,.cls-9{stroke-linecap:round;stroke-linejoin:round;}.cls-11{fill:#002fa4;}.cls-12,.cls-17{fill:#3165f0;}.cls-13{fill:#f2f2f2;}.cls-15{stroke:#fff;}.cls-16{fill:#e3e5ea;stroke:#ccc;}.cls-18,.cls-19{stroke-miterlimit:10;}</style><clipPath id="clip-path"><rect class="cls-1" x="358.4" y="337.32" width="258.76" height="361.23" transform="matrix(0, -1, 1, 0, -32.55, 1003.15)"/></clipPath></defs><circle class="cls-2" cx="198.04" cy="501.5" r="26.94"/><rect class="cls-3" x="358.67" y="399.94" width="262.52" height="248.02"/><path class="cls-4" d="M620.69,400.44v247H359.17v-247H620.69m1-1H358.17v249H621.69v-249Z"/><rect class="cls-5" x="358.17" y="398.91" width="263.52" height="42.5"/><circle cx="377.17" cy="420.09" r="5.36"/><circle class="cls-6" cx="400.4" cy="420.09" r="5.36"/><circle class="cls-7" cx="424.3" cy="420.09" r="5.36"/><g class="cls-8"><path class="cls-9" d="M489.83,516.27a97.62,97.62,0,0,0,.26-10.86c-.26-5.42-4.83.47-13.17-1.12s-6.62-16-7.74-21.58a12.9,12.9,0,0,0-5.23-8.14s7.48.59,9.66-10.06a40.21,40.21,0,0,1,.86-4.24c2.78-8.67,11.06-14.3,20.12-14.56,31.05-.93,22.64,26.28,20.66,43.29-2.12,18.47,7,23,7,23s-30,31.71-30,31.78-2.58-7.42-2.65-7.95a42.07,42.07,0,0,1-.39-9.59C489.3,522.82,489.56,519.58,489.83,516.27Z"/><path class="cls-10" d="M483.14,439.62a11.36,11.36,0,0,1-5.76-.07c-4.63-1.26-13.7-2.38-16.94,6.49-2.85,7.88,5.89,11.91,12.31,13.77a9.4,9.4,0,0,1,6.62,6.88c.79,3.38,2.85,7.28,8.14,8.34,9.93,1.92,9.8-1.32,19.26,2.45s16.69-4.7,17.68-10.33,1.45-19.59-12.91-26.14C500.88,436,488.64,438.23,483.14,439.62Z"/><path class="cls-10" d="M521.87,450s4-18.93,23.89-16.48,7.75,21,27.34,28.59,29-7.48,50.44-.46,14,28,20.79,41.77,17.6,12.31,18.93,27.47S651.81,544,650.61,556.38s-14.76,16.09-26.27,7.42S614.8,551.22,594,548.24s-7.08-32.5-17.94-52.29-35.35,2.45-51.63-28.86C524.45,467.09,527.63,461.46,521.87,450Z"/><path class="cls-9" d="M457,568.7s-29.13,24.36-77.72-23c0,0-7.48-7.28-6.55-29.06s-5.69-7.09-5.69-7.09-8.34,21.32.93,38.07,47,48.72,73.54,48.85S477,580.35,477,580.35Z"/><path class="cls-11" d="M395.44,873.12l55.33-15.49L395,706.58,578.46,681,562.64,652.7c-47.19-3.45-95.32-4.57-142.51-.6-20.72,1.72-49.45,3-66.46,16.62-18.34,14.76-4.64,59.64-.27,78.17,7,29.52,16.55,58.52,26.94,87C385.11,847,390.07,860.15,395.44,873.12Z"/><path class="cls-12" d="M438.73,872.4c15.49-5.7,34.75-13.71,48.91-23-16.61-37.21-32.56-74.74-48.71-112.14-3.84-8.87-11.59-19.13-12.05-28.92l83.34,9.73c16.15,1.85,32.63,6.09,47.52-3.11,12.51-7.75,20.79-21,24.76-35.35,9.27-33.17-33.43-75.07-33.43-75.07-37.2-.19-56.33,19.2-56.33,19.2-1.52,7.35,4.37,31.84,4.37,31.91-.79-3.25-36.14-4.17-39.19-4.37-18.86-1.13-66.59-8.48-80,8.67-20.52,26.28.86,74.67,5.49,90.22S438.73,872.4,438.73,872.4Z"/><path class="cls-13" d="M585,564.26l4.44-2.65S552.85,512.83,522.07,512s-71.3,55.14-71.76,55.41l29.06,19.06,2.12-4.1,6.09,36.8L490.36,636l3.24,19.52,88.24-2.31-10.26-35.88-6.88-24-4.18-14.5,3.58-2.11"/><path class="cls-14" d="M485.53,549.17a17.67,17.67,0,0,1-1.13,8.34c-1.72,4-6.62,8.8-2.85,25.29"/><polyline class="cls-14" points="568.87 573.99 553.97 582.8 546.96 545.33"/><path class="cls-15" d="M495.39,475.49s-9.47,2.92-6.49,11.92a9.92,9.92,0,0,0,6.29,6.75c5.3,1.86,11.19-1.59,11.25-7.28v-.2c-.06-6.15-5.29-7.28-7.54-6.82s-5.43,2.25-5,6.09,3.9,4.51,5.89,4,3.84-3.58,1.32-5.83"/><polygon class="cls-16" points="469.31 645.15 469.11 638.07 359.82 641.84 326.33 518.32 318.58 519.91 352.81 649.25 469.31 645.15"/><path class="cls-9" d="M593.62,606.89s-.59,3.57-8.27,6.82c-1.33.53-6.29,1.85-13.77,3.71-17.54,4.3-49.12,11.58-81.22,18.66-7.08,1.59-14.23,3.11-21.18,4.64h0A59.32,59.32,0,0,1,458,645.61c-12.58,4.17-25,4.31-31.91,4a3.18,3.18,0,0,1-3-2.72,2.9,2.9,0,0,1,.52-2.18c1.66-2.39,3.91-6.69,6.56-10.79,2.91-4.5,6.29-8.81,9.79-10.2,3.31-1.25,26.88,1.86,26.88,1.86s8.47-2.52,20.78-6.29c.73-.2,1.53-.46,2.25-.73,20.72-6.42,50.78-15.95,70.44-23.43,1.52-.6,3-1.13,4.36-1.72s3-1.19,4.31-1.79c0,0-.33-1.19-1-3.11-.86-2.78-2.31-7.22-3.9-11.78l20.78-12.51a132.35,132.35,0,0,1,6.89,18.33C594.35,591.07,595.67,600.07,593.62,606.89Z"/></g><polygon class="cls-16" points="527.39 288.1 459.21 292.07 506.47 265.33 507.93 275.26 524.08 279.63 527.39 288.1"/><polygon class="cls-16" points="459.21 292.07 517.72 267.84 572.93 269.63 459.21 292.07"/><polygon class="cls-16" points="506.47 265.33 459.21 292.07 497.8 247.26 506.47 265.33"/><circle class="cls-17" cx="258.13" cy="278.7" r="127.16"/><rect class="cls-18" x="170.35" y="215.35" width="175.48" height="126.76"/><polyline class="cls-19" points="170.35 215.35 258.13 289.82 345.83 215.35"/><line class="cls-19" x1="170.35" y1="342.05" x2="238.67" y2="273.27"/><line class="cls-19" x1="345.84" y1="342.05" x2="277.59" y2="273.27"/></svg>