<svg id="图层_1" data-name="图层 1" xmlns="http://www.w3.org/2000/svg" viewBox="0 0 800 800"><defs><style>.cls-1,.cls-12,.cls-5,.cls-6{fill:#fff;}.cls-2{fill:#ccc;}.cls-3{fill:#ffd26e;}.cls-4{fill:#dbdde2;}.cls-5{stroke:#ccc;}.cls-11,.cls-12,.cls-13,.cls-14,.cls-5{stroke-linecap:round;stroke-linejoin:round;}.cls-12,.cls-13,.cls-14,.cls-15,.cls-16,.cls-6,.cls-7{stroke:#000;}.cls-10,.cls-15,.cls-16,.cls-6,.cls-7{stroke-miterlimit:10;}.cls-7,.cls-9{fill:#1331a1;}.cls-8{fill:#3165f0;}.cls-10,.cls-11{stroke:#fff;}.cls-14,.cls-15{fill:none;}.cls-17{fill:#ff8885;}.cls-18{fill:#6cc4ff;}</style></defs><rect class="cls-1" x="491.87" y="373.3" width="80.07" height="109.38"/><path class="cls-2" d="M571.43,373.8V482.18H492.37V373.8h79.06m1-1H491.37V483.18h81.06V372.8Z"/><rect class="cls-3" x="498.39" y="397.32" width="66.95" height="14.45"/><rect class="cls-3" x="498.39" y="420.21" width="66.95" height="14.45"/><rect class="cls-3" x="498.39" y="444.14" width="66.95" height="14.45"/><path class="cls-4" d="M341,550.88v-.41a39,39,0,0,1,20.66-34.09v69a40,40,0,0,1-9.28-6.89A38.89,38.89,0,0,1,341,550.88Zm-150.54,0A39.11,39.11,0,0,0,229.52,590H543.76v-3.48H364.31V515.29H543.76v-3.48H229.52a39.06,39.06,0,0,0-39.06,38.66v.41Z"/><polygon class="cls-5" points="364.31 515.5 364.31 586.68 538.17 586.68 538.17 515.5 364.31 515.5"/><path class="cls-6" d="M341,550.88a38.78,38.78,0,0,0,11.45,27.61,39.92,39.92,0,0,0,9.27,6.89V516.45A38.92,38.92,0,0,0,341,550.88Z"/><line class="cls-5" x1="364.31" y1="551.09" x2="538.17" y2="551.09"/><line class="cls-5" x1="364.31" y1="532.95" x2="538.17" y2="532.95"/><line class="cls-5" x1="364.31" y1="569.22" x2="538.17" y2="569.22"/><path class="cls-7" d="M335.34,511.47h2.38A6.79,6.79,0,0,1,335.34,511.47Z"/><path class="cls-8" d="M394.79,469.88A6.34,6.34,0,0,1,392.2,474l-21.07,14.73-8,5.59h-27A15.57,15.57,0,0,0,327.5,497l-1-3.13-1.22-4-.62-2L322.32,480l13.36-9.34,34-23.86,2.59,2,3.89,2.93,1.7,1.3.14.13,15.27,11.52a6.32,6.32,0,0,1,1.36,2.8A4.91,4.91,0,0,1,394.79,469.88Z"/><path class="cls-8" d="M292.38,437.29l-23.65-17.86a6.34,6.34,0,0,1,1.16-9.34l51.95-36.41a6.36,6.36,0,0,1,9.2,2.12l8.66,28.29-47.32,33.2Z"/><path class="cls-9" d="M286,445.34l25.37,36.2A14.78,14.78,0,0,0,332,485.16l39.27-27.55A14.77,14.77,0,0,0,374.88,437l-25.36-36.2a14.78,14.78,0,0,0-20.59-3.62l-39.27,27.55A14.78,14.78,0,0,0,286,445.34Z"/><path class="cls-5" d="M285.63,444.79,313,483.86a2.21,2.21,0,0,0,3.07.55L369.5,447l6.4-4.5a2.19,2.19,0,0,0,.55-3.07L349,400.34a2.18,2.18,0,0,0-3.07-.54l-59.11,41.38-.82.55a2.29,2.29,0,0,0-.41,3.06Z"/><path class="cls-5" d="M103,601.74a15.29,15.29,0,0,0,21.27,3.75l9.34-6.54,7.85-5.52,88.36-61.91,7.84-5.52,10.16-7.16a.23.23,0,0,1,.2-.07h0a123.46,123.46,0,0,1,46.43-36L298,481.2l10-4.43-8.8-12.48-8.72-12.47-4.1,4.22-6.2,6.41a124.6,124.6,0,0,1-18,15.41,121.32,121.32,0,0,1-31.7,16L220.11,501h0L218,502.47l-5.79,4-88.37,61.84L116,573.86l-9.34,6.54A15.28,15.28,0,0,0,103,601.74Z"/><path class="cls-10" d="M591.49,578.49,609.42,584s-13.3,22.16-13.3,49.43H547.58s-.89-6.14,19.91-12.41S591.49,578.49,591.49,578.49Z"/><path class="cls-11" d="M611.06,275.16s-7.3-16-26.8,106l60.82,2.73Z"/><path class="cls-10" d="M674.12,575.7l18.21,4.57s1.29,25.22,2.59,52.43l-49,.61s-2-4.91,18.47-12.14S674.12,575.7,674.12,575.7Z"/><path class="cls-6" d="M645.9,385.68,605.12,612.92l-32.31-4.77S584.13,422.7,599.26,384Z"/><path class="cls-6" d="M662.46,388.55S700.1,582.65,699.83,609h-34.3S614.87,437,621.28,388.55C625,361.07,662.46,388.55,662.46,388.55Z"/><path class="cls-12" d="M611.6,274.41s.14-11.72-2.73-14.93c-2-2.25-5.45,1.09-10.09-.2s-2.93-9.28-3.27-12.48A7.32,7.32,0,0,0,593,242s4.16.75,5.93-5.18a18.28,18.28,0,0,1,.68-2.32,12.24,12.24,0,0,1,12-7.23s20,.89,12.21,27.14l.61,8.32-6.89,16.09-6.2,2.25Z"/><path class="cls-13" d="M606.62,222s-9.88-7.29-14.93-.95,9.21,11.11,9.21,11.11a13.06,13.06,0,0,0,6.61,7.09c5.11,2.53,6.75-3.27,11.45-.34s-2.72,9.48-2.72,9.48a19,19,0,0,1,7.57,6s17.31-15.68,2.59-25.71C626.4,228.6,619.44,215.44,606.62,222Z"/><path class="cls-14" d="M609.9,240s-4.43,2.93-1.57,7.09a5.41,5.41,0,0,0,4.23,2.53c3,.13,5.52-2.53,4.7-5.39v-.07a3.5,3.5,0,0,0-4.91-2.38,3.11,3.11,0,0,0-1.7,3.88,2.43,2.43,0,0,0,3.61,1.16,1.81,1.81,0,0,0-.2-3.2"/><path class="cls-12" d="M584.06,359.91s-8.12,5.18-13.37,5.18-15.47,4.16-15.88,7.71,13,3.34,18.2.81c5.73-2.72,16.43-8.65,16.43-8.65Z"/><path class="cls-11" d="M613,284.4a793.15,793.15,0,0,1-108.47,44.8l4.7,12.81s42.07-.88,86-22.16Z"/><path class="cls-8" d="M624.35,263s-36.68-2.32-24.88,83.59l-20.05,12.13L586,371.16l13.56-3s2.53-2.66-2.72,20.39l70.56-.21C667.44,388.27,672.69,283.41,624.35,263Z"/><path class="cls-14" d="M640.58,289.14s13.5,34.7,1.36,54.68-42.41,24.41-42.41,24.41"/><path class="cls-14" d="M599.33,346.62,623.81,329l-1.44-8.8s-1.84-9.48-3.61-16"/><path class="cls-11" d="M527.47,336s-8,4.36-23.05,5.65-19.63-7.77-19.63-7.77-1.43-3.41,5.18-3.75,21.75,3.34,33.68-1.84Z"/><polygon class="cls-5" points="395.47 495.31 370.93 495.31 380.95 161.1 386.88 161.1 395.47 495.31"/><path class="cls-15" d="M363.09,494.43l-22.91,16a5.44,5.44,0,0,1-2.46,1h-2.38a6.38,6.38,0,0,1-4.37-3.13L327.5,497a15.32,15.32,0,0,1,8.59-2.59Z"/><path class="cls-3" d="M335.34,511.47H320.68v-1.63A15.35,15.35,0,0,1,327.57,497L331,508.34A6.13,6.13,0,0,0,335.34,511.47Z"/><path class="cls-3" d="M445.72,509.84v1.63H337.79a5.77,5.77,0,0,0,2.46-1l22.91-16h67.15A15.39,15.39,0,0,1,445.72,509.84Z"/><polygon class="cls-5" points="480.97 285.87 559.78 285.87 520.38 168.46 480.97 285.87"/><path class="cls-5" d="M520.38,326c21.75,0,39.4-18.07,39.4-40.3H481C481,307.89,498.63,326,520.38,326Z"/><rect class="cls-5" x="245.43" y="160.32" width="275.04" height="7.36"/><ellipse class="cls-3" cx="520.72" cy="164.1" rx="4.16" ry="4.3"/><polygon class="cls-5" points="206 285.87 284.82 285.87 245.41 168.46 206 285.87"/><path class="cls-8" d="M245.41,326c21.75,0,39.41-18.07,39.41-40.3H206C206,307.89,223.66,326,245.41,326Z"/><ellipse class="cls-3" cx="245.89" cy="164.1" rx="4.16" ry="4.3"/><ellipse class="cls-3" cx="383.81" cy="164.1" rx="4.5" ry="4.3"/><path class="cls-16" d="M392.2,474l-21.68,15.21,1-31.77.27-9,.07-3.21.41-11.86,2.59,3.68a15.4,15.4,0,0,1,2,4,14.53,14.53,0,0,1-.68,10.71l1.7,1.29.14.14,15.27,11.52A6.3,6.3,0,0,1,392.2,474Z"/><path class="cls-17" d="M471.88,577.88a62.31,62.31,0,0,0-62.32,62.32H534.19A62.38,62.38,0,0,0,471.88,577.88Z"/><circle class="cls-18" cx="132.62" cy="369.52" r="32.45"/></svg>