<svg id="图层_1" data-name="图层 1" xmlns="http://www.w3.org/2000/svg" viewBox="0 0 800 800"><defs><style>.cls-1,.cls-18,.cls-9{fill:none;}.cls-1,.cls-3{stroke:#ccc;}.cls-1,.cls-14,.cls-16,.cls-18,.cls-3,.cls-7,.cls-9{stroke-linecap:round;}.cls-1,.cls-14,.cls-16,.cls-18,.cls-3,.cls-7,.cls-8,.cls-9{stroke-linejoin:round;}.cls-2{fill:#ffd26e;}.cls-10,.cls-17,.cls-3,.cls-7{fill:#fff;}.cls-4{fill:#dbdde2;}.cls-5{fill:#6cc4ff;}.cls-14,.cls-18,.cls-6{stroke:#fff;}.cls-17,.cls-6{stroke-miterlimit:10;}.cls-16,.cls-17,.cls-7,.cls-8,.cls-9{stroke:#000;}.cls-11{fill:#f4f4f4;}.cls-12{fill:#1331a1;}.cls-13{fill:#3165f0;}.cls-15{fill:#5789f7;}</style></defs><path class="cls-1" d="M298.72,191.54l110.38-48.2a7.16,7.16,0,0,1,13,.74l115,47.46"/><path class="cls-2" d="M420.51,145.77a6.9,6.9,0,1,0-9.31,2.9A6.9,6.9,0,0,0,420.51,145.77Z"/><rect class="cls-3" x="224.32" y="190.26" width="387.12" height="263.57"/><rect class="cls-4" x="293.72" y="321.84" width="262.15" height="72.24"/><rect class="cls-3" x="279.95" y="274.13" width="262.15" height="101.45"/><polygon class="cls-2" points="498.87 304.74 457.56 301.72 469.27 340.36 480.75 326.54 509.02 350.01 514.84 343 486.58 319.53 498.87 304.74"/><circle class="cls-5" cx="486.2" cy="532.12" r="17.53"/><rect class="cls-6" x="197.79" y="216.93" width="138.4" height="8.98"/><rect class="cls-6" x="149.11" y="243.05" width="138.4" height="8.98"/><polygon class="cls-3" points="121.57 585.55 121.57 619.5 174.77 619.5 121.57 585.55"/><path class="cls-2" d="M173.35,629.66a15,15,0,0,1,1.8.07V619.19H120.88v44.43h17.9C138.78,644.78,154.28,629.66,173.35,629.66Z"/><rect class="cls-4" x="121.57" y="571.1" width="53.2" height="14.38"/><path class="cls-2" d="M242.55,525.93v2.91h138.6v-2.91c0-2.7-1.82-4.93-4-4.93H246.6C244.37,521,242.55,523.23,242.55,525.93Z"/><path class="cls-3" d="M368.87,605.8a34.71,34.71,0,0,0-9,23.43,35.16,35.16,0,0,0,9,23.42v9.86h-26.4V528.9h26.4Z"/><path class="cls-7" d="M194.21,409.07a11.69,11.69,0,0,1,11.55,6.75,16.84,16.84,0,0,1,.67,2.23c1.69,5.6,5.67,4.86,5.67,4.86a7.09,7.09,0,0,0-2.36,4.66c-.34,3.1,1.35,10.66-3,11.95s-6.08-1.49-7,1.28a37,37,0,0,0-1.22,6.14l-8.23,1.56-7.29-3s4.52-2.43,2.43-12.22C183.48,424.33,177.54,410.15,194.21,409.07Z"/><path class="cls-8" d="M193.67,407.31s1.49-7.56,8.31-6.07a7.09,7.09,0,0,1,6,7.76,9.74,9.74,0,0,1-2.76,5.74s-.27,5-4.39,6.62c0,0-4.32-4.46-5.88-2.71s-.33,6,2.5,8.38-.07,6.48-3.37,7.49c0,0-3.24-3.24-8.65-1.22C185.43,433.3,170.11,408.39,193.67,407.31Z"/><path class="cls-9" d="M200.76,421.22s3.44,3.51,2.5,6.41-5.47-.81-5.47-.81-2.57-1.75-1-4.11,4.05,1.21,4.05,1.21,1.55,2.16-.48,2.16a2.47,2.47,0,0,1-2.43-1.89"/><path class="cls-10" d="M275.23,631.72s-1.62,13.24,5.6,19.18,23.16,7,25.32,13.23H264.29s-2.23-16.2,3.51-32.41Z"/><path class="cls-11" d="M207.38,622.61s-6.28,11.14-6.08,18.7.41,17,5,18.23,5.67,4.39,5.67,4.39H197.32s-3.78.4-6.89-4.8c-2.63-4.38-9.52-12.55-11.68-15a1.15,1.15,0,0,1,0-1.55c2.9-3.38,14.45-16.81,16.27-19.85a47.39,47.39,0,0,0,3.51-7.63Z"/><path class="cls-2" d="M331.4,663.93h41.85v-6.69H338.08a6.66,6.66,0,0,0-6.68,6.69Z"/><path class="cls-11" d="M190,536.4s34.83,13.36,41.85,18.43,22.48,14.38,23,16.67S253,583,253,583s-13,26.87-46.78,61.5c-.14.14-19-17.48-18.91-17.55,12.76-17.48,30.79-43.34,30.79-43.34s-11.14-2.43-56.84-21.4c-4.6-1.89-17.36-6.28-19-12.43-3-11.07-.41-25.18,11.88-31.32S190,536.4,190,536.4Z"/><path class="cls-10" d="M232.76,571.91s-46.92.34-65.49-1.42c-2.56-.27-5.19-.54-7.76-1a20.54,20.54,0,0,1-4-1,19.55,19.55,0,0,1-6.42-3.91,27.15,27.15,0,0,1-4.39-6.15c-2.9-5.33-3.57-11.47-3.37-17.42.81-28.22,23.63-13.29,35.44-12.21,4.12.4,5.13,2.83,9.18,3.57,12.36,2.16,27.62,3.78,39.63,7.83,8,2.71,7.23,2.23,15.13,5.14a32.27,32.27,0,0,1,9.85,5.46c13.71,11.28,26.54,63.94,31.53,91.42-7.49,1.21-24,3.64-24,3.64Z"/><polygon class="cls-12" points="336.25 458.35 330.5 456.6 312.61 515.09 251.32 515.55 251.37 521.56 316.92 521.07 317.05 521.11 336.25 458.35"/><path class="cls-13" d="M180,445.19s12.28-8.24,21.26,5.26S228,493.19,228,493.19,249,473.14,257.61,454.5L267.8,459s-18.43,60-36.05,59.21-31.94-30.93-31.94-30.93-7.22,15.67-10.05,23.5-3.52,21.6-3.52,21.6h-44C142.23,532.35,140.81,472.06,180,445.19Z"/><path class="cls-7" d="M258.69,455s2.76-15.46,6.81-17.22,8.85-.54,8.85-.54,8.51-3.85,12.08-2.23-6.14.41-12.15,11.21-7.56,12.29-7.56,12.29Z"/><path class="cls-9" d="M199.81,487.32S192,471.65,187.73,470.5"/><path d="M368.91,605.29v47.3a35.15,35.15,0,0,1-9.07-23.68A34.64,34.64,0,0,1,368.91,605.29Z"/><path class="cls-14" d="M599,546.59l11.81,4,1.89,35-32.87.13s-.14-5.67,13.84-9.45S599,546.59,599,546.59Z"/><path class="cls-14" d="M644.32,550.1l11.47,2.5s1.63,15.93,3.31,33.22H628.59s-.88-5.34,11.61-10.4S644.32,550.1,644.32,550.1Z"/><path class="cls-13" d="M605.63,340.88s-.27,18.09,1.42,42.6c1.42,20.59,6.14,44.83,9.11,64.07,0,.2.07.34.07.54,5.34,34.09,26.2,113.62,26.2,113.62l18-.67s-3.71-92.29-6.88-159.13c-1.49-30.65-6.75-55.22-12.29-63.8Z"/><path class="cls-15" d="M631.42,335.82l-35.17,2.49s-12.56,74.74-11.88,108c.74,34.57,8.91,113.56,8.91,113.56l26.06-.54Z"/><polygon class="cls-16" points="595.03 332.37 641.82 332.85 641.96 339.8 596.11 338.79 595.03 332.37"/><path class="cls-16" d="M576.81,267.36a9,9,0,0,1-4.12-1.62c-4.05-2.77-14.59-11.07-36.93-34,0,0-4.73-4.79-3.78-18.84s-3.51-4.65-3.51-4.65-5.67,13.57,0,24.5,40.57,52.93,57.65,53.4,6.75-16.47,6.75-16.47Z"/><path class="cls-16" d="M662.28,316c-.34,1.75-2.57,3.44-4,4.25a6.4,6.4,0,0,1-3.18.68l-.81-.07h0l-14-1.15s-6.55-34.84,14.45-45.43C655.19,274.31,665.45,299.9,662.28,316Z"/><path class="cls-17" d="M584.37,332.51s3.24-7.9,5.13-12.83c2.9-7.7,5-20.66,5-20.66s-6-3.91-7.49-5c-2.3-1.69-8.37-5.74-8.37-5.74l6.21-21.2c3.1.07,6.28.13,9.38.13,4.73.07,9.25-1.41,13.71-2.56,2.5-.68,6.21-2.16,8.77-1.82l16.21,1.89s12.08,3.91,19.1,7.76c.88.47,3.85,0,4.59.68-2.16,10.66-7.76,30.51-10.59,40.37a38.78,38.78,0,0,0-1.49,12.15l.41,8.78C644.93,334.33,598.54,333,584.37,332.51Z"/><path class="cls-16" d="M618.06,264.93c-3.25,1.55-5,2.63-5,2.63l10.46,13.1c3.58-2.5,25.46-10.8,25.46-10.8-1.89-1-5.81-3-8.17-4.26a4.42,4.42,0,0,1-2.37-3.1L637,255.34s8-10.94,3.37-18.36-15.19-6.55-15.19-6.55a10.45,10.45,0,0,0-10.39,6,16,16,0,0,0-.61,2c-1.55,5.06-5.13,4.38-5.13,4.38A6.33,6.33,0,0,1,611.1,247c.2,2.09-.61,6.48.61,9a3.28,3.28,0,0,0,3,1.75c1.21,0,3.44,0,5.06-.13,2.43-.2,3.18,3.11,2.57,4.46S618.06,264.93,618.06,264.93Z"/><path class="cls-17" d="M621.7,223.81s-8.64,2.16-6.08,8,16,14,2.5,23.22-3.71,18.77-3.71,18.77,13.16,14.11,8.17,21.4-.74,11.82,4.72,16.27c14.18,11.55,23.5,5.95,28.29,2.77,20.53-13.43,8.1-27.2,8.1-27.2s4-12.9-12.42-21.47c-7.7-4.05.34-16.75.34-16.75s5.87-17-5.27-21.13S637.57,215.31,621.7,223.81Z"/><path class="cls-18" d="M623.79,241.5s-4.38-2.23-6.48,2a4.79,4.79,0,0,0-.06,4.59,4.09,4.09,0,0,0,6.54,1.28l.07-.07a3.24,3.24,0,0,0-.34-5.06,2.88,2.88,0,0,0-3.91.4,2.24,2.24,0,0,0,.74,3.45,1.7,1.7,0,0,0,2.5-1.62"/><line class="cls-3" x1="174.77" y1="585.55" x2="174.77" y2="620.92"/><path class="cls-13" d="M430.57,629a35.42,35.42,0,0,1-61.64,23.76V605.26A35.42,35.42,0,0,1,430.57,629Z"/><rect class="cls-4" x="557.74" y="586.46" width="121.38" height="77.88"/></svg>