<svg id="图层_1" data-name="图层 1" xmlns="http://www.w3.org/2000/svg" viewBox="0 0 800 800"><defs><style>.cls-1{fill:#5789f7;}.cls-2{fill:#002f9c;}.cls-3,.cls-9{fill:#fff;}.cls-4{fill:#dbdde2;}.cls-5{fill:#ffca6e;}.cls-6{fill:#efefef;}.cls-10,.cls-7{fill:none;stroke:#fff;}.cls-7,.cls-9{stroke-linecap:round;stroke-linejoin:round;}.cls-8{fill:#3165e8;}.cls-9{stroke:#000;}.cls-10{stroke-miterlimit:10;}</style></defs><circle class="cls-1" cx="162.12" cy="222.81" r="74.49"/><rect class="cls-2" x="499.32" y="611.11" width="213.05" height="8.65"/><rect class="cls-2" x="560.39" y="643.04" width="151.97" height="8.65"/><rect class="cls-3" x="162.12" y="222.61" width="472.21" height="321.53"/><rect class="cls-4" x="162.12" y="222.35" width="472.21" height="35.33"/><polygon class="cls-5" points="188.5 477.94 188.5 418.64 216.44 418.64 222.98 425.18 269.2 425.18 269.2 477.94 188.5 477.94"/><polygon class="cls-5" points="524.02 353.54 524.02 294.23 551.95 294.23 558.49 300.77 604.72 300.77 604.72 353.54 524.02 353.54"/><rect class="cls-4" x="547.14" y="423.42" width="59.76" height="49.44"/><polygon class="cls-4" points="275.35 315.5 288.31 328.46 288.31 389.32 230.9 389.32 230.9 315.5 275.35 315.5"/><polygon points="275.35 315.5 275.35 328.46 288.31 328.46 275.35 315.5"/><path class="cls-4" d="M359.43,317.27s-2.71,5.78-2.46,11.31-7.56,12.19-9.53,25.49,8,13.3,12,21.06-3.55,19.51,6.43,21.73,13.37-6.62,19.06-6,24.17,5.54,36.81,5.1,19.06-7.31,28.37-6.87-5.32-47.22-5.32-47.22l-46.55-37.47Z"/><path class="cls-6" d="M474.71,398c25.72,5.76,5.1,83.8,5.1,83.8l-16.85-10c-8.87,30.82,4.43,108.63,4.43,108.63H345.24c13.3-52.54,4.88-82.91.67-92.45s-6.43-25.49-6.43-25.49-2,46.33-19.29,46.33-2.44-88.23,3.33-103.53c1.37-3.66,5.83-5.8,10.87-6.78,0,0,7.5,30.28,66.05,30.28S474.71,398,474.71,398"/><path d="M474.71,398c-25.72-5.77-43.89,10-51.43,4.21s-9.31-18.18-8-47-3.62-41.24-15.45-44.78-29.84,4.08-32,16.85c0,0-2,7.76-2,11.08s-2,8.42-8.43,11.31l4.82,1.17a4.55,4.55,0,0,1,3.48,4.23c.27,6.32,1.38,19.31,5.89,20.31,6,1.33,17.07-6,18,0s3.55,26.16-4.66,27c-6.15.67-34.37-6.65-50.53-3.9,0,0,7.75,30.28,66.05,30.28S474.71,398,474.71,398Z"/><path class="cls-3" d="M373.26,302.14a11.88,11.88,0,0,1-8.72,3.06c-6.36-.43-16.48.77-17.08,12.73-.66,13,13.62,11.36,21.09,9.65a4.86,4.86,0,0,1,5.55,2.89c1.12,2.64,3.26,5.62,7.28,5.87,7.31.44,11.68-8.21,18.47-4.88s-3.4,16.18-1.4,23.94,11.53,4.66,20.62,9.09,9.69,23.51,24.6,27.93,38.36-4.21,51.88,0,16-10.19,22.17-10.86,23.94,10.42,32.15,6.21.66-12.18,6.65-18.62,17.51-23.06-8-31.93-68.5,7.32-86,2.66C445.87,335.46,431,305.2,414,303.54a11.34,11.34,0,0,1-5.06-1.68C403,298,387,289.86,373.26,302.14Z"/><path class="cls-7" d="M386.42,334.05s-8.47,5.2-3.38,13.21a10,10,0,0,0,7.76,5c5.64.51,10.51-4.34,9.17-9.85,0-.06,0-.12-.05-.18-1.58-6-6.93-5.77-9-4.75s-4.71,3.53-3.39,7.16a4.52,4.52,0,0,0,6.7,2.38c1.81-1.08,2.82-4.46-.13-6"/><rect class="cls-8" x="162.12" y="508.81" width="472.21" height="35.33"/><path d="M288.27,359.83s-1.11-6.87-2.66-10.41S271.5,337.17,276,333.87a1.33,1.33,0,0,1,1.41-.07c5.28,2.87,40.15,24.28,51.2,93.87,12,75.38,3.77,81.14-8.42,81.14S301,491.74,305.6,451.62c4-34.52-2.53-57.39-7.53-66.22a13.75,13.75,0,0,0-4-4.4l-5.77-4.12Z"/><path d="M500.71,348.42a94.55,94.55,0,0,1-20,11.61c-4.82,2.1-13.1,8-15.72,24.17-3.77,23.27-12.41,78.92-14.63,90.67S443,508.81,462.2,508.81s23.82-51,22.05-86.26-3.33-46.34,8-53.21,26.38-21.06,23.72-27.71C514.36,337.66,508.28,342.61,500.71,348.42Z"/><path class="cls-9" d="M339.48,462.48s-1.55-10-1.78-14.19"/><line class="cls-10" x1="462.26" y1="394.72" x2="458.97" y2="415.47"/><circle class="cls-3" cx="183.4" cy="240.02" r="5.32"/><circle class="cls-5" cx="205.31" cy="240.02" r="5.32"/><circle class="cls-8" cx="227.22" cy="240.02" r="5.32"/></svg>