<svg id="图层_1" data-name="图层 1" xmlns="http://www.w3.org/2000/svg" viewBox="0 0 800 800"><defs><style>.cls-1{fill:#f4f4f4;}.cls-2{fill:#dbdde2;}.cls-3{fill:#ffca6e;}.cls-4,.cls-9{stroke:#000;}.cls-10,.cls-4,.cls-5,.cls-9{stroke-linecap:round;stroke-linejoin:round;}.cls-5,.cls-7{fill:#fff;}.cls-5{stroke:#ccc;}.cls-10,.cls-6{stroke:#fff;}.cls-6{stroke-miterlimit:10;}.cls-8{fill:#eaeaea;}.cls-9{fill:none;}.cls-11{fill:#002f9c;}.cls-12{fill:#3165ec;}</style></defs><rect class="cls-1" x="461.52" y="149.98" width="164.28" height="249.42" transform="translate(-62.26 336.99) rotate(-32.68)"/><rect class="cls-2" x="520.43" y="350.93" width="164.28" height="31.21" transform="translate(-102.52 383.33) rotate(-32.68)"/><rect class="cls-3" x="464.76" y="187.01" width="126.37" height="126.37" transform="translate(-51.52 324.63) rotate(-32.68)"/><circle class="cls-4" cx="602.56" cy="366.53" r="9.5"/><rect class="cls-5" x="119.87" y="230.63" width="161.84" height="161.84"/><line class="cls-5" x1="119.87" y1="262.68" x2="281.71" y2="262.68"/><line class="cls-5" x1="119.87" y1="294.88" x2="281.71" y2="294.88"/><line class="cls-5" x1="119.87" y1="327.07" x2="281.71" y2="327.07"/><line class="cls-5" x1="119.87" y1="359.27" x2="281.71" y2="359.27"/><line class="cls-5" x1="249.33" y1="230.63" x2="249.33" y2="392.46"/><line class="cls-5" x1="216.95" y1="230.63" x2="216.95" y2="392.46"/><line class="cls-5" x1="184.56" y1="230.63" x2="184.56" y2="392.46"/><line class="cls-5" x1="152.18" y1="230.63" x2="152.18" y2="392.46"/><polygon class="cls-6" points="434.85 432.53 416.06 475.74 394.77 475.74 394.77 479.42 493.26 479.42 495.04 475.74 513.82 432.53 434.85 432.53"/><path class="cls-7" d="M343.73,637.82S339.24,650,346.89,655s30.59,8.32,32.09,19.62h-60.1a1.84,1.84,0,0,1-1.85-1.93c.28-5.34,3-20.87,8.41-34.87Z"/><path class="cls-8" d="M437.31,580.79s2.36,10.2,11.5,13.86c8.74,3.49,8.67-9.26,18.09-11.56a.69.69,0,0,1,.78,1l-10.45,21.61a5.16,5.16,0,0,1-3,2.65l-24.32,8.34a1.56,1.56,0,0,1-2.05-1.2c-1.14-6.3-5.09-27.3-8.18-32.71"/><path class="cls-2" d="M256,484.26S322.48,447.68,363.52,442c44.56-6.15,89.78,137,89.78,137l-43.4,4.82-40.4-92.28Z"/><line class="cls-9" x1="373.38" y1="501.11" x2="361.85" y2="475.16"/><path class="cls-7" d="M323,320.58s.55,6.21,1.21,12.52,5,7.1,5,7.1-1.92.87-3.77,1.49a3,3,0,0,0-2,2.46c-.58,4.72-2.39,16.45-6.1,17.77-4.65,1.67-11.75-4.76-15.63-3.88s-8.09,9.2-8.09,9.2l-16.29-14,3.36-5.48a10.37,10.37,0,0,0,1.53-4.64c.55-6.68,3.44-25.35,18.72-26.35C319.51,315.59,323,320.58,323,320.58Z"/><path class="cls-6" d="M317.38,306.47a6,6,0,0,0,4.86,1.33c4.2-.63,11.85-.65,12.57,7.35.83,9.29-7.83,10.71-13.92,9.43a5.77,5.77,0,0,0-5.11,1.36,11.06,11.06,0,0,1-7.58,2.84c-6.76,0-9.31-9.2-14.63-5.32-5.95,4.34,1.89,12.08,2.44,16.07s-11,7.78-14.36,6.11-11.34-36.73,4.11-40.4a8.57,8.57,0,0,0,3.57-1.77C293,300.35,303.1,294.37,317.38,306.47Z"/><path class="cls-9" d="M305.72,328.5s5.6,4.52,1.21,9.8a7.25,7.25,0,0,1-6,2.89c-4.11-.16-7.16-4.09-5.68-7.92a.69.69,0,0,1,.05-.13,4.67,4.67,0,0,1,6.92-2.58c1.4.93,3.06,3,1.77,5.46a3.28,3.28,0,0,1-5,1.09,2.47,2.47,0,0,1,.65-4.3"/><path class="cls-10" d="M312.18,443.81s-19.27-31-15.95-75.68l-23.83-3.88,5.83,97.88Z"/><path class="cls-11" d="M275.39,349.73s17.52,13,20.84,18.4l-2.33,15.08-22.17-26.94Z"/><path class="cls-12" d="M293.9,383.21l-4.32,53.42s4.66,14.53,6,15.63l31.81-16.18,11.19,21.39-37.13,21.62s-36.91.22-100.65,19c0,0-15-94,70.94-141.77Z"/><line class="cls-9" x1="295.57" y1="452.26" x2="283.98" y2="458.58"/><path class="cls-9" d="M263,382c12.41-.45,17.07,10,18.51,20.46,1.28,9.3,8.09,34.18,8.09,34.18"/><path class="cls-9" d="M245.8,418.79s7.31,48.64,25.93,63.22"/><path class="cls-7" d="M328,437.27s38.39-18.87,61.43-14.58a12.74,12.74,0,0,1,8.05,5.11l18.58,26s-3.21,5.58-15.4-8.2a3.11,3.11,0,0,0-3.16-.95c-4,1.05-13.54,2-18.8-10.47,0,0-22.62,4.83-42.4,18.93Z"/><path class="cls-7" d="M360,637.82H317.18c19.57-76.76,22.39-113.51,22.39-113.51-38.35,0-52.32,13.08-92.44,13.08S200.79,498,200.79,498s118-36.6,168.21-16C405.25,496.88,360,637.82,360,637.82Z"/><rect class="cls-3" x="210.88" y="537.3" width="83.95" height="94.09"/><polygon class="cls-1" points="210.88 537.3 210.88 568.98 210.88 631.39 294.83 568.98 294.83 537.3 210.88 537.3"/><polyline class="cls-3" points="126.93 631.39 210.88 568.98 210.88 631.39 126.93 631.39"/><polygon class="cls-6" points="444.9 631.39 482.56 553.14 532.78 631.39 444.9 631.39"/><polygon class="cls-12" points="507.67 592.27 482.56 553.14 444.9 631.39 507.67 592.27"/></svg>