<svg id="图层_1" data-name="图层 1" xmlns="http://www.w3.org/2000/svg" xmlns:xlink="http://www.w3.org/1999/xlink" viewBox="0 0 800 800"><defs><style>.cls-1,.cls-12{fill:none;}.cls-2{fill:#ffd26e;}.cls-11,.cls-13,.cls-3{fill:#fff;}.cls-4{fill:#ccc;}.cls-5{fill:#dbdde2;}.cls-6{fill:#ffcd6e;}.cls-7{fill:#3165eb;}.cls-8{fill:#e3e5ea;}.cls-11,.cls-12,.cls-13,.cls-15,.cls-9{stroke:#000;}.cls-11,.cls-12,.cls-15,.cls-9{stroke-linecap:round;stroke-linejoin:round;}.cls-10{clip-path:url(#clip-path);}.cls-11,.cls-12,.cls-13,.cls-15{stroke-width:0.5px;}.cls-13{stroke-miterlimit:10;}.cls-14,.cls-15{fill:#3165f0;}</style><clipPath id="clip-path"><rect class="cls-1" x="131.08" y="159.43" width="380.74" height="283.63"/></clipPath></defs><circle class="cls-2" cx="315.59" cy="539.26" r="26.63"/><rect class="cls-3" x="157.06" y="210.34" width="246.21" height="232.55"/><path class="cls-4" d="M402.77,210.84V442.4H157.56V210.84H402.77m1-1H156.56V443.4H403.77V209.84Z"/><rect class="cls-5" x="156.56" y="209.37" width="247.2" height="39.8"/><circle class="cls-6" cx="196.23" cy="229.24" r="5"/><circle class="cls-7" cx="218.6" cy="229.24" r="5"/><polygon class="cls-8" points="575.71 223.62 575.71 330.74 567.12 337.7 556.99 346.01 486.97 346.01 486.97 223.62 575.71 223.62"/><path class="cls-2" d="M549.8,230.53H515.58v-1.86a9.94,9.94,0,0,1,9.95-9.95h14.86a9.51,9.51,0,0,1,9.54,9.55v2.26Z"/><polygon class="cls-2" points="523.94 218.85 522.61 212.49 542.38 212.49 541.31 218.85 523.94 218.85"/><polygon class="cls-9" points="575.91 330.94 560.03 325.67 557.19 346.14 575.91 330.94"/><circle class="cls-8" cx="542.95" cy="514.6" r="125.97"/><polygon class="cls-2" points="459.29 526.77 481.92 502.44 519.63 532.65 605.86 448.85 626.54 473.18 517.94 580.36 459.29 526.77"/><g class="cls-10"><path class="cls-11" d="M277,283.5s1-21.49,6.62-27c4.06-3.92,9.87,2.57,18.45.68s6.35-16.63,7.37-22.44a13.11,13.11,0,0,1,5.13-8.52s-7.7.88-10.2-10.13a39.2,39.2,0,0,0-1-4.33c-3.1-8.85-11.76-14.46-21.15-14.46,0,0-36.76-.54-25.34,48.25l-2.1,15.14,10.82,30.14,11.08,4.73Z"/><path d="M291.92,188.28s14-9.12,22.44,3-13.11,16.22-13.11,16.22a24.29,24.29,0,0,1-12.84,12.3c-9.67,4.05-12-6.76-21-2s3.92,17.57,3.92,17.57a35.6,35.6,0,0,0-14.46,10.13S227,215,255,198.22C255,198.22,269.28,174.9,291.92,188.28Z"/><path class="cls-12" d="M284,220.79s7.77,5.81,2.09,13.11a9.92,9.92,0,0,1-8,4.19c-5.54,0-9.8-5.2-8-10.41,0-.06.07-.13.07-.2,2.09-5.68,7.23-5,9.19-3.78s4.26,3.85,2.64,7.23a4.37,4.37,0,0,1-6.69,1.69c-1.69-1.22-2.37-4.6.67-5.81"/><path class="cls-13" d="M434.72,304.12a4.13,4.13,0,0,1,2.16,2.43c.54,2-1.69,3.65-3.78,4.93-5.48,3.31-11.9,7.23-19.33,8.18-6.35.74-13.25-.88-19.46-1.69a2.13,2.13,0,0,0-2,.74l-11.76,15.68a2.16,2.16,0,0,1-2.37.68l-11.35-3a1.53,1.53,0,0,1-.95-2.57c3.65-3.72,7.24-7.44,10.88-11.22,4.06-4.19,9.33-12.5,16.22-14.06C404.58,301.41,423.9,297.9,434.72,304.12Z"/><polygon points="373.08 316.28 379.91 310.47 395.52 325.74 389.71 330.4 373.08 316.28"/><path class="cls-14" d="M401.47,340.74l-27.51-27c-9.19,4.26-43.25,40.08-57.84,56.9h0s-7.84-68.25-23.05-77L273.27,318v52l12.57,41.23s15.07,10.4,21.49,8.78,34.06-25.61,34.06-25.61h0C369.71,371.15,401.47,340.74,401.47,340.74Z"/><path class="cls-14" d="M302.33,463.4c.27,0,.47-.07.74-.07-.4-26.22,2.84-52.37,4.26-78.59s.81-52.92-6.89-78.06c-3.92-12.77-11-26.89-21.49-35.75-8.31-7-24.53-15.34-34.54-7.09-4.12,3.38-7.5,8.38-9.93,13-7.23,13.92-10.88,29.26-14.46,44.47-5,21.15-7.3,42.84-9.53,64.4q-4.67,43.89-9.26,87.79Z"/><path class="cls-11" d="M338.15,442.59h37.57c3.58,0,6.49-3,6.08-5.95-.33-2.16-2.23-3.85-4.39-5-5.34-2.84-11.83-4.94-17.71-6.76-7.43-2.3-14.39.14-21.76,1.35a6,6,0,0,0-4.79,3.85l-1.63,5.27a5,5,0,0,0,2.5,5.82l.75.47A6.69,6.69,0,0,0,338.15,442.59Z"/><path class="cls-15" d="M208.69,404.05c1.72,15.22,4.5,25.63,7.27,31.44,3.72,7.77,68.8,7.64,111.37,6.62l2.1-41.69c-34.87,4-82.72,1.75-82.72,1.75S250,377,253,354.66"/><polygon points="328.14 414.74 341.32 413.93 337.4 442.59 326.46 442.18 328.14 414.74"/></g></svg>