<svg id="图层_1" data-name="图层 1" xmlns="http://www.w3.org/2000/svg" viewBox="0 0 800 800"><defs><style>.cls-1{fill:#dbdde2;}.cls-2{fill:#002f9c;}.cls-3{fill:#3165e8;}.cls-4{fill:#efefef;}.cls-11,.cls-5,.cls-8{stroke:#000;}.cls-11,.cls-13,.cls-5,.cls-7,.cls-8{stroke-linecap:round;stroke-linejoin:round;}.cls-11,.cls-13,.cls-6{fill:#fff;}.cls-10,.cls-7,.cls-8{fill:none;}.cls-7{stroke:#fff;}.cls-9{fill:#ffca6e;}.cls-12{fill:#f4f4f4;}.cls-13{stroke:#ccc;}.cls-14{fill:#6cc4ff;}</style></defs><rect class="cls-1" x="137.21" y="137.47" width="298.62" height="35.76"/><path class="cls-2" d="M223.3,278.31h61.16a0,0,0,0,1,0,0v68.52a0,0,0,0,1,0,0H195.77a0,0,0,0,1,0,0v-41A27.52,27.52,0,0,1,223.3,278.31Z"/><path class="cls-3" d="M233.6,278.31h61.16a0,0,0,0,1,0,0v68.52a0,0,0,0,1,0,0H206.08a0,0,0,0,1,0,0v-41A27.52,27.52,0,0,1,233.6,278.31Z"/><path class="cls-1" d="M325.51,214.17a17.82,17.82,0,0,1,1.56,7.16c-.16,3.5,4.78,7.71,6,16.13s-5.07,8.42-7.59,13.34,2.24,12.35-4.07,13.75-8.47-4.19-12.07-3.79-15.3,3.51-23.3,3.23-12.07-4.63-18-4.35,3.37-29.9,3.37-29.9L301,206Z"/><path class="cls-4" d="M309.37,264.92s21.71,2.1,35,19.62,33.47,62.29,33.47,62.29H232.42s-.44-50.77,18.18-67.61,34.49-14.44,34.49-14.44Z"/><path class="cls-5" d="M309.37,265.18c-5.19-.56-3.51-9.45-2.95-13.24s7.58.84,11.37,0c2.86-.64,3.56-8.86,3.73-12.86a2.88,2.88,0,0,1,2.2-2.68l3-.74c-4.07-1.83-5.33-5.06-5.33-7.16a43.39,43.39,0,0,0-1.26-7c-1.37-8.08-12.78-12.91-20.26-10.66s-10.62,10.1-9.78,28.35-.28,22.22-5.05,25.87c0,0,6.84,9.06,16.41,9.06S309.37,265.18,309.37,265.18Z"/><path class="cls-6" d="M316.75,205.59a7.56,7.56,0,0,0,5.52,1.94c4-.28,10.43.49,10.82,8.06.41,8.2-8.62,7.18-13.35,6.1a3.08,3.08,0,0,0-3.52,1.83,5.43,5.43,0,0,1-4.61,3.72c-4.63.28-7.39-5.2-11.69-3.09s2.15,10.24.89,15.16-7.3,2.94-13.05,5.75-6.14,14.88-15.58,17.68-24.28-2.66-32.84,0-10.11-6.45-14-6.87-15.15,6.59-20.35,3.93-.42-7.71-4.21-11.79-11.08-14.6,5.06-20.21,43.36,4.63,54.45,1.68c10.54-2.8,19.93-22,30.72-23a7.12,7.12,0,0,0,3.2-1.07C297.93,203,308.08,197.81,316.75,205.59Z"/><path class="cls-7" d="M308.42,225.79s5.36,3.29,2.14,8.36a6.31,6.31,0,0,1-4.91,3.18c-3.57.32-6.65-2.75-5.8-6.24l0-.11a4.07,4.07,0,0,1,5.71-3c1.32.65,3,2.23,2.14,4.52a2.86,2.86,0,0,1-4.24,1.51,2.16,2.16,0,0,1,.08-3.8"/><line class="cls-8" x1="276.32" y1="346.83" x2="262.84" y2="302.34"/><path d="M313.24,346.83s60.19-43.19,87.35-50.3,29.26-.39,29.26-.39-18.87,2-22.39,4.06c0,0,11.9,6.14,5.76,13.7s-14.6,3.15-27.33,8.76-32.31,24.17-32.31,24.17Z"/><path class="cls-8" d="M340.05,302.34s8,12.44,8.32,22.24a92.78,92.78,0,0,0,2,16.9"/><circle class="cls-6" cx="157" cy="155.35" r="5.15"/><circle class="cls-9" cx="178.96" cy="155.35" r="5.15"/><circle class="cls-3" cx="200.93" cy="155.35" r="5.15"/><rect class="cls-10" x="137.21" y="173.23" width="298.62" height="173.6"/><rect class="cls-4" x="552.11" y="500.59" width="114.62" height="64.96"/><polyline class="cls-9" points="552.11 565.54 552.11 500.59 666.73 500.59 552.11 565.54"/><path class="cls-1" d="M636.76,565.54H552.11v97h149V630A64.4,64.4,0,0,1,636.76,565.54Z"/><rect class="cls-4" x="552.11" y="630.16" width="149.05" height="32.37"/><path class="cls-11" d="M531.44,266s-2.16,5.49-2.16,8.31c0,2.43-2.93,5.82-6.28,6.54a.31.31,0,0,0,0,.61l3.19.95a3.87,3.87,0,0,1,2.76,3.9c-.22,4.67-.24,13.11,2.53,13.11,3.82,0,11.47-3.49,12.8,0s0,11.47,0,11.47l17.46-4s-1.83-26.77,0-33.58-10.64-14.3-16.29-15S531.44,266,531.44,266Z"/><path class="cls-5" d="M536,253a5.52,5.52,0,0,1-5.67,1.09c-4.52-1.76-12-3.58-13.81,2.83-2.2,8,8.14,12.95,15,12.87a2.89,2.89,0,0,1,2.91,2.57c.27,2.11,1.48,4.57,5.65,4.76,7.4.33,6.14-7.45,12.22-4.49s0,9.15.42,13.8c.29,3.22,3.47,6.23,8.3,3.41,4.65-2.72,10.53-20.15,4.21-27.53a9.2,9.2,0,0,1-1.27-1.95c-1.33-2.81-5.59-9.91-14.9-10.84C542.19,248.83,538.15,251,536,253Z"/><path class="cls-3" d="M570.35,308.7s-18.63-12.47-32.26,8-40.57,64.85-40.57,64.85-31.92-30.43-44.89-58.7l-15.47,6.82s27.94,91,54.71,89.79,48.38-46.89,48.38-46.89,11,23.78,15.3,35.58,5.32,32.76,5.32,32.76h66.67S629.7,349.44,570.35,308.7Z"/><path class="cls-6" d="M451,323.56s-4.18-23.42-10.34-26.08-13.38-.83-13.38-.83-12.89-5.8-18.37-3.39,9.31.64,18.45,17,11.46,18.65,11.46,18.65Z"/><line class="cls-8" x1="427.27" y1="296.65" x2="430.96" y2="298.89"/><path class="cls-1" d="M484.27,450.14s-19.06,2.55-28.82,33.37S417.1,619.85,417.1,619.85l27.68,8.42s45.92-90.12,53-133.35l102-20.5.66-19.76Z"/><path class="cls-6" d="M627.54,440.89s7.15,59.69-44.06,59.69-76.15-6-76.15-6,31.34,102.84,32.84,125.12l-27.1,9.15S445.81,496.59,465.6,460.67,627.54,440.89,627.54,440.89Z"/><path class="cls-6" d="M519,626.86s6.14,10.06,1.65,18.21-36.58,5-41.57,17.46h62.55a4.1,4.1,0,0,0,3.94-5.24c-2.71-9.43-8.27-29-9.81-36.09Z"/><path class="cls-4" d="M422.36,621.45s-6.15,28.77-21.67,29S377,657.2,376.31,662.53H432s1.11-32.46,5.21-36.57Z"/><path class="cls-8" d="M540.25,372.55s11.86-23.72,18.29-25.5"/><path class="cls-8" d="M545.19,275.26s-4.93,3-2,7.7a5.85,5.85,0,0,0,4.52,2.92c3.29.29,6.13-2.53,5.35-5.74l0-.1a3.75,3.75,0,0,0-5.25-2.77,3.35,3.35,0,0,0-2,4.17,2.63,2.63,0,0,0,3.9,1.39,2,2,0,0,0-.07-3.5"/><path class="cls-12" d="M397.67,189.41c7.79,0-.57,26.6,6.36,35.31s15.23,7.72,15.23,37.46h54.47c0-29.74-9.29-28.75-16.22-37.46s1.42-35.31-6.37-35.31Z"/><path class="cls-1" d="M397.67,189.41s-4.87-.83-4.87,13.27h8.41S402.35,189.34,397.67,189.41Z"/><line class="cls-5" x1="448.69" y1="202.68" x2="410.15" y2="202.68"/><line class="cls-5" x1="449.43" y1="213.1" x2="410.9" y2="213.1"/><line class="cls-5" x1="463.84" y1="241.26" x2="425.3" y2="241.26"/><line class="cls-5" x1="452.05" y1="223.83" x2="416.88" y2="223.83"/><line class="cls-5" x1="455.64" y1="232.43" x2="424.08" y2="232.43"/><line class="cls-5" x1="467.03" y1="250.6" x2="428.49" y2="250.6"/><rect class="cls-13" x="98.84" y="416.38" width="242.75" height="143.82"/><rect class="cls-1" x="122.12" y="440.33" width="125.38" height="95.92"/><rect class="cls-9" x="269.21" y="515.64" width="118.15" height="7.83"/><rect class="cls-9" x="283.85" y="536.25" width="118.15" height="7.83"/><circle class="cls-14" cx="141.65" cy="606.35" r="19.53"/></svg>