<svg id="图层_1" data-name="图层 1" xmlns="http://www.w3.org/2000/svg" viewBox="0 0 800 800"><defs><style>.cls-1{fill:#002f9c;}.cls-11,.cls-2,.cls-9{stroke:#000;}.cls-11,.cls-12,.cls-13,.cls-2,.cls-4,.cls-9{stroke-linecap:round;stroke-linejoin:round;}.cls-11,.cls-3{fill:#fff;}.cls-13,.cls-4,.cls-9{fill:none;}.cls-4{stroke:#3165e8;stroke-width:2px;}.cls-5{fill:#3165e8;}.cls-6{fill:#ffca6e;}.cls-7{fill:#3165f0;}.cls-8{fill:#dbdde2;}.cls-10{fill:#efefef;}.cls-12,.cls-13,.cls-14{stroke:#fff;}.cls-13{stroke-width:0.75px;}.cls-14{stroke-miterlimit:10;}.cls-15{fill:#ccc;}.cls-16{fill:#f9762d;}</style></defs><path class="cls-1" d="M341.64,224.51s11.67-6.51,19-6.84-36.91-5.8-49.21,3.42c0,0,10,3.9,15.63,5.89l-15.63,12s18.89-1.66,30.23-1.33Z"/><path class="cls-2" d="M341.64,224.51s10-6.84,19-6.84v12.09Z"/><path class="cls-1" d="M503.83,224.51s-11.67-6.51-19-6.84,36.92-5.8,49.22,3.42c0,0-10,3.9-15.63,5.89l15.63,12s-18.89-1.66-30.23-1.33Z"/><path class="cls-2" d="M503.83,224.51s-10-6.84-19-6.84v12.09Z"/><path class="cls-3" d="M422.76,134.1S409.28,165,349.43,165c0,0-2.31,122,73.33,122s73.32-122,73.32-122S445.05,169,422.76,134.1Z"/><path class="cls-4" d="M422.26,146s-16.4,25.27-64.28,25.63c0,0,2.1,106.57,64.28,106.57s65.27-106.57,65.27-106.57S448.43,174.41,422.26,146Z"/><path class="cls-5" d="M341.64,248.79s31,13.32,81.12,13.32,81.11-15,81.11-15V224.51s-33.19,12.31-80.56,12.31-81.67-12.31-81.67-12.31Z"/><path class="cls-6" d="M424.22,169.74l7.25,14.69a1.84,1.84,0,0,0,1.37,1l16.21,2.35a1.82,1.82,0,0,1,1,3.11l-11.73,11.43a1.83,1.83,0,0,0-.52,1.62l2.77,16.14a1.83,1.83,0,0,1-2.65,1.92l-14.49-7.62a1.83,1.83,0,0,0-1.7,0L407.25,222a1.82,1.82,0,0,1-2.65-1.92l2.77-16.14a1.84,1.84,0,0,0-.53-1.62l-11.72-11.43a1.82,1.82,0,0,1,1-3.11l16.2-2.35a1.84,1.84,0,0,0,1.38-1L421,169.74A1.83,1.83,0,0,1,424.22,169.74Z"/><polygon class="cls-7" points="379.36 605.64 379.36 624.11 499.13 624.11 499.13 665.9 549.6 665.9 549.6 605.64 379.36 605.64"/><path class="cls-8" d="M566.83,315.69s-41.68-2.7-59.63-13.14-47.93-50.7-47.93-50.7L448,260.24s23.46,48.6,50.73,63.65,59.57,21.87,59.57,21.87Z"/><path class="cls-3" d="M545.18,270.66a54.62,54.62,0,0,0-5.76,6.43c-2.44,3.33-7.21,2.77-7.21,2.77l2.4,2.95a2.86,2.86,0,0,1,.49,2.77c-1.22,3.45-3.85,11.69-1.22,12.13,3.32.55,10.42-1.88,11.3,5.32a92.15,92.15,0,0,1,.78,12.08l16.74-3.54s-3.77-19.4-2.33-23.5,4.32-13.08-3.44-17.41S545.18,270.66,545.18,270.66Z"/><path class="cls-2" d="M553.55,263.68a8.83,8.83,0,0,1-5.93-2.68c-2.18-2.26-5.82-4.68-9.75-1.64-5.58,4.3-.36,14.14,6,16.69a5.29,5.29,0,0,1,3.14,3.42c.45,1.53,1.26,3.21,2.67,3.72,2.77,1,6.71-2.24,8,1s-7.43,6.32-3.1,10.53c4,3.95,13.17.49,13.1-5.16a6.65,6.65,0,0,1,.32-2.35C569.71,282.4,574.45,264.68,553.55,263.68Z"/><path class="cls-9" d="M550,283.33s-5,.12-4.76,4.85a5,5,0,0,0,2.1,4.09,4.11,4.11,0,0,0,6.4-2l0-.09a3.21,3.21,0,0,0-2.7-4.29,2.86,2.86,0,0,0-3.25,2.24,2.25,2.25,0,0,0,2.29,2.69,1.69,1.69,0,0,0,1.44-2.61"/><path class="cls-10" d="M569.32,315.72a15.63,15.63,0,0,0-20.42-3.62,31,31,0,0,0-7.93,7.56c-13.08,17.07-32.14,57.86-37.47,61.41s-61.85,21.95-67.61,29l2,9.75s78.93-7.31,86.24-17.29,18.4-27.93,18.4-27.93S553,417.57,552.6,423.56l55.16-2.48S597.41,350.79,569.32,315.72Z"/><line class="cls-11" x1="542.52" y1="374.64" x2="555.6" y2="355.35"/><path class="cls-11" d="M436.2,411.62s-25.2,4.14-28,14.62S424,424.08,428,422.08a74,74,0,0,1,9.62-3.69Z"/><path class="cls-12" d="M554,427.73S639.63,618.94,662.9,636.9h22.62s-71-183.56-77.76-215.82Z"/><path class="cls-12" d="M607.76,421.08s14.19,37-18.73,47.67-97.77,5.32-97.77,5.32l25.28,98.1h-18S442.71,476.4,459,450.79C459,450.79,475.52,419,607.76,421.08Z"/><path class="cls-3" d="M501.62,572.17s5.32,10.53,5.65,17.84-32.25,8-31.92,15.63H522.9s-5.93-23-9.64-33.47Z"/><path class="cls-3" d="M667.56,636.9s8,11.64,6.65,15.3-25.94,5-25.94,13h42.9l-9.64-28.27Z"/><path class="cls-11" d="M457.19,253.4s-11.7-24.18-20.63-27.45-3.54,11,2.87,16.9,11.05,15.56,11.05,15.56Z"/><rect class="cls-7" x="379.36" y="614.91" width="24.32" height="50.99"/><path class="cls-12" d="M212.49,373.4s2.22,7.1,2.22,10.64,4.21,6.87,4.21,6.87h-2.27a4.34,4.34,0,0,0-4.12,3c-1.2,3.72-3.65,9.56-7.13,9.41-5.1-.22-9.76-8.65-11.09-3.55a16.66,16.66,0,0,0,.89,10l-16.4-8.87s7.75-10.64,8.64-16.63,0-17.07,13.08-17.51S212.49,373.4,212.49,373.4Z"/><path class="cls-3" d="M207.61,361.42a13,13,0,0,0,5.38,2.42c4,.82,10.59,3.26,10.59,10.45,0,7.44-8.81,6.18-13.86,4.86a6,6,0,0,0-5.58,1.48,6.6,6.6,0,0,1-2.73,1.64c-2.66.66-3.11-3.77-7.54-3.1s.89,7.07,0,9.07-8,.88-8,.88-17-18.13,1.27-25.19a8.39,8.39,0,0,0,2.51-1.52C192.29,360.13,199.59,355.21,207.61,361.42Z"/><path class="cls-13" d="M199.91,380.86s4.09,2.77,1.39,6.65a5,5,0,0,1-4,2.32,4.12,4.12,0,0,1-4.34-5.1.29.29,0,0,1,0-.09,3.2,3.2,0,0,1,4.59-2.16,2.85,2.85,0,0,1,1.53,3.63,2.25,2.25,0,0,1-3.38,1,1.7,1.7,0,0,1,.19-3"/><path class="cls-5" d="M254.67,496.83l-3.16-14.13-33.63,4.16C213,462.13,207.88,434,204.79,423c-5.32-18.95-26.6-26.77-26.6-26.77-28.44,23.77-43.07,139-43.07,139l38.24,6.32,53-17.63c-.88-1.15-2.46-7.54-4.4-16.64C239.51,502,254.67,496.83,254.67,496.83Z"/><path class="cls-8" d="M185.67,522.93s103.42-13.63,120.71,0-9.08,108-9.08,108l-26.25-5.58s11.92-60.51,11.39-73.5L180.35,564.5Z"/><path class="cls-3" d="M156.9,535.4s122.38-40.9,143.16-32.59S350.44,626,350.44,626l-23.11,8.31s-30.09-83.8-32.26-88.45c0,0-87.12,42.56-124.7,36.25C136.27,576.39,156.9,535.4,156.9,535.4Z"/><path class="cls-9" d="M177.19,408.54s10.14,2.83,11.8,16.3,3.67,65.33,3.67,65.33l25.22-3.31"/><path class="cls-9" d="M162.06,441.13s-1.33,73,9.31,76.82c8.21,2.95,50.63-10.66,50.63-10.66"/><path class="cls-9" d="M178.19,396.24l4.65,8.31,6.61-2.07,1.87,11.88s9.92,4.46,14.85,14.12"/><path class="cls-14" d="M251.92,484.51a10.23,10.23,0,0,0,6.74-2.15c3.16-2.49,7.48-15.13,10.81-16.29s15.46,4.32,19.12,4.16,1.33,5-9.81,2.16c0,0-1.5,14.3-14.8,17.29L253.58,492Z"/><line class="cls-9" x1="192.66" y1="490.17" x2="185.67" y2="491.01"/><path class="cls-12" d="M346.74,627.35s5.86,21.95,10.52,25.27,27.27,7.32,27.27,13H341s-1.25-26.64-7.1-33.6Z"/><path class="cls-14" d="M291.48,629.71s-3.72,12.94-2.72,16.76,7.2,11.81,14.52,13.14,9,6,9,6H286.43a11.87,11.87,0,0,1-7.64-2.78l-11-9.19s8.31-15,10.64-26.27Z"/><rect class="cls-15" x="171.37" y="582.13" width="5.82" height="76.84"/><path class="cls-8" d="M160,659H225.3a6.93,6.93,0,0,1,6.93,6.93v0a0,0,0,0,1,0,0H153.08a0,0,0,0,1,0,0v0A6.93,6.93,0,0,1,160,659Z"/><path class="cls-8" d="M108.88,481.06a5,5,0,0,1,4.67-5.73c15.32-.95,59-1.72,72.12,19,16,25.27,48.22,75.59,37.91,81.47s-64.85,22-86.13-4.33C119.73,549.61,111.23,497.78,108.88,481.06Z"/><polygon class="cls-6" points="280.2 482.54 280.2 498.64 371.41 498.64 371.41 665.59 387.5 665.59 387.5 498.64 387.5 491.95 387.5 482.54 280.2 482.54"/><polygon class="cls-3" points="374.29 428.08 371.8 426.81 344.69 479.75 284.92 479.75 284.92 482.54 346.11 482.54 346.11 482.39 346.4 482.54 374.29 428.08"/><circle class="cls-16" cx="302.22" cy="344.08" r="19.57"/></svg>