<svg id="图层_1" data-name="图层 1" xmlns="http://www.w3.org/2000/svg" viewBox="0 0 800 800"><defs><style>.cls-1,.cls-11,.cls-14{fill:#fff;}.cls-1{stroke:#ccc;}.cls-1,.cls-11,.cls-12,.cls-15,.cls-18{stroke-linecap:round;stroke-linejoin:round;}.cls-2{fill:#6cc4ff;}.cls-3{fill:#dfe1e6;}.cls-18,.cls-4{fill:#002fa0;}.cls-5{fill:#ffa9a9;}.cls-6{fill:#ffce6e;}.cls-7{fill:#3165ec;}.cls-8{fill:#f4f4f4;}.cls-9{fill:#3165f0;}.cls-10{fill:#5789f7;}.cls-11,.cls-12,.cls-15,.cls-18{stroke:#000;}.cls-12{fill:none;}.cls-13{fill:#dbdde2;}.cls-16{stroke:#fff;stroke-miterlimit:10;}.cls-17{fill:#eaeaea;}</style></defs><rect class="cls-1" x="281.57" y="124.61" width="321.24" height="261.54"/><rect class="cls-2" x="281.57" y="124.01" width="321.24" height="43.29"/><rect class="cls-3" x="445.73" y="314.15" width="187.88" height="8.61"/><rect class="cls-4" x="483.32" y="334.67" width="187.88" height="8.61"/><circle class="cls-5" cx="302.49" cy="145.65" r="5.71"/><circle class="cls-6" cx="328.3" cy="145.65" r="5.71"/><circle class="cls-7" cx="354.1" cy="145.65" r="5.71"/><polygon class="cls-8" points="105.46 675.99 105.46 421.86 404.5 675.99 105.46 675.99"/><path class="cls-6" d="M574.24,539.35A136.65,136.65,0,0,0,437.6,676H710.88A136.64,136.64,0,0,0,574.24,539.35Z"/><polygon class="cls-9" points="590.6 528.1 486.13 528.1 535.67 612.26 507.06 630.96 442.7 531.85 456.78 486.82 590.6 486.82 590.6 528.1"/><path class="cls-10" d="M619.53,478.82s6.4,45.52-28.93,49.28-111-14.39-111-14.39l-20,117.57-27.93-4.92s-12.14-130.39,33.87-153C503.41,454.78,619.53,478.82,619.53,478.82Z"/><path class="cls-8" d="M641.25,440c-5.83-55.45-46.11-68.9-46.11-68.9a153.9,153.9,0,0,1-16.73,1.15c-7.82,0-24.08,10.11-38.77,33.56S496.69,463,496.69,463h39v9.59l40.49,4.12s30.87,3.35,52,1.79C641.7,477.44,643.38,460.2,641.25,440ZM538.59,452.32l16-19.2s-.24,15.66,0,19.2Z"/><path class="cls-11" d="M574.65,328.61s-4.22,4.06-5.31,8.75-5.94,6.26-5.94,6.26l2.37.93a3,3,0,0,1,1.9,2.85c-.11,3.68.54,13.63,3.7,14,4.22.47,8.1-2.85,8.42,2.55.37,6.25-1.38,8.35-1.38,8.35l1.25,8.39,15.48-9.54V356.28s4.69-12,3.43-19.23S580.44,323.29,574.65,328.61Z"/><path class="cls-6" d="M595.14,356.28c2.19-1.16,5.07-4.88,6.45-6.95,3.25-4.88,7.82-15.55-5.05-25.41,0,0-9.28-9.55-19.26-2.47a5.6,5.6,0,0,1-5.7.52c-3.11-1.5-9.14-3.25-11.62,2.47-3.46,8,6.24,10.41,11.7,10.26a2.48,2.48,0,0,1,2.39,1.65c.66,1.78,2,4.25,4.46,4.77,4,.83,11.26-2.82,13.24,1.56,0,0,1.72,2.39-.23,5.72a3.85,3.85,0,0,0,.55,4.52Z"/><path class="cls-12" d="M605.62,408.44a111.05,111.05,0,0,1,5.73,43.88"/><path class="cls-11" d="M535.67,456.81s-51.22.62-49.5,13.91,32.83-5.63,44.08-5.63l5.42-.15Z"/><line class="cls-11" x1="486.13" y1="528.1" x2="478.82" y2="528.1"/><line class="cls-11" x1="479.6" y1="513.71" x2="473.5" y2="512.62"/><path class="cls-11" d="M436.39,627.19S437.58,656,424,661.4,394.75,666,394.75,676h57a2.69,2.69,0,0,0,2.68-2.93c-.7-7.57-2.22-28.19.29-42.64Z"/><path class="cls-11" d="M513.85,626.52s11.28,5.28,11.28,22-.78,16.22-.78,16.22-14.42,3.79-14.42,11.29h23.13a6.52,6.52,0,0,0,4.37-1.68l19.74-17.85a3.14,3.14,0,0,0,0-4.64c-5.74-5.33-20-19.2-29.47-34.38Z"/><path class="cls-11" d="M524.35,664.7s7.18-1.42,9.72-.8"/><path class="cls-12" d="M584.33,340.77s-5.51,2.07-3.45,7.3a5.88,5.88,0,0,0,4,3.78,4.9,4.9,0,0,0,6.43-4.69.41.41,0,0,0,0-.11,3.81,3.81,0,0,0-4.7-3.77,3.4,3.4,0,0,0-2.78,3.78,2.67,2.67,0,0,0,3.62,2.13,2,2,0,0,0,.61-3.5"/><line class="cls-11" x1="554.61" y1="433.12" x2="554.61" y2="406.78"/><rect class="cls-13" x="503.09" y="528.23" width="153.92" height="11.12"/><circle class="cls-6" cx="365.61" cy="637.89" r="38.1"/><path d="M334.24,616.28A38.09,38.09,0,0,0,392,665.37Z"/><line class="cls-11" x1="313.02" y1="328.72" x2="308.76" y2="330.46"/><path d="M235.9,224s-.6,6.61,3.81,11.22,8.42,4.21,8.42,10.62-6.21,5.82-5.41,14.84,2.72,16.23-23.19,14.63-24.71,5.41-38.54,4.81a136.78,136.78,0,0,1-44.1-10c-13.22-5.62,59.33-27.86,59.33-27.86Z"/><path class="cls-13" d="M255.05,366.54s-39,228.88-60.53,279.69H155.83L211,366.54Z"/><path class="cls-14" d="M176.08,366.54s9,130.47,72,279.69h38.19L223.77,366.54Z"/><rect class="cls-15" x="180.49" y="285.57" width="71.15" height="97.31"/><path class="cls-11" d="M220.26,226.53s10.35-2,11.89,7.41c.89,5.44,2.94,7.62,5.06,7.62l-3,1.74a2.77,2.77,0,0,0-1.09,2.71c.15,3.68,1.8,9.37-.83,11.12-3.47,2.31-9.54-1.32-9.34,2.54s-.39,10.59,4.81,13.68,13.3,8.28,13.3,8.28-6,6.74-24.09,6.74c-16.49,0-23.24-5.59-24.31-6.59a.15.15,0,0,1,0-.25c1.51-.85,11.79-6.64,13.88-8.38,3.47-2.89,2.7-6,1.93-14.64s-6-16.95-1.35-26.2S220.26,226.53,220.26,226.53Z"/><path class="cls-16" d="M92.2,253.49c6.06,10.6,10.4,29.28,40.87,27.82,23.73-1.13,19.26-11.59,34.69-16.4s22.85,5,36.88-3.2,6.21-18,6.81-22.85,7.82.2,11.83-2.21,2.2-7,2.2-7c8.22,3.21,22.45-3.81,14-12.83s-19,0-19,0-7.41-5.21-17.64,1.21-6.61,22.24-29.06,22-24.45-14.36-42.49-14.63c-9.54-.14-13.48,1.39-17.8,4.11a32.25,32.25,0,0,1-12.3,4.49C94,235.12,84,239.11,92.2,253.49Z"/><path class="cls-7" d="M223.77,267.93s48.92,0,89.25,60.79l42-17.7,7.42,16.24S328.4,357.12,316,357.12s-50.51-32.47-50.51-32.47l20.94,97.21-31.36,12.42Z"/><path class="cls-7" d="M209.14,267.93s-46.93,5.21-89.56,57.63c-3.64,4.47-7.53,9.68-10.8,14.66a20.82,20.82,0,0,0,3.59,26.91l43.84,39.21,4.46-23.84-23.83-29.89,36.28-36.68L153.06,423.22l43.87,11.06Z"/><line class="cls-11" x1="136.84" y1="352.61" x2="133.83" y2="348.53"/><path class="cls-11" d="M356.3,313.73S372.4,301,390.44,299.9s0,4.81,0,4.81-8.72,3-9.78,4.51c0,0,4.55,5.26-3.28,9.62s-17.11,3.58-17.11,3.58Z"/><path class="cls-12" d="M222,236.72s5.86,3.42,2.52,9a6.83,6.83,0,0,1-5.22,3.54c-3.85.44-7.25-2.79-6.42-6.57l0-.13a4.39,4.39,0,0,1,6.08-3.38c1.44.67,3.28,2.33,2.43,4.83a3.08,3.08,0,0,1-4.53,1.73,2.33,2.33,0,0,1,0-4.1"/><path class="cls-11" d="M277.5,646.23s6,17.74,17.23,19.34S319.59,670,319.59,676H260.26s2.41-18.64,0-29.76Z"/><path class="cls-17" d="M184.12,646.23s-2.6,17.74,8.63,19.34S217.6,670,217.6,676H158.28s3.79-14.88,6.6-29.76Z"/><line class="cls-18" x1="483.32" y1="362.16" x2="488.84" y2="356.64"/><line class="cls-18" x1="483.32" y1="362.16" x2="488.84" y2="367.69"/><line class="cls-18" x1="505.75" y1="362.16" x2="500.23" y2="356.64"/><line class="cls-18" x1="505.75" y1="362.16" x2="500.23" y2="367.69"/><line class="cls-18" x1="493.09" y1="365.8" x2="495.97" y2="358.53"/></svg>