<svg id="图层_1" data-name="图层 1" xmlns="http://www.w3.org/2000/svg" viewBox="0 0 800 800"><defs><style>.cls-1,.cls-10,.cls-4{fill:#fff;}.cls-14,.cls-2{stroke:#fff;}.cls-10,.cls-2{stroke-miterlimit:10;}.cls-3{fill:#dbdde2;}.cls-10,.cls-13,.cls-4{stroke:#000;}.cls-13,.cls-14,.cls-4{stroke-linecap:round;stroke-linejoin:round;}.cls-5{fill:#3165f0;}.cls-6{fill:#5789f7;}.cls-7{fill:#ffca6e;}.cls-8{fill:#efefef;}.cls-9{fill:#f4f4f4;}.cls-11{fill:#3165e8;}.cls-12{fill:#7400a5;}.cls-13{fill:none;}</style></defs><rect class="cls-1" x="131.16" y="135.22" width="342.43" height="324.58"/><rect class="cls-2" x="520.4" y="276.34" width="174.98" height="329.94" rx="15.92"/><rect class="cls-1" x="520.4" y="309.81" width="174.98" height="253.47"/><rect class="cls-2" x="131.16" y="459.4" width="342.43" height="75.79"/><rect class="cls-3" x="131.16" y="135.22" width="342.43" height="43.23"/><path class="cls-1" d="M641.74,530.92s9,4.42,14.29,8.29c2.75,2-.16,14.83-9.25,13.55,0,0-14.66-2.39-15.46,10.52h28.5a3.7,3.7,0,0,0,3.39-2.22L674,536.27a1.93,1.93,0,0,0-.9-2.5c-5.37-2.72-22.39-11.42-26.56-14.56Z"/><path class="cls-4" d="M646.78,552.76s5.58.32,8.93,2.55"/><path class="cls-5" d="M520.4,388.32V455.9C578,515,639.84,537.36,639.84,537.36L650.15,512C611.88,498.54,555.88,433.53,520.4,388.32Z"/><path class="cls-6" d="M473.58,335.14c-3.43-1.77-5.75-2.72-5.75-2.72L401,459.4h39.28s17.1-19.86,33.33-41.53Z"/><path class="cls-1" d="M368,429.69l-.75,11.06s-.15,6.55-5.06,7.44-21.27.44-23.21,7.44,30.36,4.16,34.08-.9,5.5-25,5.5-25Z"/><path class="cls-1" d="M304.19,322.19S296.91,311,292,291.75c-1.68-6.59-8.92-5.65-7.29,8.63s11.86,19,13.74,28.79Z"/><path class="cls-3" d="M377.22,294.24s-22,44-33,47.11-39-20.43-39-20.43L296.91,331s29.17,34.23,49.11,33,38.85-37.8,38.85-37.8Z"/><path class="cls-1" d="M377.22,294.24c-7.51-10.13-11.56-6.5-11.56-6.5s-5.94,5.59-8.38,3.84c-1.79-1.28-3.43-6.7-4.18-9.49a2.83,2.83,0,0,0-2.09-2c-2-.46-4.75-1.26-3.21-1.73a4.63,4.63,0,0,0,1.31-.67,5.6,5.6,0,0,0,2.19-4.37A26.68,26.68,0,0,1,353.62,263s11.52-5.23,16.23,1.75,17.64,18.68,17.64,18.68Z"/><path class="cls-7" d="M357.62,250.93a7.14,7.14,0,0,1-4,1.39c-4.52.12-14.31,1.29-11.79,9.33,2.74,8.7,13.2,5.65,16.47,4.46a1.09,1.09,0,0,1,1.37.58c.52,1.12,1.56,2.83,3.11,3,2.33.23,1.87-3.23,6.47-2.1s-.19,7.45,1.68,9.31,10.53,0,10.53,0,9.48-17.92-3.32-24C378.17,252.92,368.88,242.94,357.62,250.93Z"/><path class="cls-8" d="M406.41,289.25c-1.74-1.23-3.48-2.48-5.15-3.8-3.35-2.63-13.67-9-22.51,3.92C368,305.05,364.86,431.08,364.86,431.08h16.07s8.93-83.78,10.91-89.73c0,0,49.72,22.79,58.25,24.77l17.74-33.7Z"/><line class="cls-4" x1="391.84" y1="341.35" x2="396.71" y2="315.42"/><rect class="cls-9" x="152.58" y="273.6" width="131.89" height="95.26"/><polyline class="cls-3" points="152.58 273.6 218.53 329.59 284.47 273.6"/><line class="cls-10" x1="152.58" y1="368.86" x2="203.9" y2="317.17"/><line class="cls-10" x1="284.47" y1="368.86" x2="233.16" y2="317.17"/><circle cx="150.5" cy="156.83" r="5.46"/><circle class="cls-7" cx="174.18" cy="156.83" r="5.46"/><circle class="cls-11" cx="198.44" cy="156.83" r="5.46"/><circle class="cls-10" cx="607.9" cy="584.58" r="11.71"/><circle class="cls-12" cx="415.56" cy="635.14" r="29.64"/><polygon class="cls-7" points="187.49 511.33 187.49 584.37 260.52 584.37 187.49 511.33"/><path class="cls-13" d="M363,269.84s-4.31,2.64-1.72,6.72a5.11,5.11,0,0,0,3.95,2.55,4.21,4.21,0,0,0,4.66-5s0-.06,0-.09a3.28,3.28,0,0,0-4.59-2.42,2.92,2.92,0,0,0-1.72,3.64,2.29,2.29,0,0,0,3.4,1.21,1.73,1.73,0,0,0-.06-3.05"/><rect class="cls-14" x="149.71" y="208.73" width="128.21" height="8.33"/><rect class="cls-14" x="104.61" y="232.93" width="128.21" height="8.33"/></svg>