<svg id="图层_1" data-name="图层 1" xmlns="http://www.w3.org/2000/svg" xmlns:xlink="http://www.w3.org/1999/xlink" viewBox="0 0 800 800"><defs><style>.cls-1,.cls-14{fill:none;}.cls-2{clip-path:url(#clip-path);}.cls-10,.cls-13,.cls-3,.cls-4,.cls-5{stroke:#000;}.cls-13,.cls-14,.cls-3,.cls-4,.cls-5,.cls-6{stroke-linecap:round;stroke-linejoin:round;}.cls-4{fill:#002fa4;}.cls-5,.cls-9{fill:#3165f0;}.cls-13,.cls-6,.cls-7{fill:#fff;}.cls-6{stroke:#ccc;}.cls-8{fill:#ccc;}.cls-10,.cls-15{stroke-miterlimit:10;}.cls-11{fill:#ffd36e;}.cls-12{fill:#5789f7;}.cls-14,.cls-15{stroke:#fff;}.cls-16{fill:#dbdde2;}</style><clipPath id="clip-path"><rect class="cls-1" x="358.4" y="-487.38" width="258.76" height="361.23" transform="matrix(0, -1, 1, 0, 792.14, 182.52)"/></clipPath></defs><g class="cls-2"><path class="cls-3" d="M411.59,32.67s-1.39,17.14-14.23,25.88S367.7,66.36,364.59,77l66.46.33a182.41,182.41,0,0,0,1.52-21c-.07-8.47-1.26-23.57-1.26-23.57Z"/><path class="cls-3" d="M438.66,3.67s6.62,4.24,8.08,20.72-.2,37.47-.2,37.47S433.37,66.49,431,77.28l20.19.14L490,42.13s-8-15-14.83-25.55c-4.7-7.21-20-24.75-20-24.75Z"/><path class="cls-4" d="M395.44,48.42l55.33-15.49L395-118.12l183.42-25.55L562.64-172c-47.19-3.44-95.32-4.56-142.51-.59-20.72,1.72-49.45,3-66.46,16.61-18.34,14.77-4.64,59.65-.27,78.18,7,29.52,16.55,58.52,26.94,87C385.11,22.34,390.07,35.45,395.44,48.42Z"/><path class="cls-5" d="M438.73,47.69c15.49-5.69,34.75-13.7,48.91-23C471-12.48,455.08-50,438.93-87.41c-3.84-8.87-11.59-19.13-12.05-28.93l83.34,9.74c16.15,1.85,32.63,6.09,47.52-3.12,12.51-7.74,20.79-21.05,24.76-35.34,9.27-33.17-33.43-75.07-33.43-75.07-37.2-.2-56.33,19.2-56.33,19.2-1.52,7.35,4.37,31.84,4.37,31.9-.79-3.24-36.14-4.17-39.19-4.36-18.86-1.13-66.59-8.48-80,8.67-20.52,26.28.86,74.66,5.49,90.22S438.73,47.69,438.73,47.69Z"/></g><path class="cls-6" d="M237.68,591.81h294.6V183.3H223.6V577.73a14.09,14.09,0,0,0,14.08,14.08"/><rect class="cls-7" x="242.01" y="202.7" width="271.85" height="369.79"/><path class="cls-8" d="M513.36,203.2V572H242.51V203.2H513.36m1-1H241.51V573H514.36V202.2Z"/><path class="cls-9" d="M354.51,175.57c0-.42-.07-.77-.07-1.19a23.43,23.43,0,0,1,46.85,0c0,.42-.07.77-.07,1.19h34.51v35.76H320.08V175.57Z"/><path class="cls-7" d="M391.11,174.45a13.18,13.18,0,1,1-13.17-13.17,13.21,13.21,0,0,1,13.17,13.17Z"/><path class="cls-10" d="M391.74,573a35.35,35.35,0,0,1-62,0Z"/><path class="cls-9" d="M396.06,556.05A34.76,34.76,0,0,1,391.74,573h-62a35.3,35.3,0,1,1,66.29-16.94Z"/><polygon class="cls-11" points="596.96 152.24 596.96 254.93 494.27 254.93 596.96 152.24"/><polygon class="cls-3" points="205.96 321.89 165.74 321.33 165.74 328.16 205.19 328.16 205.96 321.89"/><path class="cls-12" d="M165.46,326.07s-16.73,15.69-6.28,67S201.43,558,201.43,558h31.79L200.1,328Z"/><path class="cls-3" d="M222.34,558.07s1,13.24,10.88,20.08,22.86,6.13,25.23,14.29h-51.3a133.09,133.09,0,0,1-1.05-16.18c.07-6.55,1.05-18.19,1.05-18.19Z"/><path class="cls-9" d="M205.19,328.79S246,407.91,230.78,440.4s-83.17,109.51-83.17,109.51l-25.37-18.47,66-103.1c-23.7-90.28-18.12-102.2-18.12-102.2Z"/><path class="cls-3" d="M140.43,544.68s-4.32,2.72-5.3,13.39,0,24.33,0,24.33,8.51,3.06,10,10h-13.1l-25-23s5.23-9.76,9.69-16.52c3.07-4.67,13-16,13-16Z"/><ellipse class="cls-3" cx="197.8" cy="245.77" rx="6" ry="1.95"/><path class="cls-3" d="M203,252.88s.28-2.51.49-5.09,2.23.35,6.14-.14,3.48-7.25,4.18-9.83a6,6,0,0,1,2.65-3.63s-3.49.07-4.19-4.95a16.7,16.7,0,0,0-.27-2,10,10,0,0,0-9-7.32c-14.43-1.25-11.22,11.64-10.73,19.59.49,8.65-9.55,23.21-9.55,23.21l18.75,2.86C201.5,265.56,204.5,261.52,203,252.88Z"/><path class="cls-13" d="M212.72,219.48c-1.32,3.84-6.13,5.44-9.55,3.77-.07.63.56,2.09-.14,4.18-.21.63-.28,1.67-1.32,1.67a3.11,3.11,0,0,0-4.11-.9,3.49,3.49,0,0,0-1.19,4.32,4.73,4.73,0,0,0,2.93,2.23,2.29,2.29,0,0,1,1.81,2.44,7.51,7.51,0,0,1-2.09,4.18,10.71,10.71,0,0,1-6.9,3.28c-2.58.28-5.44-.21-7-2.3a7,7,0,0,1-.56-1,17.91,17.91,0,0,1-4.74-11.29,18.82,18.82,0,0,1,1.18-7,16.15,16.15,0,0,1,1.68-3.28c.48-.76,1.11-1.39,1.6-2.16a9.75,9.75,0,0,1,2.09-2.58c1.47-1,3.28-1,4.95-1.6,2.09-.7,3.84-2,5.79-3.07s4.32-1.6,6.27-.62c1.4.69,2.3,2.09,3.7,2.85,1.95,1.12,4.6.84,5.5,3.7A4.23,4.23,0,0,1,212.72,219.48Z"/><path class="cls-13" d="M185.19,216.7a4,4,0,0,0,.69-1.33,13.47,13.47,0,0,0,.56-1.53,15.17,15.17,0,0,0,.77-3.07,7,7,0,0,0-1.88-5.79,5.5,5.5,0,0,0-4-1.39,6.63,6.63,0,0,0-6,4.74,7,7,0,0,0,6.83,8.85,7.9,7.9,0,0,0,2.58-.21C184.91,216.91,185.05,216.77,185.19,216.7Z"/><path class="cls-14" d="M201.78,228.62s4.32,1.6,2.72,5.71a4.77,4.77,0,0,1-3.07,3,3.84,3.84,0,0,1-5-3.69v-.07a2.94,2.94,0,0,1,3.69-2.93,2.64,2.64,0,0,1,2.17,2.93,2.11,2.11,0,0,1-2.86,1.67,1.58,1.58,0,0,1-.49-2.72"/><path class="cls-13" d="M259.5,325l-13.8,5.5a7.08,7.08,0,0,1-10.46-2.23l-18.47-22.72-11.23,18.26L166.71,321l.91-3.69L183.79,252l16.94-2.23,4.6.49a19,19,0,0,1,13,8.85Z"/><polygon class="cls-3" points="222.34 288.85 218.37 277.83 235.66 273.72 248.07 282.08 222.34 288.85"/><path class="cls-13" d="M230.92,286.27c-11,5.57-22,11.15-33,16.73-8.43,4.25-16.94,8.57-26.07,10.94-5.23,1.33-10.8,2-15.89.28-13-4.25-4.39-21.47-.21-29.83,3.07-6.21,18.82-27.89,25.79-32.07,4.74-2.86,11.23-2.3,16.66-2-.35,0-2.23,3.9-2.44,4.18-1.11,2-2.23,3.83-3.27,5.79-2.16,3.83-4.4,7.73-6.56,11.57s-4.18,7.39-6.27,11c-1.05,1.81-2.09,3.7-3.14,5.51-.55,1-2.16,5.16-3.13,5.51,16.31-5.79,32.69-11.65,49-17.43a2,2,0,0,1,1.26-.14,2.77,2.77,0,0,1,.69.63C226.53,280.13,228.69,283.2,230.92,286.27Z"/><polygon class="cls-11" points="237.75 246.53 213.56 334.72 270.23 328.51 291.91 240.61 237.75 246.53"/><path class="cls-3" d="M282.92,277.2,268.7,279a5.07,5.07,0,0,0-3.62,7.74l1.6,2.5a5.72,5.72,0,0,0,5.58,2.65l9.62-1a2.38,2.38,0,0,0,1.88-1.33l4.53-9.2a2.43,2.43,0,0,0-2.44-3.48Z"/><path class="cls-7" d="M187,257.69s12.27-14.29,11.43,0-6,16.87-6,16.87l-9.69-2.93Z"/><path class="cls-3" d="M189.51,250.44s12.13,15.05,16.8,12.82-2.51-13-2.51-13Z"/><path class="cls-9" d="M652,442.21c-33.25,0-63.65-11.43-84.84-31.51a7.28,7.28,0,0,0-10.32,0c-20.63,20.08-51.58,31.51-84.83,31.51a7.56,7.56,0,0,0-7.46,7.46v91.11c0,29.21,15.47,56.19,40.71,72.78L558,647.93a10.76,10.76,0,0,0,4,1.11,11.56,11.56,0,0,0,4.05-1.11l52.7-34.37c25.79-16.59,40.71-44.13,40.71-72.78V449.67a7.56,7.56,0,0,0-7.46-7.46Z"/><polygon class="cls-7" points="513.17 537.71 547.05 564.34 610.98 502.72 601.92 493.31 546.22 546.99 521.26 527.4 513.17 537.71"/><rect class="cls-15" x="562.04" y="327.61" width="116.49" height="7.74"/><rect class="cls-15" x="576.47" y="307.32" width="116.49" height="7.74"/><rect class="cls-16" x="304.25" y="337.43" width="136.63" height="136.63"/></svg>