<svg id="图层_1" data-name="图层 1" xmlns="http://www.w3.org/2000/svg" viewBox="0 0 800 800"><defs><style>.cls-1{fill:#ffcb6e;}.cls-2{fill:#cacbcc;}.cls-11,.cls-3{fill:#dbdde2;}.cls-4{fill:#3165e8;}.cls-12,.cls-5{fill:none;}.cls-10,.cls-11,.cls-5,.cls-6{stroke:#000;}.cls-10,.cls-11,.cls-12,.cls-5{stroke-linecap:round;stroke-linejoin:round;}.cls-6{fill:#fff;stroke-miterlimit:10;}.cls-7{fill:#f79c2f;}.cls-8{fill:#f2f2f2;}.cls-9{fill:#002f9c;}.cls-12{stroke:#fff;}</style></defs><path class="cls-1" d="M616.17,638c37.25,0,67.45-45.91,67.45-102.54H548.73C548.73,592.05,578.92,638,616.17,638Z"/><path class="cls-2" d="M585.33,477.42s-66.6-24.13-83-18.18-91.7,92.34-91.7,92.34l30.78,22.92,70.26-77.05s50.95,32.26,95.74,35.87l24.15-47.57Z"/><path class="cls-3" d="M648,480.23s5.08,40.49-25.07,51.74-94.25-8.7-94.25-8.7-13.8,72-25.69,88.73H459.87l35.88-90.64s10.82-33.75,40.54-35.24S648,480.23,648,480.23Z"/><path class="cls-4" d="M612.58,482.25l-27.25-4.83c.42-4.67,1.06-26.32,1.06-26.32L556,443.45c10.62-38.84,43.1-53.33,43.1-53.33l35.23.58c42.25,29.62,31,75.47,31,75.47L648,463h0A32.26,32.26,0,0,1,612.58,482.25Z"/><path class="cls-5" d="M637.34,420.1a103.13,103.13,0,0,1-5.73,39.49L648,463"/><path class="cls-5" d="M584.9,413.52s-5.3,8.71-4,15.07,5.81,13.59,5.52,22.51"/><path class="cls-6" d="M653.68,464s-4.55,26.34-18.19,23.79-52-16.13-52-16.13l-5-11s40.33,9.55,49,9.55,9.15-9.55,9.15-9.55Z"/><path class="cls-6" d="M605.54,480.94,586.4,428.59l-91.92-8.09,16.07,37.81s13.85-1.06,74.78,19.11Z"/><path class="cls-6" d="M627.62,386a4.23,4.23,0,0,1-1.75-3.39c0-6.47-.15-23.84-1.14-31.95-1.19-9.73-16.44-9.52-16.44-9.52a72.66,72.66,0,0,0-7.19,12.16,6.37,6.37,0,0,1-4.54,3.67A5.32,5.32,0,0,1,595,357c-2.18-.27,1.77,2.75,3.48,4a1.36,1.36,0,0,1,.52,1.4c-.53,2.28-1.77,8.46-.34,10.89,1.78,3,7.64.81,7.64.81s5.78-2.85,4.86,8.42a4.22,4.22,0,0,1-2.53,3.51l-9.51,4.08s-5.73,16.82,8.06,17.25,27.17-16.67,27.17-16.67S631.37,388.71,627.62,386Z"/><path class="cls-1" d="M609.6,334.2a2,2,0,0,1-2.45-.1c-2.1-1.76-6.42-4.46-10.31-.92-5.06,4.61-1.83,15.29,9.11,15.06a2.12,2.12,0,0,1,2.13,1.7,6.33,6.33,0,0,0,4.26,4.84c4.88,1.75,7.94-4,11.52-1.12,2.44,2,.66,5.55-1.21,7.76a1.77,1.77,0,0,0,.19,2.45l2.81,2.53s8.71-5.89,9.72-14.28a14.77,14.77,0,0,0-4.4-12.48,3.1,3.1,0,0,1-.79-1.25c-.63-1.9-3-6.88-10.09-6.94C614.36,331.4,611.15,333,609.6,334.2Z"/><path class="cls-7" d="M630.26,338.28a4.8,4.8,0,0,1-.56-2.38c.06-2.87,1.09-9.18,9-10,10.25-1.07,9.29,10.4,9.29,10.4s-1,9.58-13.36,8.88a24.24,24.24,0,0,0-3.08-5,9.53,9.53,0,0,1-1.12-1.69Z"/><path class="cls-6" d="M464.33,612s-2.55,11.47-13.37,13.8-25.69,6.37-25.9,13.16H471.5a1.54,1.54,0,0,0,1.55-1.52,97,97,0,0,1,.83-12A79.69,79.69,0,0,1,477.49,612Z"/><path class="cls-6" d="M428.31,564.71s-3.68,9.72-16.2,13.12-24.62,2.76-28.45,10l37.84,7.69a2.45,2.45,0,0,0,2.68-1.29c2-4,7.7-14.5,14.82-21.52Z"/><path class="cls-5" d="M614.23,355.21s-5.66,2.51-3.19,7.88a6.25,6.25,0,0,0,4.38,3.74c3.45.78,6.86-1.81,6.48-5.32,0,0,0-.08,0-.12a4,4,0,0,0-5.18-3.68,3.58,3.58,0,0,0-2.68,4.14,2.81,2.81,0,0,0,3.93,2,2.12,2.12,0,0,0,.42-3.71"/><polygon class="cls-3" points="138.77 386.98 138.77 451.98 240.54 451.98 138.77 386.98"/><path class="cls-1" d="M237.14,472.09c1.14,0,2.28,0,3.4.09V452H138.77v84.94h33.54A64.83,64.83,0,0,1,237.14,472.09Z"/><rect class="cls-3" x="138.77" y="359.46" width="101.77" height="27.52"/><path class="cls-5" d="M238.38,183.92s5.91,2.62,3.32,8.23a6.47,6.47,0,0,1-4.57,3.91c-3.6.82-7.16-1.89-6.77-5.56,0,0,0-.08,0-.12a4.19,4.19,0,0,1,5.4-3.84c1.44.48,3.35,1.86,2.81,4.32a2.94,2.94,0,0,1-4.11,2.12,2.22,2.22,0,0,1-.44-3.88"/><path class="cls-8" d="M278.57,295.61s7.82,17.62,56.87,30.43l-6.82,19.78s-43.06-8.64-64.68-26.93S278.57,295.61,278.57,295.61Z"/><polygon class="cls-2" points="265.02 317.34 166.18 319.72 199.43 263.52 291.38 274.99 265.02 317.34"/><polygon class="cls-9" points="227.09 341.39 237.06 493.03 270.1 493.03 275.64 341.39 227.09 341.39"/><path class="cls-4" d="M138.84,322.4s-3.31,36.73,37,41.82,92.89-6.87,92.89-6.87L308,466.65l39.24-13.75S310,330.64,287.17,319.72s-123.49-2.09-123.49-2.09Z"/><path class="cls-8" d="M202.59,205.66s-40.74,2.49-59.36,24.27c-14.36,16.8-28.93,36.75-26.6,62.19s12.13,32.75,41.9,30.92,57.86-13.13,57.86-13.13l-10.31-21.78s-13.3,3-23.61,3.49l17-28.1,72.49,8.81s-12.47-36.08-30.09-52.71Z"/><path class="cls-10" d="M237.72,214.54c2.71,3.16,4.11,5.08,4.11,5.08l-17.13,9.15c-2.66-4.32-22.11-23.11-22.11-23.11,2.46-.23,7.56-.6,10.63-.82a5.3,5.3,0,0,0,3.95-2.24l4.87-6.92s-3.49-15.3,4.82-21.06,19.11,0,19.11,0a12.05,12.05,0,0,1,8.28,11.13,23.19,23.19,0,0,1-.23,2.39c-.65,6.06,3.45,7,3.45,7a7.26,7.26,0,0,0-4.14,3.47c-1.18,2.13-2.29,7.14-4.78,9.26a3.82,3.82,0,0,1-4,.53c-1.31-.55-3.64-1.56-5.35-2.47-2.49-1.33-4.82,1.83-4.74,3.57S237.72,214.54,237.72,214.54Z"/><path class="cls-6" d="M250.18,165.52a3.09,3.09,0,0,0,3,1c3.69-.8,11.23-1.49,12.61,5.87,1.58,8.49-9.68,9.51-15,8.65a3.53,3.53,0,0,0-3.07,1.06,8.65,8.65,0,0,1-6.22,2.43c-5.82.16-5.82-5.58-11.63-2.83-5,2.37-.84,7.31-2.34,11.3a5.53,5.53,0,0,1-2.67,3.09,4.11,4.11,0,0,1-4.73-.72c-3-2.9-8.31-10-2-20a7.43,7.43,0,0,0,1.06-2.72c.59-3.32,3.24-11.44,15.13-11.57C244.48,160.93,248.59,163.71,250.18,165.52Z"/><path class="cls-5" d="M165.18,236.75S142.07,267,146.56,288.29"/><path class="cls-5" d="M137.74,284.47s14.8,9.64,44.73,7.15"/><path class="cls-11" d="M250.36,249.39s2,13.92,1.32,20.48"/><path class="cls-10" d="M334.45,328.92s25.43,8.48,33.19,9.14l-2.88,19.29s-31.85-14.45-34.11-17.42Z"/><path class="cls-6" d="M346.44,324c2.38.94,29.65,5.32,29.65,5.32l-8.52,33L344.3,358Z"/><path class="cls-10" d="M375.08,339.61a3.21,3.21,0,0,0-4.25-1.42c-2,.92-4.5,3.24-5.18,9s1.15,8.39,2.76,9.4a3.06,3.06,0,0,0,3.59-.26c1.46-1.21,3.51-3.78,4.06-8.79C376.51,343.61,375.85,341.12,375.08,339.61Z"/><path class="cls-10" d="M207.73,291.62s7.89-4.1,22.6-5,18.93,8,18.93,8,1.33,3.33-5.1,3.55-21.13-3.72-32.85,1Z"/><path class="cls-10" d="M247.48,493a93,93,0,0,1-1.77,22.39,80.6,80.6,0,0,0-1.55,21.5h31.48s.44-7.53-10.87-7.31A45.67,45.67,0,0,0,261,513.2c-3.77-8.64-1.19-20.17-1.19-20.17Z"/><path class="cls-6" d="M344.3,453.93s3.17,9.39,12.7,10.72,29.48,3.11,31,8.2l-48,13.18a1.39,1.39,0,0,1-1.69-.9,64.37,64.37,0,0,1-2.95-13.83,41.16,41.16,0,0,0-3.28-13.11Z"/><path class="cls-12" d="M265.57,528.58s-5.66.15-7.64,2.54"/><circle class="cls-9" cx="508.89" cy="226.49" r="63.99"/></svg>