<svg id="图层_1" data-name="图层 1" xmlns="http://www.w3.org/2000/svg" viewBox="0 0 800 800"><defs><style>.cls-1,.cls-11,.cls-9{fill:none;}.cls-1{stroke:#ccc;}.cls-1,.cls-10,.cls-11,.cls-9{stroke-linecap:round;stroke-linejoin:round;}.cls-2{fill:#dbdde2;}.cls-3{fill:#ffcb6e;}.cls-4{fill:#6cc4ff;}.cls-10,.cls-5,.cls-8,.cls-9{stroke:#000;}.cls-5,.cls-8{stroke-miterlimit:10;}.cls-6{fill:#f79c2f;}.cls-7{fill:#f2f2f2;}.cls-10,.cls-13,.cls-8{fill:#fff;}.cls-11{stroke:#fff;}.cls-12{fill:#3165e8;}.cls-14{fill:#ededed;}</style></defs><rect class="cls-1" x="290.5" y="169.36" width="190.33" height="85.4" rx="2.53" transform="translate(-50.5 153.2) rotate(-21.12)"/><rect class="cls-2" x="296.02" y="209.38" width="12.8" height="12.8" transform="translate(-57.43 123.46) rotate(-21.12)"/><rect class="cls-2" x="312.39" y="203.05" width="12.8" height="12.8" transform="translate(-54.06 128.93) rotate(-21.12)"/><rect class="cls-2" x="328.77" y="196.73" width="12.8" height="12.8" transform="translate(-50.68 134.41) rotate(-21.12)"/><rect class="cls-2" x="345.14" y="190.4" width="12.8" height="12.8" transform="translate(-47.3 139.88) rotate(-21.12)"/><rect class="cls-2" x="377.9" y="177.75" width="12.8" height="12.8" transform="translate(-40.54 150.83) rotate(-21.12)"/><rect class="cls-2" x="410.65" y="165.1" width="12.8" height="12.8" transform="translate(-33.78 161.78) rotate(-21.12)"/><rect class="cls-2" x="427.02" y="158.77" width="12.8" height="12.8" transform="translate(-30.4 167.26) rotate(-21.12)"/><rect class="cls-2" x="443.4" y="152.45" width="12.8" height="12.8" transform="translate(-27.02 172.74) rotate(-21.12)"/><rect class="cls-2" x="394.27" y="171.43" width="12.8" height="12.8" transform="translate(-37.16 156.31) rotate(-21.12)"/><rect class="cls-2" x="361.52" y="184.08" width="12.8" height="12.8" transform="translate(-43.92 145.36) rotate(-21.12)"/><rect class="cls-2" x="335.14" y="213.23" width="12.8" height="12.8" transform="translate(-56.19 137.81) rotate(-21.12)"/><rect class="cls-2" x="351.52" y="206.9" width="12.8" height="12.8" transform="translate(-52.81 143.29) rotate(-21.12)"/><rect class="cls-2" x="384.27" y="194.25" width="12.8" height="12.8" transform="translate(-46.06 154.24) rotate(-21.12)"/><rect class="cls-2" x="417.02" y="181.6" width="12.8" height="12.8" transform="translate(-39.3 165.19) rotate(-21.12)"/><rect class="cls-2" x="433.4" y="175.27" width="12.8" height="12.8" transform="translate(-35.92 170.66) rotate(-21.12)"/><rect class="cls-2" x="449.77" y="168.95" width="12.8" height="12.8" transform="translate(-32.54 176.14) rotate(-21.12)"/><rect class="cls-2" x="400.65" y="187.92" width="12.8" height="12.8" transform="translate(-42.68 159.71) rotate(-21.12)"/><rect class="cls-2" x="367.89" y="200.58" width="12.8" height="12.8" transform="translate(-49.44 148.76) rotate(-21.12)"/><polygon class="cls-2" points="328.83 217.67 312.18 224.11 300.51 228.61 300.23 228.72 311.22 257.17 323.16 252.55 316.79 236.05 333.45 229.62 328.83 217.67"/><rect class="cls-2" x="324.86" y="236.16" width="12.8" height="12.8" transform="translate(-65.15 135.65) rotate(-21.12)"/><rect class="cls-2" x="341.23" y="229.83" width="12.8" height="12.8" transform="translate(-61.77 141.12) rotate(-21.12)"/><rect class="cls-2" x="357.61" y="223.51" width="12.8" height="12.8" transform="translate(-58.39 146.6) rotate(-21.12)"/><rect class="cls-2" x="390.36" y="210.86" width="12.8" height="12.8" transform="translate(-51.63 157.55) rotate(-21.12)"/><rect class="cls-2" x="423.11" y="198.21" width="12.8" height="12.8" transform="translate(-44.87 168.5) rotate(-21.12)"/><rect class="cls-2" x="439.49" y="191.88" width="12.8" height="12.8" transform="translate(-41.49 173.97) rotate(-21.12)"/><rect class="cls-2" x="455.87" y="185.56" width="12.8" height="12.8" transform="translate(-38.12 179.45) rotate(-21.12)"/><rect class="cls-2" x="406.74" y="204.53" width="12.8" height="12.8" transform="translate(-48.25 163.02) rotate(-21.12)"/><rect class="cls-2" x="373.99" y="217.18" width="12.8" height="12.8" transform="translate(-55.01 152.07) rotate(-21.12)"/><rect class="cls-2" x="314.86" y="258.98" width="12.8" height="12.8" transform="translate(-74.04 133.58) rotate(-21.12)"/><rect class="cls-2" x="331.23" y="252.66" width="12.8" height="12.8" transform="translate(-70.66 139.05) rotate(-21.12)"/><rect class="cls-2" x="347.61" y="246.33" width="12.8" height="12.8" transform="translate(-67.28 144.53) rotate(-21.12)"/><rect class="cls-2" x="363.98" y="240.01" width="12.8" height="12.8" transform="translate(-63.91 150) rotate(-21.12)"/><rect class="cls-2" x="445.86" y="208.38" width="12.8" height="12.8" transform="translate(-47.01 177.38) rotate(-21.12)"/><rect class="cls-2" x="462.24" y="202.06" width="12.8" height="12.8" transform="translate(-43.63 182.85) rotate(-21.12)"/><rect class="cls-2" x="378.59" y="224.19" width="65.47" height="12.8" transform="translate(-55.46 163.69) rotate(-21.12)"/><circle class="cls-3" cx="356.61" cy="601.65" r="59.66"/><circle class="cls-4" cx="603.71" cy="527.35" r="14.88"/><rect class="cls-5" x="286.81" y="285.33" width="184.66" height="5.01" transform="translate(-78.24 155.94) rotate(-21.12)"/><rect class="cls-5" x="406.4" y="269.33" width="107.34" height="5.01" transform="translate(-67.04 184.02) rotate(-21.12)"/><path class="cls-6" d="M573.41,250.51s1.33,7.32-3.66,10.86-13.19,9.76-7.76,16.74,13.3,1.66,18.62,6.1,14.19,2.66,19.95-3.44,14.64,5.1,23,5,19.06-2.22,24.94-12.19-40.24-20.73-40.24-20.73Z"/><path class="cls-7" d="M591.83,282.57s-37.45,34.87-54.67,54l10.64,12.38,17-16.29s-8.55,11.14-9.21,16.29l39.07,8.48s3.82-11,15-21.11,16-15.63,18.13-21.12c0,0,19.78,30.59,20.28,38.24l20.45-11.64s-36.24-61.53-63.93-63.35Z"/><path class="cls-8" d="M577.51,252.06a48.73,48.73,0,0,0-.89,8.2c.08,3-4.88,5.1-4.88,5.1l3.81,1.22a1.62,1.62,0,0,1,1.14,1.42c.23,2.74,1.11,9.69,4.14,9.34,3.77-.45,9.09-4.63,10.42,0a16.62,16.62,0,0,1,.58,5.22,9.53,9.53,0,0,1-2.36,5.87c-1.45,1.68-2.81,4,.23,4.41,4.46.61,14.29-6.75,16.62-11.4a1.09,1.09,0,0,0-.38-1.42c-1-.63-2.79-3-4.27-11.56-2.21-12.86,1.11-19.51-9.75-21.51S577.51,252.06,577.51,252.06Z"/><path class="cls-3" d="M583.58,243.52a2.88,2.88,0,0,1-2.92.7c-3-1-8.75-2.06-10.54,3.32-2.09,6.3,5.12,8.42,9.73,8.4a2.12,2.12,0,0,1,2.09,1.65,3.58,3.58,0,0,0,2,2.61c2.66,1.22,6.21-5.76,9.53-2.44s-8,11.09,3.88,13.75,13.3-8.76,22.84-6,10.42,13,24.61,10.75,16.62-18.62,23.94-18.73,12.41,3.22,19.51,1,16.85-9.87,14.19-17-12.86,3.55-20.29,3.44-6.76-10-18.73-10-19.18,14.41-29.82,16.52c-10,2-22.24-9.05-34.07-10.13-1.33-.12-2.67-.22-4-.47C592.8,240.43,587.19,240,583.58,243.52Z"/><path class="cls-9" d="M586,260s-3.58,2.41-1.22,5.79a4.33,4.33,0,0,0,3.47,2,3.6,3.6,0,0,0,3.79-4.45l0-.07a2.79,2.79,0,0,0-4-1.89,2.49,2.49,0,0,0-1.33,3.17,2,2,0,0,0,2.94.9,1.48,1.48,0,0,0-.16-2.6"/><path class="cls-9" d="M576.73,299.39s-6,6-7,12.14-.47,16.86-4.92,21.12"/><path class="cls-9" d="M627.78,315.19s-4.83-6.65-7-8"/><path class="cls-10" d="M508.75,569.84s4.35,9.89,0,16.2-23.47,16.46-19,25.28l42.8-20.74s-9-17.86-11.43-26.41Z"/><path class="cls-10" d="M563.77,506.33s7.9,7.37,6.4,14.89-15.06,24.39-7.45,30.71L593.84,516s-15.31-12.86-20.93-19.75Z"/><path class="cls-5" d="M555.62,348.94s-72.78,61.85-66.35,82.92,57.2,92.22,57.2,92.22l28.38-27.49s-52.77-54.09-53.87-65,67.86-75.48,67.86-75.48Z"/><path class="cls-5" d="M563.34,350.62S505,425.21,495.7,452.92,507,570.64,507,570.64l36.8-16.85S520.53,485.28,525,459.12s64.51-47.11,69.72-101.7Z"/><path class="cls-11" d="M564.21,349.61S504,427.84,495.42,450.7"/><path class="cls-11" d="M532.57,446.34s-8.25,8.86-6.75,27a184,184,0,0,0,5.27,31.56"/><path class="cls-8" d="M648.06,353.43s-42.73,33.42-48.38,41.74-12.66,26.93-7.5,28.59,10-5.65,12.4-15.29,13.76-25.5,47.64-37.91c29-10.64,14.67-27.84,14.67-27.84Z"/><path class="cls-8" d="M537.82,337.3s-35.24,30.15-49.77,36.47-18.48,7.93-19,12.75,16.21,2.16,24.78-2.66,7.48-6,13.46-9.48S547,348.06,547,348.06Z"/><path class="cls-10" d="M239.48,332.08s-1.39,7.09-4.38,10.55-.14,8-.14,8L230.89,349a2.54,2.54,0,0,0-2.93.78c-2.07,2.62-7.78,8.85-10,8.09-3-1-5.3-10.52-9.27-5.48s-4.84,7.2-4.84,7.2L198,341a20.42,20.42,0,0,0,7.74-7.29c2.58-4.7,7.07-18.67,16.58-17.39S241.26,324.92,239.48,332.08Z"/><path class="cls-5" d="M243.61,322.56a7.35,7.35,0,0,0,2.8,4.38c2.51,1.8,5.79,5.1,3.23,8.83-2.87,4.2-10.51.12-14.21-2.22a2.58,2.58,0,0,0-3.28.48,4.17,4.17,0,0,1-4,1.41c-3.64-.74-.57-8.46-7.27-9.16S217,337.21,211.59,337s-6.94-1.6-6.94-1.6,1.67-27.61,18.28-24.45a12.38,12.38,0,0,0,3.38.2C230.42,310.74,241,311,243.61,322.56Z"/><path class="cls-9" d="M226.6,334.08s2.06,5.77-3.49,7.66a6.17,6.17,0,0,1-5.67-.6c-2.91-1.94-3.37-6.15-.59-8.28l.09-.07a4,4,0,0,1,6.17,1.21c.6,1.3.9,3.52-1.14,4.75a2.79,2.79,0,0,1-4.14-1.44,2.11,2.11,0,0,1,2.38-2.84"/><path d="M204.53,366.48s6.2,64.43,31.88,78.88-18.54,18.8-18.54,18.8L183.69,409Z"/><path class="cls-12" d="M203.66,386.55c4.48-36.88-7.89-49.86-7.89-49.86-9.8-9.09-106.86,17.6-98.14,45.59s59.06,50.35,59.06,50.35c4.32,16.58,14.66,35.55,14.66,35.55,19.34-14,52.61-19.33,52.61-19.33S199.19,423.42,203.66,386.55Zm-73.83-6.48c8.57-6.26,24-8.69,24-8.69-8.84,15.45-2.82,34.49-2.82,34.49C136.8,395.37,129.83,380.07,129.83,380.07Z"/><path class="cls-2" d="M195.77,336.69s15.52,15,16.1,26.1l-7.34,3.69S204.19,347,195.77,336.69Z"/><path class="cls-10" d="M153.87,371.38s9-2,11.63-1.81"/><path class="cls-2" d="M178.17,480.93s8.67,16.68,43.41,20.66,59.85,5.21,67.56,16,31,51.7,31,51.7l31-12.34s-32.38-68.37-58.61-75.77S217,449.26,217,449.26Z"/><path class="cls-10" d="M171.35,468.18S224,432.05,299.88,447.39s100.81,49.79,100.81,49.79l-22.54,21.1S326.9,483.84,312,480.89s-61.54,19.29-99,15.47S171.35,468.18,171.35,468.18Z"/><path class="cls-13" d="M176.75,428.89s34.92-.05,35.57,11.36-21.44,2.92-23.54,1.66-12-4.49-16.44-4.36Z"/><path d="M398.79,499s14.39,12.68,27.89,16.08,25.57-17.92,38.91-14.57l-34,41S396,513.17,387.76,509.28Z"/><path d="M347,558.65s9.15,25,16.6,27.91,29.35-2.47,34.67,5.81l-48.76,14.9S339,569.69,333,564.12Z"/><path class="cls-14" d="M347,558.65l3.06,7.55-12.83,5s-2.51-6.14-4.23-7.1Z"/><path class="cls-10" d="M398.79,499l-11,10.32s5.3,3.12,8.46,5.36l10.21-9.77Z"/><path class="cls-9" d="M151.05,405.87s22.56,17.06,27.3,20l-7.2,13.6s-7.89-3.64-14.46-6.83"/></svg>