<svg id="图层_1" data-name="图层 1" xmlns="http://www.w3.org/2000/svg" viewBox="0 0 800 800"><defs><style>.cls-1,.cls-11,.cls-13,.cls-14{stroke:#000;}.cls-1,.cls-11,.cls-12,.cls-13,.cls-2,.cls-6,.cls-8{stroke-linecap:round;stroke-linejoin:round;}.cls-12,.cls-16,.cls-2{stroke:#fff;}.cls-3{fill:#002fa0;}.cls-4{fill:#3165ec;}.cls-5{fill:#dfe1e6;}.cls-11,.cls-6{fill:#fff;}.cls-6,.cls-8{stroke:#ccc;}.cls-7{fill:#ffce6e;}.cls-12,.cls-13,.cls-16,.cls-8{fill:none;}.cls-9{fill:#f79c2f;}.cls-10{fill:#f4f4f4;}.cls-14,.cls-16{stroke-miterlimit:10;}.cls-15{fill:#d8d8d8;}</style></defs><path class="cls-1" d="M463.24,549.81a106.17,106.17,0,0,0,.89,16.54,55.81,55.81,0,0,1-.46,16.45s-18.37-4-19,12.73h40.11l-6.38-45.72Z"/><path class="cls-2" d="M476.29,555.3s-2.67,16.66-6.82,25a60.91,60.91,0,0,0-5.34,15.27h25.21s3.7-27.23,2.37-40.23Z"/><path class="cls-2" d="M486,595.53s0,0,0-.08a15.22,15.22,0,0,0-30.44,0s0,.06,0,.08Z"/><path class="cls-3" d="M461.07,310s-13.84,70.78-12.26,126.42S458,549.81,458,549.81h21.19l28-239.82Z"/><path class="cls-4" d="M490,310S479.16,530,468.73,555.3h37.81S545.14,402.72,545.61,310Z"/><rect class="cls-5" x="214.78" y="437.1" width="407.17" height="12.01"/><rect class="cls-6" x="229.51" y="216.04" width="377.71" height="221.06"/><circle class="cls-7" cx="418.37" cy="140.37" r="7.04"/><line class="cls-8" x1="229.51" y1="217.25" x2="411.33" y2="140.37"/><line class="cls-8" x1="607.22" y1="217.25" x2="425.41" y2="140.37"/><rect class="cls-7" x="127.42" y="638.85" width="532.56" height="43.29"/><rect class="cls-9" x="169.68" y="595.53" width="448.05" height="43.29"/><path class="cls-10" d="M489.38,245.88s-41.66,4.6-51.89,4.45-21.5-54.86-18.68-75.61S459,167.34,459,167.34l48.18.41s36.92-14.23,38,5.34-.75,72-17.2,74.87S489.38,245.88,489.38,245.88Z"/><path class="cls-1" d="M454.69,135.29a52,52,0,0,0,0,10.37c.59,5-1.19,7.12-4.16,8.6-1.84.92.58,1.89,3.49,2.47,2,.39,3.45,1.09,3.72,2.91.75,5.06,2.75,14,7.47,12.41,0,0,9.94,17.35,16.9,17.35s25.06-21.65,25.06-21.65-9,0-12.75-7.71a89.81,89.81,0,0,1-5.49-14.53s1-17.94-10.92-19.27S457.21,127.29,454.69,135.29Z"/><path class="cls-11" d="M460.36,122.33a6.37,6.37,0,0,1-3.69.65c-4.27-.54-14.31-1.11-15.43,5.42-1.26,7.39,6.81,10.61,16.27,9.22a6,6,0,0,1,5.42,2.06,5.87,5.87,0,0,0,4.68,2.4c4.19-.2,7.72-4.9,12.24-3.35,3,1,2.58,6.45,2,10a3.7,3.7,0,0,0,2.49,4.12l8,2.65s8.77-22.64-4.46-30.63a8,8,0,0,1-2.41-2.34C483.33,119.51,476.8,113.85,460.36,122.33Z"/><path class="cls-12" d="M472.24,139.54s-5,4.39-.77,9.15a6.73,6.73,0,0,0,5.71,2.47c3.81-.29,6.5-4,5-7.56a.61.61,0,0,0-.05-.12,4.33,4.33,0,0,0-6.51-2.15c-1.28.92-2.74,2.87-1.46,5.13a3,3,0,0,0,4.71.84,2.29,2.29,0,0,0-.75-4"/><path class="cls-12" d="M464.42,173.29s5.64-2.63,7.86-3.8c2.42-1.29,6.28-2.87,4.79,8.15"/><path class="cls-13" d="M489.38,245.88,525,241.67,523,219.79l-74,2.73a3.61,3.61,0,0,1-3.44-2.16c-2.74-6.32-10.29-24.23-11-31.85"/><path class="cls-13" d="M519.78,219.91s5-22.66,5.18-32"/><path class="cls-14" d="M523.5,225.13s23.43-8.38,33.31-.22-2.37,12.1-5.53,12.1-18.82-3.2-26.82-1Z"/><path class="cls-14" d="M460.62,222.09s-13.5-19.94-27.43-19.2-5.34,14.12,0,15.14,13.34,4.58,13.34,4.58Z"/><path class="cls-9" d="M620.72,295.18a193.43,193.43,0,0,1-8.34,18.08c-4.74,8.9,3.36,13.64,5.34,14.23s3,10.05,19.77,7.69,0-44.85,0-44.85Z"/><path class="cls-15" d="M607.15,381.46s-3.31,57.58-17.49,72.75l34.68-32.12V381.46Z"/><path d="M650.53,330.26s22.94-7.71,24.32,29.06-8.3,56.24-8.3,56.24h-51.2v-34.1H602.89s1.43-45.12,25.9-48.43S650.53,330.26,650.53,330.26Z"/><path class="cls-11" d="M627.21,290.53a14.58,14.58,0,0,0-3.76,9.29c-.39,6.13-6.92,8.3-6.92,8.3l5.34,2.18s-2.17,11.86,1.78,12.65,13.64-3.76,14,1.78-1.77,5.93-1.77,5.93L628.79,333s5.73,8.5,19.37,0,2.57-38.94,2.57-38.94S638.87,283.21,627.21,290.53Z"/><path class="cls-7" d="M634.87,281a8.55,8.55,0,0,1-3.88.51c-4.28-.45-14.15-.6-14.46,7.59-.28,7.38,8.45,7.11,13.65,6.31a2.49,2.49,0,0,1,2.86,2.73c-.24,2.12.12,4.56,2.71,5.39,4.9,1.59,9.45-4.74,13,1.59s-7.31,4.15-4.54,18.78S659.12,335.15,661,334c4.94-3,3.8-7.79,8.9-9.49,3.56-1.19,4.94,3,10.47,1.38s.6-14.17-8.3-17.66c-8.52-3.34-3.61-14.74-14.33-20.73a8.79,8.79,0,0,1-2.48-2.15C653,282.54,646.51,276.73,634.87,281Z"/><line class="cls-16" x1="614.46" y1="382.01" x2="614.46" y2="349.19"/><path class="cls-11" d="M632.36,352.49s-10.79,3.27-20.08-1.47c-8.36-4.27-38.79-69.16-44.82-82.16a1.71,1.71,0,0,0-3.17.17c-.75,2.26-.59,6.55,3.4,14.63a3.14,3.14,0,0,1-.59,3.59c-2.42,2.49-6,7.95-.39,15.11,2.6,3.32,6.26,6.23,8.06,10C582.44,328.63,600.43,368,611,371c12.4,3.48,27.09-2.05,27.09-2.05Z"/><path class="cls-12" d="M657.06,336.81s-19.57,8.87-25.5,13.62l7,20s13.23-2.86,19.55-2.26"/><path class="cls-10" d="M565.74,605.42s2.38,12.16-5,21.25c-7.16,8.77-23.14,4.55-23.14,12h45.37s-1.39-23.7-3-33.21Z"/><path class="cls-13" d="M637.17,303.91s-6.39,2.41-4,8.48a6.86,6.86,0,0,0,5.6,4.6,5.38,5.38,0,0,0,6.44-5.81,4.41,4.41,0,0,0-5.47-4.36c-1.54.42-3.64,1.77-3.21,4.39a3.1,3.1,0,0,0,4.21,2.47,2.35,2.35,0,0,0,.69-4.07"/><path class="cls-5" d="M618.81,423s-67.7,54.38-69.48,90.83,12.3,91.91,12.3,91.91h19.73s-3.27-80.49,6.22-94.36,45.24-53.3,45.24-53.3L631.77,423Z"/><path class="cls-11" d="M671.19,651.89s1.78,16.9-10.38,19.87-21.87,5.93-21.87,10.38h46.48s-1.17-22-1.77-30.59Z"/><rect class="cls-11" x="618.81" y="415.56" width="47.05" height="7.41"/><path class="cls-11" d="M631.77,423s.07,88.06,13.08,114.75,21,113.82,21,113.82h20.76s-1.18-77.39-9.49-114.29S665.86,423,665.86,423Z"/><path class="cls-5" d="M132,469.86s144.42-20.08,156.69,15.38S312.89,651,312.89,651H279.14s-18.8-103-24-136.11c0,0-46.94-.17-83.47-.17S132,469.86,132,469.86Z"/><polygon class="cls-5" points="205.8 535.36 189.49 535.36 236.34 681.94 242.86 681.94 205.8 535.36"/><path class="cls-11" d="M132,469.86s140.35-33.54,154.66,1.92-51.48,167.05-51.48,167.05l-39.74-13L242,506.17s-36.1,8.55-70.28,8.55S133.46,491.86,132,469.86Z"/><polygon class="cls-5" points="152.68 535.36 168.99 535.36 122.14 681.94 115.61 681.94 152.68 535.36"/><path class="cls-7" d="M184.72,514.89H123.66s4.15,24.91,28.46,24.91h49.19c24.32,0,28.47-24.91,28.47-24.91Z"/><path class="cls-11" d="M164.58,331.05c-.24-5.67.24-21.65,13-24.09,15.51-3,18.92.86,18.92.86s1.11,5.16,2.33,10.39,4.93,5.44,4.93,5.44-1.52.93-3,1.64a2.52,2.52,0,0,0-1.41,2.28c0,4-.29,14.06-3.27,15.56-3.73,1.88-10.36-2.77-13.53-1.62s-6.87,11.82-6.87,11.82l-15.21-3.25Z"/><path class="cls-1" d="M191.14,294.05a5.27,5.27,0,0,0,3.92.81c4.07-.68,12.18-1.1,11.45,6.73-.75,8.11-10.73,9.42-15.11,9.6a2.16,2.16,0,0,0-2.07,1.95c-.19,1.86-.87,4.55-3.16,5.75-3.69,1.93-8.5-5.76-12.5-2.4s4.81,7.69,4.17,11.05c-.47,2.45-7.44,4-11.22,4.74a3.61,3.61,0,0,1-3.73-1.68c-3.74-6.16-13.06-24.39,2.13-32.05C165,298.55,179,285.67,191.14,294.05Z"/><path class="cls-13" d="M185.09,319.19s5.79,2.08,3.72,7.57a6.19,6.19,0,0,1-4.07,4c-3.35,1-6.92-1.3-6.8-4.81,0,0,0-.07,0-.11a4,4,0,0,1,4.86-4,3.55,3.55,0,0,1,3,3.91A2.79,2.79,0,0,1,182,328a2.11,2.11,0,0,1-.69-3.65"/><polygon class="cls-1" points="307.17 446.81 329.68 391.09 332.73 392.32 309.39 450.1 309.23 450.03 309.23 450.1 238.47 450.1 238.47 446.81 307.17 446.81"/><path class="cls-4" d="M160.42,339.77a41.67,41.67,0,0,1,27.94,26.91C195.83,388.9,212.07,434,212.07,434h54.47l2.56,16.45s-50.32,10.47-62.54,9-21.84-25.63-21.84-25.63l-6.78,69.42H113.38S124.57,365.4,160.42,339.77Z"/><line class="cls-13" x1="184.72" y1="433.76" x2="163.79" y2="386.98"/><path class="cls-13" d="M152.59,347.55s29.15,6.7,35,17.08"/><path class="cls-11" d="M266.9,436.26a84.45,84.45,0,0,0,8.61-1c5.34-.85,19.22-21.79,28-24.88s-5.12,12.95-5.12,12.95,9.48,9.29-9.72,18.87a56.44,56.44,0,0,1-13.07,4.55l-6.82,1.5Z"/><line class="cls-13" x1="241.97" y1="506.17" x2="255.7" y2="502.86"/><path class="cls-11" d="M225.2,635.57s-2.43,10.49,0,16.42,3,19,3,19,11,3.36,11,11H218.94l-22.45-33.49A1.76,1.76,0,0,1,197,646c2.66-1.65,8.18-6,13.29-15.29Z"/><path class="cls-11" d="M228.23,671s-4.55-1.19-6.92-1"/><path class="cls-10" d="M304.74,651s2,14.78,6.52,19,24.91,3.77,24.91,12H290.11s3-21.65.79-30.94Z"/><rect x="358.44" y="372.6" width="185.32" height="8.49"/><rect x="398.07" y="393.22" width="185.32" height="8.49"/></svg>