<svg id="图层_1" data-name="图层 1" xmlns="http://www.w3.org/2000/svg" viewBox="0 0 800 800"><defs><style>.cls-1,.cls-10,.cls-13,.cls-6{fill:#fff;}.cls-1{stroke:#ccc;}.cls-1,.cls-10,.cls-11,.cls-12,.cls-15{stroke-linecap:round;stroke-linejoin:round;}.cls-2{fill:#ffcd6e;}.cls-3{fill:#3165eb;}.cls-4{fill:#dbdde2;}.cls-5{fill:#1331a1;}.cls-7{fill:#6cc4ff;}.cls-8{fill:#ffd26e;}.cls-10,.cls-12,.cls-13,.cls-15,.cls-9{stroke:#000;}.cls-13,.cls-9{stroke-miterlimit:10;}.cls-11,.cls-15{fill:none;}.cls-11{stroke:#fff;}.cls-14{fill:#3165f0;}</style></defs><rect class="cls-1" x="174.09" y="196.04" width="422.85" height="287.92"/><rect class="cls-1" x="174.09" y="195.77" width="422.85" height="31.66"/><circle class="cls-1" cx="193.17" cy="211.6" r="4.77"/><circle class="cls-2" cx="212.73" cy="211.46" r="4.77"/><circle class="cls-3" cx="232.37" cy="211.46" r="4.77"/><path class="cls-4" d="M645.06,592.15A41.83,41.83,0,0,1,603.24,634v13.82H714.53V536.5H603.24v13.82A41.84,41.84,0,0,1,645.06,592.15Z"/><path class="cls-5" d="M481.29,498.13c-24.05,0-46-8.29-61.31-22.81a5.27,5.27,0,0,0-7.47,0c-14.93,14.52-37.33,22.81-61.31,22.81a5.49,5.49,0,0,0-5.4,5.39V569.4c0,21.16,11.2,40.65,29.45,52.68L413.41,647a5.5,5.5,0,0,0,5.81,0l38.16-24.88c18.66-12,29.44-31.94,29.44-52.68V503.52a5.7,5.7,0,0,0-5.53-5.39Z"/><polygon class="cls-6" points="380.85 567.26 405.39 586.48 451.57 541.96 445.07 535.12 404.7 573.97 386.66 559.79 380.85 567.26"/><circle class="cls-7" cx="648.38" cy="195.77" r="30.1"/><rect class="cls-1" x="264.3" y="269.53" width="237.38" height="140.67"/><rect class="cls-4" x="287.05" y="292.96" width="122.63" height="93.81"/><rect class="cls-8" x="430.9" y="305.47" width="115.51" height="7.67"/><rect class="cls-8" x="445.21" y="285.29" width="115.51" height="7.67"/><path class="cls-8" d="M154.67,647.79c38.15,0,69.12-44.1,69.12-98.57H85.47C85.47,603.69,116.44,647.79,154.67,647.79Z"/><path class="cls-9" d="M224.21,380.34a11.77,11.77,0,0,1,11.68,6.84,20.39,20.39,0,0,1,.69,2.21c1.73,5.67,5.74,4.91,5.74,4.91a7.22,7.22,0,0,0-2.42,4.7c-.35,3.11,1.38,10.79-3,12.1s-7.26-1.66-7.05,1.31.34,5.95.34,5.95l-9.88,1.93-7.4-3s4.63-2.49,2.49-12.37C213.36,395.75,207.34,381.51,224.21,380.34Z"/><path class="cls-10" d="M223.66,378.61s1.45-7.67,8.36-6.15a7.17,7.17,0,0,1,6.08,7.88,9.61,9.61,0,0,1-2.83,5.74s-.28,5-4.43,6.7c0,0-4.35-4.49-5.94-2.69s-.35,6,2.56,8.5-.07,6.57-3.46,7.53a8.23,8.23,0,0,0-8.71-1.24S199.81,379.72,223.66,378.61Z"/><path class="cls-11" d="M230.84,392.71s3.53,3.53,2.49,6.5-5.53-.83-5.53-.83-2.55-1.8-1-4.15,4.07,1.18,4.07,1.18,1.59,2.21-.48,2.21a2.5,2.5,0,0,1-2.49-1.87"/><path class="cls-9" d="M220,420.78l22.47,1.87s30.69-18.12,41.47-33.39,15.77-14.31,21.16-16a23.58,23.58,0,0,0,8.78-5,1.88,1.88,0,0,0,.07-.62,13.66,13.66,0,0,1,.27-1.66,13.5,13.5,0,0,1,1.32-4,2.79,2.79,0,0,1,1.38-1.31c.76-.28,5.18-1.11,5.67,1.45a11.67,11.67,0,0,1,.07,3.39c-.9,6.91-1.59,11.82-12.59,16.45s-11.95,1.38-16.38,7.19-24.61,37.46-41,48.73c0,0-9.4,10-19.63,2.28L217,435.09Z"/><path class="cls-12" d="M287.39,614.41s-6.15,13.61,1.38,19.77,23.85,7.25,26.13,13.61H271.7s-2.28-16.72,3.66-33.38Z"/><path class="cls-12" d="M218.33,602.65s-6.84,12.1-6.63,20.26.48,18.39,5.46,19.77,6.15,4.77,6.15,4.77h-15.9s-4.08.48-7.53-5.25c-2.84-4.77-10.37-13.62-12.72-16.39a1.25,1.25,0,0,1,0-1.66c3.18-3.66,15.69-18.25,17.69-21.57a49.35,49.35,0,0,0,3.8-8.29Z"/><path class="cls-5" d="M218.12,334.78c12.45,12.38,30.14,14.8,39.55,5.33s7-27.1-5.47-39.54-30.13-14.8-39.54-5.33S205.68,322.41,218.12,334.78Z"/><path class="cls-13" d="M369.17,385c6.22,6.22,6,16.45-.42,22.88a16.51,16.51,0,0,1-18.8,3.39,12.92,12.92,0,0,1-2.28-1.38L253.31,341l-6.7-4.91-.07-.07c-.07-.07-.07-.07-.14-.07a148.34,148.34,0,0,1-12.93-11.61c-16-15.9-25.71-31.94-21.84-35.88L290,156.64c-3.53,10.37,15.41,40.1,45,69.61,29.24,29.18,58.62,47.91,69.34,44.94L295.82,331.47l69.55,50.8Z"/><path class="cls-13" d="M208,518.46l60.21,107.7,21.36-3.74S270.87,533.8,254.21,523,208,518.46,208,518.46Z"/><path class="cls-13" d="M171.39,504.77s-22.32,44.45,22.82,44.1,58.13-1.66,58.13-1.66l-55.58,53.16,20.26,21c1.45-1.11,6.22-5.67,7.67-6.78,3.74-2.9,7.47-5.8,11.13-8.78,5.12-4.07,10.16-8.29,15.21-12.58,5.6-4.77,11.13-9.68,16.45-14.79,5.19-4.91,10.23-10,15-15.35,7-8,15-17.83,15.07-29.65a10.22,10.22,0,0,0-.55-3.25,13.42,13.42,0,0,0-2.14-3.94,25.13,25.13,0,0,0-4.57-4.36,42.73,42.73,0,0,0-7.74-4.42,79.2,79.2,0,0,0-11.75-4.15,167,167,0,0,0-16.45-3.66c-7.33-1.25-14.66-2.15-22-2.84-9.41-.9-18.88-1.38-28.35-1.73C193.24,504.7,182.32,504.63,171.39,504.77Z"/><path class="cls-14" d="M172.22,504.84s21.36.62,51.57.62c0,0,2.49-33.32,22.19-54.61l13,7.4,8.78-21.92s-21.5-20.94-46-19.42c-5,.34-10.3.55-15.14,2.21C184.18,426.86,172.22,504.84,172.22,504.84Z"/><path class="cls-9" d="M267.27,438.06l8.78,5.05s26.2-24.13,33.6-41.34,12.37-17.35,17.35-20a21.62,21.62,0,0,0,5.39-4,8.18,8.18,0,0,0,2.15-4.21c.34-1.66-.14-3.32.48-5,.76-2.14,5.53-4.29,6.71-1.38a10.7,10.7,0,0,1,.76,3.24c.62,7,.89,11.89-8.85,18.74s-11.41,3.87-14.45,10.51-16.25,41.82-29.86,56.27c0,0-6.36,7.6-18,2.21l-10.43-3.6Z"/><path class="cls-9" d="M335.3,226.18c32.14,32.08,64.49,51.71,72.3,43.83s-11.89-40.16-44-72.24-64.5-51.7-72.31-43.82S303.15,194.18,335.3,226.18Z"/><polygon class="cls-12" points="627.15 485.07 669.6 486.38 668.7 494.88 627.22 492.88 627.15 485.07"/><path class="cls-5" d="M562.8,501.66s-14.11,1.73-21.3,22.88-28.34,93.6-28.34,93.6L533.62,624s34-61.87,39.2-91.53l75.35-14.1.48-13.55Z"/><path class="cls-14" d="M668.7,495.3s5.25,41-32.56,41-56.27-4.08-56.27-4.08,23.16,70.58,24.26,85.86l-20,6.29S534.38,533.6,549,508.92,668.7,495.3,668.7,495.3Z"/><path class="cls-10" d="M588.44,623s4.56,6.91,1.25,12.51-27,3.46-30.7,12h46.25a2.87,2.87,0,0,0,2.9-3.6c-2-6.49-6.08-19.9-7.25-24.74Z"/><path class="cls-10" d="M517,619.24s-4.56,19.78-16,19.91-17.56,4.63-18.05,8.3h41.13s.83-22.26,3.88-25.09Z"/><path class="cls-13" d="M636.69,510.78l-23.78-4.21c.35-4.08.9-22.95.9-22.95L587.34,477c9.26-33.87,37.6-46.52,37.6-46.52l30.76.48c36.85,25.85,27,65.81,27,65.81L667.59,494h0A28.22,28.22,0,0,1,636.69,510.78Z"/><path class="cls-15" d="M658.33,456.52a90.58,90.58,0,0,1-5,34.42l14.31,3"/><path class="cls-15" d="M612.57,451.47s-4.63,7.61-3.53,13.14,5.05,11.82,4.84,19.63"/><path class="cls-13" d="M672.57,494.88s-3.94,23-15.9,20.74-45.35-14.1-45.35-14.1L607,491.91s35.18,8.37,42.79,8.37,8-8.37,8-8.37Z"/><path class="cls-13" d="M649.83,426.79a3.62,3.62,0,0,1-1.52-3c0-5.67-.14-20.81-1-27.86-1-8.5-14.31-8.29-14.31-8.29a64,64,0,0,0-6.29,10.57,5.37,5.37,0,0,1-3.94,3.18,4.48,4.48,0,0,1-1.38.07c-1.94-.21,1.52,2.42,3,3.53a1.22,1.22,0,0,1,.48,1.24c-.48,2-1.52,7.4-.27,9.47,1.52,2.63,6.63.69,6.63.69s5.05-2.48,4.22,7.33a3.68,3.68,0,0,1-2.21,3l-8.3,3.6s-1.66,9.33,10.44,9.68,20.32-9.2,20.32-9.2S653.15,429.14,649.83,426.79Z"/><path class="cls-12" d="M634.14,381.58a1.76,1.76,0,0,1-2.15-.07c-1.79-1.52-5.6-3.87-9-.83-4.43,4-1.59,13.35,8,13.14a1.93,1.93,0,0,1,1.86,1.45,5.51,5.51,0,0,0,3.74,4.22c4.28,1.52,6.91-3.46,10-1,2.14,1.73.55,4.84-1,6.77a1.54,1.54,0,0,0,.14,2.15l2.42,2.21s7.6-5.12,8.5-12.44a13,13,0,0,0-3.87-10.93,2.35,2.35,0,0,1-.69-1.1c-.55-1.66-2.56-6-8.78-6.09C638.28,379.16,635.45,380.62,634.14,381.58Z"/><path class="cls-12" d="M652.18,385.18a4.31,4.31,0,0,1-.49-2.08c.07-2.48,1-8,7.82-8.71,8.91-.89,8.08,9.06,8.08,9.06s-.89,8.36-11.68,7.74a20.47,20.47,0,0,0-2.69-4.35,6.45,6.45,0,0,1-1-1.45Z"/><path class="cls-15" d="M638.15,399.9s-4.91,2.21-2.77,6.85a5.44,5.44,0,0,0,3.8,3.24,4.53,4.53,0,0,0,5.67-4.63v-.07a3.48,3.48,0,0,0-4.49-3.18,3.19,3.19,0,0,0-2.35,3.6,2.52,2.52,0,0,0,3.45,1.8,1.85,1.85,0,0,0,.35-3.25"/><polygon class="cls-4" points="628.19 507.74 609.39 461.77 544.34 455.83 563.21 501.8 628.19 507.74"/></svg>