<svg id="图层_1" data-name="图层 1" xmlns="http://www.w3.org/2000/svg" viewBox="0 0 800 800"><defs><style>.cls-1{fill:#ff8885;}.cls-2,.cls-8{fill:#fff;}.cls-3{fill:#dbdde2;}.cls-11,.cls-4{fill:#3165e8;}.cls-5{fill:#ffca6e;}.cls-10,.cls-11,.cls-16,.cls-6,.cls-8{stroke:#000;}.cls-10,.cls-11,.cls-6,.cls-8,.cls-9{stroke-linecap:round;stroke-linejoin:round;}.cls-7{fill:#f4f4f4;}.cls-10,.cls-13,.cls-15,.cls-16,.cls-9{fill:none;}.cls-9{stroke:#fff;}.cls-12{fill:#e5e5e5;}.cls-13{stroke:#999;}.cls-13,.cls-15,.cls-16{stroke-miterlimit:10;}.cls-14{fill:#ffcb6e;}.cls-15{stroke:#b3b3b3;}</style></defs><circle class="cls-1" cx="659.46" cy="561.48" r="20.14"/><rect class="cls-2" x="142.61" y="206.14" width="516.85" height="355.34"/><rect class="cls-3" x="142.42" y="206.14" width="516.85" height="48.45"/><rect class="cls-4" x="142.42" y="528.5" width="516.85" height="32.98"/><circle class="cls-2" cx="173.11" cy="230.37" r="6.46"/><circle class="cls-5" cx="198.95" cy="230.37" r="6.46"/><circle class="cls-4" cx="224.79" cy="230.37" r="6.46"/><path class="cls-3" d="M411.24,284.13s-6.85,6-12.09,19.6S382,328,388.28,340s14.27,7.65,14,20.14c-.17,7.25.89,16,6.8,16.28,6.89.36,10.79-5,20.46-4.46s24.57,9.4,42.16,5.64,38.68-15.45,45.12-20-56.66-68.21-56.66-68.21Z"/><path class="cls-6" d="M513.7,523.68s17.11,4.57,32.07-4.92c12.15-7.7,18.44-22.51,27.67-28.58s4.91-12.38-4.17-8S540,506.47,517,502.43Z"/><path class="cls-7" d="M428.38,386.18a106.39,106.39,0,0,1-35.8,2.19c-20.15-2.13-34.11.21-38.68,26.53s-27.93,113.6,4,113.6H508.59c32.5,0,32.62-103.61,31.89-127.76s-19.27-25-40.75-18.15-27.8,3.59-27.8,3.59Z"/><path class="cls-6" d="M416.57,286.1s-7.7,15.75-9.13,27.57S398,327.1,398,327.1s8.05,1.79,8.59,3.94.54,25.42,9.13,24.7,16.83-5.69,17.73,0,4.29,23.08-5,30.42c0,0,9,10.38,21.4,10.38s22.15-10.38,22.15-10.38-11.86-8.59-9.53-46.37-3.19-56-18.78-58.37A43.65,43.65,0,0,0,416.57,286.1Z"/><path class="cls-8" d="M428.38,386.18s-5.91,18.44,8.24,31.15l13.16-20.77S435.36,395.31,428.38,386.18Z"/><path class="cls-8" d="M471.93,386.18s5.91,18.44-8.23,31.15l-13.16-20.77S465,395.31,471.93,386.18Z"/><path class="cls-8" d="M413.88,275a5.93,5.93,0,0,1-4.72,2.08c-6.23-.3-19.79.49-21.14,12.65-1.53,13.85,12.84,15.18,23.66,13.86a6.18,6.18,0,0,1,6,2.9c1.66,2.71,4.77,5.81,10.07,4.86,9-1.61,11-10.05,17.64-5.11,7.06,5.24-7.13,20.68.37,29.28s17.3,1.21,25.22,10.74,6.85,27.39,30.48,28.73,24.85-4.07,37.87-3.44,20.95,10.56,43.24,10.7c20.88.12,32.46-10.72,33.17-27.55a9.36,9.36,0,0,1,2.3-5.84c4.24-4.81,12.1-16.19,3.79-27.43-10.93-14.78-42.49-11.56-60.88-9.28s-45.12,9.79-59.89-2.35C486.72,298,479.72,279.58,460,276a6.62,6.62,0,0,1-2.9-1.22c-2.85-2.17-11.07-7.34-24.25-7C421.72,268.12,416.27,272.31,413.88,275Z"/><path class="cls-9" d="M431,308.4s-11.57,4.1-7.49,15.1c1.83,4.92,5.07,7.12,8.09,8.06,6.7,2.06,13.83-2.55,13.62-9.55a1.77,1.77,0,0,0,0-.23c-.36-7.64-6.89-8.76-9.68-8.06s-6.61,3-5.93,7.78,5.07,5.41,7.47,4.6,4.56-4.66,1.39-7.29"/><path class="cls-3" d="M544.57,390.08s-2.42,20.41-4,58.54,1.91,79.88-28.2,79.88S494,478.89,500,456.68c6.17-23,17-69.3,17-69.3Z"/><path class="cls-6" d="M520.08,387.68s-.21-17.71,12.69-29.86c10.46-9.86,26.37-12.3,34.53-19.74s13.21-1.7,6.72,6-30.76,22.32-32.55,45.69Z"/><path class="cls-10" d="M372.43,430.63a55,55,0,0,1-1.72,16.47c-2.3,8.51-3.11,22.2,3,35.09,5.5,11.54,5.57,13.16,5.57,13.16l113.37,2.42"/><line class="cls-11" x1="379.31" y1="495.35" x2="367.61" y2="494.89"/><path d="M650,509.46H561.41v4.93H647v9.87h-85.6v4.94H650a3.55,3.55,0,0,0,3.55-3.54V513A3.54,3.54,0,0,0,650,509.46Z"/><rect class="cls-12" x="564.14" y="514.39" width="82.87" height="9.87"/><line class="cls-13" x1="564.14" y1="517.27" x2="647.01" y2="517.27"/><line class="cls-13" x1="564.14" y1="521.38" x2="647.01" y2="521.38"/><path class="cls-14" d="M643.65,489.71H576v4.94h64.61v9.87H576v4.94h67.63a3.55,3.55,0,0,0,3.55-3.55V493.26A3.55,3.55,0,0,0,643.65,489.71Z"/><rect class="cls-12" x="579.43" y="494.65" width="61.2" height="9.87"/><line class="cls-15" x1="579.43" y1="497.53" x2="640.63" y2="497.53"/><line class="cls-15" x1="579.43" y1="501.64" x2="640.63" y2="501.64"/><rect class="cls-3" x="182.71" y="367.75" width="113.15" height="79.85"/><polygon class="cls-7" points="289.36 286.46 313.38 310.48 313.38 423.26 206.98 423.26 206.98 286.46 289.36 286.46"/><polygon points="289.36 286.46 289.36 310.48 313.38 310.48 289.36 286.46"/><rect class="cls-3" x="222.5" y="326.64" width="75.73" height="45.91"/><line class="cls-16" x1="222.5" y1="386.74" x2="298.23" y2="386.74"/><line class="cls-16" x1="222.5" y1="400.92" x2="298.23" y2="400.92"/><rect class="cls-5" x="546.94" y="176.35" width="190.83" height="12.65"/><rect class="cls-5" x="626.62" y="216.9" width="111.15" height="12.65"/></svg>