<svg id="图层_1" data-name="图层 1" xmlns="http://www.w3.org/2000/svg" viewBox="0 0 800 800"><defs><style>.cls-1,.cls-7,.cls-9{fill:none;}.cls-1{stroke:#ccc;}.cls-1,.cls-7,.cls-8,.cls-9{stroke-linecap:round;stroke-linejoin:round;}.cls-12,.cls-2,.cls-8{fill:#fff;}.cls-3{fill:#002f9c;}.cls-4{fill:#dbdde2;}.cls-5{fill:#f2f2f2;}.cls-6{fill:#dddfe4;}.cls-7,.cls-8{stroke:#000;}.cls-9{stroke:#fff;}.cls-10{fill:#ffca6e;}.cls-11{fill:#3165e8;}.cls-12{opacity:0.7;}.cls-13{fill:#00bb85;}</style></defs><rect class="cls-1" x="271.34" y="104.93" width="348.34" height="230.72"/><line class="cls-1" x1="271.34" y1="162.42" x2="619.67" y2="162.42"/><line class="cls-1" x1="271.34" y1="220.16" x2="619.67" y2="220.16"/><line class="cls-1" x1="271.34" y1="277.91" x2="619.67" y2="277.91"/><line class="cls-1" x1="271.34" y1="335.65" x2="619.67" y2="335.65"/><line class="cls-1" x1="503.52" y1="104.93" x2="503.52" y2="335.65"/><line class="cls-1" x1="445.44" y1="104.93" x2="445.44" y2="335.65"/><line class="cls-1" x1="561.59" y1="104.93" x2="561.59" y2="335.65"/><line class="cls-1" x1="387.36" y1="104.93" x2="387.36" y2="335.65"/><line class="cls-1" x1="329.28" y1="104.93" x2="329.28" y2="335.65"/><rect class="cls-2" x="124.85" y="223.04" width="426.03" height="230.99" transform="translate(675.73 677.06) rotate(-180)"/><polygon class="cls-3" points="550.88 174.06 376.96 174.06 274.9 454.03 550.88 454.03 550.88 174.06"/><rect class="cls-4" x="124.85" y="174.06" width="426.03" height="48.85" transform="translate(675.73 396.98) rotate(-180)"/><path class="cls-5" d="M257.58,344.24s84,6.32,103.23,63.67l18,46.12H145.22S153.41,344.48,257.58,344.24Z"/><path class="cls-6" d="M415.11,328.32l-28.79-4.91S356.25,400.89,346.76,454H398Z"/><path class="cls-7" d="M333.65,404.87s3.51,32.3,4.22,49.16"/><path class="cls-7" d="M203.6,404.87S194,436,196.81,454"/><path d="M280,266a8.68,8.68,0,0,1,5.4,5c1.82,4.51,4.84,12.44,5.16,16.33.47,5.62,12.17,10.16,12.17,10.16l-7.21,3.36a2.94,2.94,0,0,0-1.65,3.27c1.23,6,4.05,21.87-.5,23-5.62,1.41-18.73-1.87-19.66,5.62a76.33,76.33,0,0,0,0,15.69l-13.58,9.12-16.38-11.24s2.34-32.6,0-37.36S236.28,269.1,255,265.36C266.9,263,275.4,264.57,280,266Z"/><path class="cls-8" d="M268.92,254.6a9.19,9.19,0,0,0,8.75-.82c6.71-4.44,19.93-10.57,27.89,3.15,7.85,13.52-10.85,17.16-22.23,18.14a8,8,0,0,0-7.12,7.09c-.41,2.84-2.06,5.83-6.69,7.31-10.3,3.27-8.43-9.6-17.56-3.05s11,19.2,4.21,26.22-14.51,3.75-19.43,1.87-23.84-28-5.76-46.24a12.29,12.29,0,0,0,1.69-2C235.43,261.85,247.65,245.29,268.92,254.6Z"/><path class="cls-8" d="M260.15,357.58s-5.62,8.67-12.87,10.77-3.51-22-3.51-22Z"/><path class="cls-8" d="M260.15,357.58s7.2,9.39,11.88,10.9,1.7-20,1.7-20Z"/><path class="cls-9" d="M265,287.36s9.55,3.89,5.69,13a10.37,10.37,0,0,1-7.1,6.44c-5.69,1.47-11.49-2.67-11.05-8.54,0-.06,0-.12,0-.19.6-6.39,6.13-7.08,8.43-6.38s5.43,2.81,4.68,6.75a4.69,4.69,0,0,1-6.45,3.57c-2-.8-3.64-4.08-.88-6.16"/><path d="M407.56,327l-15.85-2.7s13.34-65.76,25.51-71.85-5.62,15.45-4.92,26c0,0,20.06,6.92,6.26,27.7a124.35,124.35,0,0,0-11,20.86Z"/><circle class="cls-2" cx="522.32" cy="198.49" r="7.02"/><circle class="cls-10" cx="491.71" cy="198.49" r="7.02"/><circle class="cls-11" cx="461.11" cy="198.49" r="7.02"/><rect class="cls-10" x="271.57" y="443.49" width="279.31" height="10.53" transform="translate(822.45 897.52) rotate(-180)"/><polygon class="cls-2" points="430.45 369.93 408.2 439.98 367.44 439.98 367.44 443.49 407.09 443.49 497 443.49 514.21 443.49 537.57 369.93 430.45 369.93"/><rect x="566.64" y="516.39" width="21.98" height="53.21" transform="translate(-194.11 361.56) rotate(-30)"/><path class="cls-6" d="M602.61,550h46a0,0,0,0,1,0,0V679.2a23,23,0,0,1-23,23h0a23,23,0,0,1-23-23V550A0,0,0,0,1,602.61,550Z" transform="translate(-229.22 396.68) rotate(-30)"/><circle class="cls-12" cx="493.58" cy="397.41" r="123.65"/><path class="cls-10" d="M409.57,251.91a168,168,0,1,0,229.5,61.49A168,168,0,0,0,409.57,251.91ZM555.4,504.49a123.65,123.65,0,1,1,45.26-168.91A123.64,123.64,0,0,1,555.4,504.49Z"/><polygon class="cls-13" points="228.39 556.75 228.39 676.76 348.4 676.76 228.39 556.75"/></svg>