<svg id="图层_1" data-name="图层 1" xmlns="http://www.w3.org/2000/svg" viewBox="0 0 800 800"><defs><style>.cls-1{fill:#002f9c;}.cls-2{fill:#dbdde2;}.cls-3,.cls-4{fill:#fff;}.cls-3,.cls-5,.cls-6{stroke:#000;}.cls-3{stroke-miterlimit:10;}.cls-5,.cls-6{stroke-linecap:round;stroke-linejoin:round;}.cls-6{fill:none;}.cls-7{fill:#ffcb6e;}.cls-8{fill:#efefef;}.cls-9{fill:#d8d8d8;}.cls-10{fill:#3165e8;}</style></defs><path class="cls-1" d="M656.18,546.29H143.82S134.4,564.52,174,560.53s68.29-1.49,68.29,7.68-22,9.61-13.82,22.69S272.87,592,276.16,604s-26.84,18.63-10.36,27.94,86.66-9.31,100.79,10.64c12.2,17.21,28.61,18.87,32.88,19h1.06c4.27-.13,20.68-1.79,32.88-19,14.13-19.95,84.3-1.33,100.79-10.64S520.54,616,523.84,604s39.56,0,47.73-13.08-13.82-13.52-13.82-22.69,28.73-11.67,68.29-7.68S656.18,546.29,656.18,546.29Z"/><polygon class="cls-2" points="531.09 267.45 459.49 267.45 387.9 267.45 294.97 546.29 459.49 546.29 624.01 546.29 531.09 267.45"/><path class="cls-3" d="M321,524.93s-7.84,19.92,1.64,20.91,118.22,0,118.22,0V524.93Z"/><path class="cls-3" d="M597.59,524.93s7.84,19.92-1.64,20.91-118.22,0-118.22,0V524.93Z"/><path d="M578.3,474.07c-21.95-51.21-84.47-56.53-84.47-56.53H424.44s-62.52,5.32-84.46,56.53c-21.27,49.61-20.68,50.54-20.63,50.55h0l139.78,27.26,139.77-27.26S600.24,525.28,578.3,474.07Z"/><path class="cls-4" d="M428.87,353s-2.43,9.08-.88,14.63-5.32,8.42-5.32,8.42l4.34,1.09a4.43,4.43,0,0,1,3.27,3.37c1,4.66,3.34,13.72,6.8,13.72,4.65,0,12.41-5.76,13.08,0s.88,17.51-4.21,19.07-21.51,4.21-21.51,4.21,31.92,16.54,35.92,16.36,36-16.07,36-16.07-20.45-5.17-22-6.5c-1.25-1.07-5.4-25.73-6.95-35.17a31.4,31.4,0,0,1-.38-6.64c.34-7.08.32-24.26-7.85-25.14C448.83,343.27,432,341.28,428.87,353Z"/><path class="cls-5" d="M438.56,338a7.36,7.36,0,0,1-6.39.31c-4.69-2-13.44-4.39-17.71,3.81-5.32,10.25,9.68,16.82,18.69,14.73a3.58,3.58,0,0,1,4.11,1.95c1,2.12,2.72,4.51,5.58,4.38,5.1-.22,8.23-8.91,14.85-6.2,4.88,2-1.55,10.42,1.45,17.29s8.23,1.85,8.23,1.85,9.31-5.77,7.32-21.17a24.79,24.79,0,0,0-8.66-16.2C460.52,334.32,451.56,331.1,438.56,338Z"/><path class="cls-6" d="M446,362.05s-7.3,4.48-2.91,11.39a8.61,8.61,0,0,0,6.69,4.33c4.87.44,9.06-3.75,7.91-8.5a.83.83,0,0,1,0-.15c-1.36-5.16-6-5-7.78-4.09s-4.07,3-2.92,6.17a3.9,3.9,0,0,0,5.77,2.05,2.94,2.94,0,0,0-.11-5.17"/><polygon class="cls-4" points="459.49 590.9 370.37 557.32 370.37 415.99 459.49 449.24 459.49 590.9"/><polygon class="cls-7" points="437.14 564.63 381.9 543.82 381.9 456.22 437.14 476.83 437.14 564.63"/><polygon class="cls-8" points="459.49 469.86 370.37 436.27 370.37 415.99 459.49 449.24 459.49 469.86"/><polygon class="cls-8" points="459.49 590.9 548.61 557.32 548.61 415.99 459.49 449.24 459.49 590.9"/><polygon class="cls-9" points="471.75 489.16 539.97 462.34 539.9 457.22 471.67 483.78 471.75 489.16"/><polygon class="cls-9" points="471.9 505.13 540.13 478.31 540.06 473.19 471.83 499.75 471.9 505.13"/><polygon class="cls-9" points="471.75 522.72 539.97 495.9 539.9 490.79 471.67 517.35 471.75 522.72"/><polygon class="cls-7" points="471.9 568.21 540.13 541.39 540.06 506.75 471.83 533.31 471.9 568.21"/><polygon class="cls-4" points="459.49 470.03 548.61 436.44 548.61 415.99 459.49 449.24 459.49 470.03"/><circle class="cls-4" cx="379.37" cy="429.33" r="2.54"/><circle class="cls-4" cx="388.42" cy="432.9" r="2.54"/><circle class="cls-4" cx="397.46" cy="436.44" r="2.54"/><polygon class="cls-8" points="152.76 361.41 167.72 546.29 202.3 546.29 161.87 361.41 152.76 361.41"/><polygon class="cls-9" points="152.76 361.41 228.02 202.9 240.17 205.82 161.87 361.41 152.76 361.41"/><polygon class="cls-8" points="459.14 138.43 234.45 196.47 234.45 209.33 459.14 151.28 459.14 138.43"/><polygon class="cls-9" points="452.71 144.85 454.71 203.95 463.56 203.95 465.56 144.85 452.71 144.85"/><path d="M501.63,243.51c-18.82-4.88-20-19.51-20-19.51H437.36s-1.19,14.63-20,19.51-29.46,10.64-29.46,23.94H531.09C531.09,254.15,520.45,248.39,501.63,243.51Z"/><path class="cls-7" d="M459.46,202.9a22.09,22.09,0,0,0-22.1,22.1h44.2A22.09,22.09,0,0,0,459.46,202.9Z"/><path d="M283,490.79H249.3s-5.76,55.5,16.85,55.5S283,490.79,283,490.79Z"/><path class="cls-8" d="M266.15,486.49s12-5.33,6.21-25.28-61.19,4.08-72.72-31.88,37.25-42.61,70.5-33.74,17.46-49.11,55.43-52.07,49.65,25.47,39,40.54-62.07,13.25-62.51,46.31S287.88,475,266.15,486.49Z"/><path class="cls-1" d="M364.58,384.06c6.24-8.84,4.79-22.27-5.12-31.27l-14,42C353.94,391.84,361.26,388.78,364.58,384.06Z"/><circle class="cls-7" cx="459.14" cy="144.85" r="6.43"/><circle class="cls-7" cx="234.45" cy="202.9" r="6.43"/><circle class="cls-7" cx="157.31" cy="361.41" r="4.55"/><path class="cls-6" d="M283.66,503.44s3-7.81,8.71-7.48,7.48,10.81,1,20.12-11.17,8.85-11.17,8.85"/><circle class="cls-10" cx="251.6" cy="651.54" r="6.32"/><circle class="cls-10" cx="583.86" cy="607.87" r="6.32"/></svg>