<svg id="图层_1" data-name="图层 1" xmlns="http://www.w3.org/2000/svg" viewBox="0 0 800 800"><defs><style>.cls-1,.cls-16,.cls-18{fill:none;}.cls-1,.cls-10{stroke:#ccc;}.cls-1,.cls-10,.cls-14,.cls-16,.cls-18{stroke-linecap:round;stroke-linejoin:round;}.cls-2{fill:#002fa7;}.cls-3{fill:#feb32a;}.cls-4{fill:#f9762d;}.cls-5{fill:#6cc4ff;}.cls-6{fill:#7400a5;}.cls-7{fill:#00bb85;}.cls-8{fill:#ffeb5c;}.cls-9{fill:#ff8885;}.cls-10,.cls-14,.cls-17{fill:#fff;}.cls-11{fill:#3165e9;}.cls-12{fill:#f79c2f;}.cls-13{fill:#f2f2f2;}.cls-14,.cls-16{stroke:#000;}.cls-15{fill:#ffca6e;}.cls-18{stroke:#fff;}.cls-19{fill:#dbdde2;}</style></defs><path class="cls-1" d="M690.09,510.91V236a21.66,21.66,0,0,0-21.66-21.66H354.58"/><path class="cls-1" d="M166.47,258.9V112.65A21.65,21.65,0,0,1,188.13,91H679.24"/><path class="cls-1" d="M626,498.62V324.28c0-8-6.15-14.41-13.72-14.41H413.71"/><path class="cls-1" d="M171,375.57H113.69A21.65,21.65,0,0,0,92,397.22V635.65"/><polygon class="cls-2" points="452.69 465.27 165.47 465.27 165.47 246.38 309.08 178.05 452.69 246.38 452.69 465.27"/><circle class="cls-3" cx="668.29" cy="91" r="20.8"/><circle class="cls-4" cx="607.88" cy="91" r="14.14"/><circle class="cls-5" cx="503.83" cy="214.32" r="14.14"/><circle class="cls-6" cx="636.64" cy="214.32" r="8.39"/><circle class="cls-7" cx="239.21" cy="91" r="14.14"/><circle class="cls-8" cx="357.37" cy="91" r="9.41"/><circle class="cls-9" cx="92.04" cy="635.65" r="14.14"/><path d="M203.1,626.53H190.4V583.58q.16-8.94.5-15l-.25-.08q-1.26,4.68-2.17,8.61c-.34,1.22-.59,2.2-.76,2.92q-1.17,4.1-13.95,46.46H162.49Q148.87,583.83,148,580.66q-2.5-8.35-3.34-12h-.42q.26,4.85.34,16.37v41.53h-11.7V558.18h19.38Q166,603.14,166.5,605a61.27,61.27,0,0,1,1.25,7.36h.17c.06-.67.5-3,1.34-7a.76.76,0,0,0,.08-.25q.58-2.17,13.62-46.88H203.1Z"/><path d="M251.89,610.91l13.29,1.67q-5.43,15-25.07,14.87-25.4-1-26.48-25,.92-25.49,25.23-26.41,25.56.16,25.82,26.32v3H226.41q.66,12.2,13.53,13Q249.56,618.17,251.89,610.91Zm-25.82-13.54h26.24q-.75-11.86-12.87-12.53Q226.92,585.5,226.07,597.37Z"/><path d="M310,610.91l13.29,1.67q-5.43,15-25.07,14.87-25.4-1-26.49-25,.93-25.49,25.24-26.41,25.56.16,25.82,26.32v3H284.48q.66,12.2,13.53,13Q307.63,618.17,310,610.91Zm-25.82-13.54h26.24q-.75-11.86-12.87-12.53Q285,585.5,284.14,597.37Z"/><path d="M347.9,558.27v19h11.36v9.36H347.9v23.65q-.18,7.77,5.93,7.52a8.18,8.18,0,0,0,4.43-1.26l2.42,8.44q-3.93,2.43-11.11,2.51-14.37.33-14-14.46v-26.4h-7.85v-9.36h7.85V561Z"/><path d="M132.75,678.47V639.53H145.7v39q.17,19.14,16.62,19.3,16.47,0,16.46-19.47V639.53h12.95v38.6q0,30.92-29.91,30.92Q132.83,709,132.75,678.47Z"/><path d="M217.47,701.11v25H204.94V658.58h12.53v7.85q5.17-8.85,16.54-9,18.81.92,19.64,24.82-.26,26.4-20.89,26.65Q222.23,708.71,217.47,701.11ZM217.3,681v4.51q.33,13.13,11.45,13.62,11.94,0,11.95-16.71-.25-14.86-11.78-15.2Q217.71,667.6,217.3,681Z"/><path d="M304.87,670.44l-12.7,1.43q-1.76-6-9.19-6.1-8,.16-8.19,5.68-.59,4.26,8.69,5.93c2.95.61,6.1,1.34,9.44,2.17q14.28,3.26,13.7,14.46-.17,14.7-21.39,14.79-22.23,1.08-24.9-15.21L272.78,692q1.5,7.77,11.53,7.77,9.62-.07,9.78-6.26.66-4.28-9.86-6.44c-1.28-.28-3.32-.78-6.1-1.5l-3.18-.75q-13.11-3.35-13.11-12.87.66-14.12,20.38-14.54Q300.77,656.92,304.87,670.44Z"/><path class="cls-1" d="M225.08,465.27v24a21.65,21.65,0,0,0,21.65,21.65H401.87"/><rect class="cls-10" x="529.99" y="278.16" width="192.1" height="127.24"/><line class="cls-10" x1="529.99" y1="309.86" x2="722.1" y2="309.86"/><line class="cls-10" x1="529.99" y1="341.71" x2="722.1" y2="341.71"/><line class="cls-10" x1="529.99" y1="373.55" x2="722.1" y2="373.55"/><line class="cls-10" x1="529.99" y1="405.4" x2="722.1" y2="405.4"/><line class="cls-10" x1="658.04" y1="278.16" x2="658.04" y2="405.4"/><line class="cls-10" x1="626.01" y1="278.16" x2="626.01" y2="405.4"/><line class="cls-10" x1="690.07" y1="278.16" x2="690.07" y2="405.4"/><line class="cls-10" x1="593.98" y1="278.16" x2="593.98" y2="405.4"/><line class="cls-10" x1="561.95" y1="278.16" x2="561.95" y2="405.4"/><polygon class="cls-11" points="136.66 344.79 136.66 309.05 114.46 309.05 114.46 344.79 99.15 344.79 125.56 373.38 151.97 344.79 136.66 344.79"/><path class="cls-12" d="M367.36,247a14.23,14.23,0,0,1,4.26,10.19c.06,6.57-1.72,15.2,8.18,19.52s12.7,13.53,7.87,23.53-20.82,4.4-23.61,13-3.86,12.8-15.77,13.51-22.57-10.46-42.12-5.38-47.74-2.54-50.28-9.14,55.61-42.91,55.61-42.91Z"/><path class="cls-13" d="M408.69,347.58c-11.59-18.38-52.5-12.66-52.5-12.66l-55.43-3.19s-38-8.13-50,16.25-47.17,117.53-47.17,117.53H242.4l22.07-56.88s5.26,17.68,6,30.42l-3.67-.32-4.71,24.44,4.84,1.58h0l2.27.75s77.55,25.58,113.53,24S420.29,366,408.69,347.58Z"/><path class="cls-14" d="M359.13,258.44s5.59,5.86,5.86,13.86c.14,4.33,4.74,9.45,9.8,9.45l-5.2,2.4a7,7,0,0,0-4.08,6.61c.22,6.43,0,17.33-3.72,17.51-5.33.27-14.66-2.93-16,2.14s-2.86,23.38,15.33,24c0,0-27.59,20.22-33.45,20.75s-26.92-23.45-26.92-23.45,18.92-.54,19.72-8.26,0-39.18,0-39.18S320,245.91,342.6,251,359.13,258.44,359.13,258.44Z"/><path class="cls-15" d="M353.87,235.57a12.23,12.23,0,0,0,8.21,1.72c6.67-.89,17.91-1,18.1,8.36.22,11.08-9.15,15.71-17.83,17.11a8.18,8.18,0,0,0-6.37,5.37c-1.05,2.93-2.82,6.25-5.65,7.1-5.33,1.6-10.66-8-16.79-2.67s3.2,10.4,2.4,18.13-5.6,14.39-20,13.85-27.18-7.91-37.84-1.69-10.93,17.68-25.58,18.75-17.06-9.86-26.92-11.46-29.58,3.46-35.44-9.06,18.38-13.86,24.51-23.45,16.26-14.13,28-13.59,25.05,12,35.17,9.06,24.76-24.61,33.85-33.05C318.57,233.66,339.75,226.59,353.87,235.57Z"/><path class="cls-16" d="M348,275.33s9.53,3.36,6.18,12.42a10.18,10.18,0,0,1-6.66,6.64c-5.51,1.71-11.38-2.08-11.22-7.84,0-.07,0-.13,0-.19.29-6.29,5.67-7.22,8-6.64s5.44,2.5,4.9,6.39A4.59,4.59,0,0,1,343,289.9c-2-.68-3.76-3.83-1.16-6"/><path class="cls-16" d="M269.18,465.51l-7.11-2.34,4.71-24.44s101.14,9.19,108,5.19,2.32-63.56,2.32-63.56"/><path class="cls-16" d="M270.49,439.06A107.07,107.07,0,0,0,266,414.74c-4-12.79-3.91-34.38-3.91-34.38"/><path class="cls-14" d="M266.28,441.73s-25.75-8.36-42.76-2.49-12,22.82,9,18.89,30.51.58,30.51.58Z"/><path class="cls-17" d="M401.87,730.3a.5.5,0,0,1-.5-.5V510.91a.49.49,0,0,1,.29-.45l143.61-68.32a.38.38,0,0,1,.21-.05.44.44,0,0,1,.22.05l143.6,68.32a.49.49,0,0,1,.29.45V729.8a.5.5,0,0,1-.5.5Z"/><path d="M545.48,442.59l143.61,68.32V729.8H401.87V510.91l143.61-68.32m0-1a1.07,1.07,0,0,0-.43.09L401.44,510a1,1,0,0,0-.57.9V729.8a1,1,0,0,0,1,1H689.09a1,1,0,0,0,1-1V510.91a1,1,0,0,0-.57-.9L545.91,441.68a1.07,1.07,0,0,0-.43-.09Z"/><path class="cls-13" d="M557.14,586.1s-34.47,3.33-55.6,31.15S446,729.8,446,729.8H680.11s-.07-94.25-29.65-121-54.77-22.93-54.77-22.93Z"/><path d="M557.14,586.5c8.24-.89,5.57-15,4.68-21s-12,1.34-18.06,0c-4.54-1-5.65-14.06-5.92-20.42a4.58,4.58,0,0,0-3.49-4.25l-4.85-1.18c6.46-2.9,8.47-8,8.47-11.36s2-11.15,2-11.15c2.18-12.83,20.29-20.5,32.17-16.94s16.87,16.05,15.53,45,.45,35.29,8,41.09c0,0-10.87,14.38-26.06,14.38S557.14,586.5,557.14,586.5Z"/><path class="cls-14" d="M544.65,491.7s-19.6-7.82-23.16,5,14.84,20.83,26.72,19.35c0,0,3.2,5.94,13.47,6.53s12.91,6.24,12.93,17.82,13.14,10.94,13.14,10.94,17.12-18.66,8.68-42.71-24.37-18.11-24.37-18.11S556.82,480.72,544.65,491.7Z"/><path class="cls-18" d="M560.34,520.55s-8.51,5.23-3.4,13.28a10.09,10.09,0,0,0,7.8,5c5.68.51,10.57-4.37,9.22-9.91,0-.06,0-.12-.05-.18-1.58-6-7-5.8-9.06-4.77s-4.74,3.55-3.41,7.19a4.54,4.54,0,0,0,6.73,2.4c1.82-1.09,2.83-4.48-.13-6"/><line class="cls-16" x1="624.58" y1="649.75" x2="618.13" y2="729.8"/><path d="M571.66,729.8S455.4,647.58,412.27,636.29c-27.66-7.25-38.95-5.46-43.49-3.24a1.58,1.58,0,0,0,.5,3c8.05.94,27.67,3.43,32.09,6.06,0,0-18.91,9.76-9.16,21.77s23.19,5,43.41,13.91,71.24,52,71.24,52Z"/><line class="cls-16" x1="505.88" y1="649.75" x2="500.97" y2="729.8"/><polygon class="cls-19" points="497.7 729.8 525.52 689.77 586.95 729.8 497.7 729.8"/></svg>