<svg id="图层_1" data-name="图层 1" xmlns="http://www.w3.org/2000/svg" xmlns:xlink="http://www.w3.org/1999/xlink" viewBox="0 0 800 800"><defs><style>.cls-1,.cls-12,.cls-17{fill:none;}.cls-2{fill:#ff8885;}.cls-11,.cls-22,.cls-3{fill:#fff;}.cls-4{fill:#ccc;}.cls-5{fill:#dee0e5;}.cls-6{fill:#ffcd6e;}.cls-7{fill:#3165eb;}.cls-8{fill:#f2f2f2;}.cls-9{fill:#ffce6e;}.cls-10{fill:#eaecf1;}.cls-10,.cls-11,.cls-12,.cls-16,.cls-19,.cls-20,.cls-22{stroke:#000;}.cls-10,.cls-11,.cls-12,.cls-16,.cls-17,.cls-19,.cls-20{stroke-linecap:round;stroke-linejoin:round;}.cls-13{fill:#002fa6;}.cls-14,.cls-19{fill:#002fa4;}.cls-15{clip-path:url(#clip-path);}.cls-17{stroke:#fff;}.cls-18,.cls-20{fill:#3165f0;}.cls-21{fill:#f79c2f;}.cls-22{stroke-miterlimit:10;}</style><clipPath id="clip-path"><rect class="cls-1" x="318.14" y="234.07" width="381.33" height="254.02"/></clipPath></defs><circle class="cls-2" cx="549.94" cy="243.1" r="15.06"/><rect class="cls-3" x="180.4" y="158.36" width="316.78" height="153.49"/><path class="cls-4" d="M496.68,158.86V311.35H180.9V158.86H496.68m1-1H179.9V312.35H497.68V157.86Z"/><rect class="cls-5" x="179.9" y="141.2" width="317.78" height="33.31"/><circle cx="194.76" cy="157.86" r="4.2"/><circle class="cls-6" cx="213.01" cy="157.86" r="4.2"/><circle class="cls-7" cx="231.73" cy="157.86" r="4.2"/><rect class="cls-8" x="194.69" y="190.5" width="129.91" height="107.72"/><rect class="cls-8" x="351.25" y="190.5" width="135.5" height="108.06"/><path class="cls-9" d="M442.83,251.59a29.07,29.07,0,1,0-45.54,0h0s6.47,9,5.1,14.69l17.68,4.42,17.68-4.42c-1.37-5.66,5.1-14.69,5.1-14.69Z"/><circle class="cls-10" cx="420.06" cy="280.07" r="3.24"/><path class="cls-11" d="M437.72,261.4a51,51,0,0,1-35.33,0,1.1,1.1,0,0,0-1.49,1.06l.33,12.43a2.14,2.14,0,0,0,1.26,1.89c8,3.54,17.57,3.29,17.57,3.29s9.56.25,17.57-3.29a2.11,2.11,0,0,0,1.25-1.89l.33-12.43A1.1,1.1,0,0,0,437.72,261.4Z"/><path class="cls-12" d="M401,266.78s6.72,3.26,19,3.26,19-3.26,19-3.26"/><path class="cls-12" d="M401.19,271.7s6.66,3.25,18.87,3.25,18.86-3.25,18.86-3.25"/><rect class="cls-3" x="512.44" y="296.19" width="184.07" height="191.8"/><path class="cls-4" d="M696,296.69v190.8H512.94V296.69H696m1-1H511.94v192.8H697V295.69Z"/><rect class="cls-13" x="511.94" y="279.04" width="185.07" height="33.31"/><circle class="cls-14" cx="356.06" cy="403.77" r="24.78"/><g class="cls-15"><path class="cls-16" d="M595.35,362.91s-49.84-3.2-71.29-15.72-57.29-60.62-57.29-60.62l-13.46,10s28.05,58.09,60.63,76.08,71.21,26.11,71.21,26.11Z"/><path class="cls-16" d="M569.5,309.08a62.93,62.93,0,0,0-6.86,7.66c-2.94,4-8.6,3.34-8.6,3.34l2.87,3.53a3.54,3.54,0,0,1,.6,3.33c-1.47,4.13-4.6,14-1.47,14.52,4,.67,12.46-2.26,13.52,6.33a109.82,109.82,0,0,1,.94,14.46l20-4.27s-4.53-23.18-2.79-28.11,5.19-15.66-4.14-20.79S569.5,309.08,569.5,309.08Z"/><path class="cls-11" d="M579.49,300.76a10.46,10.46,0,0,1-7.06-3.2c-2.6-2.73-6.93-5.6-11.66-1.93-6.66,5.13-.4,16.92,7.26,19.92a6.26,6.26,0,0,1,3.73,4.06c.54,1.8,1.54,3.86,3.2,4.46,3.33,1.2,8-2.66,9.53,1.2s-8.86,7.53-3.73,12.59c4.86,4.73,15.72.6,15.65-6.19,0-.94-1.6-2.87-1.26-3.73C597.14,322.14,604.47,302,579.49,300.76Z"/><path class="cls-17" d="M575.23,324.21s-5.93.13-5.67,5.79a5.89,5.89,0,0,0,2.54,4.86c2.73,1.94,6.72.87,7.66-2.33v-.13a3.82,3.82,0,0,0-3.2-5.13c-1.4-.07-3.46.4-3.86,2.67a2.64,2.64,0,0,0,2.73,3.19,2,2,0,0,0,1.73-3.13"/><path class="cls-18" d="M598.34,362.91A18.7,18.7,0,0,0,574,358.58a38.11,38.11,0,0,0-9.46,9.06c-15.65,20.39-38.44,69.15-44.77,73.42s-79.08,5-85.94,13.45l2.4,11.66s99.46,12.53,108.19.6,22-33.37,22-33.37,12.59,51.29,12,58.49l66-2.93C644.25,488.89,631.92,404.88,598.34,362.91Z"/><line class="cls-12" x1="566.3" y1="433.33" x2="581.96" y2="410.28"/><path class="cls-16" d="M434.06,456.31s-30.11,4.93-33.51,17.46,18.85-2.6,23.65-5a85.78,85.78,0,0,1,11.52-4.4Z"/><path class="cls-19" d="M580,496.82s102.39,228.5,130.24,250h27s-84.88-219.38-92.94-258Z"/><path class="cls-20" d="M644.25,488.89s17,44.24-22.39,57S505,552.18,505,552.18l30.18,117.25H513.74S447,555,466.44,524.33C466.5,524.4,486.22,486.36,644.25,488.89Z"/><path class="cls-11" d="M517.4,669.43s6.33,12.59,6.73,21.32S485.56,700.28,486,709.4h56.82s-7.06-27.51-11.52-40H517.4Z"/><path class="cls-11" d="M715.73,746.84s9.53,13.93,7.93,18.26-31,5.93-31,15.52H744l-11.53-33.78Z"/><path class="cls-16" d="M464.3,288.43s-14-28.91-24.64-32.84-4.2,13.12,3.46,20.18,13.19,18.59,13.19,18.59Z"/></g><path class="cls-14" d="M154.77,484.26s5.33,19.78,41.3,32.17,62.36,19.59,68.09,32.85S285,611.5,285,611.5l35.9-5.86s-18.38-80.28-44.5-94.27-72.81-51.63-72.81-51.63Z"/><path class="cls-18" d="M150.51,469.13S215,443.08,292,477.19s95.46,76.55,95.46,76.55l-28.91,17.12S312.19,522.23,297,515.57s-69.95,6.06-108.92-6.8S150.51,469.13,150.51,469.13Z"/><path class="cls-11" d="M385.08,555.21s12.32,16.85,25.84,23.65,31.38-13.06,44.77-6.4L409.86,608.1s-31.11-38.44-39-44.5Z"/><path class="cls-11" d="M316.06,606.5s3.86,28.78,11.06,33.58,31.77,4.26,35.5,14.32l-55.29,4.4S305,616.36,299.94,609Z"/><path class="cls-21" d="M127.72,354.08a5,5,0,0,1-2.6,3.73c-3.13,1.73-7.79,5.46-3.59,10.79,5,6.27,8.26,13.13,12.46,11,1.39-.74,1.13-.34,2.86.93s2.8-1.73,4.33-2.2c2.93-.93,2.73,5.46,7.66,6.39s7.6-10.05,11.46-6,8.93,6.13,14.52.93,7.46-13.59,14.73-13.72,12.59,6.13,19,1.8,2.46-11.26,5.73-15.46,13.72-8.06,10.32-17-13.85-1.46-20.78-4.73-13.12-2.33-17.72,1.93-4.73,15.13-10.26,16.93-21.45-5.33-29-6.93C141.25,341.09,129.39,344.29,127.72,354.08Z"/><path class="cls-22" d="M145.84,345.62a14.1,14.1,0,0,1,6.93,6.13c1.27,2.33,5.13,4,7.93,2.6l-2.27,2.73a4.26,4.26,0,0,0-.53,4.73c1.8,3.53,4.6,9.59,2.6,10.66-2.86,1.53-8.93,2.26-8.26,5.46s4.66,13.72,14.86,9.26c0,0-9.93,18.52-13,20.39S133,401.71,133,401.71s10.32-5.33,8.72-9.79-10.39-21.72-10.39-21.72-10.53-21.12,3.4-24.31S145.84,345.62,145.84,345.62Z"/><path class="cls-9" d="M154.1,333a8.86,8.86,0,0,1,.87,6.26c-.8,3.27-3.4,6-6.2,7.93a5.18,5.18,0,0,0-2.13,4.66c.2,1.94.07,4.2-1.26,5.47a4.18,4.18,0,0,1-3.13.8c-2.54-.14-5.53-.94-6.87,2.2a3.07,3.07,0,0,0,.8,3.93c1.6,1.53,4.4,2.73,5.4,5.46,1.33,3.8.4,8.39-4.66,11.59-.34.2,1.2,3,1.2,3s-2.94-.93-4.07-1.27c-.26-.06-.53-.26-.8-.33-19.58-6.53-23.11-23.92-18-34.31a58.55,58.55,0,0,1,3.8-6.53c4.07-6,10.93-8.26,17.72-7.46a7.8,7.8,0,0,0,5-1.2,21.37,21.37,0,0,1,5.06-2.53,8.79,8.79,0,0,1,3.4-.4A4.57,4.57,0,0,1,154.1,333Z"/><path class="cls-12" d="M144.18,357.94s6.19-.66,6.73,5.27a6.2,6.2,0,0,1-1.94,5.46c-2.59,2.4-6.86,1.86-8.32-1.33,0-.07,0-.07-.07-.14a4,4,0,0,1,2.67-5.79c1.39-.27,3.66-.07,4.39,2.26a2.8,2.8,0,0,1-2.4,3.73,2.13,2.13,0,0,1-2.26-3"/><path class="cls-22" d="M226.72,394.85s5.8-14.46,14.66-19.85,14.52,3.06,5.06,10.92-11,13.73-11,13.73Z"/><path class="cls-8" d="M133,401.71s-12.06,8.53-15,11.53-7.47,6.73-9.8,14c-2.4,7.46-7.66,61.62-7.66,61.62s-.53,7.4,4.73,7.66,24.52-10.12,35.18-18.65l-2.8-9.53-18.45,6.53,9.72-29.58L153.24,480s19-9.26,48.16-20.45c0,0-15.18-17.12-16.05-38.31a98.48,98.48,0,0,0,28.05,14.26,6,6,0,0,0,7.26-3.2l15.59-32.58-9.93-5.13L212,417.44s-16.66-19.32-23.85-24.32-18.19-6.93-21.05-6l-13.06,18Z"/><path class="cls-22" d="M137.78,469.07s13.53-7.73,23.85-6.4,9.46,11.46-2.86,11.66-18.46,3.06-18.46,3.06Z"/></svg>