<svg id="图层_1" data-name="图层 1" xmlns="http://www.w3.org/2000/svg" viewBox="0 0 800 800"><defs><style>.cls-1,.cls-11,.cls-6{fill:#fff;}.cls-2{fill:#dbdde2;}.cls-3,.cls-6,.cls-8{stroke:#000;}.cls-11,.cls-3,.cls-6,.cls-8{stroke-linecap:round;stroke-linejoin:round;}.cls-4{fill:#f79c2f;}.cls-5{fill:#efefef;}.cls-7{fill:#ffca6e;}.cls-8{fill:none;}.cls-9{fill:#3165e8;}.cls-10{fill:#104eb2;}.cls-11{stroke:#ccc;}</style></defs><rect class="cls-1" x="199.52" y="185.83" width="329.21" height="200.52"/><path d="M528.23,186.33V385.85H200V186.33H528.23m1-1H199V386.85H529.23V185.33Z"/><rect class="cls-2" x="199.02" y="153.1" width="330.21" height="32.23"/><rect class="cls-3" x="252.93" y="368.68" width="96.22" height="3.55"/><path class="cls-4" d="M455.28,205.06a11.84,11.84,0,0,1,3.54,8.48c.05,5.46-1.43,12.64,6.81,16.23s10.56,11.26,6.55,19.57-17.33,3.67-19.65,10.85-3.21,10.65-13.12,11.24-18.78-8.71-35-4.48-39.71-2.11-41.82-7.61,46.26-35.69,46.26-35.69Z"/><path class="cls-5" d="M489.66,288.75C480,273.45,446,278.22,446,278.22l-46.11-2.66s-31.6-6.77-41.57,13.52-39.24,97.77-39.24,97.77h32.25l18.37-47.32s4.37,14.71,5,25.3l-3-.26-3.92,20.33,4,1.32h0l1.89.63s64.52,21.28,94.45,19.95S499.31,304,489.66,288.75Z"/><path class="cls-6" d="M448.43,214.59s4.65,4.88,4.87,11.53c.12,3.61,3.95,7.87,8.16,7.87l-4.33,2a5.85,5.85,0,0,0-3.39,5.5c.18,5.34,0,14.41-3.1,14.57-4.43.22-12.19-2.44-13.3,1.77s-2.38,19.45,12.75,20c0,0-22.95,16.81-27.82,17.26s-22.39-19.51-22.39-19.51,15.74-.45,16.4-6.88,0-32.59,0-32.59-.44-31.92,18.4-27.71S448.43,214.59,448.43,214.59Z"/><path class="cls-7" d="M444.05,195.57a10.16,10.16,0,0,0,6.83,1.43c5.55-.75,14.9-.84,15.06,6.95.18,9.22-7.61,13.07-14.83,14.23a6.83,6.83,0,0,0-5.3,4.47c-.87,2.44-2.35,5.2-4.7,5.91-4.43,1.33-8.87-6.65-14-2.22s2.66,8.65,2,15.08-4.66,12-16.63,11.52-22.61-6.58-31.48-1.4-9.09,14.71-21.28,15.59-14.19-8.2-22.39-9.53-24.61,2.88-29.49-7.54,15.3-11.53,20.4-19.51,13.52-11.75,23.28-11.3,20.84,10,29.26,7.53,20.6-20.47,28.15-27.49C414.69,194,432.31,188.09,444.05,195.57Z"/><path class="cls-8" d="M439.16,228.64s7.93,2.8,5.14,10.33a8.49,8.49,0,0,1-5.53,5.53c-4.59,1.42-9.47-1.73-9.34-6.53,0-.05,0-.1,0-.15.24-5.23,4.71-6,6.62-5.53s4.53,2.08,4.07,5.32a3.82,3.82,0,0,1-5.11,3.16,2.89,2.89,0,0,1-1-5"/><path class="cls-8" d="M373.6,386.85l-5.91-2,3.92-20.33s84.13,7.64,89.85,4.32S463.39,316,463.39,316"/><path class="cls-8" d="M374.7,364.84a89.3,89.3,0,0,0-3.76-20.23C367.62,334,367.69,316,367.69,316"/><path class="cls-6" d="M371.19,367.07s-21.42-7-35.57-2.08-10,19,7.46,15.72,25.38.48,25.38.48Z"/><circle class="cls-1" cx="217.31" cy="169.21" r="4.32"/><circle class="cls-7" cx="236.62" cy="168.95" r="4.32"/><circle class="cls-9" cx="255.94" cy="168.95" r="4.32"/><polygon class="cls-3" points="311.36 372.22 222.11 372.22 206.02 314.79 295.27 314.79 311.36 372.22"/><rect class="cls-9" x="199.02" y="372.22" width="163.46" height="14.62"/><rect class="cls-1" x="453.74" y="431.39" width="248.08" height="165.72"/><rect class="cls-2" x="453.74" y="431.39" width="248.08" height="26.44"/><path class="cls-9" d="M672.39,536.26s-22.52-8-58.44-.55c-39.5,8.19-55.46,61.4-55.46,61.4H701.82V560.44C689.35,542.35,672.39,536.26,672.39,536.26Z"/><path class="cls-6" d="M616.55,480s-2,7.52-.74,12.11-4.4,7-4.4,7l3.59.9a3.66,3.66,0,0,1,2.71,2.79c.81,3.85,2.76,11.36,5.63,11.36,3.85,0,10.28-4.77,10.83,0s.73,14.5-3.49,15.78S614,535.71,614,535.71s25.36,11.41,28.66,11.26,29.78-10.71,29.78-10.71-16.93-6.88-18.21-8c-1-.89-4.47-21.3-5.76-29.12a27.28,27.28,0,0,1-.32-5.49c.29-5.87.27-20.09-6.5-20.82C633.07,471.93,619.12,470.28,616.55,480Z"/><path class="cls-3" d="M624.56,467.6a6,6,0,0,1-5.28.25c-3.89-1.68-11.14-3.63-14.66,3.16-4.41,8.49,8,13.93,15.47,12.19a3,3,0,0,1,3.4,1.62c.81,1.76,2.25,3.73,4.62,3.63,4.22-.18,6.82-7.38,12.3-5.14,4,1.65-1.28,8.63,1.19,14.32s6.82,1.53,6.82,1.53,7.71-4.78,6.06-17.53a20.5,20.5,0,0,0-7.17-13.41C642.75,464.52,635.33,461.85,624.56,467.6Z"/><path class="cls-8" d="M630.72,487.48s-6.05,3.71-2.41,9.43a7.12,7.12,0,0,0,5.54,3.58c4,.37,7.5-3.1,6.54-7l0-.13a4.6,4.6,0,0,0-6.44-3.39c-1.49.74-3.36,2.52-2.42,5.11a3.22,3.22,0,0,0,4.78,1.7,2.43,2.43,0,0,0-.09-4.28"/><path class="cls-8" d="M675.21,567.18s5.72,20,5.69,29.93"/><line class="cls-8" x1="594.57" y1="567.18" x2="594.57" y2="586.8"/><polygon class="cls-10" points="561.65 572.25 621.01 597.11 564.48 597.11 553.5 591.13 561.65 572.25"/><path class="cls-6" d="M559.88,576.35S547.06,566.12,536.1,565c-9.2-1-16.67,10.94-19.51,14-2.27,2.45,4,4.37,11.74-5.6,0,0,3.89,5.52,14.75,7.77,10.42,2.15,12.29,5.64,12.29,5.64Z"/><circle class="cls-1" cx="469.93" cy="444.61" r="3.55"/><circle class="cls-7" cx="487.33" cy="444.61" r="3.55"/><circle class="cls-9" cx="504.73" cy="444.61" r="3.55"/><rect class="cls-7" x="453.74" y="590.79" width="94.44" height="6.32"/><rect class="cls-3" x="459.56" y="588.71" width="76.66" height="2.08"/><polygon points="498.95 547.26 453.74 547.26 453.74 590.79 512.77 590.79 498.95 547.26"/><rect class="cls-7" x="453.74" y="457.83" width="126.81" height="56.42"/><rect class="cls-5" x="453.74" y="493.03" width="126.81" height="21.23"/><rect class="cls-5" x="556.97" y="469.45" width="35.19" height="11.96" transform="translate(1050 -99.14) rotate(90)"/><rect class="cls-11" x="98.18" y="518.26" width="194.22" height="128.64"/><line class="cls-11" x1="98.18" y1="550.31" x2="292.4" y2="550.31"/><line class="cls-11" x1="98.18" y1="582.51" x2="292.4" y2="582.51"/><line class="cls-11" x1="98.18" y1="614.7" x2="292.4" y2="614.7"/><line class="cls-11" x1="98.18" y1="646.9" x2="292.4" y2="646.9"/><line class="cls-11" x1="227.64" y1="518.26" x2="227.64" y2="646.9"/><line class="cls-11" x1="195.25" y1="518.26" x2="195.25" y2="646.9"/><line class="cls-11" x1="260.02" y1="518.26" x2="260.02" y2="646.9"/><line class="cls-11" x1="162.87" y1="518.26" x2="162.87" y2="646.9"/><line class="cls-11" x1="130.49" y1="518.26" x2="130.49" y2="646.9"/><circle class="cls-9" cx="292.4" cy="518.26" r="35.3"/></svg>