<?xml version="1.0" encoding="UTF-8"?>
<svg width="80px" height="80px" viewBox="0 0 80 80" version="1.1" xmlns="http://www.w3.org/2000/svg" xmlns:xlink="http://www.w3.org/1999/xlink">
    <title>插画/light/选中/三级插画/4</title>
    <g id="插画/light/选中/三级插画/4" stroke="none" stroke-width="1" fill="none" fill-rule="evenodd">
        <circle id="椭圆形" fill="#002FA7" opacity="0.400000006" cx="31" cy="47" r="17"></circle>
        <g id="社区用户" transform="translate(10.244848, 12.566515)" stroke-linecap="round" stroke-linejoin="round" stroke-width="2">
            <g id="编组">
                <path d="M43.6095236,54.0364438 C43.6095236,51.207053 42.4716164,49.1157641 40.9031497,47.6241831 C38.4120557,45.2407289 34.9675799,44.1643302 32.9070453,44.0259361 C31.2155616,43.8567877 29.6778493,43.14944 28.5553192,42.02691 L28.5399421,42.02691 C27.417412,40.8736257 26.7100643,39.3666675 26.7100643,37.6444296 L26.7100643,36.6602937 C26.7100643,35.7837976 27.2175094,34.9995643 27.9709885,34.584382 C29.5087009,33.5541147 30.3544427,31.4628258 31.0310362,29.7713422 C31.6768754,28.2028755 32.1996976,26.8496886 33.245342,25.9270612 L33.2760963,25.8655527 L33.368359,25.7732899 C33.983444,25.2350906 34.736923,24.2202004 35.1828596,23.1284246 C35.475025,22.2673057 35.5826649,21.3754325 35.0137113,20.7603475 L34.9675799,20.6527077 L34.9368256,20.6527077 C34.4140034,20.0222456 34.2294779,18.8228299 34.4755119,18.0232195 C34.9368256,16.5470156 35.2751224,15.1630744 35.4288936,13.8406417 C35.5826649,12.5489633 35.6134191,11.3649248 35.4288936,10.2577719 L35.4135165,10.2577719 C35.2136139,8.85845357 34.1218381,6.39811374 32.6456342,4.62974448 C31.8306466,3.72249417 30.9541505,3.04590072 30.2468028,3.16891771 C29.4164381,3.26118045 28.6168277,3.16891771 27.8787257,2.83062098 C27.1867552,2.47694713 26.5562931,1.96950204 26.1103565,1.24677721 C25.7413055,0.73933212 24.8494323,0.401035393 23.7884108,0.216509905 C22.4198467,-0.029524078 20.8513801,0.00123016992 19.6827187,0.00123016992 C16.8840821,0.0473615418 14.4852508,0.631692252 12.5938645,1.89261642 C10.9331351,3.03052359 9.65683385,4.73738435 8.8572234,7.13621569 C8.19600707,8.98147057 7.85771035,11.0573823 7.88846459,13.0256542 C7.91921884,14.9170404 8.22676132,16.6546554 8.88797765,18.1154822 C8.99561752,18.4384018 9.07250314,18.7613214 9.07250314,19.0688639 C9.07250314,19.6839488 8.8572234,20.2682796 8.45741818,20.7295933 L8.45741818,20.7603475 L8.38053256,20.8372331 C7.91921884,21.436941 7.99610446,22.2980599 8.27289269,23.1284246 L8.28826982,23.051539 C8.71882929,24.2355775 9.54919398,25.281222 10.1181476,25.8194213 L10.1489018,25.8194213 L10.3488044,26.034701 C11.3175632,26.9573285 11.8250083,28.2490069 12.4247162,29.7713422 C13.147441,31.5550885 14.0239371,33.7386401 15.7154207,34.7535303 C16.4535226,35.1840898 16.8840821,35.952946 16.8840821,36.7525564 L16.8840821,37.6444296 C16.8840821,39.3974218 16.1613573,40.9043799 15.0542044,42.02691 C13.9162972,43.14944 12.3785848,43.8567877 10.7178554,44.0259361 C8.64194367,44.1643302 5.18209078,45.2407289 2.72175094,47.6241831 C1.12253005,49.1157641 0,51.207053 0,54.0364438" id="Stroke-1" stroke="#002FA7"></path>
                <path d="M60,54.0518209 C60,51.8375151 59.0927497,50.222917 57.8625798,49.0235014 C55.9404393,47.1936236 53.172557,46.3478818 51.5425818,46.1633563 L51.5425818,46.1787334 C49.7280812,46.0403393 48.4056485,45.2714831 47.4522668,44.133576 C46.5142623,42.9341603 46.0683257,41.3810708 46.0683257,39.7357185 C46.0683257,38.8745996 46.5603937,38.1057434 47.2677414,37.7059381 C48.4364028,36.9217048 49.1129962,35.2609754 49.6665727,33.9231656 C50.1893949,32.5853559 50.6353315,31.4166944 51.5733361,30.5863297 L51.6040903,30.5709526 L51.6655988,30.494067 C52.1269125,30.0635075 52.7419975,29.2792742 53.0649171,28.4181553 C53.2801968,27.8645788 53.3417053,27.2956252 53.0034086,26.9111971 C52.6189805,26.4806376 52.434455,26.0039468 52.4037008,25.4349932 C52.3421923,23.9895436 52.5882262,22.7286194 52.9111459,21.4676952 C53.172557,20.3759194 53.4185909,19.1611266 53.2801968,18.084728 C53.0649171,16.9468208 52.2345524,15.0093032 51.0351367,13.625362 C50.4661831,12.9487685 49.8664753,12.4874548 49.4359158,12.5335862 C48.713191,12.6412261 47.9289577,12.5335862 47.2677414,12.2106666 L47.1447244,12.1491581 C46.5450165,11.8416156 46.0375714,11.4264333 45.6685205,10.8267254 L45.6377662,10.7959712 C45.2994695,10.3346575 43.9770368,9.81183526 42.4085702,9.47353853 L42.2547989,9.44278428 C41.4551885,9.28901304 40.6402009,9.1967503 39.9789846,9.22750455" id="Stroke-3" stroke="#000000"></path>
            </g>
        </g>
    </g>
</svg>