<svg id="图层_1" data-name="图层 1" xmlns="http://www.w3.org/2000/svg" viewBox="0 0 800 800"><defs><style>.cls-1,.cls-8{fill:none;}.cls-1,.cls-2,.cls-3,.cls-4,.cls-5,.cls-6,.cls-7,.cls-8,.cls-9{stroke:#000;}.cls-1,.cls-2,.cls-4,.cls-5,.cls-6,.cls-7,.cls-9{stroke-linecap:round;stroke-linejoin:round;}.cls-1,.cls-10,.cls-2,.cls-3,.cls-4,.cls-5,.cls-6,.cls-7,.cls-8,.cls-9{stroke-width:0.91px;}.cls-2{fill:#dadce1;}.cls-3{fill:#ffca6e;}.cls-10,.cls-3,.cls-8{stroke-miterlimit:9.15;}.cls-4{fill:#fff;}.cls-5{fill:#002f9d;}.cls-6{fill:#002f9b;}.cls-7{fill:#3165e7;}.cls-10{stroke:#fff;}</style></defs><path d="M274.74,255.71v4.72H256.19v-5.34q-.63-18.24,17.29-31.13,9.42-7.23,12.26-12c2-2.94,2.94-7,2.83-12.27q-1.72-14.93-18.08-16-22.17-1.1-26.25,22.16l-19.34-5.81q8.32-36,47-34.44,34.59,2.06,37.74,34.59.78,20.6-23.59,37.26Q273.8,245.35,274.74,255.71ZM254,273h22.95V296H254Z"/><line class="cls-1" x1="608.58" y1="591.2" x2="310.63" y2="591.2"/><path class="cls-2" d="M592.11,408s-27.67,5.23-50.18,61.48-71.59,27.11-71.59,86.68H592.11Z"/><path class="cls-3" d="M392.34,268s-4.07,4.07-9.19,4.07-13.29,6.65-13.55,12,4.86,10.23,4.09,14.58-10.22,9.67-.51,23.24,19,5.4,33.39,16.39,42.82,5.11,42.82,5.11L444.31,290s-2.36-20.37-3.12-20.54l-34.63-7.84Z"/><path class="cls-4" d="M561.13,581.9s12.25-.86,19.92,0a15.6,15.6,0,0,1,11.05,6h-31v-6Z"/><path class="cls-4" d="M484.27,413.86S541.68,575.6,558,581s36.82,4.6,38.86,10.22H554.46s-15.86.77-21.74-9.71S458.6,426.12,458.6,426.12,466.25,413.86,484.27,413.86Z"/><path class="cls-4" d="M338,357.48s-39.18,11.26-51.2,10.25c0,0,24.54-47.69,30.17-52.1s6.39-4.92,12.78,3,14.06,14.32,19.17,14.06c0,0,6.91,2.81,8.95-.26s-8.95-30.68-30.17-36.05-52.93,41.17-61.36,54.2-25.57,35.32-3.07,44,86.66-12,86.66-12Z"/><polygon class="cls-4" points="451.66 462.54 456.27 471.47 446.48 467 446.48 461.56 451.66 462.54"/><path class="cls-4" d="M401.08,334.45s-10.34,2.85-14.77,3.19-34.26,12.28-48.93,17c0,0,2.9,18.92,16.71,34.1S426,463.61,448.52,464c0,0,8.87-3.93,12.28-5.8,0,0-11.76-20.46-14.15-28.81,0,0,35.79-7.16,46.87-25.06,0,0-22.5-41.76-35.46-49.95s-29.18-17-29.18-17Z"/><path class="cls-1" d="M454.15,385.36s1.19,6.82-1,11.93-13.64,11.93-6.47,32"/><path class="cls-1" d="M371.82,366.45s-5.29,7.16-6.48,13.64-5.83,14.51-5.83,14.51"/><path class="cls-4" d="M399.26,269.46a31.9,31.9,0,0,0-6.14,10.4c-1.71,5.29-5.13,7.46-10.89,8.32a1,1,0,0,0-.58,1.67,13.88,13.88,0,0,0,3.87,2.56,3.43,3.43,0,0,1,1.89,4c-1.65,5.76-4.14,18.16,4.18,20.23,10.91,2.73,15.67-2.35,14.83,3.24-1.54,10.23-5.82,13.93-7.17,16.37-2.09,3.8-16.88,31.87,3.41,37.49,12.26,3.4,21-7.5,25.55-18.21a24.74,24.74,0,0,0-.89-21.33c-1.56-2.89-2.89-7.45-2.67-14.49.51-15.86,12.78-26.6,12.78-26.6s4.26-20.28-5.12-21.47S399.26,269.46,399.26,269.46Z"/><circle class="cls-4" cx="335.36" cy="416.44" r="104.59"/><path class="cls-4" d="M285.44,324.33c13.4-17,28.35-31.45,42.23-27.94,21.22,5.37,32.22,33,30.17,36.05s-8.95.26-8.95.26c-5.11.26-12.78-6.14-19.17-14.06,0,0-4-6.81-8-6.24C299,315.63,285.44,324.33,285.44,324.33Z"/><path class="cls-3" d="M425.35,258a8.52,8.52,0,0,1-7.05-3.15c-3.11-3.81-9.42-8.56-20.24-4.81-14.62,5.07-9.79,16.51-3,19.93a6.89,6.89,0,0,1,3.57,4.81c.94,4.69,5.17,13.65,10.81,14.81,8.35,1.7,14.18-8,20.14-4.27s-1.18,14-7.84,21.65-9.2,22.5,8.87,28.29,1.19,32.39,30.86,43.81,33.58-8.52,49.77-7.5,15.51,8.35,27.62,7.67,10.56-10.4,18.4-14.32,10.74-8.69,7.5-17.55-14.65-.86-27.95-3.76-17.9-13.8-27.78-15.16-26.76,3.75-36.14-1.88-15.85-12.1-17.39-38.86C454.17,264.28,437,257.31,425.35,258Z"/><path class="cls-1" d="M412.82,289.73s-9.87,2.62-7.24,12a10.29,10.29,0,0,0,6.16,7.23c5.41,2.17,11.63-1.17,11.94-7,0-.06,0-.13,0-.19.22-6.36-5.13-7.73-7.48-7.34s-5.68,2.08-5.45,6a4.64,4.64,0,0,0,5.88,4.32c2.11-.52,4.09-3.55,1.65-5.94"/><polygon class="cls-5" points="530.41 235.59 546.6 262.81 563.51 252.76 547.32 225.53 558.98 218.6 525.9 208.77 518.75 242.52 530.41 235.59"/><path class="cls-4" d="M380.62,590.81s13.42.6,22.45,7.26,16,39.58,23.09,36.12l-4.55-58.14a4.75,4.75,0,0,0-4.52-4.38c-9.49-.44-32.41-1.57-36.47-2.45Z"/><path class="cls-6" d="M337.38,475.63s-168.49,46-138.58,87.19,181.71,47.56,181.71,47.56V558.73l43.58.26L377,474.61Z"/><path class="cls-1" d="M380.52,591.2V558.72s-94.78-15.09-139.77-16.24"/><path class="cls-4" d="M292.05,617.72c-1.7-10.75,35.71-11.66,43.07-20.12s8.92-33,8.92-33h23.4s-4.8,37.62-5.8,48.56a5,5,0,0,1-5,4.55Z"/><path class="cls-7" d="M370.88,382.6s-21.73-10-29.14,12-27.88,170-27.88,170H369.6l9.72-63.66s28.12,90.23,67,90.23,50.88-22.47,52.16-37.56S490,509.9,445.54,458.76,390.57,393.39,370.88,382.6Z"/><path class="cls-4" d="M379.32,500.94s6.91-51.14,7.67-55.74"/><path class="cls-4" d="M348.89,332.7s.85-1.45-1.62-3.67-8.94-10.74-8.94-10.74"/><path class="cls-4" d="M343.68,316.93s12.88,15.5,12.37,16.74"/><path class="cls-4" d="M349,314.87s8.61,11.65,9,15.33"/><rect class="cls-4" x="217.73" y="617.72" width="151.58" height="4.88"/><path class="cls-1" d="M554.47,258.13s4.34,33.65,25.81,42.61,60.85,11.51,59.32,62.64-40.79,44.49-47.5,39.38-3.13-21,11.19-11.77,2.55,27.11,9.2,45,13.42,48.07-20.39,57.28"/><path class="cls-8" d="M254,284.48s-26.91-2.53-53.25,13.81c-24.26,15-41.82,47.26-40.29,76.12s35.8,37,42.45,32.95,7.16-10.74-2.55-14.83-20.46,14-11.25,29.48,15.85,3.24,28.63,16.54-7.16,35.89,10.23,43.51,24.13-2.34,24.13-2.34"/><rect class="cls-9" x="406.57" y="173.38" width="121.19" height="4.88"/><rect class="cls-9" x="375.74" y="191.42" width="82.93" height="4.88"/><path class="cls-9" d="M502.12,447h0a24.83,24.83,0,0,1-24.82-24.82V301.66a24.83,24.83,0,0,1,24.82-24.82h0a24.83,24.83,0,0,1,24.82,24.82V422.14A24.82,24.82,0,0,1,502.12,447Z"/><circle class="cls-10" cx="501.93" cy="303.32" r="19.49"/></svg>