<svg id="图层_1" data-name="图层 1" xmlns="http://www.w3.org/2000/svg" viewBox="0 0 800 800"><defs><style>.cls-1{fill:#5f82d6;}.cls-14,.cls-16,.cls-2{fill:#fff;}.cls-10,.cls-11,.cls-12,.cls-13,.cls-14,.cls-15,.cls-16,.cls-2,.cls-3,.cls-4,.cls-5,.cls-6,.cls-7,.cls-8,.cls-9{stroke:#000;}.cls-10,.cls-13,.cls-17,.cls-2,.cls-4,.cls-5,.cls-7,.cls-8,.cls-9{stroke-linecap:round;}.cls-10,.cls-13,.cls-14,.cls-17,.cls-2,.cls-4,.cls-5,.cls-7,.cls-8,.cls-9{stroke-linejoin:round;}.cls-11,.cls-12,.cls-13,.cls-14,.cls-15,.cls-16,.cls-17,.cls-2,.cls-3,.cls-4,.cls-5,.cls-6,.cls-7,.cls-8,.cls-9{stroke-width:0.91px;}.cls-3,.cls-8{fill:#ffcd6e;}.cls-11,.cls-12,.cls-15,.cls-16,.cls-3,.cls-6{stroke-miterlimit:9.15;}.cls-4{fill:#3165eb;}.cls-11,.cls-17,.cls-5{fill:none;}.cls-6{fill:#e6e8ec;}.cls-10,.cls-9{fill:#dee0e5;}.cls-10{stroke-width:0.91px;}.cls-12{fill:#1331a1;}.cls-13{fill:#3165f0;}.cls-15{fill:#f9762d;}.cls-17{stroke:#fff;}</style></defs><path class="cls-1" d="M108.74,318.54l-.08.07-1.2-.85A12.54,12.54,0,0,0,108.74,318.54Z"/><rect class="cls-2" x="138.93" y="203.23" width="456.01" height="310.51"/><rect class="cls-2" x="138.93" y="202.94" width="456.01" height="34.09"/><circle class="cls-2" cx="159.48" cy="220.02" r="5.1"/><circle class="cls-3" cx="180.68" cy="219.88" r="5.1"/><circle class="cls-4" cx="201.8" cy="219.88" r="5.1"/><line class="cls-5" x1="33.75" y1="631.38" x2="766.25" y2="631.38"/><path class="cls-6" d="M421.09,564.05a67.2,67.2,0,0,0-67.2,67.19H488.28A67.25,67.25,0,0,0,421.09,564.05Z"/><rect class="cls-2" x="175.08" y="168.64" width="456.01" height="310.51"/><rect class="cls-2" x="175.08" y="168.28" width="456.01" height="34.09"/><circle class="cls-2" cx="195.63" cy="185.36" r="5.1"/><circle class="cls-3" cx="216.82" cy="185.22" r="5.1"/><circle class="cls-4" cx="237.94" cy="185.22" r="5.1"/><rect class="cls-7" x="568.51" y="215.98" width="141.82" height="9.21"/><rect class="cls-7" x="518.61" y="242.77" width="141.82" height="9.21"/><polygon class="cls-8" points="62.17 535.91 83.79 513.65 94.28 523.86 94.35 528.68 111.65 545.55 92.44 565.32 62.17 535.91"/><polygon class="cls-8" points="148.64 519.33 118.16 513.65 115.47 528.04 118.16 532.01 113.77 555.83 140.91 560.86 148.64 519.33"/><polygon class="cls-9" points="235.54 401.46 235.54 337.6 265.65 337.6 272.67 344.69 322.43 344.69 322.43 401.46 235.54 401.46"/><path class="cls-9" d="M394.08,386.86A92.62,92.62,0,0,0,400,411.45H355.31V327.61h39.48l8.36,8.36a92.63,92.63,0,0,0-9.43,35.37A104.75,104.75,0,0,0,394.08,386.86Z"/><path class="cls-8" d="M469.42,336.9v74.56H400a92.62,92.62,0,0,1-5.88-24.59,94.94,94.94,0,0,1-.28-15.52A93.19,93.19,0,0,1,403.22,336l.92.93h65.28Z"/><path class="cls-9" d="M589.2,344.69v56.77H577.93a93.37,93.37,0,0,0,2.91-30.12c-.08-1.14-.15-2.34-.29-3.48a94.42,94.42,0,0,0-5.38-23.17Z"/><path class="cls-3" d="M577.93,401.46H502.3V337.6h30.05l7,7h35.79a94,94,0,0,1,5.39,23.17c.15,1.13.21,2.34.29,3.47A91.51,91.51,0,0,1,577.93,401.46Z"/><rect class="cls-9" x="217.03" y="265.09" width="328.01" height="29.2"/><rect class="cls-9" x="560" y="265.09" width="29.2" height="29.2"/><rect class="cls-10" x="96.43" y="527.2" width="29.2" height="29.2" transform="translate(-413.69 367.05) rotate(-60)"/><rect class="cls-2" x="63.03" y="548.81" width="85.9" height="63.64"/><path class="cls-11" d="M194.78,435.77s-15.45,46.77-11.4,68.53c.56,3.05,1.49,10.07,5.24,11.06,2.12.57,4.18-1.2,5.18-3.19a8.3,8.3,0,0,0,.28-7.3,3.7,3.7,0,0,0-3.26-2.19c-1.63.07-2.76,1.77-2.91,3.4-.21,2.27,1,4.39,2.27,6.31,4.61,6.81,3,13.54,1.35,21.12A58.6,58.6,0,0,1,185,550.24a68.64,68.64,0,0,1-20,21.61,66.64,66.64,0,0,1-16.23,8.72"/><line class="cls-11" x1="47.14" y1="612.46" x2="161.18" y2="612.46"/><path class="cls-12" d="M77.91,613.37a9,9,0,1,1-9,9A9,9,0,0,1,77.91,613.37Z"/><circle class="cls-12" cx="133.9" cy="622.38" r="9"/><polygon class="cls-7" points="258.57 391.25 222.57 385.23 221.64 391.25 257.01 396.64 258.57 391.25"/><path class="cls-12" d="M257,396.64S293.3,467,279.76,495.93s-74,97.46-74,97.46L183.16,577S246,495.51,241.91,466.24s-16.15-74.35-16.15-74.35Z"/><path class="cls-13" d="M221.64,391.25s-14.88,16.95-5.52,62.66,37.63,146.78,37.63,146.78H282L252.54,396Z"/><path class="cls-2" d="M272.25,600.69s.92,11.76,9.7,17.85S302.3,624,304.42,631.3H258.77a116.71,116.71,0,0,1-.92-14.38c.07-5.81.92-16.16.92-16.16h13.47v-.07Z"/><path class="cls-2" d="M199.39,588.71s-3.83,2.41-4.75,11.91a149.56,149.56,0,0,0,0,21.62s7.58,2.76,8.93,8.93h-11.7l-22.32-20.48s4.68-8.65,8.65-14.75c2.69-4.11,11.63-14.24,11.63-14.24Z"/><path class="cls-2" d="M260.77,327.61s.14-2.41.42-5.1,2.4.35,6.59-.21,3.76-7.8,4.47-10.56a6.71,6.71,0,0,1,2.83-3.9s-3.76.08-4.53-5.31a10.28,10.28,0,0,0-.36-2.13,10.84,10.84,0,0,0-9.64-7.86C245,291.19,248.5,305,249,313.59c.57,9.28-4,10.84-4,10.84L256,343.85C256.16,343.84,267.14,339.73,260.77,327.61Z"/><path class="cls-5" d="M259.35,306.63s4.61,1.77,2.91,6.16a5,5,0,0,1-3.33,3.19,4.19,4.19,0,0,1-5.46-4v-.07a3.24,3.24,0,0,1,4-3.19,2.86,2.86,0,0,1,2.34,3.19,2.21,2.21,0,0,1-3,1.77,1.72,1.72,0,0,1-.49-3"/><path class="cls-7" d="M266.5,289.76a5.73,5.73,0,0,0,2.91.13c2.35-.49,6.95-.77,8.29,3.76,1.21,4.05-3.26,5.81-6.52,6.53a4.53,4.53,0,0,0-3.48,3.25,5,5,0,0,1-4.32,3.9c-5,.64-4.83-1-9.71.64s-8.22-2.84-8.51-5.67-.13-9.85,7.23-12.69C257.79,287.5,263.81,288.91,266.5,289.76Z"/><path class="cls-7" d="M246.87,293.8s-1.49-9.57-11.48-8.93-4.46,10.27-14.46,13.47-14.24-4.61-25.16-1.7-7.79,13.61-11.63,20.27-9.13,5.67-10.27,13.18,5.32,6.88,5.6,13.11,6.94,8.51,12.9,4.46,5.1-6,15.59-6.94,4.46-16.09,10.49-25.66,17.57,2.2,26.65-12.9C245.1,302.31,243.62,299.4,246.87,293.8Z"/><path class="cls-14" d="M290.88,360.28l-19,11-1.21-2.62-7.43,25.44L220,386.85l1-23.32-17.57-12s24.38-28.92,43.73-28.84c0,0,6,18.42,11.19,17.85s2.35-13,2.35-13C276.28,337.67,290.67,360.14,290.88,360.28Z"/><path class="cls-5" d="M269.13,341.85a13.72,13.72,0,0,0,.49,6.66c1.21,3.26,4.82,7.23,1.06,20.07"/><polyline class="cls-5" points="221.07 363.54 232.42 371.2 239.65 341.85"/><path class="cls-2" d="M211.79,357.23s-23.32,41.68-21,81.65c0,0,0,4.89,1.78,5.67s2.55-5.67,4.11-9-.43-8.44,1-13.75,9.08-36.43,25.23-57.06Z"/><path class="cls-2" d="M288.83,361.49s20.84,19,54.64-.29c0,0,5.32-5.1,4.68-20.41s4-5,4-5,5.75,15-.77,26.73-33.25,18.49-51.82,18.49-24.87-11.48-24.87-11.48Z"/><circle class="cls-15" cx="330.65" cy="541.87" r="21.26"/><path class="cls-7" d="M566.24,461.13s-7.72-3.25-21.62-3-17.15,8.93-17.15,8.93-1,3.19,5,2.91,19.56-5.11,30.9-1.56Z"/><path class="cls-13" d="M663.33,434.49A724.57,724.57,0,0,1,557.87,456.1l2,12.33s38.13,6.45,81.44-5Z"/><path class="cls-7" d="M581.05,600.19s-.93,11.91-9.85,18.08-20.56,5.52-22.76,12.9h46.22a128.88,128.88,0,0,0,1-14.6c-.08-5.88-1-16.38-1-16.38Z"/><path class="cls-7" d="M707.07,601.12s12-.08,18.85,8.28,7.23,20.07,14.75,21.55l-3.9-46.07a122.67,122.67,0,0,0-14.6.28c-5.88.57-16.23,2.34-16.23,2.34Z"/><path class="cls-16" d="M658,565.82c-6.17-.07-13.61-1.84-21.41-4.39h0a1.28,1.28,0,0,0-.49-.13c-.08-.08-.21-.08-.29-.14-3.19-1.06-6.44-2.27-9.64-3.54-.07-.08-.21-.08-.28-.14A358.18,358.18,0,0,1,585.65,538h0a1.31,1.31,0,0,1-.49-.29c4.89,13.75,11.69,69.18,11.69,69.18L571,607.8s-4.33-33.38-6.88-54.57c-2.55-20.84-2.48-38.06,6-39.91s74.2,19,74.2,19,2.35,2.06,5.53,5.11C659.51,547,677,566.17,658,565.82Z"/><path class="cls-16" d="M656,602.18c6.1-11.48,20.84-41,21.05-61,.36-25.23-38.62-17.51-38.62-17.51a269.8,269.8,0,0,0-7.79,32.61c-2.84,17.72-3,35.15-4.61,51-.78,7.23-.08,16.3,6.37,21,5.81,4.18,14.32,3.68,21,3.25,20.34-1.42,65.06-25.23,65.06-25.23L716.63,583Z"/><path class="cls-12" d="M653.48,631.45a12.45,12.45,0,0,1-9.21-5.18l-116-161.94A12.39,12.39,0,1,1,548.44,450l116,161.94a12.44,12.44,0,0,1-2.91,17.29A12,12,0,0,1,653.48,631.45Z"/><path class="cls-12" d="M580.84,371.34c-.08-1.14-.15-2.34-.29-3.48a94.42,94.42,0,0,0-5.38-23.17,93.79,93.79,0,0,0-160.54-26.51A95.49,95.49,0,0,0,403.15,336a92.44,92.44,0,0,0-9.42,35.36,102.12,102.12,0,0,0,.28,15.53,92.32,92.32,0,0,0,5.88,24.59,93.87,93.87,0,0,0,20.56,31.68,91.09,91.09,0,0,0,7.58,6.87,93,93,0,0,0,50.53,20.7c.57.07,1.06.07,1.56.13a92.89,92.89,0,0,0,16.66-.21,91.88,91.88,0,0,0,25.3-6.16l3-1.27c.64-.29,1.27-.57,1.84-.85a90.85,90.85,0,0,0,13.46-7.73c.28-.14.49-.36.78-.5,2.27-1.55,4.39-3.25,6.52-5a79.81,79.81,0,0,0,6.31-5.88,87.37,87.37,0,0,0,5.88-6.6,94.56,94.56,0,0,0,18-35.08A92.36,92.36,0,0,0,580.84,371.34ZM544,423.5h0a72.74,72.74,0,0,1-49.26,26.57,72.29,72.29,0,0,1-39.26-6.94A73.14,73.14,0,0,1,441.21,434a71.4,71.4,0,0,1-18.42-22.54,73.27,73.27,0,0,1-8.15-40.11,72.38,72.38,0,0,1,12-34.44c1.27-1.92,2.69-3.83,4.18-5.68a73.08,73.08,0,0,1,122.05,13.4,71.52,71.52,0,0,1,7.23,24.66c0,.21.08.42.08.64a74,74,0,0,1-3.69,31.54A75.57,75.57,0,0,1,544,423.5Z"/><path class="cls-7" d="M659.79,439.66c-.56-.56-1.06-1.2-1.55-1.7a9,9,0,0,1-1.91-2.55,2.65,2.65,0,0,1-.15-1.27c1.49-8.51-.07-10.49-1.21-10.91a1.8,1.8,0,0,0-.64-.14c-1.06-.08-7.23-.78-7.58-3.19-.29-2,2.34-6.45,3.76-8.65a2.52,2.52,0,0,0,.07-2.62c-.92-1.56-2.12-4-.85-3.2a10.11,10.11,0,0,0,1.27.5,5.18,5.18,0,0,0,4.26-1.21,25.88,25.88,0,0,1,7.37-4.47,2.52,2.52,0,0,1,1.91.08c2.55,1.27,9.36,5.39,7.94,11.48-1.77,7.45-.49,23.53-.49,23.53a30.33,30.33,0,0,0,3.54,2.91c1.06.7-6,2.48-9.08,3.61a5.86,5.86,0,0,1-5.88-1.35A11.27,11.27,0,0,0,659.79,439.66Z"/><path class="cls-16" d="M674.11,394.94a6.85,6.85,0,0,1-3.4-1.77c-2.84-3-9.71-8.8-13.47-2.13-4.11,7.23,4.33,12.33,7.16,13.75a.93.93,0,0,1,.43,1.27c-.43,1.06-.93,2.77-.08,3.9,1.27,1.7,3.33-.7,5.39,3.05s-5.1,4.46-5.18,6.88,6.52,7,6.52,7,17.86-4.67,14-17C685.45,409.9,686.44,397.57,674.11,394.94Z"/><path class="cls-17" d="M664.75,410.18s-4.39-1.27-5.52,3a4.62,4.62,0,0,0,.7,4.18,3.85,3.85,0,0,0,6.24,0,.07.07,0,0,1,.07-.07,3,3,0,0,0-1.21-4.54,2.68,2.68,0,0,0-3.47,1.06,2.1,2.1,0,0,0,1.27,3.05,1.55,1.55,0,0,0,2-1.91"/><path class="cls-7" d="M615.78,512.88s-11.12,2.83-16.87,1-18.64-.85-20.76,2.84,12.61,8.15,19.42,7.23c7.44-1,21.76-3.76,21.76-3.76Z"/><path class="cls-13" d="M671.77,430.8s-32.68-8.43-36.93,71l-20.2,7.44,3.76,12.33,12.76-.35s.15.28-3.12,10.84l63.64,12C691.76,544.06,711.82,457.45,671.77,430.8Z"/><path class="cls-5" d="M681.9,457.1s6.17,33.59-8.22,49.55-42.38,14.67-42.38,14.67"/><path class="cls-5" d="M633.92,502.38l25.16-11.69.21-8.22s0-8.86-.49-15"/></svg>