<svg id="图层_1" data-name="图层 1" xmlns="http://www.w3.org/2000/svg" viewBox="0 0 800 800"><defs><style>.cls-1,.cls-2,.cls-9{fill:none;}.cls-1,.cls-10,.cls-2,.cls-3,.cls-4,.cls-5,.cls-6,.cls-7,.cls-8{stroke:#000;}.cls-1,.cls-4,.cls-5,.cls-7,.cls-8,.cls-9{stroke-linecap:round;stroke-linejoin:round;}.cls-1,.cls-10,.cls-2,.cls-3,.cls-4,.cls-5,.cls-6,.cls-7,.cls-8,.cls-9{stroke-width:0.91px;}.cls-10,.cls-2,.cls-3,.cls-6{stroke-miterlimit:9.15;}.cls-3{fill:#ffcb6e;}.cls-4{fill:#dbdde2;}.cls-5{fill:#3165e8;}.cls-6{fill:#fff;}.cls-7{fill:#002f9c;}.cls-9{stroke:#fff;}.cls-10{fill:#7400a5;}</style></defs><line class="cls-1" x1="105.61" y1="627.77" x2="694.39" y2="627.77"/><path class="cls-2" d="M446.65,564.39,603.83,398A130,130,0,1,0,418.22,580.09Z"/><path class="cls-3" d="M612.41,627.77c34.07,0,61.7-42,61.7-93.8H550.71C550.71,585.77,578.33,627.77,612.41,627.77Z"/><path class="cls-4" d="M584.19,480s-60.92-22.06-75.88-16.63-83.88,84.48-83.88,84.48l28.15,21,64.28-70.49s46.61,29.52,87.58,32.82l22.09-43.52Z"/><path class="cls-4" d="M641.5,482.56s4.64,37.05-22.94,47.34-86.22-8-86.22-8-12.62,65.83-23.5,81.17H469.42l32.83-82.92s9.9-30.87,37.08-32.24S641.5,482.56,641.5,482.56Z"/><path class="cls-5" d="M609.11,484.41,584.18,480c.39-4.27,1-24.07,1-24.07l-27.77-7c9.71-35.54,39.42-48.79,39.42-48.79l32.24.53c38.64,27.09,28.35,69,28.35,69l-15.9-2.91h0A29.5,29.5,0,0,1,609.11,484.41Z"/><path class="cls-1" d="M631.76,427.56a94,94,0,0,1-5.24,36.11l15,3.11"/><path class="cls-1" d="M583.8,421.54s-4.86,8-3.69,13.78,5.31,12.43,5,20.59"/><path class="cls-6" d="M646.72,467.75s-4.16,24.09-16.65,21.76-47.52-14.76-47.52-14.76L578,464.65s36.9,8.74,44.87,8.74,8.37-8.74,8.37-8.74Z"/><path class="cls-6" d="M602.68,483.21l-17.51-47.89-84.09-7.41,14.7,34.59s12.68-1,68.4,17.49Z"/><path class="cls-6" d="M622.87,396.35a3.85,3.85,0,0,1-1.59-3.11c0-5.91-.14-21.8-1-29.23-1.09-8.9-15-8.71-15-8.71a65.94,65.94,0,0,0-6.58,11.12,5.85,5.85,0,0,1-4.15,3.36,4.81,4.81,0,0,1-1.42.05c-2-.23,1.62,2.53,3.18,3.67a1.24,1.24,0,0,1,.48,1.28c-.49,2.1-1.62,7.74-.31,10,1.63,2.75,7,.74,7,.74s5.29-2.61,4.44,7.7a3.84,3.84,0,0,1-2.31,3.21l-8.7,3.73s-5.24,15.39,7.38,15.78,24.86-15.24,24.86-15.24S626.31,398.84,622.87,396.35Z"/><path class="cls-3" d="M606.4,349a1.82,1.82,0,0,1-2.25-.09c-1.91-1.61-5.87-4.08-9.42-.85-4.63,4.22-1.68,14,8.33,13.79a1.93,1.93,0,0,1,2,1.56,5.76,5.76,0,0,0,3.89,4.42c4.47,1.6,7.27-3.65,10.54-1,2.23,1.8.61,5.08-1.1,7.1a1.63,1.63,0,0,0,.17,2.24l2.57,2.31s8-5.39,8.9-13.06A13.53,13.53,0,0,0,626,354a3,3,0,0,1-.72-1.13c-.57-1.74-2.72-6.3-9.23-6.36C610.75,346.42,607.81,347.92,606.4,349Z"/><path class="cls-3" d="M625.3,352.71a4.51,4.51,0,0,1-.52-2.19c.06-2.62,1-8.39,8.21-9.14,9.37-1,8.5,9.52,8.5,9.52s-1,8.76-12.22,8.12a21.85,21.85,0,0,0-2.82-4.54,8.62,8.62,0,0,1-1-1.54Z"/><path class="cls-6" d="M473.5,603.11s-2.33,10.48-12.23,12.62-23.5,5.83-23.69,12h42.48a1.41,1.41,0,0,0,1.42-1.39,89.15,89.15,0,0,1,.76-10.94,72.81,72.81,0,0,1,3.3-12.33Z"/><path class="cls-6" d="M440.55,559.85s-3.36,8.89-14.82,12-22.52,2.52-26,9.13l34.6,7a2.24,2.24,0,0,0,2.46-1.18c1.86-3.69,7-13.26,13.55-19.68Z"/><path class="cls-1" d="M610.63,368.2s-5.18,2.29-2.92,7.21a5.72,5.72,0,0,0,4,3.42,4.72,4.72,0,0,0,5.93-4.87s0-.07,0-.1a3.68,3.68,0,0,0-4.74-3.37,3.27,3.27,0,0,0-2.46,3.79,2.58,2.58,0,0,0,3.6,1.86,2,2,0,0,0,.39-3.41"/><polygon class="cls-6" points="136.16 416.53 136.16 475.99 229.26 475.99 136.16 416.53"/><path class="cls-3" d="M226.15,494.38c1,0,2.08,0,3.11.09V476h-93.1V553.7h30.68A59.31,59.31,0,0,1,226.15,494.38Z"/><rect class="cls-4" x="136.16" y="391.35" width="93.1" height="25.18"/><path class="cls-1" d="M227.28,230.77s5.4,2.39,3,7.53a6,6,0,0,1-4.18,3.57c-3.29.75-6.55-1.73-6.19-5.08,0,0,0-.08,0-.11a3.84,3.84,0,0,1,4.95-3.52,3.43,3.43,0,0,1,2.57,4,2.69,2.69,0,0,1-3.76,1.94,2,2,0,0,1-.4-3.55"/><path class="cls-6" d="M264.05,332.94s7.15,16.12,52,27.84l-6.24,18.1s-39.39-7.91-59.17-24.64S264.05,332.94,264.05,332.94Z"/><polygon class="cls-4" points="251.65 352.82 161.23 355 191.65 303.58 275.76 314.08 251.65 352.82"/><polygon class="cls-7" points="216.95 374.82 226.08 513.54 256.3 513.54 261.36 374.82 216.95 374.82"/><path class="cls-5" d="M136.22,357.45s-3,33.6,33.88,38.26,85-6.28,85-6.28l35.89,100,35.9-12.58S292.8,365,271.91,355s-113-1.92-113-1.92Z"/><path class="cls-6" d="M194.54,250.65s-37.27,2.28-54.31,22.22c-13.13,15.36-26.46,33.61-24.33,56.89s11.11,30,38.33,28.29,52.93-12,52.93-12l-9.43-19.92s-12.17,2.73-21.6,3.19l15.52-25.71L258,311.65s-11.41-33-27.53-48.22Z"/><path class="cls-8" d="M226.68,258.78c2.47,2.89,3.75,4.65,3.75,4.65l-15.67,8.37c-2.43-4-20.22-21.15-20.22-21.15,2.25-.2,6.91-.54,9.72-.75a4.82,4.82,0,0,0,3.61-2l4.46-6.33s-3.19-14,4.41-19.28,17.48,0,17.48,0a11,11,0,0,1,7.58,10.18,21.83,21.83,0,0,1-.21,2.19c-.6,5.54,3.16,6.38,3.16,6.38a6.68,6.68,0,0,0-3.79,3.18c-1.08,1.94-2.09,6.53-4.38,8.47a3.48,3.48,0,0,1-3.6.48c-1.2-.5-3.34-1.43-4.9-2.27-2.28-1.21-4.41,1.68-4.33,3.27S226.68,258.78,226.68,258.78Z"/><path class="cls-6" d="M238.08,213.93a2.83,2.83,0,0,0,2.73.87c3.37-.73,10.27-1.36,11.52,5.37,1.45,7.77-8.84,8.7-13.71,7.93a3.19,3.19,0,0,0-2.81,1,7.9,7.9,0,0,1-5.69,2.21c-5.32.15-5.32-5.1-10.64-2.59-4.59,2.17-.77,6.7-2.14,10.35a5.12,5.12,0,0,1-2.44,2.82,3.79,3.79,0,0,1-4.34-.65c-2.76-2.66-7.6-9.13-1.8-18.3a6.78,6.78,0,0,0,1-2.49c.54-3,3-10.46,13.84-10.58C232.86,209.74,236.62,212.28,238.08,213.93Z"/><path class="cls-1" d="M160.31,279.1s-21.14,27.68-17,47.14"/><path class="cls-1" d="M135.22,322.75s13.54,8.82,40.92,6.54"/><path class="cls-4" d="M238.25,290.66s1.8,12.73,1.2,18.73"/><path class="cls-8" d="M315.16,363.41s23.27,7.76,30.36,8.37l-2.63,17.65s-29.14-13.22-31.2-15.95Z"/><path class="cls-6" d="M326.13,358.88c2.18.86,27.12,4.87,27.12,4.87L345.46,394l-21.29-4Z"/><path class="cls-8" d="M352.34,373.2a2.94,2.94,0,0,0-3.89-1.31c-1.81.84-4.12,3-4.75,8.27s1.06,7.68,2.53,8.6a2.78,2.78,0,0,0,3.28-.24c1.34-1.11,3.21-3.45,3.72-8C353.64,376.85,353,374.57,352.34,373.2Z"/><path class="cls-8" d="M199.25,329.29s7.22-3.75,20.67-4.56,17.31,7.3,17.31,7.3,1.22,3-4.67,3.24-19.32-3.4-30.05.94Z"/><path class="cls-8" d="M235.61,513.54A85.24,85.24,0,0,1,234,534a73.9,73.9,0,0,0-1.42,19.67h28.8s.4-6.9-9.93-6.7A41.65,41.65,0,0,0,248,532c-3.45-7.91-1.09-18.45-1.09-18.45H235.61Z"/><path class="cls-6" d="M324.18,477.77s2.89,8.59,11.62,9.81,27,2.83,28.39,7.5l-43.87,12.06a1.27,1.27,0,0,1-1.54-.83,59.08,59.08,0,0,1-2.69-12.65,37.68,37.68,0,0,0-3-12Z"/><path class="cls-9" d="M252.16,546.06s-5.18.15-7,2.32"/><polygon class="cls-6" points="122.74 553.69 369.15 553.69 369.15 571.75 285.5 571.75 250.81 627.77 122.74 627.77 122.74 553.69"/><circle class="cls-10" cx="345.52" cy="599.73" r="27.98"/><circle class="cls-7" cx="555.61" cy="230.77" r="58.54" transform="translate(238.82 742.24) rotate(-80.78)"/><path class="cls-1" d="M338.63,361.32s6.29-7.05-4.66-20-34.54-48.64,6.46-78.65,97.61-9.45,108,24.68-24,36.12-29.76,35.39c-7.27-.91-14-10.19-9.24-18.29,6.8-11.66,39.29,4.14,33.62,18.29s-38.95,21.34-39.75,40.66c0,0-3.65,25,31.63,26s55.45-48.41,83.84-39.23c0,0,26,6.55,3.05,48.14-1.65,3-5,7.11-2.52,9.55,3.65,3.65,10,10,8.43,22.4"/></svg>