<svg id="图层_1" data-name="图层 1" xmlns="http://www.w3.org/2000/svg" viewBox="0 0 800 800"><defs><style>.cls-1,.cls-10,.cls-11,.cls-2,.cls-3,.cls-4,.cls-5,.cls-6,.cls-8,.cls-9{stroke:#000;}.cls-1,.cls-10,.cls-3,.cls-4,.cls-5,.cls-7,.cls-9{stroke-linecap:round;stroke-linejoin:round;}.cls-1,.cls-10,.cls-11,.cls-2,.cls-3,.cls-4,.cls-5,.cls-6,.cls-7,.cls-8,.cls-9{stroke-width:0.91px;}.cls-2{fill:#ffcc6e;}.cls-11,.cls-2,.cls-6,.cls-8{stroke-miterlimit:9.15;}.cls-3{fill:#3165ea;}.cls-4{fill:#dddfe4;}.cls-5,.cls-6{fill:#fff;}.cls-7,.cls-9{fill:none;}.cls-7{stroke:#fff;}.cls-10{fill:#002f9e;}.cls-11{fill:#f9762d;}</style></defs><polygon class="cls-1" points="322.97 556.08 228.29 556.08 120.17 274.79 214.85 274.79 322.97 556.08"/><polygon class="cls-2" points="214.85 274.79 120.17 274.79 201.56 486.55 248.71 362.88 214.85 274.79"/><circle class="cls-3" cx="597.87" cy="263.25" r="49.74"/><polygon class="cls-2" points="666.75 313.76 499.6 312.07 559.73 443.58 666.75 313.76"/><path class="cls-4" d="M321.26,450.89a118.1,118.1,0,0,0,231.39,0Z"/><circle class="cls-5" cx="522.18" cy="509.31" r="41.05"/><path class="cls-2" d="M463.69,163.75s-3.65.92-4.56,6.16-5.48,6.86-5.63,13.7,5.33,10.72,13.61,10.41,8.06-4,16.51-5.16S503,189,516,179.5s5.55-14.07,1.83-14.23-11,6.09-22.36,4.8S476.9,159.57,463.69,163.75Z"/><path class="cls-5" d="M462.44,181.46s-21.11,36.82-19.51,46.4,22.21-10.8,22.21-10.8l-7.34-7.45,7.84-19.94S463.57,188.21,462.44,181.46Z"/><path class="cls-6" d="M412.87,271.89s-5.09,10.21-1.64,14.16,8.72,1.83,8.72,1.83S408.63,285.82,412.87,271.89Z"/><path class="cls-5" d="M463.73,215.43l-5.93-5.81,1.73-4.27,22.8-23.26s8.51-10.14,21.21-4.54a20.22,20.22,0,0,0-12.6,6.06c-5.57,5.55-26.72,28.23-26.72,28.23l1.81,1.5Z"/><path class="cls-6" d="M483,192c-6.54-8.82-10.07-5.66-10.07-5.66s-5.17,4.87-7.3,3.35-3.19-8.22-3.19-8.22-6.24-1.21-4.26-1.83a5.92,5.92,0,0,0,3-2.89,53.5,53.5,0,0,1,1.22-12s10-4.56,14.14,1.52S492,182.53,492,182.53Z"/><path class="cls-1" d="M549.2,207.16s-57.37,10.34-78.86,82l24.3,5.14,70.42-77.12Z"/><path class="cls-7" d="M551.73,203.9s-47.7,34.78-82.61,85.31"/><polygon class="cls-5" points="630.47 617.79 577.25 617.79 430.3 229.36 483.52 229.36 630.47 617.79"/><polygon class="cls-4" points="483.52 229.36 430.3 229.36 461.11 311.52 496.33 263.25 483.52 229.36"/><path class="cls-5" d="M463.26,323.87s-4.56,12.37-14.6,19.17-16.93,2.53-21,8.91l28.9,5.79s3.24-16.12,15.41-27.89Z"/><path class="cls-8" d="M552.52,187.66s30.19,6.51,30.65,22-34.53,41.82-34.53,41.82-36.35,26-69.06,83.81l-28.14-15.51s29-59.81,97.76-112.65A18.48,18.48,0,0,0,558.9,197C562,189.66,552.52,187.66,552.52,187.66Z"/><path class="cls-5" d="M464.22,211.84l28.07-29.65s6-7.07,22.21-3.42,38,8.9,38,8.9,8.9,2.2,6.61,8.51-5.62,10-16.12,13.39-13.15.91-22.43.68-10.8,3.65-17.41,3.35-9.81-1.67-9.81-1.67l-15.06,11.56Z"/><path class="cls-9" d="M472.73,174s-2.85.54-3.41,3.08a4.32,4.32,0,0,0,.22,2.5,4.74,4.74,0,0,0,3.68,3.14,5,5,0,0,0,4.23-1.6c2.73-2.57-.13-4.14-1.54-4.71a2.85,2.85,0,0,0-2-.13,2.43,2.43,0,0,0-1.7,1.88c-.59,2.36,2.41,2.7,2.41,2.7"/><path class="cls-2" d="M473.12,160.45a9.6,9.6,0,0,1-5.16-.55c-2.27-.9-7.07-2.17-9.61,1.41-2.73,3.85.7,7.11,2.42,8.35a6.54,6.54,0,0,1,2.23,2.69c.79,1.85,2.48,4.49,5.64,4.49,3.47,0,3.77-2.88,5.3-4.35a2.18,2.18,0,0,1,3.58,2.15,13,13,0,0,1-.82,2.2c-2.28,4.87,5.63,6.7,5.63,6.7a12.16,12.16,0,0,0,9.58-3.19c4.72-4.11,6.39,2.28,13.24,2.43,6.45.15,19.38.69,26.45-9.36a33.43,33.43,0,0,1,3.1-3.65c1.48-1.57,2.89-3.85.13-5.05a5.5,5.5,0,0,1-3-3.66c-.66-2.35-2.65-5.32-8.42-6.12-9.89-1.37-17.79,9-28.9,10.5a15.47,15.47,0,0,1-9-2.1C482,161.1,478.21,159.56,473.12,160.45Z"/><path class="cls-5" d="M466,213.34s-44.55,40.26-51.47,53.92c-2.64,5.2-3.07,9.24-2.73,12.16a10.29,10.29,0,0,0,6.44,8.35c1.54.6,3.14.69,4.12-.74a3.64,3.64,0,0,0,2.28-1.21c.61-1-.08-2.21-1.68-3.05a7.4,7.4,0,0,1-2.81-8.82c1.51-4.71,3.65-3.71,4-11.79l51.47-40.84Z"/><path class="cls-9" d="M422.4,287s-8.13-1.76-6.39-13.24"/><line class="cls-9" x1="457.79" y1="209.62" x2="454.75" y2="217.4"/><line class="cls-9" x1="493.35" y1="211.92" x2="501.18" y2="205.23"/><line class="cls-9" x1="145.26" y1="556.08" x2="373.11" y2="556.08"/><line class="cls-9" x1="440.42" y1="617.79" x2="679.83" y2="617.79"/><polygon class="cls-10" points="409.91 178.66 409.91 140.97 386.5 140.97 386.5 178.66 370.37 178.66 398.21 208.81 426.05 178.66 409.91 178.66"/><path class="cls-5" d="M311.64,224.59a10.88,10.88,0,0,1,10.78,6.3,18.46,18.46,0,0,1,.65,2.06c1.6,5.25,5.32,4.56,5.32,4.56a6.54,6.54,0,0,0-2.2,4.34c-.3,2.89,1.29,10-2.82,11.18s-6.69-1.52-6.54,1.22.3,5.48.3,5.48L308,261.49l-6.84-2.83s4.26-2.27,2.28-11.4C301.63,238.84,296.06,225.65,311.64,224.59Z"/><path class="cls-1" d="M311.13,223s1.37-7.08,7.76-5.71a6.65,6.65,0,0,1,5.63,7.27,9,9,0,0,1-2.6,5.33s-.27,4.66-4.08,6.19c0,0-4-4.18-5.49-2.51s-.34,5.55,2.34,7.83-.05,6.09-3.17,7a7.62,7.62,0,0,0-8.06-1.14S289.08,224,311.13,223Z"/><path class="cls-9" d="M317.77,236s3.25,3.26,2.31,6-5.13-.79-5.13-.79-2.37-1.65-.95-3.86,3.79,1.12,3.79,1.12,1.46,2-.45,2a2.29,2.29,0,0,1-2.27-1.75"/><path class="cls-3" d="M346.75,276.41s-19.88-19.37-42.49-18-48.16,21-48.16,21l-.4,20,18.56-7.2L255.7,344.56s26.56-12.26,54.24-15.51c0,0,11.26-15.17,16.63-39.25l13.09,7.2Z"/><path class="cls-5" d="M346.22,277.93l8.14,4.67s24.23-22.32,31-38.23,11.46-16,16-18.57a21.74,21.74,0,0,0,7-6.18s-1.24-9.73,3.33-7.4c0,0,3.48-3.22,4,3.21s.85,11-8.17,17.33-10.55,3.59-13.39,9.68-15,38.64-27.58,52c0,0-5.88,7-16.63,2l-8.78-4Z"/><path class="cls-5" d="M256.06,280.88s-3.92,4.15-8.49,4.25S216.14,268.4,198.9,268.4s-19.57,6.38-19.57,6.38h15.22A43.37,43.37,0,0,1,208.49,277,46.13,46.13,0,0,1,228,289.58c12.46,13.8,25,9.23,27.68,7.2Z"/><path class="cls-5" d="M194.84,504.16l60.85-159.61S285.5,331,309.93,329s57.9-10,65.41,6.28c7.22,15.71,9.74,41.27-13.18,85.48h-25s14.8-46.24,13.19-67.33c0,0-46.08,14.8-63.1,15.22l-73.19,152.1Z"/><path class="cls-5" d="M350.61,420.81s-5.48,12.17,1.21,17.65,21.3,6.48,23.32,12.16H336.61s-2-14.9,3.25-29.81Z"/><path class="cls-1" d="M208.66,516.08s-6.1,10.79-5.9,18.09.4,16.43,4.86,17.65,5.48,4.26,5.48,4.26H198.9s-3.65.41-6.69-4.66c-2.55-4.26-9.24-12.16-11.34-14.6a1.15,1.15,0,0,1,0-1.48c2.81-3.25,14-16.3,15.79-19.26a45.79,45.79,0,0,0,3.41-7.4Z"/><path class="cls-9" d="M408.1,220s3.07-5,4.61-4.64,1.32,1.75.36,4.23c-1.18,3.06-5.07,8-7.92,10.25"/><path class="cls-9" d="M411.73,212.22s-1.14.9-.46,3.82"/><path d="M287.3,368.23c-12.91.15-20.05-4.47-20.05-4.47s2.52,4.24,18.12,8.49Z"/><path class="cls-8" d="M522.18,468.26c-.43,0-.86,0-1.29,0l27.48,72.62a41.06,41.06,0,0,0-26.19-72.66Z"/><path class="cls-9" d="M473.91,617.79s-11.75-36.55-75.7-34.73-49.35,72.09-104.11,70.27-56.75-37.41-38.41-41.06S272.9,633,267.25,639.65s-15.43,16.43-32.47,13.72c-19-3-15.21-46-50.34-49.92-34.46-3.88-15.37-47.36-15.37-47.36"/><circle class="cls-11" cx="320.86" cy="645.01" r="14.02"/></svg>