<svg id="图层_1" data-name="图层 1" xmlns="http://www.w3.org/2000/svg" xmlns:xlink="http://www.w3.org/1999/xlink" viewBox="0 0 800 800"><defs><style>.cls-1,.cls-12,.cls-2,.cls-7{fill:none;}.cls-10,.cls-11,.cls-12,.cls-13,.cls-14,.cls-15,.cls-16,.cls-18,.cls-2,.cls-3,.cls-4,.cls-5,.cls-6,.cls-8,.cls-9{stroke:#000;}.cls-10,.cls-14,.cls-16,.cls-18,.cls-2,.cls-3,.cls-5,.cls-6,.cls-7,.cls-8,.cls-9{stroke-linecap:round;stroke-linejoin:round;}.cls-10,.cls-11,.cls-12,.cls-13,.cls-14,.cls-15,.cls-16,.cls-2,.cls-3,.cls-4,.cls-5,.cls-6,.cls-7,.cls-8,.cls-9{stroke-width:0.91px;}.cls-3{fill:#e3e5ea;}.cls-4{fill:#6cc4ff;}.cls-11,.cls-12,.cls-13,.cls-15,.cls-4{stroke-miterlimit:9.15;}.cls-13,.cls-18,.cls-6{fill:#fff;}.cls-7{stroke:#fff;}.cls-8{fill:#002f9c;}.cls-9{fill:#3165e8;}.cls-10{fill:#3165f0;}.cls-11{fill:#ffcb6e;}.cls-14{fill:#dee0e5;}.cls-15{fill:#ffcd6e;}.cls-16{fill:#3165eb;}.cls-17{clip-path:url(#clip-path);}.cls-18{stroke-width:0.91px;}</style><clipPath id="clip-path"><rect class="cls-1" x="61.46" y="140.55" width="365.85" height="243.71"/></clipPath></defs><path class="cls-2" d="M573.12,167.53c-15-4.57-33.85-4.32-47.77,3.73-34.37,19.86-45.55,52.81-34,89.54,8.69,27.7,33.46,37.37,57.45,48.75,24.77,11.77,26.73,31.05,3.86,47.58-10.91,7.91-27.84,18-41.11,9.48-6.61-4.24-12-12.41-12.49-20.39-.65-10.46,9.35-15.49,18.75-15.1,28.77,1.38-.52,69.68-10.26,81.3-8.3,10-13.2,2.68-19.28-5.09-22.81-29.29-47.45-8.63-67.19,11-24.5,24.44-36.6,58.16-54,88a271.8,271.8,0,0,1-69.74,78.82c-28.95,22.09-63.33,38.43-99.66,41s-74.77-9.94-98.49-37.52S69.63,518,89.63,487.65c16.53-25,49.21-38.23,78.55-31.7,11.5,2.55,22.16,7.71,32.68,12.87,5.42,2.68,10.85,5.3,16.27,8"/><polygon class="cls-3" points="559.4 192.89 623.26 163.22 567.31 161.98 570.84 171.72 558.29 183.55 559.4 192.89"/><polygon class="cls-3" points="623.26 163.22 558.29 169.75 509.08 198.38 623.26 163.22"/><polygon class="cls-3" points="567.31 161.98 623.26 163.22 566.39 141.4 567.31 161.98"/><circle class="cls-4" cx="489.21" cy="245.7" r="21.43"/><path class="cls-5" d="M607,366.41s-10.12,8.89-13.4,14.38-13.26,6.6-13.26,6.6l3.72,2.23a8.14,8.14,0,0,1,4.05,8.69c-1.43,6.92-2.68,18.43,3.2,21.57,8.63,4.57,24-4,21.57,5.23S600,437,600,437l19,15.43,18.56-10.59s-3.14-24,.91-34.25,15.56-26.54-5.61-39.93S607,366.41,607,366.41Z"/><path class="cls-6" d="M626,352.56a25.77,25.77,0,0,1-11.11-1.44c-7.45-2.68-20.46-5.23-27.06,5.95-6.8,11.57,8.89,18.17,18.43,21a11.85,11.85,0,0,1,7.84,7.72,12.22,12.22,0,0,0,3,5.16c3.79,3.59,8.56-2.88,15.29,2.47s-7.9,10.13-8.29,14.12,12.48,9.15,12.48,9.15S681.3,405,657.51,376.27a17.18,17.18,0,0,1-2.75-4.78C652.47,365.37,645,350.66,626,352.56Z"/><path class="cls-7" d="M621,390.2s-9.28.33-8.36,9a9.62,9.62,0,0,0,4.44,7.45c4.58,2.94,10.66,1.24,11.83-3.72,0-.07,0-.13.07-.13a6.26,6.26,0,0,0-5.62-7.84c-2.16-.13-5.43.72-5.82,4.18s2.75,4.9,4.64,4.9,4.24-2.29,2.41-4.84"/><line class="cls-2" x1="385.88" y1="592.74" x2="738.54" y2="592.74"/><path class="cls-8" d="M702.72,592.6H563.13l-136.67.19s9.48,13,28.69,10.07,32.22-1.05,30.72,5.48-11.89,6.93-10.26,16.28,20.65.79,20.2,9.41-15.69,13.4-9.48,20.06,42.15-6.67,45.42,7.65C534.62,674.09,542,675.27,544,675.4h.53c2-.06,10-1.31,18.56-13.66,9.94-14.31,42.49,1.77,49-7.65,8.24-11.89,12.49-3.33,17.71-11,6.21-9.08-5.94-11.57,6.61-18.43,13.53-7.32-4.25-9.73-2.68-16.28s15.42-8.36,33.26-5.48S702.72,592.6,702.72,592.6Z"/><circle class="cls-9" cx="465.16" cy="620.32" r="4.45"/><circle class="cls-9" cx="656.33" cy="619.2" r="4.45"/><path class="cls-5" d="M404.24,488.42a3.48,3.48,0,0,0-1.83,2c-.45,1.63,1.44,3.07,3.14,4.11,4.58,2.81,9.94,6.08,16.21,6.86,5.3.65,11.12-.72,16.28-1.43a1.92,1.92,0,0,1,1.7.65l9.87,13.13a1.92,1.92,0,0,0,2,.59l9.54-2.55c1.11-.33,1.5-1.44.79-2.16-3.08-3.14-6.08-6.28-9.15-9.35-3.4-3.47-7.78-10.46-13.6-11.83C429.54,486.14,413.26,483.2,404.24,488.42Z"/><polygon class="cls-10" points="154.98 504.77 192.23 574.11 300.6 519.41 262.56 446.66 154.98 504.77"/><polyline class="cls-2" points="156.29 504.77 229.1 512.09 263.93 446.66"/><circle class="cls-11" cx="266.41" cy="447.78" r="16.01"/><polygon class="cls-6" points="616.39 615.67 524.82 615.67 489.86 634.56 585.8 634.56 616.39 615.67"/><line class="cls-2" x1="536.65" y1="619.14" x2="604.56" y2="619.14"/><line class="cls-2" x1="531.76" y1="622.67" x2="597.44" y2="622.67"/><line class="cls-2" x1="521.49" y1="628.62" x2="585.28" y2="628.62"/><line class="cls-12" x1="604.62" y1="619.14" x2="585.28" y2="628.62"/><line class="cls-2" x1="594.04" y1="619.14" x2="574.69" y2="628.62"/><rect class="cls-6" x="489.01" y="634.56" width="96.79" height="4.7"/><polygon class="cls-6" points="473.13 568.69 569.07 568.69 585.48 634.56 489.01 634.56 473.13 568.69"/><polygon class="cls-5" points="585.8 634.56 616.39 615.67 616.39 619.14 585.8 639.2 585.8 634.56"/><rect class="cls-13" x="83.55" y="140.55" width="253.05" height="243.71"/><rect class="cls-14" x="83.55" y="124.6" width="253.05" height="31.96"/><circle class="cls-5" cx="97.86" cy="140.55" r="4.05"/><circle class="cls-15" cx="115.38" cy="140.55" r="4.05"/><circle class="cls-16" cx="133.28" cy="140.55" r="4.05"/><g class="cls-17"><path class="cls-11" d="M240.27,196.81a8.08,8.08,0,0,1-6.86,1.64c-5.43-1.24-14.7-1.76-15.3,8.69-.72,12.35-4.05,23.8,3,25.63,2.42.65,1.64.85,2.35,4,.72,3.33,5,.92,7.26,2,4.31,2-2.56,9.15,2.22,15.3s19.15-3.73,19.48,5,3.92,16.27,15.81,16.14,22.74-7.9,31.24-.58,8.17,20.12,20.2,21.82,14.51-10.45,22.68-11.89,24.18,4.9,29.6-8.89-14.51-16.07-19.08-27.06-12.74-16.34-22.41-16.15-21.18,12.55-29.35,9-19.21-28.37-26.34-38.1C269.36,195.9,252.3,187.27,240.27,196.81Z"/><path class="cls-13" d="M269.94,205.83s3.53,6.87,1.64,14.25c-1,4,1.83,9.93,6.47,11.24l-5.43.79a6.63,6.63,0,0,0-5.49,5c-1.5,6-4.57,15.89-8.1,15-5-1.18-12.62-6.6-15.23-2.28s-8.89,20.65,7.58,26.08c0,0-30.65,11.11-36.14,10.06s-18.37-28.62-18.37-28.62,17.45,4.57,20.26-2.29,10.46-35.81,10.46-35.81,9.73-35.23,29.14-24.58S269.94,205.83,269.94,205.83Z"/><path class="cls-11" d="M292.62,199.75a14.08,14.08,0,0,1-5.55,8.17c-4.32,2.94-10.13,3.39-15.36,2.74a7.88,7.88,0,0,0-7.26,3.21c-1.76,2.41-4.24,5-7.06,5-1.7,0-3.07-1-4.44-2.35-2.81-2.81-5.43-6.79-10.2-4.57a4.92,4.92,0,0,0-3.21,5.36c.27,3.47,2.23,7.71.53,11.89-2.35,5.76-8.24,10.06-17.45,8.56-.58-.06-1.64,4.71-1.64,4.71l-3.39-5.62a10.1,10.1,0,0,1-.52-1.18c-11-30.85,0-49,14.77-58.3a24.28,24.28,0,0,1,11.18-3.6c9.41-.52,21.18,1.77,28.17,9.74a11.82,11.82,0,0,0,7.06,3.79,33.53,33.53,0,0,1,8.5,2.35,13.27,13.27,0,0,1,4.38,3A7.44,7.44,0,0,1,292.62,199.75Z"/><path class="cls-2" d="M255.23,218.31s7.84,5.62,2.35,13a9.73,9.73,0,0,1-7.84,4.32c-5.48.06-9.87-5-8.16-10.2,0-.07.06-.13.06-.19,2-5.69,7.13-5.1,9.08-3.93s4.32,3.73,2.75,7.13a4.45,4.45,0,0,1-6.67,1.83c-1.7-1.18-2.42-4.51.52-5.82"/><path class="cls-13" d="M312.35,346.48s21.7-10.73,37.45-7.72,13.6,18.63-5.48,17.84-26.86,4.45-26.86,4.45Z"/><path class="cls-10" d="M197,257.33s-32.68-2.75-39.22-2.35-5.62.13-15.88,6.14c-10.46,6.15-72.67,63.2-72.67,63.2s-8.3,8-2.48,13.72,38.82,13.66,59.93,15l6.6-13.93-28-11.63,41.89-24.05s3.07,51-2.29,61.76-14.44,19-14.44,19,39.93,49.28,98.42,15.82c0,0-12.61-40.52,8.36-65.87a151.87,151.87,0,0,0,17.52,45.48,9.22,9.22,0,0,0,11.7,3.79L318.17,362,312,345.74l-40.19,11.58s.78-39.54-2.29-52.74-13.78-26.8-18-28.69l-33.65,7.25Z"/><path class="cls-13" d="M132.76,340.07s23.59,5.16,34.11,17.32-1,23-15.42,10.52-24.51-15.55-24.51-15.55Z"/></g><line class="cls-12" x1="130.47" y1="384.26" x2="225.76" y2="384.26"/><path class="cls-13" d="M637.31,436.08,617,450l-16.92-13-35,19.09a39.82,39.82,0,0,0-13,11.43L514.5,519.27,448.3,487.7l-10.39,20.79,58.62,40.84a22.82,22.82,0,0,0,24.05,1.31l48.36-26.34,22.49,68.43H688S677.9,554,676.78,530.06c0,0,29-27.32,14.84-64.71a28.29,28.29,0,0,0-17.25-16.53Z"/><line class="cls-2" x1="563.38" y1="487.51" x2="568.94" y2="524.24"/><path class="cls-5" d="M555.87,502.48S546.59,480.13,532.8,472s-22.49,5.1-7.65,17.06,19.67,21.31,19.67,21.31Z"/><path class="cls-13" d="M676.84,530s-40.13,61.37-56.26,55.29-78-74.37-78-74.37l14.78-13.2,59.47,42,36.33-48.16"/><path class="cls-5" d="M350.33,354.12,336,331.77a2.49,2.49,0,0,1,.72-3.4L382.61,299a2.47,2.47,0,0,1,3.39.72L400.32,322a2.49,2.49,0,0,1-.72,3.4l-45.88,29.41A2.47,2.47,0,0,1,350.33,354.12Z"/><rect class="cls-18" x="346.23" y="310.72" width="45.69" height="31.51" transform="translate(-117.83 250.81) rotate(-32.66)"/><circle class="cls-13" cx="346.41" cy="340.79" r="2.09"/><circle class="cls-13" cx="418.56" cy="465.1" r="25.69"/></svg>