<svg id="图层_1" data-name="图层 1" xmlns="http://www.w3.org/2000/svg" viewBox="0 0 800 800"><defs><style>.cls-1{fill:#dfe1e6;}.cls-1,.cls-2,.cls-3,.cls-4,.cls-5,.cls-6,.cls-8{stroke:#000;}.cls-1,.cls-2,.cls-3,.cls-4,.cls-5,.cls-6,.cls-7,.cls-8{stroke-linecap:round;stroke-linejoin:round;stroke-width:0.91px;}.cls-2{fill:#fff;}.cls-3{fill:#ffce6e;}.cls-5{fill:#002fa0;}.cls-6,.cls-7{fill:none;}.cls-7{stroke:#fff;}.cls-8{fill:#3165ec;}</style></defs><polygon class="cls-1" points="298.11 270.55 149.42 667.65 600.35 667.65 467.83 270.55 298.11 270.55"/><polygon class="cls-2" points="667.77 395.67 663.92 630.93 630.78 630.93 648.92 395.67 667.77 395.67"/><path class="cls-3" d="M383,185.69a84.85,84.85,0,0,0-84.85,84.85H467.83A84.86,84.86,0,0,0,383,185.69Z"/><polygon class="cls-2" points="570.61 160.67 382.96 185.02 382.96 156.71 570.61 132.35 570.61 160.67"/><polygon class="cls-2" points="570.61 160.67 648.92 395.67 667.77 395.67 583.21 140.06 570.61 160.67"/><circle class="cls-3" cx="382.96" cy="170.86" r="14.15"/><circle class="cls-3" cx="570.61" cy="146.51" r="14.15"/><circle class="cls-3" cx="658.34" cy="395.67" r="9.42"/><rect class="cls-3" x="536.79" y="555.68" width="60.59" height="94.87"/><rect class="cls-2" x="536.78" y="545.2" width="83.8" height="23.41"/><rect class="cls-4" x="536.78" y="622.98" width="127.14" height="44.67"/><polygon class="cls-5" points="383.25 595.99 408.02 667.65 376.33 667.65 376.33 595.99 383.25 595.99"/><rect class="cls-2" x="307.36" y="595.99" width="68.98" height="71.66"/><polygon class="cls-1" points="405.08 481.38 384.29 429.91 381.48 431.04 403.03 484.41 403.18 484.35 403.18 484.41 468.54 484.41 468.54 481.38 405.08 481.38"/><line class="cls-6" x1="405.08" y1="481.38" x2="401.81" y2="481.38"/><path class="cls-4" d="M530,458.77s.81,22.23-2.85,35c-3.32,11.58,22.73,11.53,22.73,11.53l12.92-19.74-16.41-20.25L532.59,445Z"/><path class="cls-5" d="M567.69,507s-79.32-25.61-99.15-9.78S419.37,609.9,419.37,609.9l21.43,10s43.3-65.2,47-82.42c0,0,30,7.68,71.25,7.68S567.69,507,567.69,507Z"/><path class="cls-4" d="M547.52,373c.23-5.44-.22-20.73-12.41-23.06-14.85-2.85-18.11.82-18.11.82s-1.07,4.93-2.23,9.94-4.72,5.21-4.72,5.21,1.45.89,2.88,1.57a2.41,2.41,0,0,1,1.35,2.18c0,3.85.28,13.46,3.13,14.9,3.58,1.8,9.93-2.65,13-1.55s6.58,11.32,6.58,11.32l14.57-3.12Z"/><path class="cls-2" d="M522.93,338.34a7.9,7.9,0,0,1-4.7.51c-4.36-.87-13.18-1.52-13.88,7.13-.63,7.73,8.58,8.61,14.58,8.39a6.08,6.08,0,0,1,5.72,3.39,5,5,0,0,0,4.37,2.88c5.59.47,5.46-4.19,10.24-3.26,3.9.76,2.79,4.91,1.3,8.33a6.45,6.45,0,0,0,4.33,8.74l3.37.88s11.51-14.47,2.21-24.07a9.2,9.2,0,0,1-1.79-2.54C546.6,344.23,539,331.27,522.93,338.34Z"/><path class="cls-7" d="M532.08,359.09s-6.89,2.53-4.38,9.08a7.39,7.39,0,0,0,4.9,4.77c4,1.18,8.26-1.61,8.08-5.8a.61.61,0,0,0,0-.14,4.76,4.76,0,0,0-5.84-4.76c-1.67.44-3.94,1.87-3.51,4.69a3.34,3.34,0,0,0,4.5,2.71,2.52,2.52,0,0,0,.79-4.36"/><path class="cls-2" d="M551.36,384.65s-25.94,9.52-36.17,34.89-17,49.6-29.11,54.49-41.45,11.18-41.45,11.18v16.06s56.34-2.09,66.48-14,20.73-31.89,20.73-31.89L547.54,499l50.76,2.33S592,426.37,551.36,384.65Z"/><path class="cls-6" d="M531.84,455.41s9.42-18.15,13.14-21"/><path class="cls-4" d="M444.63,488.47s-8.55-.21-14.92-2.47-22.63-2.89-24.49,3.49,18.72,10.7,39.41,7.61Z"/><path class="cls-8" d="M598.31,501.28s-113.06-21.77-126.79,0S496,630.16,496,630.16h29.8s-4-62.17-19.56-96.17c0,0,25.15,11.18,52.86,11.18S604.71,537,598.31,501.28Z"/><path class="cls-4" d="M502.49,630.16s7.45,17.22-4.66,23.28-24,4.19-24,14.21h49.59a1.94,1.94,0,0,0,1.9-2.29l-6.56-35.2Z"/><line class="cls-6" x1="506.21" y1="533.99" x2="502.25" y2="525.62"/><path class="cls-4" d="M423.12,611.74s-5.15,11.47-13.07,11.7c-7.69.23-10.32-16.21-21.54-16.55a.73.73,0,0,0-.71,1l9.2,25.8a10.11,10.11,0,0,0,4.14,5.15l15.64,9.8a2,2,0,0,0,2.72-.61c3.22-5.08,12.82-20.75,15.5-30.7Z"/><path class="cls-7" d="M404.65,618.84c.52.65,6.73,8.21,6.73,8.21"/><path class="cls-2" d="M413.74,325c-7.31,0,.53,24.95-6,33.13s-22.53,7.24-22.53,35.14H335.06c0-27.9,16-27,22.53-35.14s-1.34-33.13,6-33.13Z"/><path class="cls-4" d="M413.74,325s4.56-.78,4.56,12.45h-7.89S409.34,324.94,413.74,325Z"/><line class="cls-6" x1="365.87" y1="337.46" x2="402.03" y2="337.46"/><line class="cls-6" x1="365.17" y1="347.23" x2="401.32" y2="347.23"/><line class="cls-6" x1="345.37" y1="373.65" x2="381.53" y2="373.65"/><line class="cls-6" x1="362.72" y1="357.3" x2="395.71" y2="357.3"/><line class="cls-6" x1="354.94" y1="365.36" x2="384.54" y2="365.36"/><line class="cls-6" x1="342.38" y1="382.41" x2="378.53" y2="382.41"/><path class="cls-2" d="M199.64,419.5c-1.09-4.9-3.15-18.88,7.53-23,13-5,16.6-2.19,16.6-2.19s1.76,4.31,3.64,8.68,5.13,4,5.13,4-1.18,1-2.36,1.91a2.24,2.24,0,0,0-.88,2.19c.63,3.51,1.93,12.29-.42,14.05-2.95,2.22-9.45-.8-12,.69s-4.14,11.35-4.14,11.35L199,436.71Z"/><path class="cls-8" d="M198.72,432s20.52,0,31.68,27,17.65,38.48,17.65,38.48,18.25-9.6,47.3-12.72l4.92,11.88s-41.78,20.17-54.92,18.91S220.86,488,220.86,488s-2.16,6.52-6.49,10.29-3.06,22.49-3.06,22.49-39.44,1.26-45,8.29S164.16,462.65,198.72,432Z"/><path class="cls-4" d="M212.1,383.36s17.05-4.32,17.52,5.76-14,12.49-14,12.49,1.26,4.31-1.38,6.48-7-3.6-9.37,1.44,5.52,6,5,11.29-4.2,20.73-25.94,12.24c-15.36-6-14.17,2.4-24.49,7-13,5.76-16.32-4.08-21.85-4.81s-14.88-6.72-10.57-16.09,18.73-2.49,25.69-3.77,9.37-9.2,18.73-9.92,8.64-.64,13.68-6.89S195.58,380.91,212.1,383.36Z"/><path class="cls-2" d="M213.44,408.6s5.67.32,5.29,5.73a5.77,5.77,0,0,1-2.54,4.63,4.74,4.74,0,0,1-7.29-2.47s0-.07,0-.1a3.67,3.67,0,0,1,3.24-4.83,3.26,3.26,0,0,1,3.64,2.68,2.57,2.57,0,0,1-2.71,3,2,2,0,0,1-1.57-3.06"/><path class="cls-2" d="M220.86,488s-5.61-11.52-7.13-13.68"/><path class="cls-2" d="M295.81,485.89s14.65-7.59,21.88-11.65c6.3-3.54,16.27,4.91,22.21,6.57s3.42,3.81,1.44,4-12.61-.73-16.21-3.61c0,0,1,8.24-11.86,7.75a7.46,7.46,0,0,0-3.88.88l-9.77,5.3Z"/><path class="cls-1" d="M212,518.3s80.86,1.26,88.24,18.18-45,100.13-45,100.13l-23.78-11.89S263,561.51,269.31,555c0,0-59.25,6.85-72.4.9S212,518.3,212,518.3Z"/><path class="cls-2" d="M164.81,528.64s32.28-15.75,84.51-15.75,50.61-.56,56.54,15.75,34.76,104.91,34.76,104.91l-26.11,8.83s-31.33-92.74-33.32-98-19.26,1.81-19.26,1.81-41.24,21.06-62.68,22.33S164.76,557.36,164.81,528.64Z"/><line class="cls-6" x1="269.31" y1="555.04" x2="272.97" y2="551.43"/><path class="cls-2" d="M335.31,635.35s3.81,13.81,7.17,16.93,11.29,7,20.65,7.8,13.21,5.41,13.21,7.57H325.92s0-17.38-4.34-27.67Z"/><path class="cls-1" d="M250.07,634s-6.47,1.69-6.47,13.74.57,11.73.57,11.73,10.42,2.73,10.42,8.16H237.88a4.65,4.65,0,0,1-3.16-1.22l-14.26-12.9a2.27,2.27,0,0,1,0-3.35c4.15-3.85,9.83-11.65,16.72-22.62Z"/><path class="cls-2" d="M244.17,659.49s-5.2-1-7-.58"/><rect class="cls-5" x="141.75" y="568.61" width="69.5" height="99.04"/><path class="cls-2" d="M141.75,620.79v46.86H188.6A46.85,46.85,0,0,0,141.75,620.79Z"/><line class="cls-6" x1="106.41" y1="667.65" x2="693.59" y2="667.65"/></svg>