<svg id="图层_1" data-name="图层 1" xmlns="http://www.w3.org/2000/svg" viewBox="0 0 800 800"><defs><style>.cls-1{fill:#ffcb6e;}.cls-1,.cls-10,.cls-11,.cls-12,.cls-13,.cls-2,.cls-3,.cls-4,.cls-6,.cls-7,.cls-8,.cls-9{stroke:#000;}.cls-1,.cls-12,.cls-4,.cls-6{stroke-miterlimit:9.15;}.cls-1,.cls-11,.cls-12,.cls-2,.cls-3,.cls-4,.cls-5,.cls-6,.cls-7,.cls-8,.cls-9{stroke-width:0.91px;}.cls-10,.cls-2,.cls-6{fill:#fff;}.cls-10,.cls-11,.cls-2,.cls-3,.cls-5,.cls-7,.cls-8,.cls-9{stroke-linecap:round;stroke-linejoin:round;}.cls-3,.cls-5{fill:none;}.cls-5{stroke:#fff;}.cls-7{fill:#3165e8;}.cls-8{fill:#dbdde2;}.cls-10,.cls-13{stroke-width:0.91px;}.cls-11{fill:#002f9c;}.cls-12{fill:#6cc4ff;}.cls-13{stroke-miterlimit:9.15;}</style></defs><path class="cls-1" d="M541.37,178.22s1.23,6.69-3.34,9.93-12.06,8.92-7.1,15.31S543.1,205,548,209s13,2.44,18.25-3.14,13.38,4.66,21,4.56,17.45-2,22.82-11.15-36.81-19-36.81-19Z"/><path class="cls-2" d="M558.22,207.54s-34.26,31.89-50,49.39l9.73,11.33,15.58-14.9s-7.82,10.19-8.42,14.9L560.84,276a52.54,52.54,0,0,1,13.68-19.32c10.19-9.28,14.6-14.3,16.58-19.32,0,0,18.1,28,18.55,35l18.71-10.65s-33.15-56.29-58.48-57.95Z"/><path class="cls-2" d="M545.12,179.63a45.21,45.21,0,0,0-.81,7.51c.07,2.7-4.47,4.66-4.47,4.66l3.49,1.11a1.48,1.48,0,0,1,1,1.3c.21,2.5,1,8.86,3.79,8.54,3.45-.4,8.32-4.23,9.53,0a14.92,14.92,0,0,1,.53,4.78,8.73,8.73,0,0,1-2.16,5.37c-1.32,1.53-2.57,3.65.21,4,4.08.56,13.08-6.18,15.21-10.44a1,1,0,0,0-.35-1.3c-.93-.56-2.55-2.73-3.91-10.57-2-11.77,1-17.85-8.92-19.67S545.12,179.63,545.12,179.63Z"/><path class="cls-1" d="M550.68,171.82a2.65,2.65,0,0,1-2.68.64c-2.7-.89-8-1.88-9.63,3-1.91,5.76,4.69,7.69,8.9,7.68a1.94,1.94,0,0,1,1.91,1.51,3.3,3.3,0,0,0,1.87,2.39c2.43,1.12,5.68-5.27,8.72-2.23s-7.3,10.13,3.55,12.57,12.16-8,20.88-5.48,9.53,11.86,22.52,9.83,15.21-17,21.9-17.13,11.35,2.93,17.84.91,15.42-9,13-15.51-11.76,3.25-18.56,3.14-6.18-9.12-17.13-9.12-17.55,13.18-27.28,15.11c-9.15,1.81-20.34-8.28-31.17-9.26-1.21-.11-2.44-.21-3.64-.44C559.11,169,554,168.57,550.68,171.82Z"/><path class="cls-3" d="M552.9,186.9s-3.28,2.21-1.12,5.3a4,4,0,0,0,3.17,1.86,3.28,3.28,0,0,0,3.46-4.07.15.15,0,0,0,0-.07,2.56,2.56,0,0,0-3.66-1.73,2.27,2.27,0,0,0-1.22,2.9,1.8,1.8,0,0,0,2.7.83,1.36,1.36,0,0,0-.16-2.38"/><path class="cls-3" d="M544.42,222.93S539,228.41,538,234s-.43,15.42-4.51,19.32"/><path class="cls-3" d="M591.11,237.39s-4.41-6.09-6.39-7.3"/><path class="cls-2" d="M482.23,470.34s4,9.05,0,14.83-21.47,15.05-17.36,23.11l39.14-19s-8.22-16.34-10.45-24.16Z"/><path class="cls-2" d="M532.56,412.24s7.23,6.74,5.86,13.62-13.78,22.31-6.83,28.1l28.47-32.89s-14-11.77-19.15-18.07Z"/><path class="cls-4" d="M525.1,268.26s-66.57,56.58-60.69,75.85,52.33,84.36,52.33,84.36l26-25.15s-48.27-49.48-49.28-59.43,62.08-69,62.08-69Z"/><path class="cls-4" d="M532.16,269.8S478.8,338,470.28,363.38s10.35,107.69,10.35,107.69l33.66-15.41S493,393,497.06,369.06s59-43.1,63.78-93Z"/><path class="cls-5" d="M533,268.87S477.9,340.44,470,361.35"/><path class="cls-5" d="M504,357.35s-7.54,8.11-6.17,24.71a168.34,168.34,0,0,0,4.82,28.87"/><path class="cls-6" d="M609.67,272.37s-39.09,30.57-44.26,38.17-11.58,24.65-6.85,26.16,9.14-5.16,11.34-14,12.59-23.33,43.59-34.68c26.56-9.74,13.42-25.47,13.42-25.47Z"/><path class="cls-6" d="M508.82,257.61S476.58,285.19,463.29,291s-16.9,7.26-17.36,11.67,14.83,2,22.66-2.44,6.84-5.48,12.32-8.67,36.35-24.08,36.35-24.08Z"/><path class="cls-2" d="M210.4,305.67s1.22,6.49-.16,10.45,2.59,6.84,2.59,6.84h-4a2.33,2.33,0,0,0-2.23,1.66c-.87,2.93-3.61,10.15-5.78,10.26-2.89.16-8.06-7.14-9.73-1.51s-1.68,7.75-1.68,7.75l-11.25-13.84a18.63,18.63,0,0,0,4.11-8.82c.61-4.86-.3-18.25,8.21-20.38S209.48,299,210.4,305.67Z"/><path class="cls-4" d="M210.68,296.18a6.74,6.74,0,0,0,3.86,2.78c2.74.69,6.64,2.38,5.74,6.41-1,4.54-8.89,3.66-12.84,2.92a2.36,2.36,0,0,0-2.62,1.52,3.81,3.81,0,0,1-2.95,2.56c-3.35.61-3.35-7-9.27-5.32s.45,10.58-4.27,12.21-6.44,1-6.44,1-7.93-24,7.27-27a10.85,10.85,0,0,0,2.93-1C195.48,290.6,204.55,287.2,210.68,296.18Z"/><path class="cls-3" d="M200.13,311.73s3.7,4.22-.38,7.69a5.66,5.66,0,0,1-5,1.42,4.68,4.68,0,0,1-3.31-6.84.41.41,0,0,1,.05-.09,3.63,3.63,0,0,1,5.65-1.06,3.24,3.24,0,0,1,.65,4.42,2.56,2.56,0,0,1-4,.17,1.92,1.92,0,0,1,1.06-3.21"/><path class="cls-4" d="M192.32,346.73S219.39,399.4,246.1,403s-9.39,22.26-9.39,22.26L189,390Z"/><path class="cls-7" d="M198.38,364.08c-8.67-32.85-23.58-39.7-23.58-39.7-11.4-4.41-84.87,51.11-68,71.95S174,419.15,174,419.15c9.28,12.62,24.49,25.24,24.49,25.24,11.71-18.4,38.18-34.22,38.18-34.22S207.05,396.94,198.38,364.08Zm-64.95,19.47c5.17-8.21,17.49-15.51,17.49-15.51-2.28,16.12,9.27,30.27,9.27,30.27C144.53,394.2,133.43,383.55,133.43,383.55Z"/><path class="cls-2" d="M174.8,324.38s18.25,7.46,22.52,16.73l-5,5.62S185.45,330.31,174.8,324.38Z"/><path class="cls-2" d="M150.92,368s7-4.71,9.27-5.48"/><path class="cls-3" d="M160.2,398.31s24.94,6.87,30,7.75l-1.52,14s-7.94-.42-14.6-.91"/><path class="cls-8" d="M208.64,452.93s13,11.24,43.89,2.87,52.63-15.81,62.82-9.27S359.16,480,359.16,480l22.21-21s-50.65-47.14-75.44-44.56-75-1.56-75-1.56Z"/><path class="cls-2" d="M198.53,444.39s32.55-48.52,102.21-61.14,102.53,8.21,102.53,8.21l-12,25.55s-55.21-11.92-68.9-9.38-45.78,37.22-78.94,46.65S198.53,444.39,198.53,444.39Z"/><path class="cls-2" d="M190,407.64s34.69-.47,35.76,9.93-19.47,3.56-21.44,2.5S193,416.43,189,416.73Z"/><path class="cls-9" d="M402.25,393.61s16.53,5.91,29.15,4.24S447.07,374,459.54,372.3l-15.05,46.39s-39.8-12.06-48.11-12.57Z"/><path class="cls-9" d="M378.45,461.87S394.68,480.05,402,480s24.12-12,31.45-6.79L397,502.35S375.39,474,368.4,471.25Z"/><path class="cls-2" d="M378.45,461.87l5.16,5.39-9.22,8.59s-4.2-4.36-6-4.6Z"/><path class="cls-2" d="M402.25,393.61l-5.88,12.51s5.56.85,9,1.69l5.37-11.76Z"/><path class="cls-2" d="M457.7,240.9,266,315a2.31,2.31,0,0,1-3-1.33L230.69,230a2.33,2.33,0,0,1,1.32-3l191.72-74.05a2.31,2.31,0,0,1,3,1.33L459,237.91A2.31,2.31,0,0,1,457.7,240.9Z"/><rect class="cls-10" x="245.81" y="230.95" width="14.13" height="14.13" transform="translate(-68.78 107.1) rotate(-21.12)"/><rect class="cls-10" x="263.88" y="223.98" width="14.13" height="14.13" transform="translate(-65.05 113.15) rotate(-21.12)"/><rect class="cls-10" x="281.97" y="216.98" width="14.13" height="14.13" transform="translate(-61.31 119.19) rotate(-21.12)"/><rect class="cls-10" x="300.04" y="210.01" width="14.13" height="14.13" transform="translate(-57.59 125.24) rotate(-21.12)"/><rect class="cls-10" x="336.2" y="196.04" width="14.13" height="14.13" transform="translate(-50.12 137.33) rotate(-21.12)"/><rect class="cls-10" x="372.36" y="182.07" width="14.13" height="14.13" transform="translate(-42.66 149.42) rotate(-21.12)"/><rect class="cls-10" x="390.44" y="175.09" width="14.13" height="14.13" transform="translate(-38.93 155.46) rotate(-21.12)"/><rect class="cls-10" x="408.52" y="168.1" width="14.13" height="14.13" transform="translate(-35.2 161.51) rotate(-21.12)"/><rect class="cls-10" x="354.28" y="189.06" width="14.13" height="14.13" transform="translate(-46.4 143.37) rotate(-21.12)"/><rect class="cls-10" x="318.13" y="203.02" width="14.13" height="14.13" transform="translate(-53.85 131.28) rotate(-21.12)"/><rect class="cls-10" x="289" y="235.2" width="14.13" height="14.13" transform="translate(-67.4 122.95) rotate(-21.12)"/><rect class="cls-10" x="307.08" y="228.22" width="14.13" height="14.13" transform="translate(-63.68 128.99) rotate(-21.12)"/><rect class="cls-10" x="343.24" y="214.25" width="14.13" height="14.13" transform="translate(-56.21 141.08) rotate(-21.12)"/><rect class="cls-10" x="379.4" y="200.29" width="14.13" height="14.13" transform="translate(-48.76 153.18) rotate(-21.12)"/><rect class="cls-10" x="397.48" y="193.3" width="14.13" height="14.13" transform="translate(-45.02 159.22) rotate(-21.12)"/><rect class="cls-10" x="415.56" y="186.32" width="14.13" height="14.13" transform="translate(-41.29 165.27) rotate(-21.12)"/><rect class="cls-10" x="361.32" y="207.27" width="14.13" height="14.13" transform="translate(-52.49 147.13) rotate(-21.12)"/><rect class="cls-10" x="325.16" y="221.24" width="14.13" height="14.13" transform="translate(-59.95 135.04) rotate(-21.12)"/><polygon class="cls-2" points="282.12 240.14 263.72 247.25 250.84 252.22 250.54 252.34 262.67 283.75 275.85 278.65 268.82 260.43 287.2 253.33 282.12 240.14"/><rect class="cls-10" x="277.65" y="260.52" width="14.13" height="14.13" transform="translate(-77.29 120.56) rotate(-21.12)"/><rect class="cls-10" x="295.73" y="253.54" width="14.13" height="14.13" transform="translate(-73.56 126.6) rotate(-21.12)"/><rect class="cls-10" x="313.81" y="246.55" width="14.13" height="14.13" transform="translate(-69.83 132.65) rotate(-21.12)"/><rect class="cls-10" x="349.96" y="232.59" width="14.13" height="14.13" transform="translate(-62.37 144.74) rotate(-21.12)"/><rect class="cls-10" x="386.12" y="218.62" width="14.13" height="14.13" transform="translate(-54.91 156.83) rotate(-21.12)"/><rect class="cls-10" x="404.21" y="211.64" width="14.13" height="14.13" transform="translate(-51.18 162.88) rotate(-21.12)"/><rect class="cls-10" x="422.28" y="204.66" width="14.13" height="14.13" transform="translate(-47.45 168.92) rotate(-21.12)"/><rect class="cls-10" x="368.05" y="225.6" width="14.13" height="14.13" transform="translate(-58.64 150.79) rotate(-21.12)"/><rect class="cls-10" x="331.89" y="239.57" width="14.13" height="14.13" transform="translate(-66.1 138.7) rotate(-21.12)"/><rect class="cls-10" x="266.6" y="285.72" width="14.13" height="14.13" transform="translate(-87.11 118.27) rotate(-21.12)"/><rect class="cls-10" x="284.69" y="278.74" width="14.13" height="14.13" transform="translate(-83.38 124.32) rotate(-21.12)"/><rect class="cls-10" x="302.76" y="271.75" width="14.13" height="14.13" transform="translate(-79.65 130.36) rotate(-21.12)"/><rect class="cls-10" x="320.85" y="264.77" width="14.13" height="14.13" transform="translate(-75.92 136.41) rotate(-21.12)"/><rect class="cls-10" x="411.24" y="229.86" width="14.13" height="14.13" transform="translate(-57.27 166.64) rotate(-21.12)"/><rect class="cls-10" x="429.32" y="222.88" width="14.13" height="14.13" transform="translate(-53.54 172.68) rotate(-21.12)"/><rect class="cls-10" x="336.97" y="247.31" width="72.28" height="14.13" transform="translate(-66.59 151.52) rotate(-21.12)"/><path class="cls-3" d="M315.49,194.76s11.72-69.17-47.91-71-100.39,36.79-95.52,69.65,23.43,34,31.33,23.69-13.38-22.32-21.3-5.36,1.22,42.66-7.3,52.56c-9.73,11.31-77.54,25.72-82.13,59.83-3,22.59,35,11.71,33.45,30.54"/><path class="cls-3" d="M597.06,295.26s-31.35,27.56-5.95,49.46,37.17-15,61.1-2.44,7.58,20.67-3.65,19.07c-7.24-1-12.87-12.57,14.45-14.6s46.39,7.3,44.36,34.07-25.45,67.34-63,76.05-55.82-6.69-78.13,23.11,9.33,52.77,38.13,41.9,53.54,1.7,44.21,30.09-24,10.27-19.65,2.69c5.28-9.16,25.32-2.8,10.32,17.94s-29.36-7.64-45.71,2.5S579,608.36,560.85,616.48s-34.64-6-34.64-6"/><circle class="cls-11" cx="513.69" cy="572.61" r="39.85"/><circle class="cls-1" cx="334.98" cy="603.36" r="72.95"/><circle class="cls-12" cx="585.27" cy="521.89" r="13.61"/><rect class="cls-2" x="157.3" y="485.68" width="177.67" height="117.68"/><line class="cls-3" x1="157.3" y1="515" x2="334.98" y2="515"/><line class="cls-3" x1="157.3" y1="544.45" x2="334.98" y2="544.45"/><line class="cls-3" x1="157.3" y1="573.9" x2="334.98" y2="573.9"/><line class="cls-3" x1="157.3" y1="603.36" x2="334.98" y2="603.36"/><line class="cls-3" x1="275.72" y1="485.68" x2="275.72" y2="603.36"/><line class="cls-3" x1="246.1" y1="485.68" x2="246.1" y2="603.36"/><line class="cls-3" x1="305.35" y1="485.68" x2="305.35" y2="603.36"/><line class="cls-3" x1="216.48" y1="485.68" x2="216.48" y2="603.36"/><line class="cls-3" x1="186.86" y1="485.68" x2="186.86" y2="603.36"/><rect class="cls-13" x="240.47" y="314.97" width="168.92" height="4.58" transform="translate(-92.49 138.39) rotate(-21.12)"/><rect class="cls-13" x="349.86" y="300.33" width="98.19" height="4.58" transform="translate(-82.24 164.08) rotate(-21.12)"/></svg>