<svg id="图层_1" data-name="图层 1" xmlns="http://www.w3.org/2000/svg" viewBox="0 0 800 800"><defs><style>.cls-1,.cls-3,.cls-4,.cls-5,.cls-6,.cls-7,.cls-9{stroke:#000;}.cls-1,.cls-2,.cls-3,.cls-4,.cls-5,.cls-6,.cls-7,.cls-8{stroke-linecap:round;stroke-linejoin:round;}.cls-1,.cls-10,.cls-2,.cls-3,.cls-4,.cls-5,.cls-6,.cls-7,.cls-8,.cls-9{stroke-width:0.91px;}.cls-10,.cls-2,.cls-8{stroke:#fff;}.cls-3{fill:#3165ec;}.cls-4{fill:#dfe1e6;}.cls-5{fill:#fff;}.cls-10,.cls-6,.cls-8{fill:none;}.cls-7{fill:#ffce6e;}.cls-10,.cls-9{stroke-miterlimit:9.15;}</style></defs><path class="cls-1" d="M475.8,537a96,96,0,0,0,.82,15.13,51,51,0,0,1-.42,15.05s-16.81-3.69-17.35,11.65h36.69L489.71,537Z"/><path class="cls-2" d="M487.73,542.07s-2.44,15.23-6.24,22.83a56,56,0,0,0-4.88,14h23.05s3.39-24.91,2.17-36.8Z"/><path class="cls-2" d="M496.59,578.87v-.07a13.93,13.93,0,1,0-27.85,0v.07Z"/><path class="cls-3" d="M473.81,317.66S461.15,382.4,462.59,433.3,471,537,471,537h19.38L516,317.66Z"/><path class="cls-3" d="M500.26,317.66s-9.9,201.26-19.44,224.41H515.4s35.32-139.59,35.74-224.41Z"/><rect class="cls-4" x="248.5" y="433.94" width="372.48" height="10.99"/><rect class="cls-5" x="261.99" y="231.7" width="345.53" height="202.22"/><circle class="cls-6" cx="434.75" cy="162.49" r="6.44"/><line class="cls-6" x1="261.99" y1="232.82" x2="428.31" y2="162.49"/><line class="cls-6" x1="607.52" y1="232.82" x2="441.19" y2="162.49"/><line class="cls-6" x1="137.85" y1="658.1" x2="686.52" y2="658.1"/><rect class="cls-7" x="168.59" y="618.5" width="487.18" height="39.6"/><rect class="cls-7" x="207.25" y="578.87" width="409.87" height="39.6"/><path class="cls-5" d="M499.71,259s-38.11,4.21-47.47,4.07-19.67-50.18-17.09-69.17,36.76-6.75,36.76-6.75l44.08.38s33.77-13,34.73,4.88S550,258.34,535,260.91,499.71,259,499.71,259Z"/><path class="cls-1" d="M468,157.84a48.35,48.35,0,0,0,0,9.49c.54,4.61-1.09,6.51-3.79,7.87-1.7.84.53,1.73,3.18,2.26,1.79.35,3.16,1,3.4,2.66.69,4.64,2.52,12.82,6.84,11.35,0,0,9.08,15.87,15.46,15.87S516,187.54,516,187.54s-8.27,0-11.66-7.06a81.88,81.88,0,0,1-5-13.29s.89-16.41-10-17.63S470.28,150.52,468,157.84Z"/><path class="cls-5" d="M473.16,146a5.63,5.63,0,0,1-3.38.59c-3.9-.49-13.09-1-14.11,5-1.16,6.75,6.23,9.71,14.88,8.43a5.48,5.48,0,0,1,5,1.89,5.35,5.35,0,0,0,4.27,2.19c3.84-.18,7.06-4.48,11.2-3.06,2.75.94,2.36,5.9,1.79,9.12a3.38,3.38,0,0,0,2.27,3.77l7.33,2.42s8-20.71-4.07-28a7.67,7.67,0,0,1-2.22-2.14C494.17,143.41,488.2,138.23,473.16,146Z"/><path class="cls-8" d="M484,161.73s-4.62,4-.72,8.37a6.16,6.16,0,0,0,5.23,2.26,5.1,5.1,0,0,0,4.57-6.92l-.05-.1a4,4,0,0,0-6-2,3.53,3.53,0,0,0-1.33,4.69,2.79,2.79,0,0,0,4.31.77,2.1,2.1,0,0,0-.68-3.63"/><path class="cls-8" d="M476.87,192.6s5.16-2.4,7.19-3.48c2.22-1.18,5.75-2.63,4.39,7.46"/><path class="cls-6" d="M499.71,259l32.55-3.85-1.77-20-67.75,2.5a3.3,3.3,0,0,1-3.15-2c-2.5-5.77-9.41-22.15-10.08-29.13"/><path class="cls-6" d="M527.52,235.25s4.6-20.73,4.74-29.27"/><path class="cls-9" d="M530.93,240s21.42-7.66,30.47-.2-2.17,11.08-5.07,11.08-17.21-2.93-24.53-1Z"/><path class="cls-9" d="M473.4,237.25S461.06,219,448.3,219.68s-4.88,12.93,0,13.85,12.21,4.19,12.21,4.19Z"/><path class="cls-7" d="M619.86,304.11a179.86,179.86,0,0,1-7.62,16.54c-4.34,8.14,3.07,12.48,4.88,13s2.72,9.18,18.09,7,0-41,0-41Z"/><path class="cls-4" d="M607.44,383s-3,52.67-16,66.55l31.74-29.38V383.05H607.44Z"/><path class="cls-1" d="M647.14,336.2s21-7.05,22.24,26.58-7.59,51.45-7.59,51.45H615V383H603.56s1.31-41.28,23.7-44.31S647.14,336.2,647.14,336.2Z"/><path class="cls-5" d="M625.79,299.86a13.35,13.35,0,0,0-3.44,8.49C622,314,616,316,616,316l4.89,2s-2,10.85,1.63,11.57,12.47-3.44,12.84,1.63-1.63,5.43-1.63,5.43l-6.51,2.17s5.24,7.77,17.72,0,2.35-35.63,2.35-35.63S636.46,293.16,625.79,299.86Z"/><path class="cls-7" d="M632.8,291.17a7.8,7.8,0,0,1-3.55.47c-3.91-.41-12.94-.55-13.23,6.94-.25,6.75,7.73,6.51,12.49,5.78a2.28,2.28,0,0,1,2.62,2.49c-.22,1.93.11,4.18,2.48,4.93,4.48,1.45,8.64-4.33,11.89,1.45s-6.69,3.8-4.16,17.18,13.64,10.26,15.36,9.22c4.52-2.72,3.47-7.13,8.15-8.68,3.25-1.09,4.51,2.72,9.58,1.26s.54-13-7.59-16.15c-7.8-3.06-3.31-13.49-13.11-19a8.08,8.08,0,0,1-2.28-2C649.35,292.55,643.45,287.23,632.8,291.17Z"/><rect class="cls-5" x="618.11" y="414.23" width="43.04" height="6.78"/><line class="cls-10" x1="614.13" y1="383.53" x2="614.13" y2="353.52"/><path class="cls-5" d="M630.51,356.54s-9.88,3-18.37-1.35c-7.65-3.9-35.49-63.27-41-75.16a1.56,1.56,0,0,0-2.9.16c-.68,2.06-.54,6,3.11,13.38a2.88,2.88,0,0,1-.54,3.29c-2.22,2.27-5.48,7.28-.36,13.83,2.38,3,5.73,5.7,7.37,9.18,7,14.84,23.48,50.88,33.15,53.59,11.36,3.18,24.79-1.88,24.79-1.88Z"/><path class="cls-8" d="M653.1,342.19s-17.9,8.12-23.33,12.46L636.21,373s12.1-2.62,17.89-2.08"/><path class="cls-5" d="M666,630.43s1.62,15.46-9.5,18.17-20,5.43-20,9.5H679s-1.07-20.16-1.62-28Z"/><path class="cls-4" d="M569.56,603.3s2.18,11.13-4.61,19.44c-6.55,8-21.17,4.16-21.17,10.94h41.51S584,612,582.59,603.3Z"/><path class="cls-6" d="M634.9,312.1s-5.84,2.2-3.65,7.75a6.27,6.27,0,0,0,5.13,4.21,5.09,5.09,0,0,0,5.32-2.48,5.18,5.18,0,0,0,.57-2.83,4.05,4.05,0,0,0-5-4c-1.4.38-3.33,1.62-2.93,4a2.83,2.83,0,0,0,3.85,2.26,2.14,2.14,0,0,0,.63-3.71"/><path class="cls-5" d="M630,421s.08,80.57,12,105,19.22,104.13,19.22,104.13h19s-1.09-70.8-8.68-104.56S661.15,421,661.15,421Z"/><path class="cls-4" d="M618.11,421s-61.93,54.26-63.56,90.6,11.24,91.69,11.24,91.69h18.05s-3-80.29,5.7-94.12S630.93,456,630.93,456l-1-35Z"/><path class="cls-4" d="M172.74,463.91S304.86,445.54,316.08,478s22.17,151.63,22.17,151.63H307.38s-17.2-94.22-21.94-124.51c0,0-42.94-.16-76.35-.16S172.74,463.91,172.74,463.91Z"/><polygon class="cls-5" points="240.29 523.83 225.37 523.83 268.23 657.92 274.2 657.92 240.29 523.83"/><path class="cls-5" d="M172.74,463.91s128.38-30.69,141.48,1.75-47.09,152.81-47.09,152.81l-36.35-11.92,42.61-109.43s-33,7.82-64.3,7.82S174.11,484,172.74,463.91Z"/><polygon class="cls-5" points="191.69 523.83 206.62 523.83 163.76 657.92 157.79 657.92 191.69 523.83"/><path class="cls-7" d="M221,505.1H165.16s3.79,22.79,26,22.79h45c22.25,0,26-22.79,26-22.79Z"/><path class="cls-5" d="M202.58,336.92c-.22-5.18.22-19.8,11.86-22,14.19-2.72,17.3.78,17.3.78s1,4.71,2.13,9.51,4.51,5,4.51,5-1.39.85-2.76,1.51a2.32,2.32,0,0,0-1.29,2.08c0,3.68-.26,12.86-3,14.23-3.42,1.72-9.48-2.53-12.38-1.48s-6.28,10.81-6.28,10.81l-13.92-3Z"/><path class="cls-1" d="M226.89,303.08a4.88,4.88,0,0,0,3.57.74c3.73-.63,11.15-1,10.49,6.15-.69,7.42-9.82,8.62-13.83,8.79a2,2,0,0,0-1.9,1.78c-.16,1.7-.78,4.16-2.89,5.26-3.37,1.76-7.77-5.28-11.43-2.2s4.4,7,3.81,10.11c-.43,2.23-6.8,3.7-10.25,4.34a3.3,3.3,0,0,1-3.42-1.54c-3.42-5.63-11.94-22.31,2-29.32C203,307.19,215.77,295.41,226.89,303.08Z"/><path class="cls-6" d="M221.35,326.07s5.3,1.91,3.41,6.94a5.7,5.7,0,0,1-3.73,3.68,4.69,4.69,0,0,1-6.22-4.4v-.1a3.65,3.65,0,0,1,4.46-3.67,3.25,3.25,0,0,1,2.7,3.57,2.56,2.56,0,0,1-3.43,2.1,1.93,1.93,0,0,1-.62-3.34"/><polygon class="cls-1" points="333.02 442.82 353.61 391.85 356.4 392.97 335.05 445.83 334.91 445.77 334.91 445.83 270.18 445.83 270.18 442.82 333.02 442.82"/><path class="cls-3" d="M198.78,344.9a38.11,38.11,0,0,1,25.55,24.63c6.85,20.32,21.69,61.55,21.69,61.55h49.83l2.35,15.05s-46,9.58-57.22,8.21-20-23.45-20-23.45l-6.2,63.51H155.75S166,368.35,198.78,344.9Z"/><line class="cls-6" x1="221.01" y1="430.88" x2="201.86" y2="388.09"/><path class="cls-6" d="M191.61,352s26.67,6.13,32,15.62"/><path class="cls-5" d="M296.18,433.17s3-.15,7.88-.92,17.59-19.94,25.6-22.77-4.7,11.84-4.7,11.84,8.68,8.51-8.88,17.27a51.1,51.1,0,0,1-12,4.16l-6.24,1.37Z"/><line class="cls-6" x1="273.38" y1="497.12" x2="285.94" y2="494.09"/><path class="cls-5" d="M258,615.5s-2.24,9.59,0,15,2.77,17.36,2.77,17.36,10,3.07,10,10H252.31l-20.54-30.64a1.61,1.61,0,0,1,.49-2.26c2.43-1.52,7.48-5.44,12.15-14Z"/><path class="cls-5" d="M260.81,647.88a26.36,26.36,0,0,0-6.33-.91"/><path class="cls-4" d="M330.8,629.61s1.81,13.52,6,17.35,22.79,3.45,22.79,11H317.42s2.71-19.81.72-28.31Z"/><path class="cls-5" d="M555.86,633.68c-22.84,0-41.34,10.94-41.34,24.42h82.67C597.19,644.62,578.68,633.68,555.86,633.68Z"/><rect class="cls-1" x="379.92" y="374.93" width="169.53" height="7.77"/><rect class="cls-1" x="416.18" y="393.8" width="169.53" height="7.77"/></svg>