<svg id="图层_1" data-name="图层 1" xmlns="http://www.w3.org/2000/svg" viewBox="0 0 800 800"><defs><style>.cls-1,.cls-11{fill:#fff;}.cls-1,.cls-10,.cls-11,.cls-12,.cls-13,.cls-14,.cls-15,.cls-16,.cls-2,.cls-3,.cls-4,.cls-6,.cls-7,.cls-8,.cls-9{stroke:#000;}.cls-1,.cls-12,.cls-13,.cls-14,.cls-15,.cls-16,.cls-3,.cls-6,.cls-7{stroke-linecap:round;stroke-linejoin:round;}.cls-1,.cls-10,.cls-11,.cls-12,.cls-13,.cls-14,.cls-15,.cls-2,.cls-3,.cls-4,.cls-5,.cls-6,.cls-7,.cls-8,.cls-9{stroke-width:0.91px;}.cls-15,.cls-2{fill:#ffca6e;}.cls-10,.cls-11,.cls-2,.cls-4,.cls-5,.cls-8,.cls-9{stroke-miterlimit:9.15;}.cls-3{fill:#3165e8;}.cls-4{fill:#ffd26e;}.cls-16,.cls-5,.cls-7,.cls-9{fill:none;}.cls-5{stroke:#002fa4;}.cls-6{fill:#002fa4;}.cls-8{fill:#1331a1;}.cls-10{fill:#00bb85;}.cls-12{fill:#3165f0;}.cls-14{fill:#dbdde2;}.cls-16{stroke-width:0.91px;}</style></defs><rect class="cls-1" x="253.97" y="297.99" width="276.12" height="193.58"/><rect class="cls-1" x="253.97" y="297.99" width="276.12" height="33.07"/><circle class="cls-1" cx="272.26" cy="314.52" r="4.78"/><circle class="cls-2" cx="292.53" cy="314.52" r="4.78"/><circle class="cls-3" cx="312.85" cy="314.52" r="4.78"/><path class="cls-4" d="M410.82,377.13h-16v40.52h-9.29V377.13H369.31v-7.38h41.43v7.38Z"/><rect class="cls-5" x="352.98" y="356.08" width="78.03" height="78.03"/><rect class="cls-6" x="349.77" y="352.49" width="7.52" height="7.52"/><rect class="cls-6" x="388.79" y="352.49" width="7.52" height="7.52"/><rect class="cls-6" x="426.76" y="352.49" width="7.52" height="7.52"/><rect class="cls-6" x="349.77" y="429.48" width="7.52" height="7.52"/><rect class="cls-6" x="388.79" y="429.48" width="7.52" height="7.52"/><rect class="cls-6" x="426.76" y="429.48" width="7.52" height="7.52"/><rect class="cls-6" x="349.77" y="390.98" width="7.52" height="7.52"/><rect class="cls-6" x="426.76" y="390.98" width="7.52" height="7.52"/><line class="cls-7" x1="546.49" y1="642.99" x2="695.57" y2="542.87"/><circle class="cls-3" cx="566.42" cy="547.58" r="5.82"/><circle class="cls-3" cx="506.76" cy="607.9" r="3.07"/><circle class="cls-8" cx="473.49" cy="652.41" r="5.1"/><path class="cls-9" d="M524.79,300.14s-31.3,70.07,19.29,45.23c26.79-13.13,57.57-24.25,87.71-25,10.91-.27,23.85,1,32.15,8.89a24.06,24.06,0,0,1,7,13.33c1,5.36,1.77,16.07-2,20.52-6.73,8-11.76-1.57-11.89-7.72-.26-17.38,24.44,7.45,24.44,7.45S753.67,452,653.69,478.1"/><path class="cls-9" d="M148.55,424.51s-136-125.87-6.47-176.78c0,0,60.91-26.61,89.67-74.18s112.93-42.09,170.51,27.7c0,0,31,32.1,70.84-4.44s115.15,98.55,64.24,142.8"/><line class="cls-9" x1="80.05" y1="642.86" x2="719.95" y2="642.86"/><circle class="cls-10" cx="570.68" cy="207.8" r="15.03"/><circle class="cls-11" cx="212.4" cy="200.08" r="11.04"/><path class="cls-12" d="M311.54,642.86h7a30.63,30.63,0,0,1-7,0Z"/><rect class="cls-11" x="162.03" y="536.76" width="74.89" height="106.01"/><polyline class="cls-13" points="236.91 583 236.91 642.6 162.01 642.6 236.91 583"/><path class="cls-8" d="M280.37,503.79s12.48,1.63,18.82,21.82,25.1,89.09,25.1,89.09l-18.11,5.49s-30-58.89-34.63-87.12l-66.66-13.4-.46-12.95Z"/><path class="cls-12" d="M186.71,497.78s-4.64,39,28.83,39,49.8-3.92,49.8-3.92L242.66,614.1l18.89,6.53s44-86.46,31.05-109.93S186.71,497.78,186.71,497.78Z"/><path class="cls-1" d="M257.69,619.34s-4,6.6-1.11,11.89,23.92,3.26,27.19,11.43H242.93a2.65,2.65,0,0,1-2.56-3.39c1.77-6.15,5.43-19,6.41-23.59Z"/><path class="cls-1" d="M320.82,615.8s4.05,18.83,14.18,19,15.49,4.44,15.94,7.9H314.61s-.72-21.24-3.4-23.92Z"/><path class="cls-11" d="M315.2,523.78l40-95.42-29.74,6-.46.07-59.41,12-1,.19-59.87,12.09-1,.19-29.14,5.89Zm10-71L306.25,498,238.93,469.8Z"/><path class="cls-11" d="M189.06,456.87c-3,23.2,7.45,43.85,15.75,37.71,14.64-10.85,38-40.91,40.2-41.05,1.24-.07-.46-3.93,3.6-2.22,2.09.85,5.36-1.9,5.36-1.9s6.6-1.7,9-2.29c-1.44-.45-3.53-.91-5-1.24a19,19,0,0,0-3.4-.58,50.65,50.65,0,0,0-7.07.26c-3.26.59-4.51,1.31-7.44,2.81a31.5,31.5,0,0,0-5,3.4c-4.06,3.2-19.61,21.37-23,23.86"/><path class="cls-11" d="M195.21,430.72c-4.18,7.45-6.86,17.84-7.78,29.54a86,86,0,0,0,14.84,2.1"/><path class="cls-11" d="M222.53,422.88c1.95.65,1.24,5.36,3.2,6,1.43.46,4.18-.13,5.49.59,6.92,3.92,5.16,11.7,6,21.37,2.94,7.38,1.76,9.73-.59,13.86-2.87,5.16-1.64,2.35-6,6-3.6,3-4.64,24.9-4.64,24.9l-39.47,2.16s3.07-28.11,4.12-33.59c2.68-14.12,4.57-24.58,10.39-37.58"/><path class="cls-11" d="M239.65,406.34c-.06-2.35.85-5,.79-7-.13-4.05-.65-9.87-7.39-12.22s-14.05-1-16.27,3.86-1.7,12.16-2,16-3.2,8.56-3.2,8.56l14.38,6.22s2.35-5.1,3.33-5.76,1.31,1.83,4.51,1.57c.91-.07,1.64-1,2.09-1.77a17.23,17.23,0,0,0,1.64-3.27c.19-.52,1.18-1.24,1.18-1.24l2.62-1.18A4.61,4.61,0,0,1,239.65,406.34Z"/><path class="cls-11" d="M232.66,461.7s11.44,28,13.33,30.19c4.9,5.82,19,13.6,28.1,18.24h0c3.2,1.63,5.76,2.87,7.06,3.53a7.78,7.78,0,0,1,1.18.46,63.4,63.4,0,0,0,8.11,2.28c11,2.35,15.16-3.86,15.16-3.86s1.37-2.35-3.47-3.26c-3.53-.65-10.58-.13-17.45-1.71-9-4.11-25.43-19.54-28.3-22.28-2.61-2.55-13.53-35.62-13.53-35.62Z"/><path class="cls-11" d="M226.06,448c.06.13,1.37,3.79,1.37,3.79l6.86,17.84L250.23,463s-9.8-24.51-16.53-33.14c-5-6.34-10.65-3.78-16.4-9.41"/><path d="M228,425c-.39-1.43-1.44-2.55-1.7-4a7,7,0,0,1,.79-4.31,6.81,6.81,0,0,1,1.89-1.77c3-2.35,4-4.32,3.07-7.9a5.7,5.7,0,0,1-.52-2.75c.13-1.1,1-1.83,2.62-1.43.78.19.39,2.93,1.5,1s2.09-2,2-6.34c0-.52-.19-2.62.13-2.87,2,1.43,2.55,4,2.81,5.82,1.5-.65,1.89-2.81,1.95-3.66a10,10,0,0,0-.78-4.32c-2.62-5.62-5.36-6.67-7.72-7.65s-4.63-2-7.12-1.89-5.49.78-6.21,2.61c-3.41-.85-5.36,2.1-6.15,3.2a16.67,16.67,0,0,0-2.62,5.1c-.85,2.68-1,5.55-1.76,8.3a12.23,12.23,0,0,1-3.27,6.14c-1.64,1.51-4,1.64-5.82,3A9.15,9.15,0,0,0,197.6,419c.13,2.87,1.63,6-.13,8.62-.59.86-1.37,1.57-1.89,2.42a6.55,6.55,0,0,0,.12,6.8c1.25,2,3.66,4.38,5.89,5a17.38,17.38,0,0,0,6.34.85c4.18-.19,7.64,0,12-3.72,2.48-2.16.92-3.33,3.27-5.62,1.31-1.25,3.27-2,4.25-3.6a6.56,6.56,0,0,0,.64-4.57C228,425.1,228,425,228,425Z"/><path d="M228.28,424.9c-.46-1.7-1.7-3.07-1.7-4.9a6.71,6.71,0,0,1,.58-2.74,5.81,5.81,0,0,1,1.83-2c2.23-1.7,4.06-3.72,3.79-6.73a6.53,6.53,0,0,0-.46-2,3.89,3.89,0,0,1-.39-2.41,1.34,1.34,0,0,1,1.56-.92c.52.07.46.4.59.92.19.72.79,1.18,1.44.52a10.17,10.17,0,0,0,.85-1.31c.26-.33.45-.65.72-1a6.92,6.92,0,0,0,.91-3.39c.07-.73,0-1.44,0-2.23,0-.45-.19-1.43.13-1.83l-.72.2c1.64,1.24,2.29,3.33,2.55,5.36a.54.54,0,0,0,.79.45c2-.91,2.29-3.4,2.16-5.36a13.44,13.44,0,0,0-3.41-7.44,11.94,11.94,0,0,0-4.44-3.27c-2.55-1.11-5.16-2.35-8-2.35-2.29,0-6,.46-7,2.94.19-.07.4-.2.59-.27-2.88-.65-5,1-6.61,3.14a20.45,20.45,0,0,0-2.68,4.9,37.45,37.45,0,0,0-1.43,6.47,21.16,21.16,0,0,1-1.83,5.88,8,8,0,0,1-1.83,2.35,10.48,10.48,0,0,1-2.62,1.44,10.47,10.47,0,0,0-4.51,2.81,9.43,9.43,0,0,0-2.22,4.77c-.33,1.9.13,3.66.39,5.56a7.19,7.19,0,0,1,.06,3.13,6.76,6.76,0,0,1-1.63,2.81,6.8,6.8,0,0,0-1.9,4.9,8.53,8.53,0,0,0,1.9,4.91,13,13,0,0,0,4.18,3.59,14.44,14.44,0,0,0,5.49,1.38,39.51,39.51,0,0,0,5.42-.13,19.37,19.37,0,0,0,4.7-.92,13.23,13.23,0,0,0,5.43-3.59c1-1.25.91-2.94,1.89-4.18,1.25-1.57,3.33-2.23,4.51-3.79a6.7,6.7,0,0,0,1-5.69c-.19-.72-1.24-.39-1.11.33a5.32,5.32,0,0,1-1.18,5.09c-1.1,1.11-2.61,1.77-3.72,2.88a8.63,8.63,0,0,0-1.7,3.46c-.52,1.71-2.48,2.88-4,3.73-2.81,1.56-5.82,1.63-9,1.76a18.25,18.25,0,0,1-5.61-.65,9.77,9.77,0,0,1-4.58-2.81,8.68,8.68,0,0,1-2.55-4.57,6,6,0,0,1,1.77-5.09,6.59,6.59,0,0,0,1.76-4.71c-.06-1.83-.65-3.53-.72-5.36a9.07,9.07,0,0,1,1.31-5,8.06,8.06,0,0,1,4.18-3.26,10.18,10.18,0,0,0,4.12-2.42,12.26,12.26,0,0,0,2.41-4.32c1.44-4.24,1.31-8.82,3.53-12.87,1.37-2.48,3.6-5.62,6.8-4.84a.45.45,0,0,0,.58-.26c.86-2,3.73-2.29,5.56-2.35,2.68-.13,5.16,1,7.52,2a12.12,12.12,0,0,1,3.72,2.28,14.29,14.29,0,0,1,3.72,6c.52,1.83.79,5.16-1.31,6.22.27.12.53.19.79.33a8.74,8.74,0,0,0-3.07-6.08c-.27-.19-.52,0-.73.19-.52.73-.26,2.23-.19,3.08a9.23,9.23,0,0,1-.52,4,14.46,14.46,0,0,1-1.5,2.35c0-.07-.19.26-.19.26s.26.07.39.07-.06-.07-.06-.13-.13-.46-.13-.59a1.67,1.67,0,0,0-.59-1,2.55,2.55,0,0,0-3.13.79c-.85,1.31-.13,2.74.26,4.05a5.82,5.82,0,0,1-.19,4.32,10.71,10.71,0,0,1-3.27,3.4,6,6,0,0,0-2.35,4.64,5.13,5.13,0,0,0,.46,2.55c.39,1,1.11,1.9,1.44,2.94C227.76,425.55,228.41,425.36,228.28,424.9Z"/><path class="cls-7" d="M234.81,404.64a3.12,3.12,0,0,1,2.55,2.68c.33,1.7-.06,2.87-.72,3.47-1.64,1.56-3.72-.33-3.72-2.81v-.06c0-1.77,1-2.29,1.5-2.23a1.69,1.69,0,0,1,1.56,1.44c.33,1.44-.58,1.89-1.18,1.77a1.43,1.43,0,0,1-.65-2"/><circle class="cls-3" cx="135.28" cy="413.6" r="32.61"/><rect class="cls-11" x="444.41" y="249.89" width="168.36" height="117.25"/><rect class="cls-14" x="479.31" y="269.43" width="98.49" height="75.35"/><rect class="cls-15" x="585.05" y="269.16" width="92.81" height="6.15"/><rect class="cls-15" x="596.56" y="285.31" width="92.81" height="6.15"/><circle class="cls-4" cx="405.13" cy="627.83" r="13.86"/><polygon class="cls-1" points="464.21 642.8 442.19 639.47 441.86 639.47 440.75 638.55 357.36 569.86 370.49 553.59 453.89 622.14 455.06 623.12 455.06 623.12 455.19 623.39 464.21 642.8"/><path class="cls-8" d="M695.57,543l-16.34-25.09s-26.47-30.91-39.87,3.27c0,0-7.32,22.74-33.34,21.57s-22.48,15.82-33,16.86c-6.6.65-12.87-.46-19.35-1.77-4.77-.91-9.41-1.37-13.66,1.57-4.57,3.2-7.52,8.5-10.06,13.26a115.73,115.73,0,0,0-9.73,23.4c-2.94,10.52-6.15,18.83-15.82,24.84-9.29,5.75-20.06,8.56-29.28,14.44l-11.5,7.39h83Z"/><line class="cls-7" x1="496.69" y1="568.82" x2="645.76" y2="468.7"/><line class="cls-7" x1="513.29" y1="593.52" x2="662.37" y2="493.46"/><line class="cls-7" x1="529.9" y1="618.29" x2="678.97" y2="518.17"/><line class="cls-7" x1="579.5" y1="477.51" x2="645.83" y2="576.27"/><line class="cls-7" x1="554.66" y1="494.18" x2="621" y2="592.93"/><line class="cls-7" x1="604.4" y1="460.78" x2="670.67" y2="559.53"/><line class="cls-7" x1="529.82" y1="510.91" x2="596.1" y2="609.6"/><line class="cls-7" x1="504.93" y1="527.58" x2="571.26" y2="626.33"/><rect class="cls-16" x="498.21" y="484.46" width="179.59" height="118.94" transform="translate(-203.38 420.17) rotate(-33.88)"/><circle class="cls-1" cx="468.13" cy="455.23" r="11.76"/></svg>