<svg id="图层_1" data-name="图层 1" xmlns="http://www.w3.org/2000/svg" viewBox="0 0 800 800"><defs><style>.cls-1,.cls-13{fill:none;}.cls-1,.cls-10,.cls-11,.cls-12,.cls-14,.cls-15,.cls-2,.cls-3,.cls-4,.cls-5,.cls-6,.cls-7,.cls-8,.cls-9{stroke:#000;}.cls-1,.cls-10,.cls-13,.cls-14,.cls-15,.cls-2,.cls-4,.cls-8,.cls-9{stroke-linecap:round;stroke-linejoin:round;}.cls-1,.cls-10,.cls-11,.cls-12,.cls-13,.cls-14,.cls-15,.cls-2,.cls-3,.cls-4,.cls-5,.cls-6,.cls-7,.cls-8,.cls-9{stroke-width:0.91px;}.cls-2,.cls-6{fill:#fff;}.cls-3{fill:#ffcd6e;}.cls-11,.cls-12,.cls-3,.cls-5,.cls-6,.cls-7{stroke-miterlimit:9.15;}.cls-4{fill:#3165eb;}.cls-5{fill:#1331a1;}.cls-7{fill:#6cc4ff;}.cls-8{fill:#dbdde2;}.cls-9{fill:#ffca6e;}.cls-10{fill:#e3e5ea;}.cls-11{fill:#ffce6e;}.cls-13{stroke:#fff;}.cls-15{fill:#3165ed;}</style></defs><line class="cls-1" x1="24.8" y1="664.8" x2="775.2" y2="664.8"/><rect class="cls-2" x="174.09" y="182.04" width="451.88" height="307.68"/><rect class="cls-2" x="174.09" y="181.74" width="451.88" height="33.84"/><circle class="cls-2" cx="194.48" cy="198.66" r="5.1"/><circle class="cls-3" cx="215.38" cy="198.51" r="5.1"/><circle class="cls-4" cx="236.37" cy="198.51" r="5.1"/><path class="cls-2" d="M677.39,605.34A44.7,44.7,0,0,1,632.7,650v14.78H751.63V545.87H632.7v14.78A44.69,44.69,0,0,1,677.39,605.34Z"/><path class="cls-5" d="M502.38,504.86c-25.7,0-49.19-8.86-65.52-24.38a5.63,5.63,0,0,0-8,0C412.93,496,389,504.86,363.35,504.86a5.88,5.88,0,0,0-5.76,5.77V581c0,22.6,12,43.43,31.47,56.29l40.78,26.59a8.27,8.27,0,0,0,3.1.89,8,8,0,0,0,3.1-.89l40.79-26.59c19.94-12.86,31.46-34.13,31.46-56.29v-70.4a6.1,6.1,0,0,0-5.91-5.77Z"/><polygon class="cls-6" points="395.05 578.74 421.28 599.28 470.62 551.7 463.68 544.39 420.54 585.9 401.25 570.76 395.05 578.74"/><circle class="cls-7" cx="695.05" cy="167.11" r="11"/><rect class="cls-2" x="270.5" y="260.57" width="253.68" height="150.33"/><rect class="cls-8" x="294.81" y="285.61" width="131.05" height="100.24"/><rect class="cls-9" x="448.54" y="298.98" width="123.44" height="8.2"/><rect class="cls-9" x="463.83" y="277.41" width="123.44" height="8.2"/><polygon class="cls-10" points="654.42 252.07 709.97 220.6 659.3 223.63 663.21 232.2 652.79 243.73 654.42 252.07"/><polygon class="cls-10" points="709.97 220.6 651.76 231.31 609.43 260.71 709.97 220.6"/><polygon class="cls-10" points="659.3 223.63 709.97 220.6 657 205.09 659.3 223.63"/><path class="cls-1" d="M662,229.39s-152.17-15.81-137,15.14-43.81,39.08-43.81,39.08-66.56,10-40.86,55.18c5.17,9.09,12,21.57,22.24,26a13.78,13.78,0,0,0,8.79.44c4.51-1.26,5.55-6.35,4.44-10.42-.81-2.74-3.7-5.76-6.43-3.7-1.92,1.48-1.56,5.62-1.85,7.76-2.59,20.1,93.37,44.4,93.37,44.4s58.14,17.36,39,62.42"/><path class="cls-11" d="M153.33,664.8c40.79,0,73.87-47.13,73.87-105.35H79.38C79.39,617.67,112.48,664.8,153.33,664.8Z"/><path class="cls-12" d="M227.65,379a12.59,12.59,0,0,1,12.49,7.31c.29.74.51,1.55.74,2.36,1.85,6,6.13,5.24,6.13,5.24a7.74,7.74,0,0,0-2.59,5c-.37,3.32,1.48,11.53-3.25,12.93s-7.75-1.78-7.53,1.4.36,6.35.36,6.35l-10.56,2.06-7.91-3.25s4.95-2.66,2.66-13.22C216.05,395.46,209.63,380.24,227.65,379Z"/><path class="cls-2" d="M227.06,377.14s1.55-8.2,8.94-6.58a7.67,7.67,0,0,1,6.5,8.43,10.28,10.28,0,0,1-3,6.13s-.29,5.39-4.73,7.16c0,0-4.65-4.8-6.35-2.88s-.36,6.43,2.74,9.08-.07,7-3.7,8c0,0-3.55-3.55-9.3-1.32C218.12,405.21,201.57,378.32,227.06,377.14Z"/><path class="cls-13" d="M234.74,392.21s3.77,3.77,2.66,6.94-5.91-.89-5.91-.89-2.73-1.92-1.1-4.43,4.35,1.25,4.35,1.25,1.7,2.36-.52,2.36a2.67,2.67,0,0,1-2.66-2"/><path class="cls-12" d="M223.14,422.2l24,2s32.79-19.36,44.32-35.68,16.84-15.3,22.6-17.06a25.12,25.12,0,0,0,9.39-5.32,2.12,2.12,0,0,0,.07-.66,15.7,15.7,0,0,1,.29-1.78,14.93,14.93,0,0,1,1.4-4.28,3,3,0,0,1,1.49-1.4c.81-.29,5.54-1.18,6,1.56a11.88,11.88,0,0,1,.07,3.62c-1,7.39-1.7,12.63-13.44,17.58s-12.78,1.48-17.51,7.68-26.3,40.05-43.81,52.08c0,0-10,10.64-21,2.44l-17.21-5.47Z"/><path class="cls-14" d="M295.17,629.12s-6.57,14.55,1.49,21.13,25.48,7.76,27.91,14.56H278.4s-2.44-17.88,3.92-35.68h12.85Z"/><path class="cls-14" d="M221.38,616.56s-7.31,12.93-7.09,21.64.52,19.65,5.83,21.14,6.58,5.09,6.58,5.09h-17s-4.35.52-8.05-5.62c-3-5.09-11.08-14.55-13.59-17.5a1.37,1.37,0,0,1,0-1.78c3.39-3.91,16.77-19.5,18.91-23a52.25,52.25,0,0,0,4.06-8.87Z"/><path class="cls-5" d="M221.15,330.3c13.3,13.23,32.21,15.81,42.25,5.69s7.47-29-5.83-42.25-32.21-15.81-42.26-5.69S207.86,317.08,221.15,330.3Z"/><path class="cls-6" d="M382.56,384c6.65,6.65,6.43,17.58-.44,24.45A17.62,17.62,0,0,1,362,412.08a12.57,12.57,0,0,1-2.45-1.48L258.75,337l-7.17-5.24-.07-.07c-.07-.08-.07-.08-.15-.08a158.62,158.62,0,0,1-13.81-12.41c-17.06-17-27.48-34.13-23.35-38.34l83.7-140.88C294.13,151,314.37,182.78,346,214.32c31.25,31.18,62.65,51.2,74.1,48L304.18,326.76l74.32,54.29Z"/><path class="cls-6" d="M210.36,526.58l64.35,115.1,22.82-4s-20-94.71-37.82-106.22S210.36,526.58,210.36,526.58Z"/><path class="cls-6" d="M171.21,512s-23.86,47.5,24.38,47.13,62.12-1.77,62.12-1.77l-59.4,56.81L220,636.58c1.55-1.18,6.65-6.06,8.2-7.24,4-3.1,8-6.2,11.89-9.39,5.47-4.35,10.86-8.86,16.25-13.44,6-5.1,11.9-10.35,17.59-15.81,5.54-5.24,10.93-10.64,16-16.4,7.54-8.58,16-19.06,16.1-31.69a11.15,11.15,0,0,0-.59-3.48,14.68,14.68,0,0,0-2.29-4.21,26.45,26.45,0,0,0-4.87-4.65,46.58,46.58,0,0,0-8.27-4.73,84.77,84.77,0,0,0-12.56-4.44,175.79,175.79,0,0,0-17.59-3.91c-7.83-1.33-15.66-2.29-23.49-3-10-1-20.17-1.48-30.29-1.85C194.56,511.88,182.88,511.81,171.21,512Z"/><path class="cls-15" d="M172.1,512s22.82.66,55.1.66c0,0,2.67-35.6,23.72-58.36l13.88,7.9,9.39-23.42s-23-22.38-49.13-20.75c-5.39.36-11,.59-16.18,2.36C184.88,428.7,172.1,512,172.1,512Z"/><path class="cls-12" d="M273.68,440.67l9.38,5.4s28-25.78,35.91-44.18,13.22-18.54,18.54-21.42a23.72,23.72,0,0,0,5.76-4.28,8.78,8.78,0,0,0,2.29-4.51c.37-1.78-.15-3.55.52-5.32.82-2.28,5.91-4.58,7.16-1.48a11.33,11.33,0,0,1,.82,3.48c.67,7.46,1,12.7-9.46,20s-12.19,4.14-15.44,11.23-17.37,44.69-31.92,60.13c0,0-6.8,8.12-19.21,2.36l-11.15-3.84Z"/><path class="cls-12" d="M346.37,214.25c34.35,34.28,68.92,55.25,77.27,46.84s-12.71-42.92-47.06-77.2-68.92-55.25-77.27-46.84S312,180.05,346.37,214.25Z"/><polygon class="cls-14" points="658.26 490.9 703.62 492.3 702.66 501.4 658.34 499.25 658.26 490.9"/><path class="cls-5" d="M589.48,508.63s-15.07,1.85-22.75,24.45-30.29,100-30.29,100l21.87,6.2s36.27-66.12,41.88-97.81l80.52-15.07.53-14.48Z"/><path class="cls-15" d="M702.66,501.84s5.62,43.81-34.8,43.81-60.13-4.36-60.13-4.36,24.75,75.43,25.93,91.75l-21.43,6.73s-53.11-97-37.52-123.37S702.66,501.84,702.66,501.84Z"/><path class="cls-2" d="M616.89,638.28s4.87,7.39,1.33,13.37-28.89,3.7-32.8,12.78h49.42a3.06,3.06,0,0,0,3.1-3.84c-2.14-6.94-6.51-21.28-7.76-26.45Z"/><path class="cls-2" d="M540.58,634.29s-4.88,21.13-17.14,21.28-18.76,4.95-19.28,8.86h43.95s.89-23.78,4.14-26.81Z"/><path class="cls-6" d="M668.46,518.38,643,513.87c.37-4.35,1-24.52,1-24.52l-28.29-7.09c9.9-36.2,40.19-49.72,40.19-49.72l32.87.52c39.38,27.63,28.89,70.33,28.89,70.33l-16.18-2.95h0A30.15,30.15,0,0,1,668.46,518.38Z"/><path class="cls-1" d="M691.58,460.4a96.7,96.7,0,0,1-5.31,36.79l15.29,3.17"/><path class="cls-1" d="M642.68,455s-4.95,8.12-3.77,14,5.4,12.63,5.17,21"/><path class="cls-6" d="M706.8,501.4s-4.21,24.52-17,22.16-48.47-15.06-48.47-15.06l-4.65-10.27s37.59,8.94,45.73,8.94,8.5-8.94,8.5-8.94Z"/><path class="cls-6" d="M682.49,428.62a3.9,3.9,0,0,1-1.63-3.17c0-6.06-.15-22.24-1-29.77-1.11-9.08-15.3-8.86-15.3-8.86a68.5,68.5,0,0,0-6.72,11.3,5.74,5.74,0,0,1-4.21,3.4,4.74,4.74,0,0,1-1.47.07c-2.07-.22,1.62,2.59,3.24,3.77a1.33,1.33,0,0,1,.53,1.33c-.53,2.14-1.63,7.9-.3,10.12,1.63,2.8,7.09.74,7.09.74s5.4-2.67,4.51,7.83a3.88,3.88,0,0,1-2.36,3.24L656,432.47s-1.78,10,11.15,10.34S688.85,433,688.85,433,686,431.14,682.49,428.62Z"/><path class="cls-14" d="M665.72,380.31a1.88,1.88,0,0,1-2.29-.07c-1.92-1.63-6-4.13-9.6-.89-4.73,4.28-1.7,14.27,8.5,14a2.05,2.05,0,0,1,2,1.55,5.84,5.84,0,0,0,4,4.51c4.58,1.63,7.39-3.69,10.71-1,2.29,1.85.6,5.17-1.11,7.23a1.64,1.64,0,0,0,.15,2.29l2.59,2.36s8.12-5.47,9.08-13.3a13.85,13.85,0,0,0-4.13-11.67,2.53,2.53,0,0,1-.74-1.18c-.6-1.78-2.74-6.43-9.39-6.51C670.16,377.72,667.13,379.28,665.72,380.31Z"/><path class="cls-14" d="M685,384.16a4.83,4.83,0,0,1-.52-2.22c.08-2.66,1-8.57,8.36-9.31,9.53-1,8.64,9.68,8.64,9.68s-1,8.94-12.49,8.27a22.24,22.24,0,0,0-2.88-4.66,6.85,6.85,0,0,1-1-1.55Z"/><path class="cls-1" d="M670,399.89s-5.24,2.36-3,7.31a5.89,5.89,0,0,0,4.06,3.48,4.84,4.84,0,0,0,6-4.95v-.08a3.7,3.7,0,0,0-4.8-3.39,3.42,3.42,0,0,0-2.51,3.84,2.69,2.69,0,0,0,3.69,1.92,2,2,0,0,0,.37-3.47"/><polygon class="cls-8" points="659.37 515.14 639.27 466.01 569.76 459.65 589.93 508.78 659.37 515.14"/></svg>