<svg id="图层_1" data-name="图层 1" xmlns="http://www.w3.org/2000/svg" viewBox="0 0 800 800"><defs><style>.cls-1,.cls-4{fill:#fff;}.cls-1,.cls-10,.cls-11,.cls-2,.cls-3,.cls-4,.cls-5,.cls-7,.cls-8,.cls-9{stroke:#000;}.cls-1,.cls-10,.cls-2,.cls-3,.cls-9{stroke-miterlimit:9.15;}.cls-1,.cls-10,.cls-11,.cls-2,.cls-3,.cls-4,.cls-5,.cls-6,.cls-7,.cls-8,.cls-9{stroke-width:0.91px;}.cls-2{fill:#ffcb6e;}.cls-11,.cls-4,.cls-5,.cls-6,.cls-7,.cls-8{stroke-linecap:round;stroke-linejoin:round;}.cls-10,.cls-5,.cls-6{fill:none;}.cls-6{stroke:#fff;}.cls-7{fill:#dbdde2;}.cls-8{fill:#3165e8;}.cls-9{fill:#ff8885;}</style></defs><circle class="cls-1" cx="400.09" cy="400" r="264.07" transform="translate(-165.66 400.07) rotate(-45)"/><path class="cls-2" d="M291.2,250.54s3.27,18.12,7.39,23.9,9.9,14.9,2,25.24-1.73,12.47-9.38,21-17.09,4.86-29,3.65-19.77,7.91-28.59-8.22,17.75-63,17.75-63Z"/><path class="cls-3" d="M339.9,657.17,314.73,460H216.4s-3.15,58.88-5.17,124.52A263.67,263.67,0,0,0,339.9,657.17Z"/><path class="cls-4" d="M348.69,375.34s37.84,27,74.75,36,58.81,23.56,64.09,29.24,17.85,26.37,8.92,36.5-9.22-19.67-26-29.2-21.68-28-97-37.31c0,0-28.06,1-47.45-17.95Z"/><path class="cls-4" d="M314.73,460H216.4c-2-16.23-5.27-58.51-5.27-58.51l-54.62-17.34s1.9-5.27,25.83-39.94S251.1,305,251.1,305h23.71s55.7-2.08,84.84,62.47l-39.21,29.26Z"/><path class="cls-4" d="M275.42,314.64a16.85,16.85,0,0,0-.23-5.62c-1.06-5-2.85-15.61.61-17.34,4.56-2.28,11.72,4.23,14.65,0,1.86-2.7,2-10,1.87-15a8.13,8.13,0,0,1,4.22-7.33l2-1.13s-8.46-2.93-8.46-8.46-4.56-11.72-4.56-11.72-14.32-7.48-24.73,5.21c-7.94,9.68-9.45,38.56-9.72,51.73a28.49,28.49,0,0,0,2.71,12.75c3.17,6.74,8.67,17.71,14.34,25.62a2,2,0,0,0,3.63-.92Z"/><path class="cls-2" d="M273.81,234.33a16.61,16.61,0,0,0,9.65.06c2.91-.93,7.21-1.19,12.1,2,7.54,4.94-.53,13.3-7.64,15.58a11,11,0,0,0-5.35,3.75,6.24,6.24,0,0,1-3.05,2.07c-4.08,1.32-5.83-2.63-11.37,0s4.38,11.86,0,20.74S249.78,282.5,244.53,293s5.25,15.22,0,26.87-16.91,2.84-32.36,0-11.67,7.33-24.21,5.86-16.33-15.28-5-26.8,21.88-9.59,32.37-19.12,12.37-28,25.2-38.56C251.53,232.27,262.63,231,273.81,234.33Z"/><path class="cls-4" d="M320.45,396.73s3.69-27,0-40.67"/><polyline class="cls-4" points="211.13 401.49 218.61 404.45 228.75 358.61"/><path class="cls-4" d="M160.55,404.38a17,17,0,0,0,5.93,5.23"/><path class="cls-4" d="M168.64,388s-6.15,16-7.9,16.44-12.31-36.5-6.22-95.73a37.77,37.77,0,0,1,3-9.59c2.11-4.76,13.54-22.81,9.28-23.11s-12.93,12.16-15.52,6.69,12.63-48.21,2.9-36.83S134.65,305,134.65,305s-42.74,164.75,34,136.76c0,0,21.75-8.67,33-43.27Z"/><path class="cls-5" d="M278.44,258.33s8.17,2.61,5.58,10.38a8.69,8.69,0,0,1-5.47,5.81c-4.62,1.59-9.7-1.47-9.72-6.36V268c.08-5.34,4.62-6.27,6.58-5.84s4.68,2,4.32,5.3a3.91,3.91,0,0,1-5.12,3.38,2.94,2.94,0,0,1-1.13-5"/><path class="cls-2" d="M648,491.19l-98.25.18L457.5,428.7l-30.68,37.82,54.49,80H619.77A262,262,0,0,0,648,491.19Z"/><path class="cls-3" d="M481.37,196.17s-3.24,11.46-2,19.11-3.24,12.53-6.89,15H483s6.9,26.51,16.23,23.39,13.38-7.57,14.2,5.81,0,18.25,0,18.25l26.77-8.92s-8.12-51.91-15.42-64.09S499.62,177.92,481.37,196.17Z"/><path class="cls-4" d="M482.6,187.57s-21.9-7.3-21.5,7.7,19.4,16.08,30,13.92c0,0,1.27,4.74,9,5.55s7.69-7.45,15.4-5.55-2.84,16.91,4.87,20.15,13,3.3,13,3.3,9.41-4.91,0-29.26-23.19-21.9-23.19-21.9S492.74,171.34,482.6,187.57Z"/><path class="cls-6" d="M504.53,212.46s-7.44,5.29-2.27,12.32a9.18,9.18,0,0,0,7.43,4.11c5.2.11,9.36-4.64,7.78-9.61l-.05-.16c-1.82-5.39-6.72-4.86-8.57-3.79s-4.09,3.53-2.65,6.77a4.16,4.16,0,0,0,6.29,1.76c1.59-1.11,2.3-4.27-.5-5.49"/><path class="cls-2" d="M663.6,383.16c-4.67-24.65-11.9-50.81-22.81-65.4-36.1-48.26-101.45-54.14-101.45-54.14-18.91,7.61-26.73,1.26-26.73,1.26C398.84,278,354.43,418.76,354.43,418.76l233.33,72.61,71.69-41.59a265.86,265.86,0,0,0,4.7-49.77C664.15,394.35,664,388.73,663.6,383.16Z"/><path class="cls-5" d="M501.82,403.46l16-19.93S606.72,432.15,634.7,433"/><path class="cls-5" d="M605.73,425.3s4.64-53-8.74-76"/><path class="cls-3" d="M514.79,387.3s-35.46-31.61-45.88-45.57a2.48,2.48,0,0,0-4.46,1.65,11.85,11.85,0,0,0,2.33,5.91c5.27,7.82,12.57,17.53,12.57,17.53s-24.08,23.58,22.84,36.95Z"/><path class="cls-7" d="M587.44,586.08V546.53h-115s2.93,59.07,5.8,105.77A264.05,264.05,0,0,0,587.44,586.08Z"/><path class="cls-4" d="M619.78,546.53H525.39s2.11,42.21,4.49,83.48A265.49,265.49,0,0,0,619.78,546.53Z"/><polygon class="cls-2" points="372.68 288.96 403.17 281.53 424.13 383.53 375.15 390.67 372.68 288.96"/><path class="cls-3" d="M397.1,283s-5.84-42.74-3.84-57.62a2.42,2.42,0,0,0-2.05-2.71c-1.95-.28-4.86,1-7.57,8.69-4.67,13.18-2.44,30.21-4.87,35.69s-1.22,20.72-1.22,20.72Z"/><polygon class="cls-4" points="386.5 378.16 412.25 377.07 436.27 608.27 317.84 608.27 349.88 420.88 386.5 378.16"/><path class="cls-4" d="M386.5,378.16a16.14,16.14,0,0,1,.21-2.51,19.39,19.39,0,0,0-.58-7.59c-1.34-5.32-8.59.42-13.33-1.25-3.26-1.14-3.6-11.87-3.49-18.44a7.8,7.8,0,0,0-4.57-7.25L360.12,339s9.42-2.78,10.05-9.45,9.39-18.68,9.39-18.68,29.52-8.55,34.56,12.7c4,16.83.32,41.53-1.39,51.1a15.82,15.82,0,0,1-3.62,7.56c-3.42,3.92-9.38,9.64-15.12,9.71C387.13,392.06,386.47,382.33,386.5,378.16Z"/><path class="cls-3" d="M389.75,301.84a7.52,7.52,0,0,1-5.92-.25c-3.54-1.79-10.2-3.7-17.42,1.66-9.83,7.3,7.32,20.83,17.67,22.86a3.68,3.68,0,0,1,2.73,2.55,5.51,5.51,0,0,0,4.85,3.79c5.58.82,6.6-5.17,12.37-3s1.42,13.18-3.35,17.33,7.27,12.72,14.38,11,14.12-33.78,1.94-47.07C417,310.65,406.6,295.76,389.75,301.84Z"/><path class="cls-7" d="M311.66,648.87a262.85,262.85,0,0,0,76.89,14.92V608l-77.38.65S311.3,626.67,311.66,648.87Z"/><path class="cls-4" d="M377.11,663.06c7.57.65,15.24,1,23,1a265.18,265.18,0,0,0,62-7.33V608l-85.79.65S376.47,634.91,377.11,663.06Z"/><path class="cls-8" d="M386.5,378.16s-53.25-4.63-86.51,21.47-55.57,59-55.57,59l-3.24-32.85L201.83,436.7s-13,134.66,22.71,137.5c12.1,1,34.59-21.23,59-51A581.51,581.51,0,0,0,270,625.31h66.12C333.66,516.2,386.5,378.16,386.5,378.16Z"/><path class="cls-8" d="M659.43,449.86c-21.48,10.48-66.52,31.48-74.19,27.19-10.14-5.68-44.61-36.09-79.09-68.14s-93.89-31.83-93.89-31.83-8.31,168.93,0,246.4h72.8L476.67,473.4s72.47,54.76,101.27,60.43c17.61,3.48,44.76-12.76,63.21-25.9A262,262,0,0,0,659.43,449.86Z"/><path class="cls-5" d="M244.42,458.6s6.49,46.65,9.74,56.78"/><path class="cls-5" d="M283.59,523.2s14.38-70.68,21.68-88.94"/><line class="cls-5" x1="476.67" y1="473.4" x2="460.62" y2="462.25"/><path class="cls-4" d="M236.91,426.93s-.39-19.64-2.62-29.37a71.73,71.73,0,0,1-2-18.45c0-3-7.92-2.84-7.71,8.11s0,21.3-4.46,22.51-25.15-32.65-34.28-39.34c-8-5.85-9.33,1-6.48,5.27s28.39,43.9,28.9,59.27Z"/><path class="cls-5" d="M393.06,331.51s-8.17,2.61-5.57,10.37a8.61,8.61,0,0,0,5.46,5.81c4.63,1.59,9.71-1.46,9.72-6.36v-.15c-.08-5.34-4.62-6.28-6.57-5.85s-4.69,2-4.32,5.3a3.89,3.89,0,0,0,5.11,3.38A2.94,2.94,0,0,0,398,339"/><path class="cls-4" d="M432.92,375.9s12.17-9,21.5-2.92,14,14,10.84,15.11S422.21,386.33,432.92,375.9Z"/><circle class="cls-9" cx="182.94" cy="625.31" r="23.92"/><path class="cls-10" d="M148,478.74s-43.25,15.29-40.52,51,34.68,4.42,22.82,0-21.9,16.43-11,28.83,55-3.42,63.61,42.8"/><rect class="cls-11" x="546.9" y="595.76" width="116.81" height="7.01"/><rect class="cls-11" x="575.86" y="613.79" width="116.81" height="7.01"/></svg>