<svg id="图层_1" data-name="图层 1" xmlns="http://www.w3.org/2000/svg" viewBox="0 0 800 800"><defs><style>.cls-1{fill:#ff8885;}.cls-1,.cls-2,.cls-3,.cls-4,.cls-5,.cls-7,.cls-8,.cls-9{stroke:#000;}.cls-1,.cls-8{stroke-miterlimit:9.15;}.cls-1,.cls-2,.cls-3,.cls-4,.cls-5,.cls-6,.cls-7,.cls-8,.cls-9{stroke-width:0.91px;}.cls-2{fill:#fff;}.cls-2,.cls-3,.cls-4,.cls-5,.cls-6,.cls-7,.cls-9{stroke-linecap:round;stroke-linejoin:round;}.cls-3{fill:#3165e8;}.cls-4{fill:#ffca6e;}.cls-6,.cls-7{fill:none;}.cls-6{stroke:#fff;}.cls-8{fill:#ffcb6e;}.cls-9{fill:#dbdde2;}</style></defs><circle class="cls-1" cx="635.41" cy="546.51" r="18.28"/><rect class="cls-2" x="166.46" y="224.11" width="468.94" height="322.4"/><rect class="cls-2" x="166.29" y="224.11" width="468.94" height="43.97"/><rect class="cls-3" x="166.29" y="516.59" width="468.94" height="29.92"/><circle class="cls-2" cx="194.13" cy="246.09" r="5.86"/><circle class="cls-4" cx="217.59" cy="246.09" r="5.86"/><circle class="cls-3" cx="241.03" cy="246.09" r="5.86"/><path class="cls-2" d="M410.2,294.87s-6.21,5.48-11,17.78-15.6,22.06-9.87,32.9,12.94,6.94,12.67,18.28c-.17,6.58.79,14.49,6.16,14.77,6.26.32,9.8-4.53,18.56-4.05s22.3,8.53,38.26,5.11,35.09-14,40.94-18.15-51.41-61.88-51.41-61.88Z"/><path class="cls-5" d="M503.16,512.21s15.51,4.15,29.1-4.47c11-7,16.72-20.42,25.1-25.93s4.46-11.23-3.78-7.25-26.52,22-47.47,18.36Z"/><path class="cls-2" d="M425.75,387.46a96.81,96.81,0,0,1-32.49,2c-18.27-1.93-30.94.2-35.09,24.08s-25.34,103.07,3.66,103.07h136.7c29.48,0,29.59-94,28.93-115.92S510,378,490.49,384.2s-25.22,3.26-25.22,3.26Z"/><path class="cls-5" d="M415,296.66s-7,14.29-8.29,25-8.61,12.19-8.61,12.19,7.31,1.63,7.79,3.58.49,23.07,8.29,22.41,15.27-5.17,16.08,0,3.9,20.94-4.54,27.6c0,0,8.16,9.42,19.41,9.42s20.1-9.42,20.1-9.42-10.76-7.8-8.65-42.07-2.9-50.85-17-53A39.54,39.54,0,0,0,415,296.66Z"/><path class="cls-2" d="M425.75,387.46s-5.36,16.73,7.47,28.27l11.94-18.85S432.09,395.75,425.75,387.46Z"/><path class="cls-2" d="M465.26,387.46s5.36,16.73-7.48,28.27l-11.93-18.85S458.93,395.75,465.26,387.46Z"/><path class="cls-2" d="M412.58,286.62a5.37,5.37,0,0,1-4.28,1.88c-5.65-.26-17.95.45-19.18,11.49-1.4,12.56,11.65,13.77,21.46,12.57a5.6,5.6,0,0,1,5.45,2.63c1.51,2.46,4.33,5.27,9.13,4.41,8.16-1.47,10-9.12,16-4.63,6.41,4.75-6.47,18.76.34,26.56s15.7,1.09,22.89,9.74,6.21,24.85,27.65,26.07,22.54-3.7,34.36-3.13,19,9.59,39.23,9.71c18.94.11,29.45-9.72,30.1-25a8.55,8.55,0,0,1,2.08-5.31c3.84-4.35,11-14.68,3.43-24.89-9.91-13.41-38.54-10.49-55.23-8.42s-40.94,8.88-54.34-2.14c-13-10.7-19.37-27.45-37.26-30.74a6.32,6.32,0,0,1-2.64-1.11c-2.59-2-10-6.67-22-6.3C419.7,280.34,414.75,284.14,412.58,286.62Z"/><path class="cls-6" d="M428.13,316.88s-10.51,3.72-6.8,13.71a11.19,11.19,0,0,0,7.35,7.3c6.07,1.88,12.54-2.3,12.35-8.66V329c-.33-6.93-6.26-7.95-8.79-7.31s-6,2.76-5.38,7.05a5.06,5.06,0,0,0,6.78,4.18c2.24-.76,4.14-4.23,1.27-6.61"/><path class="cls-2" d="M531.17,391s-2.21,18.51-3.64,53.12,1.73,72.47-25.59,72.47-16.62-45-11.2-65.16c5.59-20.83,15.41-62.88,15.41-62.88Z"/><path class="cls-5" d="M508.94,388.82s-.18-16.06,11.52-27.09c9.49-8.94,23.93-11.15,31.33-17.91s12-1.54,6.09,5.45-27.9,20.26-29.53,41.45Z"/><path class="cls-7" d="M375,427.79a50,50,0,0,1-1.57,14.95,47.41,47.41,0,0,0,2.76,31.83c5,10.47,5.05,11.94,5.05,11.94l102.85,2.2"/><line class="cls-7" x1="381.23" y1="486.51" x2="370.61" y2="486.09"/><path class="cls-5" d="M626.86,499.31H546.45v4.48h77.66v9H546.45v4.48h80.41a3.21,3.21,0,0,0,3.21-3.21V502.54A3.22,3.22,0,0,0,626.86,499.31Z"/><rect class="cls-2" x="548.92" y="503.78" width="75.2" height="8.96"/><line class="cls-7" x1="548.92" y1="506.4" x2="624.11" y2="506.4"/><line class="cls-7" x1="548.92" y1="510.12" x2="624.11" y2="510.12"/><path class="cls-8" d="M621.07,481.4H559.7v4.48h58.62v9H559.7v4.48h61.37a3.21,3.21,0,0,0,3.21-3.21V484.63A3.21,3.21,0,0,0,621.07,481.4Z"/><rect class="cls-2" x="562.8" y="485.87" width="55.53" height="8.96"/><line class="cls-7" x1="562.8" y1="488.49" x2="618.32" y2="488.49"/><line class="cls-7" x1="562.8" y1="492.21" x2="618.32" y2="492.21"/><rect class="cls-9" x="202.85" y="370.74" width="102.66" height="72.45"/><polygon class="cls-2" points="299.61 296.99 321.41 318.77 321.41 421.1 224.87 421.1 224.87 296.99 299.61 296.99"/><polygon class="cls-5" points="299.61 296.99 299.61 318.77 321.41 318.77 299.61 296.99"/><rect class="cls-2" x="238.95" y="333.44" width="68.71" height="41.66"/><line class="cls-7" x1="238.95" y1="387.96" x2="307.66" y2="387.96"/><line class="cls-7" x1="238.95" y1="400.83" x2="307.66" y2="400.83"/><path class="cls-7" d="M202.85,412.52S179,452.81,140.69,465.8s-69.53,56.53-26,88.37,42.88-7.52,23.39-7.66-8.44,55.74,33.13,56.39,85.78-16,85.78-56.39"/><rect class="cls-4" x="533.31" y="197.08" width="173.14" height="11.47"/><rect class="cls-4" x="605.61" y="233.86" width="100.85" height="11.47"/></svg>