<svg id="图层_1" data-name="图层 1" xmlns="http://www.w3.org/2000/svg" viewBox="0 0 800 800"><defs><style>.cls-1,.cls-7,.cls-8{fill:none;}.cls-1,.cls-10,.cls-11,.cls-12,.cls-2,.cls-3,.cls-4,.cls-5,.cls-6,.cls-8,.cls-9{stroke:#000;}.cls-1,.cls-4,.cls-6{stroke-miterlimit:9.15;}.cls-1,.cls-11,.cls-12,.cls-2,.cls-3,.cls-4,.cls-5,.cls-6,.cls-7,.cls-8,.cls-9{stroke-width:0.91px;}.cls-2{fill:#eaecf1;}.cls-11,.cls-12,.cls-2,.cls-3,.cls-5,.cls-7,.cls-8,.cls-9{stroke-linecap:round;stroke-linejoin:round;}.cls-3{fill:#ffce6e;}.cls-4,.cls-9{fill:#fff;}.cls-5{fill:#dfe1e6;}.cls-7{stroke:#fff;}.cls-10{stroke-miterlimit:9.15;stroke-width:0.91px;}.cls-11{fill:#3165ec;}.cls-12{fill:#002fa0;}</style></defs><line class="cls-1" x1="117.24" y1="621.09" x2="682.76" y2="621.09"/><path class="cls-2" d="M136.44,621.09V304.42c174.77,0,316.44,141.67,316.44,316.44Z"/><path class="cls-3" d="M136.44,621.09V513.36A107.66,107.66,0,0,1,244.1,621Z"/><polygon class="cls-4" points="590 621.09 390.17 621.09 441.19 496.78 590 496.78 590 621.09"/><rect class="cls-5" x="441.19" y="468.4" width="148.81" height="28.39"/><path class="cls-6" d="M504.37,582.72s2.78,16.94,1.67,25.57c0,0-8.07,1.67-8.07,12.79h26.29a1.44,1.44,0,0,0,1.44-1.53c-.45-6-2.36-28.18-7.14-38.89Z"/><path class="cls-7" d="M505,607.66s11.13-2,13.73,5.57"/><path class="cls-6" d="M551.94,584.74s-1.08,14.92,0,23.55c0,0,8.07,1.67,8.07,12.79H533.76a1.44,1.44,0,0,1-1.44-1.53c.45-6,.85-24.35,4.3-35.52Z"/><path class="cls-7" d="M553.05,607.66s-11.13-2-13.73,5.57"/><path class="cls-8" d="M537.3,333.42l-23.38,6.49-23.39-6.49S441,364.78,443.78,397.8c2.39,28.36,29.26,33.33,36.81,34.16a8.13,8.13,0,0,0,3.46-.37c3.61-1.18,13.71-3.91,29.86-3.91s26.24,2.73,29.85,3.91a8,8,0,0,0,3.46.37c7.55-.84,34.43-5.8,36.82-34.16C586.84,364.77,537.3,333.42,537.3,333.42Z"/><path class="cls-5" d="M496.85,281.65s.56,6.12-3.52,10.39-7.79,3.9-7.79,9.83,5.75,5.38,5,13.74-2.51,15,21.47,13.54,22.88,5,35.68,4.46a126.58,126.58,0,0,0,40.82-9.28c12.25-5.19-54.92-25.79-54.92-25.79Z"/><path class="cls-6" d="M510.59,280.35s-7.62,2.78-8.72,8a8,8,0,0,1-7.61,6.49l2.88,1.69a2.28,2.28,0,0,1,1,2.6c-.93,3.24-2.57,10.17,0,11.86,3.34,2.22,10-2.42,9.84,1.3s.37,10.2-4.64,13.17-12.8,8-12.8,8,5.76,6.49,23.19,6.49c15.89,0,22.39-5.39,23.41-6.35a.15.15,0,0,0,0-.24c-1.45-.82-11.35-6.39-13.36-8.07-3.34-2.78-2.6-5.76-1.86-14.1s5.76-16.33,1.3-25.23S510.59,280.35,510.59,280.35Z"/><path class="cls-7" d="M510.05,294.32s-5.48,2.5-3,7.7a6.13,6.13,0,0,0,4.3,3.6c3.36.72,6.66-1.84,6.25-5.25a.36.36,0,0,0,0-.11,3.9,3.9,0,0,0-5.07-3.53,3.49,3.49,0,0,0-2.57,4.06,2.75,2.75,0,0,0,3.85,1.93,2.07,2.07,0,0,0,.36-3.63"/><path class="cls-9" d="M511.14,275s-9.83-8.35-17.62,0,5.37,14.85,13,11.87c0,0-1.68,4.27,2,6.5s10.39-2.42,10.95,2-6.68,13.55,6.31,21.15,19.85-1.48,34.14,3,13,16.7,41.19,15.22,18.37-21.34,28.76-25.79,13,3.9,24.49-3.72-.56-19.11-12.43-14.47-18.37,4.64-26-.18-9.65-7.79-22.27-7.61c-16.7.25-18.55,13.35-39.33,13.55S537,282,527.48,276.09,511.14,275,511.14,275Z"/><ellipse class="cls-10" cx="483.95" cy="409.63" rx="22.36" ry="8.3" transform="translate(22.3 844.24) rotate(-83.52)"/><ellipse class="cls-10" cx="543.39" cy="409.78" rx="8.3" ry="22.36" transform="translate(-42.79 63.97) rotate(-6.48)"/><path class="cls-8" d="M484.72,387.85s-20,6.24-31.84,3.82"/><path class="cls-8" d="M471.62,360s-.86,23.15,2.26,30.59"/><path class="cls-8" d="M542.69,387.85s20,6.24,31.84,3.82"/><path class="cls-8" d="M555.79,360s.86,23.15-2.26,30.59"/><polygon class="cls-4" points="541.89 416.35 484.77 416.35 479.75 368.86 546.91 368.86 541.89 416.35"/><rect class="cls-4" x="484.77" y="416.35" width="57.13" height="4.26"/><path class="cls-11" d="M480.61,432s34.24-9.53,65.41-.11V468.4H480.61Z"/><path class="cls-11" d="M491.13,584.63l-27.4-113.27S453.28,436.22,481.46,432c24.65-3.72,28.81,22.62,29.46,29.26.21,2.15.47,4.3.74,6.45l14.13,111.94Z"/><path class="cls-11" d="M526.78,583.6,521.2,467.2s-3.65-36.49,24.82-35.34c24.91,1,24.05,27.63,23.44,34.28-.2,2.15-.35,4.31-.48,6.47l-7.2,112.6Z"/><path class="cls-12" d="M590,621.09V529.22a149.25,149.25,0,0,0-158.67,91.87Z"/><path class="cls-12" d="M504.22,582.72s2.78,16.94,1.66,25.57c0,0-8.07,1.67-8.07,12.79h26.3a1.43,1.43,0,0,0,1.43-1.53c-.45-6-2.36-28.18-7.13-38.89Z"/><path class="cls-8" d="M505.74,608.31s11.13-2,13.73,5.57"/><path class="cls-12" d="M551.79,584.74s-1.08,14.92,0,23.55c0,0,8.07,1.67,8.07,12.79H533.6a1.43,1.43,0,0,1-1.43-1.53c.44-6,.85-24.35,4.29-35.52Z"/><path class="cls-8" d="M551.65,608.31s-11.13-2-13.73,5.57"/><path class="cls-12" d="M491,584.63l34.66-5-5.47-43.39A148.17,148.17,0,0,0,483.82,555Z"/><path class="cls-12" d="M524.29,534.86l2.34,48.74,35,1.6,3.66-57.31A149.15,149.15,0,0,0,524.29,534.86Z"/><circle class="cls-3" cx="612.82" cy="598.27" r="22.82"/><path class="cls-6" d="M294.13,402.44h56.26a4.72,4.72,0,0,0,4.71-4.71V352.41a4.71,4.71,0,0,0-4.71-4.71H294.13a4.71,4.71,0,0,0-4.72,4.71v45.32A4.73,4.73,0,0,0,294.13,402.44Z"/><path class="cls-11" d="M254,231s-58.44,15.77-54.17,81.82l18.19-1.3v60.11h87.75V309.48h29.69s-8.54-57-48.06-74.78Z"/><path class="cls-9" d="M280.69,230.58a5.4,5.4,0,0,1-2.59-4.37c-.07-2,.25-4.29,2-4.7,3.25-.74,9.18,4.64,13.08,3.25,3.1-1.11,4.62-10.93,5.1-14.89a2.5,2.5,0,0,1,1.67-2.05c1.55-.53,3.16-1.25,3.16-1.25s-3.62-.65-4.18-5.94-1-10.48-1-10.48S295.08,186,279.49,187c-12.78.85-15.2,16.46-15.66,22.06-.11,1.38,1.82,6.66,1.1,7.84l-.65,7.67a4.83,4.83,0,0,1-3.41,4.2c-1.91.59-4.44,1.38-6.89,2.23a32,32,0,0,0,33.39,3.71Z"/><path class="cls-8" d="M281.81,199.88s5.43,3.17,2.34,8.3a6.36,6.36,0,0,1-4.83,3.29c-3.56.4-6.71-2.59-5.94-6.1l0-.11a4.06,4.06,0,0,1,5.62-3.13c1.34.63,3,2.16,2.24,4.48a2.85,2.85,0,0,1-4.19,1.6,2.17,2.17,0,0,1,0-3.8"/><path class="cls-6" d="M288.55,180.71a5.84,5.84,0,0,0,3.51-.05c3.84-1.25,13-3.54,15.18,2.28,2.47,6.59-4.41,11-13.38,11.37a5.63,5.63,0,0,0-4.64,2.86,5.5,5.5,0,0,1-3.89,3c-3.89.55-8-3.16-11.87-.93-2.59,1.48-1.24,6.41,0,9.53a3.47,3.47,0,0,1-1.57,4.24l-6.91,3.86s-12.08-19.32-1.29-29a7.82,7.82,0,0,0,1.81-2.58C266.87,182.16,271.89,175.79,288.55,180.71Z"/><path class="cls-8" d="M218,311.52l20.78-1.3s-6.68-26.91,0-48.06"/><path class="cls-9" d="M201.86,312.67s-2.28,26.87,18.35,21.48c19.36-5,76.77-29.37,85.31-30.86s13.73-9.09,12.05-12.25-17.52,3-24,6.68-45.2,11.88-54.84,12.49Z"/><path class="cls-9" d="M319.29,309.48s-.37,29.32-1.67,38.22H305.74V309.48Z"/><path class="cls-9" d="M305.75,371.64s45,77.74,40.55,107-58.72,115.77-58.72,115.77l-23.66-17.25s41.71-76.53,38.94-101.58-57-103.9-57-103.9Z"/><polygon class="cls-9" points="219.66 371.64 227.73 592.71 256.96 592.71 271.98 371.64 219.66 371.64"/><path class="cls-5" d="M283,591s-8.94,8.84-1.15,15.89,26.35,2.41,28.39,14.19H277l-23.87-14a1.53,1.53,0,0,1-.31-2.41c3.59-3.58,13-13.53,17.41-22.94Z"/><path class="cls-4" d="M251,592.71s.93,13.44,12.8,15.3,23,8.54,23,13.08H234.41a2.1,2.1,0,0,1-2.1-2.3c.52-5.44,1.74-19.12,1.45-26.09H251Z"/><path class="cls-3" d="M431.39,282.57a37,37,0,1,0-58,0h0s8.24,11.49,6.5,18.68l22.49,5.63,22.5-5.63c-1.74-7.19,6.49-18.68,6.49-18.68Z"/><circle class="cls-2" cx="402.41" cy="318.82" r="4.13"/><path class="cls-9" d="M424.89,295.05a64.71,64.71,0,0,1-45,0A1.4,1.4,0,0,0,378,296.4l.42,15.82a2.71,2.71,0,0,0,1.59,2.41c10.18,4.5,22.36,4.19,22.36,4.19s12.17.31,22.36-4.19a2.71,2.71,0,0,0,1.59-2.41l.42-15.82A1.4,1.4,0,0,0,424.89,295.05Z"/><path class="cls-8" d="M378.19,301.91s8.55,4.14,24.22,4.14,24.22-4.14,24.22-4.14"/><path class="cls-8" d="M378.41,308.16s8.47,4.13,24,4.13,24-4.13,24-4.13"/></svg>