<svg id="图层_1" data-name="图层 1" xmlns="http://www.w3.org/2000/svg" viewBox="0 0 800 800"><defs><style>.cls-1,.cls-11{fill:#fff;}.cls-1,.cls-10,.cls-11,.cls-12,.cls-13,.cls-2,.cls-3,.cls-4,.cls-6,.cls-7,.cls-8,.cls-9{stroke:#000;}.cls-1,.cls-10,.cls-11,.cls-13,.cls-2,.cls-3,.cls-4,.cls-5,.cls-7,.cls-8,.cls-9{stroke-linecap:round;stroke-linejoin:round;}.cls-1,.cls-10,.cls-11,.cls-12,.cls-13,.cls-2,.cls-3,.cls-4,.cls-5,.cls-6,.cls-7,.cls-8{stroke-width:0.91px;}.cls-2,.cls-5{fill:none;}.cls-3{fill:#002f9c;}.cls-5{stroke:#fff;}.cls-6{fill:#ffca6e;}.cls-12,.cls-6{stroke-miterlimit:9.15;}.cls-7{fill:#3165e8;}.cls-8{fill:#dbdde2;}.cls-9{stroke-width:0.91px;}.cls-10{fill:#dddfe4;}.cls-11{opacity:0.7;isolation:isolate;}.cls-12{fill:#00bb85;}.cls-13{fill:#3165ea;}</style></defs><rect class="cls-1" x="282.36" y="111.86" width="318.66" height="211.06"/><line class="cls-2" x1="282.36" y1="164.45" x2="601.01" y2="164.45"/><line class="cls-2" x1="282.36" y1="217.28" x2="601.01" y2="217.28"/><line class="cls-2" x1="282.36" y1="270.1" x2="601.01" y2="270.1"/><line class="cls-2" x1="282.36" y1="322.93" x2="601.01" y2="322.93"/><line class="cls-2" x1="494.76" y1="111.86" x2="494.76" y2="322.93"/><line class="cls-2" x1="441.62" y1="111.86" x2="441.62" y2="322.93"/><line class="cls-2" x1="547.88" y1="111.86" x2="547.88" y2="322.93"/><line class="cls-2" x1="388.49" y1="111.86" x2="388.49" y2="322.93"/><line class="cls-2" x1="335.36" y1="111.86" x2="335.36" y2="322.93"/><rect class="cls-1" x="148.36" y="175.11" width="389.73" height="256.11"/><polygon class="cls-3" points="538.08 175.11 378.98 175.11 285.62 431.22 538.08 431.22 538.08 175.11"/><rect class="cls-1" x="148.36" y="175.11" width="389.73" height="44.69"/><path class="cls-1" d="M269.77,330.79s76.88,5.78,94.44,58.25l16.48,42.18H167S174.48,331,269.77,330.79Z"/><path class="cls-1" d="M413.89,316.23l-26.34-4.5S360,382.61,351.36,431.22h46.89Z"/><path class="cls-2" d="M339.36,386.25s3.21,29.54,3.85,45"/><path class="cls-2" d="M220.39,386.25s-8.78,28.47-6.21,45"/><path class="cls-4" d="M290.3,259.25a7.94,7.94,0,0,1,4.94,4.57c1.67,4.12,4.43,11.38,4.73,14.94.43,5.14,11.13,9.29,11.13,9.29l-6.6,3.08a2.68,2.68,0,0,0-1.51,3c1.13,5.49,3.71,20-.45,21.05-5.14,1.28-17.14-1.71-18,5.14a70.5,70.5,0,0,0,0,14.34L272.13,343l-15-10.28s2.14-29.83,0-34.18-6.85-36.48,10.28-39.91C278.31,256.45,286.07,257.9,290.3,259.25Z"/><path class="cls-1" d="M280.14,248.78a8.44,8.44,0,0,0,8-.74c6.14-4.06,18.24-9.67,25.52,2.88,7.18,12.37-9.93,15.7-20.33,16.59a7.38,7.38,0,0,0-6.52,6.49c-.37,2.6-1.88,5.34-6.12,6.69-9.42,3-7.71-8.78-16.06-2.78s10.06,17.55,3.85,24-13.27,3.43-17.77,1.71-21.81-25.62-5.27-42.31a11.52,11.52,0,0,0,1.54-1.87C249.51,255.41,260.69,240.26,280.14,248.78Z"/><path class="cls-1" d="M272.12,343s-5.14,7.93-11.77,9.86-3.21-20.14-3.21-20.14Z"/><path class="cls-1" d="M272.12,343s6.59,8.59,10.87,10,1.55-18.33,1.55-18.33Z"/><path class="cls-5" d="M276.52,278.75s8.74,3.57,5.21,11.85a9.52,9.52,0,0,1-6.5,5.9c-5.21,1.34-10.52-2.45-10.11-7.82a1,1,0,0,1,0-.17c.55-5.85,5.61-6.48,7.71-5.84s5,2.57,4.28,6.18a4.28,4.28,0,0,1-5.9,3.26c-1.86-.73-3.33-3.73-.8-5.63"/><path class="cls-4" d="M407,315.05l-14.5-2.48s12.21-60.16,23.34-65.73-5.14,14.13-4.5,23.77c0,0,18.35,6.34,5.72,25.35A114.38,114.38,0,0,0,407,315.05Z"/><circle class="cls-1" cx="511.95" cy="197.45" r="6.42"/><circle class="cls-6" cx="483.96" cy="197.45" r="6.42"/><circle class="cls-7" cx="455.96" cy="197.45" r="6.42"/><rect class="cls-8" x="282.57" y="421.58" width="255.51" height="9.63"/><rect class="cls-1" x="370.28" y="418.37" width="118.52" height="3.21"/><polygon class="cls-1" points="427.91 354.28 525.9 354.28 504.54 421.58 406.54 421.58 427.91 354.28"/><rect class="cls-9" x="552.44" y="488.19" width="20.11" height="48.68" transform="translate(-180.91 349.92) rotate(-30)"/><path class="cls-10" d="M641.24,648.9h0a21,21,0,0,1-28.72-7.69L553.41,538.83l36.42-21,59.11,102.38A21,21,0,0,1,641.24,648.9Z"/><circle class="cls-11" cx="485.66" cy="379.42" r="113.11"/><path class="cls-6" d="M408.81,246.32a153.69,153.69,0,1,0,210,56.25A153.67,153.67,0,0,0,408.81,246.32ZM542.22,477.39a113.12,113.12,0,1,1,41.4-154.52A113.11,113.11,0,0,1,542.22,477.39Z"/><circle class="cls-12" cx="292.79" cy="635.11" r="14.02"/><circle class="cls-13" cx="244.18" cy="512.61" r="27.13"/><path class="cls-2" d="M193.78,431.22S147.22,544.55,220.39,577.4s119.67-9.73,160.3,52.33,90.2,32.85,87.93,10.95-33.42-19.47-34.88-2.44,20.51,49.9,98.35,49.9,94.06-36.92,94.06-36.92"/><polygon class="cls-12" points="148.24 559.68 148.24 669.47 258.02 669.47 148.24 559.68"/></svg>