<svg id="图层_1" data-name="图层 1" xmlns="http://www.w3.org/2000/svg" viewBox="0 0 800 800"><defs><style>.cls-1,.cls-9{fill:none;}.cls-1,.cls-10,.cls-11,.cls-2,.cls-3,.cls-4,.cls-5,.cls-6,.cls-7,.cls-8,.cls-9{stroke:#000;}.cls-1,.cls-11,.cls-2,.cls-3,.cls-4,.cls-6,.cls-7,.cls-8{stroke-linecap:round;stroke-linejoin:round;}.cls-1,.cls-10,.cls-2,.cls-3,.cls-4,.cls-5,.cls-6,.cls-7,.cls-9{stroke-width:0.91px;}.cls-2{fill:#002f9c;}.cls-11,.cls-3,.cls-8{fill:#fff;}.cls-4{fill:#dbdde2;}.cls-5{fill:#ffca6e;}.cls-10,.cls-5,.cls-9{stroke-miterlimit:9.15;}.cls-7{fill:#3165e8;}.cls-8{stroke-width:0.91px;}.cls-10{fill:#ff8885;}.cls-11{stroke-width:0.91px;}</style></defs><line class="cls-1" x1="124.64" y1="629.92" x2="697.76" y2="629.92"/><path class="cls-2" d="M599.2,629.92c0-.15,0-.31,0-.46a117.24,117.24,0,0,0-234.48,0c0,.15,0,.31,0,.46Z"/><rect class="cls-3" x="379.81" y="184.55" width="250.22" height="288.47"/><rect class="cls-4" x="416.68" y="288.39" width="126.75" height="126.75"/><polygon class="cls-5" points="560.8 213.29 560.8 323.07 670.6 323.07 560.8 213.29"/><circle class="cls-5" cx="452.87" cy="596.78" r="32.72"/><path class="cls-3" d="M470.25,469.7s66.6,123.5,163.94,138.72l9.73-18.55S549.62,543,513.12,430.46Z"/><path class="cls-6" d="M365.67,327.15S357.55,389.06,415.19,473l55.06-48.37Z"/><path class="cls-3" d="M365.09,343.94s-8.92-9.13-13.58-9.33c-3.34-.15-3.35,5-7.91,7.58s-9.36-4.84-12.14-7a8,8,0,0,0-5.66-1.76s3.76-2.67.54-8.51a23,23,0,0,1-1.24-2.32,13.22,13.22,0,0,1,3.65-14.76S344.82,293,359,319.21l6.9,5.88,7.1,17.64-3,6.49Z"/><path class="cls-6" d="M320.88,307.64s-13.18,2-12.17,10.75,15.62,1.46,15.62,1.46a14.41,14.41,0,0,0,10.55.36c5.88-2,2.63-7.7,8.51-9.13s5.19,9.33,5.19,9.33A20.87,20.87,0,0,1,359,319.2s1.22-25.35-17.85-21.7C341.16,297.5,325.65,292.76,320.88,307.64Z"/><path class="cls-1" d="M337.25,318.92s-1.14,5.65,4.27,6.64a5.81,5.81,0,0,0,5.19-1.31,4.79,4.79,0,0,0-.56-7.77l-.09-.06a3.74,3.74,0,0,0-5.58,1.95,3.33,3.33,0,0,0,1.7,4.26,2.62,2.62,0,0,0,3.65-1.9,2,2,0,0,0-2.59-2.31"/><path class="cls-3" d="M414.29,442.51s-4.12,10.44-9.14,14.09-11.83,14.5-9.8,18.2,14.61-5.71,17.86-11.66c3.56-6.52,9.63-19.48,9.63-19.48Z"/><path class="cls-3" d="M438.84,433.37s-71.08,55.71-65,91.22,21.17,72.57,36.05,97.5l23.43-10.2s-11.56-23.42-15.36-44.41S405,519.12,405,519.12,442.14,496.57,463.2,477C463.19,477,452.29,451.68,438.84,433.37Z"/><path class="cls-7" d="M366.06,322.9s-8.51,45.79,54,89.44l-7.3,30L424,443.83l10.49-16.58s27.84,37.42,34.07,66.63c0,0,42.59-27.08,54.44-79.1C523,414.77,499.15,328.53,366.06,322.9Z"/><polyline class="cls-1" points="366.21 323.07 391.01 351.5 375.77 365.36"/><polyline class="cls-1" points="383.47 358.35 401.8 369.09 416.26 409.62"/><path class="cls-1" d="M383.47,327s57.38,21.4,64,47.86-13.21,52.84-13.21,52.84"/><path class="cls-1" d="M420.05,412.34a131.48,131.48,0,0,0,4.1-25.65,18.55,18.55,0,0,0-7-15.26,83.61,83.61,0,0,0-16.24-10.15"/><path class="cls-6" d="M367,346s-17.38,70.32-55.74,120.87l12.92,4.06s40.67-26.15,61.28-79.91Z"/><path class="cls-6" d="M312.68,467.3s-4.45,5.4-16.62,5.72c-11,.29-19.13,3.05-21.6,7.39a1,1,0,0,0,.86,1.45h34.89s5.33.45,7.46-4.11a26.18,26.18,0,0,1,5-7.31Z"/><path class="cls-3" d="M414.42,620.11s8.89,8.79,0,14.27-31.61,7.7-32.82,19.47h55.16s4.32-10.83-7.27-40.29Z"/><path class="cls-3" d="M635.4,606.12s1.74,3.3,11.67,4.73,20.48,3.65,22.71,9.33c0,0-6.63,1.08-7.25,8a1.29,1.29,0,0,0,1.3,1.38H685.2a4.85,4.85,0,0,0,4.57-6.49l-8.4-23.48a10.69,10.69,0,0,0-11.93-7l-.26,0c-10,2-13.21,2-26.68,0Z"/><path class="cls-3" d="M669.78,620.17a23.88,23.88,0,0,1,9.28,0"/><rect class="cls-6" x="223.36" y="479.73" width="71.18" height="2.14"/><polygon class="cls-6" points="225.5 479.63 197.96 422.7 195.82 422.7 223.36 479.63 225.5 479.63"/><rect class="cls-1" x="216.67" y="481.87" width="148.05" height="148.05"/><line class="cls-1" x1="216.67" y1="511.2" x2="364.72" y2="511.2"/><line class="cls-1" x1="216.67" y1="540.65" x2="364.72" y2="540.65"/><line class="cls-1" x1="216.67" y1="570.11" x2="364.72" y2="570.11"/><line class="cls-1" x1="216.67" y1="599.55" x2="364.72" y2="599.55"/><line class="cls-1" x1="335.1" y1="481.87" x2="335.1" y2="629.92"/><line class="cls-1" x1="305.48" y1="481.87" x2="305.48" y2="629.92"/><line class="cls-1" x1="275.85" y1="481.87" x2="275.85" y2="629.92"/><line class="cls-1" x1="246.22" y1="481.87" x2="246.22" y2="629.92"/><circle class="cls-7" cx="252.58" cy="585.29" r="44.21"/><path class="cls-3" d="M216.15,508.26l-53.32,120a2.3,2.3,0,0,1-3,1.17l-51.54-22.89a2.3,2.3,0,0,1-1.17-3.05l53.31-120a2.3,2.3,0,0,1,3.05-1.17L215,505.21A2.3,2.3,0,0,1,216.15,508.26Z"/><rect class="cls-8" x="116.82" y="595.26" width="9.15" height="9.15" transform="translate(-476.08 467.3) rotate(-66.05)"/><rect class="cls-8" x="121.9" y="583.81" width="9.15" height="9.15" transform="translate(-462.59 465.14) rotate(-66.05)"/><rect class="cls-8" x="127.01" y="572.34" width="9.15" height="9.15" transform="translate(-449.08 463) rotate(-66.05)"/><rect class="cls-8" x="132.1" y="560.89" width="9.15" height="9.15" transform="translate(-435.59 460.84) rotate(-66.05)"/><rect class="cls-8" x="142.28" y="537.96" width="9.15" height="9.15" transform="translate(-408.59 456.52) rotate(-66.05)"/><rect class="cls-8" x="152.46" y="515.03" width="9.15" height="9.15" transform="translate(-381.59 452.21) rotate(-66.05)"/><rect class="cls-8" x="157.55" y="503.57" width="9.15" height="9.15" transform="translate(-368.08 450.05) rotate(-66.05)"/><rect class="cls-8" x="162.64" y="492.11" width="9.15" height="9.15" transform="translate(-354.58 447.9) rotate(-66.05)"/><rect class="cls-8" x="147.37" y="526.49" width="9.15" height="9.15" transform="translate(-395.08 454.37) rotate(-66.05)"/><rect class="cls-8" x="137.19" y="549.42" width="9.15" height="9.15" transform="translate(-422.08 458.68) rotate(-66.05)"/><rect class="cls-8" x="138.55" y="577.47" width="9.15" height="9.15" transform="translate(-446.91 476.59) rotate(-66.05)"/><rect class="cls-8" x="143.64" y="566.01" width="9.15" height="9.15" transform="translate(-433.41 474.43) rotate(-66.05)"/><rect class="cls-8" x="153.82" y="543.08" width="9.15" height="9.15" transform="translate(-406.41 470.12) rotate(-66.05)"/><rect class="cls-8" x="164" y="520.16" width="9.15" height="9.15" transform="translate(-379.41 465.8) rotate(-66.05)"/><rect class="cls-8" x="169.09" y="508.7" width="9.15" height="9.15" transform="translate(-365.91 463.65) rotate(-66.05)"/><rect class="cls-8" x="174.18" y="497.24" width="9.15" height="9.15" transform="translate(-352.42 461.49) rotate(-66.05)"/><rect class="cls-8" x="158.91" y="531.62" width="9.15" height="9.15" transform="translate(-392.91 467.96) rotate(-66.05)"/><rect class="cls-8" x="148.73" y="554.55" width="9.15" height="9.15" transform="translate(-419.91 472.28) rotate(-66.05)"/><polygon class="cls-3" points="135.7 587.41 130.52 599.08 126.89 607.24 126.81 607.44 146.71 616.28 150.43 607.91 138.88 602.79 144.06 591.13 135.7 587.41"/><rect class="cls-8" x="144.92" y="594.26" width="9.15" height="9.15" transform="translate(-458.47 492.39) rotate(-66.05)"/><rect class="cls-8" x="150.01" y="582.8" width="9.15" height="9.15" transform="translate(-444.97 490.23) rotate(-66.05)"/><rect class="cls-8" x="155.1" y="571.33" width="9.15" height="9.15" transform="translate(-431.47 488.07) rotate(-66.05)"/><rect class="cls-8" x="165.28" y="548.41" width="9.15" height="9.15" transform="translate(-404.47 483.76) rotate(-66.05)"/><rect class="cls-8" x="175.46" y="525.49" width="9.15" height="9.15" transform="translate(-377.47 479.44) rotate(-66.05)"/><rect class="cls-8" x="180.55" y="514.02" width="9.15" height="9.15" transform="translate(-363.97 477.29) rotate(-66.05)"/><rect class="cls-8" x="185.64" y="502.56" width="9.15" height="9.15" transform="translate(-350.47 475.13) rotate(-66.05)"/><rect class="cls-8" x="170.37" y="536.95" width="9.15" height="9.15" transform="translate(-390.97 481.6) rotate(-66.05)"/><rect class="cls-8" x="160.19" y="559.87" width="9.15" height="9.15" transform="translate(-417.97 485.92) rotate(-66.05)"/><rect class="cls-8" x="151.38" y="610.85" width="9.15" height="9.15" transform="translate(-469.79 508.15) rotate(-66.05)"/><rect class="cls-8" x="156.47" y="599.39" width="9.15" height="9.15" transform="translate(-456.3 505.99) rotate(-66.05)"/><rect class="cls-8" x="161.56" y="587.92" width="9.15" height="9.15" transform="translate(-442.79 503.83) rotate(-66.05)"/><rect class="cls-8" x="166.65" y="576.47" width="9.15" height="9.15" transform="translate(-429.3 501.68) rotate(-66.05)"/><rect class="cls-8" x="192.1" y="519.16" width="9.15" height="9.15" transform="translate(-361.8 490.89) rotate(-66.05)"/><rect class="cls-8" x="197.2" y="507.69" width="9.15" height="9.15" transform="translate(-348.29 488.73) rotate(-66.05)"/><rect class="cls-8" x="160.57" y="547.81" width="46.77" height="9.15" transform="translate(-395.54 496.29) rotate(-66.05)"/><path class="cls-1" d="M259,480.8s-29.27-16.38-19.33-29.64c14.23-19,48.88-9.66,51.91-32.57,3.11-23.45-50.09,5.88-56-20.68-6.46-29.2,57.59-7.29,42.59-46.25-12.57-32.65-38.46-46-67.49-49.69s-65.62,40.85-28.84,49.48c23.32,5.48,31.27-26.91,14.84-30.69-18-4.14-40.6,11.63-41.2,32.72s23.32,8.12,16.23,40.36-50.1,63.08-71,61.25-6.49-29.41,7.1-21.72c8.67,4.91,9.73,18.27.81,27.8s-31,33.47-21.7,48.07,20.28,1.95,26.16,10.31-1.07,17.18,22.33,20.2"/><path class="cls-9" d="M579.73,323.07c-.4,5.48-5.27,72.4,66.11,78.89S718,459.08,714,479.63c-4.75,24.08-39.35,59.15-70.58,51.38s-9.73-36.58,7.3-27.24c14.56,8,20.82,21.6,11.46,36.26a30,30,0,0,1-10.69,9.88c-6.79,3.81-18.33,11.85-13.35,20.2,6.9,11.53,26.07,5.36,27.64,22.44"/><rect class="cls-6" x="314.06" y="207.26" width="131.06" height="8.52"/><rect class="cls-6" x="267.95" y="232.01" width="131.06" height="8.52"/><circle class="cls-10" cx="270.67" cy="163.32" r="17.17"/><rect class="cls-11" x="481.34" y="515.89" width="12.17" height="124.27" transform="translate(-257.34 447.57) rotate(-39.93)"/></svg>