<svg id="图层_1" data-name="图层 1" xmlns="http://www.w3.org/2000/svg" viewBox="0 0 800 800"><defs><style>.cls-1{fill:#002f9c;}.cls-1,.cls-10,.cls-2,.cls-3,.cls-4,.cls-5,.cls-6,.cls-7,.cls-8,.cls-9{stroke:#000;stroke-width:0.91px;}.cls-1,.cls-2,.cls-3,.cls-4,.cls-5,.cls-9{stroke-linecap:round;stroke-linejoin:round;}.cls-2,.cls-7{fill:none;}.cls-3{fill:#dbdde2;}.cls-4{fill:#fff;}.cls-6{fill:#ffcb6e;}.cls-10,.cls-6,.cls-7,.cls-8{stroke-miterlimit:9.15;}.cls-8{fill:#00bb85;}.cls-9{fill:#3165e8;}</style></defs><path class="cls-1" d="M636.21,533.83H195s-8.11,16.67,26,13,58.82-1.36,58.82,7-18.94,8.79-11.91,20.75,38.27,1,41.11,12-23.11,17-8.91,25.55,74.62-8.52,86.8,9.73c10.5,15.76,24.64,17.27,28.31,17.39h.92c3.68-.11,17.81-1.63,28.31-17.39,12.17-18.25,72.61-1.21,86.81-9.73s-11.77-14.6-8.92-25.55,34.06,0,41.11-12-11.9-12.36-11.9-20.75,24.74-10.68,58.81-7S636.21,533.83,636.21,533.83Z"/><line class="cls-2" x1="107.35" y1="533.83" x2="692.65" y2="533.83"/><polygon class="cls-3" points="481.54 278.75 416.05 278.75 350.55 278.75 265.55 533.83 416.05 533.83 566.55 533.83 481.54 278.75"/><path class="cls-4" d="M289.34,514.29s-7.17,18.22,1.5,19.13,108.15,0,108.15,0V514.29Z"/><path class="cls-4" d="M542.37,514.29s7.18,18.22-1.5,19.13-108.14,0-108.14,0V514.29Z"/><path class="cls-5" d="M524.73,467.76c-20.08-46.85-77.27-51.71-77.27-51.71H384s-57.19,4.86-77.27,51.71C287.25,513.14,287.78,514,287.83,514h0L415.7,539l127.87-25S544.81,514.61,524.73,467.76Z"/><path class="cls-4" d="M388,357s-2.23,8.32-.82,13.39-4.86,7.7-4.86,7.7l4,1a4,4,0,0,1,3,3.09c.9,4.25,3.06,12.55,6.22,12.55,4.26,0,11.35-5.27,12,0s.81,16-3.86,17.44S384,416.05,384,416.05s29.2,15.14,32.85,15,32.89-14.7,32.89-14.7-18.7-4.73-20.12-5.95c-1.15-1-4.94-23.53-6.36-32.17a29.39,29.39,0,0,1-.36-6.07c.31-6.48.3-22.2-7.18-23C406.29,348.11,390.87,346.28,388,357Z"/><path class="cls-5" d="M396.89,343.33a6.66,6.66,0,0,1-5.84.27c-4.29-1.86-12.31-4-16.2,3.5-4.87,9.37,8.85,15.38,17.09,13.46a3.29,3.29,0,0,1,3.76,1.79c.89,1.94,2.48,4.12,5.11,4,4.66-.2,7.53-8.16,13.58-5.68,4.47,1.83-1.41,9.54,1.32,15.82s7.54,1.7,7.54,1.7,8.51-5.29,6.7-19.37A22.7,22.7,0,0,0,422,344C417,339.92,408.8,337,396.89,343.33Z"/><path class="cls-2" d="M403.7,365.28S397,369.38,401,375.7a7.84,7.84,0,0,0,6.12,3.95c4.45.41,8.3-3.43,7.24-7.76,0-.05,0-.09,0-.14-1.25-4.72-5.47-4.55-7.12-3.74s-3.72,2.78-2.67,5.64a3.55,3.55,0,0,0,5.28,1.88,2.69,2.69,0,0,0-.1-4.73"/><polygon class="cls-4" points="416.05 574.64 334.51 543.92 334.51 414.63 416.05 445.05 416.05 574.64"/><polygon class="cls-6" points="395.6 550.61 345.07 531.57 345.07 451.44 395.6 470.29 395.6 550.61"/><polygon class="cls-4" points="416.05 463.91 334.51 433.19 334.51 414.63 416.05 445.05 416.05 463.91"/><polygon class="cls-4" points="416.05 574.64 497.58 543.92 497.58 414.63 416.05 445.05 416.05 574.64"/><polygon class="cls-4" points="427.26 481.56 489.67 457.04 489.6 452.35 427.19 476.65 427.26 481.56"/><polygon class="cls-4" points="427.4 496.17 489.81 471.64 489.75 466.96 427.33 491.26 427.4 496.17"/><polygon class="cls-4" points="427.26 512.27 489.67 487.74 489.6 483.05 427.19 507.35 427.26 512.27"/><polygon class="cls-4" points="427.4 553.88 489.81 529.35 489.75 497.66 427.33 521.96 427.4 553.88"/><polygon class="cls-4" points="416.05 464.06 497.58 433.33 497.58 414.63 416.05 445.05 416.05 464.06"/><circle class="cls-4" cx="342.75" cy="426.83" r="2.32"/><circle class="cls-4" cx="351.03" cy="430.11" r="2.32"/><circle class="cls-4" cx="359.31" cy="433.34" r="2.32"/><polygon class="cls-4" points="135.46 364.7 149.13 533.83 180.77 533.83 143.78 364.7 135.46 364.7"/><polygon class="cls-4" points="135.46 364.7 204.29 219.69 215.41 222.37 143.78 364.7 135.46 364.7"/><polygon class="cls-4" points="415.72 160.72 210.18 213.81 210.18 225.58 415.72 172.48 415.72 160.72"/><polygon class="cls-4" points="409.84 166.6 411.67 220.66 419.77 220.66 421.6 166.6 409.84 166.6"/><path class="cls-5" d="M454.59,256.84c-17.22-4.46-18.3-17.84-18.3-17.84H395.81s-1.09,13.38-18.3,17.84-26.95,9.74-26.95,21.9h131C481.54,266.58,471.81,261.31,454.59,256.84Z"/><path class="cls-6" d="M416,219.69a20.21,20.21,0,0,0-20.21,20.22h40.43A20.22,20.22,0,0,0,416,219.69Z"/><path class="cls-5" d="M254.59,483.05H223.76s-5.27,50.78,15.41,50.78S254.59,483.05,254.59,483.05Z"/><path class="cls-4" d="M239.17,479.12s11-4.87,5.69-23.12-56,3.73-66.53-29.16,34.07-39,64.49-30.87,16-44.92,50.7-47.63,45.43,23.3,35.7,37.1S272.44,397.55,272,427.8,259.05,468.57,239.17,479.12Z"/><path class="cls-6" d="M329.23,385.43c5.71-8.09,4.38-20.38-4.7-28.61l-12.81,38.45C319.49,392.54,326.18,389.74,329.23,385.43Z"/><circle class="cls-6" cx="415.72" cy="166.6" r="5.88"/><circle class="cls-6" cx="210.18" cy="219.69" r="5.88"/><circle class="cls-6" cx="139.62" cy="364.7" r="4.16"/><path class="cls-7" d="M255.19,494.64s2.8-7.15,8-6.85,6.84,9.89.92,18.41-10.23,8.09-10.23,8.09"/><rect class="cls-4" x="549.29" y="318.46" width="75.7" height="108.88"/><path class="cls-2" d="M580.57,336s-19.47,28.54-9.33,33.33,23.11-6.83,32.44,0-13,40.49-13,40.49"/><polygon class="cls-5" points="558.95 417.7 558.95 397.82 580.25 417.7 558.95 417.7"/><circle class="cls-8" cx="608.01" cy="335.98" r="8.05"/><circle class="cls-4" cx="587.14" cy="290.92" r="3.45"/><line class="cls-2" x1="549.29" y1="318.46" x2="583.7" y2="290.92"/><line class="cls-2" x1="590.58" y1="290.92" x2="624.99" y2="318.46"/><circle class="cls-9" cx="293.61" cy="630.11" r="5.78"/><circle class="cls-9" cx="572.27" cy="590.17" r="5.78"/><path class="cls-9" d="M665,516.18H586v4.4h76.29v8.8H586v4.4h79a3.15,3.15,0,0,0,3.15-3.16V519.34A3.15,3.15,0,0,0,665,516.18Z"/><rect class="cls-4" x="588.41" y="520.58" width="73.85" height="8.8"/><line class="cls-2" x1="588.41" y1="523.15" x2="662.26" y2="523.15"/><line class="cls-2" x1="588.41" y1="526.81" x2="662.26" y2="526.81"/><path class="cls-6" d="M659.27,498.59H599V503h57.58v8.8H599v4.4h60.27a3.15,3.15,0,0,0,3.15-3.16V501.75A3.15,3.15,0,0,0,659.27,498.59Z"/><rect class="cls-4" x="602.04" y="502.99" width="54.53" height="8.8"/><line class="cls-2" x1="602.04" y1="505.55" x2="656.58" y2="505.55"/><line class="cls-2" x1="602.04" y1="509.21" x2="656.58" y2="509.21"/><path class="cls-10" d="M653.42,472H588.25v4.4h62.48v17.8H588.25v4.4h65.17a3.15,3.15,0,0,0,3.16-3.16V475.14A3.15,3.15,0,0,0,653.42,472Z"/><rect class="cls-4" x="591.43" y="476.39" width="59.29" height="17.8"/><line class="cls-2" x1="591.43" y1="487.04" x2="650.72" y2="487.04"/><line class="cls-2" x1="591.43" y1="490.7" x2="650.72" y2="490.7"/><line class="cls-2" x1="591.43" y1="479.88" x2="650.72" y2="479.88"/><line class="cls-2" x1="591.43" y1="483.54" x2="650.72" y2="483.54"/></svg>