<svg id="图层_1" data-name="图层 1" xmlns="http://www.w3.org/2000/svg" viewBox="0 0 800 800"><defs><style>.cls-1,.cls-13,.cls-2{fill:none;}.cls-1,.cls-10,.cls-11,.cls-12,.cls-2,.cls-3,.cls-4,.cls-5,.cls-7,.cls-8,.cls-9{stroke:#000;}.cls-1,.cls-11,.cls-12,.cls-13,.cls-8,.cls-9{stroke-linecap:round;stroke-linejoin:round;}.cls-1,.cls-10,.cls-11,.cls-12,.cls-13,.cls-2,.cls-3,.cls-4,.cls-5,.cls-7,.cls-8,.cls-9{stroke-width:0.91px;}.cls-10,.cls-2,.cls-3,.cls-4,.cls-5,.cls-7{stroke-miterlimit:9.15;}.cls-3{fill:#6cc4ff;}.cls-4{fill:#7400a5;}.cls-5{fill:#ff8885;}.cls-6{isolation:isolate;font-size:78.79px;font-family:ArialMT, Arial;}.cls-11,.cls-7{fill:#fff;}.cls-8{fill:#3165e9;}.cls-9{fill:#002fa7;}.cls-10{fill:#ffca6e;}.cls-13{stroke:#fff;}</style></defs><path class="cls-1" d="M673.08,453.65V194.39A20.42,20.42,0,0,0,652.66,174h-296"/><path class="cls-2" d="M623.61,442.06V277.66A13.59,13.59,0,0,0,610,264.07H413.4"/><path class="cls-1" d="M184.54,326h-54a20.42,20.42,0,0,0-20.42,20.42V571.26"/><circle class="cls-3" cx="498.38" cy="173.97" r="13.33"/><circle class="cls-4" cx="623.61" cy="173.97" r="7.91"/><circle class="cls-5" cx="110.07" cy="571.27" r="13.33"/><text class="cls-6" transform="translate(141.68 557.94)">Meet</text><text class="cls-6" transform="translate(141.68 634.65)">Ups</text><path class="cls-1" d="M235.53,410.6v22.63A20.42,20.42,0,0,0,256,453.65H402.24"/><rect class="cls-7" x="522.11" y="234.17" width="181.15" height="119.98"/><line class="cls-2" x1="522.11" y1="264.06" x2="703.25" y2="264.06"/><line class="cls-2" x1="522.11" y1="294.09" x2="703.25" y2="294.09"/><line class="cls-2" x1="522.11" y1="324.12" x2="703.25" y2="324.12"/><line class="cls-2" x1="522.11" y1="354.15" x2="703.25" y2="354.15"/><line class="cls-2" x1="642.85" y1="234.17" x2="642.85" y2="354.15"/><line class="cls-2" x1="612.64" y1="234.17" x2="612.64" y2="354.15"/><line class="cls-2" x1="673.05" y1="234.17" x2="673.05" y2="354.15"/><line class="cls-2" x1="582.45" y1="234.17" x2="582.45" y2="354.15"/><line class="cls-2" x1="552.24" y1="234.17" x2="552.24" y2="354.15"/><polygon class="cls-8" points="152.15 297 152.15 263.3 131.22 263.3 131.22 297 116.79 297 141.68 323.96 166.58 297 152.15 297"/><polygon class="cls-9" points="450.16 410.6 179.32 410.6 179.32 204.2 314.74 139.77 450.16 204.2 450.16 410.6"/><path class="cls-10" d="M369.69,204.77a13.42,13.42,0,0,1,4,9.61c.05,6.19-1.63,14.34,7.71,18.41s12,12.76,7.42,22.18-19.63,4.15-22.27,12.3-3.64,12.06-14.86,12.74-21.29-9.86-39.72-5.08-45-2.4-47.42-8.62S317,225.85,317,225.85Z"/><path class="cls-11" d="M408.67,299.63c-10.93-17.33-49.51-11.94-49.51-11.94l-52.27-3S271.08,277,259.77,300s-44.48,110.82-44.48,110.82h36.57l20.81-53.63s5,16.67,5.63,28.69l-3.45-.31-4.45,23.05,4.57,1.49h0l2.15.7s73.12,24.13,107,22.62S419.6,317,408.67,299.63Z"/><path class="cls-11" d="M361.93,215.57s5.27,5.53,5.52,13.06c.14,4.09,4.47,8.92,9.24,8.92l-4.9,2.26a6.61,6.61,0,0,0-3.85,6.23c.21,6.06,0,16.34-3.51,16.52-5,.25-13.82-2.76-15.07,2s-2.7,22.05,14.45,22.65c0,0-26,19.06-31.54,19.56s-25.39-22.11-25.39-22.11,17.84-.5,18.6-7.79,0-36.94,0-36.94-.5-36.19,20.86-31.41S361.93,215.57,361.93,215.57Z"/><path class="cls-10" d="M357,194a11.67,11.67,0,0,0,7.75,1.62c6.28-.84,16.88-.95,17.07,7.88C382,214,373.16,218.33,365,219.65a7.72,7.72,0,0,0-6,5.07c-1,2.76-2.66,5.89-5.32,6.69-5,1.51-10.06-7.53-15.84-2.51s3,9.8,2.26,17.09-5.28,13.56-18.84,13.06-25.63-7.46-35.69-1.59-10.3,16.68-24.12,17.67-16.08-9.29-25.39-10.8-27.89,3.26-33.42-8.55,17.33-13.06,23.11-22.11,15.34-13.32,26.39-12.81,23.62,11.3,33.17,8.54,23.34-23.21,31.91-31.16C323.69,192.21,343.66,185.54,357,194Z"/><path class="cls-1" d="M351.42,231.5s9,3.17,5.83,11.72a9.6,9.6,0,0,1-6.27,6.26c-5.2,1.61-10.73-2-10.59-7.4a1,1,0,0,1,0-.17c.28-5.93,5.34-6.81,7.51-6.27s5.13,2.36,4.62,6a4.33,4.33,0,0,1-5.8,3.58c-1.92-.65-3.54-3.62-1.09-5.66"/><path class="cls-1" d="M277.12,410.83l-6.71-2.2,4.45-23.05s95.36,8.68,101.84,4.91,2.19-59.94,2.19-59.94"/><path class="cls-1" d="M278.35,385.89A101,101,0,0,0,274.1,363c-3.77-12.06-3.7-32.42-3.7-32.42"/><path class="cls-11" d="M274.38,388.41s-24.29-7.88-40.32-2.35-11.35,21.53,8.46,17.81,28.78.55,28.78.55Z"/><polygon class="cls-11" points="673.08 660.05 402.24 660.05 402.24 453.64 537.66 389.22 673.08 453.64 673.08 660.05"/><path class="cls-11" d="M548.65,524.54s-32.51,3.15-52.43,29.38-52.38,106.13-52.38,106.13H664.6s-.06-88.87-28-114.1S585,524.33,585,524.33Z"/><path class="cls-12" d="M548.65,524.93c7.77-.85,5.25-14.16,4.4-19.83s-11.35,1.27-17,0c-4.28-1-5.33-13.26-5.59-19.25a4.33,4.33,0,0,0-3.29-4l-4.57-1.11c6.1-2.73,8-7.56,8-10.72s1.89-10.51,1.89-10.51c2-12.1,19.13-19.34,30.34-16s15.9,15.13,14.63,42.45.42,33.28,7.57,38.75c0,0-10.25,13.56-24.57,13.56S548.65,524.93,548.65,524.93Z"/><path class="cls-11" d="M536.87,435.53s-18.48-7.37-21.83,4.71,14,19.65,25.19,18.25c0,0,3,5.61,12.71,6.17s12.16,5.87,12.19,16.8,12.39,10.31,12.39,10.31,16.14-17.6,8.18-40.27-23-17.08-23-17.08S548.34,425.17,536.87,435.53Z"/><path class="cls-13" d="M551.66,462.73s-8,4.93-3.2,12.52a9.48,9.48,0,0,0,7.36,4.76c5.35.48,10-4.12,8.69-9.34,0-.05,0-.11,0-.17-1.49-5.68-6.58-5.47-8.55-4.5s-4.47,3.33-3.21,6.77A4.28,4.28,0,0,0,559,475c1.72-1,2.67-4.22-.12-5.69"/><line class="cls-1" x1="612.24" y1="584.56" x2="606.17" y2="660.05"/><path class="cls-12" d="M562.34,660.05S452.71,582.52,412,571.87c-26.08-6.83-36.73-5.14-41-3a1.48,1.48,0,0,0,.46,2.82c7.6.88,26.1,3.24,30.27,5.72,0,0-17.83,9.2-8.64,20.52S415,602.59,434.05,611s67.18,49,67.18,49h61.11Z"/><line class="cls-1" x1="500.32" y1="584.56" x2="495.69" y2="660.05"/><polygon class="cls-11" points="492.6 660.05 518.83 622.31 576.76 660.05 492.6 660.05"/></svg>