<svg id="图层_1" data-name="图层 1" xmlns="http://www.w3.org/2000/svg" xmlns:xlink="http://www.w3.org/1999/xlink" viewBox="0 0 800 800"><defs><style>.cls-1,.cls-15,.cls-16,.cls-2{fill:none;}.cls-11,.cls-12,.cls-13,.cls-14,.cls-15,.cls-17,.cls-18,.cls-19,.cls-2,.cls-3,.cls-4,.cls-5,.cls-6,.cls-7,.cls-8,.cls-9{stroke:#000;}.cls-19,.cls-2,.cls-3,.cls-4,.cls-8{stroke-miterlimit:9.15;}.cls-17,.cls-18,.cls-19,.cls-2,.cls-3,.cls-4,.cls-5,.cls-6,.cls-7,.cls-8,.cls-9{stroke-width:0.91px;}.cls-3{fill:#ffd26e;}.cls-4{fill:#6cc4ff;}.cls-12,.cls-19,.cls-5{fill:#fff;}.cls-11,.cls-12,.cls-13,.cls-14,.cls-15,.cls-16,.cls-17,.cls-18,.cls-5,.cls-6,.cls-7,.cls-9{stroke-linecap:round;stroke-linejoin:round;}.cls-6{fill:#dee0e5;}.cls-8{fill:#ffcd6e;}.cls-9{fill:#3165eb;}.cls-10{clip-path:url(#clip-path);}.cls-11,.cls-12,.cls-13,.cls-14,.cls-15,.cls-16{stroke-width:0.91px;}.cls-13{fill:#002fa4;}.cls-14{fill:#3165f0;}.cls-16{stroke:#fff;}.cls-17{fill:#e3e5ea;}.cls-18{fill:#002f9f;}</style><clipPath id="clip-path"><rect class="cls-1" x="373.62" y="363.52" width="236.93" height="330.75" transform="translate(-39.24 1018.36) rotate(-89.72)"/></clipPath></defs><path class="cls-2" d="M164.57,329.34s-53.1,172.13-12.79,171.59,50.85-10.25,45-20.92-31,.49-8.18,25.58,52.91,2.54,73.21,6.79,48.06,83.27,69.4,54.55c30.49-41.09,58.73-113,91.46-97.82s72.12,85.7,90.43,69.94c15.76-13.57.54-85.46.54-85.46"/><circle class="cls-3" cx="284.75" cy="531.29" r="24.67"/><circle class="cls-4" cx="557.98" cy="306.37" r="12.3"/><rect class="cls-5" x="373.37" y="420.49" width="241.29" height="228.01"/><rect class="cls-6" x="373.37" y="420" width="241.29" height="38.92"/><circle class="cls-7" cx="390.76" cy="439.4" r="4.91"/><circle class="cls-8" cx="412.04" cy="439.4" r="4.91"/><circle class="cls-9" cx="433.92" cy="439.4" r="4.91"/><path class="cls-2" d="M614.65,465.34s27.46-14,27.46-36.06-18.13-15.94-15.22-37,23.94-1.75,31-29.21-14.24-22.42-16.73-14.79c-2.31,7,7.39,25.88,24.91-7.39s-8.18-50.24-29.82-62.31-11.09-29.45-32.13-56.12-121.4,20.78-121.4,20.78S390,293,375.9,195.08s-103.1-.3-103.1-.3"/><g class="cls-10"><path class="cls-11" d="M493.92,527.46a90.9,90.9,0,0,0,.24-9.94c-.24-5-4.43.42-12.06-1S476,501.88,475,496.73a11.84,11.84,0,0,0-4.79-7.46s6.86.55,8.85-9.21a34.1,34.1,0,0,1,.79-3.88c2.54-7.94,10.12-13.09,18.42-13.34C526.7,462,519,486.9,517.19,502.48c-1.94,16.91,6.37,21.1,6.37,21.1s-27.46,29-27.46,29.09-2.36-6.79-2.42-7.28a38.47,38.47,0,0,1-.37-8.79C493.43,533.47,493.67,530.49,493.92,527.46Z"/><path class="cls-12" d="M487.8,457.28a10.46,10.46,0,0,1-5.27-.06C478.29,456.06,470,455,467,463.15c-2.6,7.21,5.4,10.92,11.28,12.61a8.62,8.62,0,0,1,6,6.3c.73,3.09,2.61,6.67,7.46,7.64,9.09,1.76,9-1.22,17.64,2.24s15.27-4.3,16.18-9.46,1.33-17.94-11.82-23.94C504,454,492.83,456,487.8,457.28Z"/><path class="cls-12" d="M523.25,466.8s3.64-17.34,21.88-15.1,7.09,19.21,25,26.18,26.55-6.85,46.19-.42,12.79,25.64,19,38.25,16.12,11.27,17.34,25.16-10.48,12-11.57,23.33-13.51,14.73-24.06,6.79-8.73-11.52-27.76-14.24S582.84,527,572.9,508.87s-32.36,2.24-47.27-26.43C525.62,482.44,528.53,477.28,523.25,466.8Z"/><path class="cls-11" d="M463.86,575.46s-26.67,22.31-71.15-21c0,0-6.86-6.67-6-26.61s-5.21-6.48-5.21-6.48-7.64,19.51.85,34.85,43,44.6,67.34,44.73,32.48-14.79,32.48-14.79Z"/><path class="cls-13" d="M407.49,854.21,458.16,840l-51-138.31,168-23.39-14.48-25.94c-43.22-3.16-87.28-4.18-130.49-.55-19,1.57-45.27,2.73-60.85,15.21-16.79,13.51-4.24,54.61-.25,71.59,6.42,27,15.15,53.58,24.67,79.64C398,830.33,402.58,842.33,407.49,854.21Z"/><path class="cls-14" d="M447.13,853.54c14.18-5.21,31.81-12.54,44.79-21-15.22-34.06-29.83-68.42-44.61-102.67-3.51-8.12-10.6-17.51-11-26.48l76.3,8.91c14.79,1.69,29.88,5.58,43.52-2.84,11.45-7.09,19-19.28,22.67-32.37,8.49-30.36-30.61-68.73-30.61-68.73-34.07-.18-51.58,17.58-51.58,17.58-1.39,6.72,4,29.15,4,29.21-.72-3-33.09-3.82-35.88-4-17.27-1-61-7.76-73.22,7.94-18.79,24.06.79,68.36,5,82.6S447.13,853.54,447.13,853.54Z"/><path class="cls-12" d="M581,571.41l4.06-2.42s-33.46-44.67-61.64-45.4-65.28,50.49-65.7,50.73l26.61,17.45,1.94-3.76,5.58,33.71,2.54,15.39,3,17.88,80.79-2.13L568.78,620l-6.31-22-3.81-13.27,3.27-1.94"/><path class="cls-15" d="M490,557.59a16.16,16.16,0,0,1-1,7.64c-1.57,3.64-6.06,8.06-2.6,23.15"/><polyline class="cls-15" points="566.29 580.32 552.65 588.38 546.22 554.08"/><path class="cls-16" d="M499,490.13s-8.67,2.67-5.94,10.91a9.09,9.09,0,0,0,5.75,6.19c4.85,1.69,10.25-1.46,10.3-6.67v-.18c-.06-5.64-4.85-6.67-6.9-6.24s-5,2.06-4.61,5.58a4.16,4.16,0,0,0,5.39,3.64c1.82-.55,3.52-3.28,1.22-5.33"/><polygon class="cls-12" points="475.13 645.47 474.95 638.99 374.88 642.45 344.21 529.35 337.12 530.8 368.45 649.23 475.13 645.47"/><path class="cls-11" d="M589,610.44s-.55,3.27-7.58,6.24c-1.21.48-5.75,1.69-12.6,3.39-16.07,3.94-45,10.6-74.37,17.09-6.48,1.45-13,2.84-19.39,4.24h0a53.27,53.27,0,0,1-10.25,4.48,82.81,82.81,0,0,1-29.21,3.65,2.92,2.92,0,0,1-2.72-2.49,2.75,2.75,0,0,1,.48-2c1.52-2.18,3.58-6.12,6-9.88,2.67-4.12,5.76-8.06,9-9.33,3-1.15,24.61,1.7,24.61,1.7s7.75-2.31,19-5.76c.67-.18,1.39-.42,2.06-.67,19-5.88,46.49-14.61,64.49-21.45,1.39-.55,2.72-1,4-1.57s2.73-1.09,3.95-1.64c0,0-.31-1.09-.91-2.84-.79-2.55-2.12-6.61-3.58-10.79l19-11.45a120.33,120.33,0,0,1,6.3,16.78C589.62,596,590.83,604.2,589,610.44Z"/></g><polygon class="cls-17" points="526.04 247.09 463.61 250.73 506.89 226.24 508.22 235.33 523.01 239.33 526.04 247.09"/><polygon class="cls-17" points="463.61 250.73 517.19 228.54 567.73 230.18 463.61 250.73"/><polygon class="cls-17" points="506.89 226.24 463.61 250.73 498.95 209.69 506.89 226.24"/><circle class="cls-18" cx="244.57" cy="271.33" r="116.43"/><rect class="cls-19" x="164.21" y="213.33" width="160.67" height="116.07"/><polyline class="cls-2" points="164.21 213.33 244.57 281.51 324.88 213.33"/><line class="cls-2" x1="164.21" y1="329.34" x2="226.75" y2="266.36"/><line class="cls-2" x1="324.88" y1="329.34" x2="262.39" y2="266.36"/></svg>