<svg id="图层_1" data-name="图层 1" xmlns="http://www.w3.org/2000/svg" viewBox="0 0 800 800"><defs><style>.cls-1,.cls-9{fill:none;}.cls-1,.cls-10,.cls-11,.cls-12,.cls-13,.cls-2,.cls-3,.cls-4,.cls-5,.cls-6,.cls-7,.cls-8,.cls-9{stroke:#000;stroke-width:0.91px;}.cls-1,.cls-11,.cls-12,.cls-13,.cls-2,.cls-3,.cls-4,.cls-5,.cls-7{stroke-miterlimit:9.15;}.cls-2,.cls-8{fill:#fff;}.cls-3{fill:#ffd26e;}.cls-4{fill:#e6e8ec;}.cls-5{fill:#1331a1;}.cls-10,.cls-6,.cls-8,.cls-9{stroke-linecap:round;stroke-linejoin:round;}.cls-10{fill:#3165f0;}.cls-11{fill:#4166eb;}.cls-12{fill:#7400a5;}.cls-13{fill:#6cc4ff;}</style></defs><line class="cls-1" x1="70.97" y1="609.27" x2="613.48" y2="609.27"/><rect class="cls-2" x="503.65" y="400.27" width="77.7" height="105.81"/><rect class="cls-3" x="510.38" y="423.77" width="64.18" height="13.86"/><rect class="cls-3" x="510.38" y="445.71" width="64.18" height="13.86"/><rect class="cls-3" x="510.38" y="468.66" width="64.18" height="13.86"/><path class="cls-1" d="M535.58,400.33c-36.4-31.18-25.75-86.72-65.16-97.44-10.33-2.81-22.68-2-32.81,1s-26.86,15-12,24.45c4.51,2.87,23.2,9.93,25,.52,2.48-13.07-21.5-25.42-30.52-30.06-10.52-5.49-22.35-9.81-34.44-9.61-21.12.4-32,17.46-43.59,32.22-7.71,9.81-19.74,6.08-32.81,1a72.22,72.22,0,0,0-42.54-2.81c-7.32,1.7-13.93,4.64-20.66,7.84-9.35,4.45-20.39,5.24-28.82,11.5-9.81,7.26-14.18,21-18.69,31.7-7.45,17.84-13.79,36.08-19.48,54.5-3.53,11.44-6.86,23.66-11.7,35-5.16,12.09-13.66,22.15-19.15,34.05-4.64,10-8.56,21.36-7.25,32.54,1,8.36,9.54,27.84,21.18,21.83,11.37-5.88,12.35-28.17,8.69-38.56-7.72-21.83-33,10.79-39.68,18.11-16.14,17.71-33.92,42.8-27.19,68.09,1.83,6.86,5.82,15,11.31,19.74,7.84,6.87,13.86.79,19.74-5.48"/><line class="cls-1" x1="306.44" y1="650.31" x2="729.03" y2="650.31"/><path class="cls-4" d="M359.52,571v-.4a37.36,37.36,0,0,1,19.8-32.67V604a38.65,38.65,0,0,1-8.89-6.61A37.24,37.24,0,0,1,359.52,571Zm-144.31,0a37.47,37.47,0,0,0,37.44,37.44H553.87v-3.33h-172V536.84h172v-3.33H252.65a37.45,37.45,0,0,0-37.45,37.06c0,.2,0,.27,0,.4Z"/><polygon class="cls-2" points="381.86 537.05 381.86 605.28 548.52 605.28 548.52 537.05 381.86 537.05"/><path class="cls-2" d="M359.52,571a37.17,37.17,0,0,0,11,26.46,38.28,38.28,0,0,0,8.9,6.61V538a37.31,37.31,0,0,0-19.87,33Z"/><line class="cls-1" x1="381.86" y1="571.17" x2="548.52" y2="571.17"/><line class="cls-1" x1="381.86" y1="553.78" x2="548.52" y2="553.78"/><line class="cls-1" x1="381.86" y1="588.55" x2="548.52" y2="588.55"/><path class="cls-5" d="M354.09,533.19h2.29A6.77,6.77,0,0,1,354.09,533.19Z"/><path class="cls-5" d="M411.07,493.33a6.09,6.09,0,0,1-2.48,4L388.4,511.43l-7.72,5.36H354.8a14.94,14.94,0,0,0-8.23,2.48l-.91-3-1.18-3.86-.59-2L341.6,503l12.81-9L387,471.17l2.48,1.89,3.73,2.81,1.63,1.25.13.13,14.64,11a6.23,6.23,0,0,1,1.31,2.68A4.65,4.65,0,0,1,411.07,493.33Z"/><path class="cls-5" d="M312.92,462.09,290.24,445a6.08,6.08,0,0,1,1.11-8.95l49.8-34.9a6.1,6.1,0,0,1,8.82,2l8.29,27.12-45.34,31.84Z"/><path class="cls-5" d="M306.83,469.8l24.32,34.71A14.17,14.17,0,0,0,350.89,508l37.64-26.4A14.16,14.16,0,0,0,392,461.83l-24.32-34.71a14.16,14.16,0,0,0-19.74-3.46l-37.64,26.4a14.17,14.17,0,0,0-3.47,19.74Z"/><path class="cls-2" d="M306.44,469.28l26.21,37.45a2.09,2.09,0,0,0,2.93.52l51.24-35.88,6.15-4.32a2.08,2.08,0,0,0,.52-2.93l-26.27-37.45a2.1,2.1,0,0,0-2.94-.53l-56.66,39.68-.79.52a2.2,2.2,0,0,0-.39,2.94Z"/><path class="cls-2" d="M131.36,619.72a14.65,14.65,0,0,0,20.39,3.6L160.7,617l7.52-5.29,84.7-59.34,7.52-5.3,9.75-6.86a.21.21,0,0,1,.19-.07h0a118.49,118.49,0,0,1,44.51-34.5l3.47-1.5,9.54-4.25L319.47,488l-8.37-12-3.93,4.05-5.94,6.15A120.14,120.14,0,0,1,284,501a116.28,116.28,0,0,1-30.39,15.3l-9.93,6.92h0l-2,1.38-5.56,3.86-84.7,59.28L143.85,593l-8.95,6.28a14.61,14.61,0,0,0-3.54,20.42Z"/><path class="cls-6" d="M599.62,597.44l17.19,5.23s-12.74,21.24-12.74,47.39H557.53s-.85-5.88,19.08-11.89S599.62,597.44,599.62,597.44Z"/><path class="cls-6" d="M618.38,306.67s-7-15.36-25.68,101.63l58.3,2.61Z"/><path class="cls-7" d="M678.83,594.76l17.46,4.38s1.24,24.18,2.48,50.26l-47,.59s-1.89-4.71,17.72-11.64S678.83,594.76,678.83,594.76Z"/><path class="cls-2" d="M651.78,412.62,612.7,630.45l-31-4.58S592.58,448.11,607.09,411Z"/><path class="cls-2" d="M667.66,415.36s36.08,186.07,35.82,211.35H670.6s-48.56-165-42.42-211.35C631.71,389,667.66,415.36,667.66,415.36Z"/><path class="cls-8" d="M618.91,306s.12-11.24-2.62-14.32c-2-2.16-5.23,1.05-9.67-.19s-2.81-8.89-3.14-12a7,7,0,0,0-2.41-4.63s4,.72,5.69-5a17.2,17.2,0,0,1,.65-2.22,11.71,11.71,0,0,1,11.5-6.93s19.21.85,11.7,26l.58,8-6.6,15.42-6,2.16Z"/><path class="cls-6" d="M614.13,255.7s-9.48-7-14.32-.91,8.82,10.65,8.82,10.65a12.57,12.57,0,0,0,6.34,6.8c4.91,2.41,6.47-3.14,11-.33s-2.62,9.08-2.62,9.08a18.25,18.25,0,0,1,7.26,5.76s16.6-15,2.48-24.64C633.09,262,626.43,249.42,614.13,255.7Z"/><path class="cls-9" d="M617.27,273s-4.25,2.81-1.5,6.8a5.17,5.17,0,0,0,4.05,2.42c2.87.12,5.3-2.42,4.51-5.16v-.07a3.35,3.35,0,0,0-4.7-2.29,3,3,0,0,0-1.64,3.73,2.33,2.33,0,0,0,3.47,1.1,1.74,1.74,0,0,0-.19-3.07"/><path class="cls-8" d="M592.51,387.91s-7.78,5-12.81,5-14.84,4-15.23,7.39,12.48,3.2,17.45.78c5.49-2.61,15.75-8.29,15.75-8.29Z"/><path class="cls-6" d="M620.28,301.12a760.4,760.4,0,0,1-104,42.94l4.51,12.29s40.33-.85,82.48-21.25Z"/><path class="cls-10" d="M631.13,295s-35.17-2.23-23.86,80.12L588.06,386.8l6.27,11.89,13-2.87s2.42-2.55-2.61,19.54l67.64-.19C672.43,415.09,677.46,314.58,631.13,295Z"/><path class="cls-9" d="M646.68,320.07s12.94,33.27,1.31,52.42-40.66,23.4-40.66,23.4"/><path class="cls-9" d="M607.14,375.16l23.47-16.92-1.38-8.43s-1.76-9.09-3.46-15.3"/><path class="cls-6" d="M538.26,350.53s-7.65,4.18-22.09,5.42-18.83-7.44-18.83-7.44-1.37-3.27,5-3.6,20.84,3.2,32.28-1.76Z"/><polygon class="cls-2" points="411.73 517.71 388.2 517.71 397.81 197.34 403.5 197.34 411.73 517.71"/><path class="cls-1" d="M380.68,516.86l-21.95,15.36a5.22,5.22,0,0,1-2.35,1h-2.29a6.11,6.11,0,0,1-4.18-3l-3.33-10.84a14.71,14.71,0,0,1,8.23-2.48Z"/><path class="cls-3" d="M354.09,533.19H340v-1.56a14.74,14.74,0,0,1,6.6-12.29L350,530.19A5.87,5.87,0,0,0,354.09,533.19Z"/><path class="cls-3" d="M459.9,531.62v1.57H356.44a5.6,5.6,0,0,0,2.35-1l22-15.36h64.37A14.76,14.76,0,0,1,459.9,531.62Z"/><polygon class="cls-9" points="493.69 316.94 569.23 316.94 531.46 204.39 493.69 316.94"/><path class="cls-2" d="M531.46,355.36c20.85,0,37.77-17.32,37.77-38.62H493.68C493.69,338,510.61,355.36,531.46,355.36Z"/><rect class="cls-2" x="267.9" y="196.59" width="263.64" height="7.06"/><ellipse class="cls-3" cx="531.79" cy="200.21" rx="3.99" ry="4.12"/><polygon class="cls-9" points="230.11 316.94 305.66 316.94 267.88 204.39 230.11 316.94"/><path class="cls-11" d="M267.88,355.36c20.85,0,37.77-17.32,37.77-38.62H230.1C230.11,338,247,355.36,267.88,355.36Z"/><ellipse class="cls-3" cx="268.34" cy="200.21" rx="3.99" ry="4.12"/><ellipse class="cls-3" cx="400.55" cy="200.21" rx="4.32" ry="4.12"/><path class="cls-7" d="M408.59,497.32l-20.78,14.57,1-30.45.26-8.63.07-3.08.39-11.37L392,461.9a14.39,14.39,0,0,1,1.89,3.78,13.93,13.93,0,0,1-.65,10.27l1.64,1.24.13.13,14.64,11A6,6,0,0,1,408.59,497.32Z"/><path class="cls-2" d="M519.63,590.12a59.72,59.72,0,0,0-59.73,59.74H579.37A59.81,59.81,0,0,0,519.63,590.12Z"/><circle class="cls-12" cx="181.55" cy="434.96" r="18.17"/><circle class="cls-13" cx="325.2" cy="631.43" r="12.74"/><circle class="cls-2" cx="248.48" cy="162.44" r="12.74"/></svg>