<svg id="图层_1" data-name="图层 1" xmlns="http://www.w3.org/2000/svg" viewBox="0 0 800 800"><defs><style>.cls-1,.cls-2,.cls-20{fill:none;}.cls-1,.cls-10,.cls-11,.cls-12,.cls-13,.cls-14,.cls-15,.cls-16,.cls-17,.cls-18,.cls-19,.cls-2,.cls-3,.cls-4,.cls-5,.cls-6,.cls-7,.cls-8,.cls-9{stroke:#000;}.cls-1,.cls-19,.cls-8,.cls-9{stroke-miterlimit:9.15;}.cls-1,.cls-10,.cls-11,.cls-12,.cls-14,.cls-15,.cls-17,.cls-18,.cls-19,.cls-2,.cls-20,.cls-3,.cls-4,.cls-5,.cls-6,.cls-8,.cls-9{stroke-width:0.91px;}.cls-10,.cls-13,.cls-16,.cls-17,.cls-18,.cls-2,.cls-20,.cls-3,.cls-4,.cls-5,.cls-6{stroke-linecap:round;}.cls-10,.cls-11,.cls-12,.cls-13,.cls-14,.cls-15,.cls-16,.cls-17,.cls-18,.cls-2,.cls-20,.cls-3,.cls-4,.cls-5,.cls-6{stroke-linejoin:round;}.cls-13,.cls-16,.cls-3{fill:#002f9f;}.cls-4{fill:#002fa4;}.cls-11,.cls-19,.cls-5{fill:#fff;}.cls-6{fill:#dee0e5;}.cls-7,.cls-8{fill:#ffcd6e;}.cls-7{stroke-miterlimit:9.15;stroke-width:0.91px;}.cls-9{fill:#6cc4ff;}.cls-12{fill:#ffce6e;}.cls-13{stroke-width:0.91px;}.cls-14{fill:#ffd26e;}.cls-16{stroke-width:0.91px;}.cls-17{fill:#3165e8;}.cls-18{fill:#3165f0;}.cls-20{stroke:#fff;}</style></defs><path class="cls-1" d="M368.3,618.83c187.11-7,81.57-121.3,81.57-121.3s-24.71-24.78-24.45-7.45c.07,6.15,5.16,15.69,11.89,7.71,3.73-4.38,2.94-15.09,2-20.52a24.43,24.43,0,0,0-7-13.32c-8.37-7.91-21.24-9.15-32.15-8.9-30.13.73-60.91,11.83-87.71,25-12.22,6-27,.52-38.23-5.23-17.26-8.76-32.61-21.25-47-34.05,0,0-22.15-22.35,8.57-43.26S175,377.21,186.74,357,249.48,321,249.48,321"/><line class="cls-2" x1="75.51" y1="655.88" x2="724.49" y2="655.88"/><path class="cls-3" d="M412.29,621.64a34.29,34.29,0,0,1-59.68,23V598.69a34.29,34.29,0,0,1,59.68,22.95Z"/><path class="cls-2" d="M284.64,198.2,391.5,151.53a6.94,6.94,0,0,1,12.62.73L515.48,198.2"/><path class="cls-4" d="M402.54,153.89a6.68,6.68,0,1,0-9,2.81A6.69,6.69,0,0,0,402.54,153.89Z"/><rect class="cls-5" x="212.62" y="196.96" width="374.75" height="255.15"/><rect class="cls-6" x="279.81" y="324.34" width="253.77" height="69.93"/><rect class="cls-5" x="266.48" y="306.43" width="253.77" height="69.93"/><rect class="cls-7" x="500.35" y="362.82" width="8.23" height="45.48" transform="translate(-110.83 228.87) rotate(-23.1)"/><polygon class="cls-8" points="520.12 367.54 488.16 348.06 481.63 383.94 520.12 367.54"/><circle class="cls-9" cx="465.22" cy="523.67" r="12.74"/><rect class="cls-10" x="186.94" y="222.78" width="133.98" height="8.69"/><rect class="cls-10" x="139.82" y="248.06" width="133.98" height="8.69"/><polygon class="cls-5" points="501.95 211.08 513.65 222.78 513.65 277.8 461.76 277.8 461.76 211.08 501.95 211.08"/><polygon class="cls-5" points="501.95 211.08 501.95 222.78 513.65 222.78 501.95 211.08"/><line class="cls-1" x1="468.76" y1="232.57" x2="499.67" y2="232.57"/><line class="cls-1" x1="474.7" y1="240.16" x2="505.55" y2="240.16"/><line class="cls-1" x1="469.34" y1="247.74" x2="500.25" y2="247.74"/><line class="cls-1" x1="476.93" y1="256.89" x2="507.77" y2="256.89"/><polygon class="cls-11" points="113.16 579.61 113.16 612.49 164.65 612.49 113.16 579.61"/><path class="cls-12" d="M162.89,622.68a15.72,15.72,0,0,1,1.71.06v-10.2H113.09v43h17A32.79,32.79,0,0,1,162.89,622.68Z"/><rect class="cls-6" x="113.16" y="565.62" width="51.5" height="13.92"/><rect class="cls-13" x="277.23" y="482.96" width="63.53" height="5.82" transform="translate(-246.01 639.24) rotate(-72.99)"/><path class="cls-14" d="M230.27,521.91v2.81H364.44v-2.81c0-2.62-1.76-4.78-3.92-4.78H234.18C232,517.13,230.27,519.29,230.27,521.91Z"/><path class="cls-10" d="M352.55,599.22v45.29a33.62,33.62,0,0,1-8.69-22.68A33.09,33.09,0,0,1,352.55,599.22Z"/><path class="cls-5" d="M352.55,599.22a33.59,33.59,0,0,0-8.69,22.67,34.08,34.08,0,0,0,8.69,22.68v9.54H327V524.78h25.55Z"/><path class="cls-5" d="M183.48,408.77a11.34,11.34,0,0,1,11.18,6.54,17.16,17.16,0,0,1,.65,2.15c1.63,5.43,5.48,4.71,5.48,4.71a6.87,6.87,0,0,0-2.28,4.51c-.33,3,1.31,10.32-2.94,11.57s-5.88-1.44-6.8,1.24a36.22,36.22,0,0,0-1.18,5.95l-8,1.5L172.55,444s4.39-2.35,2.35-11.83C173.08,423.55,167.33,409.82,183.48,408.77Z"/><path class="cls-15" d="M183,407.07s1.43-7.32,8-5.88a6.87,6.87,0,0,1,5.81,7.52,9.37,9.37,0,0,1-2.68,5.55s-.26,4.84-4.24,6.41c0,0-4.18-4.32-5.69-2.62s-.33,5.75,2.41,8.1-.06,6.28-3.26,7.26c0,0-3.14-3.14-8.36-1.18C175,432.24,160.14,408.12,183,407.07Z"/><path class="cls-2" d="M189.82,420.54s3.33,3.39,2.41,6.21-5.3-.79-5.3-.79-2.47-1.7-1-4,3.92,1.18,3.92,1.18,1.5,2.1-.46,2.1a2.39,2.39,0,0,1-2.35-1.83"/><path class="cls-11" d="M261.9,624.32s-1.56,12.81,5.43,18.56,22.41,6.8,24.5,12.81H251.32s-2.16-15.69,3.39-31.37Z"/><path class="cls-11" d="M196.22,615.49s-6.07,10.79-5.88,18.1.39,16.41,4.84,17.65,5.49,4.25,5.49,4.25H186.49s-3.66.39-6.67-4.64c-2.56-4.25-9.21-12.16-11.31-14.58a1.11,1.11,0,0,1,0-1.5c2.81-3.26,14-16.27,15.75-19.21a45.05,45.05,0,0,0,3.4-7.38Z"/><path class="cls-14" d="M316.28,655.49h40.51V649h-34a6.44,6.44,0,0,0-6.47,6.47Z"/><path class="cls-11" d="M179.42,532s33.72,13,40.52,17.84S241.7,563.8,242.22,566s-1.82,11.11-1.82,11.11-12.56,26-45.3,59.54c-.12.13-18.37-16.93-18.29-17,12.35-16.92,29.8-42,29.8-42s-10.78-2.35-55-20.72c-4.45-1.83-16.8-6.08-18.44-12-2.93-10.72-.39-24.38,11.5-30.33S179.42,532,179.42,532Z"/><path class="cls-11" d="M220.79,566.41s-45.42.33-63.39-1.37c-2.48-.27-5-.52-7.52-1a20.58,20.58,0,0,1-3.86-.91,19.06,19.06,0,0,1-6.22-3.79,25.6,25.6,0,0,1-4.24-6c-2.81-5.16-3.47-11.11-3.27-16.86.79-27.31,22.87-12.87,34.32-11.83,4,.4,5,2.75,8.89,3.47,12,2.1,26.73,3.66,38.37,7.58,7.77,2.62,7,2.16,14.63,5A31,31,0,0,1,238,546c13.27,10.91,25.69,61.89,30.52,88.49-7.25,1.18-23.26,3.53-23.26,3.53Z"/><rect class="cls-16" x="238.92" y="511.65" width="63.53" height="5.82" transform="translate(-3.87 2.06) rotate(-0.43)"/><path class="cls-17" d="M169.69,443.74s11.89-8,20.58,5.09,25.88,41.37,25.88,41.37,20.39-19.41,28.69-37.45l9.87,4.38s-17.84,58.1-34.9,57.31-30.91-29.93-30.91-29.93-7,15.16-9.74,22.74-3.39,20.91-3.39,20.91H133.22C133.15,528.11,131.78,469.75,169.69,443.74Z"/><path class="cls-5" d="M245.89,453.21s2.68-15,6.61-16.66,8.56-.52,8.56-.52,8.23-3.73,11.7-2.16-5.95.39-11.76,10.85-7.32,11.89-7.32,11.89Z"/><path class="cls-2" d="M188.9,484.52s-7.58-15.16-11.7-16.28"/><line class="cls-1" x1="645.4" y1="580.07" x2="645.4" y2="655.88"/><line class="cls-1" x1="577.43" y1="580.07" x2="577.43" y2="655.88"/><line class="cls-1" x1="572.86" y1="580.07" x2="555.87" y2="655.56"/><line class="cls-1" x1="641.49" y1="580.07" x2="624.49" y2="655.56"/><rect class="cls-5" x="567.24" y="580.07" width="78.1" height="6.4"/><rect class="cls-5" x="558.09" y="614.64" width="78.1" height="6.4"/><rect class="cls-5" x="549.01" y="649.15" width="78.1" height="6.4"/><path class="cls-10" d="M575.28,541.9l11.44,3.86,1.83,33.85-31.83.13s-.13-5.49,13.4-9.15S575.28,541.9,575.28,541.9Z"/><path class="cls-10" d="M619.2,545.3l11.12,2.41s1.56,15.43,3.2,32.16H604s-.85-5.16,11.24-10.06S619.2,545.3,619.2,545.3Z"/><path class="cls-4" d="M581.75,342.76s-.26,17.52,1.37,41.24c1.38,19.93,6,43.4,8.82,62,0,.2.07.33.07.53,5.16,33,25.35,110,25.35,110l17.46-.65s-3.6-89.34-6.67-154c-1.44-29.67-6.53-53.46-11.89-61.76Z"/><path class="cls-18" d="M606.72,337.87l-34.05,2.41s-12.16,72.35-11.5,104.57c.72,33.47,8.63,109.93,8.63,109.93l25.23-.52Z"/><polygon class="cls-10" points="571.49 334.53 616.78 334.99 616.91 341.72 572.54 340.74 571.49 334.53"/><path class="cls-10" d="M553.84,271.59a8.92,8.92,0,0,1-4-1.56c-3.92-2.68-14.11-10.72-35.75-32.88,0,0-4.57-4.64-3.66-18.23s-3.39-4.51-3.39-4.51-5.49,13.13,0,23.72,39.28,51.24,55.81,51.69,6.53-15.94,6.53-15.94Z"/><path class="cls-10" d="M636.58,318.65c-.32,1.7-2.47,3.33-3.92,4.11a5.89,5.89,0,0,1-3.07.65l-.79-.06h0l-13.59-1.11s-6.34-33.72,14-44C629.72,278.32,639.66,303.1,636.58,318.65Z"/><path class="cls-19" d="M561.16,334.67s3.14-7.65,5-12.42c2.81-7.44,4.84-20,4.84-20s-5.82-3.79-7.26-4.84c-2.22-1.64-8.1-5.56-8.1-5.56l6-20.52c3,.07,6.07.13,9.08.13,4.58.07,9-1.37,13.27-2.48,2.41-.65,6-2.09,8.49-1.76l15.69,1.83s11.7,3.78,18.5,7.52c.85.45,3.72,0,4.45.65-2.1,10.32-7.52,29.53-10.27,39.08a37.47,37.47,0,0,0-1.43,11.76l.39,8.5C619.79,336.42,574.89,335.12,561.16,334.67Z"/><path class="cls-10" d="M593.77,269.24c-3.14,1.5-4.84,2.55-4.84,2.55l10.13,12.68c3.47-2.41,24.63-10.45,24.63-10.45-1.82-1-5.61-2.94-7.9-4.12a4.33,4.33,0,0,1-2.29-3L612.07,260s7.71-10.58,3.26-17.77-14.7-6.34-14.7-6.34a10.11,10.11,0,0,0-10.06,5.82,14.92,14.92,0,0,0-.59,1.89c-1.5,4.9-5,4.25-5,4.25a6.11,6.11,0,0,1,2,4.05c.19,2-.59,6.27.58,8.69a3.2,3.2,0,0,0,2.88,1.7c1.18,0,3.33,0,4.9-.13,2.35-.19,3.07,3,2.48,4.32S593.77,269.24,593.77,269.24Z"/><path class="cls-19" d="M597.3,229.44s-8.36,2.09-5.88,7.71,15.49,13.53,2.42,22.48-3.6,18.17-3.6,18.17,12.74,13.66,7.9,20.72-.72,11.44,4.58,15.76c13.72,11.17,22.74,5.75,27.38,2.68,19.87-13,7.84-26.34,7.84-26.34s3.85-12.49-12-20.79c-7.45-3.92.33-16.21.33-16.21s5.69-16.46-5.1-20.45S612.66,221.2,597.3,229.44Z"/><path class="cls-20" d="M599.33,246.56s-4.24-2.16-6.27,2A4.65,4.65,0,0,0,593,253c1.25,2.41,4.45,3.2,6.34,1.24l.07-.06a3.16,3.16,0,0,0-.33-4.91,2.8,2.8,0,0,0-3.79.4A2.17,2.17,0,0,0,596,253a1.65,1.65,0,0,0,2.42-1.57"/><line class="cls-1" x1="164.65" y1="579.61" x2="164.65" y2="613.86"/></svg>