<svg id="图层_1" data-name="图层 1" xmlns="http://www.w3.org/2000/svg" xmlns:xlink="http://www.w3.org/1999/xlink" viewBox="0 0 800 800"><defs><style>.cls-1,.cls-14,.cls-16,.cls-9{fill:none;}.cls-2{fill:#ff8885;}.cls-10,.cls-11,.cls-12,.cls-15,.cls-16,.cls-17,.cls-18,.cls-2,.cls-3,.cls-4,.cls-5,.cls-6,.cls-7,.cls-8,.cls-9{stroke:#000;}.cls-16,.cls-18,.cls-2,.cls-3,.cls-6,.cls-8{stroke-miterlimit:9.15;}.cls-10,.cls-12,.cls-14,.cls-15,.cls-16,.cls-18,.cls-2,.cls-3,.cls-4,.cls-5,.cls-6,.cls-7,.cls-8,.cls-9{stroke-width:0.91px;}.cls-10,.cls-17,.cls-3{fill:#fff;}.cls-4{fill:#dee0e5;}.cls-10,.cls-12,.cls-14,.cls-15,.cls-17,.cls-4,.cls-5,.cls-7,.cls-9{stroke-linecap:round;stroke-linejoin:round;}.cls-6{fill:#ffcd6e;}.cls-7{fill:#3165eb;}.cls-11,.cls-8{fill:#ffd26e;}.cls-11{stroke-miterlimit:9.15;stroke-width:0.91px;}.cls-12{fill:#002fa4;}.cls-13{clip-path:url(#clip-path);}.cls-14{stroke:#fff;}.cls-15{fill:#3165f0;}.cls-17{stroke-width:0.91px;}.cls-18{fill:#ffcb6e;}</style><clipPath id="clip-path"><rect class="cls-1" x="320.5" y="206.54" width="374.1" height="249.2"/></clipPath></defs><circle class="cls-2" cx="596.43" cy="206.81" r="14.77"/><rect class="cls-3" x="184.88" y="131.78" width="311.74" height="224.36"/><rect class="cls-4" x="184.88" y="115.44" width="311.74" height="32.68"/><circle class="cls-5" cx="199.46" cy="131.78" r="4.12"/><circle class="cls-6" cx="217.37" cy="131.78" r="4.12"/><circle class="cls-7" cx="235.74" cy="131.78" r="4.12"/><rect class="cls-3" x="199.4" y="158.9" width="127.44" height="105.68"/><rect class="cls-3" x="352.98" y="158.9" width="132.93" height="106.01"/><path class="cls-8" d="M440.81,212.63a21.75,21.75,0,0,1-.58,5,22.41,22.41,0,0,1-1.7,4.57,21.38,21.38,0,0,1-2.68,4.05c-.4.46-.85,1-1.31,1.44-.65.65-1.31,1.25-1.89,1.83-.86.79-1.71,1.56-2.48,2.35s-1.57,1.44-2.35,2.22c-.4.4-.79.73-1.18,1.11h0v9.48a7,7,0,0,1-7,7h-.07a7,7,0,0,1-7-7v-9.48l-.58-.58c-.46-.46-1-.92-1.44-1.38s-1.18-1.1-1.76-1.7-1.11-1-1.64-1.56c-.33-.33-.65-.65-1.05-1s-.85-.79-1.3-1.18l-1.25-1.25a21,21,0,0,1-2.09-2.8,21.36,21.36,0,0,1-1.64-3.14,19.81,19.81,0,0,1-1-3.47,16.45,16.45,0,0,1-.46-3.66v-.91a21.24,21.24,0,1,1,42.47,0Z"/><path class="cls-9" d="M422.12,240.79V226.41a17.91,17.91,0,0,1,.33-2.61,24.76,24.76,0,0,1,1.5-5.24,7.48,7.48,0,0,1,3.47-4,3.48,3.48,0,0,1,2.55-.27c1.38.46,2.1,2.16,2.23,3.47a7.25,7.25,0,0,1-1.77,4.77c-.19.27-.39.46-.58.72l-.4.4c-.39.33-.78.65-1.24,1a12.33,12.33,0,0,1-2.1,1.1,14.7,14.7,0,0,1-2.93.85,25.3,25.3,0,0,1-4.51.27,14.71,14.71,0,0,1-3.4-.39,12.87,12.87,0,0,1-2.68-.92,18,18,0,0,1-1.89-1c-.39-.27-.72-.59-1.11-.92l-.33-.33c-.19-.26-.39-.45-.58-.72a7.07,7.07,0,0,1-1.77-4.77c.13-1.31.85-3,2.22-3.47a3.77,3.77,0,0,1,2.56.27,7.46,7.46,0,0,1,3.46,4,23.11,23.11,0,0,1,1.5,5.24,17.91,17.91,0,0,1,.33,2.61v14.38"/><rect class="cls-10" x="411.4" y="237.39" width="16.27" height="10.52"/><rect class="cls-8" x="418.07" y="172.04" width="2.74" height="15.82"/><rect class="cls-11" x="391.61" y="182.93" width="2.74" height="15.82" transform="translate(-19.84 333.78) rotate(-45)"/><rect class="cls-11" x="437.94" y="189.49" width="15.82" height="2.74" transform="translate(-4.38 371.17) rotate(-45)"/><circle class="cls-3" cx="164.3" cy="171.78" r="14.84"/><rect class="cls-3" x="510.61" y="267" width="181.56" height="189.13"/><rect class="cls-3" x="510.61" y="250.66" width="181.56" height="32.68"/><path class="cls-9" d="M483.63,264.91s-42.29-21.5-67.91,28.29c-5,9.61-13.33,28.69-25.48,31.57a7.68,7.68,0,0,1-6.41-1.11c-5-3.59-1.5-9.87-2.41-14.9-1.31-6.73-5.3-12.74-9.87-17.77-15.16-16.61-29,.52-46.6-5.23s-17.65-15.95-11.12-17.45,8.17,14.77-3.53,19.41-25.36-5.88-38.43,9c-7.9,9-19.6,20.65-32.15,23.07-12.88,2.41-17.32-11-24.58-18.5-7.77-8-19.41-19.41-29.66-8.95s-8.24,24.77-.59,36.33c18.17,27.32,79.61,24.05,58,44.31-6.34,6-12.88,14.32-11.77,23.66.92,7.59,6.47,5.88,6,14"/><path class="cls-9" d="M401.67,608.81S408.2,625.47,431,628s32.61-20.2,54.51-20.58,22.28,34.18,48.16,23.07,8.56-28.17-1.5-22.55c-8.3,4.7-2.42,29.81,21.5,8.36s5-46.93-30.13-52.73-55.94-44.9-17.91-60.45,48.95,9,92,21.76,87.57-12.29,103.26-36.27.79-43.26-28.3-56.54-29.14.65-22.22,5.62c10.73,7.71,31.64,9.21,13.41-15.82s-49,3-64-31.63c-4.63-10.72-3.72-21.7,4.12-29.74,9.21-9.48,24-9.67,33.53-18.3,3.4-3.07,6.6-6.73,8.3-11,5.94-14.64-11.64-23.79-24-28.3-19.35-6.92-40.14-9.73-60.2-12-37.84-4.24-50.84-7.52-50.84-7.52"/><circle class="cls-12" cx="485.91" cy="530.97" r="24.32"/><g class="cls-13"><path class="cls-5" d="M592.44,332.94s-48.88-3.14-69.93-15.42-56.2-59.47-56.2-59.47l-13.2,9.8s27.52,57,59.47,74.64,69.86,25.62,69.86,25.62Z"/><path class="cls-5" d="M567.08,280.14a62,62,0,0,0-6.73,7.52c-2.87,3.92-8.43,3.26-8.43,3.26l2.8,3.47a3.45,3.45,0,0,1,.59,3.27c-1.44,4-4.51,13.72-1.44,14.24,3.93.65,12.23-2.22,13.27,6.21a108.29,108.29,0,0,1,.91,14.18l19.61-4.18s-4.45-22.74-2.75-27.58,5.1-15.36-4-20.39S567.08,280.14,567.08,280.14Z"/><path class="cls-10" d="M576.89,272a10.15,10.15,0,0,1-6.92-3.14c-2.56-2.68-6.8-5.49-11.44-1.89-6.53,5-.39,16.6,7.13,19.54a6.21,6.21,0,0,1,3.66,4c.52,1.76,1.5,3.78,3.13,4.38,3.27,1.18,7.84-2.62,9.35,1.18s-8.69,7.38-3.66,12.35c4.78,4.64,15.43.58,15.36-6.08,0-.91-1.56-2.8-1.24-3.65C594.21,293,601.4,273.14,576.89,272Z"/><path class="cls-14" d="M572.7,295s-5.82.12-5.55,5.69a5.79,5.79,0,0,0,2.48,4.77c2.68,1.9,6.6.85,7.52-2.29V303a3.74,3.74,0,0,0-3.14-5c-1.37-.07-3.4.39-3.79,2.61a2.6,2.6,0,0,0,2.68,3.14,2,2,0,0,0,1.7-3.07"/><path class="cls-15" d="M595.38,332.94a18.34,18.34,0,0,0-23.92-4.24,37.05,37.05,0,0,0-9.28,8.89c-15.36,20-37.71,67.84-43.92,72s-77.57,4.9-84.31,13.2l2.35,11.44s97.58,12.28,106.14.58S564,402.09,564,402.09s12.35,50.32,11.83,57.39l64.7-2.88C640.41,456.53,628.32,374.12,595.38,332.94Z"/><line class="cls-9" x1="563.95" y1="402.03" x2="579.31" y2="379.41"/><path class="cls-5" d="M434.22,424.58s-29.54,4.84-32.88,17.12,18.5-2.55,23.2-4.9a84.5,84.5,0,0,1,11.31-4.32Z"/><path class="cls-12" d="M577.35,464.31S677.8,688.48,705.12,709.58h26.54s-83.27-215.21-91.17-253.05Z"/><path class="cls-15" d="M640.41,456.53s16.67,43.4-21.95,55.88-114.63,6.21-114.63,6.21l29.6,115h-21S446.9,521.36,466,491.3C466,491.37,485.39,454.05,640.41,456.53Z"/><path class="cls-10" d="M516,633.64s6.22,12.35,6.61,20.92-37.84,9.34-37.45,18.29h55.75s-6.93-27-11.31-39.28H516v.07Z"/><path class="cls-10" d="M710.54,709.58s9.35,13.66,7.78,17.91-30.39,5.82-30.39,15.23h50.32l-11.31-33.13h-16.4Z"/><path class="cls-5" d="M463.89,259.88s-13.73-28.37-24.18-32.22-4.12,12.87,3.39,19.8,12.95,18.23,12.95,18.23Z"/></g><polygon class="cls-10" points="446.3 448.55 375.4 440.98 346.71 452.74 421.08 460.65 446.3 448.55"/><line class="cls-9" x1="384.29" y1="444.64" x2="436.9" y2="450.25"/><line class="cls-9" x1="380.16" y1="446.92" x2="431.08" y2="452.41"/><line class="cls-9" x1="371.67" y1="450.71" x2="421.15" y2="456.01"/><line class="cls-16" x1="436.96" y1="450.25" x2="421.15" y2="456.01"/><line class="cls-9" x1="428.73" y1="449.34" x2="412.98" y2="455.16"/><rect class="cls-17" x="381.76" y="420.6" width="3.66" height="75.43" transform="translate(-112.84 791.11) rotate(-83.91)"/><polygon class="cls-10" points="339.19 400.26 413.56 408.23 420.82 460.65 346.05 452.61 339.19 400.26"/><polygon class="cls-5" points="421.08 460.65 446.3 448.55 446.05 451.23 420.69 464.24 421.08 460.65"/><path class="cls-12" d="M146.07,513.32s5.23,19.41,40.51,31.57,61.18,19.21,66.79,32.22,20.39,61,20.39,61L309,632.4s-18-78.76-43.65-92.48-71.44-50.65-71.44-50.65Z"/><path class="cls-15" d="M141.89,498.49s63.26-25.55,138.81,7.91,93.65,75.09,93.65,75.09L346,598.29S300.5,550.58,285.6,544s-68.62,6-106.86-6.67S141.89,498.49,141.89,498.49Z"/><path class="cls-10" d="M372,582.93s12.1,16.53,25.36,23.2,30.79-12.81,43.92-6.28l-45,35s-30.52-37.7-38.23-43.65Z"/><path class="cls-10" d="M304.29,633.25s3.79,28.23,10.85,32.94,31.18,4.18,34.83,14l-54.24,4.32s-2.29-41.63-7.26-48.82Z"/><path class="cls-18" d="M119.53,385.62a4.91,4.91,0,0,1-2.55,3.66c-3.08,1.7-7.65,5.36-3.53,10.59,4.9,6.14,8.1,12.87,12.22,10.78,1.37-.72,1.1-.33,2.81.92s2.74-1.7,4.24-2.16c2.87-.92,2.68,5.36,7.52,6.27s7.45-9.87,11.24-5.88,8.76,6,14.25.92,7.31-13.33,14.44-13.47,12.35,6,18.69,1.77,2.42-11,5.62-15.16,13.46-7.91,10.12-16.67-13.59-1.44-20.39-4.64-12.87-2.28-17.38,1.9-4.64,14.83-10.06,16.6-21-5.23-28.5-6.8C132.8,372.87,121.17,376,119.53,385.62Z"/><path class="cls-3" d="M137.31,377.32a13.86,13.86,0,0,1,6.8,6c1.24,2.28,5,3.92,7.78,2.55l-2.23,2.68a4.18,4.18,0,0,0-.52,4.64c1.77,3.47,4.51,9.41,2.55,10.45-2.81,1.5-8.75,2.23-8.1,5.37s4.57,13.46,14.57,9.08c0,0-9.74,18.17-12.74,20s-20.72-5.76-20.72-5.76,10.12-5.23,8.56-9.6-10.2-21.31-10.2-21.31-10.33-20.72,3.33-23.86S137.31,377.32,137.31,377.32Z"/><path class="cls-18" d="M145.41,364.9a8.76,8.76,0,0,1,.85,6.15c-.79,3.2-3.33,5.88-6.08,7.78a5.06,5.06,0,0,0-2.09,4.57c.19,1.89.06,4.12-1.24,5.36a4.11,4.11,0,0,1-3.08.79c-2.48-.13-5.42-.92-6.73,2.16a3,3,0,0,0,.79,3.86c1.56,1.5,4.31,2.68,5.29,5.36,1.31,3.72.4,8.23-4.57,11.37-.33.19,1.18,2.95,1.18,2.95s-2.87-.92-4-1.25c-.26-.06-.52-.26-.79-.33-19.21-6.4-22.67-23.46-17.64-33.65a54.89,54.89,0,0,1,3.72-6.41c4-5.88,10.72-8.1,17.38-7.32a7.61,7.61,0,0,0,4.91-1.18,20.52,20.52,0,0,1,5-2.47,8.44,8.44,0,0,1,3.33-.4A4.45,4.45,0,0,1,145.41,364.9Z"/><path class="cls-9" d="M135.67,389.41s6.08-.65,6.61,5.16a6.06,6.06,0,0,1-1.89,5.36c-2.56,2.35-6.74,1.83-8.17-1.31,0-.06,0-.06-.07-.12a3.93,3.93,0,0,1,2.62-5.69,3.52,3.52,0,0,1,4.32,2.22,2.74,2.74,0,0,1-2.35,3.66,2.1,2.1,0,0,1-2.23-2.94"/><path class="cls-3" d="M216.65,425.62s5.69-14.18,14.38-19.48,14.25,3,5,10.72-10.78,13.47-10.78,13.47Z"/><path class="cls-10" d="M124.7,432.35s-11.83,8.36-14.7,11.31-7.32,6.6-9.61,13.72c-2.35,7.32-7.52,60.45-7.52,60.45s-.52,7.25,4.64,7.52,24-9.93,34.51-18.3l-2.75-9.34-18.1,6.4,9.54-29,23.86,34.05s18.69-9.08,47.25-20.06c0,0-14.91-16.8-15.76-37.58a96.56,96.56,0,0,0,27.52,14,5.9,5.9,0,0,0,7.13-3.14l15.29-32-9.73-5-14.05,22.42s-16.34-19-23.4-23.86S161,417.11,158.16,418l-12.81,17.64Z"/><path class="cls-3" d="M129.4,498.42s13.26-7.59,23.4-6.28,9.29,11.25-2.81,11.44-18.1,3-18.1,3Z"/></svg>