<svg id="图层_1" data-name="图层 1" xmlns="http://www.w3.org/2000/svg" viewBox="0 0 800 800"><defs><style>.cls-1{fill:#002f9c;}.cls-1,.cls-10,.cls-2,.cls-3,.cls-4,.cls-5,.cls-6,.cls-8{stroke:#000;}.cls-1,.cls-10,.cls-3,.cls-5,.cls-6,.cls-7,.cls-8{stroke-linecap:round;stroke-linejoin:round;}.cls-1,.cls-10,.cls-2,.cls-3,.cls-4,.cls-5,.cls-6,.cls-7,.cls-8,.cls-9{stroke-width:0.91px;}.cls-2{fill:#00bb85;}.cls-2,.cls-4,.cls-9{stroke-miterlimit:9.15;}.cls-3{fill:#fff;}.cls-4{fill:#ffca6e;}.cls-5{fill:#dbdde2;}.cls-10,.cls-7,.cls-9{fill:none;}.cls-7,.cls-9{stroke:#fff;}.cls-8{fill:#3165e8;}</style></defs><circle class="cls-1" cx="182.39" cy="237.9" r="68.14"/><rect class="cls-1" x="490.85" y="593.13" width="194.9" height="7.91"/><rect class="cls-1" x="546.73" y="622.33" width="139.02" height="7.91"/><circle class="cls-2" cx="182.39" cy="531.85" r="13.31"/><rect class="cls-3" x="182.39" y="237.72" width="431.98" height="294.13"/><rect class="cls-3" x="182.39" y="229.55" width="431.98" height="32.32"/><polygon class="cls-4" points="206.53 482.91 206.53 428.66 232.07 428.66 238.06 434.64 280.35 434.64 280.35 482.91 206.53 482.91"/><polygon class="cls-4" points="525.03 372.41 525.03 318.17 550.58 318.17 556.56 324.15 598.85 324.15 598.85 372.41 525.03 372.41"/><rect class="cls-5" x="216.26" y="360.62" width="64.09" height="45.23"/><rect class="cls-3" x="216.26" y="269.75" width="64.09" height="14.52"/><rect class="cls-5" x="559.7" y="437.68" width="54.67" height="45.23"/><rect class="cls-3" x="413.64" y="269.75" width="68.71" height="13.2"/><rect class="cls-3" x="585.46" y="269.75" width="28.53" height="19.89"/><polygon class="cls-3" points="285.98 322.69 297.83 334.55 297.83 390.23 245.3 390.23 245.3 322.69 285.98 322.69"/><polygon class="cls-6" points="285.98 322.69 285.98 334.55 297.83 334.55 285.98 322.69"/><polygon class="cls-3" points="559.7 402.21 571.56 414.07 571.56 469.75 519.03 469.75 519.03 402.21 559.7 402.21"/><polygon class="cls-6" points="559.7 402.21 559.7 414.07 571.56 414.07 559.7 402.21"/><path class="cls-5" d="M362.89,324.31s-2.48,5.29-2.25,10.35-6.91,11.15-8.72,23.32,7.32,12.17,11,19.26-3.25,17.85,5.88,19.88,12.23-6.05,17.45-5.48,22.1,5.07,33.66,4.67,17.45-6.7,26-6.29S441,346.83,441,346.83l-42.59-34.28Z"/><path class="cls-3" d="M468.35,398.14c23.53,5.27,4.66,76.66,4.66,76.66l-15.41-9.13c-8.11,28.19,4,99.37,4,99.37H349.91c12.17-48.06,4.46-75.84.61-84.57s-5.88-23.32-5.88-23.32-1.83,42.38-17.65,42.38-2.23-80.71,3.05-94.7c1.26-3.35,5.34-5.32,9.94-6.21,0,0,6.87,27.7,60.43,27.7s67.94-28.18,67.94-28.18"/><path class="cls-6" d="M468.35,398.14c-23.53-5.27-40.16,9.13-47.05,3.85s-8.52-16.63-7.3-43-3.31-37.72-14.12-41-27.3,3.73-29.28,15.41c0,0-1.83,7.1-1.83,10.14s-1.83,7.7-7.7,10.35l4.41,1.07a4.16,4.16,0,0,1,3.17,3.87c.25,5.78,1.27,17.66,5.4,18.58,5.48,1.21,15.62-5.48,16.43,0s3.25,23.93-4.26,24.74c-5.63.61-31.45-6.08-46.24-3.57,0,0,7.09,27.7,60.43,27.7S468.35,398.14,468.35,398.14Z"/><path class="cls-3" d="M375.54,310.47a10.85,10.85,0,0,1-8,2.81c-5.82-.4-15.07.71-15.63,11.65-.6,11.85,12.46,10.38,19.29,8.82a4.43,4.43,0,0,1,5.08,2.65c1,2.41,3,5.14,6.66,5.36,6.7.4,10.69-7.5,16.91-4.46s-3.11,14.8-1.29,21.9,10.54,4.26,18.86,8.31S426.31,389,440,393.06s35.09-3.85,47.46,0,14.6-9.33,20.28-9.93,21.9,9.53,29.41,5.68.62-11.14,6.09-17,16-21.09-7.3-29.21-62.67,6.7-78.69,2.44C442,341,428.4,313.27,412.81,311.76a10.34,10.34,0,0,1-4.62-1.53C402.74,306.72,388.08,299.24,375.54,310.47Z"/><path class="cls-7" d="M387.57,339.66s-7.75,4.76-3.09,12.09a9.16,9.16,0,0,0,7.1,4.58c5.17.47,9.61-4,8.39-9a1,1,0,0,0-.05-.16c-1.44-5.47-6.34-5.28-8.25-4.35s-4.32,3.23-3.1,6.54a4.13,4.13,0,0,0,6.12,2.18,3.12,3.12,0,0,0-.12-5.49"/><rect class="cls-8" x="182.39" y="499.54" width="431.98" height="32.32"/><path class="cls-6" d="M297.79,363.26s-1-6.29-2.44-9.53-12.9-11.21-8.79-14.22a1.2,1.2,0,0,1,1.29-.06c4.83,2.62,36.73,22.2,46.84,85.87,10.95,68.95,3.45,74.22-7.7,74.22s-17.57-15.61-13.35-52.32c3.63-31.58-2.32-52.5-6.89-60.57a12.66,12.66,0,0,0-3.64-4l-5.28-3.77Z"/><path class="cls-6" d="M492.13,352.81a86.52,86.52,0,0,1-18.33,10.62c-4.41,1.92-12,7.32-14.38,22.1-3.45,21.3-11.35,72.2-13.38,83s-6.67,31,10.86,31,21.79-46.68,20.16-78.92-3.05-42.38,7.3-48.67,24.13-19.27,21.7-25.35C504.62,343,499.06,347.5,492.13,352.81Z"/><path class="cls-3" d="M344.63,457.15s-1.42-9.13-1.62-13"/><line class="cls-9" x1="456.96" y1="395.17" x2="453.94" y2="414.15"/><circle class="cls-3" cx="201.86" cy="253.59" r="4.87"/><circle class="cls-4" cx="221.9" cy="253.47" r="4.87"/><circle class="cls-8" cx="241.94" cy="253.47" r="4.87"/><line class="cls-10" x1="115.06" y1="565.04" x2="685.75" y2="565.04"/><path class="cls-10" d="M458.68,229.55s-20.76-41.51,35.82-50,49.28,31.15,87.61,29,43.36-12.83,43.6-18c.17-3.58-4.05-8.32-8.31-5.48s-3.85,15,5.48,18.25,33.06,8.11,44,37.93-16.23,93.09-9.74,110.72,26,30.22,28,53.75S676,458,659.59,460.31s-20.79-6-18.87-14.1c2.44-10.23,13.59-14.6,19.88-8.52s9.53,16.23,4.27,28.6-35.5,20.08-36.72,33.26,16.43,18.05,11.16,30.22-26.77,8.11-32,18.05,3.65,17.23,3.65,17.23"/></svg>