<svg id="图层_1" data-name="图层 1" xmlns="http://www.w3.org/2000/svg" viewBox="0 0 800 800"><defs><style>.cls-1{fill:none;}.cls-1,.cls-2,.cls-3,.cls-4,.cls-5,.cls-6,.cls-7,.cls-8,.cls-9{stroke:#000;}.cls-1,.cls-2,.cls-3,.cls-4,.cls-5,.cls-6,.cls-7,.cls-8{stroke-linecap:round;stroke-linejoin:round;}.cls-1,.cls-4,.cls-6,.cls-7,.cls-8,.cls-9{stroke-width:0.91px;}.cls-2,.cls-6{fill:#fff;}.cls-2,.cls-3,.cls-5{stroke-width:0.91px;}.cls-3,.cls-8{fill:#ffce6e;}.cls-7{fill:#3165ec;}.cls-9{fill:#ff8885;stroke-miterlimit:9.15;}</style></defs><line class="cls-1" x1="87.88" y1="616.9" x2="712.12" y2="616.9"/><rect class="cls-2" x="494.73" y="331.79" width="150.28" height="228.16" transform="translate(-150.53 378.25) rotate(-32.68)"/><rect class="cls-2" x="548.62" y="515.6" width="150.28" height="28.55" transform="translate(-187.36 420.64) rotate(-32.68)"/><rect class="cls-3" x="497.69" y="365.67" width="115.6" height="115.6" transform="translate(-140.71 366.94) rotate(-32.68)"/><circle class="cls-4" cx="623.84" cy="530.07" r="8.69"/><rect class="cls-5" x="514.48" y="530.29" width="80.74" height="4.87" transform="translate(-199.8 383.89) rotate(-32.68)"/><rect class="cls-5" x="510.35" y="501.21" width="120.31" height="4.87" transform="translate(-181.62 387.74) rotate(-32.68)"/><rect class="cls-6" x="158.26" y="216.03" width="148.05" height="148.05"/><line class="cls-1" x1="158.26" y1="245.35" x2="306.31" y2="245.35"/><line class="cls-1" x1="158.26" y1="274.81" x2="306.31" y2="274.81"/><line class="cls-1" x1="158.26" y1="304.25" x2="306.31" y2="304.25"/><line class="cls-1" x1="158.26" y1="333.71" x2="306.31" y2="333.71"/><line class="cls-1" x1="276.69" y1="216.03" x2="276.69" y2="364.07"/><line class="cls-1" x1="247.06" y1="216.03" x2="247.06" y2="364.07"/><line class="cls-1" x1="217.43" y1="216.03" x2="217.43" y2="364.07"/><line class="cls-1" x1="187.81" y1="216.03" x2="187.81" y2="364.07"/><polygon class="cls-4" points="501.45 440.26 429.2 440.26 446.39 400.73 518.64 400.73 501.45 440.26"/><polygon class="cls-4" points="409.73 443.62 499.83 443.62 501.45 440.26 409.73 440.26 409.73 443.62"/><path class="cls-6" d="M363,588.53s-4.11,11.15,2.89,15.71,28,7.61,29.36,18h-55a1.68,1.68,0,0,1-1.68-1.76c.24-4.9,2.74-19.1,7.68-31.9Z"/><path class="cls-6" d="M448.65,536.36s2.15,9.33,10.52,12.67c8,3.2,7.93-8.48,16.54-10.58a.63.63,0,0,1,.71.89l-9.55,19.77a4.77,4.77,0,0,1-2.72,2.42l-22.25,7.64a1.45,1.45,0,0,1-1.89-1.1c-1-5.76-4.64-25-7.47-29.92"/><path class="cls-6" d="M282.8,448.05s60.8-33.47,98.35-38.65c40.76-5.63,82.14,125.34,82.14,125.34l-39.71,4.41-36.95-84.42Z"/><line class="cls-1" x1="390.16" y1="463.46" x2="379.61" y2="439.73"/><path class="cls-6" d="M344,298.32s.51,5.68,1.12,11.46,4.56,6.49,4.56,6.49-1.75.79-3.44,1.36a2.7,2.7,0,0,0-1.82,2.25c-.54,4.32-2.19,15.05-5.59,16.26-4.26,1.52-10.74-4.36-14.29-3.55s-7.4,8.42-7.4,8.42l-14.91-12.78,3.09-5a9.85,9.85,0,0,0,1.4-4.25c.5-6.11,3.14-23.19,17.12-24.1C340.89,293.75,344,298.32,344,298.32Z"/><path class="cls-4" d="M338.93,285.41a5.55,5.55,0,0,0,4.44,1.22c3.85-.58,10.84-.6,11.49,6.71.77,8.5-7.16,9.81-12.73,8.63a5.3,5.3,0,0,0-4.67,1.24,10.11,10.11,0,0,1-6.94,2.6c-6.18,0-8.52-8.42-13.38-4.87-5.45,4,1.72,11.05,2.23,14.7s-10,7.12-13.14,5.59-10.38-33.6,3.76-37a7.88,7.88,0,0,0,3.26-1.62C316.63,279.81,325.87,274.34,338.93,285.41Z"/><path class="cls-1" d="M328.26,305.56s5.12,4.14,1.11,9a6.66,6.66,0,0,1-5.53,2.64c-3.75-.15-6.54-3.74-5.19-7.25,0,0,0-.07,0-.11a4.28,4.28,0,0,1,6.33-2.36c1.28.86,2.8,2.72,1.62,5a3,3,0,0,1-4.6,1,2.27,2.27,0,0,1,.59-3.94"/><path class="cls-4" d="M334.18,411.05s-17.64-28.37-14.59-69.23l-21.8-3.55,5.33,89.53Z"/><path class="cls-7" d="M300.53,325s16,11.87,19.06,16.84l-2.13,13.79L297.18,331Z"/><path class="cls-7" d="M317.46,355.61l-3.95,48.88s4.26,13.28,5.48,14.3L348.09,404l10.24,19.57-34,19.78s-33.76.2-92.07,17.34c0,0-13.74-86,64.9-129.69Z"/><line class="cls-1" x1="318.98" y1="418.79" x2="308.38" y2="424.56"/><path class="cls-1" d="M289.16,354.49c11.37-.4,15.62,9.13,16.94,18.73,1.17,8.51,7.4,31.27,7.4,31.27"/><path class="cls-1" d="M273.45,388.16s6.69,44.49,23.73,57.84"/><path class="cls-6" d="M348.65,405.06s35.12-17.26,56.21-13.33a11.62,11.62,0,0,1,7.35,4.68l17,23.79s-2.93,5.11-14.09-7.5a2.91,2.91,0,0,0-2.9-.87c-3.65,1-12.38,1.86-17.19-9.57,0,0-20.69,4.41-38.78,17.31Z"/><path class="cls-6" d="M377.9,588.53H338.75c17.9-70.22,20.49-103.84,20.49-103.84-35.09,0-47.87,12-84.58,12s-42.38-36-42.38-36,108-33.48,153.88-14.67C419.32,459.6,377.9,588.53,377.9,588.53Z"/><rect class="cls-8" x="241.51" y="496.57" width="76.8" height="86.07"/><rect class="cls-6" x="241.51" y="496.57" width="76.8" height="28.98"/><polyline class="cls-6" points="318.31 525.55 241.51 582.64 241.51 525.55 318.31 525.55"/><polyline class="cls-8" points="164.71 582.64 241.51 525.55 241.51 582.64 164.71 582.64"/><circle class="cls-9" cx="147.2" cy="433.89" r="40.46"/><circle class="cls-8" cx="628.19" cy="247.87" r="21.91"/><polygon class="cls-1" points="455.59 582.64 490.04 511.06 535.99 582.64 455.59 582.64"/><polygon class="cls-7" points="513.01 546.86 490.04 511.06 455.59 582.64 513.01 546.86"/><path class="cls-1" d="M231.36,215.23s34.78-58,107.26-29.6,116,80.38,180,73.85,5-69.46-17.19-43.47,41.48,111.83,41.48,111.83"/></svg>