<svg id="图层_1" data-name="图层 1" xmlns="http://www.w3.org/2000/svg" xmlns:xlink="http://www.w3.org/1999/xlink" viewBox="0 0 800 800"><defs><style>.cls-1,.cls-2,.cls-3{fill:none;}.cls-10,.cls-11,.cls-13,.cls-14,.cls-2,.cls-3,.cls-4,.cls-5,.cls-6,.cls-7,.cls-8,.cls-9{stroke:#000;stroke-width:0.91px;}.cls-10,.cls-11,.cls-13,.cls-14,.cls-2,.cls-6,.cls-7,.cls-8{stroke-linecap:round;stroke-linejoin:round;}.cls-3,.cls-4,.cls-5,.cls-9{stroke-miterlimit:9.15;}.cls-4{fill:#ffd26e;}.cls-5{fill:#ff8885;}.cls-6{fill:#fff;}.cls-7{fill:#dee0e5;}.cls-9{fill:#ffcd6e;}.cls-10{fill:#3165eb;}.cls-11{fill:#e3e5ea;}.cls-12{clip-path:url(#clip-path);}.cls-13{fill:#3165f0;}.cls-14{fill:#002fa4;}</style><clipPath id="clip-path"><rect class="cls-1" x="138.75" y="138.28" width="341.47" height="254.38"/></clipPath></defs><path class="cls-2" d="M416.64,290.65s-10.3-26.19,6.31-51.95c8.79-13.64,18.3-27.45,30.42-37.58,7.76-6.48,20.92-13.82,29.76-.06a42.46,42.46,0,0,1,5.27,13.27c3.09,12.61-2,23.94,1.82,36.85a32.61,32.61,0,0,0,20.85,22.07c31.28,10.85,21.21-30.18,46.49-27.89s16.73,17,7.09,20.18c-6.18,2-16.6-6.9,3.64-20.3s40.06-12.19,52.49,14.84,13.94,54.25,26.55,94.67c23.57,75.4-79.28,46.37-81.15,84.86"/><path class="cls-3" d="M517.44,538.11s-90,149.22-115.52,119.76S376.59,614.59,388,611.93s19.65,22.61-13.15,22.37-35.94-36.55-52.06-48.43-91,19-84-14.91c10-48.49,43.7-115.16,11.64-129s-108.25,3.21-108.67-20.13C141.36,401.73,203,366.4,203,366.4"/><circle class="cls-4" cx="637.38" cy="329.2" r="23.88"/><circle class="cls-5" cx="297.67" cy="461.62" r="11.88"/><rect class="cls-6" x="161.6" y="183.49" width="221.71" height="209.46"/><rect class="cls-7" x="161.6" y="183.07" width="221.71" height="35.7"/><circle class="cls-8" cx="177.6" cy="200.89" r="4.48"/><circle class="cls-9" cx="197.18" cy="200.89" r="4.48"/><circle class="cls-10" cx="217.24" cy="200.89" r="4.48"/><polygon class="cls-6" points="455.25 289.91 455.25 385.99 447.56 392.23 438.46 399.68 375.67 399.68 375.67 289.91 455.25 289.91"/><path class="cls-4" d="M424.52,293.31H408.89v-.85a4.54,4.54,0,0,1,4.54-4.55h6.79a4.35,4.35,0,0,1,4.37,4.36v1Z"/><polygon class="cls-4" points="412.7 287.97 412.1 285.07 421.13 285.07 420.64 287.97 412.7 287.97"/><polygon class="cls-6" points="455.43 386.17 441.19 381.44 438.65 399.8 455.43 386.17"/><circle class="cls-11" cx="512.77" cy="501.99" r="112.98"/><polygon class="cls-4" points="437.73 512.89 458.04 491.08 491.86 518.17 569.2 443.01 587.74 464.83 490.34 560.96 437.73 512.89"/><g class="cls-12"><path class="cls-6" d="M269.6,249.55s.91-19.27,5.94-24.18c3.64-3.52,8.84,2.3,16.55.6s5.7-14.91,6.6-20.13a11.73,11.73,0,0,1,4.61-7.63s-6.9.78-9.15-9.1a36.74,36.74,0,0,0-.9-3.88,19.92,19.92,0,0,0-19-13s-33-.48-22.73,43.28l-1.87,13.58,9.69,27,9.95,4.24Z"/><path class="cls-8" d="M283,164.16s12.54-8.18,20.13,2.67-11.76,14.54-11.76,14.54a21.77,21.77,0,0,1-11.51,11c-8.67,3.64-10.74-6.07-18.79-1.76s3.51,15.76,3.51,15.76a32,32,0,0,0-13,9.09s-26.85-27.39-1.71-42.42C249.9,173.07,262.69,152.15,283,164.16Z"/><path class="cls-2" d="M275.91,193.3s7,5.22,1.88,11.76a8.9,8.9,0,0,1-7.16,3.76c-5,0-8.79-4.67-7.15-9.33,0-.07.06-.12.06-.19,1.88-5.09,6.49-4.48,8.25-3.39s3.81,3.46,2.36,6.49a3.92,3.92,0,0,1-6,1.51,3,3,0,0,1,.6-5.21"/><path class="cls-6" d="M368,597.57s-14,13.82,0,22.48,49.75,12.13,51.64,30.67h-86.8s-6.78-17,11.46-63.4Z"/><path class="cls-6" d="M331.61,597.57s-14,13.82,0,22.48,49.75,12.13,51.64,30.67h-86.8s-6.79-17,11.45-63.4Z"/><path class="cls-6" d="M411.06,268a3.65,3.65,0,0,1,1.94,2.19c.49,1.75-1.52,3.27-3.39,4.43-4.91,3-10.67,6.48-17.34,7.33-5.69.67-11.88-.79-17.45-1.52a2,2,0,0,0-1.82.67L362.45,295.2a1.93,1.93,0,0,1-2.12.61l-10.18-2.73a1.37,1.37,0,0,1-.85-2.31c3.27-3.33,6.48-6.67,9.76-10.06,3.64-3.76,8.36-11.21,14.54-12.6C384,265.62,401.37,262.46,411.06,268Z"/><polygon class="cls-8" points="355.79 278.95 361.91 273.73 375.91 287.44 370.7 291.62 355.79 278.95"/><path class="cls-13" d="M381.24,300.89l-24.67-24.24c-8.24,3.81-38.79,35.94-51.88,51h0s-7-61.22-20.66-69.1l-17.76,21.94V327.2l11.27,37s13.51,9.33,19.28,7.87,30.54-23,30.54-23h0C352.76,328.16,381.24,300.89,381.24,300.89Z"/><path class="cls-14" d="M400.16,433.44c-8.91-17.76-58.79-20.31-58.79-20.31l-87.94-12.19s-12,49.15,3,59.7,93.22,6.07,93.22,6.07L331.56,607.26h41.09S409.07,451.2,400.16,433.44Z"/><path class="cls-13" d="M379.92,433.44c-10.67-17.76-70.55-20.31-70.55-20.31l-102-27.34s-18,64.25,0,74.8,111.94,6.05,111.94,6.05L299.13,609H348.4C348.39,609,390.58,451.2,379.92,433.44Z"/><path class="cls-13" d="M292.33,410.9c.25,0,.42-.07.67-.07-.37-23.52,2.54-47,3.82-70.48s.72-47.46-6.19-70c-3.51-11.46-9.88-24.13-19.27-32.07-7.46-6.3-22-13.76-31-6.36-3.69,3-6.72,7.52-8.91,11.7-6.48,12.48-9.76,26.24-13,39.87-4.48,19-6.55,38.43-8.54,57.76q-4.19,39.38-8.31,78.73Z"/><path class="cls-6" d="M324.45,392.22h33.7c3.21,0,5.82-2.67,5.45-5.33-.3-1.94-2-3.46-3.94-4.48-4.78-2.54-10.6-4.43-15.88-6.07-6.67-2-12.91.12-19.51,1.22A5.34,5.34,0,0,0,320,381l-1.46,4.73a4.49,4.49,0,0,0,2.25,5.21l.66.42A6.13,6.13,0,0,0,324.45,392.22Z"/><path class="cls-13" d="M240.57,231.55c-4.84,4-30.49,31.09-33,72-2.72,45,2.31,71.89,7.28,82.31,3.33,7,61.7,6.85,99.88,5.94l1.88-37.4C285.36,358,242.46,356,242.46,356s3-22.55,5.63-42.61"/><polygon class="cls-8" points="315.49 367.25 327.31 366.53 323.79 392.23 313.97 391.86 315.49 367.25"/></g></svg>