<svg id="图层_1" data-name="图层 1" xmlns="http://www.w3.org/2000/svg" viewBox="0 0 800 800"><defs><style>.cls-1,.cls-10{fill:#fff;}.cls-1,.cls-10,.cls-11,.cls-12,.cls-2,.cls-3,.cls-4,.cls-5,.cls-7,.cls-8,.cls-9{stroke:#000;}.cls-1,.cls-2,.cls-3,.cls-4,.cls-5,.cls-6,.cls-7,.cls-9{stroke-linecap:round;stroke-linejoin:round;}.cls-1,.cls-10,.cls-11,.cls-12,.cls-2,.cls-3,.cls-4,.cls-5,.cls-6,.cls-7,.cls-8,.cls-9{stroke-width:0.91px;}.cls-2{fill:#002f9c;}.cls-3{fill:#3165e8;}.cls-4{fill:#dbdde2;}.cls-11,.cls-6,.cls-7{fill:none;}.cls-6{stroke:#fff;}.cls-8,.cls-9{fill:#ffca6e;}.cls-10,.cls-11,.cls-12,.cls-8{stroke-miterlimit:9.15;}.cls-12{fill:#6cc4ff;}</style></defs><rect class="cls-1" x="175.49" y="170.96" width="273.18" height="191.52"/><rect class="cls-1" x="175.49" y="170.96" width="273.18" height="32.71"/><path class="cls-2" d="M310.19,299.8H254.24A25.17,25.17,0,0,0,229.06,325v37.51h81.13Z"/><path class="cls-3" d="M319.62,299.8H263.67A25.18,25.18,0,0,0,238.49,325v37.51h81.13Z"/><path class="cls-4" d="M347.75,241.11a16.48,16.48,0,0,1,1.43,6.55c-.15,3.21,4.37,7.06,5.51,14.77s-4.64,7.7-6.94,12.19,2.06,11.3-3.72,12.58-7.74-3.83-11-3.47-14,3.21-21.31,3-11-4.24-16.43-4,3.08-27.34,3.08-27.34l27-21.7Z"/><path class="cls-1" d="M333,287.55s19.86,1.92,32,17.94,30.63,57,30.63,57h-133s-.4-46.44,16.63-61.86,31.55-13.2,31.55-13.2Z"/><path class="cls-5" d="M333,287.78c-4.74-.51-3.21-8.65-2.69-12.11s6.93.76,10.4,0c2.61-.59,3.25-8.11,3.41-11.77a2.63,2.63,0,0,1,2-2.45l2.79-.68c-3.72-1.66-4.87-4.62-4.87-6.55a39.44,39.44,0,0,0-1.16-6.42c-1.25-7.39-11.68-11.81-18.53-9.76s-9.72,9.24-8.95,25.93-.25,20.33-4.62,23.67c0,0,6.26,8.29,15,8.29S333,287.78,333,287.78Z"/><path class="cls-1" d="M339.74,233.26a6.81,6.81,0,0,0,5,1.78c3.68-.26,9.55.45,9.89,7.37.39,7.5-7.88,6.58-12.21,5.58a2.82,2.82,0,0,0-3.22,1.68,5,5,0,0,1-4.22,3.39c-4.23.26-6.76-4.75-10.7-2.83s2,9.37.81,13.87-6.67,2.7-11.93,5.26-5.62,13.61-14.26,16.18-22.21-2.45-30,0-9.24-5.91-12.83-6.3-13.87,6-18.62,3.6-.38-7.06-3.85-10.78-10.14-13.35,4.62-18.49,39.67,4.24,49.81,1.54c9.64-2.56,18.24-20.09,28.1-21.05a6.46,6.46,0,0,0,2.93-1C322.52,230.9,331.8,226.16,339.74,233.26Z"/><path class="cls-6" d="M332.11,251.75s4.91,3,2,7.65a5.76,5.76,0,0,1-4.49,2.9c-3.26.29-6.09-2.52-5.3-5.71a.36.36,0,0,1,0-.1,3.72,3.72,0,0,1,5.23-2.74,3.32,3.32,0,0,1,2,4.14,2.61,2.61,0,0,1-3.88,1.38,2,2,0,0,1,.08-3.47"/><line class="cls-7" x1="302.75" y1="362.48" x2="290.42" y2="321.77"/><path class="cls-5" d="M336.52,362.48s55.08-39.51,79.92-46,26.77-.36,26.77-.36-17.26,1.79-20.48,3.71c0,0,10.89,5.62,5.27,12.54s-13.35,2.88-25,8-29.55,22.11-29.55,22.11H336.52Z"/><path class="cls-7" d="M361.05,321.77s7.33,11.38,7.6,20.36,1.83,20.35,1.83,20.35"/><circle class="cls-1" cx="193.6" cy="187.31" r="4.71"/><circle class="cls-8" cx="213.69" cy="187.31" r="4.71"/><circle class="cls-3" cx="233.78" cy="187.31" r="4.71"/><rect class="cls-7" x="555.04" y="503.13" width="104.85" height="59.43"/><polyline class="cls-9" points="555.04 562.55 555.04 503.13 659.9 503.13 555.04 562.55"/><path class="cls-4" d="M632.48,562.55H555v88.72H691.39v-29.8A58.91,58.91,0,0,1,632.48,562.55Z"/><rect class="cls-10" x="555.04" y="621.66" width="136.35" height="29.61"/><path class="cls-1" d="M536.13,288.51s-2,5-2,7.6c0,2.22-2.68,5.33-5.75,6a.28.28,0,0,0,0,.55l2.9.87a3.56,3.56,0,0,1,2.54,3.57c-.2,4.27-.22,12,2.31,12,3.5,0,10.5-3.19,11.71,0s0,10.5,0,10.5l16-3.65s-1.67-24.49,0-30.73-9.73-13.08-14.9-13.69S536.13,288.51,536.13,288.51Z"/><path class="cls-5" d="M540.26,276.64a5,5,0,0,1-5.19,1c-4.13-1.61-11-3.26-12.63,2.59-2,7.29,7.44,11.85,13.68,11.78a2.65,2.65,0,0,1,2.67,2.35c.24,1.93,1.35,4.18,5.17,4.35,6.77.3,5.62-6.81,11.18-4.11s0,8.37.39,12.63c.26,2.94,3.17,5.7,7.59,3.12,4.25-2.49,9.62-18.44,3.85-25.19a7.83,7.83,0,0,1-1.17-1.78c-1.22-2.56-5.11-9.07-13.63-9.92C546,272.83,542.27,274.84,540.26,276.64Z"/><path class="cls-3" d="M571.73,327.6s-17-11.41-29.51,7.3-37.12,59.32-37.12,59.32S475.9,366.39,464,340.53l-14.15,6.24s25.56,83.2,50,82.14S544.19,386,544.19,386s10,21.75,14,32.55,4.87,30,4.87,30h61S626,364.86,571.73,327.6Z"/><path class="cls-1" d="M462.54,341.18s-3.83-21.42-9.45-23.85-12.24-.76-12.24-.76-11.79-5.31-16.81-3.11,8.52.59,16.89,15.57,10.48,17.07,10.48,17.07Z"/><line class="cls-7" x1="440.84" y1="316.57" x2="444.21" y2="318.62"/><path class="cls-4" d="M493,457s-17.44,2.33-26.36,30.52-35.09,124.72-35.09,124.72l25.33,7.7s42-82.44,48.5-122l93.29-18.76.61-18.08Z"/><path class="cls-1" d="M624,448.52s6.55,54.6-40.3,54.6-69.66-5.48-69.66-5.48,28.67,94.08,30,114.46l-24.79,8.36s-61.53-121-43.43-153.85S624,448.52,624,448.52Z"/><path class="cls-1" d="M524.73,618.65s5.62,9.2,1.51,16.66-33.46,4.56-38,16h57.22a3.75,3.75,0,0,0,3.61-4.78c-2.48-8.63-7.57-26.51-9-33Z"/><path class="cls-4" d="M436.35,613.7s-5.63,26.32-19.83,26.52-21.7,6.19-22.31,11h50.91s1-29.69,4.77-33.45Z"/><path class="cls-7" d="M544.19,386s10.85-21.7,16.73-23.32"/><path class="cls-7" d="M548.71,297s-4.51,2.77-1.8,7a5.34,5.34,0,0,0,4.13,2.67,4.41,4.41,0,0,0,4.89-5.25l0-.09a3.42,3.42,0,0,0-4.8-2.52,3,3,0,0,0-1.8,3.81,2.4,2.4,0,0,0,3.56,1.27,1.81,1.81,0,0,0-.06-3.19"/><path class="cls-1" d="M413.76,218.47c7.13,0-.52,24.33,5.83,32.3s13.92,7.07,13.92,34.27h49.83c0-27.2-8.5-26.3-14.84-34.27s1.31-32.3-5.83-32.3Z"/><path class="cls-5" d="M413.76,218.47s-4.45-.76-4.45,12.14H417S418,218.41,413.76,218.47Z"/><line class="cls-7" x1="460.43" y1="230.61" x2="425.18" y2="230.61"/><line class="cls-7" x1="461.12" y1="240.14" x2="425.86" y2="240.14"/><line class="cls-7" x1="474.29" y1="265.9" x2="439.04" y2="265.9"/><line class="cls-7" x1="463.51" y1="249.96" x2="431.33" y2="249.96"/><line class="cls-7" x1="466.79" y1="257.82" x2="437.92" y2="257.82"/><line class="cls-7" x1="477.21" y1="274.45" x2="441.96" y2="274.45"/><path class="cls-7" d="M409.31,171s23.24-22.24,85.9-22.24,124.12,53.53,106.48,88.83-32.25,1.86-20.69-3.94,25.42-3.36,42.22,36.8,59.39,5.85,77,35.17-5.48,90.16-37.73,95.63-18-28.59-2.63-20.08,13.18,28.62,0,45-22.32,25.54-23.53,42c0,0-1.22,25.57,14,35"/><rect class="cls-1" x="140.39" y="426.1" width="222.07" height="131.57"/><rect class="cls-4" x="161.69" y="448.01" width="114.7" height="87.75"/><rect class="cls-9" x="296.25" y="516.91" width="108.08" height="7.16"/><rect class="cls-9" x="309.64" y="535.76" width="108.08" height="7.16"/><line class="cls-11" x1="706.35" y1="651.27" x2="93.65" y2="651.27"/><circle class="cls-12" cx="179.55" cy="599.89" r="17.87"/></svg>