<svg id="图层_1" data-name="图层 1" xmlns="http://www.w3.org/2000/svg" viewBox="0 0 800 800"><defs><style>.cls-1{fill:none;}.cls-1,.cls-2,.cls-3,.cls-4,.cls-5,.cls-6,.cls-7,.cls-8{stroke:#000;stroke-width:0.91px;}.cls-1,.cls-3,.cls-4,.cls-5,.cls-7{stroke-linecap:round;stroke-linejoin:round;}.cls-2{fill:#ff8885;}.cls-2,.cls-6,.cls-8{stroke-miterlimit:9.15;}.cls-3{fill:#dbdde2;}.cls-4{fill:#fff;}.cls-6{fill:#ffca6e;}.cls-7{fill:#3165e8;}.cls-8{fill:#ffcb6e;}</style></defs><path class="cls-1" d="M462.65,214.13s7.87-45.63,47.42-47.46,63,21.3,62.24,33.46S550.5,208.05,554,198.3s16.89-22.51,34.84-17,7.61,54.23,41.08,63.62S692.6,236,693.82,264s-83.63,10.35-91.71,45.63S665.3,348.27,676.17,341c10.19-6.84,3.24-22.34-8.21-16.42-9.13,4.71-9,29.35-4,42.29,5.17,13.23,4.18,42-49.62,29.81s-84.07,5.85-73.8,21.79"/><circle class="cls-2" cx="556.94" cy="279.12" r="16.71"/><path class="cls-3" d="M420.77,280.33s27.58-3.66,27.58,8.11v65.92h-32.7Z"/><rect class="cls-4" x="160.56" y="140.52" width="302.07" height="213.83"/><rect class="cls-4" x="160.56" y="140.52" width="302.07" height="29.48"/><rect class="cls-5" x="209.88" y="337.73" width="88.02" height="3.25"/><polygon class="cls-5" points="263.34 340.97 181.69 340.97 166.97 288.44 248.61 288.44 263.34 340.97"/><rect class="cls-4" x="160.56" y="340.97" width="149.53" height="13.37"/><path class="cls-6" d="M395,188.05a10.84,10.84,0,0,1,3.24,7.76c0,5-1.31,11.56,6.23,14.84s9.66,10.3,6,17.9-15.85,3.35-18,9.93-2.93,9.74-12,10.28-17.18-8-32.05-4.1-36.33-1.93-38.26-6.95,42.32-32.66,42.32-32.66Z"/><path class="cls-4" d="M426.44,264.61c-8.82-14-39.95-9.64-39.95-9.64l-42.18-2.43s-28.9-6.18-38,12.37-35.9,89.44-35.9,89.44H299.9l16.79-43.29s4,13.46,4.55,23.15l-2.79-.24-3.59,18.59,3.69,1.21h0l1.73.57s59,19.47,86.39,18.25S435.27,278.6,426.44,264.61Z"/><path class="cls-4" d="M388.72,196.77a17.78,17.78,0,0,1,4.47,10.55c.11,3.31,3.6,7.2,7.45,7.2l-3.95,1.83a5.35,5.35,0,0,0-3.11,5c.16,4.9,0,13.2-2.83,13.33-4.05.2-11.15-2.23-12.16,1.62s-2.18,17.79,11.66,18.28c0,0-21,15.39-25.45,15.79s-20.48-17.85-20.48-17.85,14.4-.4,15-6.28,0-29.82,0-29.82-.4-29.2,16.83-25.35S388.72,196.77,388.72,196.77Z"/><path class="cls-6" d="M384.72,179.38a9.23,9.23,0,0,0,6.24,1.3c5.08-.67,13.63-.76,13.78,6.36.17,8.44-7,12-13.57,13a6.22,6.22,0,0,0-4.84,4.09c-.8,2.23-2.15,4.76-4.3,5.4-4.06,1.22-8.12-6.08-12.78-2s2.43,7.92,1.83,13.8-4.27,11-15.22,10.55-20.68-6-28.79-1.29S318.75,244,307.6,244.85s-13-7.5-20.48-8.72-22.52,2.63-27-6.9,14-10.55,18.66-17.85,12.37-10.74,21.3-10.34,19.06,9.13,26.76,6.9,18.85-18.73,25.76-25.15C357.86,177.91,374,172.53,384.72,179.38Z"/><path class="cls-1" d="M380.24,209.63s7.26,2.56,4.7,9.46a7.8,7.8,0,0,1-5.05,5.06c-4.19,1.29-8.67-1.59-8.54-6a.71.71,0,0,1,0-.14,5,5,0,0,1,6.06-5.06c1.74.44,4.14,1.9,3.72,4.86a3.5,3.5,0,0,1-4.69,2.89,2.64,2.64,0,0,1-.87-4.56"/><path class="cls-1" d="M320.28,354.35l-5.42-1.79L318.45,334s77,7,82.19,3.95,1.77-48.37,1.77-48.37"/><path class="cls-1" d="M321.27,334.22a81.61,81.61,0,0,0-3.43-18.5c-3-9.74-3-26.17-3-26.17"/><path class="cls-4" d="M318.06,336.26s-19.59-6.36-32.54-1.9-9.15,17.37,6.83,14.37,23.23.45,23.23.45Z"/><circle class="cls-4" cx="177.29" cy="155.26" r="3.95"/><circle class="cls-6" cx="194.97" cy="155.02" r="3.95"/><circle class="cls-7" cx="212.63" cy="155.02" r="3.95"/><rect class="cls-4" x="443.48" y="418.44" width="226.94" height="151.6"/><rect class="cls-4" x="443.48" y="418.44" width="226.94" height="24.19"/><path class="cls-7" d="M643.49,514.37s-20.6-7.31-53.46-.5C553.91,521.36,539.3,570,539.3,570H670.42V536.49A61.83,61.83,0,0,0,643.49,514.37Z"/><path class="cls-4" d="M592.41,462.91s-1.85,6.89-.67,11.08-4,6.38-4,6.38l3.29.82a3.35,3.35,0,0,1,2.47,2.56c.74,3.52,2.54,10.39,5.15,10.39,3.52,0,9.41-4.37,9.91,0s.67,13.26-3.19,14.44S590,513.87,590,513.87s23.2,10.44,26.23,10.3,27.24-9.8,27.24-9.8-15.48-6.29-16.66-7.3c-1-.81-4.09-19.48-5.26-26.64a24.16,24.16,0,0,1-.29-5c.26-5.36.25-18.37-5.95-19C607.52,455.52,594.76,454,592.41,462.91Z"/><path class="cls-5" d="M599.75,451.56a5.53,5.53,0,0,1-4.84.23c-3.55-1.54-10.18-3.32-13.41,2.89-4,7.76,7.33,12.74,14.15,11.15a2.72,2.72,0,0,1,3.11,1.49c.74,1.61,2.07,3.41,4.23,3.32,3.86-.17,6.23-6.75,11.25-4.7,3.69,1.5-1.17,7.89,1.09,13.1s6.24,1.4,6.24,1.4,7-4.37,5.54-16a18.74,18.74,0,0,0-6.56-12.27C616.38,448.74,609.6,446.3,599.75,451.56Z"/><path class="cls-1" d="M605.37,469.74s-5.53,3.39-2.2,8.63a6.51,6.51,0,0,0,5.07,3.27c3.68.33,6.87-2.83,6-6.43l0-.12a4.21,4.21,0,0,0-5.89-3.1c-1.36.67-3.08,2.31-2.21,4.68a2.94,2.94,0,0,0,4.37,1.55,2.22,2.22,0,0,0-.08-3.91"/><path class="cls-1" d="M646.08,542.66s5.23,18.25,5.21,27.38"/><line class="cls-1" x1="572.31" y1="542.66" x2="572.31" y2="560.61"/><polygon class="cls-7" points="542.2 547.3 596.49 570.04 544.78 570.04 534.74 564.56 542.2 547.3"/><path class="cls-4" d="M540.58,551.05s-11.74-9.36-21.76-10.4c-8.41-.88-15.24,10-17.84,12.81-2.08,2.24,3.63,4,10.74-5.12,0,0,3.56,5,13.49,7.1,9.53,2,11.24,5.17,11.24,5.17Z"/><circle class="cls-4" cx="458.28" cy="430.53" r="3.25"/><circle class="cls-6" cx="474.2" cy="430.53" r="3.25"/><circle class="cls-7" cx="490.12" cy="430.53" r="3.25"/><rect class="cls-1" x="443.48" y="564.26" width="86.39" height="5.78"/><rect class="cls-5" x="448.81" y="562.35" width="70.13" height="1.9"/><polygon class="cls-5" points="484.83 524.44 443.48 524.44 443.48 564.26 497.47 564.26 484.83 524.44"/><rect class="cls-3" x="443.48" y="442.63" width="116.01" height="51.61"/><rect class="cls-4" x="443.48" y="474.82" width="116.01" height="19.42"/><rect class="cls-4" x="548.54" y="442.62" width="10.94" height="32.19"/><rect class="cls-4" x="124" y="458.72" width="177.67" height="117.68"/><line class="cls-1" x1="124" y1="488.05" x2="301.67" y2="488.05"/><line class="cls-1" x1="124" y1="517.49" x2="301.67" y2="517.49"/><line class="cls-1" x1="124" y1="546.95" x2="301.67" y2="546.95"/><line class="cls-1" x1="124" y1="576.4" x2="301.67" y2="576.4"/><line class="cls-1" x1="242.42" y1="458.72" x2="242.42" y2="576.4"/><line class="cls-1" x1="212.8" y1="458.72" x2="212.8" y2="576.4"/><line class="cls-1" x1="272.04" y1="458.72" x2="272.04" y2="576.4"/><line class="cls-1" x1="183.18" y1="458.72" x2="183.18" y2="576.4"/><line class="cls-1" x1="153.56" y1="458.72" x2="153.56" y2="576.4"/><rect class="cls-4" x="167.86" y="539.71" width="152.72" height="109.11"/><rect class="cls-4" x="167.86" y="539.71" width="152.72" height="19.54"/><circle class="cls-4" cx="286.32" cy="591.04" r="23.73"/><path class="cls-6" d="M269.76,608a23.73,23.73,0,0,0,40.29-17H286.32Z"/><path class="cls-5" d="M286.32,567.31V591h23.73A23.74,23.74,0,0,0,286.32,567.31Z"/><path class="cls-4" d="M217.57,608a2.67,2.67,0,0,1-1.59-2.22c-.58-7.09,3.07-5.29,3.07-5.29s3.68,1.38,4.81-.51c.9-1.53.12-5.42-.21-6.86a.83.83,0,0,1,.33-.87c1.08-.79,3.56-2.69,2.18-2.53a3.22,3.22,0,0,1-1,0,4,4,0,0,1-2.85-2.3,46,46,0,0,0-4.53-7.66s-9.6-.14-10.35,6c-.63,5.12-.72,16.05-.73,20.12a2.66,2.66,0,0,1-1.09,2.14s5,2.43,8,2.43A4.32,4.32,0,0,0,217.57,608Z"/><path class="cls-8" d="M217,575.3a1.25,1.25,0,0,0,1.55-.06c1.31-1.11,4-2.81,6.48-.58,3.19,2.91,1.15,9.63-5.73,9.49a1.35,1.35,0,0,0-1.35,1.07,4,4,0,0,1-2.68,3c-3.07,1.11-5-2.51-7.25-.7-1.54,1.23-.42,3.49.76,4.88a1.11,1.11,0,0,1-.12,1.54l-1.77,1.59s-5.49-3.71-6.13-9a9.34,9.34,0,0,1,2.77-7.86,1.87,1.87,0,0,0,.5-.79,6.33,6.33,0,0,1,6.36-4.37C214,573.53,216,574.57,217,575.3Z"/><path class="cls-8" d="M204,577.87a3,3,0,0,0,.36-1.5c0-1.81-.69-5.78-5.65-6.29-6.45-.67-5.84,6.55-5.84,6.55s.66,6,8.41,5.59a15.09,15.09,0,0,1,1.94-3.12,5.52,5.52,0,0,0,.71-1.07Z"/><path class="cls-1" d="M214.06,588.53s3.57,1.58,2,5a3.94,3.94,0,0,1-2.75,2.36,3.25,3.25,0,0,1-4.08-3.35s0,0,0-.08a2.53,2.53,0,0,1,3.26-2.31,2.24,2.24,0,0,1,1.69,2.61,1.77,1.77,0,0,1-2.48,1.27,1.34,1.34,0,0,1-.27-2.34"/><path class="cls-4" d="M200.52,612.5a13.34,13.34,0,0,1,15-6.29,16.08,16.08,0,0,1,9.64,7.64c7.15,12,18.94,26.24,18.94,26.24s15-22.59,18.33-25.64l8.59,4.64s-14.07,37.64-25,40.08-20.58-10.35-20.58-10.35H190.39S194.13,623.54,200.52,612.5Z"/><path class="cls-4" d="M225.47,648.82s-14.54-17.72-15.34-18.25"/><path class="cls-4" d="M263.62,615.07s8.67-19.86,11.25-23.32-1,6.88-1.68,9.08c0,0,5.4.69,4,6s-6.38,8.81-7.6,11.47Z"/><line class="cls-1" x1="244.15" y1="640.08" x2="246.81" y2="643.2"/><polygon class="cls-4" points="295.05 607.56 294.87 618.68 298.48 616.44 301.92 621.97 304.94 620.09 301.51 614.56 305.1 612.31 295.05 607.56"/><path class="cls-3" d="M183.58,624.29h-3a4.78,4.78,0,0,0-4.77,4.77v19.77h12.57V629.06A4.77,4.77,0,0,0,183.58,624.29Z"/><circle class="cls-4" cx="178.74" cy="549.48" r="2.96"/><circle class="cls-8" cx="190.76" cy="549.48" r="2.96"/><circle class="cls-7" cx="202.79" cy="549.48" r="2.96"/><path class="cls-1" d="M124,535.05s-34.21,30.42-7.85,65.71,44.21,2.83,34.48,0-13,14.4-1.62,17.54a21.09,21.09,0,0,0,18.86-3.43"/><path class="cls-1" d="M320.58,622s3.77-22,30.28-22,61,39.75,107.42,32.65,43.6-28.5,40.77-36.66-21.1-6.64-12.17,7,28.6,6.13,35.08,1.31c7.92-5.89,14.6-14.72,35-8.27s31.91-25.9,31.91-25.9"/><path class="cls-1" d="M160.56,266.17s-18.86-2.18-33.46,26,15.82,37.78,16.73,64-15.52,31.69-20.69,23.78,18.52-18.55,30.41-5.33,3.56,36.89,29.62,47,45.31,16.21,47.55,37.18"/><circle class="cls-7" cx="384.51" cy="431.03" r="32.29"/><circle class="cls-4" cx="341.91" cy="472.76" r="13.76"/></svg>