<svg id="图层_1" data-name="图层 1" xmlns="http://www.w3.org/2000/svg" viewBox="0 0 800 800"><defs><style>.cls-1,.cls-8{fill:#ffca6e;}.cls-1,.cls-10,.cls-11,.cls-13,.cls-2,.cls-3,.cls-4,.cls-5,.cls-7,.cls-8{stroke:#000;}.cls-1,.cls-13{stroke-miterlimit:9.15;}.cls-1,.cls-10,.cls-13,.cls-2,.cls-3,.cls-4,.cls-5,.cls-7,.cls-8,.cls-9{stroke-width:0.91px;}.cls-12,.cls-2,.cls-6,.cls-9{fill:none;}.cls-10,.cls-11,.cls-12,.cls-2,.cls-3,.cls-4,.cls-5,.cls-6,.cls-7,.cls-8,.cls-9{stroke-linecap:round;stroke-linejoin:round;}.cls-3{fill:#002f9c;}.cls-5{fill:#fff;}.cls-6{stroke:#3165e8;}.cls-12,.cls-6{stroke-width:1.83px;}.cls-7{fill:#3165e8;}.cls-9{stroke:#fff;}.cls-10{fill:#dbdde2;}.cls-11{stroke-width:0.91px;}.cls-12{stroke:#ffca6e;}.cls-13{fill:#f9762d;}</style></defs><polygon class="cls-1" points="218.39 396 170.18 396 229.4 567.17 277.61 567.17 218.39 396"/><line class="cls-2" x1="266.72" y1="446.8" x2="259.77" y2="446.14"/><path class="cls-3" d="M138.18,222.24s10.68-6,17.37-6.26-33.76-5.31-45,3.13c0,0,9.13,3.57,14.29,5.39l-14.29,10.95s17.28-1.52,27.65-1.22Z"/><path class="cls-4" d="M138.18,222.24s9.16-6.26,17.37-6.26V227Z"/><path class="cls-3" d="M286.55,222.24s-10.67-6-17.37-6.26,33.76-5.31,45,3.13c0,0-9.13,3.57-14.3,5.39l14.3,10.95s-17.28-1.52-27.66-1.22v-12Z"/><path class="cls-4" d="M286.55,222.24S277.39,216,269.18,216V227Z"/><path class="cls-5" d="M212.38,139.54s-12.32,28.29-67.08,28.29c0,0-2.12,111.62,67.08,111.62s67.08-111.63,67.08-111.63S232.77,171.47,212.38,139.54Z"/><path class="cls-6" d="M211.92,150.45s-15,23.12-58.8,23.45c0,0,1.92,97.49,58.8,97.49s59.72-97.49,59.72-97.49S235.86,176.41,211.92,150.45Z"/><path class="cls-7" d="M138.18,244.45s28.33,12.19,74.21,12.19,74.21-13.7,74.21-13.7V222.25s-30.36,11.27-73.7,11.27-74.71-11.27-74.71-11.27v22.2Z"/><path class="cls-8" d="M213.72,172.14l6.64,13.43a1.68,1.68,0,0,0,1.25.92l14.83,2.15a1.66,1.66,0,0,1,.92,2.84l-10.73,10.46a1.64,1.64,0,0,0-.47,1.47l2.53,14.77a1.66,1.66,0,0,1-2.42,1.75L213,213a1.64,1.64,0,0,0-1.55,0l-13.26,7a1.66,1.66,0,0,1-2.42-1.75l2.53-14.77a1.63,1.63,0,0,0-.48-1.47L187.1,191.48a1.67,1.67,0,0,1,.93-2.84l14.83-2.15a1.68,1.68,0,0,0,1.25-.92l6.63-13.43A1.66,1.66,0,0,1,213.72,172.14Z"/><path class="cls-5" d="M335.85,301.92s-38.13-2.47-54.56-12-43.84-46.38-43.84-46.38l-10.29,7.68s21.46,44.47,46.41,58.23,54.5,20,54.5,20Z"/><path class="cls-5" d="M316,260.73a48.76,48.76,0,0,0-5.26,5.88c-2.24,3.05-6.6,2.54-6.6,2.54l2.2,2.69a2.6,2.6,0,0,1,.43,2.53c-1.11,3.16-3.52,10.69-1.11,11.1,3,.5,9.53-1.72,10.34,4.86a83.83,83.83,0,0,1,.72,11.05l15.31-3.24s-3.45-17.75-2.13-21.5,3.95-12-3.15-15.92S316,260.73,316,260.73Z"/><path class="cls-4" d="M323.7,254.35a8.09,8.09,0,0,1-5.43-2.46c-2-2.06-5.33-4.28-8.92-1.5-5.11,4-.32,12.94,5.54,15.27a4.84,4.84,0,0,1,2.87,3.13c.41,1.4,1.15,2.94,2.44,3.4,2.53.92,6.14-2.05,7.3.92s-6.8,5.78-2.84,9.63c3.71,3.61,12,.45,12-4.72a6.5,6.5,0,0,1,.29-2.15C338.48,271.47,342.82,255.25,323.7,254.35Z"/><path class="cls-2" d="M320.45,272.31s-4.52.12-4.34,4.44a4.55,4.55,0,0,0,1.91,3.74,3.77,3.77,0,0,0,5.86-1.79l0-.08a2.94,2.94,0,0,0-2.47-3.93,2.6,2.6,0,0,0-3,2.05,2,2,0,0,0,2.09,2.46,1.55,1.55,0,0,0,1.32-2.39"/><path class="cls-5" d="M338.13,301.94a14.33,14.33,0,0,0-18.68-3.31,28.21,28.21,0,0,0-7.26,6.92c-12,15.61-29.41,52.93-34.27,56.17s-56.58,20.08-61.86,26.57l1.83,8.92s72.19-6.7,78.89-15.82,16.83-25.55,16.83-25.55,9.62,39.28,9.22,44.75l50.46-2.26S363.82,334,338.13,301.94Z"/><line class="cls-2" x1="313.61" y1="355.84" x2="325.58" y2="338.21"/><path class="cls-5" d="M216.34,389.68s-23,3.79-25.63,13.38,14.45-2,18.1-3.81a66.47,66.47,0,0,1,8.8-3.38Z"/><path class="cls-4" d="M324.06,404.42s78.38,174.92,99.67,191.35h20.69s-64.95-167.92-71.13-197.44Z"/><path class="cls-4" d="M373.29,398.34s13,33.86-17.13,43.59-89.44,4.87-89.44,4.87l23.12,89.74H273.41s-51.11-87.61-36.2-111C237.21,425.51,252.32,396.4,373.29,398.34Z"/><path class="cls-5" d="M276.19,536.54s4.86,9.64,5.17,16.33-29.52,7.3-29.2,14.3h43.49s-5.42-21-8.81-30.63Z"/><path class="cls-5" d="M428,595.77s7.3,10.64,6.08,14-23.73,4.57-23.73,11.87h39.25l-8.82-25.86Z"/><path class="cls-5" d="M235.54,244.94s-10.7-22.12-18.87-25.12-3.23,10.05,2.63,15.46,10.1,14.24,10.1,14.24Z"/><polygon class="cls-3" points="164.34 567.17 164.34 595.77 273.91 595.77 273.91 660.46 320.08 660.46 320.08 567.17 164.34 567.17"/><path class="cls-5" d="M244.86,660.46c-.13-35.75-34.26-64.69-76.35-64.69s-76.22,28.94-76.35,64.69Z"/><path class="cls-5" d="M690.19,621.62H396.39a28.79,28.79,0,0,0-28.79,28.79v10.05H719V650.41A28.78,28.78,0,0,0,690.19,621.62Z"/><path class="cls-4" d="M509.38,354.05s2,6.49,2,9.73,3.85,6.29,3.85,6.29h-2.08a4,4,0,0,0-3.77,2.74c-1.09,3.41-3.33,8.75-6.52,8.61-4.66-.2-8.92-7.91-10.13-3.25a15.23,15.23,0,0,0,.81,9.13l-15-8.11s7.1-9.74,7.91-15.21,0-15.62,12-16S509.38,354.05,509.38,354.05Z"/><path class="cls-5" d="M504.9,343.09a11.79,11.79,0,0,0,4.93,2.21c3.71.75,9.68,3,9.68,9.55,0,6.81-8.06,5.66-12.67,4.45a5.5,5.5,0,0,0-5.11,1.36,5.85,5.85,0,0,1-2.5,1.49c-2.43.62-2.83-3.44-6.89-2.83s.81,6.47,0,8.31-7.35.79-7.35.79-15.59-16.57,1.16-23a7.94,7.94,0,0,0,2.3-1.39C490.89,341.9,497.57,337.41,504.9,343.09Z"/><path class="cls-9" d="M497.86,360.87s3.75,2.54,1.27,6.09a4.59,4.59,0,0,1-3.63,2.12,3.77,3.77,0,0,1-4-4.67l0-.08a2.92,2.92,0,0,1,4.2-2,2.63,2.63,0,0,1,1.4,3.32,2.07,2.07,0,0,1-3.1.95,1.56,1.56,0,0,1,.19-2.73"/><path class="cls-7" d="M548,467,545.06,454l-30.76,3.8c-4.45-22.63-9.15-48.34-12-58.41C497.46,382.09,478,374.93,478,374.93c-26,21.76-39.39,127.16-39.39,127.16l35,5.78,48.52-16.12c-.81-1.05-2.25-6.89-4-15.23C534.1,471.67,548,467,548,467Z"/><path class="cls-10" d="M484.83,490.84s94.61-12.47,110.43,0S587,589.65,587,589.65l-24-5.12s10.89-55.35,10.41-67.23L480,528.87Z"/><path class="cls-5" d="M458.52,502.25s112-37.42,131-29.82,46.08,112.72,46.08,112.72l-21.14,7.6s-27.52-76.66-29.51-80.93c0,0-79.7,38.95-114.07,33.17C439.64,539.74,458.52,502.25,458.52,502.25Z"/><path class="cls-2" d="M477.08,386.19s9.27,2.59,10.8,14.91,3.35,59.76,3.35,59.76l23.08-3"/><path class="cls-2" d="M463.24,416s-1.22,66.77,8.51,70.27c7.51,2.7,46.33-9.75,46.33-9.75"/><path class="cls-2" d="M478,374.93l4.26,7.61,6.05-1.9L490,391.51s9.08,4.08,13.59,12.92"/><path class="cls-4" d="M545.44,455.68a9.35,9.35,0,0,0,6.16-2c2.9-2.28,6.85-13.84,9.89-14.91s14.15,4,17.49,3.81,1.22,4.57-9,2c0,0-1.37,13.08-13.54,15.81L547,462.49Z"/><line class="cls-2" x1="491.23" y1="460.87" x2="484.83" y2="461.64"/><path class="cls-4" d="M632.18,586.36s5.37,20.08,9.62,23.12,25,6.7,25,11.86H626.9s-1.14-24.37-6.5-30.74Z"/><path class="cls-4" d="M581.64,588.51s-3.41,11.84-2.5,15.34,6.6,10.8,13.28,12,8.22,5.48,8.22,5.48H577a10.88,10.88,0,0,1-7-2.54l-10-8.41s7.61-13.68,9.74-24Z"/><rect class="cls-10" x="471.75" y="544.99" width="5.32" height="70.29"/><path class="cls-10" d="M521.09,615.29H461.36a6.34,6.34,0,0,0-6.34,6.34h72.4A6.32,6.32,0,0,0,521.09,615.29Z"/><path class="cls-10" d="M414.6,452.53a4.59,4.59,0,0,1,4.27-5.24c14-.87,54-1.58,66,17.38,14.6,23.11,44.11,69.16,34.68,74.53s-59.32,20.08-78.79-4C424.51,515.24,416.74,467.83,414.6,452.53Z"/><rect class="cls-5" x="654.76" y="462.5" width="14.72" height="158.85"/><rect class="cls-5" x="571.32" y="453.89" width="98.16" height="14.72"/><rect class="cls-4" x="575.64" y="451.33" width="55.98" height="2.56"/><rect class="cls-11" x="615.58" y="427.18" width="55.97" height="2.56" transform="translate(-31.1 806.07) rotate(-62.89)"/><line class="cls-2" x1="71.46" y1="660.46" x2="728.54" y2="660.46"/><path class="cls-8" d="M408.29,271.11s8.32-2.32,11.92-2.44c0,0-20.08-5.78-31.33,0,0,0,7.63,3.95,9.3,5.78l-9.3,10.35s13.57,0,19.41,1.22Z"/><path class="cls-8" d="M528.37,282.06l-12.67,3.81a216.1,216.1,0,0,0,37.25,0l-13.14-6.57L553,268.36s-18.93,1.65-24.58.92Z"/><path class="cls-4" d="M420.21,268.66a107.1,107.1,0,0,0-11.92,2.45s9.43,2,11.92,2.38Z"/><path class="cls-4" d="M515.7,282.46a104.31,104.31,0,0,1,12.67-.4l-12.67,3.81Z"/><path class="cls-5" d="M496.11,210.89H440.47s.61,30.7-25,30.7c0,0-8.56,75.76,53.06,75.76s52.48-75.9,52.48-75.9S495.81,242.51,496.11,210.89Z"/><path class="cls-12" d="M490.83,217.48h-45s-1.54,27.46-23.67,29.72c0,0-3.73,63.55,46.44,63.55s45.93-63.69,45.93-63.69S493.1,245.24,490.83,217.48Z"/><path class="cls-8" d="M408.29,289.06A225.41,225.41,0,0,0,451,293.61c22.09,0,36.48-11.55,77.33-11.55V264.12c-40.84,0-55.24,12.15-77.33,12.15a200.09,200.09,0,0,1-42.75-5.16Z"/><path class="cls-2" d="M212.38,279.44s9.64,36.76-18.34,50-61.45-9.23-81.53,45.5,17.21,94,32.55,93.32c19.28-.86,28.29-14.36,15.3-22.86-14.29-9.34-23.05,18.39-13.49,36.2,8.68,16.18,48.39,28.4,50.83,85.58"/><path class="cls-2" d="M468,210.89s33.6-64.74,80-30.67,37.53,130.81,27.68,143-19.59,4.72-18.37-5.85,19-12.2,35.89,0c35.9,25.93,51.66-17.75,73.6-20.82,20.71-2.91,27.08,26,7.93,35.8-23.73,12.17-70.89,11.19-50.5,36.76,16.43,20.6,60.85,3.3,65.71,37.73s-51.63,34.59-51.63,34.59"/><path class="cls-2" d="M242.21,162.39s3.69-25.27,44.38-11.94,32.78,67.45,65.63,76.6,19-20.24,0-17.57-4.25,31.81,15.52,39.61,47.37,7.55,47.37,7.55"/><circle class="cls-13" cx="673.86" cy="298.43" r="11.75"/></svg>