<svg id="图层_1" data-name="图层 1" xmlns="http://www.w3.org/2000/svg" viewBox="0 0 800 800"><defs><style>.cls-1{fill:#fff;}.cls-1,.cls-2,.cls-3,.cls-4,.cls-5,.cls-6,.cls-7,.cls-8{stroke:#000;stroke-linecap:round;stroke-linejoin:round;stroke-width:0.91px;}.cls-2{fill:#dfe1e6;}.cls-3{fill:#002fa0;}.cls-4{fill:#ffa9a9;}.cls-5{fill:#ffce6e;}.cls-6{fill:#3165ec;}.cls-7{fill:none;}</style></defs><rect class="cls-1" x="291.87" y="148.07" width="293.87" height="239.26"/><rect class="cls-1" x="291.87" y="147.52" width="293.87" height="39.6"/><rect class="cls-2" x="442.04" y="321.46" width="171.87" height="7.88"/><rect class="cls-3" x="476.43" y="340.24" width="171.87" height="7.88"/><circle class="cls-4" cx="311.01" cy="167.33" r="5.22"/><circle class="cls-5" cx="334.62" cy="167.33" r="5.22"/><circle class="cls-6" cx="358.22" cy="167.33" r="5.22"/><path class="cls-7" d="M482.22,492s-27.66-37.13-63.41-36.21-22.73,20-17.15,20.35,17.33-6.43,2.67-27.24-52.62-9.79-53.72,10.83,26.95,17.88,28.61,50.06-49.91,16.23-45.31,41,61.78,5,50.52,35.77"/><polygon class="cls-1" points="130.77 652.48 130.77 419.99 404.32 652.48 130.77 652.48"/><path class="cls-5" d="M559.6,527.48a125,125,0,0,0-125,125h250A125,125,0,0,0,559.6,527.48Z"/><polygon class="cls-3" points="574.57 517.18 479 517.18 524.32 594.17 498.15 611.28 439.28 520.61 452.15 479.43 574.57 479.43 574.57 517.18"/><path class="cls-6" d="M601,472.11s5.85,41.64-26.47,45.07S473,504,473,504L454.72,611.58l-25.55-4.5s-11.1-119.28,31-140C494.81,450.11,601,472.11,601,472.11Z"/><path class="cls-1" d="M620.91,436.61c-5.34-50.72-42.19-63-42.19-63a139.47,139.47,0,0,1-15.3,1.06c-7.15,0-22,9.24-35.47,30.7s-39.28,52.25-39.28,52.25h35.66v8.77l37,3.77s28.25,3.07,47.55,1.64C621.32,470.85,622.85,455.08,620.91,436.61ZM527,447.87l14.66-17.57s-.22,14.33,0,17.57Z"/><path class="cls-1" d="M560,334.69s-3.86,3.71-4.87,8-5.43,5.72-5.43,5.72l2.18.85a2.72,2.72,0,0,1,1.73,2.61c-.1,3.36.5,12.46,3.39,12.79,3.86.43,7.41-2.61,7.7,2.34.34,5.72-1.26,7.64-1.26,7.64l1.14,7.67,14.16-8.72V360s4.29-11,3.15-17.59S565.28,329.83,560,334.69Z"/><path class="cls-5" d="M578.72,360c2-1.06,4.65-4.46,5.9-6.36,3-4.47,7.16-14.22-4.62-23.25,0,0-8.48-8.74-17.61-2.26a5.12,5.12,0,0,1-5.22.47c-2.84-1.37-8.36-3-10.63,2.26-3.16,7.29,5.71,9.53,10.7,9.39a2.27,2.27,0,0,1,2.19,1.51c.6,1.63,1.82,3.89,4.08,4.36,3.62.76,10.3-2.57,12.11,1.43a4.85,4.85,0,0,1-.21,5.23,3.51,3.51,0,0,0,.51,4.14Z"/><polyline class="cls-7" points="524.32 457.59 524.32 447.87 595.74 447.87"/><path class="cls-7" d="M588.31,407.73a101.6,101.6,0,0,1,5.24,40.14"/><path class="cls-1" d="M524.32,452s-46.86.57-45.29,12.72,30-5.15,40.33-5.15l5-.15Z"/><line class="cls-7" x1="479" y1="517.18" x2="472.31" y2="517.18"/><line class="cls-7" x1="473.03" y1="504.03" x2="467.45" y2="503.02"/><path class="cls-1" d="M433.5,607.84s1.09,26.33-11.3,31.29-26.79,4.2-26.79,13.35h52.11A2.47,2.47,0,0,0,450,649.8c-.65-6.93-2-25.79.26-39Z"/><path class="cls-1" d="M504.36,607.22s10.32,4.83,10.32,20.08-.71,14.84-.71,14.84-13.2,3.47-13.2,10.33h21.16a6,6,0,0,0,4-1.54L544,634.6a2.87,2.87,0,0,0,0-4.24c-5.25-4.88-18.25-17.56-27-31.45Z"/><path class="cls-1" d="M514,642.14s6.56-1.3,8.89-.73"/><path class="cls-7" d="M568.83,345.82s-5,1.89-3.15,6.68a5.44,5.44,0,0,0,3.61,3.47,4.48,4.48,0,0,0,5.89-4.29.31.31,0,0,0,0-.1,3.48,3.48,0,0,0-4.3-3.45,3.1,3.1,0,0,0-2.54,3.45,2.43,2.43,0,0,0,3.31,1.95,1.84,1.84,0,0,0,.55-3.2"/><line class="cls-7" x1="541.65" y1="430.29" x2="541.65" y2="406.2"/><rect class="cls-1" x="494.52" y="517.3" width="140.81" height="10.17"/><circle class="cls-5" cx="368.75" cy="617.63" r="34.85"/><path class="cls-8" d="M340.05,597.86a34.84,34.84,0,0,0,52.83,44.9Z"/><line class="cls-7" x1="320.64" y1="334.79" x2="316.74" y2="336.39"/><path class="cls-8" d="M250.09,239s-.55,6,3.49,10.26,7.7,3.85,7.7,9.72-5.68,5.31-4.95,13.56,2.49,14.85-21.21,13.39-22.61,4.95-35.26,4.4a125.13,125.13,0,0,1-40.33-9.17c-12.11-5.13,54.27-25.48,54.27-25.48Z"/><path class="cls-2" d="M267.61,369.39S232,578.76,212.24,625.25h-35.4l50.43-255.86Z"/><path class="cls-1" d="M195.37,369.39s8.24,119.36,65.91,255.86h34.94L239,369.39Z"/><rect class="cls-8" x="199.4" y="295.32" width="65.09" height="89.02"/><path class="cls-1" d="M235.78,241.31s9.47-1.86,10.88,6.77c.82,5,2.69,7,4.63,7l-2.74,1.6a2.5,2.5,0,0,0-1,2.48c.13,3.36,1.64,8.57-.76,10.17-3.18,2.11-8.73-1.21-8.55,2.31s-.35,9.7,4.41,12.52,12.16,7.57,12.16,7.57-5.46,6.17-22,6.17c-15.09,0-21.26-5.13-22.24-6a.14.14,0,0,1,0-.23c1.38-.77,10.79-6.07,12.7-7.66,3.17-2.64,2.47-5.46,1.76-13.39s-5.46-15.51-1.23-24S235.78,241.31,235.78,241.31Z"/><path class="cls-8" d="M118.64,266c5.54,9.7,9.51,26.78,37.38,25.45,21.71-1,17.62-10.6,31.74-15s20.9,4.58,33.74-2.94,5.68-16.5,6.23-20.9,7.15.18,10.81-2,2-6.42,2-6.42c7.52,2.94,20.54-3.48,12.84-11.74s-17.42,0-17.42,0-6.79-4.76-16.14,1.1-6.05,20.36-26.58,20.17-22.37-13.14-38.87-13.38c-8.73-.13-12.33,1.27-16.3,3.76a29.49,29.49,0,0,1-11.24,4.11C120.29,249.16,111.13,252.81,118.64,266Z"/><path class="cls-6" d="M239,279.18s44.74,0,81.63,55.61l38.46-16.18,6.79,14.84s-31.17,27.32-42.54,27.32-46.21-29.7-46.21-29.7L296.3,420l-28.69,11.37Z"/><path class="cls-6" d="M225.61,279.18s-42.93,4.76-81.93,52.72c-3.33,4.09-6.88,8.86-9.87,13.42a19,19,0,0,0,3.29,24.61l40.1,35.86,4.08-21.8-21.8-27.35,33.2-33.55-18.36,98.15,40.13,10.11Z"/><line class="cls-7" x1="159.47" y1="356.64" x2="156.72" y2="352.91"/><path class="cls-1" d="M360.23,321.08s14.73-11.69,31.23-12.66,0,4.4,0,4.4-8,2.76-8.93,4.13c0,0,4.16,4.81-3,8.8S363.87,329,363.87,329Z"/><path class="cls-7" d="M237.34,250.64s5.36,3.13,2.31,8.2a6.29,6.29,0,0,1-4.78,3.25c-3.52.4-6.63-2.56-5.87-6l0-.11a4,4,0,0,1,5.57-3.09,3.59,3.59,0,0,1,2.22,4.42,2.82,2.82,0,0,1-4.14,1.58,2.13,2.13,0,0,1,0-3.75"/><path class="cls-1" d="M288.15,625.25s5.5,16.22,15.77,17.69,22.73,4,22.73,9.53H272.38s2.2-17.05,0-27.22Z"/><path class="cls-2" d="M202.72,625.25s-2.37,16.22,7.9,17.69,22.73,4,22.73,9.53H179.08s3.47-13.61,6-27.22Z"/><line class="cls-7" x1="102.23" y1="652.48" x2="697.77" y2="652.48"/><line class="cls-7" x1="476.43" y1="365.39" x2="481.48" y2="360.33"/><line class="cls-7" x1="476.43" y1="365.39" x2="481.48" y2="370.44"/><line class="cls-7" x1="496.95" y1="365.39" x2="491.9" y2="360.33"/><line class="cls-7" x1="496.95" y1="365.39" x2="491.9" y2="370.44"/><line class="cls-7" x1="485.38" y1="368.71" x2="488" y2="362.06"/></svg>