<svg id="图层_1" data-name="图层 1" xmlns="http://www.w3.org/2000/svg" viewBox="0 0 800 800"><defs><style>.cls-1,.cls-4{fill:#fff;}.cls-1,.cls-10,.cls-11,.cls-2,.cls-3,.cls-4,.cls-5,.cls-6,.cls-7,.cls-8,.cls-9{stroke:#000;stroke-width:0.91px;}.cls-1,.cls-11,.cls-2,.cls-5,.cls-9{stroke-miterlimit:9.15;}.cls-10,.cls-2{fill:none;}.cls-10,.cls-3,.cls-4,.cls-6,.cls-7,.cls-8{stroke-linecap:round;stroke-linejoin:round;}.cls-6{fill:#dbdde2;}.cls-7{fill:#002f9c;}.cls-8{fill:#3165e8;}.cls-9{fill:#ffca6e;}.cls-11{fill:#7400a5;}</style></defs><rect class="cls-1" x="387.58" y="170" width="210.35" height="151.92"/><polyline class="cls-2" points="387.58 170 492.75 259.29 597.92 170"/><line class="cls-2" x1="387.58" y1="321.92" x2="469.42" y2="239.48"/><line class="cls-2" x1="597.93" y1="321.92" x2="516.09" y2="239.48"/><rect class="cls-1" x="127.41" y="152.14" width="313.25" height="296.92"/><path class="cls-3" d="M629,583.06H498.05a14.57,14.57,0,0,1-14.57-14.56V295.79a14.57,14.57,0,0,1,14.57-14.56H629a14.56,14.56,0,0,1,14.56,14.56V568.51A14.55,14.55,0,0,1,629,583.06Z"/><rect class="cls-4" x="483.48" y="311.85" width="160.07" height="231.87"/><rect class="cls-5" x="127.41" y="448.7" width="313.25" height="69.33"/><rect class="cls-6" x="127.41" y="152.14" width="313.25" height="39.55"/><path class="cls-1" d="M594.49,514.13a106.39,106.39,0,0,1,13.07,7.59c2.51,1.86-.15,13.56-8.45,12.39,0,0-13.42-2.18-14.15,9.63H611a3.4,3.4,0,0,0,3.11-2L624,519a1.78,1.78,0,0,0-.82-2.3c-4.91-2.49-20.48-10.44-24.29-13.32Z"/><path class="cls-4" d="M599.1,534.1s5.1.3,8.17,2.34"/><path class="cls-7" d="M483.48,383.68v61.81c52.71,54,109.26,74.53,109.26,74.53l9.44-23.23C567.17,484.5,515.93,425,483.48,383.68Z"/><path class="cls-8" d="M440.65,335c-3.13-1.62-5.26-2.49-5.26-2.49L374.23,448.69h35.93s15.65-18.17,30.49-38Z"/><path class="cls-1" d="M344.11,421.52l-.68,10.12s-.14,6-4.63,6.8-19.47.42-21.23,6.81,27.76,3.82,31.17-.81,5-22.92,5-22.92Z"/><path class="cls-1" d="M285.7,323.19S279,312.9,274.55,295.34c-1.55-6-8.17-5.17-6.67,7.9s10.84,17.41,12.57,26.33Z"/><path class="cls-1" d="M352.5,297.61s-20.1,40.29-30.18,43.1S286.67,322,286.67,322l-7.62,9.26s26.67,31.3,44.91,30.21,35.54-34.57,35.54-34.57Z"/><path class="cls-1" d="M352.5,297.61c-6.87-9.26-10.57-5.94-10.57-5.94s-5.43,5.11-7.67,3.51c-1.64-1.17-3.13-6.13-3.82-8.67a2.58,2.58,0,0,0-1.92-1.86c-1.79-.42-4.35-1.15-2.94-1.58a4.14,4.14,0,0,0,1.2-.62,5.09,5.09,0,0,0,2-4,24.44,24.44,0,0,1,2.13-9.46s10.53-4.8,14.84,1.6,16.14,17.09,16.14,17.09Z"/><path class="cls-9" d="M334.56,258a6.53,6.53,0,0,1-3.62,1.27c-4.13.11-13.1,1.18-10.78,8.53,2.5,8,12.07,5.18,15.06,4.08a1,1,0,0,1,1.26.53c.47,1,1.41,2.59,2.84,2.73,2.13.22,1.71-2.95,5.92-1.91s-.17,6.82,1.53,8.52,9.63,0,9.63,0,8.67-16.39-3-21.93C353.37,259.81,344.87,250.68,334.56,258Z"/><path class="cls-1" d="M379.21,293.05c-1.6-1.13-3.19-2.27-4.72-3.48-3.06-2.41-12.51-8.24-20.59,3.59-9.79,14.33-12.7,129.62-12.7,129.62h14.7s8.17-76.63,10-82.07c0,0,45.47,20.85,53.28,22.66l16.22-30.83Z"/><line class="cls-10" x1="365.88" y1="340.71" x2="370.33" y2="316.99"/><rect class="cls-1" x="147" y="278.73" width="120.65" height="87.14"/><polyline class="cls-2" points="147 278.73 207.34 329.95 267.66 278.73"/><line class="cls-2" x1="147" y1="365.87" x2="193.95" y2="318.59"/><line class="cls-2" x1="267.66" y1="365.87" x2="220.72" y2="318.59"/><circle class="cls-3" cx="145.1" cy="171.92" r="4.99"/><circle class="cls-9" cx="166.75" cy="171.92" r="4.99"/><circle class="cls-8" cx="188.96" cy="171.92" r="4.99"/><circle class="cls-1" cx="563.52" cy="563.21" r="10.71"/><rect class="cls-1" x="199.68" y="347.51" width="84.35" height="60.92"/><polyline class="cls-2" points="199.68 347.51 241.86 383.32 284.03 347.51"/><line class="cls-2" x1="199.68" y1="408.43" x2="232.5" y2="375.38"/><line class="cls-2" x1="284.03" y1="408.43" x2="251.21" y2="375.38"/><path class="cls-2" d="M212.34,518s7.08,45.73,44.64,45.19,47.37-9.57,41.93-19.48-28.86.43-7.62,23.84,49.29,2.35,68.2,6.35,31.44,48.1,64.64,50.81,55.54-33.75,86-19.6,40.13,34.42,57.17,19.75c14.7-12.67,0-41.82,0-41.82"/><circle class="cls-11" cx="402.01" cy="609.47" r="27.11"/><polygon class="cls-9" points="178.94 581.04 178.94 647.86 245.75 647.86 178.94 581.04"/><path class="cls-2" d="M597.93,230s16.23-15.35,35.83,9.48,9.8,41,29.94,52.26,44.1,27,27.76,58-25.4,13.42-23.22,6.9c2.36-7.08,22.13-11.8,15.6,13.79S657.71,378.1,655,397.7s14.16,13.91,14.16,34.45-25.59,33.61-25.59,33.61"/><path class="cls-10" d="M339.47,275.29s-3.94,2.42-1.58,6.15a4.7,4.7,0,0,0,3.62,2.33,3.85,3.85,0,0,0,4.26-4.58.31.31,0,0,1,0-.08,3,3,0,0,0-4.2-2.21,2.67,2.67,0,0,0-1.57,3.33,2.1,2.1,0,0,0,3.11,1.11,1.59,1.59,0,0,0,0-2.79"/><rect class="cls-3" x="144.38" y="219.39" width="117.29" height="7.62"/><rect class="cls-3" x="103.12" y="241.53" width="117.29" height="7.62"/></svg>