<svg id="图层_1" data-name="图层 1" xmlns="http://www.w3.org/2000/svg" viewBox="0 0 800 800"><defs><style>.cls-1,.cls-10{fill:none;}.cls-1,.cls-12,.cls-13,.cls-14,.cls-2,.cls-3,.cls-4,.cls-5,.cls-6,.cls-7,.cls-8,.cls-9{stroke:#000;}.cls-1,.cls-12,.cls-13,.cls-3,.cls-5,.cls-7{stroke-miterlimit:9.15;}.cls-1,.cls-10,.cls-12,.cls-13,.cls-14,.cls-2,.cls-3,.cls-4,.cls-5,.cls-6,.cls-7,.cls-8,.cls-9{stroke-width:0.91px;}.cls-2{fill:#e3e5ea;}.cls-10,.cls-14,.cls-2,.cls-4,.cls-6,.cls-8,.cls-9{stroke-linecap:round;stroke-linejoin:round;}.cls-11,.cls-3,.cls-6{fill:#fff;}.cls-4{fill:#3165f0;}.cls-7{fill:#ffd36e;}.cls-9{fill:#002fa4;}.cls-10{stroke:#fff;}.cls-12{fill:#f9762d;}.cls-13{fill:#1331a1;}.cls-14{fill:#dbdde2;}</style></defs><path class="cls-1" d="M127.89,289.14s-57.38-68.3,17.19-94.31c0,0,35-13.52,51.63-37.84s65-21.43,98.17,14.12c0,0,17.84,16.4,40.78-2.29s61,26.34,31.64,48.88"/><polygon class="cls-2" points="142.72 279.93 150.7 297.51 121.35 310.78 113.45 293.26 132.07 295.35 142.72 279.93"/><path class="cls-2" d="M113.45,293.26,142.8,280,134,294.77a3.33,3.33,0,0,1-3.39,1.56Z"/><path class="cls-1" d="M591.19,206.21c-2.61,4-34.25,53.65,18.11,88.36s31.89,74.11,20.2,88.29c-13.73,16.61-55,29.21-75.81,10.19s7.71-32.28,17-18c7.91,12.22,7.07,25.36-6.27,32.74A26.34,26.34,0,0,1,552.06,411c-6.8.12-19.08,1.5-18.69,10,.52,11.77,17.84,15,12,28.83"/><line class="cls-1" x1="427.87" y1="658.66" x2="716.94" y2="658.86"/><line class="cls-1" x1="83.06" y1="604.94" x2="613.02" y2="604.94"/><path class="cls-3" d="M255.59,604.94h276.2V222H242.39V591.74a13.21,13.21,0,0,0,13.2,13.2"/><polygon class="cls-3" points="286.7 587.29 259.19 587.29 259.19 239.67 514.99 239.67 514.99 587.29 344.87 587.29 286.7 587.29"/><path class="cls-4" d="M365.13,214.7c0-.39-.07-.72-.07-1.1a22,22,0,1,1,43.91,0c0,.39-.06.72-.06,1.1h32.35v33.53H332.84V214.7Z"/><path class="cls-5" d="M400,587.29a33.14,33.14,0,0,1-58.17,0Z"/><path class="cls-3" d="M404.08,571.41A32.62,32.62,0,0,1,400,587.29h-58.1a33.1,33.1,0,1,1,62.15-15.88Z"/><circle class="cls-6" cx="276.18" cy="643.43" r="8.36"/><path class="cls-3" d="M399.44,213.66a12.35,12.35,0,1,1-12.35-12.35,12.38,12.38,0,0,1,12.35,12.35Z"/><polygon class="cls-7" points="613.93 176.6 613.93 272.88 517.67 272.88 613.93 176.6"/><polygon class="cls-8" points="225.86 351.89 188.15 351.37 188.15 357.77 225.14 357.77 225.86 351.89"/><path class="cls-9" d="M187.89,355.81s-15.69,14.7-5.89,62.81,39.61,154.63,39.61,154.63h29.8l-31-215.67Z"/><path class="cls-8" d="M241.22,573.31s1,12.42,10.2,18.83,21.43,5.75,23.66,13.4H227a125.15,125.15,0,0,1-1-15.16c.06-6.14,1-17.06,1-17.06Z"/><path class="cls-4" d="M225.14,358.35s38.23,74.19,24,104.64-78,102.68-78,102.68l-23.79-17.32,61.9-96.66c-22.22-84.64-17-95.81-17-95.81Z"/><path class="cls-8" d="M164.42,560.76s-4,2.55-5,12.55a159.69,159.69,0,0,0,0,22.81s8,2.87,9.42,9.41H156.58L133.12,584s4.9-9.15,9.08-15.49c2.87-4.38,12.22-15,12.22-15Z"/><ellipse class="cls-8" cx="218.21" cy="280.51" rx="5.62" ry="1.83"/><path class="cls-8" d="M223.12,287.18s.26-2.35.45-4.77,2.1.33,5.76-.13,3.26-6.8,3.92-9.21a5.65,5.65,0,0,1,2.48-3.4s-3.27.07-3.92-4.63a12.92,12.92,0,0,0-.27-1.83,9.37,9.37,0,0,0-8.43-6.86c-13.53-1.18-10.52,10.91-10.07,18.36.46,8.11-8.95,21.77-8.95,21.77l17.58,2.68C221.68,299.08,224.49,295.29,223.12,287.18Z"/><path class="cls-6" d="M232.2,255.88c-1.24,3.59-5.75,5.09-9,3.53a9,9,0,0,1-.12,3.92c-.2.59-.27,1.57-1.25,1.57a2.92,2.92,0,0,0-3.86-.85,3.27,3.27,0,0,0-1.11,4.05,4.5,4.5,0,0,0,2.75,2.1,2.14,2.14,0,0,1,1.7,2.28,7.08,7.08,0,0,1-2,3.93,10.08,10.08,0,0,1-6.47,3.07c-2.41.27-5.09-.19-6.53-2.16a7,7,0,0,1-.52-.91,16.85,16.85,0,0,1-4.44-10.59,17.52,17.52,0,0,1,1.1-6.6,16,16,0,0,1,1.57-3.08c.45-.72,1-1.3,1.5-2a8.51,8.51,0,0,1,2-2.41c1.38-.92,3.08-1,4.64-1.5a35.8,35.8,0,0,0,5.43-2.88c1.83-.91,4-1.5,5.88-.58,1.31.65,2.16,2,3.47,2.68,1.83,1,4.31.79,5.16,3.47A3.91,3.91,0,0,1,232.2,255.88Z"/><path class="cls-6" d="M206.38,253.26A3.58,3.58,0,0,0,207,252a10.4,10.4,0,0,0,.52-1.44,14.55,14.55,0,0,0,.73-2.87,6.5,6.5,0,0,0-1.77-5.42,5.08,5.08,0,0,0-3.72-1.31,6.21,6.21,0,0,0-5.62,4.44,6.73,6.73,0,0,0,2.29,6.93,6.82,6.82,0,0,0,4.11,1.37,7.73,7.73,0,0,0,2.42-.19C206.12,253.46,206.26,253.33,206.38,253.26Z"/><path class="cls-10" d="M221.94,264.44s4.05,1.5,2.55,5.36a4.46,4.46,0,0,1-2.88,2.81,3.59,3.59,0,0,1-4.7-3.47v-.06a2.75,2.75,0,0,1,3.47-2.74,2.45,2.45,0,0,1,2,2.74,2,2,0,0,1-2.68,1.56,1.49,1.49,0,0,1-.46-2.55"/><path class="cls-6" d="M276.05,354.82,263.11,360a6.65,6.65,0,0,1-9.81-2.09L236,336.58l-10.52,17.13L189.07,351l.85-3.47,15.16-61.24L221,284.23l4.3.46A17.8,17.8,0,0,1,237.42,293Z"/><polygon class="cls-8" points="241.22 320.91 237.49 310.58 253.7 306.72 265.33 314.57 241.22 320.91"/><path class="cls-6" d="M249.25,318.49c-10.33,5.23-20.58,10.45-30.91,15.69-7.9,4-15.88,8-24.44,10.26-4.91,1.24-10.13,1.89-14.91.27-12.15-4-4.11-20.13-.19-28,2.87-5.82,17.65-26.14,24.18-30.06,4.45-2.68,10.52-2.16,15.62-1.89-.33,0-2.1,3.66-2.29,3.92-1,1.83-2.1,3.6-3.07,5.43-2,3.59-4.12,7.25-6.15,10.85s-3.93,6.92-5.88,10.32c-1,1.71-2,3.47-2.94,5.16-.52.92-2,4.84-2.94,5.16,15.3-5.42,30.66-10.91,45.94-16.33a1.81,1.81,0,0,1,1.18-.13,2.6,2.6,0,0,1,.65.58C245.13,312.73,247.17,315.62,249.25,318.49Z"/><polygon class="cls-7" points="255.66 281.24 232.99 363.91 286.12 358.1 306.44 275.69 255.66 281.24"/><path class="cls-8" d="M298,310l-13.33,1.7a4.75,4.75,0,0,0-3.39,7.26l1.5,2.35a5.39,5.39,0,0,0,5.23,2.48l9-1a2.23,2.23,0,0,0,1.77-1.25l4.24-8.62a2.28,2.28,0,0,0-2.29-3.27Z"/><path class="cls-11" d="M208.08,291.69s11.5-13.4,10.73,0-5.62,15.82-5.62,15.82l-9.08-2.74Z"/><path class="cls-8" d="M210.44,284.9s11.37,14.11,15.75,12-2.35-12.16-2.35-12.16Z"/><path class="cls-3" d="M676.81,631.48a51,51,0,1,0-94.12,27.38H668.9A51.33,51.33,0,0,0,676.81,631.48Z"/><circle class="cls-12" cx="183.5" cy="176.93" r="15.42"/><circle class="cls-7" cx="505.51" cy="643.43" r="15.42"/><path class="cls-13" d="M644.07,464.69c-31.18,0-59.67-10.72-79.54-29.54a6.82,6.82,0,0,0-9.67,0c-19.35,18.83-48.37,29.54-79.54,29.54a7.08,7.08,0,0,0-7,7V557.1c0,27.38,14.5,52.68,38.16,68.24l49.41,32.22a10,10,0,0,0,3.79,1,10.63,10.63,0,0,0,3.78-1l49.41-32.22c24.18-15.55,38.17-41.37,38.17-68.24V471.68a7.07,7.07,0,0,0-7-7Z"/><polygon class="cls-3" points="513.87 554.22 545.64 579.19 605.57 521.42 597.08 512.6 544.86 562.92 521.46 544.55 513.87 554.22"/><rect class="cls-5" x="425.97" y="330.12" width="109.21" height="7.25"/><rect class="cls-5" x="439.5" y="311.11" width="109.21" height="7.25"/><rect class="cls-14" x="318.01" y="366.46" width="128.1" height="128.1"/></svg>